%TF.GenerationSoftware,KiCad,Pcbnew,9.0.5*%
%TF.CreationDate,2025-12-05T14:56:30+01:00*%
%TF.ProjectId,Speedometer_Tech,53706565-646f-46d6-9574-65725f546563,rev?*%
%TF.SameCoordinates,Original*%
%TF.FileFunction,Legend,Bot*%
%TF.FilePolarity,Positive*%
%FSLAX46Y46*%
G04 Gerber Fmt 4.6, Leading zero omitted, Abs format (unit mm)*
G04 Created by KiCad (PCBNEW 9.0.5) date 2025-12-05 14:56:30*
%MOMM*%
%LPD*%
G01*
G04 APERTURE LIST*
%ADD10C,0.254000*%
%ADD11C,0.200000*%
%ADD12C,0.150000*%
%ADD13C,0.600000*%
%ADD14C,0.250000*%
%ADD15C,0.125000*%
%ADD16C,0.500000*%
%ADD17C,0.100000*%
%ADD18C,0.127000*%
G04 APERTURE END LIST*
D10*
X67166819Y-62526705D02*
X66949105Y-62599276D01*
X66949105Y-62599276D02*
X66586247Y-62599276D01*
X66586247Y-62599276D02*
X66441105Y-62526705D01*
X66441105Y-62526705D02*
X66368533Y-62454133D01*
X66368533Y-62454133D02*
X66295962Y-62308990D01*
X66295962Y-62308990D02*
X66295962Y-62163847D01*
X66295962Y-62163847D02*
X66368533Y-62018705D01*
X66368533Y-62018705D02*
X66441105Y-61946133D01*
X66441105Y-61946133D02*
X66586247Y-61873562D01*
X66586247Y-61873562D02*
X66876533Y-61800990D01*
X66876533Y-61800990D02*
X67021676Y-61728419D01*
X67021676Y-61728419D02*
X67094247Y-61655847D01*
X67094247Y-61655847D02*
X67166819Y-61510705D01*
X67166819Y-61510705D02*
X67166819Y-61365562D01*
X67166819Y-61365562D02*
X67094247Y-61220419D01*
X67094247Y-61220419D02*
X67021676Y-61147847D01*
X67021676Y-61147847D02*
X66876533Y-61075276D01*
X66876533Y-61075276D02*
X66513676Y-61075276D01*
X66513676Y-61075276D02*
X66295962Y-61147847D01*
X65642818Y-61800990D02*
X65134818Y-61800990D01*
X64917104Y-62599276D02*
X65642818Y-62599276D01*
X65642818Y-62599276D02*
X65642818Y-61075276D01*
X65642818Y-61075276D02*
X64917104Y-61075276D01*
X63393104Y-62599276D02*
X63901104Y-61873562D01*
X64263961Y-62599276D02*
X64263961Y-61075276D01*
X64263961Y-61075276D02*
X63683390Y-61075276D01*
X63683390Y-61075276D02*
X63538247Y-61147847D01*
X63538247Y-61147847D02*
X63465676Y-61220419D01*
X63465676Y-61220419D02*
X63393104Y-61365562D01*
X63393104Y-61365562D02*
X63393104Y-61583276D01*
X63393104Y-61583276D02*
X63465676Y-61728419D01*
X63465676Y-61728419D02*
X63538247Y-61800990D01*
X63538247Y-61800990D02*
X63683390Y-61873562D01*
X63683390Y-61873562D02*
X64263961Y-61873562D01*
X62739961Y-62599276D02*
X62739961Y-61075276D01*
X62086819Y-62163847D02*
X61361105Y-62163847D01*
X62231962Y-62599276D02*
X61723962Y-61075276D01*
X61723962Y-61075276D02*
X61215962Y-62599276D01*
X59982247Y-62599276D02*
X60707961Y-62599276D01*
X60707961Y-62599276D02*
X60707961Y-61075276D01*
X263937395Y-90575276D02*
X264663109Y-90575276D01*
X264663109Y-90575276D02*
X264735681Y-91300990D01*
X264735681Y-91300990D02*
X264663109Y-91228419D01*
X264663109Y-91228419D02*
X264517967Y-91155847D01*
X264517967Y-91155847D02*
X264155109Y-91155847D01*
X264155109Y-91155847D02*
X264009967Y-91228419D01*
X264009967Y-91228419D02*
X263937395Y-91300990D01*
X263937395Y-91300990D02*
X263864824Y-91446133D01*
X263864824Y-91446133D02*
X263864824Y-91808990D01*
X263864824Y-91808990D02*
X263937395Y-91954133D01*
X263937395Y-91954133D02*
X264009967Y-92026705D01*
X264009967Y-92026705D02*
X264155109Y-92099276D01*
X264155109Y-92099276D02*
X264517967Y-92099276D01*
X264517967Y-92099276D02*
X264663109Y-92026705D01*
X264663109Y-92026705D02*
X264735681Y-91954133D01*
X263429395Y-90575276D02*
X262921395Y-92099276D01*
X262921395Y-92099276D02*
X262413395Y-90575276D01*
X65425115Y-71075276D02*
X65425115Y-72163847D01*
X65425115Y-72163847D02*
X65497686Y-72381562D01*
X65497686Y-72381562D02*
X65642829Y-72526705D01*
X65642829Y-72526705D02*
X65860543Y-72599276D01*
X65860543Y-72599276D02*
X66005686Y-72599276D01*
X64917115Y-71075276D02*
X64046258Y-71075276D01*
X64481686Y-72599276D02*
X64481686Y-71075276D01*
X63610829Y-72163847D02*
X62885115Y-72163847D01*
X63755972Y-72599276D02*
X63247972Y-71075276D01*
X63247972Y-71075276D02*
X62739972Y-72599276D01*
X61433686Y-71147847D02*
X61578829Y-71075276D01*
X61578829Y-71075276D02*
X61796543Y-71075276D01*
X61796543Y-71075276D02*
X62014257Y-71147847D01*
X62014257Y-71147847D02*
X62159400Y-71292990D01*
X62159400Y-71292990D02*
X62231971Y-71438133D01*
X62231971Y-71438133D02*
X62304543Y-71728419D01*
X62304543Y-71728419D02*
X62304543Y-71946133D01*
X62304543Y-71946133D02*
X62231971Y-72236419D01*
X62231971Y-72236419D02*
X62159400Y-72381562D01*
X62159400Y-72381562D02*
X62014257Y-72526705D01*
X62014257Y-72526705D02*
X61796543Y-72599276D01*
X61796543Y-72599276D02*
X61651400Y-72599276D01*
X61651400Y-72599276D02*
X61433686Y-72526705D01*
X61433686Y-72526705D02*
X61361114Y-72454133D01*
X61361114Y-72454133D02*
X61361114Y-71946133D01*
X61361114Y-71946133D02*
X61651400Y-71946133D01*
X245533962Y-90575276D02*
X244590534Y-90575276D01*
X244590534Y-90575276D02*
X245098534Y-91155847D01*
X245098534Y-91155847D02*
X244880819Y-91155847D01*
X244880819Y-91155847D02*
X244735677Y-91228419D01*
X244735677Y-91228419D02*
X244663105Y-91300990D01*
X244663105Y-91300990D02*
X244590534Y-91446133D01*
X244590534Y-91446133D02*
X244590534Y-91808990D01*
X244590534Y-91808990D02*
X244663105Y-91954133D01*
X244663105Y-91954133D02*
X244735677Y-92026705D01*
X244735677Y-92026705D02*
X244880819Y-92099276D01*
X244880819Y-92099276D02*
X245316248Y-92099276D01*
X245316248Y-92099276D02*
X245461391Y-92026705D01*
X245461391Y-92026705D02*
X245533962Y-91954133D01*
X244155105Y-90575276D02*
X243647105Y-92099276D01*
X243647105Y-92099276D02*
X243139105Y-90575276D01*
X242776247Y-90575276D02*
X241832819Y-90575276D01*
X241832819Y-90575276D02*
X242340819Y-91155847D01*
X242340819Y-91155847D02*
X242123104Y-91155847D01*
X242123104Y-91155847D02*
X241977962Y-91228419D01*
X241977962Y-91228419D02*
X241905390Y-91300990D01*
X241905390Y-91300990D02*
X241832819Y-91446133D01*
X241832819Y-91446133D02*
X241832819Y-91808990D01*
X241832819Y-91808990D02*
X241905390Y-91954133D01*
X241905390Y-91954133D02*
X241977962Y-92026705D01*
X241977962Y-92026705D02*
X242123104Y-92099276D01*
X242123104Y-92099276D02*
X242558533Y-92099276D01*
X242558533Y-92099276D02*
X242703676Y-92026705D01*
X242703676Y-92026705D02*
X242776247Y-91954133D01*
X135105104Y-107599276D02*
X135105104Y-106075276D01*
X135105104Y-106075276D02*
X134742247Y-106075276D01*
X134742247Y-106075276D02*
X134524533Y-106147847D01*
X134524533Y-106147847D02*
X134379390Y-106292990D01*
X134379390Y-106292990D02*
X134306819Y-106438133D01*
X134306819Y-106438133D02*
X134234247Y-106728419D01*
X134234247Y-106728419D02*
X134234247Y-106946133D01*
X134234247Y-106946133D02*
X134306819Y-107236419D01*
X134306819Y-107236419D02*
X134379390Y-107381562D01*
X134379390Y-107381562D02*
X134524533Y-107526705D01*
X134524533Y-107526705D02*
X134742247Y-107599276D01*
X134742247Y-107599276D02*
X135105104Y-107599276D01*
X133581104Y-107599276D02*
X133581104Y-106075276D01*
X132057105Y-106147847D02*
X132202248Y-106075276D01*
X132202248Y-106075276D02*
X132419962Y-106075276D01*
X132419962Y-106075276D02*
X132637676Y-106147847D01*
X132637676Y-106147847D02*
X132782819Y-106292990D01*
X132782819Y-106292990D02*
X132855390Y-106438133D01*
X132855390Y-106438133D02*
X132927962Y-106728419D01*
X132927962Y-106728419D02*
X132927962Y-106946133D01*
X132927962Y-106946133D02*
X132855390Y-107236419D01*
X132855390Y-107236419D02*
X132782819Y-107381562D01*
X132782819Y-107381562D02*
X132637676Y-107526705D01*
X132637676Y-107526705D02*
X132419962Y-107599276D01*
X132419962Y-107599276D02*
X132274819Y-107599276D01*
X132274819Y-107599276D02*
X132057105Y-107526705D01*
X132057105Y-107526705D02*
X131984533Y-107454133D01*
X131984533Y-107454133D02*
X131984533Y-106946133D01*
X131984533Y-106946133D02*
X132274819Y-106946133D01*
X131331390Y-107599276D02*
X131331390Y-106075276D01*
X130823391Y-106075276D02*
X129952534Y-106075276D01*
X130387962Y-107599276D02*
X130387962Y-106075276D01*
X129444533Y-107018705D02*
X128283391Y-107018705D01*
X126686819Y-107599276D02*
X127194819Y-106873562D01*
X127557676Y-107599276D02*
X127557676Y-106075276D01*
X127557676Y-106075276D02*
X126977105Y-106075276D01*
X126977105Y-106075276D02*
X126831962Y-106147847D01*
X126831962Y-106147847D02*
X126759391Y-106220419D01*
X126759391Y-106220419D02*
X126686819Y-106365562D01*
X126686819Y-106365562D02*
X126686819Y-106583276D01*
X126686819Y-106583276D02*
X126759391Y-106728419D01*
X126759391Y-106728419D02*
X126831962Y-106800990D01*
X126831962Y-106800990D02*
X126977105Y-106873562D01*
X126977105Y-106873562D02*
X127557676Y-106873562D01*
X126033676Y-106800990D02*
X125525676Y-106800990D01*
X125307962Y-107599276D02*
X126033676Y-107599276D01*
X126033676Y-107599276D02*
X126033676Y-106075276D01*
X126033676Y-106075276D02*
X125307962Y-106075276D01*
X124727391Y-107526705D02*
X124509677Y-107599276D01*
X124509677Y-107599276D02*
X124146819Y-107599276D01*
X124146819Y-107599276D02*
X124001677Y-107526705D01*
X124001677Y-107526705D02*
X123929105Y-107454133D01*
X123929105Y-107454133D02*
X123856534Y-107308990D01*
X123856534Y-107308990D02*
X123856534Y-107163847D01*
X123856534Y-107163847D02*
X123929105Y-107018705D01*
X123929105Y-107018705D02*
X124001677Y-106946133D01*
X124001677Y-106946133D02*
X124146819Y-106873562D01*
X124146819Y-106873562D02*
X124437105Y-106800990D01*
X124437105Y-106800990D02*
X124582248Y-106728419D01*
X124582248Y-106728419D02*
X124654819Y-106655847D01*
X124654819Y-106655847D02*
X124727391Y-106510705D01*
X124727391Y-106510705D02*
X124727391Y-106365562D01*
X124727391Y-106365562D02*
X124654819Y-106220419D01*
X124654819Y-106220419D02*
X124582248Y-106147847D01*
X124582248Y-106147847D02*
X124437105Y-106075276D01*
X124437105Y-106075276D02*
X124074248Y-106075276D01*
X124074248Y-106075276D02*
X123856534Y-106147847D01*
X123203390Y-106800990D02*
X122695390Y-106800990D01*
X122477676Y-107599276D02*
X123203390Y-107599276D01*
X123203390Y-107599276D02*
X123203390Y-106075276D01*
X123203390Y-106075276D02*
X122477676Y-106075276D01*
X122042248Y-106075276D02*
X121171391Y-106075276D01*
X121606819Y-107599276D02*
X121606819Y-106075276D01*
X101948252Y-134487604D02*
X102673966Y-134487604D01*
X102673966Y-134487604D02*
X102673966Y-132963604D01*
X99408252Y-134342461D02*
X99480824Y-134415033D01*
X99480824Y-134415033D02*
X99698538Y-134487604D01*
X99698538Y-134487604D02*
X99843681Y-134487604D01*
X99843681Y-134487604D02*
X100061395Y-134415033D01*
X100061395Y-134415033D02*
X100206538Y-134269890D01*
X100206538Y-134269890D02*
X100279109Y-134124747D01*
X100279109Y-134124747D02*
X100351681Y-133834461D01*
X100351681Y-133834461D02*
X100351681Y-133616747D01*
X100351681Y-133616747D02*
X100279109Y-133326461D01*
X100279109Y-133326461D02*
X100206538Y-133181318D01*
X100206538Y-133181318D02*
X100061395Y-133036175D01*
X100061395Y-133036175D02*
X99843681Y-132963604D01*
X99843681Y-132963604D02*
X99698538Y-132963604D01*
X99698538Y-132963604D02*
X99480824Y-133036175D01*
X99480824Y-133036175D02*
X99408252Y-133108747D01*
X98827681Y-134052175D02*
X98101967Y-134052175D01*
X98972824Y-134487604D02*
X98464824Y-132963604D01*
X98464824Y-132963604D02*
X97956824Y-134487604D01*
X97448823Y-134487604D02*
X97448823Y-132963604D01*
X97448823Y-132963604D02*
X96577966Y-134487604D01*
X96577966Y-134487604D02*
X96577966Y-132963604D01*
X94691109Y-134487604D02*
X94691109Y-132963604D01*
X94691109Y-133689318D02*
X93820252Y-133689318D01*
X93820252Y-134487604D02*
X93820252Y-132963604D01*
X195255434Y-138569638D02*
X196779434Y-138569638D01*
X195255434Y-137698781D02*
X196126291Y-138351924D01*
X196779434Y-137698781D02*
X195908577Y-138569638D01*
X195255434Y-136319924D02*
X195255434Y-137045638D01*
X195255434Y-137045638D02*
X196779434Y-137045638D01*
X196779434Y-135957067D02*
X196779434Y-135013639D01*
X196779434Y-135013639D02*
X196198863Y-135521639D01*
X196198863Y-135521639D02*
X196198863Y-135303924D01*
X196198863Y-135303924D02*
X196126291Y-135158782D01*
X196126291Y-135158782D02*
X196053720Y-135086210D01*
X196053720Y-135086210D02*
X195908577Y-135013639D01*
X195908577Y-135013639D02*
X195545720Y-135013639D01*
X195545720Y-135013639D02*
X195400577Y-135086210D01*
X195400577Y-135086210D02*
X195328006Y-135158782D01*
X195328006Y-135158782D02*
X195255434Y-135303924D01*
X195255434Y-135303924D02*
X195255434Y-135739353D01*
X195255434Y-135739353D02*
X195328006Y-135884496D01*
X195328006Y-135884496D02*
X195400577Y-135957067D01*
X195255434Y-133562210D02*
X195255434Y-134433067D01*
X195255434Y-133997638D02*
X196779434Y-133997638D01*
X196779434Y-133997638D02*
X196561720Y-134142781D01*
X196561720Y-134142781D02*
X196416577Y-134287924D01*
X196416577Y-134287924D02*
X196344006Y-134433067D01*
X110134818Y-72599276D02*
X110134818Y-71075276D01*
X109481676Y-71220419D02*
X109409104Y-71147847D01*
X109409104Y-71147847D02*
X109263962Y-71075276D01*
X109263962Y-71075276D02*
X108901104Y-71075276D01*
X108901104Y-71075276D02*
X108755962Y-71147847D01*
X108755962Y-71147847D02*
X108683390Y-71220419D01*
X108683390Y-71220419D02*
X108610819Y-71365562D01*
X108610819Y-71365562D02*
X108610819Y-71510705D01*
X108610819Y-71510705D02*
X108683390Y-71728419D01*
X108683390Y-71728419D02*
X109554247Y-72599276D01*
X109554247Y-72599276D02*
X108610819Y-72599276D01*
X107086818Y-72454133D02*
X107159390Y-72526705D01*
X107159390Y-72526705D02*
X107377104Y-72599276D01*
X107377104Y-72599276D02*
X107522247Y-72599276D01*
X107522247Y-72599276D02*
X107739961Y-72526705D01*
X107739961Y-72526705D02*
X107885104Y-72381562D01*
X107885104Y-72381562D02*
X107957675Y-72236419D01*
X107957675Y-72236419D02*
X108030247Y-71946133D01*
X108030247Y-71946133D02*
X108030247Y-71728419D01*
X108030247Y-71728419D02*
X107957675Y-71438133D01*
X107957675Y-71438133D02*
X107885104Y-71292990D01*
X107885104Y-71292990D02*
X107739961Y-71147847D01*
X107739961Y-71147847D02*
X107522247Y-71075276D01*
X107522247Y-71075276D02*
X107377104Y-71075276D01*
X107377104Y-71075276D02*
X107159390Y-71147847D01*
X107159390Y-71147847D02*
X107086818Y-71220419D01*
X112166829Y-62526705D02*
X111949115Y-62599276D01*
X111949115Y-62599276D02*
X111586257Y-62599276D01*
X111586257Y-62599276D02*
X111441115Y-62526705D01*
X111441115Y-62526705D02*
X111368543Y-62454133D01*
X111368543Y-62454133D02*
X111295972Y-62308990D01*
X111295972Y-62308990D02*
X111295972Y-62163847D01*
X111295972Y-62163847D02*
X111368543Y-62018705D01*
X111368543Y-62018705D02*
X111441115Y-61946133D01*
X111441115Y-61946133D02*
X111586257Y-61873562D01*
X111586257Y-61873562D02*
X111876543Y-61800990D01*
X111876543Y-61800990D02*
X112021686Y-61728419D01*
X112021686Y-61728419D02*
X112094257Y-61655847D01*
X112094257Y-61655847D02*
X112166829Y-61510705D01*
X112166829Y-61510705D02*
X112166829Y-61365562D01*
X112166829Y-61365562D02*
X112094257Y-61220419D01*
X112094257Y-61220419D02*
X112021686Y-61147847D01*
X112021686Y-61147847D02*
X111876543Y-61075276D01*
X111876543Y-61075276D02*
X111513686Y-61075276D01*
X111513686Y-61075276D02*
X111295972Y-61147847D01*
X110642828Y-61800990D02*
X110134828Y-61800990D01*
X109917114Y-62599276D02*
X110642828Y-62599276D01*
X110642828Y-62599276D02*
X110642828Y-61075276D01*
X110642828Y-61075276D02*
X109917114Y-61075276D01*
X108393114Y-62599276D02*
X108901114Y-61873562D01*
X109263971Y-62599276D02*
X109263971Y-61075276D01*
X109263971Y-61075276D02*
X108683400Y-61075276D01*
X108683400Y-61075276D02*
X108538257Y-61147847D01*
X108538257Y-61147847D02*
X108465686Y-61220419D01*
X108465686Y-61220419D02*
X108393114Y-61365562D01*
X108393114Y-61365562D02*
X108393114Y-61583276D01*
X108393114Y-61583276D02*
X108465686Y-61728419D01*
X108465686Y-61728419D02*
X108538257Y-61800990D01*
X108538257Y-61800990D02*
X108683400Y-61873562D01*
X108683400Y-61873562D02*
X109263971Y-61873562D01*
X107739971Y-62599276D02*
X107739971Y-61075276D01*
X107086829Y-62163847D02*
X106361115Y-62163847D01*
X107231972Y-62599276D02*
X106723972Y-61075276D01*
X106723972Y-61075276D02*
X106215972Y-62599276D01*
X104982257Y-62599276D02*
X105707971Y-62599276D01*
X105707971Y-62599276D02*
X105707971Y-61075276D01*
X200255434Y-138569638D02*
X201779434Y-138569638D01*
X200255434Y-137698781D02*
X201126291Y-138351924D01*
X201779434Y-137698781D02*
X200908577Y-138569638D01*
X200255434Y-136319924D02*
X200255434Y-137045638D01*
X200255434Y-137045638D02*
X201779434Y-137045638D01*
X201779434Y-135957067D02*
X201779434Y-135013639D01*
X201779434Y-135013639D02*
X201198863Y-135521639D01*
X201198863Y-135521639D02*
X201198863Y-135303924D01*
X201198863Y-135303924D02*
X201126291Y-135158782D01*
X201126291Y-135158782D02*
X201053720Y-135086210D01*
X201053720Y-135086210D02*
X200908577Y-135013639D01*
X200908577Y-135013639D02*
X200545720Y-135013639D01*
X200545720Y-135013639D02*
X200400577Y-135086210D01*
X200400577Y-135086210D02*
X200328006Y-135158782D01*
X200328006Y-135158782D02*
X200255434Y-135303924D01*
X200255434Y-135303924D02*
X200255434Y-135739353D01*
X200255434Y-135739353D02*
X200328006Y-135884496D01*
X200328006Y-135884496D02*
X200400577Y-135957067D01*
X201779434Y-134070210D02*
X201779434Y-133925067D01*
X201779434Y-133925067D02*
X201706863Y-133779924D01*
X201706863Y-133779924D02*
X201634291Y-133707353D01*
X201634291Y-133707353D02*
X201489148Y-133634781D01*
X201489148Y-133634781D02*
X201198863Y-133562210D01*
X201198863Y-133562210D02*
X200836006Y-133562210D01*
X200836006Y-133562210D02*
X200545720Y-133634781D01*
X200545720Y-133634781D02*
X200400577Y-133707353D01*
X200400577Y-133707353D02*
X200328006Y-133779924D01*
X200328006Y-133779924D02*
X200255434Y-133925067D01*
X200255434Y-133925067D02*
X200255434Y-134070210D01*
X200255434Y-134070210D02*
X200328006Y-134215353D01*
X200328006Y-134215353D02*
X200400577Y-134287924D01*
X200400577Y-134287924D02*
X200545720Y-134360495D01*
X200545720Y-134360495D02*
X200836006Y-134433067D01*
X200836006Y-134433067D02*
X201198863Y-134433067D01*
X201198863Y-134433067D02*
X201489148Y-134360495D01*
X201489148Y-134360495D02*
X201634291Y-134287924D01*
X201634291Y-134287924D02*
X201706863Y-134215353D01*
X201706863Y-134215353D02*
X201779434Y-134070210D01*
X130460538Y-57599276D02*
X130968538Y-56873562D01*
X131331395Y-57599276D02*
X131331395Y-56075276D01*
X131331395Y-56075276D02*
X130750824Y-56075276D01*
X130750824Y-56075276D02*
X130605681Y-56147847D01*
X130605681Y-56147847D02*
X130533110Y-56220419D01*
X130533110Y-56220419D02*
X130460538Y-56365562D01*
X130460538Y-56365562D02*
X130460538Y-56583276D01*
X130460538Y-56583276D02*
X130533110Y-56728419D01*
X130533110Y-56728419D02*
X130605681Y-56800990D01*
X130605681Y-56800990D02*
X130750824Y-56873562D01*
X130750824Y-56873562D02*
X131331395Y-56873562D01*
X129807395Y-56800990D02*
X129299395Y-56800990D01*
X129081681Y-57599276D02*
X129807395Y-57599276D01*
X129807395Y-57599276D02*
X129807395Y-56075276D01*
X129807395Y-56075276D02*
X129081681Y-56075276D01*
X128501110Y-57526705D02*
X128283396Y-57599276D01*
X128283396Y-57599276D02*
X127920538Y-57599276D01*
X127920538Y-57599276D02*
X127775396Y-57526705D01*
X127775396Y-57526705D02*
X127702824Y-57454133D01*
X127702824Y-57454133D02*
X127630253Y-57308990D01*
X127630253Y-57308990D02*
X127630253Y-57163847D01*
X127630253Y-57163847D02*
X127702824Y-57018705D01*
X127702824Y-57018705D02*
X127775396Y-56946133D01*
X127775396Y-56946133D02*
X127920538Y-56873562D01*
X127920538Y-56873562D02*
X128210824Y-56800990D01*
X128210824Y-56800990D02*
X128355967Y-56728419D01*
X128355967Y-56728419D02*
X128428538Y-56655847D01*
X128428538Y-56655847D02*
X128501110Y-56510705D01*
X128501110Y-56510705D02*
X128501110Y-56365562D01*
X128501110Y-56365562D02*
X128428538Y-56220419D01*
X128428538Y-56220419D02*
X128355967Y-56147847D01*
X128355967Y-56147847D02*
X128210824Y-56075276D01*
X128210824Y-56075276D02*
X127847967Y-56075276D01*
X127847967Y-56075276D02*
X127630253Y-56147847D01*
X126977109Y-56800990D02*
X126469109Y-56800990D01*
X126251395Y-57599276D02*
X126977109Y-57599276D01*
X126977109Y-57599276D02*
X126977109Y-56075276D01*
X126977109Y-56075276D02*
X126251395Y-56075276D01*
X125815967Y-56075276D02*
X124945110Y-56075276D01*
X125380538Y-57599276D02*
X125380538Y-56075276D01*
X18274962Y-64203145D02*
X18420105Y-64130574D01*
X18420105Y-64130574D02*
X18637819Y-64130574D01*
X18637819Y-64130574D02*
X18855533Y-64203145D01*
X18855533Y-64203145D02*
X19000676Y-64348288D01*
X19000676Y-64348288D02*
X19073247Y-64493431D01*
X19073247Y-64493431D02*
X19145819Y-64783717D01*
X19145819Y-64783717D02*
X19145819Y-65001431D01*
X19145819Y-65001431D02*
X19073247Y-65291717D01*
X19073247Y-65291717D02*
X19000676Y-65436860D01*
X19000676Y-65436860D02*
X18855533Y-65582003D01*
X18855533Y-65582003D02*
X18637819Y-65654574D01*
X18637819Y-65654574D02*
X18492676Y-65654574D01*
X18492676Y-65654574D02*
X18274962Y-65582003D01*
X18274962Y-65582003D02*
X18202390Y-65509431D01*
X18202390Y-65509431D02*
X18202390Y-65001431D01*
X18202390Y-65001431D02*
X18492676Y-65001431D01*
X16388104Y-65654574D02*
X16388104Y-64130574D01*
X16388104Y-64130574D02*
X16025247Y-64130574D01*
X16025247Y-64130574D02*
X15807533Y-64203145D01*
X15807533Y-64203145D02*
X15662390Y-64348288D01*
X15662390Y-64348288D02*
X15589819Y-64493431D01*
X15589819Y-64493431D02*
X15517247Y-64783717D01*
X15517247Y-64783717D02*
X15517247Y-65001431D01*
X15517247Y-65001431D02*
X15589819Y-65291717D01*
X15589819Y-65291717D02*
X15662390Y-65436860D01*
X15662390Y-65436860D02*
X15807533Y-65582003D01*
X15807533Y-65582003D02*
X16025247Y-65654574D01*
X16025247Y-65654574D02*
X16388104Y-65654574D01*
X12977247Y-64130574D02*
X13702961Y-64130574D01*
X13702961Y-64130574D02*
X13775533Y-64856288D01*
X13775533Y-64856288D02*
X13702961Y-64783717D01*
X13702961Y-64783717D02*
X13557819Y-64711145D01*
X13557819Y-64711145D02*
X13194961Y-64711145D01*
X13194961Y-64711145D02*
X13049819Y-64783717D01*
X13049819Y-64783717D02*
X12977247Y-64856288D01*
X12977247Y-64856288D02*
X12904676Y-65001431D01*
X12904676Y-65001431D02*
X12904676Y-65364288D01*
X12904676Y-65364288D02*
X12977247Y-65509431D01*
X12977247Y-65509431D02*
X13049819Y-65582003D01*
X13049819Y-65582003D02*
X13194961Y-65654574D01*
X13194961Y-65654574D02*
X13557819Y-65654574D01*
X13557819Y-65654574D02*
X13702961Y-65582003D01*
X13702961Y-65582003D02*
X13775533Y-65509431D01*
X12469247Y-64130574D02*
X11961247Y-65654574D01*
X11961247Y-65654574D02*
X11453247Y-64130574D01*
X170315399Y-56800990D02*
X170097685Y-56873562D01*
X170097685Y-56873562D02*
X170025114Y-56946133D01*
X170025114Y-56946133D02*
X169952542Y-57091276D01*
X169952542Y-57091276D02*
X169952542Y-57308990D01*
X169952542Y-57308990D02*
X170025114Y-57454133D01*
X170025114Y-57454133D02*
X170097685Y-57526705D01*
X170097685Y-57526705D02*
X170242828Y-57599276D01*
X170242828Y-57599276D02*
X170823399Y-57599276D01*
X170823399Y-57599276D02*
X170823399Y-56075276D01*
X170823399Y-56075276D02*
X170315399Y-56075276D01*
X170315399Y-56075276D02*
X170170257Y-56147847D01*
X170170257Y-56147847D02*
X170097685Y-56220419D01*
X170097685Y-56220419D02*
X170025114Y-56365562D01*
X170025114Y-56365562D02*
X170025114Y-56510705D01*
X170025114Y-56510705D02*
X170097685Y-56655847D01*
X170097685Y-56655847D02*
X170170257Y-56728419D01*
X170170257Y-56728419D02*
X170315399Y-56800990D01*
X170315399Y-56800990D02*
X170823399Y-56800990D01*
X169009114Y-56075276D02*
X168718828Y-56075276D01*
X168718828Y-56075276D02*
X168573685Y-56147847D01*
X168573685Y-56147847D02*
X168428542Y-56292990D01*
X168428542Y-56292990D02*
X168355971Y-56583276D01*
X168355971Y-56583276D02*
X168355971Y-57091276D01*
X168355971Y-57091276D02*
X168428542Y-57381562D01*
X168428542Y-57381562D02*
X168573685Y-57526705D01*
X168573685Y-57526705D02*
X168718828Y-57599276D01*
X168718828Y-57599276D02*
X169009114Y-57599276D01*
X169009114Y-57599276D02*
X169154257Y-57526705D01*
X169154257Y-57526705D02*
X169299399Y-57381562D01*
X169299399Y-57381562D02*
X169371971Y-57091276D01*
X169371971Y-57091276D02*
X169371971Y-56583276D01*
X169371971Y-56583276D02*
X169299399Y-56292990D01*
X169299399Y-56292990D02*
X169154257Y-56147847D01*
X169154257Y-56147847D02*
X169009114Y-56075276D01*
X167412543Y-56075276D02*
X167122257Y-56075276D01*
X167122257Y-56075276D02*
X166977114Y-56147847D01*
X166977114Y-56147847D02*
X166831971Y-56292990D01*
X166831971Y-56292990D02*
X166759400Y-56583276D01*
X166759400Y-56583276D02*
X166759400Y-57091276D01*
X166759400Y-57091276D02*
X166831971Y-57381562D01*
X166831971Y-57381562D02*
X166977114Y-57526705D01*
X166977114Y-57526705D02*
X167122257Y-57599276D01*
X167122257Y-57599276D02*
X167412543Y-57599276D01*
X167412543Y-57599276D02*
X167557686Y-57526705D01*
X167557686Y-57526705D02*
X167702828Y-57381562D01*
X167702828Y-57381562D02*
X167775400Y-57091276D01*
X167775400Y-57091276D02*
X167775400Y-56583276D01*
X167775400Y-56583276D02*
X167702828Y-56292990D01*
X167702828Y-56292990D02*
X167557686Y-56147847D01*
X167557686Y-56147847D02*
X167412543Y-56075276D01*
X166323972Y-56075276D02*
X165453115Y-56075276D01*
X165888543Y-57599276D02*
X165888543Y-56075276D01*
X174524533Y-107163847D02*
X173798819Y-107163847D01*
X174669676Y-107599276D02*
X174161676Y-106075276D01*
X174161676Y-106075276D02*
X173653676Y-107599276D01*
X173145675Y-107599276D02*
X173145675Y-106075276D01*
X173145675Y-106075276D02*
X172782818Y-106075276D01*
X172782818Y-106075276D02*
X172565104Y-106147847D01*
X172565104Y-106147847D02*
X172419961Y-106292990D01*
X172419961Y-106292990D02*
X172347390Y-106438133D01*
X172347390Y-106438133D02*
X172274818Y-106728419D01*
X172274818Y-106728419D02*
X172274818Y-106946133D01*
X172274818Y-106946133D02*
X172347390Y-107236419D01*
X172347390Y-107236419D02*
X172419961Y-107381562D01*
X172419961Y-107381562D02*
X172565104Y-107526705D01*
X172565104Y-107526705D02*
X172782818Y-107599276D01*
X172782818Y-107599276D02*
X173145675Y-107599276D01*
X170750818Y-107454133D02*
X170823390Y-107526705D01*
X170823390Y-107526705D02*
X171041104Y-107599276D01*
X171041104Y-107599276D02*
X171186247Y-107599276D01*
X171186247Y-107599276D02*
X171403961Y-107526705D01*
X171403961Y-107526705D02*
X171549104Y-107381562D01*
X171549104Y-107381562D02*
X171621675Y-107236419D01*
X171621675Y-107236419D02*
X171694247Y-106946133D01*
X171694247Y-106946133D02*
X171694247Y-106728419D01*
X171694247Y-106728419D02*
X171621675Y-106438133D01*
X171621675Y-106438133D02*
X171549104Y-106292990D01*
X171549104Y-106292990D02*
X171403961Y-106147847D01*
X171403961Y-106147847D02*
X171186247Y-106075276D01*
X171186247Y-106075276D02*
X171041104Y-106075276D01*
X171041104Y-106075276D02*
X170823390Y-106147847D01*
X170823390Y-106147847D02*
X170750818Y-106220419D01*
X170097675Y-107018705D02*
X168936533Y-107018705D01*
X167339961Y-107599276D02*
X167847961Y-106873562D01*
X168210818Y-107599276D02*
X168210818Y-106075276D01*
X168210818Y-106075276D02*
X167630247Y-106075276D01*
X167630247Y-106075276D02*
X167485104Y-106147847D01*
X167485104Y-106147847D02*
X167412533Y-106220419D01*
X167412533Y-106220419D02*
X167339961Y-106365562D01*
X167339961Y-106365562D02*
X167339961Y-106583276D01*
X167339961Y-106583276D02*
X167412533Y-106728419D01*
X167412533Y-106728419D02*
X167485104Y-106800990D01*
X167485104Y-106800990D02*
X167630247Y-106873562D01*
X167630247Y-106873562D02*
X168210818Y-106873562D01*
X166686818Y-106800990D02*
X166178818Y-106800990D01*
X165961104Y-107599276D02*
X166686818Y-107599276D01*
X166686818Y-107599276D02*
X166686818Y-106075276D01*
X166686818Y-106075276D02*
X165961104Y-106075276D01*
X165380533Y-107526705D02*
X165162819Y-107599276D01*
X165162819Y-107599276D02*
X164799961Y-107599276D01*
X164799961Y-107599276D02*
X164654819Y-107526705D01*
X164654819Y-107526705D02*
X164582247Y-107454133D01*
X164582247Y-107454133D02*
X164509676Y-107308990D01*
X164509676Y-107308990D02*
X164509676Y-107163847D01*
X164509676Y-107163847D02*
X164582247Y-107018705D01*
X164582247Y-107018705D02*
X164654819Y-106946133D01*
X164654819Y-106946133D02*
X164799961Y-106873562D01*
X164799961Y-106873562D02*
X165090247Y-106800990D01*
X165090247Y-106800990D02*
X165235390Y-106728419D01*
X165235390Y-106728419D02*
X165307961Y-106655847D01*
X165307961Y-106655847D02*
X165380533Y-106510705D01*
X165380533Y-106510705D02*
X165380533Y-106365562D01*
X165380533Y-106365562D02*
X165307961Y-106220419D01*
X165307961Y-106220419D02*
X165235390Y-106147847D01*
X165235390Y-106147847D02*
X165090247Y-106075276D01*
X165090247Y-106075276D02*
X164727390Y-106075276D01*
X164727390Y-106075276D02*
X164509676Y-106147847D01*
X163856532Y-106800990D02*
X163348532Y-106800990D01*
X163130818Y-107599276D02*
X163856532Y-107599276D01*
X163856532Y-107599276D02*
X163856532Y-106075276D01*
X163856532Y-106075276D02*
X163130818Y-106075276D01*
X162695390Y-106075276D02*
X161824533Y-106075276D01*
X162259961Y-107599276D02*
X162259961Y-106075276D01*
D11*
%TO.C,R515*%
X50521440Y-101303601D02*
X52021440Y-101303601D01*
X50521440Y-103203601D02*
X52021440Y-103203601D01*
%TO.C,C1028*%
X258848010Y-96550501D02*
X262954210Y-96550501D01*
X258848010Y-99156701D02*
X262954210Y-99156701D01*
%TO.C,R100*%
X216284440Y-98903601D02*
X217784440Y-98903601D01*
X216284440Y-100803601D02*
X217784440Y-100803601D01*
%TO.C,C1025*%
X258026110Y-118253601D02*
X259776110Y-118253601D01*
X258026110Y-119953601D02*
X259776110Y-119953601D01*
D12*
%TO.C,C1103*%
X139655110Y-77778601D02*
X139655110Y-77178601D01*
X140755110Y-77778601D02*
X140755110Y-77178601D01*
D11*
%TO.C,C1002*%
X243176110Y-121953601D02*
X244626110Y-121953601D01*
X243176110Y-123753601D02*
X244626110Y-123753601D01*
%TO.C,R813*%
X157045040Y-114107961D02*
X157045040Y-111695831D01*
X158757180Y-114107961D02*
X158757180Y-111695831D01*
%TO.C,U521*%
X68971440Y-123953601D02*
X72671440Y-123953601D01*
X68971440Y-130553601D02*
X68971440Y-123953601D01*
X68971440Y-130553601D02*
X72671440Y-130553601D01*
X72671440Y-130553601D02*
X72671440Y-123953601D01*
D13*
X71971440Y-124953601D02*
G75*
G02*
X71371440Y-124953601I-300000J0D01*
G01*
X71371440Y-124953601D02*
G75*
G02*
X71971440Y-124953601I300000J0D01*
G01*
D14*
X73996440Y-123553601D02*
G75*
G02*
X73746440Y-123553601I-125000J0D01*
G01*
X73746440Y-123553601D02*
G75*
G02*
X73996440Y-123553601I125000J0D01*
G01*
D11*
%TO.C,U840*%
X149001110Y-99603601D02*
X153001110Y-99603601D01*
X149001110Y-110103601D02*
X149001110Y-99603601D01*
X149001110Y-110103601D02*
X153001110Y-110103601D01*
X153001110Y-110103601D02*
X153001110Y-99603601D01*
D14*
X147676110Y-109853601D02*
G75*
G02*
X147426110Y-109853601I-125000J0D01*
G01*
X147426110Y-109853601D02*
G75*
G02*
X147676110Y-109853601I125000J0D01*
G01*
D13*
X150301110Y-109103601D02*
G75*
G02*
X149701110Y-109103601I-300000J0D01*
G01*
X149701110Y-109103601D02*
G75*
G02*
X150301110Y-109103601I300000J0D01*
G01*
D11*
%TO.C,C1003*%
X243176110Y-119953601D02*
X244626110Y-119953601D01*
X243176110Y-121753601D02*
X244626110Y-121753601D01*
D10*
%TO.C,J801*%
X107901110Y-124253601D02*
X154101110Y-124253601D01*
X107901110Y-132553601D02*
X107901110Y-124253601D01*
X107901110Y-132553601D02*
X154101110Y-132553601D01*
X107942140Y-130686631D02*
X108501110Y-130686631D01*
X153501110Y-130686631D02*
X154060080Y-130686631D01*
X154101110Y-132553601D02*
X154101110Y-124253601D01*
X113501111Y-130686630D02*
G75*
G02*
X108501110Y-130686631I-2500001J1833029D01*
G01*
X118501111Y-130686630D02*
G75*
G02*
X113501110Y-130686631I-2500001J1833029D01*
G01*
X123501111Y-130686630D02*
G75*
G02*
X118501110Y-130686631I-2500001J1833029D01*
G01*
X128501111Y-130686630D02*
G75*
G02*
X123501110Y-130686631I-2500001J1833029D01*
G01*
X133501111Y-130686630D02*
G75*
G02*
X128501110Y-130686631I-2500001J1833029D01*
G01*
X138501111Y-130686630D02*
G75*
G02*
X133501110Y-130686631I-2500001J1833029D01*
G01*
X143501111Y-130686630D02*
G75*
G02*
X138501110Y-130686631I-2500001J1833029D01*
G01*
X148501111Y-130686630D02*
G75*
G02*
X143501110Y-130686631I-2500001J1833029D01*
G01*
X153501111Y-130686630D02*
G75*
G02*
X148501110Y-130686631I-2500001J1833029D01*
G01*
D11*
%TO.C,U522*%
X60771440Y-123953601D02*
X64471440Y-123953601D01*
X60771440Y-130553601D02*
X60771440Y-123953601D01*
X60771440Y-130553601D02*
X64471440Y-130553601D01*
X64471440Y-130553601D02*
X64471440Y-123953601D01*
D13*
X63771440Y-124953601D02*
G75*
G02*
X63171440Y-124953601I-300000J0D01*
G01*
X63171440Y-124953601D02*
G75*
G02*
X63771440Y-124953601I300000J0D01*
G01*
D14*
X65796440Y-123553601D02*
G75*
G02*
X65546440Y-123553601I-125000J0D01*
G01*
X65546440Y-123553601D02*
G75*
G02*
X65796440Y-123553601I125000J0D01*
G01*
D11*
%TO.C,R1005*%
X237895040Y-116753601D02*
X239907180Y-116753601D01*
X237895040Y-118453601D02*
X239907180Y-118453601D01*
%TO.C,R1021*%
X265218340Y-117753601D02*
X267230470Y-117753601D01*
X265218340Y-119453601D02*
X267230470Y-119453601D01*
%TO.C,C1008*%
X238848010Y-96550501D02*
X242954210Y-96550501D01*
X238848010Y-99156701D02*
X242954210Y-99156701D01*
%TO.C,C1029*%
X264848010Y-96550501D02*
X268954210Y-96550501D01*
X264848010Y-99156701D02*
X268954210Y-99156701D01*
D15*
%TO.C,U1000*%
X242401110Y-114853601D02*
X245401110Y-114853601D01*
X242401110Y-116853601D02*
X242401110Y-114853601D01*
X242401110Y-116853601D02*
X245401110Y-116853601D01*
X245401110Y-116853601D02*
X245401110Y-114853601D01*
D11*
X244436460Y-117353601D02*
G75*
G02*
X244365760Y-117353601I-35350J0D01*
G01*
X244365760Y-117353601D02*
G75*
G02*
X244436460Y-117353601I35350J0D01*
G01*
%TO.C,U830*%
X116602280Y-111753601D02*
X120399940Y-111753601D01*
X116602280Y-121953601D02*
X116602280Y-111753601D01*
X116602280Y-121953601D02*
X120399940Y-121953601D01*
X120399940Y-121953601D02*
X120399940Y-111753601D01*
D16*
X119899940Y-112503601D02*
G75*
G02*
X119399940Y-112503601I-250000J0D01*
G01*
X119399940Y-112503601D02*
G75*
G02*
X119899940Y-112503601I250000J0D01*
G01*
D14*
X123377670Y-112408601D02*
G75*
G02*
X123127670Y-112408601I-125000J0D01*
G01*
X123127670Y-112408601D02*
G75*
G02*
X123377670Y-112408601I125000J0D01*
G01*
D11*
%TO.C,R800*%
X188245040Y-114107961D02*
X188245040Y-111695831D01*
X189957180Y-114107961D02*
X189957180Y-111695831D01*
%TO.C,R510*%
X87521440Y-101303601D02*
X89021440Y-101303601D01*
X87521440Y-103203601D02*
X89021440Y-103203601D01*
%TO.C,R820*%
X143245040Y-114107961D02*
X143245040Y-111695831D01*
X144957180Y-114107961D02*
X144957180Y-111695831D01*
%TO.C,R802*%
X177045040Y-121727961D02*
X177045040Y-119315831D01*
X178757180Y-121727961D02*
X178757180Y-119315831D01*
%TO.C,C1001*%
X243176110Y-123953601D02*
X244626110Y-123953601D01*
X243176110Y-125753601D02*
X244626110Y-125753601D01*
%TO.C,C1027*%
X258026110Y-115453601D02*
X259776110Y-115453601D01*
X258031440Y-113750601D02*
X259781440Y-113750601D01*
%TO.C,U810*%
X161602280Y-111753601D02*
X165399940Y-111753601D01*
X161602280Y-121953601D02*
X161602280Y-111753601D01*
X161602280Y-121953601D02*
X165399940Y-121953601D01*
X165399940Y-121953601D02*
X165399940Y-111753601D01*
D16*
X164899940Y-112503601D02*
G75*
G02*
X164399940Y-112503601I-250000J0D01*
G01*
X164399940Y-112503601D02*
G75*
G02*
X164899940Y-112503601I250000J0D01*
G01*
D14*
X168377670Y-112408601D02*
G75*
G02*
X168127670Y-112408601I-125000J0D01*
G01*
X168127670Y-112408601D02*
G75*
G02*
X168377670Y-112408601I125000J0D01*
G01*
D11*
%TO.C,P1101*%
X96061110Y-58248601D02*
X100941110Y-58248601D01*
X96061110Y-65458601D02*
X100941110Y-65458601D01*
D14*
X103561110Y-59313601D02*
G75*
G02*
X103311110Y-59313601I-125000J0D01*
G01*
X103311110Y-59313601D02*
G75*
G02*
X103561110Y-59313601I125000J0D01*
G01*
D11*
%TO.C,U514*%
X52571440Y-103953601D02*
X56271440Y-103953601D01*
X52571440Y-110553601D02*
X52571440Y-103953601D01*
X52571440Y-110553601D02*
X56271440Y-110553601D01*
X56271440Y-110553601D02*
X56271440Y-103953601D01*
D13*
X55571440Y-104953601D02*
G75*
G02*
X54971440Y-104953601I-300000J0D01*
G01*
X54971440Y-104953601D02*
G75*
G02*
X55571440Y-104953601I300000J0D01*
G01*
D14*
X57596440Y-103553601D02*
G75*
G02*
X57346440Y-103553601I-125000J0D01*
G01*
X57346440Y-103553601D02*
G75*
G02*
X57596440Y-103553601I125000J0D01*
G01*
D11*
%TO.C,C1011*%
X244848010Y-93550501D02*
X248954210Y-93550501D01*
X244848010Y-96156701D02*
X248954210Y-96156701D01*
%TO.C,U513*%
X60771440Y-103953601D02*
X64471440Y-103953601D01*
X60771440Y-110553601D02*
X60771440Y-103953601D01*
X60771440Y-110553601D02*
X64471440Y-110553601D01*
X64471440Y-110553601D02*
X64471440Y-103953601D01*
D13*
X63771440Y-104953601D02*
G75*
G02*
X63171440Y-104953601I-300000J0D01*
G01*
X63171440Y-104953601D02*
G75*
G02*
X63771440Y-104953601I300000J0D01*
G01*
D14*
X65796440Y-103553601D02*
G75*
G02*
X65546440Y-103553601I-125000J0D01*
G01*
X65546440Y-103553601D02*
G75*
G02*
X65796440Y-103553601I125000J0D01*
G01*
D10*
%TO.C,M\u002A*%
X289101110Y-58153601D02*
G75*
G02*
X287101110Y-58153601I-1000000J0D01*
G01*
X287101110Y-58153601D02*
G75*
G02*
X289101110Y-58153601I1000000J0D01*
G01*
D11*
%TO.C,U900*%
X96001110Y-98403601D02*
X96001110Y-95303601D01*
X101001110Y-98403601D02*
X101001110Y-95303601D01*
D14*
X96721110Y-92753601D02*
G75*
G02*
X96471110Y-92753601I-125000J0D01*
G01*
X96471110Y-92753601D02*
G75*
G02*
X96721110Y-92753601I125000J0D01*
G01*
D11*
%TO.C,C1009*%
X244848010Y-96550501D02*
X248954210Y-96550501D01*
X244848010Y-99156701D02*
X248954210Y-99156701D01*
%TO.C,C1102*%
X137702110Y-78428601D02*
X137702110Y-76528601D01*
X139152110Y-78428601D02*
X139152110Y-76528601D01*
%TO.C,R822*%
X132045040Y-121727961D02*
X132045040Y-119315831D01*
X133757180Y-121727961D02*
X133757180Y-119315831D01*
%TO.C,R1003*%
X240720110Y-118278601D02*
X240720110Y-118228601D01*
X241620110Y-118278601D02*
X241620110Y-118228601D01*
%TO.C,R1102*%
X150551110Y-57003601D02*
X152051110Y-57003601D01*
X150551110Y-58703601D02*
X152051110Y-58703601D01*
%TO.C,D1021*%
X267251110Y-114643601D02*
X268066110Y-114643601D01*
X267251110Y-115303601D02*
X267251110Y-114643601D01*
X267251110Y-117563601D02*
X267251110Y-116903601D01*
X267251110Y-117563601D02*
X268066110Y-117563601D01*
D14*
X269026110Y-114203601D02*
G75*
G02*
X268776110Y-114203601I-125000J0D01*
G01*
X268776110Y-114203601D02*
G75*
G02*
X269026110Y-114203601I125000J0D01*
G01*
D11*
%TO.C,R832*%
X112045040Y-121727961D02*
X112045040Y-119315831D01*
X113757180Y-121727961D02*
X113757180Y-119315831D01*
%TO.C,Q1103*%
X131676110Y-97503601D02*
X131676110Y-97091001D01*
X131676110Y-97503601D02*
X131898110Y-97503601D01*
X133054110Y-97503601D02*
X133276110Y-97503601D01*
X133276110Y-97503601D02*
X133276110Y-97091001D01*
D17*
X131448110Y-96456601D02*
G75*
G02*
X131348110Y-96456601I-50000J0D01*
G01*
X131348110Y-96456601D02*
G75*
G02*
X131448110Y-96456601I50000J0D01*
G01*
D11*
%TO.C,U510*%
X85371440Y-103953601D02*
X89071440Y-103953601D01*
X85371440Y-110553601D02*
X85371440Y-103953601D01*
X85371440Y-110553601D02*
X89071440Y-110553601D01*
X89071440Y-110553601D02*
X89071440Y-103953601D01*
D13*
X88371440Y-104953601D02*
G75*
G02*
X87771440Y-104953601I-300000J0D01*
G01*
X87771440Y-104953601D02*
G75*
G02*
X88371440Y-104953601I300000J0D01*
G01*
D14*
X90396440Y-103553601D02*
G75*
G02*
X90146440Y-103553601I-125000J0D01*
G01*
X90146440Y-103553601D02*
G75*
G02*
X90396440Y-103553601I125000J0D01*
G01*
D11*
%TO.C,C1031*%
X264848010Y-93550501D02*
X268954210Y-93550501D01*
X264848010Y-96156701D02*
X268954210Y-96156701D01*
%TO.C,R110*%
X155765110Y-78736601D02*
X155765110Y-77236601D01*
X157665110Y-78736601D02*
X157665110Y-77236601D01*
%TO.C,L900*%
X96801110Y-117078601D02*
X96801110Y-114628601D01*
X98076110Y-113503601D02*
X98926110Y-113503601D01*
X98076110Y-118203601D02*
X98926110Y-118203601D01*
X100201110Y-117078601D02*
X100201110Y-114628601D01*
D14*
X97376110Y-112353601D02*
G75*
G02*
X97126110Y-112353601I-125000J0D01*
G01*
X97126110Y-112353601D02*
G75*
G02*
X97376110Y-112353601I125000J0D01*
G01*
D11*
%TO.C,Y900*%
X86976110Y-75903601D02*
X87976110Y-75903601D01*
X86976110Y-87453601D02*
X86976110Y-75903601D01*
X86976110Y-87453601D02*
X87976110Y-87453601D01*
X90826110Y-75903601D02*
X91826110Y-75903601D01*
X90826110Y-87453601D02*
X91826110Y-87453601D01*
X91826110Y-87453601D02*
X91826110Y-75903601D01*
%TO.C,R830*%
X123245050Y-114107961D02*
X123245050Y-111695831D01*
X124957180Y-114107961D02*
X124957180Y-111695831D01*
%TO.C,P1104*%
X68146110Y-67218601D02*
X70286110Y-67218601D01*
X68146110Y-76488601D02*
X68146110Y-67218601D01*
X68146110Y-76488601D02*
X70286110Y-76488601D01*
X82516110Y-67218601D02*
X84656110Y-67218601D01*
X82516110Y-76488601D02*
X84656110Y-76488601D01*
X84656110Y-76488601D02*
X84656110Y-67218601D01*
D14*
X71446110Y-65333601D02*
G75*
G02*
X71196110Y-65333601I-125000J0D01*
G01*
X71196110Y-65333601D02*
G75*
G02*
X71446110Y-65333601I125000J0D01*
G01*
D11*
%TO.C,U520*%
X77171440Y-123953601D02*
X80871440Y-123953601D01*
X77171440Y-130553601D02*
X77171440Y-123953601D01*
X77171440Y-130553601D02*
X80871440Y-130553601D01*
X80871440Y-130553601D02*
X80871440Y-123953601D01*
D13*
X80171440Y-124953601D02*
G75*
G02*
X79571440Y-124953601I-300000J0D01*
G01*
X79571440Y-124953601D02*
G75*
G02*
X80171440Y-124953601I300000J0D01*
G01*
D14*
X82196440Y-123553601D02*
G75*
G02*
X81946440Y-123553601I-125000J0D01*
G01*
X81946440Y-123553601D02*
G75*
G02*
X82196440Y-123553601I125000J0D01*
G01*
D11*
%TO.C,C1007*%
X238026110Y-115453601D02*
X239776110Y-115453601D01*
X238031440Y-113750601D02*
X239781440Y-113750601D01*
%TO.C,R101*%
X199284440Y-98903601D02*
X200784440Y-98903601D01*
X199284440Y-100803601D02*
X200784440Y-100803601D01*
D15*
%TO.C,U1020*%
X262401110Y-114853601D02*
X265401110Y-114853601D01*
X262401110Y-116853601D02*
X262401110Y-114853601D01*
X262401110Y-116853601D02*
X265401110Y-116853601D01*
X265401110Y-116853601D02*
X265401110Y-114853601D01*
D11*
X264436460Y-117353601D02*
G75*
G02*
X264365760Y-117353601I-35350J0D01*
G01*
X264365760Y-117353601D02*
G75*
G02*
X264436460Y-117353601I35350J0D01*
G01*
%TO.C,C1021*%
X263176110Y-123953601D02*
X264626110Y-123953601D01*
X263176110Y-125753601D02*
X264626110Y-125753601D01*
%TO.C,R801*%
X188245040Y-120477371D02*
X188245040Y-118065231D01*
X189957180Y-120477371D02*
X189957180Y-118065231D01*
%TO.C,C1010*%
X238848010Y-93550501D02*
X242954210Y-93550501D01*
X238848010Y-96156701D02*
X242954210Y-96156701D01*
%TO.C,R833*%
X112045040Y-114107961D02*
X112045040Y-111695831D01*
X113757180Y-114107961D02*
X113757180Y-111695831D01*
%TO.C,C1022*%
X263176110Y-121953601D02*
X264626110Y-121953601D01*
X263176110Y-123753601D02*
X264626110Y-123753601D01*
%TO.C,U110*%
X146737110Y-76799101D02*
X150437110Y-76799101D01*
X146737110Y-83399101D02*
X146737110Y-76799101D01*
X146737110Y-83399101D02*
X150437110Y-83399101D01*
X150437110Y-83399101D02*
X150437110Y-76799101D01*
D13*
X149737110Y-77799101D02*
G75*
G02*
X149137110Y-77799101I-300000J0D01*
G01*
X149137110Y-77799101D02*
G75*
G02*
X149737110Y-77799101I300000J0D01*
G01*
D14*
X151762110Y-76399101D02*
G75*
G02*
X151512110Y-76399101I-125000J0D01*
G01*
X151512110Y-76399101D02*
G75*
G02*
X151762110Y-76399101I125000J0D01*
G01*
D11*
%TO.C,U800*%
X181602280Y-111753601D02*
X185399940Y-111753601D01*
X181602280Y-121953601D02*
X181602280Y-111753601D01*
X181602280Y-121953601D02*
X185399940Y-121953601D01*
X185399940Y-121953601D02*
X185399940Y-111753601D01*
D16*
X184899940Y-112503601D02*
G75*
G02*
X184399940Y-112503601I-250000J0D01*
G01*
X184399940Y-112503601D02*
G75*
G02*
X184899940Y-112503601I250000J0D01*
G01*
D14*
X188377670Y-112408601D02*
G75*
G02*
X188127670Y-112408601I-125000J0D01*
G01*
X188127670Y-112408601D02*
G75*
G02*
X188377670Y-112408601I125000J0D01*
G01*
D11*
%TO.C,D1102*%
X168851110Y-71659701D02*
X168851110Y-70047501D01*
X170651110Y-71659701D02*
X170651110Y-70047501D01*
D14*
X169876110Y-73528601D02*
G75*
G02*
X169626110Y-73528601I-125000J0D01*
G01*
X169626110Y-73528601D02*
G75*
G02*
X169876110Y-73528601I125000J0D01*
G01*
D11*
%TO.C,U512*%
X68971440Y-103953601D02*
X72671440Y-103953601D01*
X68971440Y-110553601D02*
X68971440Y-103953601D01*
X68971440Y-110553601D02*
X72671440Y-110553601D01*
X72671440Y-110553601D02*
X72671440Y-103953601D01*
D13*
X71971440Y-104953601D02*
G75*
G02*
X71371440Y-104953601I-300000J0D01*
G01*
X71371440Y-104953601D02*
G75*
G02*
X71971440Y-104953601I300000J0D01*
G01*
D14*
X73996440Y-103553601D02*
G75*
G02*
X73746440Y-103553601I-125000J0D01*
G01*
X73746440Y-103553601D02*
G75*
G02*
X73996440Y-103553601I125000J0D01*
G01*
D11*
%TO.C,R1001*%
X245218330Y-117753601D02*
X247230470Y-117753601D01*
X245218330Y-119453601D02*
X247230470Y-119453601D01*
%TO.C,R812*%
X157045040Y-121727961D02*
X157045040Y-119315831D01*
X158757180Y-121727961D02*
X158757180Y-119315831D01*
%TO.C,R1101*%
X144951110Y-65003601D02*
X146451110Y-65003601D01*
X144951110Y-66703601D02*
X146451110Y-66703601D01*
%TO.C,Q1104*%
X163726110Y-97503601D02*
X163726110Y-97091001D01*
X163726110Y-97503601D02*
X163948110Y-97503601D01*
X165104110Y-97503601D02*
X165326110Y-97503601D01*
X165326110Y-97503601D02*
X165326110Y-97091001D01*
D17*
X163498110Y-96456601D02*
G75*
G02*
X163398110Y-96456601I-50000J0D01*
G01*
X163398110Y-96456601D02*
G75*
G02*
X163498110Y-96456601I50000J0D01*
G01*
D11*
%TO.C,U511*%
X77171440Y-103953601D02*
X80871440Y-103953601D01*
X77171440Y-110553601D02*
X77171440Y-103953601D01*
X77171440Y-110553601D02*
X80871440Y-110553601D01*
X80871440Y-110553601D02*
X80871440Y-103953601D01*
D13*
X80171440Y-104953601D02*
G75*
G02*
X79571440Y-104953601I-300000J0D01*
G01*
X79571440Y-104953601D02*
G75*
G02*
X80171440Y-104953601I300000J0D01*
G01*
D14*
X82196440Y-103553601D02*
G75*
G02*
X81946440Y-103553601I-125000J0D01*
G01*
X81946440Y-103553601D02*
G75*
G02*
X82196440Y-103553601I125000J0D01*
G01*
D11*
%TO.C,P1103*%
X96061110Y-68248601D02*
X100941110Y-68248601D01*
X96061110Y-75458601D02*
X100941110Y-75458601D01*
D14*
X103561110Y-69313601D02*
G75*
G02*
X103311110Y-69313601I-125000J0D01*
G01*
X103311110Y-69313601D02*
G75*
G02*
X103561110Y-69313601I125000J0D01*
G01*
D11*
%TO.C,R1002*%
X248395040Y-117753601D02*
X250407180Y-117753601D01*
X248395040Y-119453601D02*
X250407180Y-119453601D01*
%TO.C,R1023*%
X260720110Y-118278601D02*
X260720110Y-118228601D01*
X261620110Y-118278601D02*
X261620110Y-118228601D01*
%TO.C,R513*%
X66921440Y-101303601D02*
X68421440Y-101303601D01*
X66921440Y-103203601D02*
X68421440Y-103203601D01*
%TO.C,R512*%
X71121440Y-101303601D02*
X72621440Y-101303601D01*
X71121440Y-103203601D02*
X72621440Y-103203601D01*
%TO.C,C1005*%
X238026110Y-118253601D02*
X239776110Y-118253601D01*
X238026110Y-119953601D02*
X239776110Y-119953601D01*
%TO.C,R1022*%
X268395040Y-117753601D02*
X270407180Y-117753601D01*
X268395040Y-119453601D02*
X270407180Y-119453601D01*
%TO.C,S1104*%
X165501110Y-103078601D02*
X165501110Y-100628601D01*
X165676110Y-98853601D02*
X171326110Y-98853601D01*
X165676110Y-104853601D02*
X171326110Y-104853601D01*
X171501110Y-103078601D02*
X171501110Y-100628601D01*
D14*
X163226110Y-104103601D02*
G75*
G02*
X162976110Y-104103601I-125000J0D01*
G01*
X162976110Y-104103601D02*
G75*
G02*
X163226110Y-104103601I125000J0D01*
G01*
D11*
%TO.C,R102*%
X182284440Y-98903601D02*
X183784440Y-98903601D01*
X182284440Y-100803601D02*
X183784440Y-100803601D01*
%TO.C,U102*%
X181184440Y-101328601D02*
X184884440Y-101328601D01*
X181184440Y-107928601D02*
X181184440Y-101328601D01*
X181184440Y-107928601D02*
X184884440Y-107928601D01*
X184884440Y-107928601D02*
X184884440Y-101328601D01*
D13*
X184184440Y-102328601D02*
G75*
G02*
X183584440Y-102328601I-300000J0D01*
G01*
X183584440Y-102328601D02*
G75*
G02*
X184184440Y-102328601I300000J0D01*
G01*
D14*
X186209440Y-100928601D02*
G75*
G02*
X185959440Y-100928601I-125000J0D01*
G01*
X185959440Y-100928601D02*
G75*
G02*
X186209440Y-100928601I125000J0D01*
G01*
D11*
%TO.C,U523*%
X52571440Y-123953601D02*
X56271440Y-123953601D01*
X52571440Y-130553601D02*
X52571440Y-123953601D01*
X52571440Y-130553601D02*
X56271440Y-130553601D01*
X56271440Y-130553601D02*
X56271440Y-123953601D01*
D13*
X55571440Y-124953601D02*
G75*
G02*
X54971440Y-124953601I-300000J0D01*
G01*
X54971440Y-124953601D02*
G75*
G02*
X55571440Y-124953601I300000J0D01*
G01*
D14*
X57596440Y-123553601D02*
G75*
G02*
X57346440Y-123553601I-125000J0D01*
G01*
X57346440Y-123553601D02*
G75*
G02*
X57596440Y-123553601I125000J0D01*
G01*
D11*
%TO.C,R522*%
X62921440Y-121303601D02*
X64421440Y-121303601D01*
X62921440Y-123203601D02*
X64421440Y-123203601D01*
%TO.C,D1103*%
X166351110Y-71659701D02*
X166351110Y-70047501D01*
X168151110Y-71659701D02*
X168151110Y-70047501D01*
D14*
X167376110Y-73528601D02*
G75*
G02*
X167126110Y-73528601I-125000J0D01*
G01*
X167126110Y-73528601D02*
G75*
G02*
X167376110Y-73528601I125000J0D01*
G01*
D11*
%TO.C,R1103*%
X127601110Y-97753601D02*
X127601110Y-96153601D01*
X129401110Y-97753601D02*
X129401110Y-96153601D01*
D10*
%TO.C,M\u002A*%
X-98890Y-151853601D02*
G75*
G02*
X-2098890Y-151853601I-1000000J0D01*
G01*
X-2098890Y-151853601D02*
G75*
G02*
X-98890Y-151853601I1000000J0D01*
G01*
D11*
%TO.C,U901*%
X94701110Y-78978601D02*
X102301110Y-78978601D01*
X94701110Y-79098601D02*
X94701110Y-78978601D01*
X94701110Y-90728601D02*
X94701110Y-90608601D01*
X94701110Y-90728601D02*
X102301110Y-90728601D01*
X102301110Y-79098601D02*
X102301110Y-78978601D01*
X102301110Y-90728601D02*
X102301110Y-90608601D01*
D14*
X92326110Y-89933601D02*
G75*
G02*
X92076110Y-89933601I-125000J0D01*
G01*
X92076110Y-89933601D02*
G75*
G02*
X92326110Y-89933601I125000J0D01*
G01*
D10*
%TO.C,J900*%
X92901110Y-124253601D02*
X104101110Y-124253601D01*
X92901110Y-132553601D02*
X92901110Y-124253601D01*
X92901110Y-132553601D02*
X104101110Y-132553601D01*
X92942140Y-130686631D02*
X93501110Y-130686631D01*
X103501110Y-130686631D02*
X104060080Y-130686631D01*
X104101110Y-132553601D02*
X104101110Y-124253601D01*
X98501111Y-130686630D02*
G75*
G02*
X93501110Y-130686631I-2500001J1833029D01*
G01*
X103501111Y-130686630D02*
G75*
G02*
X98501110Y-130686631I-2500001J1833029D01*
G01*
D11*
%TO.C,R902*%
X97701110Y-119953601D02*
X99301110Y-119953601D01*
X97701110Y-121753601D02*
X99301110Y-121753601D01*
%TO.C,R810*%
X168245040Y-114107961D02*
X168245040Y-111695831D01*
X169957180Y-114107961D02*
X169957180Y-111695831D01*
%TO.C,R514*%
X54721440Y-101303601D02*
X56221440Y-101303601D01*
X54721440Y-103203601D02*
X56221440Y-103203601D01*
%TO.C,R831*%
X123245050Y-120477371D02*
X123245050Y-118065241D01*
X124957180Y-120477371D02*
X124957180Y-118065241D01*
%TO.C,U101*%
X198184440Y-101328601D02*
X201884440Y-101328601D01*
X198184440Y-107928601D02*
X198184440Y-101328601D01*
X198184440Y-107928601D02*
X201884440Y-107928601D01*
X201884440Y-107928601D02*
X201884440Y-101328601D01*
D13*
X201184440Y-102328601D02*
G75*
G02*
X200584440Y-102328601I-300000J0D01*
G01*
X200584440Y-102328601D02*
G75*
G02*
X201184440Y-102328601I300000J0D01*
G01*
D14*
X203209440Y-100928601D02*
G75*
G02*
X202959440Y-100928601I-125000J0D01*
G01*
X202959440Y-100928601D02*
G75*
G02*
X203209440Y-100928601I125000J0D01*
G01*
D11*
%TO.C,C1101*%
X135924110Y-79063601D02*
X135924110Y-77163601D01*
X137374110Y-79063601D02*
X137374110Y-77163601D01*
%TO.C,R520*%
X79321440Y-121303601D02*
X80821440Y-121303601D01*
X79321440Y-123203601D02*
X80821440Y-123203601D01*
%TO.C,R521*%
X75121440Y-121303601D02*
X76621440Y-121303601D01*
X75121440Y-123203601D02*
X76621440Y-123203601D01*
%TO.C,R811*%
X168245040Y-120477371D02*
X168245040Y-118065231D01*
X169957180Y-120477371D02*
X169957180Y-118065231D01*
D10*
%TO.C,M\u002A*%
X299101110Y-151853601D02*
G75*
G02*
X297101110Y-151853601I-1000000J0D01*
G01*
X297101110Y-151853601D02*
G75*
G02*
X299101110Y-151853601I1000000J0D01*
G01*
D11*
%TO.C,D1101*%
X171351110Y-71659701D02*
X171351110Y-70047501D01*
X173151110Y-71659701D02*
X173151110Y-70047501D01*
D14*
X172376110Y-73528601D02*
G75*
G02*
X172126110Y-73528601I-125000J0D01*
G01*
X172126110Y-73528601D02*
G75*
G02*
X172376110Y-73528601I125000J0D01*
G01*
D11*
%TO.C,R803*%
X177045040Y-114107961D02*
X177045040Y-111695831D01*
X178757180Y-114107961D02*
X178757180Y-111695831D01*
%TO.C,D900*%
X96981110Y-108653601D02*
X97846110Y-108653601D01*
X96981110Y-109478601D02*
X96981110Y-108653601D01*
X98206110Y-110053601D02*
X98796110Y-110053601D01*
X99156110Y-108653601D02*
X100021110Y-108653601D01*
X100021110Y-109478601D02*
X100021110Y-108653601D01*
D14*
X99576110Y-111378601D02*
G75*
G02*
X99326110Y-111378601I-125000J0D01*
G01*
X99326110Y-111378601D02*
G75*
G02*
X99576110Y-111378601I125000J0D01*
G01*
D11*
%TO.C,D1001*%
X247251110Y-114643601D02*
X248066110Y-114643601D01*
X247251110Y-115303601D02*
X247251110Y-114643601D01*
X247251110Y-117563601D02*
X247251110Y-116903601D01*
X247251110Y-117563601D02*
X248066110Y-117563601D01*
D14*
X249026110Y-114203601D02*
G75*
G02*
X248776110Y-114203601I-125000J0D01*
G01*
X248776110Y-114203601D02*
G75*
G02*
X249026110Y-114203601I125000J0D01*
G01*
D11*
%TO.C,S1100*%
X125501110Y-63078601D02*
X125501110Y-60628601D01*
X125676110Y-58853601D02*
X131326110Y-58853601D01*
X125676110Y-64853601D02*
X131326110Y-64853601D01*
X131501110Y-63078601D02*
X131501110Y-60628601D01*
D14*
X123226110Y-64103601D02*
G75*
G02*
X122976110Y-64103601I-125000J0D01*
G01*
X122976110Y-64103601D02*
G75*
G02*
X123226110Y-64103601I125000J0D01*
G01*
D11*
%TO.C,U820*%
X136602280Y-111753601D02*
X140399940Y-111753601D01*
X136602280Y-121953601D02*
X136602280Y-111753601D01*
X136602280Y-121953601D02*
X140399940Y-121953601D01*
X140399940Y-121953601D02*
X140399940Y-111753601D01*
D16*
X139899940Y-112503601D02*
G75*
G02*
X139399940Y-112503601I-250000J0D01*
G01*
X139399940Y-112503601D02*
G75*
G02*
X139899940Y-112503601I250000J0D01*
G01*
D14*
X143377670Y-112408601D02*
G75*
G02*
X143127670Y-112408601I-125000J0D01*
G01*
X143127670Y-112408601D02*
G75*
G02*
X143377670Y-112408601I125000J0D01*
G01*
D11*
%TO.C,R1104*%
X167601110Y-97753601D02*
X167601110Y-96153601D01*
X169401110Y-97753601D02*
X169401110Y-96153601D01*
%TO.C,C1030*%
X258848010Y-93550501D02*
X262954210Y-93550501D01*
X258848010Y-96156701D02*
X262954210Y-96156701D01*
%TO.C,R900*%
X99451110Y-106103601D02*
X99451110Y-104603601D01*
X101351110Y-106103601D02*
X101351110Y-104603601D01*
%TO.C,R901*%
X95651110Y-106103601D02*
X95651110Y-104603601D01*
X97551110Y-106103601D02*
X97551110Y-104603601D01*
%TO.C,D1100*%
X148426110Y-66571601D02*
X148426110Y-65271601D01*
X150526110Y-66571601D02*
X150526110Y-65271601D01*
D14*
X149176110Y-64146601D02*
G75*
G02*
X148926110Y-64146601I-125000J0D01*
G01*
X148926110Y-64146601D02*
G75*
G02*
X149176110Y-64146601I125000J0D01*
G01*
D11*
%TO.C,R523*%
X58721440Y-121303601D02*
X60221440Y-121303601D01*
X58721440Y-123203601D02*
X60221440Y-123203601D01*
%TO.C,R823*%
X132045040Y-114107961D02*
X132045040Y-111695831D01*
X133757180Y-114107961D02*
X133757180Y-111695831D01*
%TO.C,U515*%
X44371440Y-103953601D02*
X48071440Y-103953601D01*
X44371440Y-110553601D02*
X44371440Y-103953601D01*
X44371440Y-110553601D02*
X48071440Y-110553601D01*
X48071440Y-110553601D02*
X48071440Y-103953601D01*
D13*
X47371440Y-104953601D02*
G75*
G02*
X46771440Y-104953601I-300000J0D01*
G01*
X46771440Y-104953601D02*
G75*
G02*
X47371440Y-104953601I300000J0D01*
G01*
D14*
X49396440Y-103553601D02*
G75*
G02*
X49146440Y-103553601I-125000J0D01*
G01*
X49146440Y-103553601D02*
G75*
G02*
X49396440Y-103553601I125000J0D01*
G01*
D11*
%TO.C,R111*%
X155765110Y-84578601D02*
X155765110Y-83078601D01*
X157665110Y-84578601D02*
X157665110Y-83078601D01*
D10*
%TO.C,L1001*%
X237451110Y-100253601D02*
X250351110Y-100253601D01*
X237451110Y-113453601D02*
X237451110Y-100253601D01*
X237451110Y-113453601D02*
X250351110Y-113453601D01*
X250351110Y-113453601D02*
X250351110Y-100253601D01*
D11*
%TO.C,R903*%
X105346110Y-90166601D02*
X105346110Y-88666601D01*
X107246110Y-90166601D02*
X107246110Y-88666601D01*
%TO.C,S1101*%
X165501110Y-63078601D02*
X165501110Y-60628601D01*
X165676110Y-58853601D02*
X171326110Y-58853601D01*
X165676110Y-64853601D02*
X171326110Y-64853601D01*
X171501110Y-63078601D02*
X171501110Y-60628601D01*
D14*
X163226110Y-64103601D02*
G75*
G02*
X162976110Y-64103601I-125000J0D01*
G01*
X162976110Y-64103601D02*
G75*
G02*
X163226110Y-64103601I125000J0D01*
G01*
D11*
%TO.C,R600*%
X18101110Y-118053601D02*
X18101110Y-116453601D01*
X19901110Y-118053601D02*
X19901110Y-116453601D01*
%TO.C,R511*%
X83321110Y-101303601D02*
X84821110Y-101303601D01*
X83321110Y-103203601D02*
X84821110Y-103203601D01*
%TO.C,D1104*%
X163851110Y-71659701D02*
X163851110Y-70047501D01*
X165651110Y-71659701D02*
X165651110Y-70047501D01*
D14*
X164876110Y-73528601D02*
G75*
G02*
X164626110Y-73528601I-125000J0D01*
G01*
X164626110Y-73528601D02*
G75*
G02*
X164876110Y-73528601I125000J0D01*
G01*
D11*
%TO.C,R1025*%
X257895050Y-116753601D02*
X259907180Y-116753601D01*
X257895050Y-118453601D02*
X259907180Y-118453601D01*
D10*
%TO.C,J800*%
X157901110Y-124253601D02*
X204101110Y-124253601D01*
X157901110Y-132553601D02*
X157901110Y-124253601D01*
X157901110Y-132553601D02*
X204101110Y-132553601D01*
X157942140Y-130686631D02*
X158501110Y-130686631D01*
X203501110Y-130686631D02*
X204060080Y-130686631D01*
X204101110Y-132553601D02*
X204101110Y-124253601D01*
X163501111Y-130686630D02*
G75*
G02*
X158501110Y-130686631I-2500001J1833029D01*
G01*
X168501111Y-130686630D02*
G75*
G02*
X163501110Y-130686631I-2500001J1833029D01*
G01*
X173501111Y-130686630D02*
G75*
G02*
X168501110Y-130686631I-2500001J1833029D01*
G01*
X178501111Y-130686630D02*
G75*
G02*
X173501110Y-130686631I-2500001J1833029D01*
G01*
X183501111Y-130686630D02*
G75*
G02*
X178501110Y-130686631I-2500001J1833029D01*
G01*
X188501111Y-130686630D02*
G75*
G02*
X183501110Y-130686631I-2500001J1833029D01*
G01*
X193501111Y-130686630D02*
G75*
G02*
X188501110Y-130686631I-2500001J1833029D01*
G01*
X198501111Y-130686630D02*
G75*
G02*
X193501110Y-130686631I-2500001J1833029D01*
G01*
X203501111Y-130686630D02*
G75*
G02*
X198501110Y-130686631I-2500001J1833029D01*
G01*
D11*
%TO.C,C1100*%
X134396040Y-63059661D02*
X134396040Y-60647531D01*
X136108180Y-63059661D02*
X136108180Y-60647531D01*
D18*
%TO.C,P1102*%
X71321110Y-60901101D02*
X71638610Y-60603601D01*
X71321110Y-62806101D02*
X71321110Y-60901101D01*
X71321110Y-62806101D02*
X71638610Y-63103601D01*
X71638610Y-60603601D02*
X73543610Y-60603601D01*
X73543610Y-60603601D02*
X73861110Y-60901101D01*
X73543610Y-63103601D02*
X73861110Y-62806101D01*
X73861110Y-60901101D02*
X74178610Y-60603601D01*
X73861110Y-62806101D02*
X73861110Y-60901101D01*
X73861110Y-62806101D02*
X74178610Y-63103601D01*
X74178610Y-63103601D02*
X76083610Y-63103601D01*
X76083610Y-60603601D02*
X76401110Y-60901101D01*
X76083610Y-63103601D02*
X76401110Y-62806101D01*
X76401110Y-60901101D02*
X76718610Y-60603601D01*
X76401110Y-62806101D02*
X76401110Y-60901101D01*
X76401110Y-62806101D02*
X76718610Y-63103601D01*
X76718610Y-60603601D02*
X78623610Y-60603601D01*
X78623610Y-60603601D02*
X78941110Y-60901101D01*
X78623610Y-63103601D02*
X78941110Y-62806101D01*
X78941110Y-60901101D02*
X79258610Y-60603601D01*
X78941110Y-62806101D02*
X78941110Y-60901101D01*
X78941110Y-62806101D02*
X79258610Y-63103601D01*
X79258610Y-63103601D02*
X81163610Y-63103601D01*
X81163610Y-60603601D02*
X81481110Y-60901101D01*
X81163610Y-63103601D02*
X81481110Y-62806101D01*
X81481110Y-62806101D02*
X81481110Y-60901101D01*
D17*
X81581110Y-59293601D02*
G75*
G02*
X81181110Y-59293601I-200000J0D01*
G01*
X81181110Y-59293601D02*
G75*
G02*
X81581110Y-59293601I200000J0D01*
G01*
D18*
%TO.C,U1100*%
X116121110Y-75329601D02*
X134155110Y-75329601D01*
X116151110Y-94863601D02*
X116151110Y-94133601D01*
X116151110Y-94863601D02*
X117396110Y-94863601D01*
X132906110Y-94863601D02*
X134151110Y-94863601D01*
X134151110Y-94863601D02*
X134151110Y-94133601D01*
D11*
X135451110Y-76853601D02*
G75*
G02*
X135251110Y-76853601I-100000J0D01*
G01*
X135251110Y-76853601D02*
G75*
G02*
X135451110Y-76853601I100000J0D01*
G01*
%TO.C,R821*%
X143245040Y-120477371D02*
X143245040Y-118065231D01*
X144957180Y-120477371D02*
X144957180Y-118065231D01*
D10*
%TO.C,L1021*%
X257451110Y-100253601D02*
X270351110Y-100253601D01*
X257451110Y-113453601D02*
X257451110Y-100253601D01*
X257451110Y-113453601D02*
X270351110Y-113453601D01*
X270351110Y-113453601D02*
X270351110Y-100253601D01*
D11*
%TO.C,C1023*%
X263176110Y-119953601D02*
X264626110Y-119953601D01*
X263176110Y-121753601D02*
X264626110Y-121753601D01*
%TO.C,R1100*%
X138516110Y-78991601D02*
X140116110Y-78991601D01*
X138516110Y-80791601D02*
X140116110Y-80791601D01*
%TO.C,S1103*%
X125501110Y-103078601D02*
X125501110Y-100628601D01*
X125676110Y-98853601D02*
X131326110Y-98853601D01*
X125676110Y-104853601D02*
X131326110Y-104853601D01*
X131501110Y-103078601D02*
X131501110Y-100628601D01*
D14*
X123226110Y-104103601D02*
G75*
G02*
X122976110Y-104103601I-125000J0D01*
G01*
X122976110Y-104103601D02*
G75*
G02*
X123226110Y-104103601I125000J0D01*
G01*
D11*
%TO.C,U111*%
X146737110Y-84292101D02*
X150437110Y-84292101D01*
X146737110Y-90892101D02*
X146737110Y-84292101D01*
X146737110Y-90892101D02*
X150437110Y-90892101D01*
X150437110Y-90892101D02*
X150437110Y-84292101D01*
D13*
X149737110Y-85292101D02*
G75*
G02*
X149137110Y-85292101I-300000J0D01*
G01*
X149137110Y-85292101D02*
G75*
G02*
X149737110Y-85292101I300000J0D01*
G01*
D14*
X151762110Y-83892101D02*
G75*
G02*
X151512110Y-83892101I-125000J0D01*
G01*
X151512110Y-83892101D02*
G75*
G02*
X151762110Y-83892101I125000J0D01*
G01*
D11*
%TO.C,U100*%
X215184440Y-101328601D02*
X218884440Y-101328601D01*
X215184440Y-107928601D02*
X215184440Y-101328601D01*
X215184440Y-107928601D02*
X218884440Y-107928601D01*
X218884440Y-107928601D02*
X218884440Y-101328601D01*
D13*
X218184440Y-102328601D02*
G75*
G02*
X217584440Y-102328601I-300000J0D01*
G01*
X217584440Y-102328601D02*
G75*
G02*
X218184440Y-102328601I300000J0D01*
G01*
D14*
X220209440Y-100928601D02*
G75*
G02*
X219959440Y-100928601I-125000J0D01*
G01*
X219959440Y-100928601D02*
G75*
G02*
X220209440Y-100928601I125000J0D01*
G01*
%TD*%
M02*
