M48
; DRILL file {KiCad 9.0.5} date 2025-12-05T14:57:06+0100
; FORMAT={-:-/ absolute / metric / decimal}
; #@! TF.CreationDate,2025-12-05T14:57:06+01:00
; #@! TF.GenerationSoftware,Kicad,Pcbnew,9.0.5
; #@! TF.FileFunction,Plated,1,4,PTH
FMAT,2
METRIC
; #@! TA.AperFunction,Plated,PTH,ComponentDrill
T1C0.200
; #@! TA.AperFunction,Plated,PTH,ViaDrill
T2C0.300
; #@! TA.AperFunction,Plated,PTH,ViaDrill
T3C0.400
; #@! TA.AperFunction,Plated,PTH,ComponentDrill
T4C0.400
; #@! TA.AperFunction,Plated,PTH,ComponentDrill
T5C0.600
; #@! TA.AperFunction,Plated,PTH,ViaDrill
T6C0.711
; #@! TA.AperFunction,Plated,PTH,ComponentDrill
T7C0.800
; #@! TA.AperFunction,Plated,PTH,ComponentDrill
T8C1.400
; #@! TA.AperFunction,Plated,PTH,ComponentDrill
T9C3.300
%
G90
G05
T1
X125.251Y-83.874
X125.251Y-85.274
X125.951Y-83.174
X125.951Y-84.574
X125.951Y-85.974
X126.651Y-83.874
X126.651Y-85.274
X127.351Y-83.174
X127.351Y-84.574
X127.351Y-85.974
X128.051Y-83.874
X128.051Y-85.274
T2
X2.27Y-150.574
X2.731Y-121.129
X3.351Y-80.854
X3.351Y-92.829
X3.351Y-104.854
X3.351Y-116.854
X3.951Y-86.349
X3.951Y-98.349
X3.951Y-110.349
X3.97Y-148.134
X5.171Y-79.129
X5.171Y-91.104
X5.171Y-103.129
X5.171Y-115.129
X5.606Y-75.704
X6.826Y-86.484
X6.826Y-98.484
X6.826Y-110.484
X6.826Y-122.484
X8.526Y-86.484
X8.526Y-98.484
X8.526Y-110.484
X8.526Y-122.484
X12.101Y-75.104
X12.196Y-76.554
X13.826Y-88.924
X13.826Y-100.924
X13.826Y-112.924
X13.826Y-124.924
X14.676Y-122.484
X15.526Y-88.924
X15.526Y-100.924
X15.526Y-112.924
X15.526Y-124.924
X15.618Y-65.922
X19.001Y-115.004
X19.001Y-119.504
X24.557Y-150.574
X26.257Y-148.134
X45.031Y-104.329
X45.031Y-105.629
X45.031Y-106.929
X45.031Y-108.229
X45.031Y-109.529
X45.831Y-104.979
X45.831Y-106.279
X45.831Y-107.579
X45.831Y-108.879
X45.831Y-110.179
X46.341Y-114.254
X46.611Y-108.229
X46.611Y-109.529
X46.844Y-150.574
X47.411Y-106.279
X47.411Y-107.579
X47.411Y-110.179
X47.781Y-114.254
X48.544Y-148.134
X49.221Y-100.254
X49.221Y-114.254
X50.661Y-114.254
X52.101Y-114.254
X52.731Y-108.229
X53.231Y-105.629
X53.231Y-106.929
X53.231Y-109.529
X53.231Y-125.629
X53.231Y-126.929
X53.231Y-128.229
X53.231Y-129.529
X53.341Y-114.254
X53.341Y-134.254
X53.381Y-124.329
X54.031Y-104.979
X54.031Y-106.279
X54.031Y-107.579
X54.031Y-108.879
X54.031Y-110.179
X54.031Y-124.979
X54.031Y-126.279
X54.031Y-127.579
X54.031Y-128.879
X54.031Y-130.179
X54.701Y-104.329
X54.781Y-114.254
X54.781Y-134.254
X54.811Y-108.229
X54.811Y-109.529
X54.811Y-128.229
X54.811Y-129.529
X55.611Y-104.329
X55.611Y-106.279
X55.611Y-107.579
X55.611Y-110.179
X55.611Y-126.279
X55.611Y-127.579
X55.611Y-130.179
X56.221Y-100.254
X56.221Y-114.254
X56.221Y-120.254
X56.221Y-134.254
X57.661Y-114.254
X57.661Y-134.254
X59.101Y-114.254
X59.101Y-134.254
X60.341Y-114.254
X60.341Y-134.254
X60.931Y-108.229
X60.931Y-128.229
X61.431Y-105.629
X61.431Y-106.929
X61.431Y-109.529
X61.431Y-125.629
X61.431Y-126.929
X61.431Y-129.529
X61.581Y-104.329
X61.581Y-124.329
X61.781Y-114.254
X61.781Y-134.254
X62.231Y-104.979
X62.231Y-106.279
X62.231Y-107.579
X62.231Y-108.879
X62.231Y-110.179
X62.231Y-124.979
X62.231Y-126.279
X62.231Y-127.579
X62.231Y-128.879
X62.231Y-130.179
X63.011Y-108.229
X63.011Y-109.529
X63.011Y-128.229
X63.011Y-129.529
X63.221Y-100.254
X63.221Y-114.254
X63.221Y-120.254
X63.221Y-134.254
X63.811Y-107.579
X63.811Y-110.179
X63.811Y-124.329
X63.811Y-126.279
X63.811Y-127.579
X63.811Y-130.179
X64.661Y-114.254
X64.661Y-134.254
X66.101Y-114.254
X66.101Y-134.254
X67.341Y-114.254
X67.341Y-134.254
X68.781Y-114.254
X68.781Y-134.254
X69.131Y-150.574
X69.131Y-108.229
X69.131Y-128.229
X69.631Y-104.329
X69.631Y-105.629
X69.631Y-106.929
X69.631Y-109.529
X69.631Y-125.629
X69.631Y-126.929
X69.631Y-129.529
X69.781Y-124.329
X70.221Y-100.254
X70.221Y-114.254
X70.221Y-120.254
X70.221Y-134.254
X70.431Y-104.979
X70.431Y-106.279
X70.431Y-107.579
X70.431Y-108.879
X70.431Y-110.179
X70.431Y-124.979
X70.431Y-126.279
X70.431Y-127.579
X70.431Y-128.879
X70.431Y-130.179
X70.831Y-148.134
X71.211Y-108.229
X71.211Y-109.529
X71.211Y-128.229
X71.211Y-129.529
X71.321Y-71.623
X71.339Y-79.765
X71.625Y-104.276
X71.661Y-114.254
X71.661Y-134.254
X72.011Y-106.279
X72.011Y-107.579
X72.011Y-110.179
X72.011Y-127.579
X72.011Y-130.179
X72.591Y-61.409
X73.101Y-114.254
X73.101Y-134.254
X73.861Y-71.623
X73.911Y-80.654
X74.341Y-114.254
X74.341Y-134.254
X75.131Y-62.299
X75.781Y-114.254
X75.781Y-134.254
X76.388Y-81.289
X76.401Y-71.623
X77.221Y-100.254
X77.221Y-114.254
X77.221Y-120.254
X77.221Y-134.254
X77.331Y-108.229
X77.331Y-128.229
X77.671Y-61.409
X77.831Y-104.329
X77.831Y-105.629
X77.831Y-106.929
X77.831Y-109.529
X77.831Y-125.629
X77.831Y-126.929
X77.831Y-129.529
X77.981Y-124.329
X78.631Y-104.979
X78.631Y-106.279
X78.631Y-107.579
X78.631Y-108.879
X78.631Y-110.179
X78.631Y-124.979
X78.631Y-126.279
X78.631Y-127.579
X78.631Y-128.879
X78.631Y-130.179
X78.661Y-114.254
X78.661Y-134.254
X78.933Y-80.527
X79.411Y-108.229
X79.411Y-109.529
X79.411Y-128.229
X79.411Y-129.529
X80.101Y-114.254
X80.101Y-134.254
X80.211Y-62.299
X80.211Y-107.579
X80.211Y-110.179
X80.211Y-124.329
X80.211Y-127.579
X80.211Y-130.179
X81.341Y-114.254
X81.481Y-71.623
X81.481Y-78.483
X82.781Y-114.254
X84.221Y-100.254
X84.221Y-114.254
X85.531Y-108.229
X85.661Y-114.254
X86.031Y-104.329
X86.031Y-105.629
X86.031Y-106.929
X86.031Y-109.529
X86.831Y-104.979
X86.831Y-106.279
X86.831Y-107.579
X86.831Y-108.879
X86.831Y-110.179
X87.101Y-114.254
X87.611Y-108.229
X87.611Y-109.529
X88.411Y-104.329
X88.411Y-107.579
X88.411Y-110.179
X91.418Y-150.574
X92.308Y-104.979
X92.956Y-105.629
X93.118Y-148.134
X93.312Y-59.314
X93.312Y-61.854
X93.312Y-64.394
X93.312Y-69.314
X93.312Y-71.854
X93.312Y-74.394
X93.596Y-106.279
X101.761Y-99.554
X102.486Y-100.974
X103.201Y-90.979
X103.69Y-59.314
X103.69Y-61.854
X103.69Y-64.394
X103.69Y-69.314
X103.69Y-71.854
X103.69Y-74.394
X104.772Y-61.858
X104.896Y-82.314
X104.896Y-84.854
X104.896Y-86.124
X104.896Y-87.394
X108.201Y-90.814
X111.476Y-112.102
X112.901Y-118.32
X113.705Y-150.574
X114.706Y-76.854
X114.706Y-78.124
X114.706Y-79.394
X114.706Y-80.664
X114.706Y-81.934
X114.706Y-83.204
X114.706Y-84.474
X114.706Y-85.744
X114.706Y-87.014
X115.176Y-111.261
X115.405Y-148.134
X116.401Y-94.609
X123.246Y-97.359
X123.251Y-121.299
X124.101Y-117.069
X124.516Y-95.859
X124.526Y-65.799
X125.526Y-112.102
X126.221Y-59.604
X126.221Y-76.959
X127.022Y-96.189
X128.501Y-104.104
X128.902Y-119.897
X129.918Y-85.734
X130.459Y-96.456
X130.68Y-83.194
X130.68Y-88.02
X131.442Y-81.924
X131.442Y-88.782
X131.476Y-112.125
X131.95Y-76.971
X132.204Y-84.464
X132.204Y-89.544
X132.206Y-90.824
X132.901Y-118.32
X135.176Y-111.261
X135.38Y-87.029
X135.596Y-93.364
X135.872Y-94.609
X136.522Y-92.084
X136.649Y-75.988
X137.003Y-99.604
X138.173Y-58.429
X139.443Y-81.885
X140.205Y-75.153
X140.332Y-81.264
X141.602Y-78.396
X142.872Y-66.176
X143.251Y-121.299
X143.258Y-77.159
X143.258Y-78.459
X143.258Y-79.759
X143.258Y-81.059
X143.258Y-84.652
X143.258Y-85.952
X143.258Y-87.252
X143.258Y-88.552
X143.258Y-89.852
X144.058Y-77.809
X144.058Y-79.109
X144.058Y-81.709
X144.058Y-83.009
X144.058Y-85.302
X144.058Y-86.602
X144.058Y-87.902
X144.058Y-89.202
X144.101Y-117.069
X144.701Y-72.456
X144.701Y-95.456
X144.806Y-101.929
X145.526Y-112.125
X145.856Y-101.279
X145.856Y-103.229
X146.601Y-72.456
X146.601Y-95.456
X147.016Y-82.389
X147.226Y-150.574
X147.816Y-80.439
X148.501Y-72.456
X148.501Y-95.456
X148.926Y-148.134
X149.246Y-103.879
X149.358Y-80.409
X149.358Y-83.009
X149.358Y-87.902
X149.801Y-91.056
X149.997Y-69.215
X150.158Y-88.552
X150.283Y-121.432
X150.401Y-72.456
X150.401Y-95.456
X151.001Y-69.215
X151.994Y-123.864
X152.005Y-69.215
X152.137Y-119.904
X152.301Y-72.456
X152.301Y-95.456
X152.527Y-104.903
X152.756Y-100.629
X152.756Y-101.929
X153.009Y-69.215
X153.116Y-78.489
X153.116Y-79.789
X153.116Y-81.089
X153.116Y-82.389
X153.116Y-86.632
X153.116Y-89.882
X153.798Y-113.586
X153.916Y-81.739
X153.916Y-85.332
X153.916Y-89.232
X153.916Y-90.532
X154.046Y-118.226
X154.556Y-94.075
X155.572Y-90.7
X155.588Y-97.479
X156.098Y-112.588
X156.588Y-94.075
X156.588Y-99.831
X157.604Y-90.7
X157.604Y-97.467
X157.901Y-118.32
X157.902Y-102.31
X158.194Y-78.817
X158.194Y-83.028
X158.62Y-94.075
X158.751Y-114.949
X159.001Y-111.007
X160.176Y-110.983
X160.389Y-101.38
X161.16Y-96.783
X162.006Y-91.034
X162.254Y-95.674
X162.831Y-59.604
X164.306Y-90.036
X164.526Y-65.799
X164.647Y-81.966
X164.751Y-70.797
X164.751Y-74.187
X165.626Y-78.924
X165.859Y-96.456
X166.358Y-84.398
X167.251Y-70.797
X167.251Y-74.187
X168.251Y-121.299
X168.501Y-104.104
X169.101Y-117.069
X169.751Y-74.187
X169.901Y-77.104
X169.98Y-96.219
X170.526Y-112.125
X171.626Y-78.924
X172.251Y-74.187
X176.476Y-112.125
X177.162Y-117.254
X177.626Y-78.924
X177.954Y-96.86
X178.289Y-107.554
X179.829Y-111.256
X179.984Y-100.909
X180.748Y-150.574
X180.999Y-99.854
X181.679Y-102.354
X181.679Y-103.654
X181.679Y-104.954
X181.679Y-106.904
X181.901Y-77.104
X182.448Y-148.134
X182.729Y-103.004
X183.004Y-106.054
X183.034Y-96.86
X183.62Y-108.599
X183.626Y-78.924
X184.389Y-106.904
X185.574Y-96.86
X186.084Y-108.599
X188.102Y-96.86
X189.101Y-117.069
X189.626Y-78.924
X190.017Y-121.294
X190.526Y-112.125
X193.901Y-77.104
X194.954Y-96.86
X194.967Y-117.648
X195.626Y-78.924
X196.984Y-100.909
X197.494Y-117.648
X197.999Y-99.854
X198.679Y-106.904
X199.387Y-111.769
X199.479Y-102.354
X199.479Y-103.654
X200.034Y-96.86
X200.034Y-117.648
X200.23Y-104.629
X200.529Y-103.004
X201.292Y-105.292
X201.626Y-78.924
X202.574Y-96.86
X202.574Y-117.648
X203.035Y-150.574
X204.735Y-148.134
X205.102Y-96.86
X205.901Y-77.104
X207.626Y-78.924
X211.954Y-96.86
X211.967Y-117.648
X213.626Y-78.924
X213.984Y-100.909
X214.494Y-117.648
X214.999Y-99.854
X215.679Y-106.904
X216.387Y-111.769
X216.479Y-102.354
X216.479Y-103.654
X217.034Y-96.86
X217.034Y-117.648
X217.325Y-104.65
X217.529Y-103.004
X217.563Y-125.993
X217.563Y-128.493
X217.563Y-130.993
X217.563Y-133.493
X217.901Y-77.104
X218.183Y-105.546
X218.24Y-101.329
X218.474Y-125.993
X218.474Y-128.493
X218.474Y-130.993
X218.474Y-133.493
X219.574Y-96.86
X219.574Y-117.648
X219.626Y-78.924
X222.102Y-96.86
X225.322Y-150.574
X225.626Y-78.924
X227.022Y-148.134
X227.581Y-74.177
X227.581Y-132.597
X229.901Y-77.104
X231.626Y-78.924
X235.309Y-78.896
X237.351Y-114.604
X237.351Y-116.104
X237.351Y-117.604
X237.351Y-119.104
X237.901Y-93.354
X237.901Y-94.854
X237.901Y-96.354
X237.901Y-97.854
X237.901Y-99.354
X239.401Y-96.354
X239.501Y-120.054
X239.725Y-93.354
X239.725Y-99.354
X239.951Y-120.854
X239.951Y-122.854
X239.951Y-124.854
X241.101Y-120.854
X241.101Y-122.854
X241.101Y-124.854
X241.101Y-126.854
X241.101Y-128.704
X242.077Y-93.354
X242.401Y-96.354
X242.951Y-128.704
X243.401Y-120.854
X243.401Y-122.854
X243.401Y-124.854
X243.901Y-93.354
X243.901Y-94.854
X243.901Y-96.354
X243.901Y-97.854
X245.401Y-96.354
X245.725Y-93.354
X247.501Y-114.754
X247.609Y-150.574
X248.077Y-93.354
X248.077Y-99.354
X248.401Y-96.354
X248.901Y-116.104
X249.309Y-148.134
X249.901Y-93.354
X249.901Y-94.854
X249.901Y-96.354
X249.901Y-97.854
X249.901Y-99.354
X250.078Y-117.654
X257.351Y-114.604
X257.351Y-116.104
X257.351Y-117.604
X257.351Y-119.104
X257.901Y-93.354
X257.901Y-94.854
X257.901Y-96.354
X257.901Y-97.854
X257.901Y-99.354
X259.401Y-96.354
X259.501Y-120.054
X259.725Y-93.354
X259.725Y-99.354
X259.951Y-120.854
X259.951Y-122.854
X259.951Y-124.854
X261.101Y-120.854
X261.101Y-122.854
X261.101Y-124.854
X261.101Y-126.854
X261.101Y-128.704
X262.077Y-93.354
X262.401Y-96.354
X262.951Y-128.704
X263.401Y-120.854
X263.401Y-122.854
X263.401Y-124.854
X263.901Y-93.354
X263.901Y-94.854
X263.901Y-96.354
X263.901Y-97.854
X265.401Y-96.354
X265.725Y-93.354
X267.501Y-114.754
X268.077Y-93.354
X268.077Y-99.354
X268.401Y-96.354
X268.901Y-116.104
X269.896Y-150.574
X269.901Y-93.354
X269.901Y-94.854
X269.901Y-96.354
X269.901Y-97.854
X269.901Y-99.354
X270.078Y-117.654
X271.596Y-148.134
X280.626Y-76.924
X280.626Y-100.924
X280.626Y-112.924
X280.626Y-124.924
X282.326Y-74.484
X282.326Y-98.484
X282.326Y-110.484
X282.326Y-122.484
X287.626Y-76.924
X287.626Y-88.924
X287.626Y-100.924
X287.626Y-112.924
X288.531Y-119.429
X289.326Y-74.484
X289.326Y-86.484
X289.326Y-98.484
X289.326Y-110.484
X290.971Y-121.129
X291.716Y-79.257
X291.716Y-114.324
X292.183Y-150.574
X293.531Y-119.429
X293.883Y-148.134
X294.151Y-86.854
X294.151Y-98.854
X294.151Y-110.854
X294.751Y-80.349
X294.751Y-92.349
X294.751Y-104.349
X294.751Y-116.349
X294.751Y-117.359
X295.971Y-85.129
X295.971Y-97.129
X295.971Y-109.129
X295.971Y-121.129
T3
X42.415Y-97.911
X93.738Y-97.911
X96.596Y-96.91
X99.582Y-95.854
T4
X145.001Y-61.034
X145.001Y-62.684
X146.001Y-61.034
X146.001Y-62.684
X147.001Y-61.034
X147.001Y-62.684
X148.001Y-61.034
X148.001Y-62.684
X149.001Y-61.034
X149.001Y-62.684
X150.001Y-61.034
X150.001Y-62.684
X151.001Y-61.034
X151.001Y-62.684
X152.001Y-61.034
X152.001Y-62.684
T6
X-3.766Y-58.154
X-3.766Y-131.854
X-1.099Y-55.487
X-1.099Y-60.821
X-1.099Y-129.187
X-1.099Y-134.521
X1.568Y-58.154
X1.568Y-131.854
X86.234Y-58.154
X86.234Y-131.854
X88.901Y-55.487
X88.901Y-60.821
X88.901Y-129.187
X88.901Y-134.521
X91.568Y-58.154
X91.568Y-131.854
X98.501Y-106.354
X205.434Y-58.154
X205.434Y-131.854
X208.101Y-55.487
X208.101Y-60.821
X208.101Y-129.187
X208.101Y-134.521
X210.768Y-58.154
X210.768Y-131.854
X295.434Y-58.154
X295.434Y-131.854
X298.101Y-55.487
X298.101Y-60.821
X298.101Y-129.187
X298.101Y-134.521
X300.768Y-58.154
X300.768Y-131.854
T7
X14.356Y-61.854
X15.626Y-61.854
X16.896Y-61.854
T8
X96.001Y-128.854
X101.001Y-128.854
X111.001Y-128.854
X116.001Y-128.854
X121.001Y-128.854
X126.001Y-128.854
X131.001Y-128.854
X136.001Y-128.854
X141.001Y-128.854
X146.001Y-128.854
X151.001Y-128.854
X161.001Y-128.854
X166.001Y-128.854
X171.001Y-128.854
X176.001Y-128.854
X181.001Y-128.854
X186.001Y-128.854
X191.001Y-128.854
X196.001Y-128.854
X201.001Y-128.854
T9
X-1.099Y-58.154
X-1.099Y-131.854
X88.901Y-58.154
X88.901Y-131.854
X208.101Y-58.154
X208.101Y-131.854
X298.101Y-58.154
X298.101Y-131.854
T5
G00X144.076Y-59.834
M15
G01X144.476Y-59.834
M16
G05
G00X144.076Y-63.874
M15
G01X144.476Y-63.874
M16
G05
G00X152.926Y-59.834
M15
G01X152.526Y-59.834
M16
G05
G00X152.926Y-63.874
M15
G01X152.526Y-63.874
M16
G05
M30
