%TF.GenerationSoftware,KiCad,Pcbnew,9.0.5*%
%TF.CreationDate,2025-12-06T21:21:28+01:00*%
%TF.ProjectId,Speedometer_Tech,53706565-646f-46d6-9574-65725f546563,rev?*%
%TF.SameCoordinates,Original*%
%TF.FileFunction,Legend,Bot*%
%TF.FilePolarity,Positive*%
%FSLAX46Y46*%
G04 Gerber Fmt 4.6, Leading zero omitted, Abs format (unit mm)*
G04 Created by KiCad (PCBNEW 9.0.5) date 2025-12-06 21:21:28*
%MOMM*%
%LPD*%
G01*
G04 APERTURE LIST*
%ADD10C,0.254000*%
%ADD11C,0.150000*%
%ADD12C,0.120000*%
%ADD13C,0.127000*%
%ADD14C,0.400000*%
G04 APERTURE END LIST*
D10*
X24357999Y20058176D02*
X24357999Y21582176D01*
X24357999Y21582176D02*
X23995142Y21582176D01*
X23995142Y21582176D02*
X23777428Y21509605D01*
X23777428Y21509605D02*
X23632285Y21364462D01*
X23632285Y21364462D02*
X23559714Y21219319D01*
X23559714Y21219319D02*
X23487142Y20929033D01*
X23487142Y20929033D02*
X23487142Y20711319D01*
X23487142Y20711319D02*
X23559714Y20421033D01*
X23559714Y20421033D02*
X23632285Y20275890D01*
X23632285Y20275890D02*
X23777428Y20130748D01*
X23777428Y20130748D02*
X23995142Y20058176D01*
X23995142Y20058176D02*
X24357999Y20058176D01*
X22833999Y20058176D02*
X22833999Y21582176D01*
X21310000Y21509605D02*
X21455143Y21582176D01*
X21455143Y21582176D02*
X21672857Y21582176D01*
X21672857Y21582176D02*
X21890571Y21509605D01*
X21890571Y21509605D02*
X22035714Y21364462D01*
X22035714Y21364462D02*
X22108285Y21219319D01*
X22108285Y21219319D02*
X22180857Y20929033D01*
X22180857Y20929033D02*
X22180857Y20711319D01*
X22180857Y20711319D02*
X22108285Y20421033D01*
X22108285Y20421033D02*
X22035714Y20275890D01*
X22035714Y20275890D02*
X21890571Y20130748D01*
X21890571Y20130748D02*
X21672857Y20058176D01*
X21672857Y20058176D02*
X21527714Y20058176D01*
X21527714Y20058176D02*
X21310000Y20130748D01*
X21310000Y20130748D02*
X21237428Y20203319D01*
X21237428Y20203319D02*
X21237428Y20711319D01*
X21237428Y20711319D02*
X21527714Y20711319D01*
X20584285Y20058176D02*
X20584285Y21582176D01*
X20076286Y21582176D02*
X19205429Y21582176D01*
X19640857Y20058176D02*
X19640857Y21582176D01*
X18697428Y20638748D02*
X17536286Y20638748D01*
X15939714Y20058176D02*
X16447714Y20783890D01*
X16810571Y20058176D02*
X16810571Y21582176D01*
X16810571Y21582176D02*
X16230000Y21582176D01*
X16230000Y21582176D02*
X16084857Y21509605D01*
X16084857Y21509605D02*
X16012286Y21437033D01*
X16012286Y21437033D02*
X15939714Y21291890D01*
X15939714Y21291890D02*
X15939714Y21074176D01*
X15939714Y21074176D02*
X16012286Y20929033D01*
X16012286Y20929033D02*
X16084857Y20856462D01*
X16084857Y20856462D02*
X16230000Y20783890D01*
X16230000Y20783890D02*
X16810571Y20783890D01*
X15286571Y20856462D02*
X14778571Y20856462D01*
X14560857Y20058176D02*
X15286571Y20058176D01*
X15286571Y20058176D02*
X15286571Y21582176D01*
X15286571Y21582176D02*
X14560857Y21582176D01*
X13980286Y20130748D02*
X13762572Y20058176D01*
X13762572Y20058176D02*
X13399714Y20058176D01*
X13399714Y20058176D02*
X13254572Y20130748D01*
X13254572Y20130748D02*
X13182000Y20203319D01*
X13182000Y20203319D02*
X13109429Y20348462D01*
X13109429Y20348462D02*
X13109429Y20493605D01*
X13109429Y20493605D02*
X13182000Y20638748D01*
X13182000Y20638748D02*
X13254572Y20711319D01*
X13254572Y20711319D02*
X13399714Y20783890D01*
X13399714Y20783890D02*
X13690000Y20856462D01*
X13690000Y20856462D02*
X13835143Y20929033D01*
X13835143Y20929033D02*
X13907714Y21001605D01*
X13907714Y21001605D02*
X13980286Y21146748D01*
X13980286Y21146748D02*
X13980286Y21291890D01*
X13980286Y21291890D02*
X13907714Y21437033D01*
X13907714Y21437033D02*
X13835143Y21509605D01*
X13835143Y21509605D02*
X13690000Y21582176D01*
X13690000Y21582176D02*
X13327143Y21582176D01*
X13327143Y21582176D02*
X13109429Y21509605D01*
X12456285Y20856462D02*
X11948285Y20856462D01*
X11730571Y20058176D02*
X12456285Y20058176D01*
X12456285Y20058176D02*
X12456285Y21582176D01*
X12456285Y21582176D02*
X11730571Y21582176D01*
X11295143Y21582176D02*
X10424286Y21582176D01*
X10859714Y20058176D02*
X10859714Y21582176D01*
X114290285Y61332176D02*
X115015999Y61332176D01*
X115015999Y61332176D02*
X115088571Y60606462D01*
X115088571Y60606462D02*
X115015999Y60679033D01*
X115015999Y60679033D02*
X114870857Y60751605D01*
X114870857Y60751605D02*
X114507999Y60751605D01*
X114507999Y60751605D02*
X114362857Y60679033D01*
X114362857Y60679033D02*
X114290285Y60606462D01*
X114290285Y60606462D02*
X114217714Y60461319D01*
X114217714Y60461319D02*
X114217714Y60098462D01*
X114217714Y60098462D02*
X114290285Y59953319D01*
X114290285Y59953319D02*
X114362857Y59880748D01*
X114362857Y59880748D02*
X114507999Y59808176D01*
X114507999Y59808176D02*
X114870857Y59808176D01*
X114870857Y59808176D02*
X115015999Y59880748D01*
X115015999Y59880748D02*
X115088571Y59953319D01*
X113782285Y61332176D02*
X113274285Y59808176D01*
X113274285Y59808176D02*
X112766285Y61332176D01*
X135886857Y61832176D02*
X134943429Y61832176D01*
X134943429Y61832176D02*
X135451429Y61251605D01*
X135451429Y61251605D02*
X135233714Y61251605D01*
X135233714Y61251605D02*
X135088572Y61179033D01*
X135088572Y61179033D02*
X135016000Y61106462D01*
X135016000Y61106462D02*
X134943429Y60961319D01*
X134943429Y60961319D02*
X134943429Y60598462D01*
X134943429Y60598462D02*
X135016000Y60453319D01*
X135016000Y60453319D02*
X135088572Y60380748D01*
X135088572Y60380748D02*
X135233714Y60308176D01*
X135233714Y60308176D02*
X135669143Y60308176D01*
X135669143Y60308176D02*
X135814286Y60380748D01*
X135814286Y60380748D02*
X135886857Y60453319D01*
X134508000Y61832176D02*
X134000000Y60308176D01*
X134000000Y60308176D02*
X133492000Y61832176D01*
X133129142Y61832176D02*
X132185714Y61832176D01*
X132185714Y61832176D02*
X132693714Y61251605D01*
X132693714Y61251605D02*
X132475999Y61251605D01*
X132475999Y61251605D02*
X132330857Y61179033D01*
X132330857Y61179033D02*
X132258285Y61106462D01*
X132258285Y61106462D02*
X132185714Y60961319D01*
X132185714Y60961319D02*
X132185714Y60598462D01*
X132185714Y60598462D02*
X132258285Y60453319D01*
X132258285Y60453319D02*
X132330857Y60380748D01*
X132330857Y60380748D02*
X132475999Y60308176D01*
X132475999Y60308176D02*
X132911428Y60308176D01*
X132911428Y60308176D02*
X133056571Y60380748D01*
X133056571Y60380748D02*
X133129142Y60453319D01*
X19713428Y76308176D02*
X20221428Y77033890D01*
X20584285Y76308176D02*
X20584285Y77832176D01*
X20584285Y77832176D02*
X20003714Y77832176D01*
X20003714Y77832176D02*
X19858571Y77759605D01*
X19858571Y77759605D02*
X19786000Y77687033D01*
X19786000Y77687033D02*
X19713428Y77541890D01*
X19713428Y77541890D02*
X19713428Y77324176D01*
X19713428Y77324176D02*
X19786000Y77179033D01*
X19786000Y77179033D02*
X19858571Y77106462D01*
X19858571Y77106462D02*
X20003714Y77033890D01*
X20003714Y77033890D02*
X20584285Y77033890D01*
X19060285Y77106462D02*
X18552285Y77106462D01*
X18334571Y76308176D02*
X19060285Y76308176D01*
X19060285Y76308176D02*
X19060285Y77832176D01*
X19060285Y77832176D02*
X18334571Y77832176D01*
X17754000Y76380748D02*
X17536286Y76308176D01*
X17536286Y76308176D02*
X17173428Y76308176D01*
X17173428Y76308176D02*
X17028286Y76380748D01*
X17028286Y76380748D02*
X16955714Y76453319D01*
X16955714Y76453319D02*
X16883143Y76598462D01*
X16883143Y76598462D02*
X16883143Y76743605D01*
X16883143Y76743605D02*
X16955714Y76888748D01*
X16955714Y76888748D02*
X17028286Y76961319D01*
X17028286Y76961319D02*
X17173428Y77033890D01*
X17173428Y77033890D02*
X17463714Y77106462D01*
X17463714Y77106462D02*
X17608857Y77179033D01*
X17608857Y77179033D02*
X17681428Y77251605D01*
X17681428Y77251605D02*
X17754000Y77396748D01*
X17754000Y77396748D02*
X17754000Y77541890D01*
X17754000Y77541890D02*
X17681428Y77687033D01*
X17681428Y77687033D02*
X17608857Y77759605D01*
X17608857Y77759605D02*
X17463714Y77832176D01*
X17463714Y77832176D02*
X17100857Y77832176D01*
X17100857Y77832176D02*
X16883143Y77759605D01*
X16229999Y77106462D02*
X15721999Y77106462D01*
X15504285Y76308176D02*
X16229999Y76308176D01*
X16229999Y76308176D02*
X16229999Y77832176D01*
X16229999Y77832176D02*
X15504285Y77832176D01*
X15068857Y77832176D02*
X14198000Y77832176D01*
X14633428Y76308176D02*
X14633428Y77832176D01*
X24652857Y95401145D02*
X24798000Y95473716D01*
X24798000Y95473716D02*
X25015714Y95473716D01*
X25015714Y95473716D02*
X25233428Y95401145D01*
X25233428Y95401145D02*
X25378571Y95256002D01*
X25378571Y95256002D02*
X25451142Y95110859D01*
X25451142Y95110859D02*
X25523714Y94820573D01*
X25523714Y94820573D02*
X25523714Y94602859D01*
X25523714Y94602859D02*
X25451142Y94312573D01*
X25451142Y94312573D02*
X25378571Y94167430D01*
X25378571Y94167430D02*
X25233428Y94022288D01*
X25233428Y94022288D02*
X25015714Y93949716D01*
X25015714Y93949716D02*
X24870571Y93949716D01*
X24870571Y93949716D02*
X24652857Y94022288D01*
X24652857Y94022288D02*
X24580285Y94094859D01*
X24580285Y94094859D02*
X24580285Y94602859D01*
X24580285Y94602859D02*
X24870571Y94602859D01*
X22765999Y93949716D02*
X22765999Y95473716D01*
X22765999Y95473716D02*
X22403142Y95473716D01*
X22403142Y95473716D02*
X22185428Y95401145D01*
X22185428Y95401145D02*
X22040285Y95256002D01*
X22040285Y95256002D02*
X21967714Y95110859D01*
X21967714Y95110859D02*
X21895142Y94820573D01*
X21895142Y94820573D02*
X21895142Y94602859D01*
X21895142Y94602859D02*
X21967714Y94312573D01*
X21967714Y94312573D02*
X22040285Y94167430D01*
X22040285Y94167430D02*
X22185428Y94022288D01*
X22185428Y94022288D02*
X22403142Y93949716D01*
X22403142Y93949716D02*
X22765999Y93949716D01*
X19355142Y95473716D02*
X20080856Y95473716D01*
X20080856Y95473716D02*
X20153428Y94748002D01*
X20153428Y94748002D02*
X20080856Y94820573D01*
X20080856Y94820573D02*
X19935714Y94893145D01*
X19935714Y94893145D02*
X19572856Y94893145D01*
X19572856Y94893145D02*
X19427714Y94820573D01*
X19427714Y94820573D02*
X19355142Y94748002D01*
X19355142Y94748002D02*
X19282571Y94602859D01*
X19282571Y94602859D02*
X19282571Y94240002D01*
X19282571Y94240002D02*
X19355142Y94094859D01*
X19355142Y94094859D02*
X19427714Y94022288D01*
X19427714Y94022288D02*
X19572856Y93949716D01*
X19572856Y93949716D02*
X19935714Y93949716D01*
X19935714Y93949716D02*
X20080856Y94022288D01*
X20080856Y94022288D02*
X20153428Y94094859D01*
X18847142Y95473716D02*
X18339142Y93949716D01*
X18339142Y93949716D02*
X17831142Y95473716D01*
X206542609Y99107525D02*
X206324895Y99034953D01*
X206324895Y99034953D02*
X205962037Y99034953D01*
X205962037Y99034953D02*
X205816895Y99107525D01*
X205816895Y99107525D02*
X205744323Y99180096D01*
X205744323Y99180096D02*
X205671752Y99325239D01*
X205671752Y99325239D02*
X205671752Y99470382D01*
X205671752Y99470382D02*
X205744323Y99615525D01*
X205744323Y99615525D02*
X205816895Y99688096D01*
X205816895Y99688096D02*
X205962037Y99760667D01*
X205962037Y99760667D02*
X206252323Y99833239D01*
X206252323Y99833239D02*
X206397466Y99905810D01*
X206397466Y99905810D02*
X206470037Y99978382D01*
X206470037Y99978382D02*
X206542609Y100123525D01*
X206542609Y100123525D02*
X206542609Y100268667D01*
X206542609Y100268667D02*
X206470037Y100413810D01*
X206470037Y100413810D02*
X206397466Y100486382D01*
X206397466Y100486382D02*
X206252323Y100558953D01*
X206252323Y100558953D02*
X205889466Y100558953D01*
X205889466Y100558953D02*
X205671752Y100486382D01*
X205018608Y100050953D02*
X205018608Y98526953D01*
X205018608Y99978382D02*
X204873466Y100050953D01*
X204873466Y100050953D02*
X204583180Y100050953D01*
X204583180Y100050953D02*
X204438037Y99978382D01*
X204438037Y99978382D02*
X204365466Y99905810D01*
X204365466Y99905810D02*
X204292894Y99760667D01*
X204292894Y99760667D02*
X204292894Y99325239D01*
X204292894Y99325239D02*
X204365466Y99180096D01*
X204365466Y99180096D02*
X204438037Y99107525D01*
X204438037Y99107525D02*
X204583180Y99034953D01*
X204583180Y99034953D02*
X204873466Y99034953D01*
X204873466Y99034953D02*
X205018608Y99107525D01*
X203059180Y99107525D02*
X203204323Y99034953D01*
X203204323Y99034953D02*
X203494609Y99034953D01*
X203494609Y99034953D02*
X203639751Y99107525D01*
X203639751Y99107525D02*
X203712323Y99252667D01*
X203712323Y99252667D02*
X203712323Y99833239D01*
X203712323Y99833239D02*
X203639751Y99978382D01*
X203639751Y99978382D02*
X203494609Y100050953D01*
X203494609Y100050953D02*
X203204323Y100050953D01*
X203204323Y100050953D02*
X203059180Y99978382D01*
X203059180Y99978382D02*
X202986609Y99833239D01*
X202986609Y99833239D02*
X202986609Y99688096D01*
X202986609Y99688096D02*
X203712323Y99542953D01*
X201752894Y99107525D02*
X201898037Y99034953D01*
X201898037Y99034953D02*
X202188323Y99034953D01*
X202188323Y99034953D02*
X202333465Y99107525D01*
X202333465Y99107525D02*
X202406037Y99252667D01*
X202406037Y99252667D02*
X202406037Y99833239D01*
X202406037Y99833239D02*
X202333465Y99978382D01*
X202333465Y99978382D02*
X202188323Y100050953D01*
X202188323Y100050953D02*
X201898037Y100050953D01*
X201898037Y100050953D02*
X201752894Y99978382D01*
X201752894Y99978382D02*
X201680323Y99833239D01*
X201680323Y99833239D02*
X201680323Y99688096D01*
X201680323Y99688096D02*
X202406037Y99542953D01*
X200374037Y99034953D02*
X200374037Y100558953D01*
X200374037Y99107525D02*
X200519179Y99034953D01*
X200519179Y99034953D02*
X200809465Y99034953D01*
X200809465Y99034953D02*
X200954608Y99107525D01*
X200954608Y99107525D02*
X201027179Y99180096D01*
X201027179Y99180096D02*
X201099751Y99325239D01*
X201099751Y99325239D02*
X201099751Y99760667D01*
X201099751Y99760667D02*
X201027179Y99905810D01*
X201027179Y99905810D02*
X200954608Y99978382D01*
X200954608Y99978382D02*
X200809465Y100050953D01*
X200809465Y100050953D02*
X200519179Y100050953D01*
X200519179Y100050953D02*
X200374037Y99978382D01*
X199430608Y99034953D02*
X199575751Y99107525D01*
X199575751Y99107525D02*
X199648322Y99180096D01*
X199648322Y99180096D02*
X199720894Y99325239D01*
X199720894Y99325239D02*
X199720894Y99760667D01*
X199720894Y99760667D02*
X199648322Y99905810D01*
X199648322Y99905810D02*
X199575751Y99978382D01*
X199575751Y99978382D02*
X199430608Y100050953D01*
X199430608Y100050953D02*
X199212894Y100050953D01*
X199212894Y100050953D02*
X199067751Y99978382D01*
X199067751Y99978382D02*
X198995180Y99905810D01*
X198995180Y99905810D02*
X198922608Y99760667D01*
X198922608Y99760667D02*
X198922608Y99325239D01*
X198922608Y99325239D02*
X198995180Y99180096D01*
X198995180Y99180096D02*
X199067751Y99107525D01*
X199067751Y99107525D02*
X199212894Y99034953D01*
X199212894Y99034953D02*
X199430608Y99034953D01*
X198269465Y99034953D02*
X198269465Y100050953D01*
X198269465Y99905810D02*
X198196894Y99978382D01*
X198196894Y99978382D02*
X198051751Y100050953D01*
X198051751Y100050953D02*
X197834037Y100050953D01*
X197834037Y100050953D02*
X197688894Y99978382D01*
X197688894Y99978382D02*
X197616323Y99833239D01*
X197616323Y99833239D02*
X197616323Y99034953D01*
X197616323Y99833239D02*
X197543751Y99978382D01*
X197543751Y99978382D02*
X197398608Y100050953D01*
X197398608Y100050953D02*
X197180894Y100050953D01*
X197180894Y100050953D02*
X197035751Y99978382D01*
X197035751Y99978382D02*
X196963180Y99833239D01*
X196963180Y99833239D02*
X196963180Y99034953D01*
X195656894Y99107525D02*
X195802037Y99034953D01*
X195802037Y99034953D02*
X196092323Y99034953D01*
X196092323Y99034953D02*
X196237465Y99107525D01*
X196237465Y99107525D02*
X196310037Y99252667D01*
X196310037Y99252667D02*
X196310037Y99833239D01*
X196310037Y99833239D02*
X196237465Y99978382D01*
X196237465Y99978382D02*
X196092323Y100050953D01*
X196092323Y100050953D02*
X195802037Y100050953D01*
X195802037Y100050953D02*
X195656894Y99978382D01*
X195656894Y99978382D02*
X195584323Y99833239D01*
X195584323Y99833239D02*
X195584323Y99688096D01*
X195584323Y99688096D02*
X196310037Y99542953D01*
X195148894Y100050953D02*
X194568322Y100050953D01*
X194931179Y100558953D02*
X194931179Y99252667D01*
X194931179Y99252667D02*
X194858608Y99107525D01*
X194858608Y99107525D02*
X194713465Y99034953D01*
X194713465Y99034953D02*
X194568322Y99034953D01*
X193479751Y99107525D02*
X193624894Y99034953D01*
X193624894Y99034953D02*
X193915180Y99034953D01*
X193915180Y99034953D02*
X194060322Y99107525D01*
X194060322Y99107525D02*
X194132894Y99252667D01*
X194132894Y99252667D02*
X194132894Y99833239D01*
X194132894Y99833239D02*
X194060322Y99978382D01*
X194060322Y99978382D02*
X193915180Y100050953D01*
X193915180Y100050953D02*
X193624894Y100050953D01*
X193624894Y100050953D02*
X193479751Y99978382D01*
X193479751Y99978382D02*
X193407180Y99833239D01*
X193407180Y99833239D02*
X193407180Y99688096D01*
X193407180Y99688096D02*
X194132894Y99542953D01*
X192754036Y99034953D02*
X192754036Y100050953D01*
X192754036Y99760667D02*
X192681465Y99905810D01*
X192681465Y99905810D02*
X192608894Y99978382D01*
X192608894Y99978382D02*
X192463751Y100050953D01*
X192463751Y100050953D02*
X192318608Y100050953D01*
X189778607Y99034953D02*
X190286607Y99760667D01*
X190649464Y99034953D02*
X190649464Y100558953D01*
X190649464Y100558953D02*
X190068893Y100558953D01*
X190068893Y100558953D02*
X189923750Y100486382D01*
X189923750Y100486382D02*
X189851179Y100413810D01*
X189851179Y100413810D02*
X189778607Y100268667D01*
X189778607Y100268667D02*
X189778607Y100050953D01*
X189778607Y100050953D02*
X189851179Y99905810D01*
X189851179Y99905810D02*
X189923750Y99833239D01*
X189923750Y99833239D02*
X190068893Y99760667D01*
X190068893Y99760667D02*
X190649464Y99760667D01*
X188544893Y99107525D02*
X188690036Y99034953D01*
X188690036Y99034953D02*
X188980322Y99034953D01*
X188980322Y99034953D02*
X189125464Y99107525D01*
X189125464Y99107525D02*
X189198036Y99252667D01*
X189198036Y99252667D02*
X189198036Y99833239D01*
X189198036Y99833239D02*
X189125464Y99978382D01*
X189125464Y99978382D02*
X188980322Y100050953D01*
X188980322Y100050953D02*
X188690036Y100050953D01*
X188690036Y100050953D02*
X188544893Y99978382D01*
X188544893Y99978382D02*
X188472322Y99833239D01*
X188472322Y99833239D02*
X188472322Y99688096D01*
X188472322Y99688096D02*
X189198036Y99542953D01*
X187964321Y100050953D02*
X187601464Y99034953D01*
X187601464Y99034953D02*
X187238607Y100050953D01*
X186150035Y99833239D02*
X185932321Y99760667D01*
X185932321Y99760667D02*
X185859750Y99688096D01*
X185859750Y99688096D02*
X185787178Y99542953D01*
X185787178Y99542953D02*
X185787178Y99325239D01*
X185787178Y99325239D02*
X185859750Y99180096D01*
X185859750Y99180096D02*
X185932321Y99107525D01*
X185932321Y99107525D02*
X186077464Y99034953D01*
X186077464Y99034953D02*
X186658035Y99034953D01*
X186658035Y99034953D02*
X186658035Y100558953D01*
X186658035Y100558953D02*
X186150035Y100558953D01*
X186150035Y100558953D02*
X186004893Y100486382D01*
X186004893Y100486382D02*
X185932321Y100413810D01*
X185932321Y100413810D02*
X185859750Y100268667D01*
X185859750Y100268667D02*
X185859750Y100123525D01*
X185859750Y100123525D02*
X185932321Y99978382D01*
X185932321Y99978382D02*
X186004893Y99905810D01*
X186004893Y99905810D02*
X186150035Y99833239D01*
X186150035Y99833239D02*
X186658035Y99833239D01*
X205962037Y97379684D02*
X205744323Y97307112D01*
X205744323Y97307112D02*
X205671752Y97234541D01*
X205671752Y97234541D02*
X205599180Y97089398D01*
X205599180Y97089398D02*
X205599180Y96871684D01*
X205599180Y96871684D02*
X205671752Y96726541D01*
X205671752Y96726541D02*
X205744323Y96653970D01*
X205744323Y96653970D02*
X205889466Y96581398D01*
X205889466Y96581398D02*
X206470037Y96581398D01*
X206470037Y96581398D02*
X206470037Y98105398D01*
X206470037Y98105398D02*
X205962037Y98105398D01*
X205962037Y98105398D02*
X205816895Y98032827D01*
X205816895Y98032827D02*
X205744323Y97960255D01*
X205744323Y97960255D02*
X205671752Y97815112D01*
X205671752Y97815112D02*
X205671752Y97669970D01*
X205671752Y97669970D02*
X205744323Y97524827D01*
X205744323Y97524827D02*
X205816895Y97452255D01*
X205816895Y97452255D02*
X205962037Y97379684D01*
X205962037Y97379684D02*
X206470037Y97379684D01*
X205091180Y97597398D02*
X204728323Y96581398D01*
X204365466Y97597398D02*
X204728323Y96581398D01*
X204728323Y96581398D02*
X204873466Y96218541D01*
X204873466Y96218541D02*
X204946037Y96145970D01*
X204946037Y96145970D02*
X205091180Y96073398D01*
X201898037Y96581398D02*
X202623751Y96581398D01*
X202623751Y96581398D02*
X202623751Y98105398D01*
X200736895Y97597398D02*
X200736895Y96581398D01*
X201390037Y97597398D02*
X201390037Y96799112D01*
X201390037Y96799112D02*
X201317466Y96653970D01*
X201317466Y96653970D02*
X201172323Y96581398D01*
X201172323Y96581398D02*
X200954609Y96581398D01*
X200954609Y96581398D02*
X200809466Y96653970D01*
X200809466Y96653970D02*
X200736895Y96726541D01*
X199358038Y96653970D02*
X199503180Y96581398D01*
X199503180Y96581398D02*
X199793466Y96581398D01*
X199793466Y96581398D02*
X199938609Y96653970D01*
X199938609Y96653970D02*
X200011180Y96726541D01*
X200011180Y96726541D02*
X200083752Y96871684D01*
X200083752Y96871684D02*
X200083752Y97307112D01*
X200083752Y97307112D02*
X200011180Y97452255D01*
X200011180Y97452255D02*
X199938609Y97524827D01*
X199938609Y97524827D02*
X199793466Y97597398D01*
X199793466Y97597398D02*
X199503180Y97597398D01*
X199503180Y97597398D02*
X199358038Y97524827D01*
X198051752Y96581398D02*
X198051752Y97379684D01*
X198051752Y97379684D02*
X198124323Y97524827D01*
X198124323Y97524827D02*
X198269466Y97597398D01*
X198269466Y97597398D02*
X198559752Y97597398D01*
X198559752Y97597398D02*
X198704894Y97524827D01*
X198051752Y96653970D02*
X198196894Y96581398D01*
X198196894Y96581398D02*
X198559752Y96581398D01*
X198559752Y96581398D02*
X198704894Y96653970D01*
X198704894Y96653970D02*
X198777466Y96799112D01*
X198777466Y96799112D02*
X198777466Y96944255D01*
X198777466Y96944255D02*
X198704894Y97089398D01*
X198704894Y97089398D02*
X198559752Y97161970D01*
X198559752Y97161970D02*
X198196894Y97161970D01*
X198196894Y97161970D02*
X198051752Y97234541D01*
X195656894Y97379684D02*
X195439180Y97307112D01*
X195439180Y97307112D02*
X195366609Y97234541D01*
X195366609Y97234541D02*
X195294037Y97089398D01*
X195294037Y97089398D02*
X195294037Y96871684D01*
X195294037Y96871684D02*
X195366609Y96726541D01*
X195366609Y96726541D02*
X195439180Y96653970D01*
X195439180Y96653970D02*
X195584323Y96581398D01*
X195584323Y96581398D02*
X196164894Y96581398D01*
X196164894Y96581398D02*
X196164894Y98105398D01*
X196164894Y98105398D02*
X195656894Y98105398D01*
X195656894Y98105398D02*
X195511752Y98032827D01*
X195511752Y98032827D02*
X195439180Y97960255D01*
X195439180Y97960255D02*
X195366609Y97815112D01*
X195366609Y97815112D02*
X195366609Y97669970D01*
X195366609Y97669970D02*
X195439180Y97524827D01*
X195439180Y97524827D02*
X195511752Y97452255D01*
X195511752Y97452255D02*
X195656894Y97379684D01*
X195656894Y97379684D02*
X196164894Y97379684D01*
X194640894Y96581398D02*
X194640894Y97597398D01*
X194640894Y97307112D02*
X194568323Y97452255D01*
X194568323Y97452255D02*
X194495752Y97524827D01*
X194495752Y97524827D02*
X194350609Y97597398D01*
X194350609Y97597398D02*
X194205466Y97597398D01*
X193116894Y96653970D02*
X193262037Y96581398D01*
X193262037Y96581398D02*
X193552323Y96581398D01*
X193552323Y96581398D02*
X193697465Y96653970D01*
X193697465Y96653970D02*
X193770037Y96799112D01*
X193770037Y96799112D02*
X193770037Y97379684D01*
X193770037Y97379684D02*
X193697465Y97524827D01*
X193697465Y97524827D02*
X193552323Y97597398D01*
X193552323Y97597398D02*
X193262037Y97597398D01*
X193262037Y97597398D02*
X193116894Y97524827D01*
X193116894Y97524827D02*
X193044323Y97379684D01*
X193044323Y97379684D02*
X193044323Y97234541D01*
X193044323Y97234541D02*
X193770037Y97089398D01*
X192463751Y96653970D02*
X192318608Y96581398D01*
X192318608Y96581398D02*
X192028322Y96581398D01*
X192028322Y96581398D02*
X191883179Y96653970D01*
X191883179Y96653970D02*
X191810608Y96799112D01*
X191810608Y96799112D02*
X191810608Y96871684D01*
X191810608Y96871684D02*
X191883179Y97016827D01*
X191883179Y97016827D02*
X192028322Y97089398D01*
X192028322Y97089398D02*
X192246037Y97089398D01*
X192246037Y97089398D02*
X192391179Y97161970D01*
X192391179Y97161970D02*
X192463751Y97307112D01*
X192463751Y97307112D02*
X192463751Y97379684D01*
X192463751Y97379684D02*
X192391179Y97524827D01*
X192391179Y97524827D02*
X192246037Y97597398D01*
X192246037Y97597398D02*
X192028322Y97597398D01*
X192028322Y97597398D02*
X191883179Y97524827D01*
X190504323Y96653970D02*
X190649465Y96581398D01*
X190649465Y96581398D02*
X190939751Y96581398D01*
X190939751Y96581398D02*
X191084894Y96653970D01*
X191084894Y96653970D02*
X191157465Y96726541D01*
X191157465Y96726541D02*
X191230037Y96871684D01*
X191230037Y96871684D02*
X191230037Y97307112D01*
X191230037Y97307112D02*
X191157465Y97452255D01*
X191157465Y97452255D02*
X191084894Y97524827D01*
X191084894Y97524827D02*
X190939751Y97597398D01*
X190939751Y97597398D02*
X190649465Y97597398D01*
X190649465Y97597398D02*
X190504323Y97524827D01*
X189851179Y96581398D02*
X189851179Y98105398D01*
X189198037Y96581398D02*
X189198037Y97379684D01*
X189198037Y97379684D02*
X189270608Y97524827D01*
X189270608Y97524827D02*
X189415751Y97597398D01*
X189415751Y97597398D02*
X189633465Y97597398D01*
X189633465Y97597398D02*
X189778608Y97524827D01*
X189778608Y97524827D02*
X189851179Y97452255D01*
X187020894Y98105398D02*
X186875751Y98105398D01*
X186875751Y98105398D02*
X186730608Y98032827D01*
X186730608Y98032827D02*
X186658037Y97960255D01*
X186658037Y97960255D02*
X186585465Y97815112D01*
X186585465Y97815112D02*
X186512894Y97524827D01*
X186512894Y97524827D02*
X186512894Y97161970D01*
X186512894Y97161970D02*
X186585465Y96871684D01*
X186585465Y96871684D02*
X186658037Y96726541D01*
X186658037Y96726541D02*
X186730608Y96653970D01*
X186730608Y96653970D02*
X186875751Y96581398D01*
X186875751Y96581398D02*
X187020894Y96581398D01*
X187020894Y96581398D02*
X187166037Y96653970D01*
X187166037Y96653970D02*
X187238608Y96726541D01*
X187238608Y96726541D02*
X187311179Y96871684D01*
X187311179Y96871684D02*
X187383751Y97161970D01*
X187383751Y97161970D02*
X187383751Y97524827D01*
X187383751Y97524827D02*
X187311179Y97815112D01*
X187311179Y97815112D02*
X187238608Y97960255D01*
X187238608Y97960255D02*
X187166037Y98032827D01*
X187166037Y98032827D02*
X187020894Y98105398D01*
X186004893Y98105398D02*
X185061465Y98105398D01*
X185061465Y98105398D02*
X185569465Y97524827D01*
X185569465Y97524827D02*
X185351750Y97524827D01*
X185351750Y97524827D02*
X185206608Y97452255D01*
X185206608Y97452255D02*
X185134036Y97379684D01*
X185134036Y97379684D02*
X185061465Y97234541D01*
X185061465Y97234541D02*
X185061465Y96871684D01*
X185061465Y96871684D02*
X185134036Y96726541D01*
X185134036Y96726541D02*
X185206608Y96653970D01*
X185206608Y96653970D02*
X185351750Y96581398D01*
X185351750Y96581398D02*
X185787179Y96581398D01*
X185787179Y96581398D02*
X185932322Y96653970D01*
X185932322Y96653970D02*
X186004893Y96726541D01*
X184408321Y96726541D02*
X184335750Y96653970D01*
X184335750Y96653970D02*
X184408321Y96581398D01*
X184408321Y96581398D02*
X184480893Y96653970D01*
X184480893Y96653970D02*
X184408321Y96726541D01*
X184408321Y96726541D02*
X184408321Y96581398D01*
X182884322Y96581398D02*
X183755179Y96581398D01*
X183319750Y96581398D02*
X183319750Y98105398D01*
X183319750Y98105398D02*
X183464893Y97887684D01*
X183464893Y97887684D02*
X183610036Y97742541D01*
X183610036Y97742541D02*
X183755179Y97669970D01*
X182303750Y97960255D02*
X182231178Y98032827D01*
X182231178Y98032827D02*
X182086036Y98105398D01*
X182086036Y98105398D02*
X181723178Y98105398D01*
X181723178Y98105398D02*
X181578036Y98032827D01*
X181578036Y98032827D02*
X181505464Y97960255D01*
X181505464Y97960255D02*
X181432893Y97815112D01*
X181432893Y97815112D02*
X181432893Y97669970D01*
X181432893Y97669970D02*
X181505464Y97452255D01*
X181505464Y97452255D02*
X182376321Y96581398D01*
X182376321Y96581398D02*
X181432893Y96581398D01*
X180779749Y96726541D02*
X180707178Y96653970D01*
X180707178Y96653970D02*
X180779749Y96581398D01*
X180779749Y96581398D02*
X180852321Y96653970D01*
X180852321Y96653970D02*
X180779749Y96726541D01*
X180779749Y96726541D02*
X180779749Y96581398D01*
X180126607Y97960255D02*
X180054035Y98032827D01*
X180054035Y98032827D02*
X179908893Y98105398D01*
X179908893Y98105398D02*
X179546035Y98105398D01*
X179546035Y98105398D02*
X179400893Y98032827D01*
X179400893Y98032827D02*
X179328321Y97960255D01*
X179328321Y97960255D02*
X179255750Y97815112D01*
X179255750Y97815112D02*
X179255750Y97669970D01*
X179255750Y97669970D02*
X179328321Y97452255D01*
X179328321Y97452255D02*
X180199178Y96581398D01*
X180199178Y96581398D02*
X179255750Y96581398D01*
X178312321Y98105398D02*
X178167178Y98105398D01*
X178167178Y98105398D02*
X178022035Y98032827D01*
X178022035Y98032827D02*
X177949464Y97960255D01*
X177949464Y97960255D02*
X177876892Y97815112D01*
X177876892Y97815112D02*
X177804321Y97524827D01*
X177804321Y97524827D02*
X177804321Y97161970D01*
X177804321Y97161970D02*
X177876892Y96871684D01*
X177876892Y96871684D02*
X177949464Y96726541D01*
X177949464Y96726541D02*
X178022035Y96653970D01*
X178022035Y96653970D02*
X178167178Y96581398D01*
X178167178Y96581398D02*
X178312321Y96581398D01*
X178312321Y96581398D02*
X178457464Y96653970D01*
X178457464Y96653970D02*
X178530035Y96726541D01*
X178530035Y96726541D02*
X178602606Y96871684D01*
X178602606Y96871684D02*
X178675178Y97161970D01*
X178675178Y97161970D02*
X178675178Y97524827D01*
X178675178Y97524827D02*
X178602606Y97815112D01*
X178602606Y97815112D02*
X178530035Y97960255D01*
X178530035Y97960255D02*
X178457464Y98032827D01*
X178457464Y98032827D02*
X178312321Y98105398D01*
X177223749Y97960255D02*
X177151177Y98032827D01*
X177151177Y98032827D02*
X177006035Y98105398D01*
X177006035Y98105398D02*
X176643177Y98105398D01*
X176643177Y98105398D02*
X176498035Y98032827D01*
X176498035Y98032827D02*
X176425463Y97960255D01*
X176425463Y97960255D02*
X176352892Y97815112D01*
X176352892Y97815112D02*
X176352892Y97669970D01*
X176352892Y97669970D02*
X176425463Y97452255D01*
X176425463Y97452255D02*
X177296320Y96581398D01*
X177296320Y96581398D02*
X176352892Y96581398D01*
X174974034Y98105398D02*
X175699748Y98105398D01*
X175699748Y98105398D02*
X175772320Y97379684D01*
X175772320Y97379684D02*
X175699748Y97452255D01*
X175699748Y97452255D02*
X175554606Y97524827D01*
X175554606Y97524827D02*
X175191748Y97524827D01*
X175191748Y97524827D02*
X175046606Y97452255D01*
X175046606Y97452255D02*
X174974034Y97379684D01*
X174974034Y97379684D02*
X174901463Y97234541D01*
X174901463Y97234541D02*
X174901463Y96871684D01*
X174901463Y96871684D02*
X174974034Y96726541D01*
X174974034Y96726541D02*
X175046606Y96653970D01*
X175046606Y96653970D02*
X175191748Y96581398D01*
X175191748Y96581398D02*
X175554606Y96581398D01*
X175554606Y96581398D02*
X175699748Y96653970D01*
X175699748Y96653970D02*
X175772320Y96726541D01*
X19568284Y92856462D02*
X19350570Y92783890D01*
X19350570Y92783890D02*
X19277999Y92711319D01*
X19277999Y92711319D02*
X19205427Y92566176D01*
X19205427Y92566176D02*
X19205427Y92348462D01*
X19205427Y92348462D02*
X19277999Y92203319D01*
X19277999Y92203319D02*
X19350570Y92130748D01*
X19350570Y92130748D02*
X19495713Y92058176D01*
X19495713Y92058176D02*
X20076284Y92058176D01*
X20076284Y92058176D02*
X20076284Y93582176D01*
X20076284Y93582176D02*
X19568284Y93582176D01*
X19568284Y93582176D02*
X19423142Y93509605D01*
X19423142Y93509605D02*
X19350570Y93437033D01*
X19350570Y93437033D02*
X19277999Y93291890D01*
X19277999Y93291890D02*
X19277999Y93146748D01*
X19277999Y93146748D02*
X19350570Y93001605D01*
X19350570Y93001605D02*
X19423142Y92929033D01*
X19423142Y92929033D02*
X19568284Y92856462D01*
X19568284Y92856462D02*
X20076284Y92856462D01*
X18261999Y93582176D02*
X17971713Y93582176D01*
X17971713Y93582176D02*
X17826570Y93509605D01*
X17826570Y93509605D02*
X17681427Y93364462D01*
X17681427Y93364462D02*
X17608856Y93074176D01*
X17608856Y93074176D02*
X17608856Y92566176D01*
X17608856Y92566176D02*
X17681427Y92275890D01*
X17681427Y92275890D02*
X17826570Y92130748D01*
X17826570Y92130748D02*
X17971713Y92058176D01*
X17971713Y92058176D02*
X18261999Y92058176D01*
X18261999Y92058176D02*
X18407142Y92130748D01*
X18407142Y92130748D02*
X18552284Y92275890D01*
X18552284Y92275890D02*
X18624856Y92566176D01*
X18624856Y92566176D02*
X18624856Y93074176D01*
X18624856Y93074176D02*
X18552284Y93364462D01*
X18552284Y93364462D02*
X18407142Y93509605D01*
X18407142Y93509605D02*
X18261999Y93582176D01*
X16665428Y93582176D02*
X16375142Y93582176D01*
X16375142Y93582176D02*
X16229999Y93509605D01*
X16229999Y93509605D02*
X16084856Y93364462D01*
X16084856Y93364462D02*
X16012285Y93074176D01*
X16012285Y93074176D02*
X16012285Y92566176D01*
X16012285Y92566176D02*
X16084856Y92275890D01*
X16084856Y92275890D02*
X16229999Y92130748D01*
X16229999Y92130748D02*
X16375142Y92058176D01*
X16375142Y92058176D02*
X16665428Y92058176D01*
X16665428Y92058176D02*
X16810571Y92130748D01*
X16810571Y92130748D02*
X16955713Y92275890D01*
X16955713Y92275890D02*
X17028285Y92566176D01*
X17028285Y92566176D02*
X17028285Y93074176D01*
X17028285Y93074176D02*
X16955713Y93364462D01*
X16955713Y93364462D02*
X16810571Y93509605D01*
X16810571Y93509605D02*
X16665428Y93582176D01*
X15576857Y93582176D02*
X14706000Y93582176D01*
X15141428Y92058176D02*
X15141428Y93582176D01*
X23777428Y36243605D02*
X23051714Y36243605D01*
X23922571Y35808176D02*
X23414571Y37332176D01*
X23414571Y37332176D02*
X22906571Y35808176D01*
X22398570Y35808176D02*
X22398570Y37332176D01*
X22398570Y37332176D02*
X22035713Y37332176D01*
X22035713Y37332176D02*
X21817999Y37259605D01*
X21817999Y37259605D02*
X21672856Y37114462D01*
X21672856Y37114462D02*
X21600285Y36969319D01*
X21600285Y36969319D02*
X21527713Y36679033D01*
X21527713Y36679033D02*
X21527713Y36461319D01*
X21527713Y36461319D02*
X21600285Y36171033D01*
X21600285Y36171033D02*
X21672856Y36025890D01*
X21672856Y36025890D02*
X21817999Y35880748D01*
X21817999Y35880748D02*
X22035713Y35808176D01*
X22035713Y35808176D02*
X22398570Y35808176D01*
X20003713Y35953319D02*
X20076285Y35880748D01*
X20076285Y35880748D02*
X20293999Y35808176D01*
X20293999Y35808176D02*
X20439142Y35808176D01*
X20439142Y35808176D02*
X20656856Y35880748D01*
X20656856Y35880748D02*
X20801999Y36025890D01*
X20801999Y36025890D02*
X20874570Y36171033D01*
X20874570Y36171033D02*
X20947142Y36461319D01*
X20947142Y36461319D02*
X20947142Y36679033D01*
X20947142Y36679033D02*
X20874570Y36969319D01*
X20874570Y36969319D02*
X20801999Y37114462D01*
X20801999Y37114462D02*
X20656856Y37259605D01*
X20656856Y37259605D02*
X20439142Y37332176D01*
X20439142Y37332176D02*
X20293999Y37332176D01*
X20293999Y37332176D02*
X20076285Y37259605D01*
X20076285Y37259605D02*
X20003713Y37187033D01*
X19350570Y36388748D02*
X18189428Y36388748D01*
X16592856Y35808176D02*
X17100856Y36533890D01*
X17463713Y35808176D02*
X17463713Y37332176D01*
X17463713Y37332176D02*
X16883142Y37332176D01*
X16883142Y37332176D02*
X16737999Y37259605D01*
X16737999Y37259605D02*
X16665428Y37187033D01*
X16665428Y37187033D02*
X16592856Y37041890D01*
X16592856Y37041890D02*
X16592856Y36824176D01*
X16592856Y36824176D02*
X16665428Y36679033D01*
X16665428Y36679033D02*
X16737999Y36606462D01*
X16737999Y36606462D02*
X16883142Y36533890D01*
X16883142Y36533890D02*
X17463713Y36533890D01*
X15939713Y36606462D02*
X15431713Y36606462D01*
X15213999Y35808176D02*
X15939713Y35808176D01*
X15939713Y35808176D02*
X15939713Y37332176D01*
X15939713Y37332176D02*
X15213999Y37332176D01*
X14633428Y35880748D02*
X14415714Y35808176D01*
X14415714Y35808176D02*
X14052856Y35808176D01*
X14052856Y35808176D02*
X13907714Y35880748D01*
X13907714Y35880748D02*
X13835142Y35953319D01*
X13835142Y35953319D02*
X13762571Y36098462D01*
X13762571Y36098462D02*
X13762571Y36243605D01*
X13762571Y36243605D02*
X13835142Y36388748D01*
X13835142Y36388748D02*
X13907714Y36461319D01*
X13907714Y36461319D02*
X14052856Y36533890D01*
X14052856Y36533890D02*
X14343142Y36606462D01*
X14343142Y36606462D02*
X14488285Y36679033D01*
X14488285Y36679033D02*
X14560856Y36751605D01*
X14560856Y36751605D02*
X14633428Y36896748D01*
X14633428Y36896748D02*
X14633428Y37041890D01*
X14633428Y37041890D02*
X14560856Y37187033D01*
X14560856Y37187033D02*
X14488285Y37259605D01*
X14488285Y37259605D02*
X14343142Y37332176D01*
X14343142Y37332176D02*
X13980285Y37332176D01*
X13980285Y37332176D02*
X13762571Y37259605D01*
X13109427Y36606462D02*
X12601427Y36606462D01*
X12383713Y35808176D02*
X13109427Y35808176D01*
X13109427Y35808176D02*
X13109427Y37332176D01*
X13109427Y37332176D02*
X12383713Y37332176D01*
X11948285Y37332176D02*
X11077428Y37332176D01*
X11512856Y35808176D02*
X11512856Y37332176D01*
D11*
X11119047Y72398513D02*
X11452380Y72874704D01*
X11690475Y72398513D02*
X11690475Y73398513D01*
X11690475Y73398513D02*
X11309523Y73398513D01*
X11309523Y73398513D02*
X11214285Y73350894D01*
X11214285Y73350894D02*
X11166666Y73303275D01*
X11166666Y73303275D02*
X11119047Y73208037D01*
X11119047Y73208037D02*
X11119047Y73065180D01*
X11119047Y73065180D02*
X11166666Y72969942D01*
X11166666Y72969942D02*
X11214285Y72922323D01*
X11214285Y72922323D02*
X11309523Y72874704D01*
X11309523Y72874704D02*
X11690475Y72874704D01*
X10261904Y73398513D02*
X10452380Y73398513D01*
X10452380Y73398513D02*
X10547618Y73350894D01*
X10547618Y73350894D02*
X10595237Y73303275D01*
X10595237Y73303275D02*
X10690475Y73160418D01*
X10690475Y73160418D02*
X10738094Y72969942D01*
X10738094Y72969942D02*
X10738094Y72588990D01*
X10738094Y72588990D02*
X10690475Y72493752D01*
X10690475Y72493752D02*
X10642856Y72446133D01*
X10642856Y72446133D02*
X10547618Y72398513D01*
X10547618Y72398513D02*
X10357142Y72398513D01*
X10357142Y72398513D02*
X10261904Y72446133D01*
X10261904Y72446133D02*
X10214285Y72493752D01*
X10214285Y72493752D02*
X10166666Y72588990D01*
X10166666Y72588990D02*
X10166666Y72827085D01*
X10166666Y72827085D02*
X10214285Y72922323D01*
X10214285Y72922323D02*
X10261904Y72969942D01*
X10261904Y72969942D02*
X10357142Y73017561D01*
X10357142Y73017561D02*
X10547618Y73017561D01*
X10547618Y73017561D02*
X10642856Y72969942D01*
X10642856Y72969942D02*
X10690475Y72922323D01*
X10690475Y72922323D02*
X10738094Y72827085D01*
X9547618Y73398513D02*
X9452380Y73398513D01*
X9452380Y73398513D02*
X9357142Y73350894D01*
X9357142Y73350894D02*
X9309523Y73303275D01*
X9309523Y73303275D02*
X9261904Y73208037D01*
X9261904Y73208037D02*
X9214285Y73017561D01*
X9214285Y73017561D02*
X9214285Y72779466D01*
X9214285Y72779466D02*
X9261904Y72588990D01*
X9261904Y72588990D02*
X9309523Y72493752D01*
X9309523Y72493752D02*
X9357142Y72446133D01*
X9357142Y72446133D02*
X9452380Y72398513D01*
X9452380Y72398513D02*
X9547618Y72398513D01*
X9547618Y72398513D02*
X9642856Y72446133D01*
X9642856Y72446133D02*
X9690475Y72493752D01*
X9690475Y72493752D02*
X9738094Y72588990D01*
X9738094Y72588990D02*
X9785713Y72779466D01*
X9785713Y72779466D02*
X9785713Y73017561D01*
X9785713Y73017561D02*
X9738094Y73208037D01*
X9738094Y73208037D02*
X9690475Y73303275D01*
X9690475Y73303275D02*
X9642856Y73350894D01*
X9642856Y73350894D02*
X9547618Y73398513D01*
X8261904Y72398513D02*
X8833332Y72398513D01*
X8547618Y72398513D02*
X8547618Y73398513D01*
X8547618Y73398513D02*
X8642856Y73255656D01*
X8642856Y73255656D02*
X8738094Y73160418D01*
X8738094Y73160418D02*
X8833332Y73112799D01*
X29666666Y55195180D02*
X29666666Y56195180D01*
X29666666Y56195180D02*
X29428571Y56195180D01*
X29428571Y56195180D02*
X29285714Y56147561D01*
X29285714Y56147561D02*
X29190476Y56052323D01*
X29190476Y56052323D02*
X29142857Y55957085D01*
X29142857Y55957085D02*
X29095238Y55766609D01*
X29095238Y55766609D02*
X29095238Y55623752D01*
X29095238Y55623752D02*
X29142857Y55433276D01*
X29142857Y55433276D02*
X29190476Y55338038D01*
X29190476Y55338038D02*
X29285714Y55242800D01*
X29285714Y55242800D02*
X29428571Y55195180D01*
X29428571Y55195180D02*
X29666666Y55195180D01*
X28142857Y55195180D02*
X28714285Y55195180D01*
X28428571Y55195180D02*
X28428571Y56195180D01*
X28428571Y56195180D02*
X28523809Y56052323D01*
X28523809Y56052323D02*
X28619047Y55957085D01*
X28619047Y55957085D02*
X28714285Y55909466D01*
X27190476Y55195180D02*
X27761904Y55195180D01*
X27476190Y55195180D02*
X27476190Y56195180D01*
X27476190Y56195180D02*
X27571428Y56052323D01*
X27571428Y56052323D02*
X27666666Y55957085D01*
X27666666Y55957085D02*
X27761904Y55909466D01*
X26571428Y56195180D02*
X26476190Y56195180D01*
X26476190Y56195180D02*
X26380952Y56147561D01*
X26380952Y56147561D02*
X26333333Y56099942D01*
X26333333Y56099942D02*
X26285714Y56004704D01*
X26285714Y56004704D02*
X26238095Y55814228D01*
X26238095Y55814228D02*
X26238095Y55576133D01*
X26238095Y55576133D02*
X26285714Y55385657D01*
X26285714Y55385657D02*
X26333333Y55290419D01*
X26333333Y55290419D02*
X26380952Y55242800D01*
X26380952Y55242800D02*
X26476190Y55195180D01*
X26476190Y55195180D02*
X26571428Y55195180D01*
X26571428Y55195180D02*
X26666666Y55242800D01*
X26666666Y55242800D02*
X26714285Y55290419D01*
X26714285Y55290419D02*
X26761904Y55385657D01*
X26761904Y55385657D02*
X26809523Y55576133D01*
X26809523Y55576133D02*
X26809523Y55814228D01*
X26809523Y55814228D02*
X26761904Y56004704D01*
X26761904Y56004704D02*
X26714285Y56099942D01*
X26714285Y56099942D02*
X26666666Y56147561D01*
X26666666Y56147561D02*
X26571428Y56195180D01*
X25857142Y56099942D02*
X25809523Y56147561D01*
X25809523Y56147561D02*
X25714285Y56195180D01*
X25714285Y56195180D02*
X25476190Y56195180D01*
X25476190Y56195180D02*
X25380952Y56147561D01*
X25380952Y56147561D02*
X25333333Y56099942D01*
X25333333Y56099942D02*
X25285714Y56004704D01*
X25285714Y56004704D02*
X25285714Y55909466D01*
X25285714Y55909466D02*
X25333333Y55766609D01*
X25333333Y55766609D02*
X25904761Y55195180D01*
X25904761Y55195180D02*
X25285714Y55195180D01*
X29666666Y47995180D02*
X29666666Y48995180D01*
X29666666Y48995180D02*
X29428571Y48995180D01*
X29428571Y48995180D02*
X29285714Y48947561D01*
X29285714Y48947561D02*
X29190476Y48852323D01*
X29190476Y48852323D02*
X29142857Y48757085D01*
X29142857Y48757085D02*
X29095238Y48566609D01*
X29095238Y48566609D02*
X29095238Y48423752D01*
X29095238Y48423752D02*
X29142857Y48233276D01*
X29142857Y48233276D02*
X29190476Y48138038D01*
X29190476Y48138038D02*
X29285714Y48042800D01*
X29285714Y48042800D02*
X29428571Y47995180D01*
X29428571Y47995180D02*
X29666666Y47995180D01*
X28142857Y47995180D02*
X28714285Y47995180D01*
X28428571Y47995180D02*
X28428571Y48995180D01*
X28428571Y48995180D02*
X28523809Y48852323D01*
X28523809Y48852323D02*
X28619047Y48757085D01*
X28619047Y48757085D02*
X28714285Y48709466D01*
X27190476Y47995180D02*
X27761904Y47995180D01*
X27476190Y47995180D02*
X27476190Y48995180D01*
X27476190Y48995180D02*
X27571428Y48852323D01*
X27571428Y48852323D02*
X27666666Y48757085D01*
X27666666Y48757085D02*
X27761904Y48709466D01*
X26571428Y48995180D02*
X26476190Y48995180D01*
X26476190Y48995180D02*
X26380952Y48947561D01*
X26380952Y48947561D02*
X26333333Y48899942D01*
X26333333Y48899942D02*
X26285714Y48804704D01*
X26285714Y48804704D02*
X26238095Y48614228D01*
X26238095Y48614228D02*
X26238095Y48376133D01*
X26238095Y48376133D02*
X26285714Y48185657D01*
X26285714Y48185657D02*
X26333333Y48090419D01*
X26333333Y48090419D02*
X26380952Y48042800D01*
X26380952Y48042800D02*
X26476190Y47995180D01*
X26476190Y47995180D02*
X26571428Y47995180D01*
X26571428Y47995180D02*
X26666666Y48042800D01*
X26666666Y48042800D02*
X26714285Y48090419D01*
X26714285Y48090419D02*
X26761904Y48185657D01*
X26761904Y48185657D02*
X26809523Y48376133D01*
X26809523Y48376133D02*
X26809523Y48614228D01*
X26809523Y48614228D02*
X26761904Y48804704D01*
X26761904Y48804704D02*
X26714285Y48899942D01*
X26714285Y48899942D02*
X26666666Y48947561D01*
X26666666Y48947561D02*
X26571428Y48995180D01*
X25380952Y48661847D02*
X25380952Y47995180D01*
X25619047Y49042800D02*
X25857142Y48328514D01*
X25857142Y48328514D02*
X25238095Y48328514D01*
X83261904Y62547180D02*
X82690476Y62547180D01*
X82976190Y61547180D02*
X82976190Y62547180D01*
X82357142Y61547180D02*
X82357142Y62547180D01*
X82357142Y62547180D02*
X81976190Y62547180D01*
X81976190Y62547180D02*
X81880952Y62499561D01*
X81880952Y62499561D02*
X81833333Y62451942D01*
X81833333Y62451942D02*
X81785714Y62356704D01*
X81785714Y62356704D02*
X81785714Y62213847D01*
X81785714Y62213847D02*
X81833333Y62118609D01*
X81833333Y62118609D02*
X81880952Y62070990D01*
X81880952Y62070990D02*
X81976190Y62023371D01*
X81976190Y62023371D02*
X82357142Y62023371D01*
X80833333Y61547180D02*
X81404761Y61547180D01*
X81119047Y61547180D02*
X81119047Y62547180D01*
X81119047Y62547180D02*
X81214285Y62404323D01*
X81214285Y62404323D02*
X81309523Y62309085D01*
X81309523Y62309085D02*
X81404761Y62261466D01*
X88261904Y62547180D02*
X87690476Y62547180D01*
X87976190Y61547180D02*
X87976190Y62547180D01*
X87357142Y61547180D02*
X87357142Y62547180D01*
X87357142Y62547180D02*
X86976190Y62547180D01*
X86976190Y62547180D02*
X86880952Y62499561D01*
X86880952Y62499561D02*
X86833333Y62451942D01*
X86833333Y62451942D02*
X86785714Y62356704D01*
X86785714Y62356704D02*
X86785714Y62213847D01*
X86785714Y62213847D02*
X86833333Y62118609D01*
X86833333Y62118609D02*
X86880952Y62070990D01*
X86880952Y62070990D02*
X86976190Y62023371D01*
X86976190Y62023371D02*
X87357142Y62023371D01*
X86404761Y62451942D02*
X86357142Y62499561D01*
X86357142Y62499561D02*
X86261904Y62547180D01*
X86261904Y62547180D02*
X86023809Y62547180D01*
X86023809Y62547180D02*
X85928571Y62499561D01*
X85928571Y62499561D02*
X85880952Y62451942D01*
X85880952Y62451942D02*
X85833333Y62356704D01*
X85833333Y62356704D02*
X85833333Y62261466D01*
X85833333Y62261466D02*
X85880952Y62118609D01*
X85880952Y62118609D02*
X86452380Y61547180D01*
X86452380Y61547180D02*
X85833333Y61547180D01*
X93619047Y84070419D02*
X93666666Y84022800D01*
X93666666Y84022800D02*
X93809523Y83975180D01*
X93809523Y83975180D02*
X93904761Y83975180D01*
X93904761Y83975180D02*
X94047618Y84022800D01*
X94047618Y84022800D02*
X94142856Y84118038D01*
X94142856Y84118038D02*
X94190475Y84213276D01*
X94190475Y84213276D02*
X94238094Y84403752D01*
X94238094Y84403752D02*
X94238094Y84546609D01*
X94238094Y84546609D02*
X94190475Y84737085D01*
X94190475Y84737085D02*
X94142856Y84832323D01*
X94142856Y84832323D02*
X94047618Y84927561D01*
X94047618Y84927561D02*
X93904761Y84975180D01*
X93904761Y84975180D02*
X93809523Y84975180D01*
X93809523Y84975180D02*
X93666666Y84927561D01*
X93666666Y84927561D02*
X93619047Y84879942D01*
X92761904Y84975180D02*
X92952380Y84975180D01*
X92952380Y84975180D02*
X93047618Y84927561D01*
X93047618Y84927561D02*
X93095237Y84879942D01*
X93095237Y84879942D02*
X93190475Y84737085D01*
X93190475Y84737085D02*
X93238094Y84546609D01*
X93238094Y84546609D02*
X93238094Y84165657D01*
X93238094Y84165657D02*
X93190475Y84070419D01*
X93190475Y84070419D02*
X93142856Y84022800D01*
X93142856Y84022800D02*
X93047618Y83975180D01*
X93047618Y83975180D02*
X92857142Y83975180D01*
X92857142Y83975180D02*
X92761904Y84022800D01*
X92761904Y84022800D02*
X92714285Y84070419D01*
X92714285Y84070419D02*
X92666666Y84165657D01*
X92666666Y84165657D02*
X92666666Y84403752D01*
X92666666Y84403752D02*
X92714285Y84498990D01*
X92714285Y84498990D02*
X92761904Y84546609D01*
X92761904Y84546609D02*
X92857142Y84594228D01*
X92857142Y84594228D02*
X93047618Y84594228D01*
X93047618Y84594228D02*
X93142856Y84546609D01*
X93142856Y84546609D02*
X93190475Y84498990D01*
X93190475Y84498990D02*
X93238094Y84403752D01*
X92047618Y84975180D02*
X91952380Y84975180D01*
X91952380Y84975180D02*
X91857142Y84927561D01*
X91857142Y84927561D02*
X91809523Y84879942D01*
X91809523Y84879942D02*
X91761904Y84784704D01*
X91761904Y84784704D02*
X91714285Y84594228D01*
X91714285Y84594228D02*
X91714285Y84356133D01*
X91714285Y84356133D02*
X91761904Y84165657D01*
X91761904Y84165657D02*
X91809523Y84070419D01*
X91809523Y84070419D02*
X91857142Y84022800D01*
X91857142Y84022800D02*
X91952380Y83975180D01*
X91952380Y83975180D02*
X92047618Y83975180D01*
X92047618Y83975180D02*
X92142856Y84022800D01*
X92142856Y84022800D02*
X92190475Y84070419D01*
X92190475Y84070419D02*
X92238094Y84165657D01*
X92238094Y84165657D02*
X92285713Y84356133D01*
X92285713Y84356133D02*
X92285713Y84594228D01*
X92285713Y84594228D02*
X92238094Y84784704D01*
X92238094Y84784704D02*
X92190475Y84879942D01*
X92190475Y84879942D02*
X92142856Y84927561D01*
X92142856Y84927561D02*
X92047618Y84975180D01*
X90857142Y84641847D02*
X90857142Y83975180D01*
X91095237Y85022800D02*
X91333332Y84308514D01*
X91333332Y84308514D02*
X90714285Y84308514D01*
X29666666Y51345180D02*
X29666666Y52345180D01*
X29666666Y52345180D02*
X29428571Y52345180D01*
X29428571Y52345180D02*
X29285714Y52297561D01*
X29285714Y52297561D02*
X29190476Y52202323D01*
X29190476Y52202323D02*
X29142857Y52107085D01*
X29142857Y52107085D02*
X29095238Y51916609D01*
X29095238Y51916609D02*
X29095238Y51773752D01*
X29095238Y51773752D02*
X29142857Y51583276D01*
X29142857Y51583276D02*
X29190476Y51488038D01*
X29190476Y51488038D02*
X29285714Y51392800D01*
X29285714Y51392800D02*
X29428571Y51345180D01*
X29428571Y51345180D02*
X29666666Y51345180D01*
X28142857Y51345180D02*
X28714285Y51345180D01*
X28428571Y51345180D02*
X28428571Y52345180D01*
X28428571Y52345180D02*
X28523809Y52202323D01*
X28523809Y52202323D02*
X28619047Y52107085D01*
X28619047Y52107085D02*
X28714285Y52059466D01*
X27190476Y51345180D02*
X27761904Y51345180D01*
X27476190Y51345180D02*
X27476190Y52345180D01*
X27476190Y52345180D02*
X27571428Y52202323D01*
X27571428Y52202323D02*
X27666666Y52107085D01*
X27666666Y52107085D02*
X27761904Y52059466D01*
X26571428Y52345180D02*
X26476190Y52345180D01*
X26476190Y52345180D02*
X26380952Y52297561D01*
X26380952Y52297561D02*
X26333333Y52249942D01*
X26333333Y52249942D02*
X26285714Y52154704D01*
X26285714Y52154704D02*
X26238095Y51964228D01*
X26238095Y51964228D02*
X26238095Y51726133D01*
X26238095Y51726133D02*
X26285714Y51535657D01*
X26285714Y51535657D02*
X26333333Y51440419D01*
X26333333Y51440419D02*
X26380952Y51392800D01*
X26380952Y51392800D02*
X26476190Y51345180D01*
X26476190Y51345180D02*
X26571428Y51345180D01*
X26571428Y51345180D02*
X26666666Y51392800D01*
X26666666Y51392800D02*
X26714285Y51440419D01*
X26714285Y51440419D02*
X26761904Y51535657D01*
X26761904Y51535657D02*
X26809523Y51726133D01*
X26809523Y51726133D02*
X26809523Y51964228D01*
X26809523Y51964228D02*
X26761904Y52154704D01*
X26761904Y52154704D02*
X26714285Y52249942D01*
X26714285Y52249942D02*
X26666666Y52297561D01*
X26666666Y52297561D02*
X26571428Y52345180D01*
X25904761Y52345180D02*
X25285714Y52345180D01*
X25285714Y52345180D02*
X25619047Y51964228D01*
X25619047Y51964228D02*
X25476190Y51964228D01*
X25476190Y51964228D02*
X25380952Y51916609D01*
X25380952Y51916609D02*
X25333333Y51868990D01*
X25333333Y51868990D02*
X25285714Y51773752D01*
X25285714Y51773752D02*
X25285714Y51535657D01*
X25285714Y51535657D02*
X25333333Y51440419D01*
X25333333Y51440419D02*
X25380952Y51392800D01*
X25380952Y51392800D02*
X25476190Y51345180D01*
X25476190Y51345180D02*
X25761904Y51345180D01*
X25761904Y51345180D02*
X25857142Y51392800D01*
X25857142Y51392800D02*
X25904761Y51440419D01*
X29666666Y58545180D02*
X29666666Y59545180D01*
X29666666Y59545180D02*
X29428571Y59545180D01*
X29428571Y59545180D02*
X29285714Y59497561D01*
X29285714Y59497561D02*
X29190476Y59402323D01*
X29190476Y59402323D02*
X29142857Y59307085D01*
X29142857Y59307085D02*
X29095238Y59116609D01*
X29095238Y59116609D02*
X29095238Y58973752D01*
X29095238Y58973752D02*
X29142857Y58783276D01*
X29142857Y58783276D02*
X29190476Y58688038D01*
X29190476Y58688038D02*
X29285714Y58592800D01*
X29285714Y58592800D02*
X29428571Y58545180D01*
X29428571Y58545180D02*
X29666666Y58545180D01*
X28142857Y58545180D02*
X28714285Y58545180D01*
X28428571Y58545180D02*
X28428571Y59545180D01*
X28428571Y59545180D02*
X28523809Y59402323D01*
X28523809Y59402323D02*
X28619047Y59307085D01*
X28619047Y59307085D02*
X28714285Y59259466D01*
X27190476Y58545180D02*
X27761904Y58545180D01*
X27476190Y58545180D02*
X27476190Y59545180D01*
X27476190Y59545180D02*
X27571428Y59402323D01*
X27571428Y59402323D02*
X27666666Y59307085D01*
X27666666Y59307085D02*
X27761904Y59259466D01*
X26571428Y59545180D02*
X26476190Y59545180D01*
X26476190Y59545180D02*
X26380952Y59497561D01*
X26380952Y59497561D02*
X26333333Y59449942D01*
X26333333Y59449942D02*
X26285714Y59354704D01*
X26285714Y59354704D02*
X26238095Y59164228D01*
X26238095Y59164228D02*
X26238095Y58926133D01*
X26238095Y58926133D02*
X26285714Y58735657D01*
X26285714Y58735657D02*
X26333333Y58640419D01*
X26333333Y58640419D02*
X26380952Y58592800D01*
X26380952Y58592800D02*
X26476190Y58545180D01*
X26476190Y58545180D02*
X26571428Y58545180D01*
X26571428Y58545180D02*
X26666666Y58592800D01*
X26666666Y58592800D02*
X26714285Y58640419D01*
X26714285Y58640419D02*
X26761904Y58735657D01*
X26761904Y58735657D02*
X26809523Y58926133D01*
X26809523Y58926133D02*
X26809523Y59164228D01*
X26809523Y59164228D02*
X26761904Y59354704D01*
X26761904Y59354704D02*
X26714285Y59449942D01*
X26714285Y59449942D02*
X26666666Y59497561D01*
X26666666Y59497561D02*
X26571428Y59545180D01*
X25285714Y58545180D02*
X25857142Y58545180D01*
X25571428Y58545180D02*
X25571428Y59545180D01*
X25571428Y59545180D02*
X25666666Y59402323D01*
X25666666Y59402323D02*
X25761904Y59307085D01*
X25761904Y59307085D02*
X25857142Y59259466D01*
D12*
%TO.C,C1013*%
X108765000Y43261252D02*
X108765000Y42738748D01*
X110235000Y43261252D02*
X110235000Y42738748D01*
%TO.C,U523*%
X58327500Y26190000D02*
X62947500Y26190000D01*
X62947500Y32960000D02*
X58327500Y32960000D01*
X64827500Y32265000D02*
X64497500Y32505000D01*
X64827500Y32745000D01*
X64827500Y32265000D01*
G36*
X64827500Y32265000D02*
G01*
X64497500Y32505000D01*
X64827500Y32745000D01*
X64827500Y32265000D01*
G37*
%TO.C,R18*%
X43977500Y80262742D02*
X43977500Y80737258D01*
X45022500Y80262742D02*
X45022500Y80737258D01*
%TO.C,U111*%
X152290020Y65865000D02*
X156910020Y65865000D01*
X156910020Y72635000D02*
X152290020Y72635000D01*
X158790020Y71940000D02*
X158460020Y72180000D01*
X158790020Y72420000D01*
X158790020Y71940000D01*
G36*
X158790020Y71940000D02*
G01*
X158460020Y72180000D01*
X158790020Y72420000D01*
X158790020Y71940000D01*
G37*
%TO.C,C601*%
X138765000Y94761252D02*
X138765000Y94238748D01*
X140235000Y94761252D02*
X140235000Y94238748D01*
%TO.C,R603*%
X107737258Y95522500D02*
X107262742Y95522500D01*
X107737258Y94477500D02*
X107262742Y94477500D01*
%TO.C,R521*%
X81587742Y35022500D02*
X82062258Y35022500D01*
X81587742Y33977500D02*
X82062258Y33977500D01*
%TO.C,C904*%
X29240000Y98359420D02*
X29240000Y98640580D01*
X30260000Y98359420D02*
X30260000Y98640580D01*
%TO.C,R16*%
X94727500Y75487258D02*
X94727500Y75012742D01*
X95772500Y75487258D02*
X95772500Y75012742D01*
%TO.C,R8*%
X46227500Y87012742D02*
X46227500Y87487258D01*
X47272500Y87012742D02*
X47272500Y87487258D01*
%TO.C,S606*%
X12400000Y85566667D02*
X12400000Y84566667D01*
X12400000Y84566667D02*
X13400000Y84566667D01*
X14400000Y86566667D02*
X14400000Y89166667D01*
X20400000Y84616667D02*
X14600000Y84616667D01*
X20500000Y91116667D02*
X14500000Y91116667D01*
X20600000Y86566667D02*
X20600000Y89166667D01*
%TO.C,C1012*%
X117738748Y42735000D02*
X118261252Y42735000D01*
X117738748Y41265000D02*
X118261252Y41265000D01*
%TO.C,R1001*%
X125477500Y47737258D02*
X125477500Y47262742D01*
X126522500Y47737258D02*
X126522500Y47262742D01*
%TO.C,R1011*%
X105477500Y47737258D02*
X105477500Y47262742D01*
X106522500Y47737258D02*
X106522500Y47262742D01*
%TO.C,R002*%
X35977500Y80262742D02*
X35977500Y80737258D01*
X37022500Y80262742D02*
X37022500Y80737258D01*
%TO.C,C1016*%
X116265000Y57238748D02*
X116265000Y57761252D01*
X117735000Y57238748D02*
X117735000Y57761252D01*
%TO.C,R601*%
X9762742Y74805833D02*
X10237258Y74805833D01*
X9762742Y73760833D02*
X10237258Y73760833D01*
%TO.C,R17*%
X38227500Y80262742D02*
X38227500Y80737258D01*
X39272500Y80262742D02*
X39272500Y80737258D01*
%TO.C,U521*%
X74327500Y26190000D02*
X78947500Y26190000D01*
X78947500Y32960000D02*
X74327500Y32960000D01*
X80827500Y32265000D02*
X80497500Y32505000D01*
X80827500Y32745000D01*
X80827500Y32265000D01*
G36*
X80827500Y32265000D02*
G01*
X80497500Y32505000D01*
X80827500Y32745000D01*
X80827500Y32265000D01*
G37*
%TO.C,R523*%
X65512742Y35272500D02*
X65987258Y35272500D01*
X65512742Y34227500D02*
X65987258Y34227500D01*
D13*
%TO.C,J800*%
X24450000Y26450000D02*
X24450000Y77250000D01*
X28700000Y35150000D02*
X28700000Y68550000D01*
X29450000Y82250000D02*
X51550000Y82250000D01*
X33700000Y73550000D02*
X47300000Y73550000D01*
X47300000Y30150000D02*
X33700000Y30150000D01*
X51550000Y21450000D02*
X29450000Y21450000D01*
X52300000Y68550000D02*
X52300000Y35150000D01*
X56550000Y77250000D02*
X56550000Y26450000D01*
X24450000Y77250000D02*
G75*
G02*
X29450000Y82250000I5000000J0D01*
G01*
X28700000Y68550000D02*
G75*
G02*
X33700000Y73550000I5000000J0D01*
G01*
X29450000Y21450000D02*
G75*
G02*
X24450000Y26450000I0J5000000D01*
G01*
X33700000Y30150000D02*
G75*
G02*
X28700000Y35150000I0J5000000D01*
G01*
X47300000Y73550000D02*
G75*
G02*
X52300000Y68550000I0J-5000000D01*
G01*
X51550000Y82250000D02*
G75*
G02*
X56550000Y77250000I0J-5000000D01*
G01*
X52300000Y35150000D02*
G75*
G02*
X47300000Y30150000I-5000000J0D01*
G01*
X56550000Y26450000D02*
G75*
G02*
X51550000Y21450000I-5000000J0D01*
G01*
D14*
X36700000Y82961000D02*
G75*
G02*
X36300000Y82961000I-200000J0D01*
G01*
X36300000Y82961000D02*
G75*
G02*
X36700000Y82961000I200000J0D01*
G01*
D12*
%TO.C,H602*%
X151875000Y96460000D02*
X151875000Y95890000D01*
X151875000Y94270000D02*
X151875000Y93350000D01*
X151875000Y91730000D02*
X151875000Y90810000D01*
X151875000Y89190000D02*
X151875000Y88620000D01*
X157175000Y96460000D02*
X151875000Y96460000D01*
X157175000Y96460000D02*
X157175000Y95890000D01*
X157175000Y94270000D02*
X157175000Y93350000D01*
X157175000Y91730000D02*
X157175000Y90810000D01*
X157175000Y89190000D02*
X157175000Y88620000D01*
X157175000Y88620000D02*
X151875000Y88620000D01*
X158565000Y95890000D02*
X157175000Y95890000D01*
%TO.C,U513*%
X66327500Y46190000D02*
X70947500Y46190000D01*
X70947500Y52960000D02*
X66327500Y52960000D01*
X72827500Y52265000D02*
X72497500Y52505000D01*
X72827500Y52745000D01*
X72827500Y52265000D01*
G36*
X72827500Y52265000D02*
G01*
X72497500Y52505000D01*
X72827500Y52745000D01*
X72827500Y52265000D01*
G37*
%TO.C,C1002*%
X137738748Y39735000D02*
X138261252Y39735000D01*
X137738748Y38265000D02*
X138261252Y38265000D01*
%TO.C,R110*%
X162227500Y78662742D02*
X162227500Y79137258D01*
X163272500Y78662742D02*
X163272500Y79137258D01*
%TO.C,U1011*%
X112440000Y41410000D02*
X112440000Y39590000D01*
X112440000Y39590000D02*
X112490000Y39590000D01*
X112490000Y41410000D02*
X112440000Y41410000D01*
X115510000Y39590000D02*
X115560000Y39590000D01*
X115560000Y41410000D02*
X115510000Y41410000D01*
X115560000Y39590000D02*
X115560000Y41410000D01*
X112490000Y41950000D02*
X112160000Y41710000D01*
X112160000Y42190000D01*
X112490000Y41950000D01*
G36*
X112490000Y41950000D02*
G01*
X112160000Y41710000D01*
X112160000Y42190000D01*
X112490000Y41950000D01*
G37*
%TO.C,D1102*%
X29860000Y54650000D02*
X25850000Y54650000D01*
X29860000Y54650000D02*
X29860000Y52650000D01*
X29860000Y52650000D02*
X25850000Y52650000D01*
%TO.C,U511*%
X82552500Y46190000D02*
X87172500Y46190000D01*
X87172500Y52960000D02*
X82552500Y52960000D01*
X89052500Y52265000D02*
X88722500Y52505000D01*
X89052500Y52745000D01*
X89052500Y52265000D01*
G36*
X89052500Y52265000D02*
G01*
X88722500Y52505000D01*
X89052500Y52745000D01*
X89052500Y52265000D01*
G37*
%TO.C,U522*%
X66327500Y26190000D02*
X70947500Y26190000D01*
X70947500Y32960000D02*
X66327500Y32960000D01*
X72827500Y32265000D02*
X72497500Y32505000D01*
X72827500Y32745000D01*
X72827500Y32265000D01*
G36*
X72827500Y32265000D02*
G01*
X72497500Y32505000D01*
X72827500Y32745000D01*
X72827500Y32265000D01*
G37*
%TO.C,U3*%
X52990000Y90250000D02*
X73430000Y90250000D01*
X52990000Y89000000D02*
X52990000Y90250000D01*
X52990000Y85750000D02*
X52990000Y87000000D01*
X73430000Y90250000D02*
X73430000Y85750000D01*
X73430000Y85750000D02*
X52990000Y85750000D01*
X52990000Y89000000D02*
G75*
G02*
X52990000Y87000000I0J-1000000D01*
G01*
%TO.C,R514*%
X61987258Y55022500D02*
X61512742Y55022500D01*
X61987258Y53977500D02*
X61512742Y53977500D01*
%TO.C,D1104*%
X29860000Y47450000D02*
X25850000Y47450000D01*
X29860000Y47450000D02*
X29860000Y45450000D01*
X29860000Y45450000D02*
X25850000Y45450000D01*
%TO.C,U4*%
X53030000Y79250000D02*
X73470000Y79250000D01*
X53030000Y78000000D02*
X53030000Y79250000D01*
X53030000Y74750000D02*
X53030000Y76000000D01*
X73470000Y79250000D02*
X73470000Y74750000D01*
X73470000Y74750000D02*
X53030000Y74750000D01*
X53030000Y78000000D02*
G75*
G02*
X53030000Y76000000I0J-1000000D01*
G01*
%TO.C,R1002*%
X123477500Y47262742D02*
X123477500Y47737258D01*
X124522500Y47262742D02*
X124522500Y47737258D01*
%TO.C,U602*%
X98940000Y80910000D02*
X98940000Y79090000D01*
X98940000Y79090000D02*
X99940000Y79090000D01*
X98990000Y80910000D02*
X98940000Y80910000D01*
X100890000Y80910000D02*
X100110000Y80910000D01*
X101060000Y79090000D02*
X102060000Y79090000D01*
X102060000Y80910000D02*
X102010000Y80910000D01*
X102060000Y79090000D02*
X102060000Y80910000D01*
X100450000Y81210000D02*
X100120000Y81450000D01*
X100450000Y81690000D01*
X100450000Y81210000D01*
G36*
X100450000Y81210000D02*
G01*
X100120000Y81450000D01*
X100450000Y81690000D01*
X100450000Y81210000D01*
G37*
%TO.C,R602*%
X107737258Y94022500D02*
X107262742Y94022500D01*
X107737258Y92977500D02*
X107262742Y92977500D01*
%TO.C,R612*%
X145977500Y80762742D02*
X145977500Y81237258D01*
X147022500Y80762742D02*
X147022500Y81237258D01*
%TO.C,U900*%
X22203189Y66272856D02*
X22203189Y66177856D01*
X22203189Y61247856D02*
X22203189Y61152856D01*
X22203189Y61152856D02*
X26323189Y61152856D01*
X26323189Y66272856D02*
X22203189Y66272856D01*
X26323189Y66177856D02*
X26323189Y66272856D01*
X26323189Y61152856D02*
X26323189Y61247856D01*
X21903189Y60912856D02*
X21423189Y60912856D01*
X21663189Y61242856D01*
X21903189Y60912856D01*
G36*
X21903189Y60912856D02*
G01*
X21423189Y60912856D01*
X21663189Y61242856D01*
X21903189Y60912856D01*
G37*
%TO.C,TP1*%
X80800000Y65200000D02*
X80800000Y62800000D01*
X80800000Y62800000D02*
X83200000Y62800000D01*
X83200000Y65200000D02*
X80800000Y65200000D01*
X83200000Y62800000D02*
X83200000Y65200000D01*
%TO.C,R605*%
X99977500Y83762742D02*
X99977500Y84237258D01*
X101022500Y83762742D02*
X101022500Y84237258D01*
%TO.C,R522*%
X69987258Y35272500D02*
X69512742Y35272500D01*
X69987258Y34227500D02*
X69512742Y34227500D01*
%TO.C,S2*%
X12400000Y69733333D02*
X12400000Y68733333D01*
X12400000Y68733333D02*
X13400000Y68733333D01*
X14400000Y70733333D02*
X14400000Y73333333D01*
X20400000Y68783333D02*
X14600000Y68783333D01*
X20500000Y75283333D02*
X14500000Y75283333D01*
X20600000Y70733333D02*
X20600000Y73333333D01*
%TO.C,R510*%
X94737258Y55022500D02*
X94262742Y55022500D01*
X94737258Y53977500D02*
X94262742Y53977500D01*
%TO.C,L1011*%
X109800000Y49078488D02*
X109800000Y51578488D01*
X118200000Y51578488D02*
X118200000Y49078488D01*
%TO.C,U1*%
X78790000Y79760000D02*
X78790000Y74240000D01*
X78790000Y74240000D02*
X79315000Y74240000D01*
X79315000Y79760000D02*
X78790000Y79760000D01*
X88685000Y74240000D02*
X89210000Y74240000D01*
X89210000Y79760000D02*
X88685000Y79760000D01*
X89210000Y74240000D02*
X89210000Y79760000D01*
X79310000Y80500000D02*
X78840000Y80160000D01*
X78840000Y80840000D01*
X79310000Y80500000D01*
G36*
X79310000Y80500000D02*
G01*
X78840000Y80160000D01*
X78840000Y80840000D01*
X79310000Y80500000D01*
G37*
%TO.C,R101*%
X205937742Y57522500D02*
X206412258Y57522500D01*
X205937742Y56477500D02*
X206412258Y56477500D01*
%TO.C,C1014*%
X113265000Y57238748D02*
X113265000Y57761252D01*
X114735000Y57238748D02*
X114735000Y57761252D01*
%TO.C,R12*%
X93227500Y79062258D02*
X93227500Y78587742D01*
X94272500Y79062258D02*
X94272500Y78587742D01*
%TO.C,U512*%
X74327500Y46190000D02*
X78947500Y46190000D01*
X78947500Y52960000D02*
X74327500Y52960000D01*
X80827500Y52265000D02*
X80497500Y52505000D01*
X80827500Y52745000D01*
X80827500Y52265000D01*
G36*
X80827500Y52265000D02*
G01*
X80497500Y52505000D01*
X80827500Y52745000D01*
X80827500Y52265000D01*
G37*
%TO.C,U1001*%
X132440000Y41410000D02*
X132440000Y39590000D01*
X132440000Y39590000D02*
X132490000Y39590000D01*
X132490000Y41410000D02*
X132440000Y41410000D01*
X135510000Y39590000D02*
X135560000Y39590000D01*
X135560000Y41410000D02*
X135510000Y41410000D01*
X135560000Y39590000D02*
X135560000Y41410000D01*
X132490000Y41950000D02*
X132160000Y41710000D01*
X132160000Y42190000D01*
X132490000Y41950000D01*
G36*
X132490000Y41950000D02*
G01*
X132160000Y41710000D01*
X132160000Y42190000D01*
X132490000Y41950000D01*
G37*
%TO.C,C903*%
X29240000Y91390580D02*
X29240000Y91109420D01*
X30260000Y91390580D02*
X30260000Y91109420D01*
%TO.C,U902*%
X33140000Y97635000D02*
X33140000Y97390000D01*
X33140000Y86110000D02*
X33140000Y85865000D01*
X33140000Y85865000D02*
X40860000Y85865000D01*
X40860000Y97635000D02*
X33140000Y97635000D01*
X40860000Y97390000D02*
X40860000Y97635000D01*
X40860000Y85865000D02*
X40860000Y86110000D01*
X32690000Y85640000D02*
X32010000Y85640000D01*
X32350000Y86110000D01*
X32690000Y85640000D01*
G36*
X32690000Y85640000D02*
G01*
X32010000Y85640000D01*
X32350000Y86110000D01*
X32690000Y85640000D01*
G37*
%TO.C,C900*%
X26240000Y67859420D02*
X26240000Y68140580D01*
X27260000Y67859420D02*
X27260000Y68140580D01*
%TO.C,R11*%
X91727500Y79062258D02*
X91727500Y78587742D01*
X92772500Y79062258D02*
X92772500Y78587742D01*
%TO.C,R14*%
X91727500Y75487258D02*
X91727500Y75012742D01*
X92772500Y75487258D02*
X92772500Y75012742D01*
%TO.C,R515*%
X57012742Y55022500D02*
X57487258Y55022500D01*
X57012742Y53977500D02*
X57487258Y53977500D01*
%TO.C,U102*%
X186823350Y48840000D02*
X191443350Y48840000D01*
X191443350Y55610000D02*
X186823350Y55610000D01*
X193323350Y54915000D02*
X192993350Y55155000D01*
X193323350Y55395000D01*
X193323350Y54915000D01*
G36*
X193323350Y54915000D02*
G01*
X192993350Y55155000D01*
X193323350Y55395000D01*
X193323350Y54915000D01*
G37*
%TO.C,U601*%
X114940000Y77890000D02*
X114940000Y78840000D01*
X116340000Y77890000D02*
X114940000Y77890000D01*
X131940000Y77890000D02*
X133340000Y77890000D01*
X133340000Y77890000D02*
X133340000Y78840000D01*
X133840000Y96840000D02*
X133340000Y96840000D01*
X133340000Y97340000D01*
X133840000Y96840000D01*
G36*
X133840000Y96840000D02*
G01*
X133340000Y96840000D01*
X133340000Y97340000D01*
X133840000Y96840000D01*
G37*
%TO.C,R606*%
X103977500Y83762742D02*
X103977500Y84237258D01*
X105022500Y83762742D02*
X105022500Y84237258D01*
%TO.C,R13*%
X94727500Y79062258D02*
X94727500Y78587742D01*
X95772500Y79062258D02*
X95772500Y78587742D01*
%TO.C,R609*%
X135477500Y68762742D02*
X135477500Y69237258D01*
X136522500Y68762742D02*
X136522500Y69237258D01*
%TO.C,U520*%
X82552500Y26190000D02*
X87172500Y26190000D01*
X87172500Y32960000D02*
X82552500Y32960000D01*
X89052500Y32265000D02*
X88722500Y32505000D01*
X89052500Y32745000D01*
X89052500Y32265000D01*
G36*
X89052500Y32265000D02*
G01*
X88722500Y32505000D01*
X89052500Y32745000D01*
X89052500Y32265000D01*
G37*
%TO.C,R1012*%
X103477500Y47262742D02*
X103477500Y47737258D01*
X104522500Y47262742D02*
X104522500Y47737258D01*
%TO.C,TP2*%
X85800000Y65200000D02*
X85800000Y62800000D01*
X85800000Y62800000D02*
X88200000Y62800000D01*
X88200000Y65200000D02*
X85800000Y65200000D01*
X88200000Y62800000D02*
X88200000Y65200000D01*
%TO.C,X900*%
X27997487Y92334207D02*
X25084207Y95247487D01*
X30415793Y94752513D02*
X27997487Y92334207D01*
%TO.C,R15*%
X93227500Y75487258D02*
X93227500Y75012742D01*
X94272500Y75487258D02*
X94272500Y75012742D01*
%TO.C,U100*%
X220823350Y48840000D02*
X225443350Y48840000D01*
X225443350Y55610000D02*
X220823350Y55610000D01*
X227323350Y54915000D02*
X226993350Y55155000D01*
X227323350Y55395000D01*
X227323350Y54915000D01*
G36*
X227323350Y54915000D02*
G01*
X226993350Y55155000D01*
X227323350Y55395000D01*
X227323350Y54915000D01*
G37*
%TO.C,U514*%
X58327500Y46190000D02*
X62947500Y46190000D01*
X62947500Y52960000D02*
X58327500Y52960000D01*
X64827500Y52265000D02*
X64497500Y52505000D01*
X64827500Y52745000D01*
X64827500Y52265000D01*
G36*
X64827500Y52265000D02*
G01*
X64497500Y52505000D01*
X64827500Y52745000D01*
X64827500Y52265000D01*
G37*
%TO.C,C604*%
X92640580Y83510000D02*
X92359420Y83510000D01*
X92640580Y82490000D02*
X92359420Y82490000D01*
%TO.C,R513*%
X73262742Y55022500D02*
X73737258Y55022500D01*
X73262742Y53977500D02*
X73737258Y53977500D01*
%TO.C,C1015*%
X110265000Y57238748D02*
X110265000Y57761252D01*
X111735000Y57238748D02*
X111735000Y57761252D01*
%TO.C,U604*%
X102940000Y80910000D02*
X102940000Y79090000D01*
X102940000Y79090000D02*
X103940000Y79090000D01*
X102990000Y80910000D02*
X102940000Y80910000D01*
X104890000Y80910000D02*
X104110000Y80910000D01*
X105060000Y79090000D02*
X106060000Y79090000D01*
X106060000Y80910000D02*
X106010000Y80910000D01*
X106060000Y79090000D02*
X106060000Y80910000D01*
X104450000Y81210000D02*
X104120000Y81450000D01*
X104450000Y81690000D01*
X104450000Y81210000D01*
G36*
X104450000Y81210000D02*
G01*
X104120000Y81450000D01*
X104450000Y81690000D01*
X104450000Y81210000D01*
G37*
%TO.C,R003*%
X34477500Y80262742D02*
X34477500Y80737258D01*
X35522500Y80262742D02*
X35522500Y80737258D01*
%TO.C,C1001*%
X137738748Y42735000D02*
X138261252Y42735000D01*
X137738748Y41265000D02*
X138261252Y41265000D01*
%TO.C,R100*%
X222937742Y57522500D02*
X223412258Y57522500D01*
X222937742Y56477500D02*
X223412258Y56477500D01*
%TO.C,C1006*%
X136265000Y57788748D02*
X136265000Y58311252D01*
X137735000Y57788748D02*
X137735000Y58311252D01*
%TO.C,R9*%
X24727500Y34987258D02*
X24727500Y34512742D01*
X25772500Y34987258D02*
X25772500Y34512742D01*
%TO.C,U110*%
X152290020Y73340000D02*
X156910020Y73340000D01*
X156910020Y80110000D02*
X152290020Y80110000D01*
X158790020Y79415000D02*
X158460020Y79655000D01*
X158790020Y79895000D01*
X158790020Y79415000D01*
G36*
X158790020Y79415000D02*
G01*
X158460020Y79655000D01*
X158790020Y79895000D01*
X158790020Y79415000D01*
G37*
%TO.C,D1103*%
X29860000Y50800000D02*
X25850000Y50800000D01*
X29860000Y50800000D02*
X29860000Y48800000D01*
X29860000Y48800000D02*
X25850000Y48800000D01*
%TO.C,U510*%
X90827500Y46190000D02*
X95447500Y46190000D01*
X95447500Y52960000D02*
X90827500Y52960000D01*
X97327500Y52265000D02*
X96997500Y52505000D01*
X97327500Y52745000D01*
X97327500Y52265000D01*
G36*
X97327500Y52265000D02*
G01*
X96997500Y52505000D01*
X97327500Y52745000D01*
X97327500Y52265000D01*
G37*
%TO.C,C1004*%
X133265000Y57738748D02*
X133265000Y58261252D01*
X134735000Y57738748D02*
X134735000Y58261252D01*
%TO.C,D1101*%
X29860000Y58000000D02*
X25850000Y58000000D01*
X29860000Y58000000D02*
X29860000Y56000000D01*
X29860000Y56000000D02*
X25850000Y56000000D01*
%TO.C,C602*%
X135765000Y95288748D02*
X135765000Y95811252D01*
X137235000Y95288748D02*
X137235000Y95811252D01*
%TO.C,C605*%
X90237258Y85572500D02*
X89762742Y85572500D01*
X90237258Y84527500D02*
X89762742Y84527500D01*
%TO.C,R512*%
X78237258Y55022500D02*
X77762742Y55022500D01*
X78237258Y53977500D02*
X77762742Y53977500D01*
%TO.C,C1003*%
X128765000Y43261252D02*
X128765000Y42738748D01*
X130235000Y43261252D02*
X130235000Y42738748D01*
%TO.C,R511*%
X89762742Y55022500D02*
X90237258Y55022500D01*
X89762742Y53977500D02*
X90237258Y53977500D01*
%TO.C,C902*%
X43490000Y86140580D02*
X43490000Y85859420D01*
X44510000Y86140580D02*
X44510000Y85859420D01*
%TO.C,R520*%
X86487258Y35022500D02*
X86012742Y35022500D01*
X86487258Y33977500D02*
X86012742Y33977500D01*
%TO.C,L1001*%
X129800000Y49250000D02*
X129800000Y51750000D01*
X138200000Y51750000D02*
X138200000Y49250000D01*
%TO.C,R111*%
X162227500Y73237258D02*
X162227500Y72762742D01*
X163272500Y73237258D02*
X163272500Y72762742D01*
%TO.C,S602*%
X12400000Y29366667D02*
X12400000Y28366667D01*
X12400000Y28366667D02*
X13400000Y28366667D01*
X14400000Y30366667D02*
X14400000Y32966667D01*
X20400000Y28416667D02*
X14600000Y28416667D01*
X20500000Y34916667D02*
X14500000Y34916667D01*
X20600000Y30366667D02*
X20600000Y32966667D01*
%TO.C,Q601*%
X134440000Y74260000D02*
X134440000Y72740000D01*
X134440000Y72740000D02*
X135440000Y72740000D01*
X134490000Y74260000D02*
X134440000Y74260000D01*
X136390000Y74260000D02*
X135610000Y74260000D01*
X136560000Y72740000D02*
X137560000Y72740000D01*
X137560000Y74260000D02*
X137510000Y74260000D01*
X137560000Y72740000D02*
X137560000Y74260000D01*
X135950000Y74560000D02*
X135620000Y74800000D01*
X135950000Y75040000D01*
X135950000Y74560000D01*
G36*
X135950000Y74560000D02*
G01*
X135620000Y74800000D01*
X135950000Y75040000D01*
X135950000Y74560000D01*
G37*
%TO.C,Q602*%
X138940000Y74260000D02*
X138940000Y72740000D01*
X138940000Y72740000D02*
X139940000Y72740000D01*
X138990000Y74260000D02*
X138940000Y74260000D01*
X140890000Y74260000D02*
X140110000Y74260000D01*
X141060000Y72740000D02*
X142060000Y72740000D01*
X142060000Y74260000D02*
X142010000Y74260000D01*
X142060000Y72740000D02*
X142060000Y74260000D01*
X140450000Y74560000D02*
X140120000Y74800000D01*
X140450000Y75040000D01*
X140450000Y74560000D01*
G36*
X140450000Y74560000D02*
G01*
X140120000Y74800000D01*
X140450000Y75040000D01*
X140450000Y74560000D01*
G37*
%TO.C,U603*%
X92390000Y90110000D02*
X92390000Y89385000D01*
X92390000Y85615000D02*
X92390000Y84890000D01*
X92390000Y84890000D02*
X93115000Y84890000D01*
X93115000Y90110000D02*
X92390000Y90110000D01*
X96885000Y84890000D02*
X97610000Y84890000D01*
X97610000Y90110000D02*
X96885000Y90110000D01*
X97610000Y89385000D02*
X97610000Y90110000D01*
X97610000Y84890000D02*
X97610000Y85615000D01*
X96740000Y84060000D02*
X96260000Y84060000D01*
X96500000Y84390000D01*
X96740000Y84060000D01*
G36*
X96740000Y84060000D02*
G01*
X96260000Y84060000D01*
X96500000Y84390000D01*
X96740000Y84060000D01*
G37*
%TO.C,R604*%
X10237258Y90639167D02*
X9762742Y90639167D01*
X10237258Y89594167D02*
X9762742Y89594167D01*
%TO.C,U5*%
X52990000Y68250000D02*
X73430000Y68250000D01*
X52990000Y67000000D02*
X52990000Y68250000D01*
X52990000Y63750000D02*
X52990000Y65000000D01*
X73430000Y68250000D02*
X73430000Y63750000D01*
X73430000Y63750000D02*
X52990000Y63750000D01*
X52990000Y67000000D02*
G75*
G02*
X52990000Y65000000I0J-1000000D01*
G01*
%TO.C,R102*%
X188762742Y57522500D02*
X189237258Y57522500D01*
X188762742Y56477500D02*
X189237258Y56477500D01*
%TO.C,U515*%
X49827500Y46190000D02*
X54447500Y46190000D01*
X54447500Y52960000D02*
X49827500Y52960000D01*
X56327500Y52265000D02*
X55997500Y52505000D01*
X56327500Y52745000D01*
X56327500Y52265000D01*
G36*
X56327500Y52265000D02*
G01*
X55997500Y52505000D01*
X56327500Y52745000D01*
X56327500Y52265000D01*
G37*
%TO.C,S601*%
X12400000Y13533333D02*
X12400000Y12533333D01*
X12400000Y12533333D02*
X13400000Y12533333D01*
X14400000Y14533333D02*
X14400000Y17133333D01*
X20400000Y12583333D02*
X14600000Y12583333D01*
X20500000Y19083333D02*
X14500000Y19083333D01*
X20600000Y14533333D02*
X20600000Y17133333D01*
%TO.C,R611*%
X144977500Y76412258D02*
X144977500Y75937742D01*
X146022500Y76412258D02*
X146022500Y75937742D01*
%TO.C,C1011*%
X117738748Y39735000D02*
X118261252Y39735000D01*
X117738748Y38265000D02*
X118261252Y38265000D01*
%TO.C,C901*%
X24740000Y67859420D02*
X24740000Y68140580D01*
X25760000Y67859420D02*
X25760000Y68140580D01*
%TO.C,R900*%
X28977500Y63987258D02*
X28977500Y63512742D01*
X30022500Y63987258D02*
X30022500Y63512742D01*
%TO.C,R000*%
X42477500Y80262742D02*
X42477500Y80737258D01*
X43522500Y80262742D02*
X43522500Y80737258D01*
%TO.C,R001*%
X40977500Y80262742D02*
X40977500Y80737258D01*
X42022500Y80262742D02*
X42022500Y80737258D01*
%TO.C,U101*%
X203823350Y48840000D02*
X208443350Y48840000D01*
X208443350Y55610000D02*
X203823350Y55610000D01*
X210323350Y54915000D02*
X209993350Y55155000D01*
X210323350Y55395000D01*
X210323350Y54915000D01*
G36*
X210323350Y54915000D02*
G01*
X209993350Y55155000D01*
X210323350Y55395000D01*
X210323350Y54915000D01*
G37*
%TO.C,C1005*%
X130265000Y57738748D02*
X130265000Y58261252D01*
X131735000Y57738748D02*
X131735000Y58261252D01*
%TO.C,R610*%
X139977500Y68762742D02*
X139977500Y69237258D01*
X141022500Y68762742D02*
X141022500Y69237258D01*
%TD*%
M02*
