M48
; DRILL file {KiCad 9.0.5} date 2025-12-06T21:22:12+0100
; FORMAT={-:-/ absolute / metric / decimal}
; #@! TF.CreationDate,2025-12-06T21:22:12+01:00
; #@! TF.GenerationSoftware,Kicad,Pcbnew,9.0.5
; #@! TF.FileFunction,Plated,1,4,PTH
FMAT,2
METRIC
; #@! TA.AperFunction,Plated,PTH,ComponentDrill
T1C0.200
; #@! TA.AperFunction,Plated,PTH,ViaDrill
T2C0.300
; #@! TA.AperFunction,Plated,PTH,ComponentDrill
T3C0.400
; #@! TA.AperFunction,Plated,PTH,ComponentDrill
T4C0.600
; #@! TA.AperFunction,Plated,PTH,ComponentDrill
T5C0.800
; #@! TA.AperFunction,Plated,PTH,ComponentDrill
T6C1.000
; #@! TA.AperFunction,Plated,PTH,ComponentDrill
T7C1.750
%
G90
G05
T1
X124.0Y91.5
X124.0Y90.0
X124.75Y92.25
X124.75Y90.75
X124.75Y89.25
X125.5Y91.5
X125.5Y90.0
X126.25Y92.25
X126.25Y90.75
X126.25Y89.25
X127.0Y91.5
X127.0Y90.0
T2
X7.5Y90.117
X7.5Y74.283
X7.5Y7.45
X8.434Y55.549
X8.434Y34.549
X8.442Y83.557
X8.442Y76.557
X8.442Y69.557
X8.442Y62.557
X8.442Y48.557
X8.442Y41.557
X12.551Y59.5
X12.551Y58.449
X16.566Y87.701
X17.5Y90.117
X17.5Y85.0
X17.5Y74.283
X17.5Y69.783
X17.5Y59.9
X17.5Y33.917
X17.5Y18.083
X17.5Y13.583
X17.55Y73.05
X17.55Y45.05
X20.5Y35.823
X21.75Y92.0
X21.95Y59.05
X22.5Y57.5
X22.5Y31.5
X23.0Y57.0
X23.066Y30.934
X24.0Y88.0
X24.25Y65.5
X24.375Y62.375
X25.1Y41.85
X25.1Y37.35
X25.5Y30.575
X26.738Y66.25
X27.975Y68.775
X29.15Y48.0
X29.75Y100.75
X29.75Y89.25
X31.012Y6.5
X32.5Y61.0
X32.5Y60.0
X32.5Y51.0
X32.5Y50.0
X35.0Y82.5
X36.5Y92.5
X36.5Y82.5
X38.75Y83.5
X39.0Y93.5
X41.5Y82.5
X43.0Y82.5
X43.71Y89.21
X43.75Y94.29
X44.5Y82.5
X45.25Y86.775
X45.25Y85.225
X49.5Y32.0
X51.13Y52.525
X51.13Y51.225
X51.13Y49.925
X51.13Y48.625
X51.13Y47.325
X51.93Y51.875
X51.93Y50.575
X51.93Y49.275
X51.93Y47.975
X51.93Y46.675
X52.0Y57.0
X52.0Y57.0
X52.44Y42.6
X52.71Y48.625
X52.71Y47.325
X53.299Y6.701
X53.51Y50.575
X53.51Y49.275
X53.51Y46.675
X53.88Y42.6
X54.5Y39.0
X55.5Y39.0
X56.76Y42.6
X58.2Y42.6
X58.83Y48.625
X59.33Y51.225
X59.33Y49.925
X59.33Y47.325
X59.33Y31.225
X59.33Y29.925
X59.33Y28.625
X59.33Y27.325
X59.44Y42.6
X59.44Y22.6
X59.48Y32.525
X60.13Y51.875
X60.13Y50.575
X60.13Y49.275
X60.13Y47.975
X60.13Y46.675
X60.13Y31.875
X60.13Y30.575
X60.13Y29.275
X60.13Y27.975
X60.13Y26.675
X60.8Y52.525
X60.88Y42.6
X60.88Y22.6
X60.91Y48.625
X60.91Y47.325
X60.91Y28.625
X60.91Y27.325
X61.71Y52.525
X61.71Y50.575
X61.71Y49.275
X61.71Y46.675
X61.71Y30.575
X61.71Y29.275
X61.71Y26.675
X63.76Y42.6
X63.76Y22.6
X65.2Y42.6
X65.2Y22.6
X65.25Y88.75
X66.0Y89.5
X66.44Y42.6
X66.44Y22.6
X67.03Y48.625
X67.03Y28.625
X67.53Y51.225
X67.53Y49.925
X67.53Y47.325
X67.53Y31.225
X67.53Y29.925
X67.53Y27.325
X67.68Y52.525
X67.68Y32.525
X67.88Y42.6
X67.88Y22.6
X68.33Y51.875
X68.33Y50.575
X68.33Y49.275
X68.33Y47.975
X68.33Y46.675
X68.33Y31.875
X68.33Y30.575
X68.33Y29.275
X68.33Y27.975
X68.33Y26.675
X69.11Y48.625
X69.11Y47.325
X69.11Y28.625
X69.11Y27.325
X69.91Y49.275
X69.91Y46.675
X69.91Y32.525
X69.91Y30.575
X69.91Y29.275
X69.91Y26.675
X70.76Y42.6
X70.76Y22.6
X72.2Y42.6
X72.2Y22.6
X73.44Y42.6
X73.44Y22.6
X74.88Y42.6
X74.88Y22.6
X75.23Y48.625
X75.23Y28.625
X75.586Y6.414
X75.73Y52.525
X75.73Y51.225
X75.73Y49.925
X75.73Y47.325
X75.73Y31.225
X75.73Y29.925
X75.73Y27.325
X75.88Y32.525
X76.53Y51.875
X76.53Y50.575
X76.53Y49.275
X76.53Y47.975
X76.53Y46.675
X76.53Y31.875
X76.53Y30.575
X76.53Y29.275
X76.53Y27.975
X76.53Y26.675
X77.31Y48.625
X77.31Y47.325
X77.31Y28.625
X77.31Y27.325
X77.724Y52.578
X77.76Y42.6
X77.76Y22.6
X78.11Y50.575
X78.11Y49.275
X78.11Y46.675
X78.11Y29.275
X78.11Y26.675
X78.25Y64.75
X79.2Y42.6
X79.2Y22.6
X80.425Y67.75
X80.44Y42.6
X80.44Y22.6
X81.0Y75.5
X81.075Y67.0
X81.725Y83.475
X81.88Y42.6
X81.88Y22.6
X82.0Y62.25
X82.375Y85.125
X82.375Y77.75
X83.025Y83.525
X83.43Y48.625
X83.43Y28.625
X83.5Y77.5
X83.675Y78.5
X83.675Y75.5
X83.93Y52.525
X83.93Y51.225
X83.93Y49.925
X83.93Y47.325
X83.93Y31.225
X83.93Y29.925
X83.93Y27.325
X84.08Y32.525
X84.325Y82.5
X84.325Y76.25
X84.73Y51.875
X84.73Y50.575
X84.73Y49.275
X84.73Y47.975
X84.73Y46.675
X84.73Y31.875
X84.73Y30.575
X84.73Y29.275
X84.73Y27.975
X84.73Y26.675
X84.76Y42.6
X84.76Y22.6
X85.0Y84.0
X85.5Y78.5
X85.51Y48.625
X85.51Y47.325
X85.51Y28.625
X85.51Y27.325
X86.2Y42.6
X86.2Y22.6
X86.275Y71.225
X86.275Y58.0
X86.31Y49.275
X86.31Y46.675
X86.31Y32.525
X86.31Y29.275
X86.31Y26.675
X86.925Y83.425
X87.0Y62.25
X87.44Y42.6
X87.575Y82.575
X88.05Y85.05
X88.5Y34.5
X88.88Y42.6
X90.925Y74.425
X91.0Y92.75
X91.0Y79.65
X91.63Y48.625
X91.725Y81.725
X91.75Y93.5
X91.76Y42.6
X92.13Y52.525
X92.13Y51.225
X92.13Y49.925
X92.13Y47.325
X92.5Y94.25
X92.55Y85.05
X92.93Y51.875
X92.93Y50.575
X92.93Y49.275
X92.93Y47.975
X92.93Y46.675
X93.0Y34.5
X93.2Y42.6
X93.71Y48.625
X93.71Y47.325
X94.0Y81.0
X94.0Y66.0
X94.51Y52.525
X94.51Y49.275
X94.51Y46.675
X95.0Y65.5
X95.5Y81.0
X97.5Y84.5
X97.873Y6.627
X98.407Y82.5
X98.407Y51.875
X99.055Y51.225
X99.058Y83.442
X99.695Y50.575
X100.5Y90.5
X100.5Y74.005
X100.5Y51.5
X102.25Y90.25
X102.5Y83.0
X103.0Y89.5
X104.0Y49.5
X104.5Y88.5
X104.5Y86.0
X106.0Y45.5
X106.675Y96.325
X107.0Y80.0
X108.0Y82.75
X108.75Y82.0
X109.5Y94.83
X109.5Y93.56
X109.5Y92.0
X109.5Y84.25
X109.5Y56.5
X109.5Y55.5
X110.25Y83.45
X111.0Y85.0
X111.0Y55.5
X112.0Y41.637
X112.5Y86.5
X112.5Y58.45
X112.5Y55.5
X112.5Y43.0
X113.362Y78.862
X113.5Y96.1
X114.0Y55.5
X114.95Y38.0
X115.5Y58.45
X115.5Y55.5
X116.0Y42.5
X116.0Y41.5
X116.0Y40.5
X116.0Y39.5
X116.0Y38.5
X116.0Y37.5
X116.0Y35.5
X117.0Y55.5
X117.0Y40.5
X117.0Y37.5
X117.0Y35.5
X117.5Y67.735
X118.5Y75.355
X118.5Y56.5
X118.5Y55.5
X118.95Y40.5
X119.5Y70.275
X120.16Y6.5
X120.5Y50.575
X121.0Y72.815
X122.235Y76.265
X122.235Y67.765
X123.505Y74.005
X124.0Y49.5
X124.775Y80.0
X126.0Y45.5
X126.045Y76.545
X127.0Y80.935
X129.5Y57.0
X129.5Y56.0
X130.71Y92.29
X130.75Y91.02
X130.75Y89.75
X130.75Y82.13
X130.77Y88.48
X131.0Y56.0
X132.0Y41.637
X132.5Y58.95
X132.5Y56.0
X132.5Y43.0
X134.0Y56.0
X134.5Y93.56
X134.95Y38.0
X135.0Y87.21
X135.05Y76.45
X135.5Y58.95
X135.5Y56.0
X136.0Y71.0
X136.0Y67.0
X136.0Y42.5
X136.0Y41.5
X136.0Y40.5
X136.0Y39.5
X136.0Y38.5
X136.0Y37.5
X136.95Y76.0
X137.0Y56.0
X137.0Y40.5
X137.0Y37.5
X138.0Y96.1
X138.0Y94.6
X138.5Y57.0
X138.5Y56.0
X138.95Y40.5
X139.5Y85.94
X139.55Y76.45
X140.5Y71.0
X140.5Y67.0
X141.45Y76.0
X142.0Y80.0
X143.0Y59.0
X143.5Y69.5
X144.1Y75.35
X145.25Y81.825
X145.5Y78.394
X146.5Y79.044
X149.357Y79.694
X149.357Y78.394
X149.357Y77.094
X149.357Y75.794
X149.357Y72.201
X149.357Y70.901
X149.357Y69.602
X149.357Y68.301
X149.357Y67.001
X149.5Y90.0
X149.54Y92.54
X149.75Y54.25
X150.157Y79.044
X150.157Y77.745
X150.157Y75.144
X150.157Y73.844
X150.157Y71.551
X150.157Y70.251
X150.157Y68.951
X150.157Y67.651
X150.8Y84.398
X150.8Y61.398
X150.905Y54.925
X151.955Y55.575
X152.0Y96.5
X152.7Y84.398
X152.7Y61.398
X153.115Y74.465
X153.175Y28.233
X153.5Y32.0
X153.685Y6.5
X153.915Y76.414
X154.6Y61.398
X154.82Y35.495
X155.457Y76.444
X155.457Y73.844
X155.457Y68.951
X155.9Y65.798
X156.257Y68.301
X156.5Y84.398
X156.5Y61.398
X157.214Y42.073
X158.4Y84.398
X158.4Y61.398
X159.215Y78.364
X159.215Y77.064
X159.215Y75.764
X159.215Y74.465
X159.215Y70.221
X159.215Y66.971
X159.608Y48.651
X160.015Y75.114
X160.015Y71.522
X160.015Y67.621
X160.015Y66.322
X162.002Y55.229
X164.293Y78.037
X164.293Y73.825
X164.396Y61.807
X166.79Y68.385
X169.185Y74.962
X176.764Y81.227
X183.764Y81.177
X184.053Y59.994
X186.083Y55.945
X187.098Y57.0
X187.21Y6.5
X187.778Y54.5
X187.778Y53.2
X187.778Y51.9
X187.778Y49.95
X188.828Y53.85
X189.0Y40.0
X189.103Y50.8
X189.133Y59.994
X189.719Y48.255
X190.0Y55.5
X190.488Y49.95
X190.764Y81.177
X192.183Y48.255
X192.584Y59.084
X197.764Y81.177
X201.053Y59.994
X201.5Y50.0
X203.083Y55.945
X204.098Y57.0
X204.764Y81.177
X204.778Y49.95
X205.486Y45.085
X205.578Y54.5
X205.578Y53.2
X206.133Y59.994
X206.133Y39.206
X206.329Y52.225
X206.52Y42.133
X206.628Y53.85
X207.391Y51.562
X208.673Y39.206
X209.497Y6.503
X209.584Y59.084
X211.764Y81.142
X218.053Y59.994
X218.5Y50.0
X218.764Y81.142
X220.083Y55.945
X221.098Y57.0
X221.778Y49.95
X222.486Y45.085
X222.578Y54.5
X222.578Y53.2
X223.133Y59.994
X223.133Y39.206
X223.424Y52.204
X223.52Y42.133
X223.628Y53.85
X224.339Y55.525
X225.673Y39.206
X225.764Y81.142
X226.834Y58.834
X231.784Y6.5
X232.764Y81.227
X239.764Y81.227
X246.764Y81.227
X248.75Y79.5
X254.071Y6.5
X276.358Y6.642
X288.285Y85.0
X288.285Y71.215
X288.285Y57.215
X288.285Y43.215
X288.936Y29.299
X297.5Y82.5
X297.5Y68.5
X297.5Y54.5
X297.5Y48.415
X297.5Y40.5
X297.535Y62.465
X297.542Y34.457
X297.619Y76.549
X297.75Y79.5
X298.645Y6.355
X299.25Y32.25
T3
X16.675Y55.35
X16.675Y54.35
X16.675Y53.35
X16.675Y52.35
X16.675Y51.35
X16.675Y50.35
X16.675Y49.35
X16.675Y48.35
X18.325Y55.35
X18.325Y54.35
X18.325Y53.35
X18.325Y52.35
X18.325Y51.35
X18.325Y50.35
X18.325Y49.35
X18.325Y48.35
T5
X54.32Y91.81
X54.32Y84.19
X54.32Y69.81
X54.32Y62.19
X54.36Y80.81
X54.36Y73.19
X56.86Y91.81
X56.86Y84.19
X56.86Y69.81
X56.86Y62.19
X56.9Y80.81
X56.9Y73.19
X59.4Y91.81
X59.4Y84.19
X59.4Y69.81
X59.4Y62.19
X59.44Y80.81
X59.44Y73.19
X61.94Y91.81
X61.94Y84.19
X61.94Y69.81
X61.94Y62.19
X61.98Y80.81
X61.98Y73.19
X64.48Y91.81
X64.48Y84.19
X64.48Y69.81
X64.48Y62.19
X64.52Y80.81
X64.52Y73.19
X67.02Y91.81
X67.02Y84.19
X67.02Y69.81
X67.02Y62.19
X67.06Y80.81
X67.06Y73.19
X69.56Y91.81
X69.56Y84.19
X69.56Y69.81
X69.56Y62.19
X69.6Y80.81
X69.6Y73.19
X72.1Y91.81
X72.1Y84.19
X72.1Y69.81
X72.1Y62.19
X72.14Y80.81
X72.14Y73.19
T6
X19.177Y97.115
X21.717Y97.115
X24.257Y97.115
T7
X36.5Y65.85
X36.5Y61.85
X36.5Y57.85
X36.5Y53.85
X36.5Y49.85
X36.5Y45.85
X36.5Y41.85
X36.5Y37.85
X40.5Y63.85
X40.5Y59.85
X40.5Y55.85
X40.5Y51.85
X40.5Y47.85
X40.5Y43.85
X40.5Y39.85
X44.5Y65.85
X44.5Y61.85
X44.5Y57.85
X44.5Y53.85
X44.5Y49.85
X44.5Y45.85
X44.5Y41.85
X44.5Y37.85
T4
X15.48Y56.275G85X15.48Y55.875
G05
X15.48Y47.825G85X15.48Y47.425
G05
X19.52Y56.275G85X19.52Y55.875
G05
X19.52Y47.825G85X19.52Y47.425
G05
M30
