%TF.GenerationSoftware,KiCad,Pcbnew,9.0.5*%
%TF.CreationDate,2025-12-06T21:22:12+01:00*%
%TF.ProjectId,Speedometer_Tech,53706565-646f-46d6-9574-65725f546563,rev?*%
%TF.SameCoordinates,Original*%
%TF.FileFunction,Drillmap*%
%TF.FilePolarity,Positive*%
%FSLAX45Y45*%
G04 Gerber Fmt 4.5, Leading zero omitted, Abs format (unit mm)*
G04 Created by KiCad (PCBNEW 9.0.5) date 2025-12-06 21:22:12*
%MOMM*%
%LPD*%
G01*
G04 APERTURE LIST*
%ADD10C,0.050000*%
%ADD11C,0.200000*%
%ADD12C,0.100000*%
%ADD13C,0.175000*%
G04 APERTURE END LIST*
D10*
X26330001Y10370000D02*
G75*
G02*
X24704999Y10370000I-812501J0D01*
G01*
X1672502Y10150000D02*
G75*
G02*
X1822500Y10000000I-2J-150000D01*
G01*
X5970002Y10370000D02*
X5970002Y10370000D01*
X2522502Y10000000D02*
G75*
G02*
X2672502Y10149998I149998J0D01*
G01*
X1822502Y10000000D02*
G75*
G02*
X1672502Y9849998I-150002J0D01*
G01*
X5970002Y10370000D02*
X24705001Y10370000D01*
X2672502Y9850000D02*
G75*
G02*
X2522500Y10000000I-2J150000D01*
G01*
X1522502Y10000000D02*
G75*
G02*
X1672502Y10149998I149998J0D01*
G01*
X26330001Y10370000D02*
X30920000Y10370000D01*
X30920002Y0D02*
X0Y0D01*
X30920001Y10370000D02*
X30920002Y0D01*
X5970002Y10370000D02*
G75*
G02*
X4345002Y10370000I-812500J2D01*
G01*
X2672502Y10150000D02*
G75*
G02*
X2822500Y10000000I-2J-150000D01*
G01*
X1672502Y9850000D02*
G75*
G02*
X1522500Y10000000I-2J150000D01*
G01*
X26330001Y10370000D02*
X26330001Y10370000D01*
X0Y0D02*
X0Y10370000D01*
X2Y10370000D02*
X4345002Y10370000D01*
X2822502Y10000000D02*
G75*
G02*
X2672502Y9849998I-150002J0D01*
G01*
D11*
D12*
X12390000Y9160000D02*
X12410000Y9140000D01*
X12410000Y9160000D02*
X12390000Y9140000D01*
X12390000Y9010000D02*
X12410000Y8990000D01*
X12410000Y9010000D02*
X12390000Y8990000D01*
X12465000Y9235000D02*
X12485000Y9215000D01*
X12485000Y9235000D02*
X12465000Y9215000D01*
X12465000Y9085000D02*
X12485000Y9065000D01*
X12485000Y9085000D02*
X12465000Y9065000D01*
X12465000Y8935000D02*
X12485000Y8915000D01*
X12485000Y8935000D02*
X12465000Y8915000D01*
X12540000Y9160000D02*
X12560000Y9140000D01*
X12560000Y9160000D02*
X12540000Y9140000D01*
X12540000Y9010000D02*
X12560000Y8990000D01*
X12560000Y9010000D02*
X12540000Y8990000D01*
X12615000Y9235000D02*
X12635000Y9215000D01*
X12635000Y9235000D02*
X12615000Y9215000D01*
X12615000Y9085000D02*
X12635000Y9065000D01*
X12635000Y9085000D02*
X12615000Y9065000D01*
X12615000Y8935000D02*
X12635000Y8915000D01*
X12635000Y8935000D02*
X12615000Y8915000D01*
X12690000Y9160000D02*
X12710000Y9140000D01*
X12710000Y9160000D02*
X12690000Y9140000D01*
X12690000Y9010000D02*
X12710000Y8990000D01*
X12710000Y9010000D02*
X12690000Y8990000D01*
X765000Y9011667D02*
G75*
G02*
X735000Y9011667I-15000J0D01*
G01*
X735000Y9011667D02*
G75*
G02*
X765000Y9011667I15000J0D01*
G01*
X765000Y7428333D02*
G75*
G02*
X735000Y7428333I-15000J0D01*
G01*
X735000Y7428333D02*
G75*
G02*
X765000Y7428333I15000J0D01*
G01*
X765000Y745000D02*
G75*
G02*
X735000Y745000I-15000J0D01*
G01*
X735000Y745000D02*
G75*
G02*
X765000Y745000I15000J0D01*
G01*
X858400Y5554900D02*
G75*
G02*
X828400Y5554900I-15000J0D01*
G01*
X828400Y5554900D02*
G75*
G02*
X858400Y5554900I15000J0D01*
G01*
X858400Y3454900D02*
G75*
G02*
X828400Y3454900I-15000J0D01*
G01*
X828400Y3454900D02*
G75*
G02*
X858400Y3454900I15000J0D01*
G01*
X859250Y8355750D02*
G75*
G02*
X829250Y8355750I-15000J0D01*
G01*
X829250Y8355750D02*
G75*
G02*
X859250Y8355750I15000J0D01*
G01*
X859250Y7655750D02*
G75*
G02*
X829250Y7655750I-15000J0D01*
G01*
X829250Y7655750D02*
G75*
G02*
X859250Y7655750I15000J0D01*
G01*
X859250Y6955750D02*
G75*
G02*
X829250Y6955750I-15000J0D01*
G01*
X829250Y6955750D02*
G75*
G02*
X859250Y6955750I15000J0D01*
G01*
X859250Y6255750D02*
G75*
G02*
X829250Y6255750I-15000J0D01*
G01*
X829250Y6255750D02*
G75*
G02*
X859250Y6255750I15000J0D01*
G01*
X859250Y4855750D02*
G75*
G02*
X829250Y4855750I-15000J0D01*
G01*
X829250Y4855750D02*
G75*
G02*
X859250Y4855750I15000J0D01*
G01*
X859250Y4155750D02*
G75*
G02*
X829250Y4155750I-15000J0D01*
G01*
X829250Y4155750D02*
G75*
G02*
X859250Y4155750I15000J0D01*
G01*
X1270100Y5950000D02*
G75*
G02*
X1240100Y5950000I-15000J0D01*
G01*
X1240100Y5950000D02*
G75*
G02*
X1270100Y5950000I15000J0D01*
G01*
X1270100Y5844900D02*
G75*
G02*
X1240100Y5844900I-15000J0D01*
G01*
X1240100Y5844900D02*
G75*
G02*
X1270100Y5844900I15000J0D01*
G01*
X1671600Y8770100D02*
G75*
G02*
X1641600Y8770100I-15000J0D01*
G01*
X1641600Y8770100D02*
G75*
G02*
X1671600Y8770100I15000J0D01*
G01*
X1765000Y9011667D02*
G75*
G02*
X1735000Y9011667I-15000J0D01*
G01*
X1735000Y9011667D02*
G75*
G02*
X1765000Y9011667I15000J0D01*
G01*
X1765000Y8500000D02*
G75*
G02*
X1735000Y8500000I-15000J0D01*
G01*
X1735000Y8500000D02*
G75*
G02*
X1765000Y8500000I15000J0D01*
G01*
X1765000Y7428333D02*
G75*
G02*
X1735000Y7428333I-15000J0D01*
G01*
X1735000Y7428333D02*
G75*
G02*
X1765000Y7428333I15000J0D01*
G01*
X1765000Y6978333D02*
G75*
G02*
X1735000Y6978333I-15000J0D01*
G01*
X1735000Y6978333D02*
G75*
G02*
X1765000Y6978333I15000J0D01*
G01*
X1765000Y5990000D02*
G75*
G02*
X1735000Y5990000I-15000J0D01*
G01*
X1735000Y5990000D02*
G75*
G02*
X1765000Y5990000I15000J0D01*
G01*
X1765000Y3391667D02*
G75*
G02*
X1735000Y3391667I-15000J0D01*
G01*
X1735000Y3391667D02*
G75*
G02*
X1765000Y3391667I15000J0D01*
G01*
X1765000Y1808333D02*
G75*
G02*
X1735000Y1808333I-15000J0D01*
G01*
X1735000Y1808333D02*
G75*
G02*
X1765000Y1808333I15000J0D01*
G01*
X1765000Y1358333D02*
G75*
G02*
X1735000Y1358333I-15000J0D01*
G01*
X1735000Y1358333D02*
G75*
G02*
X1765000Y1358333I15000J0D01*
G01*
X1770000Y7305000D02*
G75*
G02*
X1740000Y7305000I-15000J0D01*
G01*
X1740000Y7305000D02*
G75*
G02*
X1770000Y7305000I15000J0D01*
G01*
X1770000Y4505000D02*
G75*
G02*
X1740000Y4505000I-15000J0D01*
G01*
X1740000Y4505000D02*
G75*
G02*
X1770000Y4505000I15000J0D01*
G01*
X2065000Y3582298D02*
G75*
G02*
X2035000Y3582298I-15000J0D01*
G01*
X2035000Y3582298D02*
G75*
G02*
X2065000Y3582298I15000J0D01*
G01*
X2190000Y9200000D02*
G75*
G02*
X2160000Y9200000I-15000J0D01*
G01*
X2160000Y9200000D02*
G75*
G02*
X2190000Y9200000I15000J0D01*
G01*
X2210000Y5905000D02*
G75*
G02*
X2180000Y5905000I-15000J0D01*
G01*
X2180000Y5905000D02*
G75*
G02*
X2210000Y5905000I15000J0D01*
G01*
X2265000Y5750000D02*
G75*
G02*
X2235000Y5750000I-15000J0D01*
G01*
X2235000Y5750000D02*
G75*
G02*
X2265000Y5750000I15000J0D01*
G01*
X2265000Y3150000D02*
G75*
G02*
X2235000Y3150000I-15000J0D01*
G01*
X2235000Y3150000D02*
G75*
G02*
X2265000Y3150000I15000J0D01*
G01*
X2315000Y5700000D02*
G75*
G02*
X2285000Y5700000I-15000J0D01*
G01*
X2285000Y5700000D02*
G75*
G02*
X2315000Y5700000I15000J0D01*
G01*
X2321569Y3093431D02*
G75*
G02*
X2291569Y3093431I-15000J0D01*
G01*
X2291569Y3093431D02*
G75*
G02*
X2321569Y3093431I15000J0D01*
G01*
X2415000Y8800000D02*
G75*
G02*
X2385000Y8800000I-15000J0D01*
G01*
X2385000Y8800000D02*
G75*
G02*
X2415000Y8800000I15000J0D01*
G01*
X2440000Y6550000D02*
G75*
G02*
X2410000Y6550000I-15000J0D01*
G01*
X2410000Y6550000D02*
G75*
G02*
X2440000Y6550000I15000J0D01*
G01*
X2452500Y6237500D02*
G75*
G02*
X2422500Y6237500I-15000J0D01*
G01*
X2422500Y6237500D02*
G75*
G02*
X2452500Y6237500I15000J0D01*
G01*
X2525002Y4185000D02*
G75*
G02*
X2495002Y4185000I-15000J0D01*
G01*
X2495002Y4185000D02*
G75*
G02*
X2525002Y4185000I15000J0D01*
G01*
X2525002Y3735000D02*
G75*
G02*
X2495002Y3735000I-15000J0D01*
G01*
X2495002Y3735000D02*
G75*
G02*
X2525002Y3735000I15000J0D01*
G01*
X2565000Y3057500D02*
G75*
G02*
X2535000Y3057500I-15000J0D01*
G01*
X2535000Y3057500D02*
G75*
G02*
X2565000Y3057500I15000J0D01*
G01*
X2688819Y6625000D02*
G75*
G02*
X2658819Y6625000I-15000J0D01*
G01*
X2658819Y6625000D02*
G75*
G02*
X2688819Y6625000I15000J0D01*
G01*
X2812500Y6877500D02*
G75*
G02*
X2782500Y6877500I-15000J0D01*
G01*
X2782500Y6877500D02*
G75*
G02*
X2812500Y6877500I15000J0D01*
G01*
X2930000Y4800000D02*
G75*
G02*
X2900000Y4800000I-15000J0D01*
G01*
X2900000Y4800000D02*
G75*
G02*
X2930000Y4800000I15000J0D01*
G01*
X2990000Y10075000D02*
G75*
G02*
X2960000Y10075000I-15000J0D01*
G01*
X2960000Y10075000D02*
G75*
G02*
X2990000Y10075000I15000J0D01*
G01*
X2990000Y8925000D02*
G75*
G02*
X2960000Y8925000I-15000J0D01*
G01*
X2960000Y8925000D02*
G75*
G02*
X2990000Y8925000I15000J0D01*
G01*
X3116200Y650000D02*
G75*
G02*
X3086200Y650000I-15000J0D01*
G01*
X3086200Y650000D02*
G75*
G02*
X3116200Y650000I15000J0D01*
G01*
X3265000Y6100000D02*
G75*
G02*
X3235000Y6100000I-15000J0D01*
G01*
X3235000Y6100000D02*
G75*
G02*
X3265000Y6100000I15000J0D01*
G01*
X3265000Y6000000D02*
G75*
G02*
X3235000Y6000000I-15000J0D01*
G01*
X3235000Y6000000D02*
G75*
G02*
X3265000Y6000000I15000J0D01*
G01*
X3265000Y5100000D02*
G75*
G02*
X3235000Y5100000I-15000J0D01*
G01*
X3235000Y5100000D02*
G75*
G02*
X3265000Y5100000I15000J0D01*
G01*
X3265000Y5000000D02*
G75*
G02*
X3235000Y5000000I-15000J0D01*
G01*
X3235000Y5000000D02*
G75*
G02*
X3265000Y5000000I15000J0D01*
G01*
X3515000Y8250000D02*
G75*
G02*
X3485000Y8250000I-15000J0D01*
G01*
X3485000Y8250000D02*
G75*
G02*
X3515000Y8250000I15000J0D01*
G01*
X3665000Y9250000D02*
G75*
G02*
X3635000Y9250000I-15000J0D01*
G01*
X3635000Y9250000D02*
G75*
G02*
X3665000Y9250000I15000J0D01*
G01*
X3665000Y8250000D02*
G75*
G02*
X3635000Y8250000I-15000J0D01*
G01*
X3635000Y8250000D02*
G75*
G02*
X3665000Y8250000I15000J0D01*
G01*
X3890000Y8350000D02*
G75*
G02*
X3860000Y8350000I-15000J0D01*
G01*
X3860000Y8350000D02*
G75*
G02*
X3890000Y8350000I15000J0D01*
G01*
X3915000Y9350000D02*
G75*
G02*
X3885000Y9350000I-15000J0D01*
G01*
X3885000Y9350000D02*
G75*
G02*
X3915000Y9350000I15000J0D01*
G01*
X4165000Y8250000D02*
G75*
G02*
X4135000Y8250000I-15000J0D01*
G01*
X4135000Y8250000D02*
G75*
G02*
X4165000Y8250000I15000J0D01*
G01*
X4315000Y8250000D02*
G75*
G02*
X4285000Y8250000I-15000J0D01*
G01*
X4285000Y8250000D02*
G75*
G02*
X4315000Y8250000I15000J0D01*
G01*
X4386000Y8921000D02*
G75*
G02*
X4356000Y8921000I-15000J0D01*
G01*
X4356000Y8921000D02*
G75*
G02*
X4386000Y8921000I15000J0D01*
G01*
X4390000Y9429000D02*
G75*
G02*
X4360000Y9429000I-15000J0D01*
G01*
X4360000Y9429000D02*
G75*
G02*
X4390000Y9429000I15000J0D01*
G01*
X4465000Y8250000D02*
G75*
G02*
X4435000Y8250000I-15000J0D01*
G01*
X4435000Y8250000D02*
G75*
G02*
X4465000Y8250000I15000J0D01*
G01*
X4540000Y8677500D02*
G75*
G02*
X4510000Y8677500I-15000J0D01*
G01*
X4510000Y8677500D02*
G75*
G02*
X4540000Y8677500I15000J0D01*
G01*
X4540000Y8522500D02*
G75*
G02*
X4510000Y8522500I-15000J0D01*
G01*
X4510000Y8522500D02*
G75*
G02*
X4540000Y8522500I15000J0D01*
G01*
X4965000Y3200000D02*
G75*
G02*
X4935000Y3200000I-15000J0D01*
G01*
X4935000Y3200000D02*
G75*
G02*
X4965000Y3200000I15000J0D01*
G01*
X5128035Y5252500D02*
G75*
G02*
X5098035Y5252500I-15000J0D01*
G01*
X5098035Y5252500D02*
G75*
G02*
X5128035Y5252500I15000J0D01*
G01*
X5128035Y5122500D02*
G75*
G02*
X5098035Y5122500I-15000J0D01*
G01*
X5098035Y5122500D02*
G75*
G02*
X5128035Y5122500I15000J0D01*
G01*
X5128035Y4992500D02*
G75*
G02*
X5098035Y4992500I-15000J0D01*
G01*
X5098035Y4992500D02*
G75*
G02*
X5128035Y4992500I15000J0D01*
G01*
X5128035Y4862500D02*
G75*
G02*
X5098035Y4862500I-15000J0D01*
G01*
X5098035Y4862500D02*
G75*
G02*
X5128035Y4862500I15000J0D01*
G01*
X5128035Y4732500D02*
G75*
G02*
X5098035Y4732500I-15000J0D01*
G01*
X5098035Y4732500D02*
G75*
G02*
X5128035Y4732500I15000J0D01*
G01*
X5208035Y5187500D02*
G75*
G02*
X5178035Y5187500I-15000J0D01*
G01*
X5178035Y5187500D02*
G75*
G02*
X5208035Y5187500I15000J0D01*
G01*
X5208035Y5057500D02*
G75*
G02*
X5178035Y5057500I-15000J0D01*
G01*
X5178035Y5057500D02*
G75*
G02*
X5208035Y5057500I15000J0D01*
G01*
X5208035Y4927500D02*
G75*
G02*
X5178035Y4927500I-15000J0D01*
G01*
X5178035Y4927500D02*
G75*
G02*
X5208035Y4927500I15000J0D01*
G01*
X5208035Y4797500D02*
G75*
G02*
X5178035Y4797500I-15000J0D01*
G01*
X5178035Y4797500D02*
G75*
G02*
X5208035Y4797500I15000J0D01*
G01*
X5208035Y4667500D02*
G75*
G02*
X5178035Y4667500I-15000J0D01*
G01*
X5178035Y4667500D02*
G75*
G02*
X5208035Y4667500I15000J0D01*
G01*
X5215000Y5700000D02*
G75*
G02*
X5185000Y5700000I-15000J0D01*
G01*
X5185000Y5700000D02*
G75*
G02*
X5215000Y5700000I15000J0D01*
G01*
X5215000Y5700000D02*
G75*
G02*
X5185000Y5700000I-15000J0D01*
G01*
X5185000Y5700000D02*
G75*
G02*
X5215000Y5700000I15000J0D01*
G01*
X5259035Y4260000D02*
G75*
G02*
X5229035Y4260000I-15000J0D01*
G01*
X5229035Y4260000D02*
G75*
G02*
X5259035Y4260000I15000J0D01*
G01*
X5286035Y4862500D02*
G75*
G02*
X5256035Y4862500I-15000J0D01*
G01*
X5256035Y4862500D02*
G75*
G02*
X5286035Y4862500I15000J0D01*
G01*
X5286035Y4732500D02*
G75*
G02*
X5256035Y4732500I-15000J0D01*
G01*
X5256035Y4732500D02*
G75*
G02*
X5286035Y4732500I15000J0D01*
G01*
X5344900Y670100D02*
G75*
G02*
X5314900Y670100I-15000J0D01*
G01*
X5314900Y670100D02*
G75*
G02*
X5344900Y670100I15000J0D01*
G01*
X5366035Y5057500D02*
G75*
G02*
X5336035Y5057500I-15000J0D01*
G01*
X5336035Y5057500D02*
G75*
G02*
X5366035Y5057500I15000J0D01*
G01*
X5366035Y4927500D02*
G75*
G02*
X5336035Y4927500I-15000J0D01*
G01*
X5336035Y4927500D02*
G75*
G02*
X5366035Y4927500I15000J0D01*
G01*
X5366035Y4667500D02*
G75*
G02*
X5336035Y4667500I-15000J0D01*
G01*
X5336035Y4667500D02*
G75*
G02*
X5366035Y4667500I15000J0D01*
G01*
X5403035Y4260000D02*
G75*
G02*
X5373035Y4260000I-15000J0D01*
G01*
X5373035Y4260000D02*
G75*
G02*
X5403035Y4260000I15000J0D01*
G01*
X5465000Y3900000D02*
G75*
G02*
X5435000Y3900000I-15000J0D01*
G01*
X5435000Y3900000D02*
G75*
G02*
X5465000Y3900000I15000J0D01*
G01*
X5565000Y3900000D02*
G75*
G02*
X5535000Y3900000I-15000J0D01*
G01*
X5535000Y3900000D02*
G75*
G02*
X5565000Y3900000I15000J0D01*
G01*
X5691035Y4260000D02*
G75*
G02*
X5661035Y4260000I-15000J0D01*
G01*
X5661035Y4260000D02*
G75*
G02*
X5691035Y4260000I15000J0D01*
G01*
X5835035Y4260000D02*
G75*
G02*
X5805035Y4260000I-15000J0D01*
G01*
X5805035Y4260000D02*
G75*
G02*
X5835035Y4260000I15000J0D01*
G01*
X5898035Y4862500D02*
G75*
G02*
X5868035Y4862500I-15000J0D01*
G01*
X5868035Y4862500D02*
G75*
G02*
X5898035Y4862500I15000J0D01*
G01*
X5948035Y5122500D02*
G75*
G02*
X5918035Y5122500I-15000J0D01*
G01*
X5918035Y5122500D02*
G75*
G02*
X5948035Y5122500I15000J0D01*
G01*
X5948035Y4992500D02*
G75*
G02*
X5918035Y4992500I-15000J0D01*
G01*
X5918035Y4992500D02*
G75*
G02*
X5948035Y4992500I15000J0D01*
G01*
X5948035Y4732500D02*
G75*
G02*
X5918035Y4732500I-15000J0D01*
G01*
X5918035Y4732500D02*
G75*
G02*
X5948035Y4732500I15000J0D01*
G01*
X5948035Y3122500D02*
G75*
G02*
X5918035Y3122500I-15000J0D01*
G01*
X5918035Y3122500D02*
G75*
G02*
X5948035Y3122500I15000J0D01*
G01*
X5948035Y2992500D02*
G75*
G02*
X5918035Y2992500I-15000J0D01*
G01*
X5918035Y2992500D02*
G75*
G02*
X5948035Y2992500I15000J0D01*
G01*
X5948035Y2862500D02*
G75*
G02*
X5918035Y2862500I-15000J0D01*
G01*
X5918035Y2862500D02*
G75*
G02*
X5948035Y2862500I15000J0D01*
G01*
X5948035Y2732500D02*
G75*
G02*
X5918035Y2732500I-15000J0D01*
G01*
X5918035Y2732500D02*
G75*
G02*
X5948035Y2732500I15000J0D01*
G01*
X5959035Y4260000D02*
G75*
G02*
X5929035Y4260000I-15000J0D01*
G01*
X5929035Y4260000D02*
G75*
G02*
X5959035Y4260000I15000J0D01*
G01*
X5959035Y2260000D02*
G75*
G02*
X5929035Y2260000I-15000J0D01*
G01*
X5929035Y2260000D02*
G75*
G02*
X5959035Y2260000I15000J0D01*
G01*
X5963035Y3252500D02*
G75*
G02*
X5933035Y3252500I-15000J0D01*
G01*
X5933035Y3252500D02*
G75*
G02*
X5963035Y3252500I15000J0D01*
G01*
X6028035Y5187500D02*
G75*
G02*
X5998035Y5187500I-15000J0D01*
G01*
X5998035Y5187500D02*
G75*
G02*
X6028035Y5187500I15000J0D01*
G01*
X6028035Y5057500D02*
G75*
G02*
X5998035Y5057500I-15000J0D01*
G01*
X5998035Y5057500D02*
G75*
G02*
X6028035Y5057500I15000J0D01*
G01*
X6028035Y4927500D02*
G75*
G02*
X5998035Y4927500I-15000J0D01*
G01*
X5998035Y4927500D02*
G75*
G02*
X6028035Y4927500I15000J0D01*
G01*
X6028035Y4797500D02*
G75*
G02*
X5998035Y4797500I-15000J0D01*
G01*
X5998035Y4797500D02*
G75*
G02*
X6028035Y4797500I15000J0D01*
G01*
X6028035Y4667500D02*
G75*
G02*
X5998035Y4667500I-15000J0D01*
G01*
X5998035Y4667500D02*
G75*
G02*
X6028035Y4667500I15000J0D01*
G01*
X6028035Y3187500D02*
G75*
G02*
X5998035Y3187500I-15000J0D01*
G01*
X5998035Y3187500D02*
G75*
G02*
X6028035Y3187500I15000J0D01*
G01*
X6028035Y3057500D02*
G75*
G02*
X5998035Y3057500I-15000J0D01*
G01*
X5998035Y3057500D02*
G75*
G02*
X6028035Y3057500I15000J0D01*
G01*
X6028035Y2927500D02*
G75*
G02*
X5998035Y2927500I-15000J0D01*
G01*
X5998035Y2927500D02*
G75*
G02*
X6028035Y2927500I15000J0D01*
G01*
X6028035Y2797500D02*
G75*
G02*
X5998035Y2797500I-15000J0D01*
G01*
X5998035Y2797500D02*
G75*
G02*
X6028035Y2797500I15000J0D01*
G01*
X6028035Y2667500D02*
G75*
G02*
X5998035Y2667500I-15000J0D01*
G01*
X5998035Y2667500D02*
G75*
G02*
X6028035Y2667500I15000J0D01*
G01*
X6095002Y5252500D02*
G75*
G02*
X6065002Y5252500I-15000J0D01*
G01*
X6065002Y5252500D02*
G75*
G02*
X6095002Y5252500I15000J0D01*
G01*
X6103035Y4260000D02*
G75*
G02*
X6073035Y4260000I-15000J0D01*
G01*
X6073035Y4260000D02*
G75*
G02*
X6103035Y4260000I15000J0D01*
G01*
X6103035Y2260000D02*
G75*
G02*
X6073035Y2260000I-15000J0D01*
G01*
X6073035Y2260000D02*
G75*
G02*
X6103035Y2260000I15000J0D01*
G01*
X6106035Y4862500D02*
G75*
G02*
X6076035Y4862500I-15000J0D01*
G01*
X6076035Y4862500D02*
G75*
G02*
X6106035Y4862500I15000J0D01*
G01*
X6106035Y4732500D02*
G75*
G02*
X6076035Y4732500I-15000J0D01*
G01*
X6076035Y4732500D02*
G75*
G02*
X6106035Y4732500I15000J0D01*
G01*
X6106035Y2862500D02*
G75*
G02*
X6076035Y2862500I-15000J0D01*
G01*
X6076035Y2862500D02*
G75*
G02*
X6106035Y2862500I15000J0D01*
G01*
X6106035Y2732500D02*
G75*
G02*
X6076035Y2732500I-15000J0D01*
G01*
X6076035Y2732500D02*
G75*
G02*
X6106035Y2732500I15000J0D01*
G01*
X6186035Y5252500D02*
G75*
G02*
X6156035Y5252500I-15000J0D01*
G01*
X6156035Y5252500D02*
G75*
G02*
X6186035Y5252500I15000J0D01*
G01*
X6186035Y5057500D02*
G75*
G02*
X6156035Y5057500I-15000J0D01*
G01*
X6156035Y5057500D02*
G75*
G02*
X6186035Y5057500I15000J0D01*
G01*
X6186035Y4927500D02*
G75*
G02*
X6156035Y4927500I-15000J0D01*
G01*
X6156035Y4927500D02*
G75*
G02*
X6186035Y4927500I15000J0D01*
G01*
X6186035Y4667500D02*
G75*
G02*
X6156035Y4667500I-15000J0D01*
G01*
X6156035Y4667500D02*
G75*
G02*
X6186035Y4667500I15000J0D01*
G01*
X6186035Y3057500D02*
G75*
G02*
X6156035Y3057500I-15000J0D01*
G01*
X6156035Y3057500D02*
G75*
G02*
X6186035Y3057500I15000J0D01*
G01*
X6186035Y2927500D02*
G75*
G02*
X6156035Y2927500I-15000J0D01*
G01*
X6156035Y2927500D02*
G75*
G02*
X6186035Y2927500I15000J0D01*
G01*
X6186035Y2667500D02*
G75*
G02*
X6156035Y2667500I-15000J0D01*
G01*
X6156035Y2667500D02*
G75*
G02*
X6186035Y2667500I15000J0D01*
G01*
X6391035Y4260000D02*
G75*
G02*
X6361035Y4260000I-15000J0D01*
G01*
X6361035Y4260000D02*
G75*
G02*
X6391035Y4260000I15000J0D01*
G01*
X6391035Y2260000D02*
G75*
G02*
X6361035Y2260000I-15000J0D01*
G01*
X6361035Y2260000D02*
G75*
G02*
X6391035Y2260000I15000J0D01*
G01*
X6535035Y4260000D02*
G75*
G02*
X6505035Y4260000I-15000J0D01*
G01*
X6505035Y4260000D02*
G75*
G02*
X6535035Y4260000I15000J0D01*
G01*
X6535035Y2260000D02*
G75*
G02*
X6505035Y2260000I-15000J0D01*
G01*
X6505035Y2260000D02*
G75*
G02*
X6535035Y2260000I15000J0D01*
G01*
X6540000Y8875000D02*
G75*
G02*
X6510000Y8875000I-15000J0D01*
G01*
X6510000Y8875000D02*
G75*
G02*
X6540000Y8875000I15000J0D01*
G01*
X6615000Y8950000D02*
G75*
G02*
X6585000Y8950000I-15000J0D01*
G01*
X6585000Y8950000D02*
G75*
G02*
X6615000Y8950000I15000J0D01*
G01*
X6659035Y4260000D02*
G75*
G02*
X6629035Y4260000I-15000J0D01*
G01*
X6629035Y4260000D02*
G75*
G02*
X6659035Y4260000I15000J0D01*
G01*
X6659035Y2260000D02*
G75*
G02*
X6629035Y2260000I-15000J0D01*
G01*
X6629035Y2260000D02*
G75*
G02*
X6659035Y2260000I15000J0D01*
G01*
X6718035Y4862500D02*
G75*
G02*
X6688035Y4862500I-15000J0D01*
G01*
X6688035Y4862500D02*
G75*
G02*
X6718035Y4862500I15000J0D01*
G01*
X6718035Y2862500D02*
G75*
G02*
X6688035Y2862500I-15000J0D01*
G01*
X6688035Y2862500D02*
G75*
G02*
X6718035Y2862500I15000J0D01*
G01*
X6768035Y5122500D02*
G75*
G02*
X6738035Y5122500I-15000J0D01*
G01*
X6738035Y5122500D02*
G75*
G02*
X6768035Y5122500I15000J0D01*
G01*
X6768035Y4992500D02*
G75*
G02*
X6738035Y4992500I-15000J0D01*
G01*
X6738035Y4992500D02*
G75*
G02*
X6768035Y4992500I15000J0D01*
G01*
X6768035Y4732500D02*
G75*
G02*
X6738035Y4732500I-15000J0D01*
G01*
X6738035Y4732500D02*
G75*
G02*
X6768035Y4732500I15000J0D01*
G01*
X6768035Y3122500D02*
G75*
G02*
X6738035Y3122500I-15000J0D01*
G01*
X6738035Y3122500D02*
G75*
G02*
X6768035Y3122500I15000J0D01*
G01*
X6768035Y2992500D02*
G75*
G02*
X6738035Y2992500I-15000J0D01*
G01*
X6738035Y2992500D02*
G75*
G02*
X6768035Y2992500I15000J0D01*
G01*
X6768035Y2732500D02*
G75*
G02*
X6738035Y2732500I-15000J0D01*
G01*
X6738035Y2732500D02*
G75*
G02*
X6768035Y2732500I15000J0D01*
G01*
X6783035Y5252500D02*
G75*
G02*
X6753035Y5252500I-15000J0D01*
G01*
X6753035Y5252500D02*
G75*
G02*
X6783035Y5252500I15000J0D01*
G01*
X6783035Y3252500D02*
G75*
G02*
X6753035Y3252500I-15000J0D01*
G01*
X6753035Y3252500D02*
G75*
G02*
X6783035Y3252500I15000J0D01*
G01*
X6803035Y4260000D02*
G75*
G02*
X6773035Y4260000I-15000J0D01*
G01*
X6773035Y4260000D02*
G75*
G02*
X6803035Y4260000I15000J0D01*
G01*
X6803035Y2260000D02*
G75*
G02*
X6773035Y2260000I-15000J0D01*
G01*
X6773035Y2260000D02*
G75*
G02*
X6803035Y2260000I15000J0D01*
G01*
X6848035Y5187500D02*
G75*
G02*
X6818035Y5187500I-15000J0D01*
G01*
X6818035Y5187500D02*
G75*
G02*
X6848035Y5187500I15000J0D01*
G01*
X6848035Y5057500D02*
G75*
G02*
X6818035Y5057500I-15000J0D01*
G01*
X6818035Y5057500D02*
G75*
G02*
X6848035Y5057500I15000J0D01*
G01*
X6848035Y4927500D02*
G75*
G02*
X6818035Y4927500I-15000J0D01*
G01*
X6818035Y4927500D02*
G75*
G02*
X6848035Y4927500I15000J0D01*
G01*
X6848035Y4797500D02*
G75*
G02*
X6818035Y4797500I-15000J0D01*
G01*
X6818035Y4797500D02*
G75*
G02*
X6848035Y4797500I15000J0D01*
G01*
X6848035Y4667500D02*
G75*
G02*
X6818035Y4667500I-15000J0D01*
G01*
X6818035Y4667500D02*
G75*
G02*
X6848035Y4667500I15000J0D01*
G01*
X6848035Y3187500D02*
G75*
G02*
X6818035Y3187500I-15000J0D01*
G01*
X6818035Y3187500D02*
G75*
G02*
X6848035Y3187500I15000J0D01*
G01*
X6848035Y3057500D02*
G75*
G02*
X6818035Y3057500I-15000J0D01*
G01*
X6818035Y3057500D02*
G75*
G02*
X6848035Y3057500I15000J0D01*
G01*
X6848035Y2927500D02*
G75*
G02*
X6818035Y2927500I-15000J0D01*
G01*
X6818035Y2927500D02*
G75*
G02*
X6848035Y2927500I15000J0D01*
G01*
X6848035Y2797500D02*
G75*
G02*
X6818035Y2797500I-15000J0D01*
G01*
X6818035Y2797500D02*
G75*
G02*
X6848035Y2797500I15000J0D01*
G01*
X6848035Y2667500D02*
G75*
G02*
X6818035Y2667500I-15000J0D01*
G01*
X6818035Y2667500D02*
G75*
G02*
X6848035Y2667500I15000J0D01*
G01*
X6926035Y4862500D02*
G75*
G02*
X6896035Y4862500I-15000J0D01*
G01*
X6896035Y4862500D02*
G75*
G02*
X6926035Y4862500I15000J0D01*
G01*
X6926035Y4732500D02*
G75*
G02*
X6896035Y4732500I-15000J0D01*
G01*
X6896035Y4732500D02*
G75*
G02*
X6926035Y4732500I15000J0D01*
G01*
X6926035Y2862500D02*
G75*
G02*
X6896035Y2862500I-15000J0D01*
G01*
X6896035Y2862500D02*
G75*
G02*
X6926035Y2862500I15000J0D01*
G01*
X6926035Y2732500D02*
G75*
G02*
X6896035Y2732500I-15000J0D01*
G01*
X6896035Y2732500D02*
G75*
G02*
X6926035Y2732500I15000J0D01*
G01*
X7006035Y4927500D02*
G75*
G02*
X6976035Y4927500I-15000J0D01*
G01*
X6976035Y4927500D02*
G75*
G02*
X7006035Y4927500I15000J0D01*
G01*
X7006035Y4667500D02*
G75*
G02*
X6976035Y4667500I-15000J0D01*
G01*
X6976035Y4667500D02*
G75*
G02*
X7006035Y4667500I15000J0D01*
G01*
X7006035Y3252500D02*
G75*
G02*
X6976035Y3252500I-15000J0D01*
G01*
X6976035Y3252500D02*
G75*
G02*
X7006035Y3252500I15000J0D01*
G01*
X7006035Y3057500D02*
G75*
G02*
X6976035Y3057500I-15000J0D01*
G01*
X6976035Y3057500D02*
G75*
G02*
X7006035Y3057500I15000J0D01*
G01*
X7006035Y2927500D02*
G75*
G02*
X6976035Y2927500I-15000J0D01*
G01*
X6976035Y2927500D02*
G75*
G02*
X7006035Y2927500I15000J0D01*
G01*
X7006035Y2667500D02*
G75*
G02*
X6976035Y2667500I-15000J0D01*
G01*
X6976035Y2667500D02*
G75*
G02*
X7006035Y2667500I15000J0D01*
G01*
X7091035Y4260000D02*
G75*
G02*
X7061035Y4260000I-15000J0D01*
G01*
X7061035Y4260000D02*
G75*
G02*
X7091035Y4260000I15000J0D01*
G01*
X7091035Y2260000D02*
G75*
G02*
X7061035Y2260000I-15000J0D01*
G01*
X7061035Y2260000D02*
G75*
G02*
X7091035Y2260000I15000J0D01*
G01*
X7235035Y4260000D02*
G75*
G02*
X7205035Y4260000I-15000J0D01*
G01*
X7205035Y4260000D02*
G75*
G02*
X7235035Y4260000I15000J0D01*
G01*
X7235035Y2260000D02*
G75*
G02*
X7205035Y2260000I-15000J0D01*
G01*
X7205035Y2260000D02*
G75*
G02*
X7235035Y2260000I15000J0D01*
G01*
X7359035Y4260000D02*
G75*
G02*
X7329035Y4260000I-15000J0D01*
G01*
X7329035Y4260000D02*
G75*
G02*
X7359035Y4260000I15000J0D01*
G01*
X7359035Y2260000D02*
G75*
G02*
X7329035Y2260000I-15000J0D01*
G01*
X7329035Y2260000D02*
G75*
G02*
X7359035Y2260000I15000J0D01*
G01*
X7503035Y4260000D02*
G75*
G02*
X7473035Y4260000I-15000J0D01*
G01*
X7473035Y4260000D02*
G75*
G02*
X7503035Y4260000I15000J0D01*
G01*
X7503035Y2260000D02*
G75*
G02*
X7473035Y2260000I-15000J0D01*
G01*
X7473035Y2260000D02*
G75*
G02*
X7503035Y2260000I15000J0D01*
G01*
X7538035Y4862500D02*
G75*
G02*
X7508035Y4862500I-15000J0D01*
G01*
X7508035Y4862500D02*
G75*
G02*
X7538035Y4862500I15000J0D01*
G01*
X7538035Y2862500D02*
G75*
G02*
X7508035Y2862500I-15000J0D01*
G01*
X7508035Y2862500D02*
G75*
G02*
X7538035Y2862500I15000J0D01*
G01*
X7573600Y641400D02*
G75*
G02*
X7543600Y641400I-15000J0D01*
G01*
X7543600Y641400D02*
G75*
G02*
X7573600Y641400I15000J0D01*
G01*
X7588035Y5252500D02*
G75*
G02*
X7558035Y5252500I-15000J0D01*
G01*
X7558035Y5252500D02*
G75*
G02*
X7588035Y5252500I15000J0D01*
G01*
X7588035Y5122500D02*
G75*
G02*
X7558035Y5122500I-15000J0D01*
G01*
X7558035Y5122500D02*
G75*
G02*
X7588035Y5122500I15000J0D01*
G01*
X7588035Y4992500D02*
G75*
G02*
X7558035Y4992500I-15000J0D01*
G01*
X7558035Y4992500D02*
G75*
G02*
X7588035Y4992500I15000J0D01*
G01*
X7588035Y4732500D02*
G75*
G02*
X7558035Y4732500I-15000J0D01*
G01*
X7558035Y4732500D02*
G75*
G02*
X7588035Y4732500I15000J0D01*
G01*
X7588035Y3122500D02*
G75*
G02*
X7558035Y3122500I-15000J0D01*
G01*
X7558035Y3122500D02*
G75*
G02*
X7588035Y3122500I15000J0D01*
G01*
X7588035Y2992500D02*
G75*
G02*
X7558035Y2992500I-15000J0D01*
G01*
X7558035Y2992500D02*
G75*
G02*
X7588035Y2992500I15000J0D01*
G01*
X7588035Y2732500D02*
G75*
G02*
X7558035Y2732500I-15000J0D01*
G01*
X7558035Y2732500D02*
G75*
G02*
X7588035Y2732500I15000J0D01*
G01*
X7603035Y3252500D02*
G75*
G02*
X7573035Y3252500I-15000J0D01*
G01*
X7573035Y3252500D02*
G75*
G02*
X7603035Y3252500I15000J0D01*
G01*
X7668035Y5187500D02*
G75*
G02*
X7638035Y5187500I-15000J0D01*
G01*
X7638035Y5187500D02*
G75*
G02*
X7668035Y5187500I15000J0D01*
G01*
X7668035Y5057500D02*
G75*
G02*
X7638035Y5057500I-15000J0D01*
G01*
X7638035Y5057500D02*
G75*
G02*
X7668035Y5057500I15000J0D01*
G01*
X7668035Y4927500D02*
G75*
G02*
X7638035Y4927500I-15000J0D01*
G01*
X7638035Y4927500D02*
G75*
G02*
X7668035Y4927500I15000J0D01*
G01*
X7668035Y4797500D02*
G75*
G02*
X7638035Y4797500I-15000J0D01*
G01*
X7638035Y4797500D02*
G75*
G02*
X7668035Y4797500I15000J0D01*
G01*
X7668035Y4667500D02*
G75*
G02*
X7638035Y4667500I-15000J0D01*
G01*
X7638035Y4667500D02*
G75*
G02*
X7668035Y4667500I15000J0D01*
G01*
X7668035Y3187500D02*
G75*
G02*
X7638035Y3187500I-15000J0D01*
G01*
X7638035Y3187500D02*
G75*
G02*
X7668035Y3187500I15000J0D01*
G01*
X7668035Y3057500D02*
G75*
G02*
X7638035Y3057500I-15000J0D01*
G01*
X7638035Y3057500D02*
G75*
G02*
X7668035Y3057500I15000J0D01*
G01*
X7668035Y2927500D02*
G75*
G02*
X7638035Y2927500I-15000J0D01*
G01*
X7638035Y2927500D02*
G75*
G02*
X7668035Y2927500I15000J0D01*
G01*
X7668035Y2797500D02*
G75*
G02*
X7638035Y2797500I-15000J0D01*
G01*
X7638035Y2797500D02*
G75*
G02*
X7668035Y2797500I15000J0D01*
G01*
X7668035Y2667500D02*
G75*
G02*
X7638035Y2667500I-15000J0D01*
G01*
X7638035Y2667500D02*
G75*
G02*
X7668035Y2667500I15000J0D01*
G01*
X7746035Y4862500D02*
G75*
G02*
X7716035Y4862500I-15000J0D01*
G01*
X7716035Y4862500D02*
G75*
G02*
X7746035Y4862500I15000J0D01*
G01*
X7746035Y4732500D02*
G75*
G02*
X7716035Y4732500I-15000J0D01*
G01*
X7716035Y4732500D02*
G75*
G02*
X7746035Y4732500I15000J0D01*
G01*
X7746035Y2862500D02*
G75*
G02*
X7716035Y2862500I-15000J0D01*
G01*
X7716035Y2862500D02*
G75*
G02*
X7746035Y2862500I15000J0D01*
G01*
X7746035Y2732500D02*
G75*
G02*
X7716035Y2732500I-15000J0D01*
G01*
X7716035Y2732500D02*
G75*
G02*
X7746035Y2732500I15000J0D01*
G01*
X7787402Y5257800D02*
G75*
G02*
X7757402Y5257800I-15000J0D01*
G01*
X7757402Y5257800D02*
G75*
G02*
X7787402Y5257800I15000J0D01*
G01*
X7791035Y4260000D02*
G75*
G02*
X7761035Y4260000I-15000J0D01*
G01*
X7761035Y4260000D02*
G75*
G02*
X7791035Y4260000I15000J0D01*
G01*
X7791035Y2260000D02*
G75*
G02*
X7761035Y2260000I-15000J0D01*
G01*
X7761035Y2260000D02*
G75*
G02*
X7791035Y2260000I15000J0D01*
G01*
X7826035Y5057500D02*
G75*
G02*
X7796035Y5057500I-15000J0D01*
G01*
X7796035Y5057500D02*
G75*
G02*
X7826035Y5057500I15000J0D01*
G01*
X7826035Y4927500D02*
G75*
G02*
X7796035Y4927500I-15000J0D01*
G01*
X7796035Y4927500D02*
G75*
G02*
X7826035Y4927500I15000J0D01*
G01*
X7826035Y4667500D02*
G75*
G02*
X7796035Y4667500I-15000J0D01*
G01*
X7796035Y4667500D02*
G75*
G02*
X7826035Y4667500I15000J0D01*
G01*
X7826035Y2927500D02*
G75*
G02*
X7796035Y2927500I-15000J0D01*
G01*
X7796035Y2927500D02*
G75*
G02*
X7826035Y2927500I15000J0D01*
G01*
X7826035Y2667500D02*
G75*
G02*
X7796035Y2667500I-15000J0D01*
G01*
X7796035Y2667500D02*
G75*
G02*
X7826035Y2667500I15000J0D01*
G01*
X7840000Y6475000D02*
G75*
G02*
X7810000Y6475000I-15000J0D01*
G01*
X7810000Y6475000D02*
G75*
G02*
X7840000Y6475000I15000J0D01*
G01*
X7935035Y4260000D02*
G75*
G02*
X7905035Y4260000I-15000J0D01*
G01*
X7905035Y4260000D02*
G75*
G02*
X7935035Y4260000I15000J0D01*
G01*
X7935035Y2260000D02*
G75*
G02*
X7905035Y2260000I-15000J0D01*
G01*
X7905035Y2260000D02*
G75*
G02*
X7935035Y2260000I15000J0D01*
G01*
X8057500Y6775000D02*
G75*
G02*
X8027500Y6775000I-15000J0D01*
G01*
X8027500Y6775000D02*
G75*
G02*
X8057500Y6775000I15000J0D01*
G01*
X8059035Y4260000D02*
G75*
G02*
X8029035Y4260000I-15000J0D01*
G01*
X8029035Y4260000D02*
G75*
G02*
X8059035Y4260000I15000J0D01*
G01*
X8059035Y2260000D02*
G75*
G02*
X8029035Y2260000I-15000J0D01*
G01*
X8029035Y2260000D02*
G75*
G02*
X8059035Y2260000I15000J0D01*
G01*
X8115000Y7550000D02*
G75*
G02*
X8085000Y7550000I-15000J0D01*
G01*
X8085000Y7550000D02*
G75*
G02*
X8115000Y7550000I15000J0D01*
G01*
X8122500Y6700000D02*
G75*
G02*
X8092500Y6700000I-15000J0D01*
G01*
X8092500Y6700000D02*
G75*
G02*
X8122500Y6700000I15000J0D01*
G01*
X8187500Y8347500D02*
G75*
G02*
X8157500Y8347500I-15000J0D01*
G01*
X8157500Y8347500D02*
G75*
G02*
X8187500Y8347500I15000J0D01*
G01*
X8203035Y4260000D02*
G75*
G02*
X8173035Y4260000I-15000J0D01*
G01*
X8173035Y4260000D02*
G75*
G02*
X8203035Y4260000I15000J0D01*
G01*
X8203035Y2260000D02*
G75*
G02*
X8173035Y2260000I-15000J0D01*
G01*
X8173035Y2260000D02*
G75*
G02*
X8203035Y2260000I15000J0D01*
G01*
X8215000Y6225000D02*
G75*
G02*
X8185000Y6225000I-15000J0D01*
G01*
X8185000Y6225000D02*
G75*
G02*
X8215000Y6225000I15000J0D01*
G01*
X8252500Y8512500D02*
G75*
G02*
X8222500Y8512500I-15000J0D01*
G01*
X8222500Y8512500D02*
G75*
G02*
X8252500Y8512500I15000J0D01*
G01*
X8252500Y7775000D02*
G75*
G02*
X8222500Y7775000I-15000J0D01*
G01*
X8222500Y7775000D02*
G75*
G02*
X8252500Y7775000I15000J0D01*
G01*
X8317500Y8352500D02*
G75*
G02*
X8287500Y8352500I-15000J0D01*
G01*
X8287500Y8352500D02*
G75*
G02*
X8317500Y8352500I15000J0D01*
G01*
X8358035Y4862500D02*
G75*
G02*
X8328035Y4862500I-15000J0D01*
G01*
X8328035Y4862500D02*
G75*
G02*
X8358035Y4862500I15000J0D01*
G01*
X8358035Y2862500D02*
G75*
G02*
X8328035Y2862500I-15000J0D01*
G01*
X8328035Y2862500D02*
G75*
G02*
X8358035Y2862500I15000J0D01*
G01*
X8365000Y7750000D02*
G75*
G02*
X8335000Y7750000I-15000J0D01*
G01*
X8335000Y7750000D02*
G75*
G02*
X8365000Y7750000I15000J0D01*
G01*
X8382500Y7850000D02*
G75*
G02*
X8352500Y7850000I-15000J0D01*
G01*
X8352500Y7850000D02*
G75*
G02*
X8382500Y7850000I15000J0D01*
G01*
X8382500Y7550000D02*
G75*
G02*
X8352500Y7550000I-15000J0D01*
G01*
X8352500Y7550000D02*
G75*
G02*
X8382500Y7550000I15000J0D01*
G01*
X8408035Y5252500D02*
G75*
G02*
X8378035Y5252500I-15000J0D01*
G01*
X8378035Y5252500D02*
G75*
G02*
X8408035Y5252500I15000J0D01*
G01*
X8408035Y5122500D02*
G75*
G02*
X8378035Y5122500I-15000J0D01*
G01*
X8378035Y5122500D02*
G75*
G02*
X8408035Y5122500I15000J0D01*
G01*
X8408035Y4992500D02*
G75*
G02*
X8378035Y4992500I-15000J0D01*
G01*
X8378035Y4992500D02*
G75*
G02*
X8408035Y4992500I15000J0D01*
G01*
X8408035Y4732500D02*
G75*
G02*
X8378035Y4732500I-15000J0D01*
G01*
X8378035Y4732500D02*
G75*
G02*
X8408035Y4732500I15000J0D01*
G01*
X8408035Y3122500D02*
G75*
G02*
X8378035Y3122500I-15000J0D01*
G01*
X8378035Y3122500D02*
G75*
G02*
X8408035Y3122500I15000J0D01*
G01*
X8408035Y2992500D02*
G75*
G02*
X8378035Y2992500I-15000J0D01*
G01*
X8378035Y2992500D02*
G75*
G02*
X8408035Y2992500I15000J0D01*
G01*
X8408035Y2732500D02*
G75*
G02*
X8378035Y2732500I-15000J0D01*
G01*
X8378035Y2732500D02*
G75*
G02*
X8408035Y2732500I15000J0D01*
G01*
X8423035Y3252500D02*
G75*
G02*
X8393035Y3252500I-15000J0D01*
G01*
X8393035Y3252500D02*
G75*
G02*
X8423035Y3252500I15000J0D01*
G01*
X8447500Y8250000D02*
G75*
G02*
X8417500Y8250000I-15000J0D01*
G01*
X8417500Y8250000D02*
G75*
G02*
X8447500Y8250000I15000J0D01*
G01*
X8447500Y7625000D02*
G75*
G02*
X8417500Y7625000I-15000J0D01*
G01*
X8417500Y7625000D02*
G75*
G02*
X8447500Y7625000I15000J0D01*
G01*
X8488035Y5187500D02*
G75*
G02*
X8458035Y5187500I-15000J0D01*
G01*
X8458035Y5187500D02*
G75*
G02*
X8488035Y5187500I15000J0D01*
G01*
X8488035Y5057500D02*
G75*
G02*
X8458035Y5057500I-15000J0D01*
G01*
X8458035Y5057500D02*
G75*
G02*
X8488035Y5057500I15000J0D01*
G01*
X8488035Y4927500D02*
G75*
G02*
X8458035Y4927500I-15000J0D01*
G01*
X8458035Y4927500D02*
G75*
G02*
X8488035Y4927500I15000J0D01*
G01*
X8488035Y4797500D02*
G75*
G02*
X8458035Y4797500I-15000J0D01*
G01*
X8458035Y4797500D02*
G75*
G02*
X8488035Y4797500I15000J0D01*
G01*
X8488035Y4667500D02*
G75*
G02*
X8458035Y4667500I-15000J0D01*
G01*
X8458035Y4667500D02*
G75*
G02*
X8488035Y4667500I15000J0D01*
G01*
X8488035Y3187500D02*
G75*
G02*
X8458035Y3187500I-15000J0D01*
G01*
X8458035Y3187500D02*
G75*
G02*
X8488035Y3187500I15000J0D01*
G01*
X8488035Y3057500D02*
G75*
G02*
X8458035Y3057500I-15000J0D01*
G01*
X8458035Y3057500D02*
G75*
G02*
X8488035Y3057500I15000J0D01*
G01*
X8488035Y2927500D02*
G75*
G02*
X8458035Y2927500I-15000J0D01*
G01*
X8458035Y2927500D02*
G75*
G02*
X8488035Y2927500I15000J0D01*
G01*
X8488035Y2797500D02*
G75*
G02*
X8458035Y2797500I-15000J0D01*
G01*
X8458035Y2797500D02*
G75*
G02*
X8488035Y2797500I15000J0D01*
G01*
X8488035Y2667500D02*
G75*
G02*
X8458035Y2667500I-15000J0D01*
G01*
X8458035Y2667500D02*
G75*
G02*
X8488035Y2667500I15000J0D01*
G01*
X8491035Y4260000D02*
G75*
G02*
X8461035Y4260000I-15000J0D01*
G01*
X8461035Y4260000D02*
G75*
G02*
X8491035Y4260000I15000J0D01*
G01*
X8491035Y2260000D02*
G75*
G02*
X8461035Y2260000I-15000J0D01*
G01*
X8461035Y2260000D02*
G75*
G02*
X8491035Y2260000I15000J0D01*
G01*
X8515000Y8400000D02*
G75*
G02*
X8485000Y8400000I-15000J0D01*
G01*
X8485000Y8400000D02*
G75*
G02*
X8515000Y8400000I15000J0D01*
G01*
X8565000Y7850000D02*
G75*
G02*
X8535000Y7850000I-15000J0D01*
G01*
X8535000Y7850000D02*
G75*
G02*
X8565000Y7850000I15000J0D01*
G01*
X8566035Y4862500D02*
G75*
G02*
X8536035Y4862500I-15000J0D01*
G01*
X8536035Y4862500D02*
G75*
G02*
X8566035Y4862500I15000J0D01*
G01*
X8566035Y4732500D02*
G75*
G02*
X8536035Y4732500I-15000J0D01*
G01*
X8536035Y4732500D02*
G75*
G02*
X8566035Y4732500I15000J0D01*
G01*
X8566035Y2862500D02*
G75*
G02*
X8536035Y2862500I-15000J0D01*
G01*
X8536035Y2862500D02*
G75*
G02*
X8566035Y2862500I15000J0D01*
G01*
X8566035Y2732500D02*
G75*
G02*
X8536035Y2732500I-15000J0D01*
G01*
X8536035Y2732500D02*
G75*
G02*
X8566035Y2732500I15000J0D01*
G01*
X8635035Y4260000D02*
G75*
G02*
X8605035Y4260000I-15000J0D01*
G01*
X8605035Y4260000D02*
G75*
G02*
X8635035Y4260000I15000J0D01*
G01*
X8635035Y2260000D02*
G75*
G02*
X8605035Y2260000I-15000J0D01*
G01*
X8605035Y2260000D02*
G75*
G02*
X8635035Y2260000I15000J0D01*
G01*
X8642500Y7122500D02*
G75*
G02*
X8612500Y7122500I-15000J0D01*
G01*
X8612500Y7122500D02*
G75*
G02*
X8642500Y7122500I15000J0D01*
G01*
X8642500Y5800000D02*
G75*
G02*
X8612500Y5800000I-15000J0D01*
G01*
X8612500Y5800000D02*
G75*
G02*
X8642500Y5800000I15000J0D01*
G01*
X8646035Y4927500D02*
G75*
G02*
X8616035Y4927500I-15000J0D01*
G01*
X8616035Y4927500D02*
G75*
G02*
X8646035Y4927500I15000J0D01*
G01*
X8646035Y4667500D02*
G75*
G02*
X8616035Y4667500I-15000J0D01*
G01*
X8616035Y4667500D02*
G75*
G02*
X8646035Y4667500I15000J0D01*
G01*
X8646035Y3252500D02*
G75*
G02*
X8616035Y3252500I-15000J0D01*
G01*
X8616035Y3252500D02*
G75*
G02*
X8646035Y3252500I15000J0D01*
G01*
X8646035Y2927500D02*
G75*
G02*
X8616035Y2927500I-15000J0D01*
G01*
X8616035Y2927500D02*
G75*
G02*
X8646035Y2927500I15000J0D01*
G01*
X8646035Y2667500D02*
G75*
G02*
X8616035Y2667500I-15000J0D01*
G01*
X8616035Y2667500D02*
G75*
G02*
X8646035Y2667500I15000J0D01*
G01*
X8707500Y8342500D02*
G75*
G02*
X8677500Y8342500I-15000J0D01*
G01*
X8677500Y8342500D02*
G75*
G02*
X8707500Y8342500I15000J0D01*
G01*
X8715000Y6225000D02*
G75*
G02*
X8685000Y6225000I-15000J0D01*
G01*
X8685000Y6225000D02*
G75*
G02*
X8715000Y6225000I15000J0D01*
G01*
X8759035Y4260000D02*
G75*
G02*
X8729035Y4260000I-15000J0D01*
G01*
X8729035Y4260000D02*
G75*
G02*
X8759035Y4260000I15000J0D01*
G01*
X8772500Y8257500D02*
G75*
G02*
X8742500Y8257500I-15000J0D01*
G01*
X8742500Y8257500D02*
G75*
G02*
X8772500Y8257500I15000J0D01*
G01*
X8820000Y8505000D02*
G75*
G02*
X8790000Y8505000I-15000J0D01*
G01*
X8790000Y8505000D02*
G75*
G02*
X8820000Y8505000I15000J0D01*
G01*
X8865000Y3450000D02*
G75*
G02*
X8835000Y3450000I-15000J0D01*
G01*
X8835000Y3450000D02*
G75*
G02*
X8865000Y3450000I15000J0D01*
G01*
X8903035Y4260000D02*
G75*
G02*
X8873035Y4260000I-15000J0D01*
G01*
X8873035Y4260000D02*
G75*
G02*
X8903035Y4260000I15000J0D01*
G01*
X9107500Y7442500D02*
G75*
G02*
X9077500Y7442500I-15000J0D01*
G01*
X9077500Y7442500D02*
G75*
G02*
X9107500Y7442500I15000J0D01*
G01*
X9115000Y9275000D02*
G75*
G02*
X9085000Y9275000I-15000J0D01*
G01*
X9085000Y9275000D02*
G75*
G02*
X9115000Y9275000I15000J0D01*
G01*
X9115000Y7965000D02*
G75*
G02*
X9085000Y7965000I-15000J0D01*
G01*
X9085000Y7965000D02*
G75*
G02*
X9115000Y7965000I15000J0D01*
G01*
X9178035Y4862500D02*
G75*
G02*
X9148035Y4862500I-15000J0D01*
G01*
X9148035Y4862500D02*
G75*
G02*
X9178035Y4862500I15000J0D01*
G01*
X9187500Y8172500D02*
G75*
G02*
X9157500Y8172500I-15000J0D01*
G01*
X9157500Y8172500D02*
G75*
G02*
X9187500Y8172500I15000J0D01*
G01*
X9190000Y9350000D02*
G75*
G02*
X9160000Y9350000I-15000J0D01*
G01*
X9160000Y9350000D02*
G75*
G02*
X9190000Y9350000I15000J0D01*
G01*
X9191035Y4260000D02*
G75*
G02*
X9161035Y4260000I-15000J0D01*
G01*
X9161035Y4260000D02*
G75*
G02*
X9191035Y4260000I15000J0D01*
G01*
X9228035Y5252500D02*
G75*
G02*
X9198035Y5252500I-15000J0D01*
G01*
X9198035Y5252500D02*
G75*
G02*
X9228035Y5252500I15000J0D01*
G01*
X9228035Y5122500D02*
G75*
G02*
X9198035Y5122500I-15000J0D01*
G01*
X9198035Y5122500D02*
G75*
G02*
X9228035Y5122500I15000J0D01*
G01*
X9228035Y4992500D02*
G75*
G02*
X9198035Y4992500I-15000J0D01*
G01*
X9198035Y4992500D02*
G75*
G02*
X9228035Y4992500I15000J0D01*
G01*
X9228035Y4732500D02*
G75*
G02*
X9198035Y4732500I-15000J0D01*
G01*
X9198035Y4732500D02*
G75*
G02*
X9228035Y4732500I15000J0D01*
G01*
X9265000Y9425000D02*
G75*
G02*
X9235000Y9425000I-15000J0D01*
G01*
X9235000Y9425000D02*
G75*
G02*
X9265000Y9425000I15000J0D01*
G01*
X9270000Y8505000D02*
G75*
G02*
X9240000Y8505000I-15000J0D01*
G01*
X9240000Y8505000D02*
G75*
G02*
X9270000Y8505000I15000J0D01*
G01*
X9308035Y5187500D02*
G75*
G02*
X9278035Y5187500I-15000J0D01*
G01*
X9278035Y5187500D02*
G75*
G02*
X9308035Y5187500I15000J0D01*
G01*
X9308035Y5057500D02*
G75*
G02*
X9278035Y5057500I-15000J0D01*
G01*
X9278035Y5057500D02*
G75*
G02*
X9308035Y5057500I15000J0D01*
G01*
X9308035Y4927500D02*
G75*
G02*
X9278035Y4927500I-15000J0D01*
G01*
X9278035Y4927500D02*
G75*
G02*
X9308035Y4927500I15000J0D01*
G01*
X9308035Y4797500D02*
G75*
G02*
X9278035Y4797500I-15000J0D01*
G01*
X9278035Y4797500D02*
G75*
G02*
X9308035Y4797500I15000J0D01*
G01*
X9308035Y4667500D02*
G75*
G02*
X9278035Y4667500I-15000J0D01*
G01*
X9278035Y4667500D02*
G75*
G02*
X9308035Y4667500I15000J0D01*
G01*
X9315000Y3450000D02*
G75*
G02*
X9285000Y3450000I-15000J0D01*
G01*
X9285000Y3450000D02*
G75*
G02*
X9315000Y3450000I15000J0D01*
G01*
X9335035Y4260000D02*
G75*
G02*
X9305035Y4260000I-15000J0D01*
G01*
X9305035Y4260000D02*
G75*
G02*
X9335035Y4260000I15000J0D01*
G01*
X9386035Y4862500D02*
G75*
G02*
X9356035Y4862500I-15000J0D01*
G01*
X9356035Y4862500D02*
G75*
G02*
X9386035Y4862500I15000J0D01*
G01*
X9386035Y4732500D02*
G75*
G02*
X9356035Y4732500I-15000J0D01*
G01*
X9356035Y4732500D02*
G75*
G02*
X9386035Y4732500I15000J0D01*
G01*
X9415000Y8100000D02*
G75*
G02*
X9385000Y8100000I-15000J0D01*
G01*
X9385000Y8100000D02*
G75*
G02*
X9415000Y8100000I15000J0D01*
G01*
X9415000Y6600000D02*
G75*
G02*
X9385000Y6600000I-15000J0D01*
G01*
X9385000Y6600000D02*
G75*
G02*
X9415000Y6600000I15000J0D01*
G01*
X9466035Y5252500D02*
G75*
G02*
X9436035Y5252500I-15000J0D01*
G01*
X9436035Y5252500D02*
G75*
G02*
X9466035Y5252500I15000J0D01*
G01*
X9466035Y4927500D02*
G75*
G02*
X9436035Y4927500I-15000J0D01*
G01*
X9436035Y4927500D02*
G75*
G02*
X9466035Y4927500I15000J0D01*
G01*
X9466035Y4667500D02*
G75*
G02*
X9436035Y4667500I-15000J0D01*
G01*
X9436035Y4667500D02*
G75*
G02*
X9466035Y4667500I15000J0D01*
G01*
X9515000Y6550000D02*
G75*
G02*
X9485000Y6550000I-15000J0D01*
G01*
X9485000Y6550000D02*
G75*
G02*
X9515000Y6550000I15000J0D01*
G01*
X9565000Y8100000D02*
G75*
G02*
X9535000Y8100000I-15000J0D01*
G01*
X9535000Y8100000D02*
G75*
G02*
X9565000Y8100000I15000J0D01*
G01*
X9765000Y8450000D02*
G75*
G02*
X9735000Y8450000I-15000J0D01*
G01*
X9735000Y8450000D02*
G75*
G02*
X9765000Y8450000I15000J0D01*
G01*
X9802300Y662700D02*
G75*
G02*
X9772300Y662700I-15000J0D01*
G01*
X9772300Y662700D02*
G75*
G02*
X9802300Y662700I15000J0D01*
G01*
X9855669Y8250000D02*
G75*
G02*
X9825669Y8250000I-15000J0D01*
G01*
X9825669Y8250000D02*
G75*
G02*
X9855669Y8250000I15000J0D01*
G01*
X9855669Y5187500D02*
G75*
G02*
X9825669Y5187500I-15000J0D01*
G01*
X9825669Y5187500D02*
G75*
G02*
X9855669Y5187500I15000J0D01*
G01*
X9920487Y5122500D02*
G75*
G02*
X9890487Y5122500I-15000J0D01*
G01*
X9890487Y5122500D02*
G75*
G02*
X9920487Y5122500I15000J0D01*
G01*
X9920769Y8344231D02*
G75*
G02*
X9890769Y8344231I-15000J0D01*
G01*
X9890769Y8344231D02*
G75*
G02*
X9920769Y8344231I15000J0D01*
G01*
X9984502Y5057500D02*
G75*
G02*
X9954502Y5057500I-15000J0D01*
G01*
X9954502Y5057500D02*
G75*
G02*
X9984502Y5057500I15000J0D01*
G01*
X10065000Y9050000D02*
G75*
G02*
X10035000Y9050000I-15000J0D01*
G01*
X10035000Y9050000D02*
G75*
G02*
X10065000Y9050000I15000J0D01*
G01*
X10065000Y7400500D02*
G75*
G02*
X10035000Y7400500I-15000J0D01*
G01*
X10035000Y7400500D02*
G75*
G02*
X10065000Y7400500I15000J0D01*
G01*
X10065000Y5150000D02*
G75*
G02*
X10035000Y5150000I-15000J0D01*
G01*
X10035000Y5150000D02*
G75*
G02*
X10065000Y5150000I15000J0D01*
G01*
X10240000Y9025000D02*
G75*
G02*
X10210000Y9025000I-15000J0D01*
G01*
X10210000Y9025000D02*
G75*
G02*
X10240000Y9025000I15000J0D01*
G01*
X10265000Y8300000D02*
G75*
G02*
X10235000Y8300000I-15000J0D01*
G01*
X10235000Y8300000D02*
G75*
G02*
X10265000Y8300000I15000J0D01*
G01*
X10315000Y8950000D02*
G75*
G02*
X10285000Y8950000I-15000J0D01*
G01*
X10285000Y8950000D02*
G75*
G02*
X10315000Y8950000I15000J0D01*
G01*
X10415000Y4950000D02*
G75*
G02*
X10385000Y4950000I-15000J0D01*
G01*
X10385000Y4950000D02*
G75*
G02*
X10415000Y4950000I15000J0D01*
G01*
X10465000Y8850000D02*
G75*
G02*
X10435000Y8850000I-15000J0D01*
G01*
X10435000Y8850000D02*
G75*
G02*
X10465000Y8850000I15000J0D01*
G01*
X10465000Y8600000D02*
G75*
G02*
X10435000Y8600000I-15000J0D01*
G01*
X10435000Y8600000D02*
G75*
G02*
X10465000Y8600000I15000J0D01*
G01*
X10615000Y4550000D02*
G75*
G02*
X10585000Y4550000I-15000J0D01*
G01*
X10585000Y4550000D02*
G75*
G02*
X10615000Y4550000I15000J0D01*
G01*
X10682500Y9632500D02*
G75*
G02*
X10652500Y9632500I-15000J0D01*
G01*
X10652500Y9632500D02*
G75*
G02*
X10682500Y9632500I15000J0D01*
G01*
X10715000Y8000000D02*
G75*
G02*
X10685000Y8000000I-15000J0D01*
G01*
X10685000Y8000000D02*
G75*
G02*
X10715000Y8000000I15000J0D01*
G01*
X10815000Y8275000D02*
G75*
G02*
X10785000Y8275000I-15000J0D01*
G01*
X10785000Y8275000D02*
G75*
G02*
X10815000Y8275000I15000J0D01*
G01*
X10890000Y8200000D02*
G75*
G02*
X10860000Y8200000I-15000J0D01*
G01*
X10860000Y8200000D02*
G75*
G02*
X10890000Y8200000I15000J0D01*
G01*
X10965000Y9483000D02*
G75*
G02*
X10935000Y9483000I-15000J0D01*
G01*
X10935000Y9483000D02*
G75*
G02*
X10965000Y9483000I15000J0D01*
G01*
X10965000Y9356000D02*
G75*
G02*
X10935000Y9356000I-15000J0D01*
G01*
X10935000Y9356000D02*
G75*
G02*
X10965000Y9356000I15000J0D01*
G01*
X10965000Y9200000D02*
G75*
G02*
X10935000Y9200000I-15000J0D01*
G01*
X10935000Y9200000D02*
G75*
G02*
X10965000Y9200000I15000J0D01*
G01*
X10965000Y8425000D02*
G75*
G02*
X10935000Y8425000I-15000J0D01*
G01*
X10935000Y8425000D02*
G75*
G02*
X10965000Y8425000I15000J0D01*
G01*
X10965000Y5650000D02*
G75*
G02*
X10935000Y5650000I-15000J0D01*
G01*
X10935000Y5650000D02*
G75*
G02*
X10965000Y5650000I15000J0D01*
G01*
X10965000Y5550000D02*
G75*
G02*
X10935000Y5550000I-15000J0D01*
G01*
X10935000Y5550000D02*
G75*
G02*
X10965000Y5550000I15000J0D01*
G01*
X11040000Y8345000D02*
G75*
G02*
X11010000Y8345000I-15000J0D01*
G01*
X11010000Y8345000D02*
G75*
G02*
X11040000Y8345000I15000J0D01*
G01*
X11115000Y8500000D02*
G75*
G02*
X11085000Y8500000I-15000J0D01*
G01*
X11085000Y8500000D02*
G75*
G02*
X11115000Y8500000I15000J0D01*
G01*
X11115000Y5550000D02*
G75*
G02*
X11085000Y5550000I-15000J0D01*
G01*
X11085000Y5550000D02*
G75*
G02*
X11115000Y5550000I15000J0D01*
G01*
X11215000Y4163750D02*
G75*
G02*
X11185000Y4163750I-15000J0D01*
G01*
X11185000Y4163750D02*
G75*
G02*
X11215000Y4163750I15000J0D01*
G01*
X11265000Y8650000D02*
G75*
G02*
X11235000Y8650000I-15000J0D01*
G01*
X11235000Y8650000D02*
G75*
G02*
X11265000Y8650000I15000J0D01*
G01*
X11265000Y5845000D02*
G75*
G02*
X11235000Y5845000I-15000J0D01*
G01*
X11235000Y5845000D02*
G75*
G02*
X11265000Y5845000I15000J0D01*
G01*
X11265000Y5550000D02*
G75*
G02*
X11235000Y5550000I-15000J0D01*
G01*
X11235000Y5550000D02*
G75*
G02*
X11265000Y5550000I15000J0D01*
G01*
X11265000Y4300000D02*
G75*
G02*
X11235000Y4300000I-15000J0D01*
G01*
X11235000Y4300000D02*
G75*
G02*
X11265000Y4300000I15000J0D01*
G01*
X11351250Y7886250D02*
G75*
G02*
X11321250Y7886250I-15000J0D01*
G01*
X11321250Y7886250D02*
G75*
G02*
X11351250Y7886250I15000J0D01*
G01*
X11365000Y9610000D02*
G75*
G02*
X11335000Y9610000I-15000J0D01*
G01*
X11335000Y9610000D02*
G75*
G02*
X11365000Y9610000I15000J0D01*
G01*
X11415000Y5550000D02*
G75*
G02*
X11385000Y5550000I-15000J0D01*
G01*
X11385000Y5550000D02*
G75*
G02*
X11415000Y5550000I15000J0D01*
G01*
X11510000Y3800000D02*
G75*
G02*
X11480000Y3800000I-15000J0D01*
G01*
X11480000Y3800000D02*
G75*
G02*
X11510000Y3800000I15000J0D01*
G01*
X11565000Y5845000D02*
G75*
G02*
X11535000Y5845000I-15000J0D01*
G01*
X11535000Y5845000D02*
G75*
G02*
X11565000Y5845000I15000J0D01*
G01*
X11565000Y5550000D02*
G75*
G02*
X11535000Y5550000I-15000J0D01*
G01*
X11535000Y5550000D02*
G75*
G02*
X11565000Y5550000I15000J0D01*
G01*
X11615000Y4250000D02*
G75*
G02*
X11585000Y4250000I-15000J0D01*
G01*
X11585000Y4250000D02*
G75*
G02*
X11615000Y4250000I15000J0D01*
G01*
X11615000Y4150000D02*
G75*
G02*
X11585000Y4150000I-15000J0D01*
G01*
X11585000Y4150000D02*
G75*
G02*
X11615000Y4150000I15000J0D01*
G01*
X11615000Y4050000D02*
G75*
G02*
X11585000Y4050000I-15000J0D01*
G01*
X11585000Y4050000D02*
G75*
G02*
X11615000Y4050000I15000J0D01*
G01*
X11615000Y3950000D02*
G75*
G02*
X11585000Y3950000I-15000J0D01*
G01*
X11585000Y3950000D02*
G75*
G02*
X11615000Y3950000I15000J0D01*
G01*
X11615000Y3850000D02*
G75*
G02*
X11585000Y3850000I-15000J0D01*
G01*
X11585000Y3850000D02*
G75*
G02*
X11615000Y3850000I15000J0D01*
G01*
X11615000Y3750000D02*
G75*
G02*
X11585000Y3750000I-15000J0D01*
G01*
X11585000Y3750000D02*
G75*
G02*
X11615000Y3750000I15000J0D01*
G01*
X11615000Y3550000D02*
G75*
G02*
X11585000Y3550000I-15000J0D01*
G01*
X11585000Y3550000D02*
G75*
G02*
X11615000Y3550000I15000J0D01*
G01*
X11715000Y5550000D02*
G75*
G02*
X11685000Y5550000I-15000J0D01*
G01*
X11685000Y5550000D02*
G75*
G02*
X11715000Y5550000I15000J0D01*
G01*
X11715000Y4050000D02*
G75*
G02*
X11685000Y4050000I-15000J0D01*
G01*
X11685000Y4050000D02*
G75*
G02*
X11715000Y4050000I15000J0D01*
G01*
X11715000Y3750000D02*
G75*
G02*
X11685000Y3750000I-15000J0D01*
G01*
X11685000Y3750000D02*
G75*
G02*
X11715000Y3750000I15000J0D01*
G01*
X11715000Y3550000D02*
G75*
G02*
X11685000Y3550000I-15000J0D01*
G01*
X11685000Y3550000D02*
G75*
G02*
X11715000Y3550000I15000J0D01*
G01*
X11765000Y6773500D02*
G75*
G02*
X11735000Y6773500I-15000J0D01*
G01*
X11735000Y6773500D02*
G75*
G02*
X11765000Y6773500I15000J0D01*
G01*
X11865000Y7535500D02*
G75*
G02*
X11835000Y7535500I-15000J0D01*
G01*
X11835000Y7535500D02*
G75*
G02*
X11865000Y7535500I15000J0D01*
G01*
X11865000Y5650000D02*
G75*
G02*
X11835000Y5650000I-15000J0D01*
G01*
X11835000Y5650000D02*
G75*
G02*
X11865000Y5650000I15000J0D01*
G01*
X11865000Y5550000D02*
G75*
G02*
X11835000Y5550000I-15000J0D01*
G01*
X11835000Y5550000D02*
G75*
G02*
X11865000Y5550000I15000J0D01*
G01*
X11910000Y4050000D02*
G75*
G02*
X11880000Y4050000I-15000J0D01*
G01*
X11880000Y4050000D02*
G75*
G02*
X11910000Y4050000I15000J0D01*
G01*
X11965000Y7027500D02*
G75*
G02*
X11935000Y7027500I-15000J0D01*
G01*
X11935000Y7027500D02*
G75*
G02*
X11965000Y7027500I15000J0D01*
G01*
X12031000Y650000D02*
G75*
G02*
X12001000Y650000I-15000J0D01*
G01*
X12001000Y650000D02*
G75*
G02*
X12031000Y650000I15000J0D01*
G01*
X12065000Y5057500D02*
G75*
G02*
X12035000Y5057500I-15000J0D01*
G01*
X12035000Y5057500D02*
G75*
G02*
X12065000Y5057500I15000J0D01*
G01*
X12115000Y7281500D02*
G75*
G02*
X12085000Y7281500I-15000J0D01*
G01*
X12085000Y7281500D02*
G75*
G02*
X12115000Y7281500I15000J0D01*
G01*
X12238500Y7626500D02*
G75*
G02*
X12208500Y7626500I-15000J0D01*
G01*
X12208500Y7626500D02*
G75*
G02*
X12238500Y7626500I15000J0D01*
G01*
X12238500Y6776500D02*
G75*
G02*
X12208500Y6776500I-15000J0D01*
G01*
X12208500Y6776500D02*
G75*
G02*
X12238500Y6776500I15000J0D01*
G01*
X12365500Y7400500D02*
G75*
G02*
X12335500Y7400500I-15000J0D01*
G01*
X12335500Y7400500D02*
G75*
G02*
X12365500Y7400500I15000J0D01*
G01*
X12415000Y4950000D02*
G75*
G02*
X12385000Y4950000I-15000J0D01*
G01*
X12385000Y4950000D02*
G75*
G02*
X12415000Y4950000I15000J0D01*
G01*
X12492500Y8000000D02*
G75*
G02*
X12462500Y8000000I-15000J0D01*
G01*
X12462500Y8000000D02*
G75*
G02*
X12492500Y8000000I15000J0D01*
G01*
X12615000Y4550000D02*
G75*
G02*
X12585000Y4550000I-15000J0D01*
G01*
X12585000Y4550000D02*
G75*
G02*
X12615000Y4550000I15000J0D01*
G01*
X12619500Y7654500D02*
G75*
G02*
X12589500Y7654500I-15000J0D01*
G01*
X12589500Y7654500D02*
G75*
G02*
X12619500Y7654500I15000J0D01*
G01*
X12715000Y8093500D02*
G75*
G02*
X12685000Y8093500I-15000J0D01*
G01*
X12685000Y8093500D02*
G75*
G02*
X12715000Y8093500I15000J0D01*
G01*
X12965000Y5700000D02*
G75*
G02*
X12935000Y5700000I-15000J0D01*
G01*
X12935000Y5700000D02*
G75*
G02*
X12965000Y5700000I15000J0D01*
G01*
X12965000Y5600000D02*
G75*
G02*
X12935000Y5600000I-15000J0D01*
G01*
X12935000Y5600000D02*
G75*
G02*
X12965000Y5600000I15000J0D01*
G01*
X13086000Y9229000D02*
G75*
G02*
X13056000Y9229000I-15000J0D01*
G01*
X13056000Y9229000D02*
G75*
G02*
X13086000Y9229000I15000J0D01*
G01*
X13090000Y9102000D02*
G75*
G02*
X13060000Y9102000I-15000J0D01*
G01*
X13060000Y9102000D02*
G75*
G02*
X13090000Y9102000I15000J0D01*
G01*
X13090000Y8975000D02*
G75*
G02*
X13060000Y8975000I-15000J0D01*
G01*
X13060000Y8975000D02*
G75*
G02*
X13090000Y8975000I15000J0D01*
G01*
X13090000Y8213000D02*
G75*
G02*
X13060000Y8213000I-15000J0D01*
G01*
X13060000Y8213000D02*
G75*
G02*
X13090000Y8213000I15000J0D01*
G01*
X13092000Y8848000D02*
G75*
G02*
X13062000Y8848000I-15000J0D01*
G01*
X13062000Y8848000D02*
G75*
G02*
X13092000Y8848000I15000J0D01*
G01*
X13115000Y5600000D02*
G75*
G02*
X13085000Y5600000I-15000J0D01*
G01*
X13085000Y5600000D02*
G75*
G02*
X13115000Y5600000I15000J0D01*
G01*
X13215000Y4163750D02*
G75*
G02*
X13185000Y4163750I-15000J0D01*
G01*
X13185000Y4163750D02*
G75*
G02*
X13215000Y4163750I15000J0D01*
G01*
X13265000Y5895000D02*
G75*
G02*
X13235000Y5895000I-15000J0D01*
G01*
X13235000Y5895000D02*
G75*
G02*
X13265000Y5895000I15000J0D01*
G01*
X13265000Y5600000D02*
G75*
G02*
X13235000Y5600000I-15000J0D01*
G01*
X13235000Y5600000D02*
G75*
G02*
X13265000Y5600000I15000J0D01*
G01*
X13265000Y4300000D02*
G75*
G02*
X13235000Y4300000I-15000J0D01*
G01*
X13235000Y4300000D02*
G75*
G02*
X13265000Y4300000I15000J0D01*
G01*
X13415000Y5600000D02*
G75*
G02*
X13385000Y5600000I-15000J0D01*
G01*
X13385000Y5600000D02*
G75*
G02*
X13415000Y5600000I15000J0D01*
G01*
X13465000Y9356000D02*
G75*
G02*
X13435000Y9356000I-15000J0D01*
G01*
X13435000Y9356000D02*
G75*
G02*
X13465000Y9356000I15000J0D01*
G01*
X13510000Y3800000D02*
G75*
G02*
X13480000Y3800000I-15000J0D01*
G01*
X13480000Y3800000D02*
G75*
G02*
X13510000Y3800000I15000J0D01*
G01*
X13515000Y8721000D02*
G75*
G02*
X13485000Y8721000I-15000J0D01*
G01*
X13485000Y8721000D02*
G75*
G02*
X13515000Y8721000I15000J0D01*
G01*
X13520000Y7645000D02*
G75*
G02*
X13490000Y7645000I-15000J0D01*
G01*
X13490000Y7645000D02*
G75*
G02*
X13520000Y7645000I15000J0D01*
G01*
X13565000Y5895000D02*
G75*
G02*
X13535000Y5895000I-15000J0D01*
G01*
X13535000Y5895000D02*
G75*
G02*
X13565000Y5895000I15000J0D01*
G01*
X13565000Y5600000D02*
G75*
G02*
X13535000Y5600000I-15000J0D01*
G01*
X13535000Y5600000D02*
G75*
G02*
X13565000Y5600000I15000J0D01*
G01*
X13615000Y7100000D02*
G75*
G02*
X13585000Y7100000I-15000J0D01*
G01*
X13585000Y7100000D02*
G75*
G02*
X13615000Y7100000I15000J0D01*
G01*
X13615000Y6700000D02*
G75*
G02*
X13585000Y6700000I-15000J0D01*
G01*
X13585000Y6700000D02*
G75*
G02*
X13615000Y6700000I15000J0D01*
G01*
X13615000Y4250000D02*
G75*
G02*
X13585000Y4250000I-15000J0D01*
G01*
X13585000Y4250000D02*
G75*
G02*
X13615000Y4250000I15000J0D01*
G01*
X13615000Y4150000D02*
G75*
G02*
X13585000Y4150000I-15000J0D01*
G01*
X13585000Y4150000D02*
G75*
G02*
X13615000Y4150000I15000J0D01*
G01*
X13615000Y4050000D02*
G75*
G02*
X13585000Y4050000I-15000J0D01*
G01*
X13585000Y4050000D02*
G75*
G02*
X13615000Y4050000I15000J0D01*
G01*
X13615000Y3950000D02*
G75*
G02*
X13585000Y3950000I-15000J0D01*
G01*
X13585000Y3950000D02*
G75*
G02*
X13615000Y3950000I15000J0D01*
G01*
X13615000Y3850000D02*
G75*
G02*
X13585000Y3850000I-15000J0D01*
G01*
X13585000Y3850000D02*
G75*
G02*
X13615000Y3850000I15000J0D01*
G01*
X13615000Y3750000D02*
G75*
G02*
X13585000Y3750000I-15000J0D01*
G01*
X13585000Y3750000D02*
G75*
G02*
X13615000Y3750000I15000J0D01*
G01*
X13710000Y7600000D02*
G75*
G02*
X13680000Y7600000I-15000J0D01*
G01*
X13680000Y7600000D02*
G75*
G02*
X13710000Y7600000I15000J0D01*
G01*
X13715000Y5600000D02*
G75*
G02*
X13685000Y5600000I-15000J0D01*
G01*
X13685000Y5600000D02*
G75*
G02*
X13715000Y5600000I15000J0D01*
G01*
X13715000Y4050000D02*
G75*
G02*
X13685000Y4050000I-15000J0D01*
G01*
X13685000Y4050000D02*
G75*
G02*
X13715000Y4050000I15000J0D01*
G01*
X13715000Y3750000D02*
G75*
G02*
X13685000Y3750000I-15000J0D01*
G01*
X13685000Y3750000D02*
G75*
G02*
X13715000Y3750000I15000J0D01*
G01*
X13815000Y9610000D02*
G75*
G02*
X13785000Y9610000I-15000J0D01*
G01*
X13785000Y9610000D02*
G75*
G02*
X13815000Y9610000I15000J0D01*
G01*
X13815000Y9460000D02*
G75*
G02*
X13785000Y9460000I-15000J0D01*
G01*
X13785000Y9460000D02*
G75*
G02*
X13815000Y9460000I15000J0D01*
G01*
X13865000Y5700000D02*
G75*
G02*
X13835000Y5700000I-15000J0D01*
G01*
X13835000Y5700000D02*
G75*
G02*
X13865000Y5700000I15000J0D01*
G01*
X13865000Y5600000D02*
G75*
G02*
X13835000Y5600000I-15000J0D01*
G01*
X13835000Y5600000D02*
G75*
G02*
X13865000Y5600000I15000J0D01*
G01*
X13910000Y4050000D02*
G75*
G02*
X13880000Y4050000I-15000J0D01*
G01*
X13880000Y4050000D02*
G75*
G02*
X13910000Y4050000I15000J0D01*
G01*
X13965000Y8594000D02*
G75*
G02*
X13935000Y8594000I-15000J0D01*
G01*
X13935000Y8594000D02*
G75*
G02*
X13965000Y8594000I15000J0D01*
G01*
X13970000Y7645000D02*
G75*
G02*
X13940000Y7645000I-15000J0D01*
G01*
X13940000Y7645000D02*
G75*
G02*
X13970000Y7645000I15000J0D01*
G01*
X14065000Y7100000D02*
G75*
G02*
X14035000Y7100000I-15000J0D01*
G01*
X14035000Y7100000D02*
G75*
G02*
X14065000Y7100000I15000J0D01*
G01*
X14065000Y6700000D02*
G75*
G02*
X14035000Y6700000I-15000J0D01*
G01*
X14035000Y6700000D02*
G75*
G02*
X14065000Y6700000I15000J0D01*
G01*
X14160000Y7600000D02*
G75*
G02*
X14130000Y7600000I-15000J0D01*
G01*
X14130000Y7600000D02*
G75*
G02*
X14160000Y7600000I15000J0D01*
G01*
X14215000Y8000000D02*
G75*
G02*
X14185000Y8000000I-15000J0D01*
G01*
X14185000Y8000000D02*
G75*
G02*
X14215000Y8000000I15000J0D01*
G01*
X14315000Y5900000D02*
G75*
G02*
X14285000Y5900000I-15000J0D01*
G01*
X14285000Y5900000D02*
G75*
G02*
X14315000Y5900000I15000J0D01*
G01*
X14365000Y6950000D02*
G75*
G02*
X14335000Y6950000I-15000J0D01*
G01*
X14335000Y6950000D02*
G75*
G02*
X14365000Y6950000I15000J0D01*
G01*
X14425000Y7535000D02*
G75*
G02*
X14395000Y7535000I-15000J0D01*
G01*
X14395000Y7535000D02*
G75*
G02*
X14425000Y7535000I15000J0D01*
G01*
X14540000Y8182500D02*
G75*
G02*
X14510000Y8182500I-15000J0D01*
G01*
X14510000Y8182500D02*
G75*
G02*
X14540000Y8182500I15000J0D01*
G01*
X14565000Y7839450D02*
G75*
G02*
X14535000Y7839450I-15000J0D01*
G01*
X14535000Y7839450D02*
G75*
G02*
X14565000Y7839450I15000J0D01*
G01*
X14665000Y7904450D02*
G75*
G02*
X14635000Y7904450I-15000J0D01*
G01*
X14635000Y7904450D02*
G75*
G02*
X14665000Y7904450I15000J0D01*
G01*
X14950702Y7969450D02*
G75*
G02*
X14920702Y7969450I-15000J0D01*
G01*
X14920702Y7969450D02*
G75*
G02*
X14950702Y7969450I15000J0D01*
G01*
X14950702Y7839450D02*
G75*
G02*
X14920702Y7839450I-15000J0D01*
G01*
X14920702Y7839450D02*
G75*
G02*
X14950702Y7839450I15000J0D01*
G01*
X14950702Y7709450D02*
G75*
G02*
X14920702Y7709450I-15000J0D01*
G01*
X14920702Y7709450D02*
G75*
G02*
X14950702Y7709450I15000J0D01*
G01*
X14950702Y7579450D02*
G75*
G02*
X14920702Y7579450I-15000J0D01*
G01*
X14920702Y7579450D02*
G75*
G02*
X14950702Y7579450I15000J0D01*
G01*
X14950702Y7220150D02*
G75*
G02*
X14920702Y7220150I-15000J0D01*
G01*
X14920702Y7220150D02*
G75*
G02*
X14950702Y7220150I15000J0D01*
G01*
X14950702Y7090150D02*
G75*
G02*
X14920702Y7090150I-15000J0D01*
G01*
X14920702Y7090150D02*
G75*
G02*
X14950702Y7090150I15000J0D01*
G01*
X14950702Y6960150D02*
G75*
G02*
X14920702Y6960150I-15000J0D01*
G01*
X14920702Y6960150D02*
G75*
G02*
X14950702Y6960150I15000J0D01*
G01*
X14950702Y6830150D02*
G75*
G02*
X14920702Y6830150I-15000J0D01*
G01*
X14920702Y6830150D02*
G75*
G02*
X14950702Y6830150I15000J0D01*
G01*
X14950702Y6700150D02*
G75*
G02*
X14920702Y6700150I-15000J0D01*
G01*
X14920702Y6700150D02*
G75*
G02*
X14950702Y6700150I15000J0D01*
G01*
X14965000Y9000000D02*
G75*
G02*
X14935000Y9000000I-15000J0D01*
G01*
X14935000Y9000000D02*
G75*
G02*
X14965000Y9000000I15000J0D01*
G01*
X14969000Y9254000D02*
G75*
G02*
X14939000Y9254000I-15000J0D01*
G01*
X14939000Y9254000D02*
G75*
G02*
X14969000Y9254000I15000J0D01*
G01*
X14990000Y5425000D02*
G75*
G02*
X14960000Y5425000I-15000J0D01*
G01*
X14960000Y5425000D02*
G75*
G02*
X14990000Y5425000I15000J0D01*
G01*
X15030702Y7904450D02*
G75*
G02*
X15000702Y7904450I-15000J0D01*
G01*
X15000702Y7904450D02*
G75*
G02*
X15030702Y7904450I15000J0D01*
G01*
X15030702Y7774450D02*
G75*
G02*
X15000702Y7774450I-15000J0D01*
G01*
X15000702Y7774450D02*
G75*
G02*
X15030702Y7774450I15000J0D01*
G01*
X15030702Y7514450D02*
G75*
G02*
X15000702Y7514450I-15000J0D01*
G01*
X15000702Y7514450D02*
G75*
G02*
X15030702Y7514450I15000J0D01*
G01*
X15030702Y7384450D02*
G75*
G02*
X15000702Y7384450I-15000J0D01*
G01*
X15000702Y7384450D02*
G75*
G02*
X15030702Y7384450I15000J0D01*
G01*
X15030702Y7155150D02*
G75*
G02*
X15000702Y7155150I-15000J0D01*
G01*
X15000702Y7155150D02*
G75*
G02*
X15030702Y7155150I15000J0D01*
G01*
X15030702Y7025150D02*
G75*
G02*
X15000702Y7025150I-15000J0D01*
G01*
X15000702Y7025150D02*
G75*
G02*
X15030702Y7025150I15000J0D01*
G01*
X15030702Y6895150D02*
G75*
G02*
X15000702Y6895150I-15000J0D01*
G01*
X15000702Y6895150D02*
G75*
G02*
X15030702Y6895150I15000J0D01*
G01*
X15030702Y6765150D02*
G75*
G02*
X15000702Y6765150I-15000J0D01*
G01*
X15000702Y6765150D02*
G75*
G02*
X15030702Y6765150I15000J0D01*
G01*
X15095002Y8439800D02*
G75*
G02*
X15065002Y8439800I-15000J0D01*
G01*
X15065002Y8439800D02*
G75*
G02*
X15095002Y8439800I15000J0D01*
G01*
X15095002Y6139800D02*
G75*
G02*
X15065002Y6139800I-15000J0D01*
G01*
X15065002Y6139800D02*
G75*
G02*
X15095002Y6139800I15000J0D01*
G01*
X15105502Y5492500D02*
G75*
G02*
X15075502Y5492500I-15000J0D01*
G01*
X15075502Y5492500D02*
G75*
G02*
X15105502Y5492500I15000J0D01*
G01*
X15210503Y5557500D02*
G75*
G02*
X15180503Y5557500I-15000J0D01*
G01*
X15180503Y5557500D02*
G75*
G02*
X15210503Y5557500I15000J0D01*
G01*
X15215000Y9650000D02*
G75*
G02*
X15185000Y9650000I-15000J0D01*
G01*
X15185000Y9650000D02*
G75*
G02*
X15215000Y9650000I15000J0D01*
G01*
X15285002Y8439800D02*
G75*
G02*
X15255002Y8439800I-15000J0D01*
G01*
X15255002Y8439800D02*
G75*
G02*
X15285002Y8439800I15000J0D01*
G01*
X15285002Y6139800D02*
G75*
G02*
X15255002Y6139800I-15000J0D01*
G01*
X15255002Y6139800D02*
G75*
G02*
X15285002Y6139800I15000J0D01*
G01*
X15326502Y7446450D02*
G75*
G02*
X15296502Y7446450I-15000J0D01*
G01*
X15296502Y7446450D02*
G75*
G02*
X15326502Y7446450I15000J0D01*
G01*
X15332516Y2823268D02*
G75*
G02*
X15302516Y2823268I-15000J0D01*
G01*
X15302516Y2823268D02*
G75*
G02*
X15332516Y2823268I15000J0D01*
G01*
X15365000Y3200000D02*
G75*
G02*
X15335000Y3200000I-15000J0D01*
G01*
X15335000Y3200000D02*
G75*
G02*
X15365000Y3200000I15000J0D01*
G01*
X15383500Y650000D02*
G75*
G02*
X15353500Y650000I-15000J0D01*
G01*
X15353500Y650000D02*
G75*
G02*
X15383500Y650000I15000J0D01*
G01*
X15406502Y7641450D02*
G75*
G02*
X15376502Y7641450I-15000J0D01*
G01*
X15376502Y7641450D02*
G75*
G02*
X15406502Y7641450I15000J0D01*
G01*
X15475002Y6139800D02*
G75*
G02*
X15445002Y6139800I-15000J0D01*
G01*
X15445002Y6139800D02*
G75*
G02*
X15475002Y6139800I15000J0D01*
G01*
X15496971Y3549534D02*
G75*
G02*
X15466971Y3549534I-15000J0D01*
G01*
X15466971Y3549534D02*
G75*
G02*
X15496971Y3549534I15000J0D01*
G01*
X15560702Y7644450D02*
G75*
G02*
X15530702Y7644450I-15000J0D01*
G01*
X15530702Y7644450D02*
G75*
G02*
X15560702Y7644450I15000J0D01*
G01*
X15560702Y7384450D02*
G75*
G02*
X15530702Y7384450I-15000J0D01*
G01*
X15530702Y7384450D02*
G75*
G02*
X15560702Y7384450I15000J0D01*
G01*
X15560702Y6895150D02*
G75*
G02*
X15530702Y6895150I-15000J0D01*
G01*
X15530702Y6895150D02*
G75*
G02*
X15560702Y6895150I15000J0D01*
G01*
X15605002Y6579800D02*
G75*
G02*
X15575002Y6579800I-15000J0D01*
G01*
X15575002Y6579800D02*
G75*
G02*
X15605002Y6579800I15000J0D01*
G01*
X15640702Y6830150D02*
G75*
G02*
X15610702Y6830150I-15000J0D01*
G01*
X15610702Y6830150D02*
G75*
G02*
X15640702Y6830150I15000J0D01*
G01*
X15665002Y8439800D02*
G75*
G02*
X15635002Y8439800I-15000J0D01*
G01*
X15635002Y8439800D02*
G75*
G02*
X15665002Y8439800I15000J0D01*
G01*
X15665002Y6139800D02*
G75*
G02*
X15635002Y6139800I-15000J0D01*
G01*
X15635002Y6139800D02*
G75*
G02*
X15665002Y6139800I15000J0D01*
G01*
X15736385Y4207319D02*
G75*
G02*
X15706385Y4207319I-15000J0D01*
G01*
X15706385Y4207319D02*
G75*
G02*
X15736385Y4207319I15000J0D01*
G01*
X15855002Y8439800D02*
G75*
G02*
X15825002Y8439800I-15000J0D01*
G01*
X15825002Y8439800D02*
G75*
G02*
X15855002Y8439800I15000J0D01*
G01*
X15855002Y6139800D02*
G75*
G02*
X15825002Y6139800I-15000J0D01*
G01*
X15825002Y6139800D02*
G75*
G02*
X15855002Y6139800I15000J0D01*
G01*
X15936502Y7836450D02*
G75*
G02*
X15906502Y7836450I-15000J0D01*
G01*
X15906502Y7836450D02*
G75*
G02*
X15936502Y7836450I15000J0D01*
G01*
X15936502Y7706450D02*
G75*
G02*
X15906502Y7706450I-15000J0D01*
G01*
X15906502Y7706450D02*
G75*
G02*
X15936502Y7706450I15000J0D01*
G01*
X15936502Y7576450D02*
G75*
G02*
X15906502Y7576450I-15000J0D01*
G01*
X15906502Y7576450D02*
G75*
G02*
X15936502Y7576450I15000J0D01*
G01*
X15936502Y7446450D02*
G75*
G02*
X15906502Y7446450I-15000J0D01*
G01*
X15906502Y7446450D02*
G75*
G02*
X15936502Y7446450I15000J0D01*
G01*
X15936502Y7022150D02*
G75*
G02*
X15906502Y7022150I-15000J0D01*
G01*
X15906502Y7022150D02*
G75*
G02*
X15936502Y7022150I15000J0D01*
G01*
X15936502Y6697150D02*
G75*
G02*
X15906502Y6697150I-15000J0D01*
G01*
X15906502Y6697150D02*
G75*
G02*
X15936502Y6697150I15000J0D01*
G01*
X15975799Y4865104D02*
G75*
G02*
X15945799Y4865104I-15000J0D01*
G01*
X15945799Y4865104D02*
G75*
G02*
X15975799Y4865104I15000J0D01*
G01*
X16016502Y7511450D02*
G75*
G02*
X15986502Y7511450I-15000J0D01*
G01*
X15986502Y7511450D02*
G75*
G02*
X16016502Y7511450I15000J0D01*
G01*
X16016502Y7152150D02*
G75*
G02*
X15986502Y7152150I-15000J0D01*
G01*
X15986502Y7152150D02*
G75*
G02*
X16016502Y7152150I15000J0D01*
G01*
X16016502Y6762150D02*
G75*
G02*
X15986502Y6762150I-15000J0D01*
G01*
X15986502Y6762150D02*
G75*
G02*
X16016502Y6762150I15000J0D01*
G01*
X16016502Y6632150D02*
G75*
G02*
X15986502Y6632150I-15000J0D01*
G01*
X15986502Y6632150D02*
G75*
G02*
X16016502Y6632150I15000J0D01*
G01*
X16215213Y5522889D02*
G75*
G02*
X16185213Y5522889I-15000J0D01*
G01*
X16185213Y5522889D02*
G75*
G02*
X16215213Y5522889I15000J0D01*
G01*
X16444302Y7803661D02*
G75*
G02*
X16414302Y7803661I-15000J0D01*
G01*
X16414302Y7803661D02*
G75*
G02*
X16444302Y7803661I15000J0D01*
G01*
X16444302Y7382539D02*
G75*
G02*
X16414302Y7382539I-15000J0D01*
G01*
X16414302Y7382539D02*
G75*
G02*
X16444302Y7382539I15000J0D01*
G01*
X16454627Y6180673D02*
G75*
G02*
X16424627Y6180673I-15000J0D01*
G01*
X16424627Y6180673D02*
G75*
G02*
X16454627Y6180673I15000J0D01*
G01*
X16694041Y6838458D02*
G75*
G02*
X16664041Y6838458I-15000J0D01*
G01*
X16664041Y6838458D02*
G75*
G02*
X16694041Y6838458I15000J0D01*
G01*
X16933455Y7496243D02*
G75*
G02*
X16903455Y7496243I-15000J0D01*
G01*
X16903455Y7496243D02*
G75*
G02*
X16933455Y7496243I15000J0D01*
G01*
X17691400Y8122668D02*
G75*
G02*
X17661400Y8122668I-15000J0D01*
G01*
X17661400Y8122668D02*
G75*
G02*
X17691400Y8122668I15000J0D01*
G01*
X18391400Y8117668D02*
G75*
G02*
X18361400Y8117668I-15000J0D01*
G01*
X18361400Y8117668D02*
G75*
G02*
X18391400Y8117668I15000J0D01*
G01*
X18420335Y5999400D02*
G75*
G02*
X18390335Y5999400I-15000J0D01*
G01*
X18390335Y5999400D02*
G75*
G02*
X18420335Y5999400I15000J0D01*
G01*
X18623335Y5594500D02*
G75*
G02*
X18593335Y5594500I-15000J0D01*
G01*
X18593335Y5594500D02*
G75*
G02*
X18623335Y5594500I15000J0D01*
G01*
X18724796Y5700000D02*
G75*
G02*
X18694796Y5700000I-15000J0D01*
G01*
X18694796Y5700000D02*
G75*
G02*
X18724796Y5700000I15000J0D01*
G01*
X18736000Y650000D02*
G75*
G02*
X18706000Y650000I-15000J0D01*
G01*
X18706000Y650000D02*
G75*
G02*
X18736000Y650000I15000J0D01*
G01*
X18792835Y5450000D02*
G75*
G02*
X18762835Y5450000I-15000J0D01*
G01*
X18762835Y5450000D02*
G75*
G02*
X18792835Y5450000I15000J0D01*
G01*
X18792835Y5320000D02*
G75*
G02*
X18762835Y5320000I-15000J0D01*
G01*
X18762835Y5320000D02*
G75*
G02*
X18792835Y5320000I15000J0D01*
G01*
X18792835Y5190000D02*
G75*
G02*
X18762835Y5190000I-15000J0D01*
G01*
X18762835Y5190000D02*
G75*
G02*
X18792835Y5190000I15000J0D01*
G01*
X18792835Y4995000D02*
G75*
G02*
X18762835Y4995000I-15000J0D01*
G01*
X18762835Y4995000D02*
G75*
G02*
X18792835Y4995000I15000J0D01*
G01*
X18897835Y5385000D02*
G75*
G02*
X18867835Y5385000I-15000J0D01*
G01*
X18867835Y5385000D02*
G75*
G02*
X18897835Y5385000I15000J0D01*
G01*
X18915000Y4000000D02*
G75*
G02*
X18885000Y4000000I-15000J0D01*
G01*
X18885000Y4000000D02*
G75*
G02*
X18915000Y4000000I15000J0D01*
G01*
X18925302Y5080000D02*
G75*
G02*
X18895302Y5080000I-15000J0D01*
G01*
X18895302Y5080000D02*
G75*
G02*
X18925302Y5080000I15000J0D01*
G01*
X18928335Y5999400D02*
G75*
G02*
X18898335Y5999400I-15000J0D01*
G01*
X18898335Y5999400D02*
G75*
G02*
X18928335Y5999400I15000J0D01*
G01*
X18986916Y4825500D02*
G75*
G02*
X18956916Y4825500I-15000J0D01*
G01*
X18956916Y4825500D02*
G75*
G02*
X18986916Y4825500I15000J0D01*
G01*
X19015000Y5550000D02*
G75*
G02*
X18985000Y5550000I-15000J0D01*
G01*
X18985000Y5550000D02*
G75*
G02*
X19015000Y5550000I15000J0D01*
G01*
X19063835Y4995000D02*
G75*
G02*
X19033835Y4995000I-15000J0D01*
G01*
X19033835Y4995000D02*
G75*
G02*
X19063835Y4995000I15000J0D01*
G01*
X19091400Y8117668D02*
G75*
G02*
X19061400Y8117668I-15000J0D01*
G01*
X19061400Y8117668D02*
G75*
G02*
X19091400Y8117668I15000J0D01*
G01*
X19233335Y4825500D02*
G75*
G02*
X19203335Y4825500I-15000J0D01*
G01*
X19203335Y4825500D02*
G75*
G02*
X19233335Y4825500I15000J0D01*
G01*
X19273368Y5908368D02*
G75*
G02*
X19243368Y5908368I-15000J0D01*
G01*
X19243368Y5908368D02*
G75*
G02*
X19273368Y5908368I15000J0D01*
G01*
X19791400Y8117668D02*
G75*
G02*
X19761400Y8117668I-15000J0D01*
G01*
X19761400Y8117668D02*
G75*
G02*
X19791400Y8117668I15000J0D01*
G01*
X20120335Y5999400D02*
G75*
G02*
X20090335Y5999400I-15000J0D01*
G01*
X20090335Y5999400D02*
G75*
G02*
X20120335Y5999400I15000J0D01*
G01*
X20165000Y5000000D02*
G75*
G02*
X20135000Y5000000I-15000J0D01*
G01*
X20135000Y5000000D02*
G75*
G02*
X20165000Y5000000I15000J0D01*
G01*
X20323335Y5594500D02*
G75*
G02*
X20293335Y5594500I-15000J0D01*
G01*
X20293335Y5594500D02*
G75*
G02*
X20323335Y5594500I15000J0D01*
G01*
X20424796Y5700000D02*
G75*
G02*
X20394796Y5700000I-15000J0D01*
G01*
X20394796Y5700000D02*
G75*
G02*
X20424796Y5700000I15000J0D01*
G01*
X20491400Y8117668D02*
G75*
G02*
X20461400Y8117668I-15000J0D01*
G01*
X20461400Y8117668D02*
G75*
G02*
X20491400Y8117668I15000J0D01*
G01*
X20492835Y4995000D02*
G75*
G02*
X20462835Y4995000I-15000J0D01*
G01*
X20462835Y4995000D02*
G75*
G02*
X20492835Y4995000I15000J0D01*
G01*
X20563602Y4508500D02*
G75*
G02*
X20533602Y4508500I-15000J0D01*
G01*
X20533602Y4508500D02*
G75*
G02*
X20563602Y4508500I15000J0D01*
G01*
X20572835Y5450000D02*
G75*
G02*
X20542835Y5450000I-15000J0D01*
G01*
X20542835Y5450000D02*
G75*
G02*
X20572835Y5450000I15000J0D01*
G01*
X20572835Y5320000D02*
G75*
G02*
X20542835Y5320000I-15000J0D01*
G01*
X20542835Y5320000D02*
G75*
G02*
X20572835Y5320000I15000J0D01*
G01*
X20628335Y5999400D02*
G75*
G02*
X20598335Y5999400I-15000J0D01*
G01*
X20598335Y5999400D02*
G75*
G02*
X20628335Y5999400I15000J0D01*
G01*
X20628335Y3920600D02*
G75*
G02*
X20598335Y3920600I-15000J0D01*
G01*
X20598335Y3920600D02*
G75*
G02*
X20628335Y3920600I15000J0D01*
G01*
X20647869Y5222500D02*
G75*
G02*
X20617869Y5222500I-15000J0D01*
G01*
X20617869Y5222500D02*
G75*
G02*
X20647869Y5222500I15000J0D01*
G01*
X20667002Y4213267D02*
G75*
G02*
X20637002Y4213267I-15000J0D01*
G01*
X20637002Y4213267D02*
G75*
G02*
X20667002Y4213267I15000J0D01*
G01*
X20677835Y5385000D02*
G75*
G02*
X20647835Y5385000I-15000J0D01*
G01*
X20647835Y5385000D02*
G75*
G02*
X20677835Y5385000I15000J0D01*
G01*
X20754102Y5156200D02*
G75*
G02*
X20724102Y5156200I-15000J0D01*
G01*
X20724102Y5156200D02*
G75*
G02*
X20754102Y5156200I15000J0D01*
G01*
X20882335Y3920600D02*
G75*
G02*
X20852335Y3920600I-15000J0D01*
G01*
X20852335Y3920600D02*
G75*
G02*
X20882335Y3920600I15000J0D01*
G01*
X20964700Y650300D02*
G75*
G02*
X20934700Y650300I-15000J0D01*
G01*
X20934700Y650300D02*
G75*
G02*
X20964700Y650300I15000J0D01*
G01*
X20973368Y5908368D02*
G75*
G02*
X20943368Y5908368I-15000J0D01*
G01*
X20943368Y5908368D02*
G75*
G02*
X20973368Y5908368I15000J0D01*
G01*
X21191400Y8114168D02*
G75*
G02*
X21161400Y8114168I-15000J0D01*
G01*
X21161400Y8114168D02*
G75*
G02*
X21191400Y8114168I15000J0D01*
G01*
X21820335Y5999400D02*
G75*
G02*
X21790335Y5999400I-15000J0D01*
G01*
X21790335Y5999400D02*
G75*
G02*
X21820335Y5999400I15000J0D01*
G01*
X21865000Y5000000D02*
G75*
G02*
X21835000Y5000000I-15000J0D01*
G01*
X21835000Y5000000D02*
G75*
G02*
X21865000Y5000000I15000J0D01*
G01*
X21891400Y8114168D02*
G75*
G02*
X21861400Y8114168I-15000J0D01*
G01*
X21861400Y8114168D02*
G75*
G02*
X21891400Y8114168I15000J0D01*
G01*
X22023335Y5594500D02*
G75*
G02*
X21993335Y5594500I-15000J0D01*
G01*
X21993335Y5594500D02*
G75*
G02*
X22023335Y5594500I15000J0D01*
G01*
X22124796Y5700000D02*
G75*
G02*
X22094796Y5700000I-15000J0D01*
G01*
X22094796Y5700000D02*
G75*
G02*
X22124796Y5700000I15000J0D01*
G01*
X22192835Y4995000D02*
G75*
G02*
X22162835Y4995000I-15000J0D01*
G01*
X22162835Y4995000D02*
G75*
G02*
X22192835Y4995000I15000J0D01*
G01*
X22263602Y4508500D02*
G75*
G02*
X22233602Y4508500I-15000J0D01*
G01*
X22233602Y4508500D02*
G75*
G02*
X22263602Y4508500I15000J0D01*
G01*
X22272835Y5450000D02*
G75*
G02*
X22242835Y5450000I-15000J0D01*
G01*
X22242835Y5450000D02*
G75*
G02*
X22272835Y5450000I15000J0D01*
G01*
X22272835Y5320000D02*
G75*
G02*
X22242835Y5320000I-15000J0D01*
G01*
X22242835Y5320000D02*
G75*
G02*
X22272835Y5320000I15000J0D01*
G01*
X22328335Y5999400D02*
G75*
G02*
X22298335Y5999400I-15000J0D01*
G01*
X22298335Y5999400D02*
G75*
G02*
X22328335Y5999400I15000J0D01*
G01*
X22328335Y3920600D02*
G75*
G02*
X22298335Y3920600I-15000J0D01*
G01*
X22298335Y3920600D02*
G75*
G02*
X22328335Y3920600I15000J0D01*
G01*
X22357402Y5220386D02*
G75*
G02*
X22327402Y5220386I-15000J0D01*
G01*
X22327402Y5220386D02*
G75*
G02*
X22357402Y5220386I15000J0D01*
G01*
X22367002Y4213267D02*
G75*
G02*
X22337002Y4213267I-15000J0D01*
G01*
X22337002Y4213267D02*
G75*
G02*
X22367002Y4213267I15000J0D01*
G01*
X22377835Y5385000D02*
G75*
G02*
X22347835Y5385000I-15000J0D01*
G01*
X22347835Y5385000D02*
G75*
G02*
X22377835Y5385000I15000J0D01*
G01*
X22448871Y5552500D02*
G75*
G02*
X22418871Y5552500I-15000J0D01*
G01*
X22418871Y5552500D02*
G75*
G02*
X22448871Y5552500I15000J0D01*
G01*
X22582335Y3920600D02*
G75*
G02*
X22552335Y3920600I-15000J0D01*
G01*
X22552335Y3920600D02*
G75*
G02*
X22582335Y3920600I15000J0D01*
G01*
X22591400Y8114168D02*
G75*
G02*
X22561400Y8114168I-15000J0D01*
G01*
X22561400Y8114168D02*
G75*
G02*
X22591400Y8114168I15000J0D01*
G01*
X22698368Y5883368D02*
G75*
G02*
X22668368Y5883368I-15000J0D01*
G01*
X22668368Y5883368D02*
G75*
G02*
X22698368Y5883368I15000J0D01*
G01*
X23193400Y650000D02*
G75*
G02*
X23163400Y650000I-15000J0D01*
G01*
X23163400Y650000D02*
G75*
G02*
X23193400Y650000I15000J0D01*
G01*
X23291400Y8122668D02*
G75*
G02*
X23261400Y8122668I-15000J0D01*
G01*
X23261400Y8122668D02*
G75*
G02*
X23291400Y8122668I15000J0D01*
G01*
X23991400Y8122668D02*
G75*
G02*
X23961400Y8122668I-15000J0D01*
G01*
X23961400Y8122668D02*
G75*
G02*
X23991400Y8122668I15000J0D01*
G01*
X24691400Y8122668D02*
G75*
G02*
X24661400Y8122668I-15000J0D01*
G01*
X24661400Y8122668D02*
G75*
G02*
X24691400Y8122668I15000J0D01*
G01*
X24890000Y7950000D02*
G75*
G02*
X24860000Y7950000I-15000J0D01*
G01*
X24860000Y7950000D02*
G75*
G02*
X24890000Y7950000I15000J0D01*
G01*
X25422100Y650000D02*
G75*
G02*
X25392100Y650000I-15000J0D01*
G01*
X25392100Y650000D02*
G75*
G02*
X25422100Y650000I15000J0D01*
G01*
X27650800Y664200D02*
G75*
G02*
X27620800Y664200I-15000J0D01*
G01*
X27620800Y664200D02*
G75*
G02*
X27650800Y664200I15000J0D01*
G01*
X28843500Y8500000D02*
G75*
G02*
X28813500Y8500000I-15000J0D01*
G01*
X28813500Y8500000D02*
G75*
G02*
X28843500Y8500000I15000J0D01*
G01*
X28843500Y7121500D02*
G75*
G02*
X28813500Y7121500I-15000J0D01*
G01*
X28813500Y7121500D02*
G75*
G02*
X28843500Y7121500I15000J0D01*
G01*
X28843500Y5721500D02*
G75*
G02*
X28813500Y5721500I-15000J0D01*
G01*
X28813500Y5721500D02*
G75*
G02*
X28843500Y5721500I15000J0D01*
G01*
X28843500Y4321500D02*
G75*
G02*
X28813500Y4321500I-15000J0D01*
G01*
X28813500Y4321500D02*
G75*
G02*
X28843500Y4321500I15000J0D01*
G01*
X28908600Y2929900D02*
G75*
G02*
X28878600Y2929900I-15000J0D01*
G01*
X28878600Y2929900D02*
G75*
G02*
X28908600Y2929900I15000J0D01*
G01*
X29765000Y8250000D02*
G75*
G02*
X29735000Y8250000I-15000J0D01*
G01*
X29735000Y8250000D02*
G75*
G02*
X29765000Y8250000I15000J0D01*
G01*
X29765000Y6850000D02*
G75*
G02*
X29735000Y6850000I-15000J0D01*
G01*
X29735000Y6850000D02*
G75*
G02*
X29765000Y6850000I15000J0D01*
G01*
X29765000Y5450000D02*
G75*
G02*
X29735000Y5450000I-15000J0D01*
G01*
X29735000Y5450000D02*
G75*
G02*
X29765000Y5450000I15000J0D01*
G01*
X29765000Y4841500D02*
G75*
G02*
X29735000Y4841500I-15000J0D01*
G01*
X29735000Y4841500D02*
G75*
G02*
X29765000Y4841500I15000J0D01*
G01*
X29765000Y4050000D02*
G75*
G02*
X29735000Y4050000I-15000J0D01*
G01*
X29735000Y4050000D02*
G75*
G02*
X29765000Y4050000I15000J0D01*
G01*
X29768500Y6246500D02*
G75*
G02*
X29738500Y6246500I-15000J0D01*
G01*
X29738500Y6246500D02*
G75*
G02*
X29768500Y6246500I15000J0D01*
G01*
X29769250Y3445750D02*
G75*
G02*
X29739250Y3445750I-15000J0D01*
G01*
X29739250Y3445750D02*
G75*
G02*
X29769250Y3445750I15000J0D01*
G01*
X29776900Y7654900D02*
G75*
G02*
X29746900Y7654900I-15000J0D01*
G01*
X29746900Y7654900D02*
G75*
G02*
X29776900Y7654900I15000J0D01*
G01*
X29790000Y7950000D02*
G75*
G02*
X29760000Y7950000I-15000J0D01*
G01*
X29760000Y7950000D02*
G75*
G02*
X29790000Y7950000I15000J0D01*
G01*
X29879500Y635500D02*
G75*
G02*
X29849500Y635500I-15000J0D01*
G01*
X29849500Y635500D02*
G75*
G02*
X29879500Y635500I15000J0D01*
G01*
X29940000Y3225000D02*
G75*
G02*
X29910000Y3225000I-15000J0D01*
G01*
X29910000Y3225000D02*
G75*
G02*
X29940000Y3225000I15000J0D01*
G01*
X1667500Y5555000D02*
X1667500Y5515000D01*
X1647500Y5535000D02*
X1687500Y5535000D01*
X1667500Y5455000D02*
X1667500Y5415000D01*
X1647500Y5435000D02*
X1687500Y5435000D01*
X1667500Y5355000D02*
X1667500Y5315000D01*
X1647500Y5335000D02*
X1687500Y5335000D01*
X1667500Y5255000D02*
X1667500Y5215000D01*
X1647500Y5235000D02*
X1687500Y5235000D01*
X1667500Y5155000D02*
X1667500Y5115000D01*
X1647500Y5135000D02*
X1687500Y5135000D01*
X1667500Y5055000D02*
X1667500Y5015000D01*
X1647500Y5035000D02*
X1687500Y5035000D01*
X1667500Y4955000D02*
X1667500Y4915000D01*
X1647500Y4935000D02*
X1687500Y4935000D01*
X1667500Y4855000D02*
X1667500Y4815000D01*
X1647500Y4835000D02*
X1687500Y4835000D01*
X1832500Y5555000D02*
X1832500Y5515000D01*
X1812500Y5535000D02*
X1852500Y5535000D01*
X1832500Y5455000D02*
X1832500Y5415000D01*
X1812500Y5435000D02*
X1852500Y5435000D01*
X1832500Y5355000D02*
X1832500Y5315000D01*
X1812500Y5335000D02*
X1852500Y5335000D01*
X1832500Y5255000D02*
X1832500Y5215000D01*
X1812500Y5235000D02*
X1852500Y5235000D01*
X1832500Y5155000D02*
X1832500Y5115000D01*
X1812500Y5135000D02*
X1852500Y5135000D01*
X1832500Y5055000D02*
X1832500Y5015000D01*
X1812500Y5035000D02*
X1852500Y5035000D01*
X1832500Y4955000D02*
X1832500Y4915000D01*
X1812500Y4935000D02*
X1852500Y4935000D01*
X1832500Y4855000D02*
X1832500Y4815000D01*
X1812500Y4835000D02*
X1852500Y4835000D01*
X1569213Y5586287D02*
X1569213Y5628713D01*
X1526787Y5628713D01*
X1526787Y5586287D01*
X1569213Y5586287D01*
X1518000Y5627500D02*
X1518000Y5587500D01*
X1578000Y5587500D02*
G75*
G02*
X1518000Y5587500I-30000J0D01*
G01*
X1578000Y5587500D02*
X1578000Y5627500D01*
X1578000Y5627500D02*
G75*
G03*
X1518000Y5627500I-30000J0D01*
G01*
X1569213Y4741287D02*
X1569213Y4783713D01*
X1526787Y4783713D01*
X1526787Y4741287D01*
X1569213Y4741287D01*
X1518000Y4782500D02*
X1518000Y4742500D01*
X1578000Y4742500D02*
G75*
G02*
X1518000Y4742500I-30000J0D01*
G01*
X1578000Y4742500D02*
X1578000Y4782500D01*
X1578000Y4782500D02*
G75*
G03*
X1518000Y4782500I-30000J0D01*
G01*
X1973213Y5586287D02*
X1973213Y5628713D01*
X1930787Y5628713D01*
X1930787Y5586287D01*
X1973213Y5586287D01*
X1922000Y5627500D02*
X1922000Y5587500D01*
X1982000Y5587500D02*
G75*
G02*
X1922000Y5587500I-30000J0D01*
G01*
X1982000Y5587500D02*
X1982000Y5627500D01*
X1982000Y5627500D02*
G75*
G03*
X1922000Y5627500I-30000J0D01*
G01*
X1973213Y4741287D02*
X1973213Y4783713D01*
X1930787Y4783713D01*
X1930787Y4741287D01*
X1973213Y4741287D01*
X1922000Y4782500D02*
X1922000Y4742500D01*
X1982000Y4742500D02*
G75*
G02*
X1922000Y4742500I-30000J0D01*
G01*
X1982000Y4742500D02*
X1982000Y4782500D01*
X1982000Y4782500D02*
G75*
G03*
X1922000Y4782500I-30000J0D01*
G01*
X5432000Y9141000D02*
X5472000Y9181000D01*
X5432000Y9221000D01*
X5392000Y9181000D01*
X5432000Y9141000D01*
X5432000Y8379000D02*
X5472000Y8419000D01*
X5432000Y8459000D01*
X5392000Y8419000D01*
X5432000Y8379000D01*
X5432000Y6941000D02*
X5472000Y6981000D01*
X5432000Y7021000D01*
X5392000Y6981000D01*
X5432000Y6941000D01*
X5432000Y6179000D02*
X5472000Y6219000D01*
X5432000Y6259000D01*
X5392000Y6219000D01*
X5432000Y6179000D01*
X5436000Y8041000D02*
X5476000Y8081000D01*
X5436000Y8121000D01*
X5396000Y8081000D01*
X5436000Y8041000D01*
X5436000Y7279000D02*
X5476000Y7319000D01*
X5436000Y7359000D01*
X5396000Y7319000D01*
X5436000Y7279000D01*
X5686000Y9141000D02*
X5726000Y9181000D01*
X5686000Y9221000D01*
X5646000Y9181000D01*
X5686000Y9141000D01*
X5686000Y8379000D02*
X5726000Y8419000D01*
X5686000Y8459000D01*
X5646000Y8419000D01*
X5686000Y8379000D01*
X5686000Y6941000D02*
X5726000Y6981000D01*
X5686000Y7021000D01*
X5646000Y6981000D01*
X5686000Y6941000D01*
X5686000Y6179000D02*
X5726000Y6219000D01*
X5686000Y6259000D01*
X5646000Y6219000D01*
X5686000Y6179000D01*
X5690000Y8041000D02*
X5730000Y8081000D01*
X5690000Y8121000D01*
X5650000Y8081000D01*
X5690000Y8041000D01*
X5690000Y7279000D02*
X5730000Y7319000D01*
X5690000Y7359000D01*
X5650000Y7319000D01*
X5690000Y7279000D01*
X5940000Y9141000D02*
X5980000Y9181000D01*
X5940000Y9221000D01*
X5900000Y9181000D01*
X5940000Y9141000D01*
X5940000Y8379000D02*
X5980000Y8419000D01*
X5940000Y8459000D01*
X5900000Y8419000D01*
X5940000Y8379000D01*
X5940000Y6941000D02*
X5980000Y6981000D01*
X5940000Y7021000D01*
X5900000Y6981000D01*
X5940000Y6941000D01*
X5940000Y6179000D02*
X5980000Y6219000D01*
X5940000Y6259000D01*
X5900000Y6219000D01*
X5940000Y6179000D01*
X5944000Y8041000D02*
X5984000Y8081000D01*
X5944000Y8121000D01*
X5904000Y8081000D01*
X5944000Y8041000D01*
X5944000Y7279000D02*
X5984000Y7319000D01*
X5944000Y7359000D01*
X5904000Y7319000D01*
X5944000Y7279000D01*
X6194000Y9141000D02*
X6234000Y9181000D01*
X6194000Y9221000D01*
X6154000Y9181000D01*
X6194000Y9141000D01*
X6194000Y8379000D02*
X6234000Y8419000D01*
X6194000Y8459000D01*
X6154000Y8419000D01*
X6194000Y8379000D01*
X6194000Y6941000D02*
X6234000Y6981000D01*
X6194000Y7021000D01*
X6154000Y6981000D01*
X6194000Y6941000D01*
X6194000Y6179000D02*
X6234000Y6219000D01*
X6194000Y6259000D01*
X6154000Y6219000D01*
X6194000Y6179000D01*
X6198000Y8041000D02*
X6238000Y8081000D01*
X6198000Y8121000D01*
X6158000Y8081000D01*
X6198000Y8041000D01*
X6198000Y7279000D02*
X6238000Y7319000D01*
X6198000Y7359000D01*
X6158000Y7319000D01*
X6198000Y7279000D01*
X6448000Y9141000D02*
X6488000Y9181000D01*
X6448000Y9221000D01*
X6408000Y9181000D01*
X6448000Y9141000D01*
X6448000Y8379000D02*
X6488000Y8419000D01*
X6448000Y8459000D01*
X6408000Y8419000D01*
X6448000Y8379000D01*
X6448000Y6941000D02*
X6488000Y6981000D01*
X6448000Y7021000D01*
X6408000Y6981000D01*
X6448000Y6941000D01*
X6448000Y6179000D02*
X6488000Y6219000D01*
X6448000Y6259000D01*
X6408000Y6219000D01*
X6448000Y6179000D01*
X6452000Y8041000D02*
X6492000Y8081000D01*
X6452000Y8121000D01*
X6412000Y8081000D01*
X6452000Y8041000D01*
X6452000Y7279000D02*
X6492000Y7319000D01*
X6452000Y7359000D01*
X6412000Y7319000D01*
X6452000Y7279000D01*
X6702000Y9141000D02*
X6742000Y9181000D01*
X6702000Y9221000D01*
X6662000Y9181000D01*
X6702000Y9141000D01*
X6702000Y8379000D02*
X6742000Y8419000D01*
X6702000Y8459000D01*
X6662000Y8419000D01*
X6702000Y8379000D01*
X6702000Y6941000D02*
X6742000Y6981000D01*
X6702000Y7021000D01*
X6662000Y6981000D01*
X6702000Y6941000D01*
X6702000Y6179000D02*
X6742000Y6219000D01*
X6702000Y6259000D01*
X6662000Y6219000D01*
X6702000Y6179000D01*
X6706000Y8041000D02*
X6746000Y8081000D01*
X6706000Y8121000D01*
X6666000Y8081000D01*
X6706000Y8041000D01*
X6706000Y7279000D02*
X6746000Y7319000D01*
X6706000Y7359000D01*
X6666000Y7319000D01*
X6706000Y7279000D01*
X6956000Y9141000D02*
X6996000Y9181000D01*
X6956000Y9221000D01*
X6916000Y9181000D01*
X6956000Y9141000D01*
X6956000Y8379000D02*
X6996000Y8419000D01*
X6956000Y8459000D01*
X6916000Y8419000D01*
X6956000Y8379000D01*
X6956000Y6941000D02*
X6996000Y6981000D01*
X6956000Y7021000D01*
X6916000Y6981000D01*
X6956000Y6941000D01*
X6956000Y6179000D02*
X6996000Y6219000D01*
X6956000Y6259000D01*
X6916000Y6219000D01*
X6956000Y6179000D01*
X6960000Y8041000D02*
X7000000Y8081000D01*
X6960000Y8121000D01*
X6920000Y8081000D01*
X6960000Y8041000D01*
X6960000Y7279000D02*
X7000000Y7319000D01*
X6960000Y7359000D01*
X6920000Y7319000D01*
X6960000Y7279000D01*
X7210000Y9141000D02*
X7250000Y9181000D01*
X7210000Y9221000D01*
X7170000Y9181000D01*
X7210000Y9141000D01*
X7210000Y8379000D02*
X7250000Y8419000D01*
X7210000Y8459000D01*
X7170000Y8419000D01*
X7210000Y8379000D01*
X7210000Y6941000D02*
X7250000Y6981000D01*
X7210000Y7021000D01*
X7170000Y6981000D01*
X7210000Y6941000D01*
X7210000Y6179000D02*
X7250000Y6219000D01*
X7210000Y6259000D01*
X7170000Y6219000D01*
X7210000Y6179000D01*
X7214000Y8041000D02*
X7254000Y8081000D01*
X7214000Y8121000D01*
X7174000Y8081000D01*
X7214000Y8041000D01*
X7214000Y7279000D02*
X7254000Y7319000D01*
X7214000Y7359000D01*
X7174000Y7319000D01*
X7214000Y7279000D01*
X1867702Y9761500D02*
X1967702Y9661500D01*
X1967702Y9761500D02*
X1867702Y9661500D01*
X1967702Y9711500D02*
G75*
G02*
X1867702Y9711500I-50000J0D01*
G01*
X1867702Y9711500D02*
G75*
G02*
X1967702Y9711500I50000J0D01*
G01*
X2121702Y9761500D02*
X2221702Y9661500D01*
X2221702Y9761500D02*
X2121702Y9661500D01*
X2221702Y9711500D02*
G75*
G02*
X2121702Y9711500I-50000J0D01*
G01*
X2121702Y9711500D02*
G75*
G02*
X2221702Y9711500I50000J0D01*
G01*
X2375702Y9761500D02*
X2475702Y9661500D01*
X2475702Y9761500D02*
X2375702Y9661500D01*
X2475702Y9711500D02*
G75*
G02*
X2375702Y9711500I-50000J0D01*
G01*
X2375702Y9711500D02*
G75*
G02*
X2475702Y9711500I50000J0D01*
G01*
D13*
X3562500Y6672500D02*
X3737500Y6497500D01*
X3737500Y6672500D02*
X3562500Y6497500D01*
X3650000Y6672500D02*
X3650000Y6497500D01*
X3562500Y6585000D02*
X3737500Y6585000D01*
X3562500Y6272500D02*
X3737500Y6097500D01*
X3737500Y6272500D02*
X3562500Y6097500D01*
X3650000Y6272500D02*
X3650000Y6097500D01*
X3562500Y6185000D02*
X3737500Y6185000D01*
X3562500Y5872500D02*
X3737500Y5697500D01*
X3737500Y5872500D02*
X3562500Y5697500D01*
X3650000Y5872500D02*
X3650000Y5697500D01*
X3562500Y5785000D02*
X3737500Y5785000D01*
X3562500Y5472500D02*
X3737500Y5297500D01*
X3737500Y5472500D02*
X3562500Y5297500D01*
X3650000Y5472500D02*
X3650000Y5297500D01*
X3562500Y5385000D02*
X3737500Y5385000D01*
X3562500Y5072500D02*
X3737500Y4897500D01*
X3737500Y5072500D02*
X3562500Y4897500D01*
X3650000Y5072500D02*
X3650000Y4897500D01*
X3562500Y4985000D02*
X3737500Y4985000D01*
X3562500Y4672500D02*
X3737500Y4497500D01*
X3737500Y4672500D02*
X3562500Y4497500D01*
X3650000Y4672500D02*
X3650000Y4497500D01*
X3562500Y4585000D02*
X3737500Y4585000D01*
X3562500Y4272500D02*
X3737500Y4097500D01*
X3737500Y4272500D02*
X3562500Y4097500D01*
X3650000Y4272500D02*
X3650000Y4097500D01*
X3562500Y4185000D02*
X3737500Y4185000D01*
X3562500Y3872500D02*
X3737500Y3697500D01*
X3737500Y3872500D02*
X3562500Y3697500D01*
X3650000Y3872500D02*
X3650000Y3697500D01*
X3562500Y3785000D02*
X3737500Y3785000D01*
X3962500Y6472500D02*
X4137500Y6297500D01*
X4137500Y6472500D02*
X3962500Y6297500D01*
X4050000Y6472500D02*
X4050000Y6297500D01*
X3962500Y6385000D02*
X4137500Y6385000D01*
X3962500Y6072500D02*
X4137500Y5897500D01*
X4137500Y6072500D02*
X3962500Y5897500D01*
X4050000Y6072500D02*
X4050000Y5897500D01*
X3962500Y5985000D02*
X4137500Y5985000D01*
X3962500Y5672500D02*
X4137500Y5497500D01*
X4137500Y5672500D02*
X3962500Y5497500D01*
X4050000Y5672500D02*
X4050000Y5497500D01*
X3962500Y5585000D02*
X4137500Y5585000D01*
X3962500Y5272500D02*
X4137500Y5097500D01*
X4137500Y5272500D02*
X3962500Y5097500D01*
X4050000Y5272500D02*
X4050000Y5097500D01*
X3962500Y5185000D02*
X4137500Y5185000D01*
X3962500Y4872500D02*
X4137500Y4697500D01*
X4137500Y4872500D02*
X3962500Y4697500D01*
X4050000Y4872500D02*
X4050000Y4697500D01*
X3962500Y4785000D02*
X4137500Y4785000D01*
X3962500Y4472500D02*
X4137500Y4297500D01*
X4137500Y4472500D02*
X3962500Y4297500D01*
X4050000Y4472500D02*
X4050000Y4297500D01*
X3962500Y4385000D02*
X4137500Y4385000D01*
X3962500Y4072500D02*
X4137500Y3897500D01*
X4137500Y4072500D02*
X3962500Y3897500D01*
X4050000Y4072500D02*
X4050000Y3897500D01*
X3962500Y3985000D02*
X4137500Y3985000D01*
X4362500Y6672500D02*
X4537500Y6497500D01*
X4537500Y6672500D02*
X4362500Y6497500D01*
X4450000Y6672500D02*
X4450000Y6497500D01*
X4362500Y6585000D02*
X4537500Y6585000D01*
X4362500Y6272500D02*
X4537500Y6097500D01*
X4537500Y6272500D02*
X4362500Y6097500D01*
X4450000Y6272500D02*
X4450000Y6097500D01*
X4362500Y6185000D02*
X4537500Y6185000D01*
X4362500Y5872500D02*
X4537500Y5697500D01*
X4537500Y5872500D02*
X4362500Y5697500D01*
X4450000Y5872500D02*
X4450000Y5697500D01*
X4362500Y5785000D02*
X4537500Y5785000D01*
X4362500Y5472500D02*
X4537500Y5297500D01*
X4537500Y5472500D02*
X4362500Y5297500D01*
X4450000Y5472500D02*
X4450000Y5297500D01*
X4362500Y5385000D02*
X4537500Y5385000D01*
X4362500Y5072500D02*
X4537500Y4897500D01*
X4537500Y5072500D02*
X4362500Y4897500D01*
X4450000Y5072500D02*
X4450000Y4897500D01*
X4362500Y4985000D02*
X4537500Y4985000D01*
X4362500Y4672500D02*
X4537500Y4497500D01*
X4537500Y4672500D02*
X4362500Y4497500D01*
X4450000Y4672500D02*
X4450000Y4497500D01*
X4362500Y4585000D02*
X4537500Y4585000D01*
X4362500Y4272500D02*
X4537500Y4097500D01*
X4537500Y4272500D02*
X4362500Y4097500D01*
X4450000Y4272500D02*
X4450000Y4097500D01*
X4362500Y4185000D02*
X4537500Y4185000D01*
X4362500Y3872500D02*
X4537500Y3697500D01*
X4537500Y3872500D02*
X4362500Y3697500D01*
X4450000Y3872500D02*
X4450000Y3697500D01*
X4362500Y3785000D02*
X4537500Y3785000D01*
D11*
X258277Y-313984D02*
X258277Y-113984D01*
X258277Y-113984D02*
X305896Y-113984D01*
X305896Y-113984D02*
X334467Y-123508D01*
X334467Y-123508D02*
X353515Y-142555D01*
X353515Y-142555D02*
X363039Y-161603D01*
X363039Y-161603D02*
X372562Y-199698D01*
X372562Y-199698D02*
X372562Y-228269D01*
X372562Y-228269D02*
X363039Y-266365D01*
X363039Y-266365D02*
X353515Y-285412D01*
X353515Y-285412D02*
X334467Y-304460D01*
X334467Y-304460D02*
X305896Y-313984D01*
X305896Y-313984D02*
X258277Y-313984D01*
X458277Y-313984D02*
X458277Y-180650D01*
X458277Y-218746D02*
X467801Y-199698D01*
X467801Y-199698D02*
X477324Y-190174D01*
X477324Y-190174D02*
X496372Y-180650D01*
X496372Y-180650D02*
X515420Y-180650D01*
X582086Y-313984D02*
X582086Y-180650D01*
X582086Y-113984D02*
X572563Y-123508D01*
X572563Y-123508D02*
X582086Y-133031D01*
X582086Y-133031D02*
X591610Y-123508D01*
X591610Y-123508D02*
X582086Y-113984D01*
X582086Y-113984D02*
X582086Y-133031D01*
X705896Y-313984D02*
X686848Y-304460D01*
X686848Y-304460D02*
X677324Y-285412D01*
X677324Y-285412D02*
X677324Y-113984D01*
X810658Y-313984D02*
X791610Y-304460D01*
X791610Y-304460D02*
X782086Y-285412D01*
X782086Y-285412D02*
X782086Y-113984D01*
X1039229Y-313984D02*
X1039229Y-113984D01*
X1039229Y-113984D02*
X1105896Y-256841D01*
X1105896Y-256841D02*
X1172563Y-113984D01*
X1172563Y-113984D02*
X1172563Y-313984D01*
X1353515Y-313984D02*
X1353515Y-209222D01*
X1353515Y-209222D02*
X1343991Y-190174D01*
X1343991Y-190174D02*
X1324944Y-180650D01*
X1324944Y-180650D02*
X1286848Y-180650D01*
X1286848Y-180650D02*
X1267801Y-190174D01*
X1353515Y-304460D02*
X1334467Y-313984D01*
X1334467Y-313984D02*
X1286848Y-313984D01*
X1286848Y-313984D02*
X1267801Y-304460D01*
X1267801Y-304460D02*
X1258277Y-285412D01*
X1258277Y-285412D02*
X1258277Y-266365D01*
X1258277Y-266365D02*
X1267801Y-247317D01*
X1267801Y-247317D02*
X1286848Y-237793D01*
X1286848Y-237793D02*
X1334467Y-237793D01*
X1334467Y-237793D02*
X1353515Y-228269D01*
X1448753Y-180650D02*
X1448753Y-380650D01*
X1448753Y-190174D02*
X1467801Y-180650D01*
X1467801Y-180650D02*
X1505896Y-180650D01*
X1505896Y-180650D02*
X1524943Y-190174D01*
X1524943Y-190174D02*
X1534467Y-199698D01*
X1534467Y-199698D02*
X1543991Y-218746D01*
X1543991Y-218746D02*
X1543991Y-275889D01*
X1543991Y-275889D02*
X1534467Y-294936D01*
X1534467Y-294936D02*
X1524943Y-304460D01*
X1524943Y-304460D02*
X1505896Y-313984D01*
X1505896Y-313984D02*
X1467801Y-313984D01*
X1467801Y-313984D02*
X1448753Y-304460D01*
X1629705Y-294936D02*
X1639229Y-304460D01*
X1639229Y-304460D02*
X1629705Y-313984D01*
X1629705Y-313984D02*
X1620182Y-304460D01*
X1620182Y-304460D02*
X1629705Y-294936D01*
X1629705Y-294936D02*
X1629705Y-313984D01*
X1629705Y-190174D02*
X1639229Y-199698D01*
X1639229Y-199698D02*
X1629705Y-209222D01*
X1629705Y-209222D02*
X1620182Y-199698D01*
X1620182Y-199698D02*
X1629705Y-190174D01*
X1629705Y-190174D02*
X1629705Y-209222D01*
D12*
X-22500Y-632500D02*
X-2500Y-652500D01*
X-2500Y-632500D02*
X-22500Y-652500D01*
D11*
X296372Y-533984D02*
X315420Y-533984D01*
X315420Y-533984D02*
X334467Y-543508D01*
X334467Y-543508D02*
X343991Y-553031D01*
X343991Y-553031D02*
X353515Y-572079D01*
X353515Y-572079D02*
X363039Y-610174D01*
X363039Y-610174D02*
X363039Y-657793D01*
X363039Y-657793D02*
X353515Y-695889D01*
X353515Y-695889D02*
X343991Y-714936D01*
X343991Y-714936D02*
X334467Y-724460D01*
X334467Y-724460D02*
X315420Y-733984D01*
X315420Y-733984D02*
X296372Y-733984D01*
X296372Y-733984D02*
X277324Y-724460D01*
X277324Y-724460D02*
X267801Y-714936D01*
X267801Y-714936D02*
X258277Y-695889D01*
X258277Y-695889D02*
X248753Y-657793D01*
X248753Y-657793D02*
X248753Y-610174D01*
X248753Y-610174D02*
X258277Y-572079D01*
X258277Y-572079D02*
X267801Y-553031D01*
X267801Y-553031D02*
X277324Y-543508D01*
X277324Y-543508D02*
X296372Y-533984D01*
X448753Y-714936D02*
X458277Y-724460D01*
X458277Y-724460D02*
X448753Y-733984D01*
X448753Y-733984D02*
X439229Y-724460D01*
X439229Y-724460D02*
X448753Y-714936D01*
X448753Y-714936D02*
X448753Y-733984D01*
X534467Y-553031D02*
X543991Y-543508D01*
X543991Y-543508D02*
X563039Y-533984D01*
X563039Y-533984D02*
X610658Y-533984D01*
X610658Y-533984D02*
X629705Y-543508D01*
X629705Y-543508D02*
X639229Y-553031D01*
X639229Y-553031D02*
X648753Y-572079D01*
X648753Y-572079D02*
X648753Y-591127D01*
X648753Y-591127D02*
X639229Y-619698D01*
X639229Y-619698D02*
X524944Y-733984D01*
X524944Y-733984D02*
X648753Y-733984D01*
X772562Y-533984D02*
X791610Y-533984D01*
X791610Y-533984D02*
X810658Y-543508D01*
X810658Y-543508D02*
X820182Y-553031D01*
X820182Y-553031D02*
X829705Y-572079D01*
X829705Y-572079D02*
X839229Y-610174D01*
X839229Y-610174D02*
X839229Y-657793D01*
X839229Y-657793D02*
X829705Y-695889D01*
X829705Y-695889D02*
X820182Y-714936D01*
X820182Y-714936D02*
X810658Y-724460D01*
X810658Y-724460D02*
X791610Y-733984D01*
X791610Y-733984D02*
X772562Y-733984D01*
X772562Y-733984D02*
X753515Y-724460D01*
X753515Y-724460D02*
X743991Y-714936D01*
X743991Y-714936D02*
X734467Y-695889D01*
X734467Y-695889D02*
X724943Y-657793D01*
X724943Y-657793D02*
X724943Y-610174D01*
X724943Y-610174D02*
X734467Y-572079D01*
X734467Y-572079D02*
X743991Y-553031D01*
X743991Y-553031D02*
X753515Y-543508D01*
X753515Y-543508D02*
X772562Y-533984D01*
X963039Y-533984D02*
X982086Y-533984D01*
X982086Y-533984D02*
X1001134Y-543508D01*
X1001134Y-543508D02*
X1010658Y-553031D01*
X1010658Y-553031D02*
X1020182Y-572079D01*
X1020182Y-572079D02*
X1029705Y-610174D01*
X1029705Y-610174D02*
X1029705Y-657793D01*
X1029705Y-657793D02*
X1020182Y-695889D01*
X1020182Y-695889D02*
X1010658Y-714936D01*
X1010658Y-714936D02*
X1001134Y-724460D01*
X1001134Y-724460D02*
X982086Y-733984D01*
X982086Y-733984D02*
X963039Y-733984D01*
X963039Y-733984D02*
X943991Y-724460D01*
X943991Y-724460D02*
X934467Y-714936D01*
X934467Y-714936D02*
X924943Y-695889D01*
X924943Y-695889D02*
X915420Y-657793D01*
X915420Y-657793D02*
X915420Y-610174D01*
X915420Y-610174D02*
X924943Y-572079D01*
X924943Y-572079D02*
X934467Y-553031D01*
X934467Y-553031D02*
X943991Y-543508D01*
X943991Y-543508D02*
X963039Y-533984D01*
X1115420Y-733984D02*
X1115420Y-600650D01*
X1115420Y-619698D02*
X1124944Y-610174D01*
X1124944Y-610174D02*
X1143991Y-600650D01*
X1143991Y-600650D02*
X1172563Y-600650D01*
X1172563Y-600650D02*
X1191610Y-610174D01*
X1191610Y-610174D02*
X1201134Y-629222D01*
X1201134Y-629222D02*
X1201134Y-733984D01*
X1201134Y-629222D02*
X1210658Y-610174D01*
X1210658Y-610174D02*
X1229705Y-600650D01*
X1229705Y-600650D02*
X1258277Y-600650D01*
X1258277Y-600650D02*
X1277325Y-610174D01*
X1277325Y-610174D02*
X1286848Y-629222D01*
X1286848Y-629222D02*
X1286848Y-733984D01*
X1382086Y-733984D02*
X1382086Y-600650D01*
X1382086Y-619698D02*
X1391610Y-610174D01*
X1391610Y-610174D02*
X1410658Y-600650D01*
X1410658Y-600650D02*
X1439229Y-600650D01*
X1439229Y-600650D02*
X1458277Y-610174D01*
X1458277Y-610174D02*
X1467801Y-629222D01*
X1467801Y-629222D02*
X1467801Y-733984D01*
X1467801Y-629222D02*
X1477324Y-610174D01*
X1477324Y-610174D02*
X1496372Y-600650D01*
X1496372Y-600650D02*
X1524943Y-600650D01*
X1524943Y-600650D02*
X1543991Y-610174D01*
X1543991Y-610174D02*
X1553515Y-629222D01*
X1553515Y-629222D02*
X1553515Y-733984D01*
X1943991Y-524460D02*
X1772563Y-781603D01*
X2201134Y-533984D02*
X2220182Y-533984D01*
X2220182Y-533984D02*
X2239229Y-543508D01*
X2239229Y-543508D02*
X2248753Y-553031D01*
X2248753Y-553031D02*
X2258277Y-572079D01*
X2258277Y-572079D02*
X2267801Y-610174D01*
X2267801Y-610174D02*
X2267801Y-657793D01*
X2267801Y-657793D02*
X2258277Y-695889D01*
X2258277Y-695889D02*
X2248753Y-714936D01*
X2248753Y-714936D02*
X2239229Y-724460D01*
X2239229Y-724460D02*
X2220182Y-733984D01*
X2220182Y-733984D02*
X2201134Y-733984D01*
X2201134Y-733984D02*
X2182087Y-724460D01*
X2182087Y-724460D02*
X2172563Y-714936D01*
X2172563Y-714936D02*
X2163039Y-695889D01*
X2163039Y-695889D02*
X2153515Y-657793D01*
X2153515Y-657793D02*
X2153515Y-610174D01*
X2153515Y-610174D02*
X2163039Y-572079D01*
X2163039Y-572079D02*
X2172563Y-553031D01*
X2172563Y-553031D02*
X2182087Y-543508D01*
X2182087Y-543508D02*
X2201134Y-533984D01*
X2353515Y-714936D02*
X2363039Y-724460D01*
X2363039Y-724460D02*
X2353515Y-733984D01*
X2353515Y-733984D02*
X2343991Y-724460D01*
X2343991Y-724460D02*
X2353515Y-714936D01*
X2353515Y-714936D02*
X2353515Y-733984D01*
X2486848Y-533984D02*
X2505896Y-533984D01*
X2505896Y-533984D02*
X2524944Y-543508D01*
X2524944Y-543508D02*
X2534468Y-553031D01*
X2534468Y-553031D02*
X2543991Y-572079D01*
X2543991Y-572079D02*
X2553515Y-610174D01*
X2553515Y-610174D02*
X2553515Y-657793D01*
X2553515Y-657793D02*
X2543991Y-695889D01*
X2543991Y-695889D02*
X2534468Y-714936D01*
X2534468Y-714936D02*
X2524944Y-724460D01*
X2524944Y-724460D02*
X2505896Y-733984D01*
X2505896Y-733984D02*
X2486848Y-733984D01*
X2486848Y-733984D02*
X2467801Y-724460D01*
X2467801Y-724460D02*
X2458277Y-714936D01*
X2458277Y-714936D02*
X2448753Y-695889D01*
X2448753Y-695889D02*
X2439229Y-657793D01*
X2439229Y-657793D02*
X2439229Y-610174D01*
X2439229Y-610174D02*
X2448753Y-572079D01*
X2448753Y-572079D02*
X2458277Y-553031D01*
X2458277Y-553031D02*
X2467801Y-543508D01*
X2467801Y-543508D02*
X2486848Y-533984D01*
X2677325Y-533984D02*
X2696372Y-533984D01*
X2696372Y-533984D02*
X2715420Y-543508D01*
X2715420Y-543508D02*
X2724944Y-553031D01*
X2724944Y-553031D02*
X2734468Y-572079D01*
X2734468Y-572079D02*
X2743991Y-610174D01*
X2743991Y-610174D02*
X2743991Y-657793D01*
X2743991Y-657793D02*
X2734468Y-695889D01*
X2734468Y-695889D02*
X2724944Y-714936D01*
X2724944Y-714936D02*
X2715420Y-724460D01*
X2715420Y-724460D02*
X2696372Y-733984D01*
X2696372Y-733984D02*
X2677325Y-733984D01*
X2677325Y-733984D02*
X2658277Y-724460D01*
X2658277Y-724460D02*
X2648753Y-714936D01*
X2648753Y-714936D02*
X2639229Y-695889D01*
X2639229Y-695889D02*
X2629706Y-657793D01*
X2629706Y-657793D02*
X2629706Y-610174D01*
X2629706Y-610174D02*
X2639229Y-572079D01*
X2639229Y-572079D02*
X2648753Y-553031D01*
X2648753Y-553031D02*
X2658277Y-543508D01*
X2658277Y-543508D02*
X2677325Y-533984D01*
X2810658Y-533984D02*
X2943991Y-533984D01*
X2943991Y-533984D02*
X2858277Y-733984D01*
X3029706Y-733984D02*
X3067801Y-733984D01*
X3067801Y-733984D02*
X3086848Y-724460D01*
X3086848Y-724460D02*
X3096372Y-714936D01*
X3096372Y-714936D02*
X3115420Y-686365D01*
X3115420Y-686365D02*
X3124944Y-648270D01*
X3124944Y-648270D02*
X3124944Y-572079D01*
X3124944Y-572079D02*
X3115420Y-553031D01*
X3115420Y-553031D02*
X3105896Y-543508D01*
X3105896Y-543508D02*
X3086848Y-533984D01*
X3086848Y-533984D02*
X3048753Y-533984D01*
X3048753Y-533984D02*
X3029706Y-543508D01*
X3029706Y-543508D02*
X3020182Y-553031D01*
X3020182Y-553031D02*
X3010658Y-572079D01*
X3010658Y-572079D02*
X3010658Y-619698D01*
X3010658Y-619698D02*
X3020182Y-638746D01*
X3020182Y-638746D02*
X3029706Y-648270D01*
X3029706Y-648270D02*
X3048753Y-657793D01*
X3048753Y-657793D02*
X3086848Y-657793D01*
X3086848Y-657793D02*
X3105896Y-648270D01*
X3105896Y-648270D02*
X3115420Y-638746D01*
X3115420Y-638746D02*
X3124944Y-619698D01*
X3201134Y-533984D02*
X3201134Y-572079D01*
X3277325Y-533984D02*
X3277325Y-572079D01*
X3572563Y-810174D02*
X3563039Y-800650D01*
X3563039Y-800650D02*
X3543991Y-772079D01*
X3543991Y-772079D02*
X3534468Y-753031D01*
X3534468Y-753031D02*
X3524944Y-724460D01*
X3524944Y-724460D02*
X3515420Y-676841D01*
X3515420Y-676841D02*
X3515420Y-638746D01*
X3515420Y-638746D02*
X3524944Y-591127D01*
X3524944Y-591127D02*
X3534468Y-562555D01*
X3534468Y-562555D02*
X3543991Y-543508D01*
X3543991Y-543508D02*
X3563039Y-514936D01*
X3563039Y-514936D02*
X3572563Y-505412D01*
X3753515Y-733984D02*
X3639229Y-733984D01*
X3696372Y-733984D02*
X3696372Y-533984D01*
X3696372Y-533984D02*
X3677325Y-562555D01*
X3677325Y-562555D02*
X3658277Y-581603D01*
X3658277Y-581603D02*
X3639229Y-591127D01*
X3829706Y-553031D02*
X3839229Y-543508D01*
X3839229Y-543508D02*
X3858277Y-533984D01*
X3858277Y-533984D02*
X3905896Y-533984D01*
X3905896Y-533984D02*
X3924944Y-543508D01*
X3924944Y-543508D02*
X3934468Y-553031D01*
X3934468Y-553031D02*
X3943991Y-572079D01*
X3943991Y-572079D02*
X3943991Y-591127D01*
X3943991Y-591127D02*
X3934468Y-619698D01*
X3934468Y-619698D02*
X3820182Y-733984D01*
X3820182Y-733984D02*
X3943991Y-733984D01*
X4182087Y-733984D02*
X4182087Y-533984D01*
X4267801Y-733984D02*
X4267801Y-629222D01*
X4267801Y-629222D02*
X4258277Y-610174D01*
X4258277Y-610174D02*
X4239230Y-600650D01*
X4239230Y-600650D02*
X4210658Y-600650D01*
X4210658Y-600650D02*
X4191610Y-610174D01*
X4191610Y-610174D02*
X4182087Y-619698D01*
X4391611Y-733984D02*
X4372563Y-724460D01*
X4372563Y-724460D02*
X4363039Y-714936D01*
X4363039Y-714936D02*
X4353515Y-695889D01*
X4353515Y-695889D02*
X4353515Y-638746D01*
X4353515Y-638746D02*
X4363039Y-619698D01*
X4363039Y-619698D02*
X4372563Y-610174D01*
X4372563Y-610174D02*
X4391611Y-600650D01*
X4391611Y-600650D02*
X4420182Y-600650D01*
X4420182Y-600650D02*
X4439230Y-610174D01*
X4439230Y-610174D02*
X4448753Y-619698D01*
X4448753Y-619698D02*
X4458277Y-638746D01*
X4458277Y-638746D02*
X4458277Y-695889D01*
X4458277Y-695889D02*
X4448753Y-714936D01*
X4448753Y-714936D02*
X4439230Y-724460D01*
X4439230Y-724460D02*
X4420182Y-733984D01*
X4420182Y-733984D02*
X4391611Y-733984D01*
X4572563Y-733984D02*
X4553515Y-724460D01*
X4553515Y-724460D02*
X4543992Y-705412D01*
X4543992Y-705412D02*
X4543992Y-533984D01*
X4724944Y-724460D02*
X4705896Y-733984D01*
X4705896Y-733984D02*
X4667801Y-733984D01*
X4667801Y-733984D02*
X4648753Y-724460D01*
X4648753Y-724460D02*
X4639230Y-705412D01*
X4639230Y-705412D02*
X4639230Y-629222D01*
X4639230Y-629222D02*
X4648753Y-610174D01*
X4648753Y-610174D02*
X4667801Y-600650D01*
X4667801Y-600650D02*
X4705896Y-600650D01*
X4705896Y-600650D02*
X4724944Y-610174D01*
X4724944Y-610174D02*
X4734468Y-629222D01*
X4734468Y-629222D02*
X4734468Y-648270D01*
X4734468Y-648270D02*
X4639230Y-667317D01*
X4810658Y-724460D02*
X4829706Y-733984D01*
X4829706Y-733984D02*
X4867801Y-733984D01*
X4867801Y-733984D02*
X4886849Y-724460D01*
X4886849Y-724460D02*
X4896373Y-705412D01*
X4896373Y-705412D02*
X4896373Y-695889D01*
X4896373Y-695889D02*
X4886849Y-676841D01*
X4886849Y-676841D02*
X4867801Y-667317D01*
X4867801Y-667317D02*
X4839230Y-667317D01*
X4839230Y-667317D02*
X4820182Y-657793D01*
X4820182Y-657793D02*
X4810658Y-638746D01*
X4810658Y-638746D02*
X4810658Y-629222D01*
X4810658Y-629222D02*
X4820182Y-610174D01*
X4820182Y-610174D02*
X4839230Y-600650D01*
X4839230Y-600650D02*
X4867801Y-600650D01*
X4867801Y-600650D02*
X4886849Y-610174D01*
X4963039Y-810174D02*
X4972563Y-800650D01*
X4972563Y-800650D02*
X4991611Y-772079D01*
X4991611Y-772079D02*
X5001134Y-753031D01*
X5001134Y-753031D02*
X5010658Y-724460D01*
X5010658Y-724460D02*
X5020182Y-676841D01*
X5020182Y-676841D02*
X5020182Y-638746D01*
X5020182Y-638746D02*
X5010658Y-591127D01*
X5010658Y-591127D02*
X5001134Y-562555D01*
X5001134Y-562555D02*
X4991611Y-543508D01*
X4991611Y-543508D02*
X4972563Y-514936D01*
X4972563Y-514936D02*
X4963039Y-505412D01*
D12*
X-2500Y-906500D02*
G75*
G02*
X-32500Y-906500I-15000J0D01*
G01*
X-32500Y-906500D02*
G75*
G02*
X-2500Y-906500I15000J0D01*
G01*
D11*
X296372Y-797984D02*
X315420Y-797984D01*
X315420Y-797984D02*
X334467Y-807508D01*
X334467Y-807508D02*
X343991Y-817031D01*
X343991Y-817031D02*
X353515Y-836079D01*
X353515Y-836079D02*
X363039Y-874174D01*
X363039Y-874174D02*
X363039Y-921793D01*
X363039Y-921793D02*
X353515Y-959888D01*
X353515Y-959888D02*
X343991Y-978936D01*
X343991Y-978936D02*
X334467Y-988460D01*
X334467Y-988460D02*
X315420Y-997984D01*
X315420Y-997984D02*
X296372Y-997984D01*
X296372Y-997984D02*
X277324Y-988460D01*
X277324Y-988460D02*
X267801Y-978936D01*
X267801Y-978936D02*
X258277Y-959888D01*
X258277Y-959888D02*
X248753Y-921793D01*
X248753Y-921793D02*
X248753Y-874174D01*
X248753Y-874174D02*
X258277Y-836079D01*
X258277Y-836079D02*
X267801Y-817031D01*
X267801Y-817031D02*
X277324Y-807508D01*
X277324Y-807508D02*
X296372Y-797984D01*
X448753Y-978936D02*
X458277Y-988460D01*
X458277Y-988460D02*
X448753Y-997984D01*
X448753Y-997984D02*
X439229Y-988460D01*
X439229Y-988460D02*
X448753Y-978936D01*
X448753Y-978936D02*
X448753Y-997984D01*
X524944Y-797984D02*
X648753Y-797984D01*
X648753Y-797984D02*
X582086Y-874174D01*
X582086Y-874174D02*
X610658Y-874174D01*
X610658Y-874174D02*
X629705Y-883698D01*
X629705Y-883698D02*
X639229Y-893222D01*
X639229Y-893222D02*
X648753Y-912269D01*
X648753Y-912269D02*
X648753Y-959888D01*
X648753Y-959888D02*
X639229Y-978936D01*
X639229Y-978936D02*
X629705Y-988460D01*
X629705Y-988460D02*
X610658Y-997984D01*
X610658Y-997984D02*
X553515Y-997984D01*
X553515Y-997984D02*
X534467Y-988460D01*
X534467Y-988460D02*
X524944Y-978936D01*
X772562Y-797984D02*
X791610Y-797984D01*
X791610Y-797984D02*
X810658Y-807508D01*
X810658Y-807508D02*
X820182Y-817031D01*
X820182Y-817031D02*
X829705Y-836079D01*
X829705Y-836079D02*
X839229Y-874174D01*
X839229Y-874174D02*
X839229Y-921793D01*
X839229Y-921793D02*
X829705Y-959888D01*
X829705Y-959888D02*
X820182Y-978936D01*
X820182Y-978936D02*
X810658Y-988460D01*
X810658Y-988460D02*
X791610Y-997984D01*
X791610Y-997984D02*
X772562Y-997984D01*
X772562Y-997984D02*
X753515Y-988460D01*
X753515Y-988460D02*
X743991Y-978936D01*
X743991Y-978936D02*
X734467Y-959888D01*
X734467Y-959888D02*
X724943Y-921793D01*
X724943Y-921793D02*
X724943Y-874174D01*
X724943Y-874174D02*
X734467Y-836079D01*
X734467Y-836079D02*
X743991Y-817031D01*
X743991Y-817031D02*
X753515Y-807508D01*
X753515Y-807508D02*
X772562Y-797984D01*
X963039Y-797984D02*
X982086Y-797984D01*
X982086Y-797984D02*
X1001134Y-807508D01*
X1001134Y-807508D02*
X1010658Y-817031D01*
X1010658Y-817031D02*
X1020182Y-836079D01*
X1020182Y-836079D02*
X1029705Y-874174D01*
X1029705Y-874174D02*
X1029705Y-921793D01*
X1029705Y-921793D02*
X1020182Y-959888D01*
X1020182Y-959888D02*
X1010658Y-978936D01*
X1010658Y-978936D02*
X1001134Y-988460D01*
X1001134Y-988460D02*
X982086Y-997984D01*
X982086Y-997984D02*
X963039Y-997984D01*
X963039Y-997984D02*
X943991Y-988460D01*
X943991Y-988460D02*
X934467Y-978936D01*
X934467Y-978936D02*
X924943Y-959888D01*
X924943Y-959888D02*
X915420Y-921793D01*
X915420Y-921793D02*
X915420Y-874174D01*
X915420Y-874174D02*
X924943Y-836079D01*
X924943Y-836079D02*
X934467Y-817031D01*
X934467Y-817031D02*
X943991Y-807508D01*
X943991Y-807508D02*
X963039Y-797984D01*
X1115420Y-997984D02*
X1115420Y-864650D01*
X1115420Y-883698D02*
X1124944Y-874174D01*
X1124944Y-874174D02*
X1143991Y-864650D01*
X1143991Y-864650D02*
X1172563Y-864650D01*
X1172563Y-864650D02*
X1191610Y-874174D01*
X1191610Y-874174D02*
X1201134Y-893222D01*
X1201134Y-893222D02*
X1201134Y-997984D01*
X1201134Y-893222D02*
X1210658Y-874174D01*
X1210658Y-874174D02*
X1229705Y-864650D01*
X1229705Y-864650D02*
X1258277Y-864650D01*
X1258277Y-864650D02*
X1277325Y-874174D01*
X1277325Y-874174D02*
X1286848Y-893222D01*
X1286848Y-893222D02*
X1286848Y-997984D01*
X1382086Y-997984D02*
X1382086Y-864650D01*
X1382086Y-883698D02*
X1391610Y-874174D01*
X1391610Y-874174D02*
X1410658Y-864650D01*
X1410658Y-864650D02*
X1439229Y-864650D01*
X1439229Y-864650D02*
X1458277Y-874174D01*
X1458277Y-874174D02*
X1467801Y-893222D01*
X1467801Y-893222D02*
X1467801Y-997984D01*
X1467801Y-893222D02*
X1477324Y-874174D01*
X1477324Y-874174D02*
X1496372Y-864650D01*
X1496372Y-864650D02*
X1524943Y-864650D01*
X1524943Y-864650D02*
X1543991Y-874174D01*
X1543991Y-874174D02*
X1553515Y-893222D01*
X1553515Y-893222D02*
X1553515Y-997984D01*
X1943991Y-788460D02*
X1772563Y-1045603D01*
X2201134Y-797984D02*
X2220182Y-797984D01*
X2220182Y-797984D02*
X2239229Y-807508D01*
X2239229Y-807508D02*
X2248753Y-817031D01*
X2248753Y-817031D02*
X2258277Y-836079D01*
X2258277Y-836079D02*
X2267801Y-874174D01*
X2267801Y-874174D02*
X2267801Y-921793D01*
X2267801Y-921793D02*
X2258277Y-959888D01*
X2258277Y-959888D02*
X2248753Y-978936D01*
X2248753Y-978936D02*
X2239229Y-988460D01*
X2239229Y-988460D02*
X2220182Y-997984D01*
X2220182Y-997984D02*
X2201134Y-997984D01*
X2201134Y-997984D02*
X2182087Y-988460D01*
X2182087Y-988460D02*
X2172563Y-978936D01*
X2172563Y-978936D02*
X2163039Y-959888D01*
X2163039Y-959888D02*
X2153515Y-921793D01*
X2153515Y-921793D02*
X2153515Y-874174D01*
X2153515Y-874174D02*
X2163039Y-836079D01*
X2163039Y-836079D02*
X2172563Y-817031D01*
X2172563Y-817031D02*
X2182087Y-807508D01*
X2182087Y-807508D02*
X2201134Y-797984D01*
X2353515Y-978936D02*
X2363039Y-988460D01*
X2363039Y-988460D02*
X2353515Y-997984D01*
X2353515Y-997984D02*
X2343991Y-988460D01*
X2343991Y-988460D02*
X2353515Y-978936D01*
X2353515Y-978936D02*
X2353515Y-997984D01*
X2486848Y-797984D02*
X2505896Y-797984D01*
X2505896Y-797984D02*
X2524944Y-807508D01*
X2524944Y-807508D02*
X2534468Y-817031D01*
X2534468Y-817031D02*
X2543991Y-836079D01*
X2543991Y-836079D02*
X2553515Y-874174D01*
X2553515Y-874174D02*
X2553515Y-921793D01*
X2553515Y-921793D02*
X2543991Y-959888D01*
X2543991Y-959888D02*
X2534468Y-978936D01*
X2534468Y-978936D02*
X2524944Y-988460D01*
X2524944Y-988460D02*
X2505896Y-997984D01*
X2505896Y-997984D02*
X2486848Y-997984D01*
X2486848Y-997984D02*
X2467801Y-988460D01*
X2467801Y-988460D02*
X2458277Y-978936D01*
X2458277Y-978936D02*
X2448753Y-959888D01*
X2448753Y-959888D02*
X2439229Y-921793D01*
X2439229Y-921793D02*
X2439229Y-874174D01*
X2439229Y-874174D02*
X2448753Y-836079D01*
X2448753Y-836079D02*
X2458277Y-817031D01*
X2458277Y-817031D02*
X2467801Y-807508D01*
X2467801Y-807508D02*
X2486848Y-797984D01*
X2743991Y-997984D02*
X2629706Y-997984D01*
X2686848Y-997984D02*
X2686848Y-797984D01*
X2686848Y-797984D02*
X2667801Y-826555D01*
X2667801Y-826555D02*
X2648753Y-845603D01*
X2648753Y-845603D02*
X2629706Y-855127D01*
X2934467Y-997984D02*
X2820182Y-997984D01*
X2877325Y-997984D02*
X2877325Y-797984D01*
X2877325Y-797984D02*
X2858277Y-826555D01*
X2858277Y-826555D02*
X2839229Y-845603D01*
X2839229Y-845603D02*
X2820182Y-855127D01*
X3048753Y-883698D02*
X3029706Y-874174D01*
X3029706Y-874174D02*
X3020182Y-864650D01*
X3020182Y-864650D02*
X3010658Y-845603D01*
X3010658Y-845603D02*
X3010658Y-836079D01*
X3010658Y-836079D02*
X3020182Y-817031D01*
X3020182Y-817031D02*
X3029706Y-807508D01*
X3029706Y-807508D02*
X3048753Y-797984D01*
X3048753Y-797984D02*
X3086848Y-797984D01*
X3086848Y-797984D02*
X3105896Y-807508D01*
X3105896Y-807508D02*
X3115420Y-817031D01*
X3115420Y-817031D02*
X3124944Y-836079D01*
X3124944Y-836079D02*
X3124944Y-845603D01*
X3124944Y-845603D02*
X3115420Y-864650D01*
X3115420Y-864650D02*
X3105896Y-874174D01*
X3105896Y-874174D02*
X3086848Y-883698D01*
X3086848Y-883698D02*
X3048753Y-883698D01*
X3048753Y-883698D02*
X3029706Y-893222D01*
X3029706Y-893222D02*
X3020182Y-902746D01*
X3020182Y-902746D02*
X3010658Y-921793D01*
X3010658Y-921793D02*
X3010658Y-959888D01*
X3010658Y-959888D02*
X3020182Y-978936D01*
X3020182Y-978936D02*
X3029706Y-988460D01*
X3029706Y-988460D02*
X3048753Y-997984D01*
X3048753Y-997984D02*
X3086848Y-997984D01*
X3086848Y-997984D02*
X3105896Y-988460D01*
X3105896Y-988460D02*
X3115420Y-978936D01*
X3115420Y-978936D02*
X3124944Y-959888D01*
X3124944Y-959888D02*
X3124944Y-921793D01*
X3124944Y-921793D02*
X3115420Y-902746D01*
X3115420Y-902746D02*
X3105896Y-893222D01*
X3105896Y-893222D02*
X3086848Y-883698D01*
X3201134Y-797984D02*
X3201134Y-836079D01*
X3277325Y-797984D02*
X3277325Y-836079D01*
X3572563Y-1074174D02*
X3563039Y-1064650D01*
X3563039Y-1064650D02*
X3543991Y-1036079D01*
X3543991Y-1036079D02*
X3534468Y-1017031D01*
X3534468Y-1017031D02*
X3524944Y-988460D01*
X3524944Y-988460D02*
X3515420Y-940841D01*
X3515420Y-940841D02*
X3515420Y-902746D01*
X3515420Y-902746D02*
X3524944Y-855127D01*
X3524944Y-855127D02*
X3534468Y-826555D01*
X3534468Y-826555D02*
X3543991Y-807508D01*
X3543991Y-807508D02*
X3563039Y-778936D01*
X3563039Y-778936D02*
X3572563Y-769412D01*
X3743991Y-797984D02*
X3648753Y-797984D01*
X3648753Y-797984D02*
X3639229Y-893222D01*
X3639229Y-893222D02*
X3648753Y-883698D01*
X3648753Y-883698D02*
X3667801Y-874174D01*
X3667801Y-874174D02*
X3715420Y-874174D01*
X3715420Y-874174D02*
X3734468Y-883698D01*
X3734468Y-883698D02*
X3743991Y-893222D01*
X3743991Y-893222D02*
X3753515Y-912269D01*
X3753515Y-912269D02*
X3753515Y-959888D01*
X3753515Y-959888D02*
X3743991Y-978936D01*
X3743991Y-978936D02*
X3734468Y-988460D01*
X3734468Y-988460D02*
X3715420Y-997984D01*
X3715420Y-997984D02*
X3667801Y-997984D01*
X3667801Y-997984D02*
X3648753Y-988460D01*
X3648753Y-988460D02*
X3639229Y-978936D01*
X3934468Y-797984D02*
X3839229Y-797984D01*
X3839229Y-797984D02*
X3829706Y-893222D01*
X3829706Y-893222D02*
X3839229Y-883698D01*
X3839229Y-883698D02*
X3858277Y-874174D01*
X3858277Y-874174D02*
X3905896Y-874174D01*
X3905896Y-874174D02*
X3924944Y-883698D01*
X3924944Y-883698D02*
X3934468Y-893222D01*
X3934468Y-893222D02*
X3943991Y-912269D01*
X3943991Y-912269D02*
X3943991Y-959888D01*
X3943991Y-959888D02*
X3934468Y-978936D01*
X3934468Y-978936D02*
X3924944Y-988460D01*
X3924944Y-988460D02*
X3905896Y-997984D01*
X3905896Y-997984D02*
X3858277Y-997984D01*
X3858277Y-997984D02*
X3839229Y-988460D01*
X3839229Y-988460D02*
X3829706Y-978936D01*
X4020182Y-817031D02*
X4029706Y-807508D01*
X4029706Y-807508D02*
X4048753Y-797984D01*
X4048753Y-797984D02*
X4096372Y-797984D01*
X4096372Y-797984D02*
X4115420Y-807508D01*
X4115420Y-807508D02*
X4124944Y-817031D01*
X4124944Y-817031D02*
X4134468Y-836079D01*
X4134468Y-836079D02*
X4134468Y-855127D01*
X4134468Y-855127D02*
X4124944Y-883698D01*
X4124944Y-883698D02*
X4010658Y-997984D01*
X4010658Y-997984D02*
X4134468Y-997984D01*
X4372563Y-997984D02*
X4372563Y-797984D01*
X4458277Y-997984D02*
X4458277Y-893222D01*
X4458277Y-893222D02*
X4448753Y-874174D01*
X4448753Y-874174D02*
X4429706Y-864650D01*
X4429706Y-864650D02*
X4401134Y-864650D01*
X4401134Y-864650D02*
X4382087Y-874174D01*
X4382087Y-874174D02*
X4372563Y-883698D01*
X4582087Y-997984D02*
X4563039Y-988460D01*
X4563039Y-988460D02*
X4553515Y-978936D01*
X4553515Y-978936D02*
X4543992Y-959888D01*
X4543992Y-959888D02*
X4543992Y-902746D01*
X4543992Y-902746D02*
X4553515Y-883698D01*
X4553515Y-883698D02*
X4563039Y-874174D01*
X4563039Y-874174D02*
X4582087Y-864650D01*
X4582087Y-864650D02*
X4610658Y-864650D01*
X4610658Y-864650D02*
X4629706Y-874174D01*
X4629706Y-874174D02*
X4639230Y-883698D01*
X4639230Y-883698D02*
X4648753Y-902746D01*
X4648753Y-902746D02*
X4648753Y-959888D01*
X4648753Y-959888D02*
X4639230Y-978936D01*
X4639230Y-978936D02*
X4629706Y-988460D01*
X4629706Y-988460D02*
X4610658Y-997984D01*
X4610658Y-997984D02*
X4582087Y-997984D01*
X4763039Y-997984D02*
X4743992Y-988460D01*
X4743992Y-988460D02*
X4734468Y-969412D01*
X4734468Y-969412D02*
X4734468Y-797984D01*
X4915420Y-988460D02*
X4896373Y-997984D01*
X4896373Y-997984D02*
X4858277Y-997984D01*
X4858277Y-997984D02*
X4839230Y-988460D01*
X4839230Y-988460D02*
X4829706Y-969412D01*
X4829706Y-969412D02*
X4829706Y-893222D01*
X4829706Y-893222D02*
X4839230Y-874174D01*
X4839230Y-874174D02*
X4858277Y-864650D01*
X4858277Y-864650D02*
X4896373Y-864650D01*
X4896373Y-864650D02*
X4915420Y-874174D01*
X4915420Y-874174D02*
X4924944Y-893222D01*
X4924944Y-893222D02*
X4924944Y-912269D01*
X4924944Y-912269D02*
X4829706Y-931317D01*
X5001134Y-988460D02*
X5020182Y-997984D01*
X5020182Y-997984D02*
X5058277Y-997984D01*
X5058277Y-997984D02*
X5077325Y-988460D01*
X5077325Y-988460D02*
X5086849Y-969412D01*
X5086849Y-969412D02*
X5086849Y-959888D01*
X5086849Y-959888D02*
X5077325Y-940841D01*
X5077325Y-940841D02*
X5058277Y-931317D01*
X5058277Y-931317D02*
X5029706Y-931317D01*
X5029706Y-931317D02*
X5010658Y-921793D01*
X5010658Y-921793D02*
X5001134Y-902746D01*
X5001134Y-902746D02*
X5001134Y-893222D01*
X5001134Y-893222D02*
X5010658Y-874174D01*
X5010658Y-874174D02*
X5029706Y-864650D01*
X5029706Y-864650D02*
X5058277Y-864650D01*
X5058277Y-864650D02*
X5077325Y-874174D01*
X5153515Y-1074174D02*
X5163039Y-1064650D01*
X5163039Y-1064650D02*
X5182087Y-1036079D01*
X5182087Y-1036079D02*
X5191611Y-1017031D01*
X5191611Y-1017031D02*
X5201134Y-988460D01*
X5201134Y-988460D02*
X5210658Y-940841D01*
X5210658Y-940841D02*
X5210658Y-902746D01*
X5210658Y-902746D02*
X5201134Y-855127D01*
X5201134Y-855127D02*
X5191611Y-826555D01*
X5191611Y-826555D02*
X5182087Y-807508D01*
X5182087Y-807508D02*
X5163039Y-778936D01*
X5163039Y-778936D02*
X5153515Y-769412D01*
D12*
X-22500Y-1150500D02*
X-22500Y-1190500D01*
X-42500Y-1170500D02*
X-2500Y-1170500D01*
D11*
X296372Y-1061984D02*
X315420Y-1061984D01*
X315420Y-1061984D02*
X334467Y-1071508D01*
X334467Y-1071508D02*
X343991Y-1081031D01*
X343991Y-1081031D02*
X353515Y-1100079D01*
X353515Y-1100079D02*
X363039Y-1138174D01*
X363039Y-1138174D02*
X363039Y-1185793D01*
X363039Y-1185793D02*
X353515Y-1223889D01*
X353515Y-1223889D02*
X343991Y-1242936D01*
X343991Y-1242936D02*
X334467Y-1252460D01*
X334467Y-1252460D02*
X315420Y-1261984D01*
X315420Y-1261984D02*
X296372Y-1261984D01*
X296372Y-1261984D02*
X277324Y-1252460D01*
X277324Y-1252460D02*
X267801Y-1242936D01*
X267801Y-1242936D02*
X258277Y-1223889D01*
X258277Y-1223889D02*
X248753Y-1185793D01*
X248753Y-1185793D02*
X248753Y-1138174D01*
X248753Y-1138174D02*
X258277Y-1100079D01*
X258277Y-1100079D02*
X267801Y-1081031D01*
X267801Y-1081031D02*
X277324Y-1071508D01*
X277324Y-1071508D02*
X296372Y-1061984D01*
X448753Y-1242936D02*
X458277Y-1252460D01*
X458277Y-1252460D02*
X448753Y-1261984D01*
X448753Y-1261984D02*
X439229Y-1252460D01*
X439229Y-1252460D02*
X448753Y-1242936D01*
X448753Y-1242936D02*
X448753Y-1261984D01*
X629705Y-1128650D02*
X629705Y-1261984D01*
X582086Y-1052460D02*
X534467Y-1195317D01*
X534467Y-1195317D02*
X658277Y-1195317D01*
X772562Y-1061984D02*
X791610Y-1061984D01*
X791610Y-1061984D02*
X810658Y-1071508D01*
X810658Y-1071508D02*
X820182Y-1081031D01*
X820182Y-1081031D02*
X829705Y-1100079D01*
X829705Y-1100079D02*
X839229Y-1138174D01*
X839229Y-1138174D02*
X839229Y-1185793D01*
X839229Y-1185793D02*
X829705Y-1223889D01*
X829705Y-1223889D02*
X820182Y-1242936D01*
X820182Y-1242936D02*
X810658Y-1252460D01*
X810658Y-1252460D02*
X791610Y-1261984D01*
X791610Y-1261984D02*
X772562Y-1261984D01*
X772562Y-1261984D02*
X753515Y-1252460D01*
X753515Y-1252460D02*
X743991Y-1242936D01*
X743991Y-1242936D02*
X734467Y-1223889D01*
X734467Y-1223889D02*
X724943Y-1185793D01*
X724943Y-1185793D02*
X724943Y-1138174D01*
X724943Y-1138174D02*
X734467Y-1100079D01*
X734467Y-1100079D02*
X743991Y-1081031D01*
X743991Y-1081031D02*
X753515Y-1071508D01*
X753515Y-1071508D02*
X772562Y-1061984D01*
X963039Y-1061984D02*
X982086Y-1061984D01*
X982086Y-1061984D02*
X1001134Y-1071508D01*
X1001134Y-1071508D02*
X1010658Y-1081031D01*
X1010658Y-1081031D02*
X1020182Y-1100079D01*
X1020182Y-1100079D02*
X1029705Y-1138174D01*
X1029705Y-1138174D02*
X1029705Y-1185793D01*
X1029705Y-1185793D02*
X1020182Y-1223889D01*
X1020182Y-1223889D02*
X1010658Y-1242936D01*
X1010658Y-1242936D02*
X1001134Y-1252460D01*
X1001134Y-1252460D02*
X982086Y-1261984D01*
X982086Y-1261984D02*
X963039Y-1261984D01*
X963039Y-1261984D02*
X943991Y-1252460D01*
X943991Y-1252460D02*
X934467Y-1242936D01*
X934467Y-1242936D02*
X924943Y-1223889D01*
X924943Y-1223889D02*
X915420Y-1185793D01*
X915420Y-1185793D02*
X915420Y-1138174D01*
X915420Y-1138174D02*
X924943Y-1100079D01*
X924943Y-1100079D02*
X934467Y-1081031D01*
X934467Y-1081031D02*
X943991Y-1071508D01*
X943991Y-1071508D02*
X963039Y-1061984D01*
X1115420Y-1261984D02*
X1115420Y-1128650D01*
X1115420Y-1147698D02*
X1124944Y-1138174D01*
X1124944Y-1138174D02*
X1143991Y-1128650D01*
X1143991Y-1128650D02*
X1172563Y-1128650D01*
X1172563Y-1128650D02*
X1191610Y-1138174D01*
X1191610Y-1138174D02*
X1201134Y-1157222D01*
X1201134Y-1157222D02*
X1201134Y-1261984D01*
X1201134Y-1157222D02*
X1210658Y-1138174D01*
X1210658Y-1138174D02*
X1229705Y-1128650D01*
X1229705Y-1128650D02*
X1258277Y-1128650D01*
X1258277Y-1128650D02*
X1277325Y-1138174D01*
X1277325Y-1138174D02*
X1286848Y-1157222D01*
X1286848Y-1157222D02*
X1286848Y-1261984D01*
X1382086Y-1261984D02*
X1382086Y-1128650D01*
X1382086Y-1147698D02*
X1391610Y-1138174D01*
X1391610Y-1138174D02*
X1410658Y-1128650D01*
X1410658Y-1128650D02*
X1439229Y-1128650D01*
X1439229Y-1128650D02*
X1458277Y-1138174D01*
X1458277Y-1138174D02*
X1467801Y-1157222D01*
X1467801Y-1157222D02*
X1467801Y-1261984D01*
X1467801Y-1157222D02*
X1477324Y-1138174D01*
X1477324Y-1138174D02*
X1496372Y-1128650D01*
X1496372Y-1128650D02*
X1524943Y-1128650D01*
X1524943Y-1128650D02*
X1543991Y-1138174D01*
X1543991Y-1138174D02*
X1553515Y-1157222D01*
X1553515Y-1157222D02*
X1553515Y-1261984D01*
X1943991Y-1052460D02*
X1772563Y-1309603D01*
X2201134Y-1061984D02*
X2220182Y-1061984D01*
X2220182Y-1061984D02*
X2239229Y-1071508D01*
X2239229Y-1071508D02*
X2248753Y-1081031D01*
X2248753Y-1081031D02*
X2258277Y-1100079D01*
X2258277Y-1100079D02*
X2267801Y-1138174D01*
X2267801Y-1138174D02*
X2267801Y-1185793D01*
X2267801Y-1185793D02*
X2258277Y-1223889D01*
X2258277Y-1223889D02*
X2248753Y-1242936D01*
X2248753Y-1242936D02*
X2239229Y-1252460D01*
X2239229Y-1252460D02*
X2220182Y-1261984D01*
X2220182Y-1261984D02*
X2201134Y-1261984D01*
X2201134Y-1261984D02*
X2182087Y-1252460D01*
X2182087Y-1252460D02*
X2172563Y-1242936D01*
X2172563Y-1242936D02*
X2163039Y-1223889D01*
X2163039Y-1223889D02*
X2153515Y-1185793D01*
X2153515Y-1185793D02*
X2153515Y-1138174D01*
X2153515Y-1138174D02*
X2163039Y-1100079D01*
X2163039Y-1100079D02*
X2172563Y-1081031D01*
X2172563Y-1081031D02*
X2182087Y-1071508D01*
X2182087Y-1071508D02*
X2201134Y-1061984D01*
X2353515Y-1242936D02*
X2363039Y-1252460D01*
X2363039Y-1252460D02*
X2353515Y-1261984D01*
X2353515Y-1261984D02*
X2343991Y-1252460D01*
X2343991Y-1252460D02*
X2353515Y-1242936D01*
X2353515Y-1242936D02*
X2353515Y-1261984D01*
X2486848Y-1061984D02*
X2505896Y-1061984D01*
X2505896Y-1061984D02*
X2524944Y-1071508D01*
X2524944Y-1071508D02*
X2534468Y-1081031D01*
X2534468Y-1081031D02*
X2543991Y-1100079D01*
X2543991Y-1100079D02*
X2553515Y-1138174D01*
X2553515Y-1138174D02*
X2553515Y-1185793D01*
X2553515Y-1185793D02*
X2543991Y-1223889D01*
X2543991Y-1223889D02*
X2534468Y-1242936D01*
X2534468Y-1242936D02*
X2524944Y-1252460D01*
X2524944Y-1252460D02*
X2505896Y-1261984D01*
X2505896Y-1261984D02*
X2486848Y-1261984D01*
X2486848Y-1261984D02*
X2467801Y-1252460D01*
X2467801Y-1252460D02*
X2458277Y-1242936D01*
X2458277Y-1242936D02*
X2448753Y-1223889D01*
X2448753Y-1223889D02*
X2439229Y-1185793D01*
X2439229Y-1185793D02*
X2439229Y-1138174D01*
X2439229Y-1138174D02*
X2448753Y-1100079D01*
X2448753Y-1100079D02*
X2458277Y-1081031D01*
X2458277Y-1081031D02*
X2467801Y-1071508D01*
X2467801Y-1071508D02*
X2486848Y-1061984D01*
X2743991Y-1261984D02*
X2629706Y-1261984D01*
X2686848Y-1261984D02*
X2686848Y-1061984D01*
X2686848Y-1061984D02*
X2667801Y-1090555D01*
X2667801Y-1090555D02*
X2648753Y-1109603D01*
X2648753Y-1109603D02*
X2629706Y-1119127D01*
X2924944Y-1061984D02*
X2829706Y-1061984D01*
X2829706Y-1061984D02*
X2820182Y-1157222D01*
X2820182Y-1157222D02*
X2829706Y-1147698D01*
X2829706Y-1147698D02*
X2848753Y-1138174D01*
X2848753Y-1138174D02*
X2896372Y-1138174D01*
X2896372Y-1138174D02*
X2915420Y-1147698D01*
X2915420Y-1147698D02*
X2924944Y-1157222D01*
X2924944Y-1157222D02*
X2934467Y-1176270D01*
X2934467Y-1176270D02*
X2934467Y-1223889D01*
X2934467Y-1223889D02*
X2924944Y-1242936D01*
X2924944Y-1242936D02*
X2915420Y-1252460D01*
X2915420Y-1252460D02*
X2896372Y-1261984D01*
X2896372Y-1261984D02*
X2848753Y-1261984D01*
X2848753Y-1261984D02*
X2829706Y-1252460D01*
X2829706Y-1252460D02*
X2820182Y-1242936D01*
X3001134Y-1061984D02*
X3134467Y-1061984D01*
X3134467Y-1061984D02*
X3048753Y-1261984D01*
X3201134Y-1061984D02*
X3201134Y-1100079D01*
X3277325Y-1061984D02*
X3277325Y-1100079D01*
X3572563Y-1338174D02*
X3563039Y-1328650D01*
X3563039Y-1328650D02*
X3543991Y-1300079D01*
X3543991Y-1300079D02*
X3534468Y-1281031D01*
X3534468Y-1281031D02*
X3524944Y-1252460D01*
X3524944Y-1252460D02*
X3515420Y-1204841D01*
X3515420Y-1204841D02*
X3515420Y-1166746D01*
X3515420Y-1166746D02*
X3524944Y-1119127D01*
X3524944Y-1119127D02*
X3534468Y-1090555D01*
X3534468Y-1090555D02*
X3543991Y-1071508D01*
X3543991Y-1071508D02*
X3563039Y-1042936D01*
X3563039Y-1042936D02*
X3572563Y-1033412D01*
X3753515Y-1261984D02*
X3639229Y-1261984D01*
X3696372Y-1261984D02*
X3696372Y-1061984D01*
X3696372Y-1061984D02*
X3677325Y-1090555D01*
X3677325Y-1090555D02*
X3658277Y-1109603D01*
X3658277Y-1109603D02*
X3639229Y-1119127D01*
X3924944Y-1061984D02*
X3886848Y-1061984D01*
X3886848Y-1061984D02*
X3867801Y-1071508D01*
X3867801Y-1071508D02*
X3858277Y-1081031D01*
X3858277Y-1081031D02*
X3839229Y-1109603D01*
X3839229Y-1109603D02*
X3829706Y-1147698D01*
X3829706Y-1147698D02*
X3829706Y-1223889D01*
X3829706Y-1223889D02*
X3839229Y-1242936D01*
X3839229Y-1242936D02*
X3848753Y-1252460D01*
X3848753Y-1252460D02*
X3867801Y-1261984D01*
X3867801Y-1261984D02*
X3905896Y-1261984D01*
X3905896Y-1261984D02*
X3924944Y-1252460D01*
X3924944Y-1252460D02*
X3934468Y-1242936D01*
X3934468Y-1242936D02*
X3943991Y-1223889D01*
X3943991Y-1223889D02*
X3943991Y-1176270D01*
X3943991Y-1176270D02*
X3934468Y-1157222D01*
X3934468Y-1157222D02*
X3924944Y-1147698D01*
X3924944Y-1147698D02*
X3905896Y-1138174D01*
X3905896Y-1138174D02*
X3867801Y-1138174D01*
X3867801Y-1138174D02*
X3848753Y-1147698D01*
X3848753Y-1147698D02*
X3839229Y-1157222D01*
X3839229Y-1157222D02*
X3829706Y-1176270D01*
X4182087Y-1261984D02*
X4182087Y-1061984D01*
X4267801Y-1261984D02*
X4267801Y-1157222D01*
X4267801Y-1157222D02*
X4258277Y-1138174D01*
X4258277Y-1138174D02*
X4239230Y-1128650D01*
X4239230Y-1128650D02*
X4210658Y-1128650D01*
X4210658Y-1128650D02*
X4191610Y-1138174D01*
X4191610Y-1138174D02*
X4182087Y-1147698D01*
X4391611Y-1261984D02*
X4372563Y-1252460D01*
X4372563Y-1252460D02*
X4363039Y-1242936D01*
X4363039Y-1242936D02*
X4353515Y-1223889D01*
X4353515Y-1223889D02*
X4353515Y-1166746D01*
X4353515Y-1166746D02*
X4363039Y-1147698D01*
X4363039Y-1147698D02*
X4372563Y-1138174D01*
X4372563Y-1138174D02*
X4391611Y-1128650D01*
X4391611Y-1128650D02*
X4420182Y-1128650D01*
X4420182Y-1128650D02*
X4439230Y-1138174D01*
X4439230Y-1138174D02*
X4448753Y-1147698D01*
X4448753Y-1147698D02*
X4458277Y-1166746D01*
X4458277Y-1166746D02*
X4458277Y-1223889D01*
X4458277Y-1223889D02*
X4448753Y-1242936D01*
X4448753Y-1242936D02*
X4439230Y-1252460D01*
X4439230Y-1252460D02*
X4420182Y-1261984D01*
X4420182Y-1261984D02*
X4391611Y-1261984D01*
X4572563Y-1261984D02*
X4553515Y-1252460D01*
X4553515Y-1252460D02*
X4543992Y-1233412D01*
X4543992Y-1233412D02*
X4543992Y-1061984D01*
X4724944Y-1252460D02*
X4705896Y-1261984D01*
X4705896Y-1261984D02*
X4667801Y-1261984D01*
X4667801Y-1261984D02*
X4648753Y-1252460D01*
X4648753Y-1252460D02*
X4639230Y-1233412D01*
X4639230Y-1233412D02*
X4639230Y-1157222D01*
X4639230Y-1157222D02*
X4648753Y-1138174D01*
X4648753Y-1138174D02*
X4667801Y-1128650D01*
X4667801Y-1128650D02*
X4705896Y-1128650D01*
X4705896Y-1128650D02*
X4724944Y-1138174D01*
X4724944Y-1138174D02*
X4734468Y-1157222D01*
X4734468Y-1157222D02*
X4734468Y-1176270D01*
X4734468Y-1176270D02*
X4639230Y-1195317D01*
X4810658Y-1252460D02*
X4829706Y-1261984D01*
X4829706Y-1261984D02*
X4867801Y-1261984D01*
X4867801Y-1261984D02*
X4886849Y-1252460D01*
X4886849Y-1252460D02*
X4896373Y-1233412D01*
X4896373Y-1233412D02*
X4896373Y-1223889D01*
X4896373Y-1223889D02*
X4886849Y-1204841D01*
X4886849Y-1204841D02*
X4867801Y-1195317D01*
X4867801Y-1195317D02*
X4839230Y-1195317D01*
X4839230Y-1195317D02*
X4820182Y-1185793D01*
X4820182Y-1185793D02*
X4810658Y-1166746D01*
X4810658Y-1166746D02*
X4810658Y-1157222D01*
X4810658Y-1157222D02*
X4820182Y-1138174D01*
X4820182Y-1138174D02*
X4839230Y-1128650D01*
X4839230Y-1128650D02*
X4867801Y-1128650D01*
X4867801Y-1128650D02*
X4886849Y-1138174D01*
X4963039Y-1338174D02*
X4972563Y-1328650D01*
X4972563Y-1328650D02*
X4991611Y-1300079D01*
X4991611Y-1300079D02*
X5001134Y-1281031D01*
X5001134Y-1281031D02*
X5010658Y-1252460D01*
X5010658Y-1252460D02*
X5020182Y-1204841D01*
X5020182Y-1204841D02*
X5020182Y-1166746D01*
X5020182Y-1166746D02*
X5010658Y-1119127D01*
X5010658Y-1119127D02*
X5001134Y-1090555D01*
X5001134Y-1090555D02*
X4991611Y-1071508D01*
X4991611Y-1071508D02*
X4972563Y-1042936D01*
X4972563Y-1042936D02*
X4963039Y-1033412D01*
D12*
X-11287Y-1455713D02*
X-11287Y-1413287D01*
X-53713Y-1413287D01*
X-53713Y-1455713D01*
X-11287Y-1455713D01*
D11*
X296372Y-1325984D02*
X315420Y-1325984D01*
X315420Y-1325984D02*
X334467Y-1335508D01*
X334467Y-1335508D02*
X343991Y-1345031D01*
X343991Y-1345031D02*
X353515Y-1364079D01*
X353515Y-1364079D02*
X363039Y-1402174D01*
X363039Y-1402174D02*
X363039Y-1449793D01*
X363039Y-1449793D02*
X353515Y-1487888D01*
X353515Y-1487888D02*
X343991Y-1506936D01*
X343991Y-1506936D02*
X334467Y-1516460D01*
X334467Y-1516460D02*
X315420Y-1525984D01*
X315420Y-1525984D02*
X296372Y-1525984D01*
X296372Y-1525984D02*
X277324Y-1516460D01*
X277324Y-1516460D02*
X267801Y-1506936D01*
X267801Y-1506936D02*
X258277Y-1487888D01*
X258277Y-1487888D02*
X248753Y-1449793D01*
X248753Y-1449793D02*
X248753Y-1402174D01*
X248753Y-1402174D02*
X258277Y-1364079D01*
X258277Y-1364079D02*
X267801Y-1345031D01*
X267801Y-1345031D02*
X277324Y-1335508D01*
X277324Y-1335508D02*
X296372Y-1325984D01*
X448753Y-1506936D02*
X458277Y-1516460D01*
X458277Y-1516460D02*
X448753Y-1525984D01*
X448753Y-1525984D02*
X439229Y-1516460D01*
X439229Y-1516460D02*
X448753Y-1506936D01*
X448753Y-1506936D02*
X448753Y-1525984D01*
X629705Y-1325984D02*
X591610Y-1325984D01*
X591610Y-1325984D02*
X572563Y-1335508D01*
X572563Y-1335508D02*
X563039Y-1345031D01*
X563039Y-1345031D02*
X543991Y-1373603D01*
X543991Y-1373603D02*
X534467Y-1411698D01*
X534467Y-1411698D02*
X534467Y-1487888D01*
X534467Y-1487888D02*
X543991Y-1506936D01*
X543991Y-1506936D02*
X553515Y-1516460D01*
X553515Y-1516460D02*
X572563Y-1525984D01*
X572563Y-1525984D02*
X610658Y-1525984D01*
X610658Y-1525984D02*
X629705Y-1516460D01*
X629705Y-1516460D02*
X639229Y-1506936D01*
X639229Y-1506936D02*
X648753Y-1487888D01*
X648753Y-1487888D02*
X648753Y-1440269D01*
X648753Y-1440269D02*
X639229Y-1421222D01*
X639229Y-1421222D02*
X629705Y-1411698D01*
X629705Y-1411698D02*
X610658Y-1402174D01*
X610658Y-1402174D02*
X572563Y-1402174D01*
X572563Y-1402174D02*
X553515Y-1411698D01*
X553515Y-1411698D02*
X543991Y-1421222D01*
X543991Y-1421222D02*
X534467Y-1440269D01*
X772562Y-1325984D02*
X791610Y-1325984D01*
X791610Y-1325984D02*
X810658Y-1335508D01*
X810658Y-1335508D02*
X820182Y-1345031D01*
X820182Y-1345031D02*
X829705Y-1364079D01*
X829705Y-1364079D02*
X839229Y-1402174D01*
X839229Y-1402174D02*
X839229Y-1449793D01*
X839229Y-1449793D02*
X829705Y-1487888D01*
X829705Y-1487888D02*
X820182Y-1506936D01*
X820182Y-1506936D02*
X810658Y-1516460D01*
X810658Y-1516460D02*
X791610Y-1525984D01*
X791610Y-1525984D02*
X772562Y-1525984D01*
X772562Y-1525984D02*
X753515Y-1516460D01*
X753515Y-1516460D02*
X743991Y-1506936D01*
X743991Y-1506936D02*
X734467Y-1487888D01*
X734467Y-1487888D02*
X724943Y-1449793D01*
X724943Y-1449793D02*
X724943Y-1402174D01*
X724943Y-1402174D02*
X734467Y-1364079D01*
X734467Y-1364079D02*
X743991Y-1345031D01*
X743991Y-1345031D02*
X753515Y-1335508D01*
X753515Y-1335508D02*
X772562Y-1325984D01*
X963039Y-1325984D02*
X982086Y-1325984D01*
X982086Y-1325984D02*
X1001134Y-1335508D01*
X1001134Y-1335508D02*
X1010658Y-1345031D01*
X1010658Y-1345031D02*
X1020182Y-1364079D01*
X1020182Y-1364079D02*
X1029705Y-1402174D01*
X1029705Y-1402174D02*
X1029705Y-1449793D01*
X1029705Y-1449793D02*
X1020182Y-1487888D01*
X1020182Y-1487888D02*
X1010658Y-1506936D01*
X1010658Y-1506936D02*
X1001134Y-1516460D01*
X1001134Y-1516460D02*
X982086Y-1525984D01*
X982086Y-1525984D02*
X963039Y-1525984D01*
X963039Y-1525984D02*
X943991Y-1516460D01*
X943991Y-1516460D02*
X934467Y-1506936D01*
X934467Y-1506936D02*
X924943Y-1487888D01*
X924943Y-1487888D02*
X915420Y-1449793D01*
X915420Y-1449793D02*
X915420Y-1402174D01*
X915420Y-1402174D02*
X924943Y-1364079D01*
X924943Y-1364079D02*
X934467Y-1345031D01*
X934467Y-1345031D02*
X943991Y-1335508D01*
X943991Y-1335508D02*
X963039Y-1325984D01*
X1115420Y-1525984D02*
X1115420Y-1392650D01*
X1115420Y-1411698D02*
X1124944Y-1402174D01*
X1124944Y-1402174D02*
X1143991Y-1392650D01*
X1143991Y-1392650D02*
X1172563Y-1392650D01*
X1172563Y-1392650D02*
X1191610Y-1402174D01*
X1191610Y-1402174D02*
X1201134Y-1421222D01*
X1201134Y-1421222D02*
X1201134Y-1525984D01*
X1201134Y-1421222D02*
X1210658Y-1402174D01*
X1210658Y-1402174D02*
X1229705Y-1392650D01*
X1229705Y-1392650D02*
X1258277Y-1392650D01*
X1258277Y-1392650D02*
X1277325Y-1402174D01*
X1277325Y-1402174D02*
X1286848Y-1421222D01*
X1286848Y-1421222D02*
X1286848Y-1525984D01*
X1382086Y-1525984D02*
X1382086Y-1392650D01*
X1382086Y-1411698D02*
X1391610Y-1402174D01*
X1391610Y-1402174D02*
X1410658Y-1392650D01*
X1410658Y-1392650D02*
X1439229Y-1392650D01*
X1439229Y-1392650D02*
X1458277Y-1402174D01*
X1458277Y-1402174D02*
X1467801Y-1421222D01*
X1467801Y-1421222D02*
X1467801Y-1525984D01*
X1467801Y-1421222D02*
X1477324Y-1402174D01*
X1477324Y-1402174D02*
X1496372Y-1392650D01*
X1496372Y-1392650D02*
X1524943Y-1392650D01*
X1524943Y-1392650D02*
X1543991Y-1402174D01*
X1543991Y-1402174D02*
X1553515Y-1421222D01*
X1553515Y-1421222D02*
X1553515Y-1525984D01*
X1943991Y-1316460D02*
X1772563Y-1573603D01*
X2201134Y-1325984D02*
X2220182Y-1325984D01*
X2220182Y-1325984D02*
X2239229Y-1335508D01*
X2239229Y-1335508D02*
X2248753Y-1345031D01*
X2248753Y-1345031D02*
X2258277Y-1364079D01*
X2258277Y-1364079D02*
X2267801Y-1402174D01*
X2267801Y-1402174D02*
X2267801Y-1449793D01*
X2267801Y-1449793D02*
X2258277Y-1487888D01*
X2258277Y-1487888D02*
X2248753Y-1506936D01*
X2248753Y-1506936D02*
X2239229Y-1516460D01*
X2239229Y-1516460D02*
X2220182Y-1525984D01*
X2220182Y-1525984D02*
X2201134Y-1525984D01*
X2201134Y-1525984D02*
X2182087Y-1516460D01*
X2182087Y-1516460D02*
X2172563Y-1506936D01*
X2172563Y-1506936D02*
X2163039Y-1487888D01*
X2163039Y-1487888D02*
X2153515Y-1449793D01*
X2153515Y-1449793D02*
X2153515Y-1402174D01*
X2153515Y-1402174D02*
X2163039Y-1364079D01*
X2163039Y-1364079D02*
X2172563Y-1345031D01*
X2172563Y-1345031D02*
X2182087Y-1335508D01*
X2182087Y-1335508D02*
X2201134Y-1325984D01*
X2353515Y-1506936D02*
X2363039Y-1516460D01*
X2363039Y-1516460D02*
X2353515Y-1525984D01*
X2353515Y-1525984D02*
X2343991Y-1516460D01*
X2343991Y-1516460D02*
X2353515Y-1506936D01*
X2353515Y-1506936D02*
X2353515Y-1525984D01*
X2486848Y-1325984D02*
X2505896Y-1325984D01*
X2505896Y-1325984D02*
X2524944Y-1335508D01*
X2524944Y-1335508D02*
X2534468Y-1345031D01*
X2534468Y-1345031D02*
X2543991Y-1364079D01*
X2543991Y-1364079D02*
X2553515Y-1402174D01*
X2553515Y-1402174D02*
X2553515Y-1449793D01*
X2553515Y-1449793D02*
X2543991Y-1487888D01*
X2543991Y-1487888D02*
X2534468Y-1506936D01*
X2534468Y-1506936D02*
X2524944Y-1516460D01*
X2524944Y-1516460D02*
X2505896Y-1525984D01*
X2505896Y-1525984D02*
X2486848Y-1525984D01*
X2486848Y-1525984D02*
X2467801Y-1516460D01*
X2467801Y-1516460D02*
X2458277Y-1506936D01*
X2458277Y-1506936D02*
X2448753Y-1487888D01*
X2448753Y-1487888D02*
X2439229Y-1449793D01*
X2439229Y-1449793D02*
X2439229Y-1402174D01*
X2439229Y-1402174D02*
X2448753Y-1364079D01*
X2448753Y-1364079D02*
X2458277Y-1345031D01*
X2458277Y-1345031D02*
X2467801Y-1335508D01*
X2467801Y-1335508D02*
X2486848Y-1325984D01*
X2629706Y-1345031D02*
X2639229Y-1335508D01*
X2639229Y-1335508D02*
X2658277Y-1325984D01*
X2658277Y-1325984D02*
X2705896Y-1325984D01*
X2705896Y-1325984D02*
X2724944Y-1335508D01*
X2724944Y-1335508D02*
X2734468Y-1345031D01*
X2734468Y-1345031D02*
X2743991Y-1364079D01*
X2743991Y-1364079D02*
X2743991Y-1383127D01*
X2743991Y-1383127D02*
X2734468Y-1411698D01*
X2734468Y-1411698D02*
X2620182Y-1525984D01*
X2620182Y-1525984D02*
X2743991Y-1525984D01*
X2810658Y-1325984D02*
X2934467Y-1325984D01*
X2934467Y-1325984D02*
X2867801Y-1402174D01*
X2867801Y-1402174D02*
X2896372Y-1402174D01*
X2896372Y-1402174D02*
X2915420Y-1411698D01*
X2915420Y-1411698D02*
X2924944Y-1421222D01*
X2924944Y-1421222D02*
X2934467Y-1440269D01*
X2934467Y-1440269D02*
X2934467Y-1487888D01*
X2934467Y-1487888D02*
X2924944Y-1506936D01*
X2924944Y-1506936D02*
X2915420Y-1516460D01*
X2915420Y-1516460D02*
X2896372Y-1525984D01*
X2896372Y-1525984D02*
X2839229Y-1525984D01*
X2839229Y-1525984D02*
X2820182Y-1516460D01*
X2820182Y-1516460D02*
X2810658Y-1506936D01*
X3105896Y-1325984D02*
X3067801Y-1325984D01*
X3067801Y-1325984D02*
X3048753Y-1335508D01*
X3048753Y-1335508D02*
X3039229Y-1345031D01*
X3039229Y-1345031D02*
X3020182Y-1373603D01*
X3020182Y-1373603D02*
X3010658Y-1411698D01*
X3010658Y-1411698D02*
X3010658Y-1487888D01*
X3010658Y-1487888D02*
X3020182Y-1506936D01*
X3020182Y-1506936D02*
X3029706Y-1516460D01*
X3029706Y-1516460D02*
X3048753Y-1525984D01*
X3048753Y-1525984D02*
X3086848Y-1525984D01*
X3086848Y-1525984D02*
X3105896Y-1516460D01*
X3105896Y-1516460D02*
X3115420Y-1506936D01*
X3115420Y-1506936D02*
X3124944Y-1487888D01*
X3124944Y-1487888D02*
X3124944Y-1440269D01*
X3124944Y-1440269D02*
X3115420Y-1421222D01*
X3115420Y-1421222D02*
X3105896Y-1411698D01*
X3105896Y-1411698D02*
X3086848Y-1402174D01*
X3086848Y-1402174D02*
X3048753Y-1402174D01*
X3048753Y-1402174D02*
X3029706Y-1411698D01*
X3029706Y-1411698D02*
X3020182Y-1421222D01*
X3020182Y-1421222D02*
X3010658Y-1440269D01*
X3201134Y-1325984D02*
X3201134Y-1364079D01*
X3277325Y-1325984D02*
X3277325Y-1364079D01*
X3572563Y-1602174D02*
X3563039Y-1592650D01*
X3563039Y-1592650D02*
X3543991Y-1564079D01*
X3543991Y-1564079D02*
X3534468Y-1545031D01*
X3534468Y-1545031D02*
X3524944Y-1516460D01*
X3524944Y-1516460D02*
X3515420Y-1468841D01*
X3515420Y-1468841D02*
X3515420Y-1430746D01*
X3515420Y-1430746D02*
X3524944Y-1383127D01*
X3524944Y-1383127D02*
X3534468Y-1354555D01*
X3534468Y-1354555D02*
X3543991Y-1335508D01*
X3543991Y-1335508D02*
X3563039Y-1306936D01*
X3563039Y-1306936D02*
X3572563Y-1297412D01*
X3686848Y-1325984D02*
X3705896Y-1325984D01*
X3705896Y-1325984D02*
X3724944Y-1335508D01*
X3724944Y-1335508D02*
X3734468Y-1345031D01*
X3734468Y-1345031D02*
X3743991Y-1364079D01*
X3743991Y-1364079D02*
X3753515Y-1402174D01*
X3753515Y-1402174D02*
X3753515Y-1449793D01*
X3753515Y-1449793D02*
X3743991Y-1487888D01*
X3743991Y-1487888D02*
X3734468Y-1506936D01*
X3734468Y-1506936D02*
X3724944Y-1516460D01*
X3724944Y-1516460D02*
X3705896Y-1525984D01*
X3705896Y-1525984D02*
X3686848Y-1525984D01*
X3686848Y-1525984D02*
X3667801Y-1516460D01*
X3667801Y-1516460D02*
X3658277Y-1506936D01*
X3658277Y-1506936D02*
X3648753Y-1487888D01*
X3648753Y-1487888D02*
X3639229Y-1449793D01*
X3639229Y-1449793D02*
X3639229Y-1402174D01*
X3639229Y-1402174D02*
X3648753Y-1364079D01*
X3648753Y-1364079D02*
X3658277Y-1345031D01*
X3658277Y-1345031D02*
X3667801Y-1335508D01*
X3667801Y-1335508D02*
X3686848Y-1325984D01*
X3991610Y-1525984D02*
X3991610Y-1325984D01*
X4077325Y-1525984D02*
X4077325Y-1421222D01*
X4077325Y-1421222D02*
X4067801Y-1402174D01*
X4067801Y-1402174D02*
X4048753Y-1392650D01*
X4048753Y-1392650D02*
X4020182Y-1392650D01*
X4020182Y-1392650D02*
X4001134Y-1402174D01*
X4001134Y-1402174D02*
X3991610Y-1411698D01*
X4201134Y-1525984D02*
X4182087Y-1516460D01*
X4182087Y-1516460D02*
X4172563Y-1506936D01*
X4172563Y-1506936D02*
X4163039Y-1487888D01*
X4163039Y-1487888D02*
X4163039Y-1430746D01*
X4163039Y-1430746D02*
X4172563Y-1411698D01*
X4172563Y-1411698D02*
X4182087Y-1402174D01*
X4182087Y-1402174D02*
X4201134Y-1392650D01*
X4201134Y-1392650D02*
X4229706Y-1392650D01*
X4229706Y-1392650D02*
X4248753Y-1402174D01*
X4248753Y-1402174D02*
X4258277Y-1411698D01*
X4258277Y-1411698D02*
X4267801Y-1430746D01*
X4267801Y-1430746D02*
X4267801Y-1487888D01*
X4267801Y-1487888D02*
X4258277Y-1506936D01*
X4258277Y-1506936D02*
X4248753Y-1516460D01*
X4248753Y-1516460D02*
X4229706Y-1525984D01*
X4229706Y-1525984D02*
X4201134Y-1525984D01*
X4382087Y-1525984D02*
X4363039Y-1516460D01*
X4363039Y-1516460D02*
X4353515Y-1497412D01*
X4353515Y-1497412D02*
X4353515Y-1325984D01*
X4534468Y-1516460D02*
X4515420Y-1525984D01*
X4515420Y-1525984D02*
X4477325Y-1525984D01*
X4477325Y-1525984D02*
X4458277Y-1516460D01*
X4458277Y-1516460D02*
X4448753Y-1497412D01*
X4448753Y-1497412D02*
X4448753Y-1421222D01*
X4448753Y-1421222D02*
X4458277Y-1402174D01*
X4458277Y-1402174D02*
X4477325Y-1392650D01*
X4477325Y-1392650D02*
X4515420Y-1392650D01*
X4515420Y-1392650D02*
X4534468Y-1402174D01*
X4534468Y-1402174D02*
X4543992Y-1421222D01*
X4543992Y-1421222D02*
X4543992Y-1440269D01*
X4543992Y-1440269D02*
X4448753Y-1459317D01*
X4620182Y-1516460D02*
X4639230Y-1525984D01*
X4639230Y-1525984D02*
X4677325Y-1525984D01*
X4677325Y-1525984D02*
X4696373Y-1516460D01*
X4696373Y-1516460D02*
X4705896Y-1497412D01*
X4705896Y-1497412D02*
X4705896Y-1487888D01*
X4705896Y-1487888D02*
X4696373Y-1468841D01*
X4696373Y-1468841D02*
X4677325Y-1459317D01*
X4677325Y-1459317D02*
X4648753Y-1459317D01*
X4648753Y-1459317D02*
X4629706Y-1449793D01*
X4629706Y-1449793D02*
X4620182Y-1430746D01*
X4620182Y-1430746D02*
X4620182Y-1421222D01*
X4620182Y-1421222D02*
X4629706Y-1402174D01*
X4629706Y-1402174D02*
X4648753Y-1392650D01*
X4648753Y-1392650D02*
X4677325Y-1392650D01*
X4677325Y-1392650D02*
X4696373Y-1402174D01*
X4943992Y-1449793D02*
X5096373Y-1449793D01*
X5020182Y-1525984D02*
X5020182Y-1373603D01*
X5429706Y-1392650D02*
X5429706Y-1525984D01*
X5382087Y-1316460D02*
X5334468Y-1459317D01*
X5334468Y-1459317D02*
X5458277Y-1459317D01*
X5677325Y-1516460D02*
X5696373Y-1525984D01*
X5696373Y-1525984D02*
X5734468Y-1525984D01*
X5734468Y-1525984D02*
X5753515Y-1516460D01*
X5753515Y-1516460D02*
X5763039Y-1497412D01*
X5763039Y-1497412D02*
X5763039Y-1487888D01*
X5763039Y-1487888D02*
X5753515Y-1468841D01*
X5753515Y-1468841D02*
X5734468Y-1459317D01*
X5734468Y-1459317D02*
X5705896Y-1459317D01*
X5705896Y-1459317D02*
X5686849Y-1449793D01*
X5686849Y-1449793D02*
X5677325Y-1430746D01*
X5677325Y-1430746D02*
X5677325Y-1421222D01*
X5677325Y-1421222D02*
X5686849Y-1402174D01*
X5686849Y-1402174D02*
X5705896Y-1392650D01*
X5705896Y-1392650D02*
X5734468Y-1392650D01*
X5734468Y-1392650D02*
X5753515Y-1402174D01*
X5877325Y-1525984D02*
X5858277Y-1516460D01*
X5858277Y-1516460D02*
X5848754Y-1497412D01*
X5848754Y-1497412D02*
X5848754Y-1325984D01*
X5982087Y-1525984D02*
X5963039Y-1516460D01*
X5963039Y-1516460D02*
X5953515Y-1506936D01*
X5953515Y-1506936D02*
X5943992Y-1487888D01*
X5943992Y-1487888D02*
X5943992Y-1430746D01*
X5943992Y-1430746D02*
X5953515Y-1411698D01*
X5953515Y-1411698D02*
X5963039Y-1402174D01*
X5963039Y-1402174D02*
X5982087Y-1392650D01*
X5982087Y-1392650D02*
X6010658Y-1392650D01*
X6010658Y-1392650D02*
X6029706Y-1402174D01*
X6029706Y-1402174D02*
X6039230Y-1411698D01*
X6039230Y-1411698D02*
X6048754Y-1430746D01*
X6048754Y-1430746D02*
X6048754Y-1487888D01*
X6048754Y-1487888D02*
X6039230Y-1506936D01*
X6039230Y-1506936D02*
X6029706Y-1516460D01*
X6029706Y-1516460D02*
X6010658Y-1525984D01*
X6010658Y-1525984D02*
X5982087Y-1525984D01*
X6105896Y-1392650D02*
X6182087Y-1392650D01*
X6134468Y-1325984D02*
X6134468Y-1497412D01*
X6134468Y-1497412D02*
X6143992Y-1516460D01*
X6143992Y-1516460D02*
X6163039Y-1525984D01*
X6163039Y-1525984D02*
X6182087Y-1525984D01*
X6239230Y-1516460D02*
X6258277Y-1525984D01*
X6258277Y-1525984D02*
X6296373Y-1525984D01*
X6296373Y-1525984D02*
X6315420Y-1516460D01*
X6315420Y-1516460D02*
X6324944Y-1497412D01*
X6324944Y-1497412D02*
X6324944Y-1487888D01*
X6324944Y-1487888D02*
X6315420Y-1468841D01*
X6315420Y-1468841D02*
X6296373Y-1459317D01*
X6296373Y-1459317D02*
X6267801Y-1459317D01*
X6267801Y-1459317D02*
X6248754Y-1449793D01*
X6248754Y-1449793D02*
X6239230Y-1430746D01*
X6239230Y-1430746D02*
X6239230Y-1421222D01*
X6239230Y-1421222D02*
X6248754Y-1402174D01*
X6248754Y-1402174D02*
X6267801Y-1392650D01*
X6267801Y-1392650D02*
X6296373Y-1392650D01*
X6296373Y-1392650D02*
X6315420Y-1402174D01*
X6391611Y-1602174D02*
X6401135Y-1592650D01*
X6401135Y-1592650D02*
X6420182Y-1564079D01*
X6420182Y-1564079D02*
X6429706Y-1545031D01*
X6429706Y-1545031D02*
X6439230Y-1516460D01*
X6439230Y-1516460D02*
X6448754Y-1468841D01*
X6448754Y-1468841D02*
X6448754Y-1430746D01*
X6448754Y-1430746D02*
X6439230Y-1383127D01*
X6439230Y-1383127D02*
X6429706Y-1354555D01*
X6429706Y-1354555D02*
X6420182Y-1335508D01*
X6420182Y-1335508D02*
X6401135Y-1306936D01*
X6401135Y-1306936D02*
X6391611Y-1297412D01*
D12*
X-42500Y-1738500D02*
X-2500Y-1698500D01*
X-42500Y-1658500D01*
X-82500Y-1698500D01*
X-42500Y-1738500D01*
D11*
X296372Y-1589984D02*
X315420Y-1589984D01*
X315420Y-1589984D02*
X334467Y-1599508D01*
X334467Y-1599508D02*
X343991Y-1609031D01*
X343991Y-1609031D02*
X353515Y-1628079D01*
X353515Y-1628079D02*
X363039Y-1666174D01*
X363039Y-1666174D02*
X363039Y-1713793D01*
X363039Y-1713793D02*
X353515Y-1751888D01*
X353515Y-1751888D02*
X343991Y-1770936D01*
X343991Y-1770936D02*
X334467Y-1780460D01*
X334467Y-1780460D02*
X315420Y-1789984D01*
X315420Y-1789984D02*
X296372Y-1789984D01*
X296372Y-1789984D02*
X277324Y-1780460D01*
X277324Y-1780460D02*
X267801Y-1770936D01*
X267801Y-1770936D02*
X258277Y-1751888D01*
X258277Y-1751888D02*
X248753Y-1713793D01*
X248753Y-1713793D02*
X248753Y-1666174D01*
X248753Y-1666174D02*
X258277Y-1628079D01*
X258277Y-1628079D02*
X267801Y-1609031D01*
X267801Y-1609031D02*
X277324Y-1599508D01*
X277324Y-1599508D02*
X296372Y-1589984D01*
X448753Y-1770936D02*
X458277Y-1780460D01*
X458277Y-1780460D02*
X448753Y-1789984D01*
X448753Y-1789984D02*
X439229Y-1780460D01*
X439229Y-1780460D02*
X448753Y-1770936D01*
X448753Y-1770936D02*
X448753Y-1789984D01*
X572563Y-1675698D02*
X553515Y-1666174D01*
X553515Y-1666174D02*
X543991Y-1656650D01*
X543991Y-1656650D02*
X534467Y-1637603D01*
X534467Y-1637603D02*
X534467Y-1628079D01*
X534467Y-1628079D02*
X543991Y-1609031D01*
X543991Y-1609031D02*
X553515Y-1599508D01*
X553515Y-1599508D02*
X572563Y-1589984D01*
X572563Y-1589984D02*
X610658Y-1589984D01*
X610658Y-1589984D02*
X629705Y-1599508D01*
X629705Y-1599508D02*
X639229Y-1609031D01*
X639229Y-1609031D02*
X648753Y-1628079D01*
X648753Y-1628079D02*
X648753Y-1637603D01*
X648753Y-1637603D02*
X639229Y-1656650D01*
X639229Y-1656650D02*
X629705Y-1666174D01*
X629705Y-1666174D02*
X610658Y-1675698D01*
X610658Y-1675698D02*
X572563Y-1675698D01*
X572563Y-1675698D02*
X553515Y-1685222D01*
X553515Y-1685222D02*
X543991Y-1694746D01*
X543991Y-1694746D02*
X534467Y-1713793D01*
X534467Y-1713793D02*
X534467Y-1751888D01*
X534467Y-1751888D02*
X543991Y-1770936D01*
X543991Y-1770936D02*
X553515Y-1780460D01*
X553515Y-1780460D02*
X572563Y-1789984D01*
X572563Y-1789984D02*
X610658Y-1789984D01*
X610658Y-1789984D02*
X629705Y-1780460D01*
X629705Y-1780460D02*
X639229Y-1770936D01*
X639229Y-1770936D02*
X648753Y-1751888D01*
X648753Y-1751888D02*
X648753Y-1713793D01*
X648753Y-1713793D02*
X639229Y-1694746D01*
X639229Y-1694746D02*
X629705Y-1685222D01*
X629705Y-1685222D02*
X610658Y-1675698D01*
X772562Y-1589984D02*
X791610Y-1589984D01*
X791610Y-1589984D02*
X810658Y-1599508D01*
X810658Y-1599508D02*
X820182Y-1609031D01*
X820182Y-1609031D02*
X829705Y-1628079D01*
X829705Y-1628079D02*
X839229Y-1666174D01*
X839229Y-1666174D02*
X839229Y-1713793D01*
X839229Y-1713793D02*
X829705Y-1751888D01*
X829705Y-1751888D02*
X820182Y-1770936D01*
X820182Y-1770936D02*
X810658Y-1780460D01*
X810658Y-1780460D02*
X791610Y-1789984D01*
X791610Y-1789984D02*
X772562Y-1789984D01*
X772562Y-1789984D02*
X753515Y-1780460D01*
X753515Y-1780460D02*
X743991Y-1770936D01*
X743991Y-1770936D02*
X734467Y-1751888D01*
X734467Y-1751888D02*
X724943Y-1713793D01*
X724943Y-1713793D02*
X724943Y-1666174D01*
X724943Y-1666174D02*
X734467Y-1628079D01*
X734467Y-1628079D02*
X743991Y-1609031D01*
X743991Y-1609031D02*
X753515Y-1599508D01*
X753515Y-1599508D02*
X772562Y-1589984D01*
X963039Y-1589984D02*
X982086Y-1589984D01*
X982086Y-1589984D02*
X1001134Y-1599508D01*
X1001134Y-1599508D02*
X1010658Y-1609031D01*
X1010658Y-1609031D02*
X1020182Y-1628079D01*
X1020182Y-1628079D02*
X1029705Y-1666174D01*
X1029705Y-1666174D02*
X1029705Y-1713793D01*
X1029705Y-1713793D02*
X1020182Y-1751888D01*
X1020182Y-1751888D02*
X1010658Y-1770936D01*
X1010658Y-1770936D02*
X1001134Y-1780460D01*
X1001134Y-1780460D02*
X982086Y-1789984D01*
X982086Y-1789984D02*
X963039Y-1789984D01*
X963039Y-1789984D02*
X943991Y-1780460D01*
X943991Y-1780460D02*
X934467Y-1770936D01*
X934467Y-1770936D02*
X924943Y-1751888D01*
X924943Y-1751888D02*
X915420Y-1713793D01*
X915420Y-1713793D02*
X915420Y-1666174D01*
X915420Y-1666174D02*
X924943Y-1628079D01*
X924943Y-1628079D02*
X934467Y-1609031D01*
X934467Y-1609031D02*
X943991Y-1599508D01*
X943991Y-1599508D02*
X963039Y-1589984D01*
X1115420Y-1789984D02*
X1115420Y-1656650D01*
X1115420Y-1675698D02*
X1124944Y-1666174D01*
X1124944Y-1666174D02*
X1143991Y-1656650D01*
X1143991Y-1656650D02*
X1172563Y-1656650D01*
X1172563Y-1656650D02*
X1191610Y-1666174D01*
X1191610Y-1666174D02*
X1201134Y-1685222D01*
X1201134Y-1685222D02*
X1201134Y-1789984D01*
X1201134Y-1685222D02*
X1210658Y-1666174D01*
X1210658Y-1666174D02*
X1229705Y-1656650D01*
X1229705Y-1656650D02*
X1258277Y-1656650D01*
X1258277Y-1656650D02*
X1277325Y-1666174D01*
X1277325Y-1666174D02*
X1286848Y-1685222D01*
X1286848Y-1685222D02*
X1286848Y-1789984D01*
X1382086Y-1789984D02*
X1382086Y-1656650D01*
X1382086Y-1675698D02*
X1391610Y-1666174D01*
X1391610Y-1666174D02*
X1410658Y-1656650D01*
X1410658Y-1656650D02*
X1439229Y-1656650D01*
X1439229Y-1656650D02*
X1458277Y-1666174D01*
X1458277Y-1666174D02*
X1467801Y-1685222D01*
X1467801Y-1685222D02*
X1467801Y-1789984D01*
X1467801Y-1685222D02*
X1477324Y-1666174D01*
X1477324Y-1666174D02*
X1496372Y-1656650D01*
X1496372Y-1656650D02*
X1524943Y-1656650D01*
X1524943Y-1656650D02*
X1543991Y-1666174D01*
X1543991Y-1666174D02*
X1553515Y-1685222D01*
X1553515Y-1685222D02*
X1553515Y-1789984D01*
X1943991Y-1580460D02*
X1772563Y-1837603D01*
X2201134Y-1589984D02*
X2220182Y-1589984D01*
X2220182Y-1589984D02*
X2239229Y-1599508D01*
X2239229Y-1599508D02*
X2248753Y-1609031D01*
X2248753Y-1609031D02*
X2258277Y-1628079D01*
X2258277Y-1628079D02*
X2267801Y-1666174D01*
X2267801Y-1666174D02*
X2267801Y-1713793D01*
X2267801Y-1713793D02*
X2258277Y-1751888D01*
X2258277Y-1751888D02*
X2248753Y-1770936D01*
X2248753Y-1770936D02*
X2239229Y-1780460D01*
X2239229Y-1780460D02*
X2220182Y-1789984D01*
X2220182Y-1789984D02*
X2201134Y-1789984D01*
X2201134Y-1789984D02*
X2182087Y-1780460D01*
X2182087Y-1780460D02*
X2172563Y-1770936D01*
X2172563Y-1770936D02*
X2163039Y-1751888D01*
X2163039Y-1751888D02*
X2153515Y-1713793D01*
X2153515Y-1713793D02*
X2153515Y-1666174D01*
X2153515Y-1666174D02*
X2163039Y-1628079D01*
X2163039Y-1628079D02*
X2172563Y-1609031D01*
X2172563Y-1609031D02*
X2182087Y-1599508D01*
X2182087Y-1599508D02*
X2201134Y-1589984D01*
X2353515Y-1770936D02*
X2363039Y-1780460D01*
X2363039Y-1780460D02*
X2353515Y-1789984D01*
X2353515Y-1789984D02*
X2343991Y-1780460D01*
X2343991Y-1780460D02*
X2353515Y-1770936D01*
X2353515Y-1770936D02*
X2353515Y-1789984D01*
X2486848Y-1589984D02*
X2505896Y-1589984D01*
X2505896Y-1589984D02*
X2524944Y-1599508D01*
X2524944Y-1599508D02*
X2534468Y-1609031D01*
X2534468Y-1609031D02*
X2543991Y-1628079D01*
X2543991Y-1628079D02*
X2553515Y-1666174D01*
X2553515Y-1666174D02*
X2553515Y-1713793D01*
X2553515Y-1713793D02*
X2543991Y-1751888D01*
X2543991Y-1751888D02*
X2534468Y-1770936D01*
X2534468Y-1770936D02*
X2524944Y-1780460D01*
X2524944Y-1780460D02*
X2505896Y-1789984D01*
X2505896Y-1789984D02*
X2486848Y-1789984D01*
X2486848Y-1789984D02*
X2467801Y-1780460D01*
X2467801Y-1780460D02*
X2458277Y-1770936D01*
X2458277Y-1770936D02*
X2448753Y-1751888D01*
X2448753Y-1751888D02*
X2439229Y-1713793D01*
X2439229Y-1713793D02*
X2439229Y-1666174D01*
X2439229Y-1666174D02*
X2448753Y-1628079D01*
X2448753Y-1628079D02*
X2458277Y-1609031D01*
X2458277Y-1609031D02*
X2467801Y-1599508D01*
X2467801Y-1599508D02*
X2486848Y-1589984D01*
X2620182Y-1589984D02*
X2743991Y-1589984D01*
X2743991Y-1589984D02*
X2677325Y-1666174D01*
X2677325Y-1666174D02*
X2705896Y-1666174D01*
X2705896Y-1666174D02*
X2724944Y-1675698D01*
X2724944Y-1675698D02*
X2734468Y-1685222D01*
X2734468Y-1685222D02*
X2743991Y-1704269D01*
X2743991Y-1704269D02*
X2743991Y-1751888D01*
X2743991Y-1751888D02*
X2734468Y-1770936D01*
X2734468Y-1770936D02*
X2724944Y-1780460D01*
X2724944Y-1780460D02*
X2705896Y-1789984D01*
X2705896Y-1789984D02*
X2648753Y-1789984D01*
X2648753Y-1789984D02*
X2629706Y-1780460D01*
X2629706Y-1780460D02*
X2620182Y-1770936D01*
X2934467Y-1789984D02*
X2820182Y-1789984D01*
X2877325Y-1789984D02*
X2877325Y-1589984D01*
X2877325Y-1589984D02*
X2858277Y-1618555D01*
X2858277Y-1618555D02*
X2839229Y-1637603D01*
X2839229Y-1637603D02*
X2820182Y-1647127D01*
X3115420Y-1589984D02*
X3020182Y-1589984D01*
X3020182Y-1589984D02*
X3010658Y-1685222D01*
X3010658Y-1685222D02*
X3020182Y-1675698D01*
X3020182Y-1675698D02*
X3039229Y-1666174D01*
X3039229Y-1666174D02*
X3086848Y-1666174D01*
X3086848Y-1666174D02*
X3105896Y-1675698D01*
X3105896Y-1675698D02*
X3115420Y-1685222D01*
X3115420Y-1685222D02*
X3124944Y-1704269D01*
X3124944Y-1704269D02*
X3124944Y-1751888D01*
X3124944Y-1751888D02*
X3115420Y-1770936D01*
X3115420Y-1770936D02*
X3105896Y-1780460D01*
X3105896Y-1780460D02*
X3086848Y-1789984D01*
X3086848Y-1789984D02*
X3039229Y-1789984D01*
X3039229Y-1789984D02*
X3020182Y-1780460D01*
X3020182Y-1780460D02*
X3010658Y-1770936D01*
X3201134Y-1589984D02*
X3201134Y-1628079D01*
X3277325Y-1589984D02*
X3277325Y-1628079D01*
X3572563Y-1866174D02*
X3563039Y-1856650D01*
X3563039Y-1856650D02*
X3543991Y-1828079D01*
X3543991Y-1828079D02*
X3534468Y-1809031D01*
X3534468Y-1809031D02*
X3524944Y-1780460D01*
X3524944Y-1780460D02*
X3515420Y-1732841D01*
X3515420Y-1732841D02*
X3515420Y-1694746D01*
X3515420Y-1694746D02*
X3524944Y-1647127D01*
X3524944Y-1647127D02*
X3534468Y-1618555D01*
X3534468Y-1618555D02*
X3543991Y-1599508D01*
X3543991Y-1599508D02*
X3563039Y-1570936D01*
X3563039Y-1570936D02*
X3572563Y-1561412D01*
X3734468Y-1656650D02*
X3734468Y-1789984D01*
X3686848Y-1580460D02*
X3639229Y-1723317D01*
X3639229Y-1723317D02*
X3763039Y-1723317D01*
X3867801Y-1675698D02*
X3848753Y-1666174D01*
X3848753Y-1666174D02*
X3839229Y-1656650D01*
X3839229Y-1656650D02*
X3829706Y-1637603D01*
X3829706Y-1637603D02*
X3829706Y-1628079D01*
X3829706Y-1628079D02*
X3839229Y-1609031D01*
X3839229Y-1609031D02*
X3848753Y-1599508D01*
X3848753Y-1599508D02*
X3867801Y-1589984D01*
X3867801Y-1589984D02*
X3905896Y-1589984D01*
X3905896Y-1589984D02*
X3924944Y-1599508D01*
X3924944Y-1599508D02*
X3934468Y-1609031D01*
X3934468Y-1609031D02*
X3943991Y-1628079D01*
X3943991Y-1628079D02*
X3943991Y-1637603D01*
X3943991Y-1637603D02*
X3934468Y-1656650D01*
X3934468Y-1656650D02*
X3924944Y-1666174D01*
X3924944Y-1666174D02*
X3905896Y-1675698D01*
X3905896Y-1675698D02*
X3867801Y-1675698D01*
X3867801Y-1675698D02*
X3848753Y-1685222D01*
X3848753Y-1685222D02*
X3839229Y-1694746D01*
X3839229Y-1694746D02*
X3829706Y-1713793D01*
X3829706Y-1713793D02*
X3829706Y-1751888D01*
X3829706Y-1751888D02*
X3839229Y-1770936D01*
X3839229Y-1770936D02*
X3848753Y-1780460D01*
X3848753Y-1780460D02*
X3867801Y-1789984D01*
X3867801Y-1789984D02*
X3905896Y-1789984D01*
X3905896Y-1789984D02*
X3924944Y-1780460D01*
X3924944Y-1780460D02*
X3934468Y-1770936D01*
X3934468Y-1770936D02*
X3943991Y-1751888D01*
X3943991Y-1751888D02*
X3943991Y-1713793D01*
X3943991Y-1713793D02*
X3934468Y-1694746D01*
X3934468Y-1694746D02*
X3924944Y-1685222D01*
X3924944Y-1685222D02*
X3905896Y-1675698D01*
X4182087Y-1789984D02*
X4182087Y-1589984D01*
X4267801Y-1789984D02*
X4267801Y-1685222D01*
X4267801Y-1685222D02*
X4258277Y-1666174D01*
X4258277Y-1666174D02*
X4239230Y-1656650D01*
X4239230Y-1656650D02*
X4210658Y-1656650D01*
X4210658Y-1656650D02*
X4191610Y-1666174D01*
X4191610Y-1666174D02*
X4182087Y-1675698D01*
X4391611Y-1789984D02*
X4372563Y-1780460D01*
X4372563Y-1780460D02*
X4363039Y-1770936D01*
X4363039Y-1770936D02*
X4353515Y-1751888D01*
X4353515Y-1751888D02*
X4353515Y-1694746D01*
X4353515Y-1694746D02*
X4363039Y-1675698D01*
X4363039Y-1675698D02*
X4372563Y-1666174D01*
X4372563Y-1666174D02*
X4391611Y-1656650D01*
X4391611Y-1656650D02*
X4420182Y-1656650D01*
X4420182Y-1656650D02*
X4439230Y-1666174D01*
X4439230Y-1666174D02*
X4448753Y-1675698D01*
X4448753Y-1675698D02*
X4458277Y-1694746D01*
X4458277Y-1694746D02*
X4458277Y-1751888D01*
X4458277Y-1751888D02*
X4448753Y-1770936D01*
X4448753Y-1770936D02*
X4439230Y-1780460D01*
X4439230Y-1780460D02*
X4420182Y-1789984D01*
X4420182Y-1789984D02*
X4391611Y-1789984D01*
X4572563Y-1789984D02*
X4553515Y-1780460D01*
X4553515Y-1780460D02*
X4543992Y-1761412D01*
X4543992Y-1761412D02*
X4543992Y-1589984D01*
X4724944Y-1780460D02*
X4705896Y-1789984D01*
X4705896Y-1789984D02*
X4667801Y-1789984D01*
X4667801Y-1789984D02*
X4648753Y-1780460D01*
X4648753Y-1780460D02*
X4639230Y-1761412D01*
X4639230Y-1761412D02*
X4639230Y-1685222D01*
X4639230Y-1685222D02*
X4648753Y-1666174D01*
X4648753Y-1666174D02*
X4667801Y-1656650D01*
X4667801Y-1656650D02*
X4705896Y-1656650D01*
X4705896Y-1656650D02*
X4724944Y-1666174D01*
X4724944Y-1666174D02*
X4734468Y-1685222D01*
X4734468Y-1685222D02*
X4734468Y-1704269D01*
X4734468Y-1704269D02*
X4639230Y-1723317D01*
X4810658Y-1780460D02*
X4829706Y-1789984D01*
X4829706Y-1789984D02*
X4867801Y-1789984D01*
X4867801Y-1789984D02*
X4886849Y-1780460D01*
X4886849Y-1780460D02*
X4896373Y-1761412D01*
X4896373Y-1761412D02*
X4896373Y-1751888D01*
X4896373Y-1751888D02*
X4886849Y-1732841D01*
X4886849Y-1732841D02*
X4867801Y-1723317D01*
X4867801Y-1723317D02*
X4839230Y-1723317D01*
X4839230Y-1723317D02*
X4820182Y-1713793D01*
X4820182Y-1713793D02*
X4810658Y-1694746D01*
X4810658Y-1694746D02*
X4810658Y-1685222D01*
X4810658Y-1685222D02*
X4820182Y-1666174D01*
X4820182Y-1666174D02*
X4839230Y-1656650D01*
X4839230Y-1656650D02*
X4867801Y-1656650D01*
X4867801Y-1656650D02*
X4886849Y-1666174D01*
X4963039Y-1866174D02*
X4972563Y-1856650D01*
X4972563Y-1856650D02*
X4991611Y-1828079D01*
X4991611Y-1828079D02*
X5001134Y-1809031D01*
X5001134Y-1809031D02*
X5010658Y-1780460D01*
X5010658Y-1780460D02*
X5020182Y-1732841D01*
X5020182Y-1732841D02*
X5020182Y-1694746D01*
X5020182Y-1694746D02*
X5010658Y-1647127D01*
X5010658Y-1647127D02*
X5001134Y-1618555D01*
X5001134Y-1618555D02*
X4991611Y-1599508D01*
X4991611Y-1599508D02*
X4972563Y-1570936D01*
X4972563Y-1570936D02*
X4963039Y-1561412D01*
D12*
X-102500Y-1912500D02*
X-2500Y-2012500D01*
X-2500Y-1912500D02*
X-102500Y-2012500D01*
X-2500Y-1962500D02*
G75*
G02*
X-102500Y-1962500I-50000J0D01*
G01*
X-102500Y-1962500D02*
G75*
G02*
X-2500Y-1962500I50000J0D01*
G01*
D11*
X363039Y-2053984D02*
X248753Y-2053984D01*
X305896Y-2053984D02*
X305896Y-1853984D01*
X305896Y-1853984D02*
X286848Y-1882555D01*
X286848Y-1882555D02*
X267801Y-1901603D01*
X267801Y-1901603D02*
X248753Y-1911127D01*
X448753Y-2034936D02*
X458277Y-2044460D01*
X458277Y-2044460D02*
X448753Y-2053984D01*
X448753Y-2053984D02*
X439229Y-2044460D01*
X439229Y-2044460D02*
X448753Y-2034936D01*
X448753Y-2034936D02*
X448753Y-2053984D01*
X582086Y-1853984D02*
X601134Y-1853984D01*
X601134Y-1853984D02*
X620182Y-1863508D01*
X620182Y-1863508D02*
X629705Y-1873031D01*
X629705Y-1873031D02*
X639229Y-1892079D01*
X639229Y-1892079D02*
X648753Y-1930174D01*
X648753Y-1930174D02*
X648753Y-1977793D01*
X648753Y-1977793D02*
X639229Y-2015888D01*
X639229Y-2015888D02*
X629705Y-2034936D01*
X629705Y-2034936D02*
X620182Y-2044460D01*
X620182Y-2044460D02*
X601134Y-2053984D01*
X601134Y-2053984D02*
X582086Y-2053984D01*
X582086Y-2053984D02*
X563039Y-2044460D01*
X563039Y-2044460D02*
X553515Y-2034936D01*
X553515Y-2034936D02*
X543991Y-2015888D01*
X543991Y-2015888D02*
X534467Y-1977793D01*
X534467Y-1977793D02*
X534467Y-1930174D01*
X534467Y-1930174D02*
X543991Y-1892079D01*
X543991Y-1892079D02*
X553515Y-1873031D01*
X553515Y-1873031D02*
X563039Y-1863508D01*
X563039Y-1863508D02*
X582086Y-1853984D01*
X772562Y-1853984D02*
X791610Y-1853984D01*
X791610Y-1853984D02*
X810658Y-1863508D01*
X810658Y-1863508D02*
X820182Y-1873031D01*
X820182Y-1873031D02*
X829705Y-1892079D01*
X829705Y-1892079D02*
X839229Y-1930174D01*
X839229Y-1930174D02*
X839229Y-1977793D01*
X839229Y-1977793D02*
X829705Y-2015888D01*
X829705Y-2015888D02*
X820182Y-2034936D01*
X820182Y-2034936D02*
X810658Y-2044460D01*
X810658Y-2044460D02*
X791610Y-2053984D01*
X791610Y-2053984D02*
X772562Y-2053984D01*
X772562Y-2053984D02*
X753515Y-2044460D01*
X753515Y-2044460D02*
X743991Y-2034936D01*
X743991Y-2034936D02*
X734467Y-2015888D01*
X734467Y-2015888D02*
X724943Y-1977793D01*
X724943Y-1977793D02*
X724943Y-1930174D01*
X724943Y-1930174D02*
X734467Y-1892079D01*
X734467Y-1892079D02*
X743991Y-1873031D01*
X743991Y-1873031D02*
X753515Y-1863508D01*
X753515Y-1863508D02*
X772562Y-1853984D01*
X963039Y-1853984D02*
X982086Y-1853984D01*
X982086Y-1853984D02*
X1001134Y-1863508D01*
X1001134Y-1863508D02*
X1010658Y-1873031D01*
X1010658Y-1873031D02*
X1020182Y-1892079D01*
X1020182Y-1892079D02*
X1029705Y-1930174D01*
X1029705Y-1930174D02*
X1029705Y-1977793D01*
X1029705Y-1977793D02*
X1020182Y-2015888D01*
X1020182Y-2015888D02*
X1010658Y-2034936D01*
X1010658Y-2034936D02*
X1001134Y-2044460D01*
X1001134Y-2044460D02*
X982086Y-2053984D01*
X982086Y-2053984D02*
X963039Y-2053984D01*
X963039Y-2053984D02*
X943991Y-2044460D01*
X943991Y-2044460D02*
X934467Y-2034936D01*
X934467Y-2034936D02*
X924943Y-2015888D01*
X924943Y-2015888D02*
X915420Y-1977793D01*
X915420Y-1977793D02*
X915420Y-1930174D01*
X915420Y-1930174D02*
X924943Y-1892079D01*
X924943Y-1892079D02*
X934467Y-1873031D01*
X934467Y-1873031D02*
X943991Y-1863508D01*
X943991Y-1863508D02*
X963039Y-1853984D01*
X1115420Y-2053984D02*
X1115420Y-1920650D01*
X1115420Y-1939698D02*
X1124944Y-1930174D01*
X1124944Y-1930174D02*
X1143991Y-1920650D01*
X1143991Y-1920650D02*
X1172563Y-1920650D01*
X1172563Y-1920650D02*
X1191610Y-1930174D01*
X1191610Y-1930174D02*
X1201134Y-1949222D01*
X1201134Y-1949222D02*
X1201134Y-2053984D01*
X1201134Y-1949222D02*
X1210658Y-1930174D01*
X1210658Y-1930174D02*
X1229705Y-1920650D01*
X1229705Y-1920650D02*
X1258277Y-1920650D01*
X1258277Y-1920650D02*
X1277325Y-1930174D01*
X1277325Y-1930174D02*
X1286848Y-1949222D01*
X1286848Y-1949222D02*
X1286848Y-2053984D01*
X1382086Y-2053984D02*
X1382086Y-1920650D01*
X1382086Y-1939698D02*
X1391610Y-1930174D01*
X1391610Y-1930174D02*
X1410658Y-1920650D01*
X1410658Y-1920650D02*
X1439229Y-1920650D01*
X1439229Y-1920650D02*
X1458277Y-1930174D01*
X1458277Y-1930174D02*
X1467801Y-1949222D01*
X1467801Y-1949222D02*
X1467801Y-2053984D01*
X1467801Y-1949222D02*
X1477324Y-1930174D01*
X1477324Y-1930174D02*
X1496372Y-1920650D01*
X1496372Y-1920650D02*
X1524943Y-1920650D01*
X1524943Y-1920650D02*
X1543991Y-1930174D01*
X1543991Y-1930174D02*
X1553515Y-1949222D01*
X1553515Y-1949222D02*
X1553515Y-2053984D01*
X1943991Y-1844460D02*
X1772563Y-2101603D01*
X2201134Y-1853984D02*
X2220182Y-1853984D01*
X2220182Y-1853984D02*
X2239229Y-1863508D01*
X2239229Y-1863508D02*
X2248753Y-1873031D01*
X2248753Y-1873031D02*
X2258277Y-1892079D01*
X2258277Y-1892079D02*
X2267801Y-1930174D01*
X2267801Y-1930174D02*
X2267801Y-1977793D01*
X2267801Y-1977793D02*
X2258277Y-2015888D01*
X2258277Y-2015888D02*
X2248753Y-2034936D01*
X2248753Y-2034936D02*
X2239229Y-2044460D01*
X2239229Y-2044460D02*
X2220182Y-2053984D01*
X2220182Y-2053984D02*
X2201134Y-2053984D01*
X2201134Y-2053984D02*
X2182087Y-2044460D01*
X2182087Y-2044460D02*
X2172563Y-2034936D01*
X2172563Y-2034936D02*
X2163039Y-2015888D01*
X2163039Y-2015888D02*
X2153515Y-1977793D01*
X2153515Y-1977793D02*
X2153515Y-1930174D01*
X2153515Y-1930174D02*
X2163039Y-1892079D01*
X2163039Y-1892079D02*
X2172563Y-1873031D01*
X2172563Y-1873031D02*
X2182087Y-1863508D01*
X2182087Y-1863508D02*
X2201134Y-1853984D01*
X2353515Y-2034936D02*
X2363039Y-2044460D01*
X2363039Y-2044460D02*
X2353515Y-2053984D01*
X2353515Y-2053984D02*
X2343991Y-2044460D01*
X2343991Y-2044460D02*
X2353515Y-2034936D01*
X2353515Y-2034936D02*
X2353515Y-2053984D01*
X2486848Y-1853984D02*
X2505896Y-1853984D01*
X2505896Y-1853984D02*
X2524944Y-1863508D01*
X2524944Y-1863508D02*
X2534468Y-1873031D01*
X2534468Y-1873031D02*
X2543991Y-1892079D01*
X2543991Y-1892079D02*
X2553515Y-1930174D01*
X2553515Y-1930174D02*
X2553515Y-1977793D01*
X2553515Y-1977793D02*
X2543991Y-2015888D01*
X2543991Y-2015888D02*
X2534468Y-2034936D01*
X2534468Y-2034936D02*
X2524944Y-2044460D01*
X2524944Y-2044460D02*
X2505896Y-2053984D01*
X2505896Y-2053984D02*
X2486848Y-2053984D01*
X2486848Y-2053984D02*
X2467801Y-2044460D01*
X2467801Y-2044460D02*
X2458277Y-2034936D01*
X2458277Y-2034936D02*
X2448753Y-2015888D01*
X2448753Y-2015888D02*
X2439229Y-1977793D01*
X2439229Y-1977793D02*
X2439229Y-1930174D01*
X2439229Y-1930174D02*
X2448753Y-1892079D01*
X2448753Y-1892079D02*
X2458277Y-1873031D01*
X2458277Y-1873031D02*
X2467801Y-1863508D01*
X2467801Y-1863508D02*
X2486848Y-1853984D01*
X2620182Y-1853984D02*
X2743991Y-1853984D01*
X2743991Y-1853984D02*
X2677325Y-1930174D01*
X2677325Y-1930174D02*
X2705896Y-1930174D01*
X2705896Y-1930174D02*
X2724944Y-1939698D01*
X2724944Y-1939698D02*
X2734468Y-1949222D01*
X2734468Y-1949222D02*
X2743991Y-1968269D01*
X2743991Y-1968269D02*
X2743991Y-2015888D01*
X2743991Y-2015888D02*
X2734468Y-2034936D01*
X2734468Y-2034936D02*
X2724944Y-2044460D01*
X2724944Y-2044460D02*
X2705896Y-2053984D01*
X2705896Y-2053984D02*
X2648753Y-2053984D01*
X2648753Y-2053984D02*
X2629706Y-2044460D01*
X2629706Y-2044460D02*
X2620182Y-2034936D01*
X2839229Y-2053984D02*
X2877325Y-2053984D01*
X2877325Y-2053984D02*
X2896372Y-2044460D01*
X2896372Y-2044460D02*
X2905896Y-2034936D01*
X2905896Y-2034936D02*
X2924944Y-2006365D01*
X2924944Y-2006365D02*
X2934467Y-1968269D01*
X2934467Y-1968269D02*
X2934467Y-1892079D01*
X2934467Y-1892079D02*
X2924944Y-1873031D01*
X2924944Y-1873031D02*
X2915420Y-1863508D01*
X2915420Y-1863508D02*
X2896372Y-1853984D01*
X2896372Y-1853984D02*
X2858277Y-1853984D01*
X2858277Y-1853984D02*
X2839229Y-1863508D01*
X2839229Y-1863508D02*
X2829706Y-1873031D01*
X2829706Y-1873031D02*
X2820182Y-1892079D01*
X2820182Y-1892079D02*
X2820182Y-1939698D01*
X2820182Y-1939698D02*
X2829706Y-1958746D01*
X2829706Y-1958746D02*
X2839229Y-1968269D01*
X2839229Y-1968269D02*
X2858277Y-1977793D01*
X2858277Y-1977793D02*
X2896372Y-1977793D01*
X2896372Y-1977793D02*
X2915420Y-1968269D01*
X2915420Y-1968269D02*
X2924944Y-1958746D01*
X2924944Y-1958746D02*
X2934467Y-1939698D01*
X3105896Y-1920650D02*
X3105896Y-2053984D01*
X3058277Y-1844460D02*
X3010658Y-1987317D01*
X3010658Y-1987317D02*
X3134467Y-1987317D01*
X3201134Y-1853984D02*
X3201134Y-1892079D01*
X3277325Y-1853984D02*
X3277325Y-1892079D01*
X3572563Y-2130174D02*
X3563039Y-2120650D01*
X3563039Y-2120650D02*
X3543991Y-2092079D01*
X3543991Y-2092079D02*
X3534468Y-2073031D01*
X3534468Y-2073031D02*
X3524944Y-2044460D01*
X3524944Y-2044460D02*
X3515420Y-1996841D01*
X3515420Y-1996841D02*
X3515420Y-1958746D01*
X3515420Y-1958746D02*
X3524944Y-1911127D01*
X3524944Y-1911127D02*
X3534468Y-1882555D01*
X3534468Y-1882555D02*
X3543991Y-1863508D01*
X3543991Y-1863508D02*
X3563039Y-1834936D01*
X3563039Y-1834936D02*
X3572563Y-1825412D01*
X3629706Y-1853984D02*
X3753515Y-1853984D01*
X3753515Y-1853984D02*
X3686848Y-1930174D01*
X3686848Y-1930174D02*
X3715420Y-1930174D01*
X3715420Y-1930174D02*
X3734468Y-1939698D01*
X3734468Y-1939698D02*
X3743991Y-1949222D01*
X3743991Y-1949222D02*
X3753515Y-1968269D01*
X3753515Y-1968269D02*
X3753515Y-2015888D01*
X3753515Y-2015888D02*
X3743991Y-2034936D01*
X3743991Y-2034936D02*
X3734468Y-2044460D01*
X3734468Y-2044460D02*
X3715420Y-2053984D01*
X3715420Y-2053984D02*
X3658277Y-2053984D01*
X3658277Y-2053984D02*
X3639229Y-2044460D01*
X3639229Y-2044460D02*
X3629706Y-2034936D01*
X3991610Y-2053984D02*
X3991610Y-1853984D01*
X4077325Y-2053984D02*
X4077325Y-1949222D01*
X4077325Y-1949222D02*
X4067801Y-1930174D01*
X4067801Y-1930174D02*
X4048753Y-1920650D01*
X4048753Y-1920650D02*
X4020182Y-1920650D01*
X4020182Y-1920650D02*
X4001134Y-1930174D01*
X4001134Y-1930174D02*
X3991610Y-1939698D01*
X4201134Y-2053984D02*
X4182087Y-2044460D01*
X4182087Y-2044460D02*
X4172563Y-2034936D01*
X4172563Y-2034936D02*
X4163039Y-2015888D01*
X4163039Y-2015888D02*
X4163039Y-1958746D01*
X4163039Y-1958746D02*
X4172563Y-1939698D01*
X4172563Y-1939698D02*
X4182087Y-1930174D01*
X4182087Y-1930174D02*
X4201134Y-1920650D01*
X4201134Y-1920650D02*
X4229706Y-1920650D01*
X4229706Y-1920650D02*
X4248753Y-1930174D01*
X4248753Y-1930174D02*
X4258277Y-1939698D01*
X4258277Y-1939698D02*
X4267801Y-1958746D01*
X4267801Y-1958746D02*
X4267801Y-2015888D01*
X4267801Y-2015888D02*
X4258277Y-2034936D01*
X4258277Y-2034936D02*
X4248753Y-2044460D01*
X4248753Y-2044460D02*
X4229706Y-2053984D01*
X4229706Y-2053984D02*
X4201134Y-2053984D01*
X4382087Y-2053984D02*
X4363039Y-2044460D01*
X4363039Y-2044460D02*
X4353515Y-2025412D01*
X4353515Y-2025412D02*
X4353515Y-1853984D01*
X4534468Y-2044460D02*
X4515420Y-2053984D01*
X4515420Y-2053984D02*
X4477325Y-2053984D01*
X4477325Y-2053984D02*
X4458277Y-2044460D01*
X4458277Y-2044460D02*
X4448753Y-2025412D01*
X4448753Y-2025412D02*
X4448753Y-1949222D01*
X4448753Y-1949222D02*
X4458277Y-1930174D01*
X4458277Y-1930174D02*
X4477325Y-1920650D01*
X4477325Y-1920650D02*
X4515420Y-1920650D01*
X4515420Y-1920650D02*
X4534468Y-1930174D01*
X4534468Y-1930174D02*
X4543992Y-1949222D01*
X4543992Y-1949222D02*
X4543992Y-1968269D01*
X4543992Y-1968269D02*
X4448753Y-1987317D01*
X4620182Y-2044460D02*
X4639230Y-2053984D01*
X4639230Y-2053984D02*
X4677325Y-2053984D01*
X4677325Y-2053984D02*
X4696373Y-2044460D01*
X4696373Y-2044460D02*
X4705896Y-2025412D01*
X4705896Y-2025412D02*
X4705896Y-2015888D01*
X4705896Y-2015888D02*
X4696373Y-1996841D01*
X4696373Y-1996841D02*
X4677325Y-1987317D01*
X4677325Y-1987317D02*
X4648753Y-1987317D01*
X4648753Y-1987317D02*
X4629706Y-1977793D01*
X4629706Y-1977793D02*
X4620182Y-1958746D01*
X4620182Y-1958746D02*
X4620182Y-1949222D01*
X4620182Y-1949222D02*
X4629706Y-1930174D01*
X4629706Y-1930174D02*
X4648753Y-1920650D01*
X4648753Y-1920650D02*
X4677325Y-1920650D01*
X4677325Y-1920650D02*
X4696373Y-1930174D01*
X4772563Y-2130174D02*
X4782087Y-2120650D01*
X4782087Y-2120650D02*
X4801134Y-2092079D01*
X4801134Y-2092079D02*
X4810658Y-2073031D01*
X4810658Y-2073031D02*
X4820182Y-2044460D01*
X4820182Y-2044460D02*
X4829706Y-1996841D01*
X4829706Y-1996841D02*
X4829706Y-1958746D01*
X4829706Y-1958746D02*
X4820182Y-1911127D01*
X4820182Y-1911127D02*
X4810658Y-1882555D01*
X4810658Y-1882555D02*
X4801134Y-1863508D01*
X4801134Y-1863508D02*
X4782087Y-1834936D01*
X4782087Y-1834936D02*
X4772563Y-1825412D01*
D13*
X-177500Y-2139000D02*
X-2500Y-2314000D01*
X-2500Y-2139000D02*
X-177500Y-2314000D01*
X-90000Y-2139000D02*
X-90000Y-2314000D01*
X-177500Y-2226500D02*
X-2500Y-2226500D01*
D11*
X363039Y-2317984D02*
X248753Y-2317984D01*
X305896Y-2317984D02*
X305896Y-2117984D01*
X305896Y-2117984D02*
X286848Y-2146555D01*
X286848Y-2146555D02*
X267801Y-2165603D01*
X267801Y-2165603D02*
X248753Y-2175127D01*
X448753Y-2298936D02*
X458277Y-2308460D01*
X458277Y-2308460D02*
X448753Y-2317984D01*
X448753Y-2317984D02*
X439229Y-2308460D01*
X439229Y-2308460D02*
X448753Y-2298936D01*
X448753Y-2298936D02*
X448753Y-2317984D01*
X524944Y-2117984D02*
X658277Y-2117984D01*
X658277Y-2117984D02*
X572563Y-2317984D01*
X829705Y-2117984D02*
X734467Y-2117984D01*
X734467Y-2117984D02*
X724943Y-2213222D01*
X724943Y-2213222D02*
X734467Y-2203698D01*
X734467Y-2203698D02*
X753515Y-2194174D01*
X753515Y-2194174D02*
X801134Y-2194174D01*
X801134Y-2194174D02*
X820182Y-2203698D01*
X820182Y-2203698D02*
X829705Y-2213222D01*
X829705Y-2213222D02*
X839229Y-2232270D01*
X839229Y-2232270D02*
X839229Y-2279889D01*
X839229Y-2279889D02*
X829705Y-2298936D01*
X829705Y-2298936D02*
X820182Y-2308460D01*
X820182Y-2308460D02*
X801134Y-2317984D01*
X801134Y-2317984D02*
X753515Y-2317984D01*
X753515Y-2317984D02*
X734467Y-2308460D01*
X734467Y-2308460D02*
X724943Y-2298936D01*
X963039Y-2117984D02*
X982086Y-2117984D01*
X982086Y-2117984D02*
X1001134Y-2127508D01*
X1001134Y-2127508D02*
X1010658Y-2137031D01*
X1010658Y-2137031D02*
X1020182Y-2156079D01*
X1020182Y-2156079D02*
X1029705Y-2194174D01*
X1029705Y-2194174D02*
X1029705Y-2241793D01*
X1029705Y-2241793D02*
X1020182Y-2279889D01*
X1020182Y-2279889D02*
X1010658Y-2298936D01*
X1010658Y-2298936D02*
X1001134Y-2308460D01*
X1001134Y-2308460D02*
X982086Y-2317984D01*
X982086Y-2317984D02*
X963039Y-2317984D01*
X963039Y-2317984D02*
X943991Y-2308460D01*
X943991Y-2308460D02*
X934467Y-2298936D01*
X934467Y-2298936D02*
X924943Y-2279889D01*
X924943Y-2279889D02*
X915420Y-2241793D01*
X915420Y-2241793D02*
X915420Y-2194174D01*
X915420Y-2194174D02*
X924943Y-2156079D01*
X924943Y-2156079D02*
X934467Y-2137031D01*
X934467Y-2137031D02*
X943991Y-2127508D01*
X943991Y-2127508D02*
X963039Y-2117984D01*
X1115420Y-2317984D02*
X1115420Y-2184650D01*
X1115420Y-2203698D02*
X1124944Y-2194174D01*
X1124944Y-2194174D02*
X1143991Y-2184650D01*
X1143991Y-2184650D02*
X1172563Y-2184650D01*
X1172563Y-2184650D02*
X1191610Y-2194174D01*
X1191610Y-2194174D02*
X1201134Y-2213222D01*
X1201134Y-2213222D02*
X1201134Y-2317984D01*
X1201134Y-2213222D02*
X1210658Y-2194174D01*
X1210658Y-2194174D02*
X1229705Y-2184650D01*
X1229705Y-2184650D02*
X1258277Y-2184650D01*
X1258277Y-2184650D02*
X1277325Y-2194174D01*
X1277325Y-2194174D02*
X1286848Y-2213222D01*
X1286848Y-2213222D02*
X1286848Y-2317984D01*
X1382086Y-2317984D02*
X1382086Y-2184650D01*
X1382086Y-2203698D02*
X1391610Y-2194174D01*
X1391610Y-2194174D02*
X1410658Y-2184650D01*
X1410658Y-2184650D02*
X1439229Y-2184650D01*
X1439229Y-2184650D02*
X1458277Y-2194174D01*
X1458277Y-2194174D02*
X1467801Y-2213222D01*
X1467801Y-2213222D02*
X1467801Y-2317984D01*
X1467801Y-2213222D02*
X1477324Y-2194174D01*
X1477324Y-2194174D02*
X1496372Y-2184650D01*
X1496372Y-2184650D02*
X1524943Y-2184650D01*
X1524943Y-2184650D02*
X1543991Y-2194174D01*
X1543991Y-2194174D02*
X1553515Y-2213222D01*
X1553515Y-2213222D02*
X1553515Y-2317984D01*
X1943991Y-2108460D02*
X1772563Y-2365603D01*
X2201134Y-2117984D02*
X2220182Y-2117984D01*
X2220182Y-2117984D02*
X2239229Y-2127508D01*
X2239229Y-2127508D02*
X2248753Y-2137031D01*
X2248753Y-2137031D02*
X2258277Y-2156079D01*
X2258277Y-2156079D02*
X2267801Y-2194174D01*
X2267801Y-2194174D02*
X2267801Y-2241793D01*
X2267801Y-2241793D02*
X2258277Y-2279889D01*
X2258277Y-2279889D02*
X2248753Y-2298936D01*
X2248753Y-2298936D02*
X2239229Y-2308460D01*
X2239229Y-2308460D02*
X2220182Y-2317984D01*
X2220182Y-2317984D02*
X2201134Y-2317984D01*
X2201134Y-2317984D02*
X2182087Y-2308460D01*
X2182087Y-2308460D02*
X2172563Y-2298936D01*
X2172563Y-2298936D02*
X2163039Y-2279889D01*
X2163039Y-2279889D02*
X2153515Y-2241793D01*
X2153515Y-2241793D02*
X2153515Y-2194174D01*
X2153515Y-2194174D02*
X2163039Y-2156079D01*
X2163039Y-2156079D02*
X2172563Y-2137031D01*
X2172563Y-2137031D02*
X2182087Y-2127508D01*
X2182087Y-2127508D02*
X2201134Y-2117984D01*
X2353515Y-2298936D02*
X2363039Y-2308460D01*
X2363039Y-2308460D02*
X2353515Y-2317984D01*
X2353515Y-2317984D02*
X2343991Y-2308460D01*
X2343991Y-2308460D02*
X2353515Y-2298936D01*
X2353515Y-2298936D02*
X2353515Y-2317984D01*
X2486848Y-2117984D02*
X2505896Y-2117984D01*
X2505896Y-2117984D02*
X2524944Y-2127508D01*
X2524944Y-2127508D02*
X2534468Y-2137031D01*
X2534468Y-2137031D02*
X2543991Y-2156079D01*
X2543991Y-2156079D02*
X2553515Y-2194174D01*
X2553515Y-2194174D02*
X2553515Y-2241793D01*
X2553515Y-2241793D02*
X2543991Y-2279889D01*
X2543991Y-2279889D02*
X2534468Y-2298936D01*
X2534468Y-2298936D02*
X2524944Y-2308460D01*
X2524944Y-2308460D02*
X2505896Y-2317984D01*
X2505896Y-2317984D02*
X2486848Y-2317984D01*
X2486848Y-2317984D02*
X2467801Y-2308460D01*
X2467801Y-2308460D02*
X2458277Y-2298936D01*
X2458277Y-2298936D02*
X2448753Y-2279889D01*
X2448753Y-2279889D02*
X2439229Y-2241793D01*
X2439229Y-2241793D02*
X2439229Y-2194174D01*
X2439229Y-2194174D02*
X2448753Y-2156079D01*
X2448753Y-2156079D02*
X2458277Y-2137031D01*
X2458277Y-2137031D02*
X2467801Y-2127508D01*
X2467801Y-2127508D02*
X2486848Y-2117984D01*
X2724944Y-2117984D02*
X2686848Y-2117984D01*
X2686848Y-2117984D02*
X2667801Y-2127508D01*
X2667801Y-2127508D02*
X2658277Y-2137031D01*
X2658277Y-2137031D02*
X2639229Y-2165603D01*
X2639229Y-2165603D02*
X2629706Y-2203698D01*
X2629706Y-2203698D02*
X2629706Y-2279889D01*
X2629706Y-2279889D02*
X2639229Y-2298936D01*
X2639229Y-2298936D02*
X2648753Y-2308460D01*
X2648753Y-2308460D02*
X2667801Y-2317984D01*
X2667801Y-2317984D02*
X2705896Y-2317984D01*
X2705896Y-2317984D02*
X2724944Y-2308460D01*
X2724944Y-2308460D02*
X2734468Y-2298936D01*
X2734468Y-2298936D02*
X2743991Y-2279889D01*
X2743991Y-2279889D02*
X2743991Y-2232270D01*
X2743991Y-2232270D02*
X2734468Y-2213222D01*
X2734468Y-2213222D02*
X2724944Y-2203698D01*
X2724944Y-2203698D02*
X2705896Y-2194174D01*
X2705896Y-2194174D02*
X2667801Y-2194174D01*
X2667801Y-2194174D02*
X2648753Y-2203698D01*
X2648753Y-2203698D02*
X2639229Y-2213222D01*
X2639229Y-2213222D02*
X2629706Y-2232270D01*
X2858277Y-2203698D02*
X2839229Y-2194174D01*
X2839229Y-2194174D02*
X2829706Y-2184650D01*
X2829706Y-2184650D02*
X2820182Y-2165603D01*
X2820182Y-2165603D02*
X2820182Y-2156079D01*
X2820182Y-2156079D02*
X2829706Y-2137031D01*
X2829706Y-2137031D02*
X2839229Y-2127508D01*
X2839229Y-2127508D02*
X2858277Y-2117984D01*
X2858277Y-2117984D02*
X2896372Y-2117984D01*
X2896372Y-2117984D02*
X2915420Y-2127508D01*
X2915420Y-2127508D02*
X2924944Y-2137031D01*
X2924944Y-2137031D02*
X2934467Y-2156079D01*
X2934467Y-2156079D02*
X2934467Y-2165603D01*
X2934467Y-2165603D02*
X2924944Y-2184650D01*
X2924944Y-2184650D02*
X2915420Y-2194174D01*
X2915420Y-2194174D02*
X2896372Y-2203698D01*
X2896372Y-2203698D02*
X2858277Y-2203698D01*
X2858277Y-2203698D02*
X2839229Y-2213222D01*
X2839229Y-2213222D02*
X2829706Y-2222746D01*
X2829706Y-2222746D02*
X2820182Y-2241793D01*
X2820182Y-2241793D02*
X2820182Y-2279889D01*
X2820182Y-2279889D02*
X2829706Y-2298936D01*
X2829706Y-2298936D02*
X2839229Y-2308460D01*
X2839229Y-2308460D02*
X2858277Y-2317984D01*
X2858277Y-2317984D02*
X2896372Y-2317984D01*
X2896372Y-2317984D02*
X2915420Y-2308460D01*
X2915420Y-2308460D02*
X2924944Y-2298936D01*
X2924944Y-2298936D02*
X2934467Y-2279889D01*
X2934467Y-2279889D02*
X2934467Y-2241793D01*
X2934467Y-2241793D02*
X2924944Y-2222746D01*
X2924944Y-2222746D02*
X2915420Y-2213222D01*
X2915420Y-2213222D02*
X2896372Y-2203698D01*
X3029706Y-2317984D02*
X3067801Y-2317984D01*
X3067801Y-2317984D02*
X3086848Y-2308460D01*
X3086848Y-2308460D02*
X3096372Y-2298936D01*
X3096372Y-2298936D02*
X3115420Y-2270365D01*
X3115420Y-2270365D02*
X3124944Y-2232270D01*
X3124944Y-2232270D02*
X3124944Y-2156079D01*
X3124944Y-2156079D02*
X3115420Y-2137031D01*
X3115420Y-2137031D02*
X3105896Y-2127508D01*
X3105896Y-2127508D02*
X3086848Y-2117984D01*
X3086848Y-2117984D02*
X3048753Y-2117984D01*
X3048753Y-2117984D02*
X3029706Y-2127508D01*
X3029706Y-2127508D02*
X3020182Y-2137031D01*
X3020182Y-2137031D02*
X3010658Y-2156079D01*
X3010658Y-2156079D02*
X3010658Y-2203698D01*
X3010658Y-2203698D02*
X3020182Y-2222746D01*
X3020182Y-2222746D02*
X3029706Y-2232270D01*
X3029706Y-2232270D02*
X3048753Y-2241793D01*
X3048753Y-2241793D02*
X3086848Y-2241793D01*
X3086848Y-2241793D02*
X3105896Y-2232270D01*
X3105896Y-2232270D02*
X3115420Y-2222746D01*
X3115420Y-2222746D02*
X3124944Y-2203698D01*
X3201134Y-2117984D02*
X3201134Y-2156079D01*
X3277325Y-2117984D02*
X3277325Y-2156079D01*
X3572563Y-2394174D02*
X3563039Y-2384650D01*
X3563039Y-2384650D02*
X3543991Y-2356079D01*
X3543991Y-2356079D02*
X3534468Y-2337031D01*
X3534468Y-2337031D02*
X3524944Y-2308460D01*
X3524944Y-2308460D02*
X3515420Y-2260841D01*
X3515420Y-2260841D02*
X3515420Y-2222746D01*
X3515420Y-2222746D02*
X3524944Y-2175127D01*
X3524944Y-2175127D02*
X3534468Y-2146555D01*
X3534468Y-2146555D02*
X3543991Y-2127508D01*
X3543991Y-2127508D02*
X3563039Y-2098936D01*
X3563039Y-2098936D02*
X3572563Y-2089412D01*
X3639229Y-2137031D02*
X3648753Y-2127508D01*
X3648753Y-2127508D02*
X3667801Y-2117984D01*
X3667801Y-2117984D02*
X3715420Y-2117984D01*
X3715420Y-2117984D02*
X3734468Y-2127508D01*
X3734468Y-2127508D02*
X3743991Y-2137031D01*
X3743991Y-2137031D02*
X3753515Y-2156079D01*
X3753515Y-2156079D02*
X3753515Y-2175127D01*
X3753515Y-2175127D02*
X3743991Y-2203698D01*
X3743991Y-2203698D02*
X3629706Y-2317984D01*
X3629706Y-2317984D02*
X3753515Y-2317984D01*
X3820182Y-2117984D02*
X3943991Y-2117984D01*
X3943991Y-2117984D02*
X3877325Y-2194174D01*
X3877325Y-2194174D02*
X3905896Y-2194174D01*
X3905896Y-2194174D02*
X3924944Y-2203698D01*
X3924944Y-2203698D02*
X3934468Y-2213222D01*
X3934468Y-2213222D02*
X3943991Y-2232270D01*
X3943991Y-2232270D02*
X3943991Y-2279889D01*
X3943991Y-2279889D02*
X3934468Y-2298936D01*
X3934468Y-2298936D02*
X3924944Y-2308460D01*
X3924944Y-2308460D02*
X3905896Y-2317984D01*
X3905896Y-2317984D02*
X3848753Y-2317984D01*
X3848753Y-2317984D02*
X3829706Y-2308460D01*
X3829706Y-2308460D02*
X3820182Y-2298936D01*
X4182087Y-2317984D02*
X4182087Y-2117984D01*
X4267801Y-2317984D02*
X4267801Y-2213222D01*
X4267801Y-2213222D02*
X4258277Y-2194174D01*
X4258277Y-2194174D02*
X4239230Y-2184650D01*
X4239230Y-2184650D02*
X4210658Y-2184650D01*
X4210658Y-2184650D02*
X4191610Y-2194174D01*
X4191610Y-2194174D02*
X4182087Y-2203698D01*
X4391611Y-2317984D02*
X4372563Y-2308460D01*
X4372563Y-2308460D02*
X4363039Y-2298936D01*
X4363039Y-2298936D02*
X4353515Y-2279889D01*
X4353515Y-2279889D02*
X4353515Y-2222746D01*
X4353515Y-2222746D02*
X4363039Y-2203698D01*
X4363039Y-2203698D02*
X4372563Y-2194174D01*
X4372563Y-2194174D02*
X4391611Y-2184650D01*
X4391611Y-2184650D02*
X4420182Y-2184650D01*
X4420182Y-2184650D02*
X4439230Y-2194174D01*
X4439230Y-2194174D02*
X4448753Y-2203698D01*
X4448753Y-2203698D02*
X4458277Y-2222746D01*
X4458277Y-2222746D02*
X4458277Y-2279889D01*
X4458277Y-2279889D02*
X4448753Y-2298936D01*
X4448753Y-2298936D02*
X4439230Y-2308460D01*
X4439230Y-2308460D02*
X4420182Y-2317984D01*
X4420182Y-2317984D02*
X4391611Y-2317984D01*
X4572563Y-2317984D02*
X4553515Y-2308460D01*
X4553515Y-2308460D02*
X4543992Y-2289412D01*
X4543992Y-2289412D02*
X4543992Y-2117984D01*
X4724944Y-2308460D02*
X4705896Y-2317984D01*
X4705896Y-2317984D02*
X4667801Y-2317984D01*
X4667801Y-2317984D02*
X4648753Y-2308460D01*
X4648753Y-2308460D02*
X4639230Y-2289412D01*
X4639230Y-2289412D02*
X4639230Y-2213222D01*
X4639230Y-2213222D02*
X4648753Y-2194174D01*
X4648753Y-2194174D02*
X4667801Y-2184650D01*
X4667801Y-2184650D02*
X4705896Y-2184650D01*
X4705896Y-2184650D02*
X4724944Y-2194174D01*
X4724944Y-2194174D02*
X4734468Y-2213222D01*
X4734468Y-2213222D02*
X4734468Y-2232270D01*
X4734468Y-2232270D02*
X4639230Y-2251317D01*
X4810658Y-2308460D02*
X4829706Y-2317984D01*
X4829706Y-2317984D02*
X4867801Y-2317984D01*
X4867801Y-2317984D02*
X4886849Y-2308460D01*
X4886849Y-2308460D02*
X4896373Y-2289412D01*
X4896373Y-2289412D02*
X4896373Y-2279889D01*
X4896373Y-2279889D02*
X4886849Y-2260841D01*
X4886849Y-2260841D02*
X4867801Y-2251317D01*
X4867801Y-2251317D02*
X4839230Y-2251317D01*
X4839230Y-2251317D02*
X4820182Y-2241793D01*
X4820182Y-2241793D02*
X4810658Y-2222746D01*
X4810658Y-2222746D02*
X4810658Y-2213222D01*
X4810658Y-2213222D02*
X4820182Y-2194174D01*
X4820182Y-2194174D02*
X4839230Y-2184650D01*
X4839230Y-2184650D02*
X4867801Y-2184650D01*
X4867801Y-2184650D02*
X4886849Y-2194174D01*
X4963039Y-2394174D02*
X4972563Y-2384650D01*
X4972563Y-2384650D02*
X4991611Y-2356079D01*
X4991611Y-2356079D02*
X5001134Y-2337031D01*
X5001134Y-2337031D02*
X5010658Y-2308460D01*
X5010658Y-2308460D02*
X5020182Y-2260841D01*
X5020182Y-2260841D02*
X5020182Y-2222746D01*
X5020182Y-2222746D02*
X5010658Y-2175127D01*
X5010658Y-2175127D02*
X5001134Y-2146555D01*
X5001134Y-2146555D02*
X4991611Y-2127508D01*
X4991611Y-2127508D02*
X4972563Y-2098936D01*
X4972563Y-2098936D02*
X4963039Y-2089412D01*
M02*
