%TF.GenerationSoftware,KiCad,Pcbnew,9.0.5*%
%TF.CreationDate,2025-12-06T21:21:28+01:00*%
%TF.ProjectId,Speedometer_Tech,53706565-646f-46d6-9574-65725f546563,rev?*%
%TF.SameCoordinates,Original*%
%TF.FileFunction,Paste,Top*%
%TF.FilePolarity,Positive*%
%FSLAX46Y46*%
G04 Gerber Fmt 4.6, Leading zero omitted, Abs format (unit mm)*
G04 Created by KiCad (PCBNEW 9.0.5) date 2025-12-06 21:21:28*
%MOMM*%
%LPD*%
G01*
G04 APERTURE LIST*
G04 Aperture macros list*
%AMRoundRect*
0 Rectangle with rounded corners*
0 $1 Rounding radius*
0 $2 $3 $4 $5 $6 $7 $8 $9 X,Y pos of 4 corners*
0 Add a 4 corners polygon primitive as box body*
4,1,4,$2,$3,$4,$5,$6,$7,$8,$9,$2,$3,0*
0 Add four circle primitives for the rounded corners*
1,1,$1+$1,$2,$3*
1,1,$1+$1,$4,$5*
1,1,$1+$1,$6,$7*
1,1,$1+$1,$8,$9*
0 Add four rect primitives between the rounded corners*
20,1,$1+$1,$2,$3,$4,$5,0*
20,1,$1+$1,$4,$5,$6,$7,0*
20,1,$1+$1,$6,$7,$8,$9,0*
20,1,$1+$1,$8,$9,$2,$3,0*%
%AMRotRect*
0 Rectangle, with rotation*
0 The origin of the aperture is its center*
0 $1 length*
0 $2 width*
0 $3 Rotation angle, in degrees counterclockwise*
0 Add horizontal line*
21,1,$1,$2,0,0,$3*%
G04 Aperture macros list end*
%ADD10R,0.700000X0.700000*%
%ADD11RoundRect,0.135000X-0.315000X-0.865000X0.315000X-0.865000X0.315000X0.865000X-0.315000X0.865000X0*%
%ADD12RotRect,0.700000X0.700000X340.000000*%
%ADD13RoundRect,0.300000X-0.700000X-1.700000X0.700000X-1.700000X0.700000X1.700000X-0.700000X1.700000X0*%
%ADD14RoundRect,0.250000X-1.000000X-0.250000X1.000000X-0.250000X1.000000X0.250000X-1.000000X0.250000X0*%
%ADD15RoundRect,0.300000X-0.300000X-0.950000X0.300000X-0.950000X0.300000X0.950000X-0.300000X0.950000X0*%
%ADD16RoundRect,0.325000X-0.325000X-0.325000X0.325000X-0.325000X0.325000X0.325000X-0.325000X0.325000X0*%
%ADD17RoundRect,0.200000X-0.275000X0.200000X-0.275000X-0.200000X0.275000X-0.200000X0.275000X0.200000X0*%
%ADD18R,1.600000X1.400000*%
%ADD19RoundRect,0.200000X0.200000X0.275000X-0.200000X0.275000X-0.200000X-0.275000X0.200000X-0.275000X0*%
G04 APERTURE END LIST*
D10*
%TO.C,U239*%
X240415000Y79475685D03*
X240415000Y80575685D03*
X238585000Y80575685D03*
X238585000Y79475685D03*
%TD*%
D11*
%TO.C,D521*%
X73440350Y24600000D03*
X74880350Y24600000D03*
X77760350Y24600000D03*
X79200350Y24600000D03*
X79200350Y34600000D03*
X77760350Y34600000D03*
X74880350Y34600000D03*
X73440350Y34600000D03*
X76320350Y34600000D03*
X76320350Y24600000D03*
%TD*%
D10*
%TO.C,U226*%
X194915000Y79425685D03*
X194915000Y80525685D03*
X193085000Y80525685D03*
X193085000Y79425685D03*
%TD*%
D11*
%TO.C,D520*%
X80440350Y24600000D03*
X81880350Y24600000D03*
X84760350Y24600000D03*
X86200350Y24600000D03*
X86200350Y34600000D03*
X84760350Y34600000D03*
X81880350Y34600000D03*
X80440350Y34600000D03*
X83320350Y34600000D03*
X83320350Y24600000D03*
%TD*%
D10*
%TO.C,U227*%
X198415000Y79425685D03*
X198415000Y80525685D03*
X196585000Y80525685D03*
X196585000Y79425685D03*
%TD*%
%TO.C,U315*%
X298285000Y81800000D03*
X298285000Y80700000D03*
X300115000Y80700000D03*
X300115000Y81800000D03*
%TD*%
%TO.C,U224*%
X187915000Y79425685D03*
X187915000Y80525685D03*
X186085000Y80525685D03*
X186085000Y79425685D03*
%TD*%
%TO.C,U420*%
X20915000Y71950000D03*
X20915000Y73050000D03*
X19085000Y73050000D03*
X19085000Y71950000D03*
%TD*%
%TO.C,U305*%
X298285000Y46800000D03*
X298285000Y45700000D03*
X300115000Y45700000D03*
X300115000Y46800000D03*
%TD*%
D11*
%TO.C,D523*%
X59440350Y24600000D03*
X60880350Y24600000D03*
X63760350Y24600000D03*
X65200350Y24600000D03*
X65200350Y34600000D03*
X63760350Y34600000D03*
X60880350Y34600000D03*
X59440350Y34600000D03*
X62320350Y34600000D03*
X62320350Y24600000D03*
%TD*%
D10*
%TO.C,U401*%
X9085000Y32800000D03*
X9085000Y31700000D03*
X10915000Y31700000D03*
X10915000Y32800000D03*
%TD*%
%TO.C,U415*%
X9085000Y81800000D03*
X9085000Y80700000D03*
X10915000Y80700000D03*
X10915000Y81800000D03*
%TD*%
%TO.C,U303*%
X298285000Y39800000D03*
X298285000Y38700000D03*
X300115000Y38700000D03*
X300115000Y39800000D03*
%TD*%
D11*
%TO.C,D510*%
X87440350Y44600000D03*
X88880350Y44600000D03*
X91760350Y44600000D03*
X93200350Y44600000D03*
X93200350Y54600000D03*
X91760350Y54600000D03*
X88880350Y54600000D03*
X87440350Y54600000D03*
X90320350Y54600000D03*
X90320350Y44600000D03*
%TD*%
%TO.C,D512*%
X73440350Y44600000D03*
X74880350Y44600000D03*
X77760350Y44600000D03*
X79200350Y44600000D03*
X79200350Y54600000D03*
X77760350Y54600000D03*
X74880350Y54600000D03*
X73440350Y54600000D03*
X76320350Y54600000D03*
X76320350Y44600000D03*
%TD*%
D12*
%TO.C,U205*%
X154372235Y31521601D03*
X153996013Y30487939D03*
X155715651Y29862043D03*
X156091873Y30895705D03*
%TD*%
D10*
%TO.C,U317*%
X293285000Y87050000D03*
X293285000Y85950000D03*
X295115000Y85950000D03*
X295115000Y87050000D03*
%TD*%
%TO.C,U306*%
X298285000Y50300000D03*
X298285000Y49200000D03*
X300115000Y49200000D03*
X300115000Y50300000D03*
%TD*%
%TO.C,U709*%
X75586000Y8550000D03*
X75586000Y7450000D03*
X77416000Y7450000D03*
X77416000Y8550000D03*
%TD*%
%TO.C,U223*%
X184415000Y79425685D03*
X184415000Y80525685D03*
X182585000Y80525685D03*
X182585000Y79425685D03*
%TD*%
%TO.C,U404*%
X9085000Y43300000D03*
X9085000Y42200000D03*
X10915000Y42200000D03*
X10915000Y43300000D03*
%TD*%
%TO.C,U412*%
X9085000Y71300000D03*
X9085000Y70200000D03*
X10915000Y70200000D03*
X10915000Y71300000D03*
%TD*%
%TO.C,U319*%
X293285000Y73050000D03*
X293285000Y71950000D03*
X295115000Y71950000D03*
X295115000Y73050000D03*
%TD*%
%TO.C,U236*%
X229915000Y79475685D03*
X229915000Y80575685D03*
X228085000Y80575685D03*
X228085000Y79475685D03*
%TD*%
%TO.C,U421*%
X15915000Y57950000D03*
X15915000Y59050000D03*
X14085000Y59050000D03*
X14085000Y57950000D03*
%TD*%
%TO.C,U238*%
X236915000Y79475685D03*
X236915000Y80575685D03*
X235085000Y80575685D03*
X235085000Y79475685D03*
%TD*%
%TO.C,U409*%
X9085000Y60800000D03*
X9085000Y59700000D03*
X10915000Y59700000D03*
X10915000Y60800000D03*
%TD*%
D12*
%TO.C,U208*%
X157963446Y41388374D03*
X157587224Y40354712D03*
X159306862Y39728816D03*
X159683084Y40762478D03*
%TD*%
D10*
%TO.C,U702*%
X254071000Y8550000D03*
X254071000Y7450000D03*
X255901000Y7450000D03*
X255901000Y8550000D03*
%TD*%
%TO.C,U321*%
X293285000Y59050000D03*
X293285000Y57950000D03*
X295115000Y57950000D03*
X295115000Y59050000D03*
%TD*%
%TO.C,U416*%
X9085000Y85300000D03*
X9085000Y84200000D03*
X10915000Y84200000D03*
X10915000Y85300000D03*
%TD*%
D12*
%TO.C,U206*%
X155569305Y34810526D03*
X155193083Y33776864D03*
X156912721Y33150968D03*
X157288943Y34184630D03*
%TD*%
D10*
%TO.C,U307*%
X298285000Y53800000D03*
X298285000Y52700000D03*
X300115000Y52700000D03*
X300115000Y53800000D03*
%TD*%
%TO.C,U413*%
X9085000Y74800000D03*
X9085000Y73700000D03*
X10915000Y73700000D03*
X10915000Y74800000D03*
%TD*%
%TO.C,U233*%
X219415000Y79390685D03*
X219415000Y80490685D03*
X217585000Y80490685D03*
X217585000Y79390685D03*
%TD*%
%TO.C,U302*%
X298285000Y36300000D03*
X298285000Y35200000D03*
X300115000Y35200000D03*
X300115000Y36300000D03*
%TD*%
%TO.C,U310*%
X298270000Y64300000D03*
X298270000Y63200000D03*
X300100000Y63200000D03*
X300100000Y64300000D03*
%TD*%
%TO.C,U231*%
X212415000Y79390685D03*
X212415000Y80490685D03*
X210585000Y80490685D03*
X210585000Y79390685D03*
%TD*%
%TO.C,U235*%
X226415000Y79390685D03*
X226415000Y80490685D03*
X224585000Y80490685D03*
X224585000Y79390685D03*
%TD*%
%TO.C,U220*%
X173915000Y79475685D03*
X173915000Y80575685D03*
X172085000Y80575685D03*
X172085000Y79475685D03*
%TD*%
%TO.C,U408*%
X9085000Y57300000D03*
X9085000Y56200000D03*
X10915000Y56200000D03*
X10915000Y57300000D03*
%TD*%
%TO.C,U417*%
X15915000Y85950000D03*
X15915000Y87050000D03*
X14085000Y87050000D03*
X14085000Y85950000D03*
%TD*%
D11*
%TO.C,D511*%
X80440350Y44600000D03*
X81880350Y44600000D03*
X84760350Y44600000D03*
X86200350Y44600000D03*
X86200350Y54600000D03*
X84760350Y54600000D03*
X81880350Y54600000D03*
X80440350Y54600000D03*
X83320350Y54600000D03*
X83320350Y44600000D03*
%TD*%
D10*
%TO.C,U228*%
X201915000Y79425685D03*
X201915000Y80525685D03*
X200085000Y80525685D03*
X200085000Y79425685D03*
%TD*%
D12*
%TO.C,U217*%
X168737081Y70988691D03*
X168360859Y69955029D03*
X170080497Y69329133D03*
X170456719Y70362795D03*
%TD*%
D11*
%TO.C,D513*%
X66440350Y44600000D03*
X67880350Y44600000D03*
X70760350Y44600000D03*
X72200350Y44600000D03*
X72200350Y54600000D03*
X70760350Y54600000D03*
X67880350Y54600000D03*
X66440350Y54600000D03*
X69320350Y54600000D03*
X69320350Y44600000D03*
%TD*%
D10*
%TO.C,U414*%
X9085000Y78300000D03*
X9085000Y77200000D03*
X10915000Y77200000D03*
X10915000Y78300000D03*
%TD*%
D12*
%TO.C,U213*%
X163948798Y57832995D03*
X163572576Y56799333D03*
X165292214Y56173437D03*
X165668436Y57207099D03*
%TD*%
D10*
%TO.C,U423*%
X15915000Y43950000D03*
X15915000Y45050000D03*
X14085000Y45050000D03*
X14085000Y43950000D03*
%TD*%
D12*
%TO.C,U216*%
X167540010Y67699767D03*
X167163788Y66666105D03*
X168883426Y66040209D03*
X169259648Y67073871D03*
%TD*%
D10*
%TO.C,U301*%
X298285000Y32800000D03*
X298285000Y31700000D03*
X300115000Y31700000D03*
X300115000Y32800000D03*
%TD*%
D12*
%TO.C,U218*%
X169934151Y74277616D03*
X169557929Y73243954D03*
X171277567Y72618058D03*
X171653789Y73651720D03*
%TD*%
D10*
%TO.C,U326*%
X288285000Y31050000D03*
X288285000Y29950000D03*
X290115000Y29950000D03*
X290115000Y31050000D03*
%TD*%
D12*
%TO.C,U211*%
X161554657Y51255147D03*
X161178435Y50221485D03*
X162898073Y49595589D03*
X163274295Y50629251D03*
%TD*%
D10*
%TO.C,U708*%
X97873000Y8550000D03*
X97873000Y7450000D03*
X99703000Y7450000D03*
X99703000Y8550000D03*
%TD*%
D12*
%TO.C,U219*%
X171131221Y77566540D03*
X170754999Y76532878D03*
X172474637Y75906982D03*
X172850859Y76940644D03*
%TD*%
D10*
%TO.C,U314*%
X298270000Y78300000D03*
X298270000Y77200000D03*
X300100000Y77200000D03*
X300100000Y78300000D03*
%TD*%
%TO.C,U403*%
X9085000Y39800000D03*
X9085000Y38700000D03*
X10915000Y38700000D03*
X10915000Y39800000D03*
%TD*%
%TO.C,U221*%
X177415000Y79475685D03*
X177415000Y80575685D03*
X175585000Y80575685D03*
X175585000Y79475685D03*
%TD*%
%TO.C,U309*%
X298205000Y60800000D03*
X298205000Y59700000D03*
X300035000Y59700000D03*
X300035000Y60800000D03*
%TD*%
%TO.C,U703*%
X231784000Y8550000D03*
X231784000Y7450000D03*
X233614000Y7450000D03*
X233614000Y8550000D03*
%TD*%
D11*
%TO.C,D522*%
X66440350Y24600000D03*
X67880350Y24600000D03*
X70760350Y24600000D03*
X72200350Y24600000D03*
X72200350Y34600000D03*
X70760350Y34600000D03*
X67880350Y34600000D03*
X66440350Y34600000D03*
X69320350Y34600000D03*
X69320350Y24600000D03*
%TD*%
D10*
%TO.C,U405*%
X9085000Y46800000D03*
X9085000Y45700000D03*
X10915000Y45700000D03*
X10915000Y46800000D03*
%TD*%
%TO.C,U316*%
X298285000Y85300000D03*
X298285000Y84200000D03*
X300115000Y84200000D03*
X300115000Y85300000D03*
%TD*%
%TO.C,U222*%
X180915000Y79475685D03*
X180915000Y80575685D03*
X179085000Y80575685D03*
X179085000Y79475685D03*
%TD*%
%TO.C,U323*%
X293285000Y45050000D03*
X293285000Y43950000D03*
X295115000Y43950000D03*
X295115000Y45050000D03*
%TD*%
%TO.C,U411*%
X9085000Y67800000D03*
X9085000Y66700000D03*
X10915000Y66700000D03*
X10915000Y67800000D03*
%TD*%
D13*
%TO.C,D101*%
X203593350Y36500000D03*
X206133350Y36500000D03*
X208673350Y36500000D03*
X211213350Y36500000D03*
X208673350Y62500000D03*
X206133350Y62500000D03*
X203593350Y62500000D03*
X201053350Y62500000D03*
X201053350Y36500000D03*
X211213350Y62500000D03*
%TD*%
D10*
%TO.C,U313*%
X298270000Y74800000D03*
X298270000Y73700000D03*
X300100000Y73700000D03*
X300100000Y74800000D03*
%TD*%
%TO.C,U304*%
X298285000Y43300000D03*
X298285000Y42200000D03*
X300115000Y42200000D03*
X300115000Y43300000D03*
%TD*%
%TO.C,U419*%
X15915000Y71950000D03*
X15915000Y73050000D03*
X14085000Y73050000D03*
X14085000Y71950000D03*
%TD*%
%TO.C,U424*%
X20915000Y43950000D03*
X20915000Y45050000D03*
X19085000Y45050000D03*
X19085000Y43950000D03*
%TD*%
%TO.C,U406*%
X9085000Y50300000D03*
X9085000Y49200000D03*
X10915000Y49200000D03*
X10915000Y50300000D03*
%TD*%
%TO.C,U407*%
X9085000Y53800000D03*
X9085000Y52700000D03*
X10915000Y52700000D03*
X10915000Y53800000D03*
%TD*%
D11*
%TO.C,D514*%
X59440350Y44600000D03*
X60880350Y44600000D03*
X63760350Y44600000D03*
X65200350Y44600000D03*
X65200350Y54600000D03*
X63760350Y54600000D03*
X60880350Y54600000D03*
X59440350Y54600000D03*
X62320350Y54600000D03*
X62320350Y44600000D03*
%TD*%
D10*
%TO.C,U410*%
X9085000Y64300000D03*
X9085000Y63200000D03*
X10915000Y63200000D03*
X10915000Y64300000D03*
%TD*%
D14*
%TO.C,J2*%
X114975000Y85515000D03*
X114975000Y82975000D03*
X114975000Y80435000D03*
X114975000Y77895000D03*
X114975000Y75355000D03*
X114975000Y72815000D03*
X114975000Y70275000D03*
X114975000Y67735000D03*
%TD*%
D15*
%TO.C,D110*%
X150800020Y63500000D03*
X152700020Y63500000D03*
X154600020Y63500000D03*
X156500020Y63500000D03*
X158400020Y63500000D03*
D16*
X157200020Y65900000D03*
X154600020Y65900000D03*
X152000020Y65900000D03*
X152000020Y80100000D03*
X154600020Y80100000D03*
X157200020Y80100000D03*
D15*
X158400020Y82500000D03*
X156500020Y82500000D03*
X154600020Y82500000D03*
X152700020Y82500000D03*
X150800020Y82500000D03*
%TD*%
D10*
%TO.C,U704*%
X209497000Y8550000D03*
X209497000Y7450000D03*
X211327000Y7450000D03*
X211327000Y8550000D03*
%TD*%
%TO.C,U229*%
X205415000Y79425685D03*
X205415000Y80525685D03*
X203585000Y80525685D03*
X203585000Y79425685D03*
%TD*%
%TO.C,U418*%
X20915000Y85950000D03*
X20915000Y87050000D03*
X19085000Y87050000D03*
X19085000Y85950000D03*
%TD*%
%TO.C,U422*%
X20915000Y57950000D03*
X20915000Y59050000D03*
X19085000Y59050000D03*
X19085000Y57950000D03*
%TD*%
%TO.C,U312*%
X298270000Y71300000D03*
X298270000Y70200000D03*
X300100000Y70200000D03*
X300100000Y71300000D03*
%TD*%
%TO.C,U325*%
X293285000Y31050000D03*
X293285000Y29950000D03*
X295115000Y29950000D03*
X295115000Y31050000D03*
%TD*%
%TO.C,U402*%
X9085000Y36300000D03*
X9085000Y35200000D03*
X10915000Y35200000D03*
X10915000Y36300000D03*
%TD*%
D13*
%TO.C,D102*%
X186593350Y36500000D03*
X189133350Y36500000D03*
X191673350Y36500000D03*
X194213350Y36500000D03*
X191673350Y62500000D03*
X189133350Y62500000D03*
X186593350Y62500000D03*
X184053350Y62500000D03*
X184053350Y36500000D03*
X194213350Y62500000D03*
%TD*%
D10*
%TO.C,U705*%
X187210000Y8550000D03*
X187210000Y7450000D03*
X189040000Y7450000D03*
X189040000Y8550000D03*
%TD*%
%TO.C,U232*%
X215915000Y79390685D03*
X215915000Y80490685D03*
X214085000Y80490685D03*
X214085000Y79390685D03*
%TD*%
%TO.C,U706*%
X153685000Y8550000D03*
X153685000Y7450000D03*
X155515000Y7450000D03*
X155515000Y8550000D03*
%TD*%
%TO.C,U707*%
X120160000Y8550000D03*
X120160000Y7450000D03*
X121990000Y7450000D03*
X121990000Y8550000D03*
%TD*%
%TO.C,U308*%
X298205000Y57300000D03*
X298205000Y56200000D03*
X300035000Y56200000D03*
X300035000Y57300000D03*
%TD*%
%TO.C,U237*%
X233415000Y79475685D03*
X233415000Y80575685D03*
X231585000Y80575685D03*
X231585000Y79475685D03*
%TD*%
D17*
%TO.C,R607*%
X15000000Y53825000D03*
X15000000Y52175000D03*
%TD*%
D10*
%TO.C,U241*%
X247415000Y79475685D03*
X247415000Y80575685D03*
X245585000Y80575685D03*
X245585000Y79475685D03*
%TD*%
%TO.C,U234*%
X222915000Y79390685D03*
X222915000Y80490685D03*
X221085000Y80490685D03*
X221085000Y79390685D03*
%TD*%
D12*
%TO.C,U209*%
X159160517Y44677298D03*
X158784295Y43643636D03*
X160503933Y43017740D03*
X160880155Y44051402D03*
%TD*%
D10*
%TO.C,U225*%
X191415000Y79425685D03*
X191415000Y80525685D03*
X189585000Y80525685D03*
X189585000Y79425685D03*
%TD*%
%TO.C,U425*%
X15915000Y29950000D03*
X15915000Y31050000D03*
X14085000Y31050000D03*
X14085000Y29950000D03*
%TD*%
D12*
%TO.C,U215*%
X166342939Y64410843D03*
X165966717Y63377181D03*
X167686355Y62751285D03*
X168062577Y63784947D03*
%TD*%
D10*
%TO.C,U320*%
X288285000Y73050000D03*
X288285000Y71950000D03*
X290115000Y71950000D03*
X290115000Y73050000D03*
%TD*%
D12*
%TO.C,U212*%
X162751727Y54544071D03*
X162375505Y53510409D03*
X164095143Y52884513D03*
X164471365Y53918175D03*
%TD*%
D10*
%TO.C,U324*%
X288285000Y45050000D03*
X288285000Y43950000D03*
X290115000Y43950000D03*
X290115000Y45050000D03*
%TD*%
%TO.C,U426*%
X20915000Y29950000D03*
X20915000Y31050000D03*
X19085000Y31050000D03*
X19085000Y29950000D03*
%TD*%
D18*
%TO.C,S600*%
X21100000Y41850000D03*
X29100000Y41850000D03*
X21100000Y37350000D03*
X29100000Y37350000D03*
%TD*%
D11*
%TO.C,D515*%
X52440350Y44600000D03*
X53880350Y44600000D03*
X56760350Y44600000D03*
X58200350Y44600000D03*
X58200350Y54600000D03*
X56760350Y54600000D03*
X53880350Y54600000D03*
X52440350Y54600000D03*
X55320350Y54600000D03*
X55320350Y44600000D03*
%TD*%
D10*
%TO.C,U240*%
X243915000Y79475685D03*
X243915000Y80575685D03*
X242085000Y80575685D03*
X242085000Y79475685D03*
%TD*%
D13*
%TO.C,D100*%
X220593350Y36500000D03*
X223133350Y36500000D03*
X225673350Y36500000D03*
X228213350Y36500000D03*
X225673350Y62500000D03*
X223133350Y62500000D03*
X220593350Y62500000D03*
X218053350Y62500000D03*
X218053350Y36500000D03*
X228213350Y62500000D03*
%TD*%
D10*
%TO.C,U711*%
X31012000Y8550000D03*
X31012000Y7450000D03*
X32842000Y7450000D03*
X32842000Y8550000D03*
%TD*%
%TO.C,U322*%
X288285000Y59050000D03*
X288285000Y57950000D03*
X290115000Y57950000D03*
X290115000Y59050000D03*
%TD*%
%TO.C,U700*%
X298645000Y8550000D03*
X298645000Y7450000D03*
X300475000Y7450000D03*
X300475000Y8550000D03*
%TD*%
%TO.C,U230*%
X208915000Y79390685D03*
X208915000Y80490685D03*
X207085000Y80490685D03*
X207085000Y79390685D03*
%TD*%
%TO.C,U712*%
X8725000Y8550000D03*
X8725000Y7450000D03*
X10555000Y7450000D03*
X10555000Y8550000D03*
%TD*%
%TO.C,U710*%
X53299000Y8550000D03*
X53299000Y7450000D03*
X55129000Y7450000D03*
X55129000Y8550000D03*
%TD*%
D19*
%TO.C,R608*%
X21325000Y50000000D03*
X19675000Y50000000D03*
%TD*%
D10*
%TO.C,U318*%
X288285000Y87050000D03*
X288285000Y85950000D03*
X290115000Y85950000D03*
X290115000Y87050000D03*
%TD*%
%TO.C,U311*%
X298270000Y67800000D03*
X298270000Y66700000D03*
X300100000Y66700000D03*
X300100000Y67800000D03*
%TD*%
D12*
%TO.C,U214*%
X165145868Y61121919D03*
X164769646Y60088257D03*
X166489284Y59462361D03*
X166865506Y60496023D03*
%TD*%
D10*
%TO.C,U701*%
X276358000Y8550000D03*
X276358000Y7450000D03*
X278188000Y7450000D03*
X278188000Y8550000D03*
%TD*%
D12*
%TO.C,U210*%
X160357586Y47966223D03*
X159981364Y46932561D03*
X161701002Y46306665D03*
X162077224Y47340327D03*
%TD*%
%TO.C,U207*%
X156766375Y38099450D03*
X156390153Y37065788D03*
X158109791Y36439892D03*
X158486013Y37473554D03*
%TD*%
M02*
