%TF.GenerationSoftware,KiCad,Pcbnew,9.0.5*%
%TF.CreationDate,2025-12-06T21:21:28+01:00*%
%TF.ProjectId,Speedometer_Tech,53706565-646f-46d6-9574-65725f546563,rev?*%
%TF.SameCoordinates,Original*%
%TF.FileFunction,Paste,Bot*%
%TF.FilePolarity,Positive*%
%FSLAX46Y46*%
G04 Gerber Fmt 4.6, Leading zero omitted, Abs format (unit mm)*
G04 Created by KiCad (PCBNEW 9.0.5) date 2025-12-06 21:21:28*
%MOMM*%
%LPD*%
G01*
G04 APERTURE LIST*
G04 Aperture macros list*
%AMRoundRect*
0 Rectangle with rounded corners*
0 $1 Rounding radius*
0 $2 $3 $4 $5 $6 $7 $8 $9 X,Y pos of 4 corners*
0 Add a 4 corners polygon primitive as box body*
4,1,4,$2,$3,$4,$5,$6,$7,$8,$9,$2,$3,0*
0 Add four circle primitives for the rounded corners*
1,1,$1+$1,$2,$3*
1,1,$1+$1,$4,$5*
1,1,$1+$1,$6,$7*
1,1,$1+$1,$8,$9*
0 Add four rect primitives between the rounded corners*
20,1,$1+$1,$2,$3,$4,$5,0*
20,1,$1+$1,$4,$5,$6,$7,0*
20,1,$1+$1,$6,$7,$8,$9,0*
20,1,$1+$1,$8,$9,$2,$3,0*%
G04 Aperture macros list end*
%ADD10RoundRect,0.250000X-0.475000X0.250000X-0.475000X-0.250000X0.475000X-0.250000X0.475000X0.250000X0*%
%ADD11RoundRect,0.100000X0.637500X0.100000X-0.637500X0.100000X-0.637500X-0.100000X0.637500X-0.100000X0*%
%ADD12RoundRect,0.200000X0.275000X-0.200000X0.275000X0.200000X-0.275000X0.200000X-0.275000X-0.200000X0*%
%ADD13RoundRect,0.200000X0.200000X0.275000X-0.200000X0.275000X-0.200000X-0.275000X0.200000X-0.275000X0*%
%ADD14RoundRect,0.200000X-0.200000X-0.275000X0.200000X-0.275000X0.200000X0.275000X-0.200000X0.275000X0*%
%ADD15RoundRect,0.225000X0.250000X-0.225000X0.250000X0.225000X-0.250000X0.225000X-0.250000X-0.225000X0*%
%ADD16RoundRect,0.200000X-0.275000X0.200000X-0.275000X-0.200000X0.275000X-0.200000X0.275000X0.200000X0*%
%ADD17R,1.600000X1.400000*%
%ADD18RoundRect,0.250000X-0.250000X-0.475000X0.250000X-0.475000X0.250000X0.475000X-0.250000X0.475000X0*%
%ADD19RoundRect,0.250000X0.475000X-0.250000X0.475000X0.250000X-0.475000X0.250000X-0.475000X-0.250000X0*%
%ADD20R,3.150000X1.000000*%
%ADD21RoundRect,0.150000X-0.150000X0.512500X-0.150000X-0.512500X0.150000X-0.512500X0.150000X0.512500X0*%
%ADD22RoundRect,0.225000X0.225000X0.375000X-0.225000X0.375000X-0.225000X-0.375000X0.225000X-0.375000X0*%
%ADD23RoundRect,0.150000X-0.825000X-0.150000X0.825000X-0.150000X0.825000X0.150000X-0.825000X0.150000X0*%
%ADD24R,8.200000X2.600000*%
%ADD25RoundRect,0.100000X-0.100000X0.850000X-0.100000X-0.850000X0.100000X-0.850000X0.100000X0.850000X0*%
%ADD26RoundRect,0.225000X-0.250000X0.225000X-0.250000X-0.225000X0.250000X-0.225000X0.250000X0.225000X0*%
%ADD27RoundRect,0.150000X-0.875000X-0.150000X0.875000X-0.150000X0.875000X0.150000X-0.875000X0.150000X0*%
%ADD28R,1.500000X0.900000*%
%ADD29R,0.900000X1.500000*%
%ADD30R,1.000000X1.000000*%
%ADD31RoundRect,0.250000X0.565685X-0.070711X-0.070711X0.565685X-0.565685X0.070711X0.070711X-0.565685X0*%
%ADD32RoundRect,0.225000X0.225000X0.250000X-0.225000X0.250000X-0.225000X-0.250000X0.225000X-0.250000X0*%
%ADD33RoundRect,0.079500X0.100500X-0.079500X0.100500X0.079500X-0.100500X0.079500X-0.100500X-0.079500X0*%
%ADD34RoundRect,0.150000X-0.150000X0.587500X-0.150000X-0.587500X0.150000X-0.587500X0.150000X0.587500X0*%
%ADD35RoundRect,0.250000X0.405000X-0.405000X0.405000X0.405000X-0.405000X0.405000X-0.405000X-0.405000X0*%
%ADD36RoundRect,0.062500X0.062500X-0.337500X0.062500X0.337500X-0.062500X0.337500X-0.062500X-0.337500X0*%
%ADD37RoundRect,0.062500X0.337500X-0.062500X0.337500X0.062500X-0.337500X0.062500X-0.337500X-0.062500X0*%
G04 APERTURE END LIST*
D10*
%TO.C,C1013*%
X109500000Y43950000D03*
X109500000Y42050000D03*
%TD*%
D11*
%TO.C,U523*%
X63500000Y32500000D03*
X63500000Y31850000D03*
X63500000Y31200000D03*
X63500000Y30550000D03*
X63500000Y29900000D03*
X63500000Y29250000D03*
X63500000Y28600000D03*
X63500000Y27950000D03*
X63500000Y27300000D03*
X63500000Y26650000D03*
X57775000Y26650000D03*
X57775000Y27300000D03*
X57775000Y27950000D03*
X57775000Y28600000D03*
X57775000Y29250000D03*
X57775000Y29900000D03*
X57775000Y30550000D03*
X57775000Y31200000D03*
X57775000Y31850000D03*
X57775000Y32500000D03*
%TD*%
D12*
%TO.C,R18*%
X44500000Y79675000D03*
X44500000Y81325000D03*
%TD*%
D11*
%TO.C,U111*%
X157462520Y72175000D03*
X157462520Y71525000D03*
X157462520Y70875000D03*
X157462520Y70225000D03*
X157462520Y69575000D03*
X157462520Y68925000D03*
X157462520Y68275000D03*
X157462520Y67625000D03*
X157462520Y66975000D03*
X157462520Y66325000D03*
X151737520Y66325000D03*
X151737520Y66975000D03*
X151737520Y67625000D03*
X151737520Y68275000D03*
X151737520Y68925000D03*
X151737520Y69575000D03*
X151737520Y70225000D03*
X151737520Y70875000D03*
X151737520Y71525000D03*
X151737520Y72175000D03*
%TD*%
D10*
%TO.C,C601*%
X139500000Y95450000D03*
X139500000Y93550000D03*
%TD*%
D13*
%TO.C,R603*%
X108325000Y95000000D03*
X106675000Y95000000D03*
%TD*%
D14*
%TO.C,R521*%
X81000000Y34500000D03*
X82650000Y34500000D03*
%TD*%
D15*
%TO.C,C904*%
X29750000Y97725000D03*
X29750000Y99275000D03*
%TD*%
D16*
%TO.C,R16*%
X95250000Y76075000D03*
X95250000Y74425000D03*
%TD*%
D12*
%TO.C,R8*%
X46750000Y86425000D03*
X46750000Y88075000D03*
%TD*%
D17*
%TO.C,S606*%
X13500000Y85616667D03*
X21500000Y85616667D03*
X13500000Y90116667D03*
X21500000Y90116667D03*
%TD*%
D18*
%TO.C,C1012*%
X117050000Y42000000D03*
X118950000Y42000000D03*
%TD*%
D16*
%TO.C,R1001*%
X126000000Y48325000D03*
X126000000Y46675000D03*
%TD*%
%TO.C,R1011*%
X106000000Y48325000D03*
X106000000Y46675000D03*
%TD*%
D12*
%TO.C,R002*%
X36500000Y79675000D03*
X36500000Y81325000D03*
%TD*%
D19*
%TO.C,C1016*%
X117000000Y56550000D03*
X117000000Y58450000D03*
%TD*%
D14*
%TO.C,R601*%
X9175000Y74283333D03*
X10825000Y74283333D03*
%TD*%
D12*
%TO.C,R17*%
X38750000Y79675000D03*
X38750000Y81325000D03*
%TD*%
D11*
%TO.C,U521*%
X79500000Y32500000D03*
X79500000Y31850000D03*
X79500000Y31200000D03*
X79500000Y30550000D03*
X79500000Y29900000D03*
X79500000Y29250000D03*
X79500000Y28600000D03*
X79500000Y27950000D03*
X79500000Y27300000D03*
X79500000Y26650000D03*
X73775000Y26650000D03*
X73775000Y27300000D03*
X73775000Y27950000D03*
X73775000Y28600000D03*
X73775000Y29250000D03*
X73775000Y29900000D03*
X73775000Y30550000D03*
X73775000Y31200000D03*
X73775000Y31850000D03*
X73775000Y32500000D03*
%TD*%
D14*
%TO.C,R523*%
X64925000Y34750000D03*
X66575000Y34750000D03*
%TD*%
D20*
%TO.C,H602*%
X157050000Y95080000D03*
X152000000Y95080000D03*
X157050000Y92540000D03*
X152000000Y92540000D03*
X157050000Y90000000D03*
X152000000Y90000000D03*
%TD*%
D11*
%TO.C,U513*%
X71500000Y52500000D03*
X71500000Y51850000D03*
X71500000Y51200000D03*
X71500000Y50550000D03*
X71500000Y49900000D03*
X71500000Y49250000D03*
X71500000Y48600000D03*
X71500000Y47950000D03*
X71500000Y47300000D03*
X71500000Y46650000D03*
X65775000Y46650000D03*
X65775000Y47300000D03*
X65775000Y47950000D03*
X65775000Y48600000D03*
X65775000Y49250000D03*
X65775000Y49900000D03*
X65775000Y50550000D03*
X65775000Y51200000D03*
X65775000Y51850000D03*
X65775000Y52500000D03*
%TD*%
D18*
%TO.C,C1002*%
X137050000Y39000000D03*
X138950000Y39000000D03*
%TD*%
D12*
%TO.C,R110*%
X162750000Y78075000D03*
X162750000Y79725000D03*
%TD*%
D21*
%TO.C,U1011*%
X113050000Y41637500D03*
X114000000Y41637500D03*
X114950000Y41637500D03*
X114950000Y39362500D03*
X114000000Y39362500D03*
X113050000Y39362500D03*
%TD*%
D22*
%TO.C,D1102*%
X29150000Y53650000D03*
X25850000Y53650000D03*
%TD*%
D11*
%TO.C,U511*%
X87725000Y52500000D03*
X87725000Y51850000D03*
X87725000Y51200000D03*
X87725000Y50550000D03*
X87725000Y49900000D03*
X87725000Y49250000D03*
X87725000Y48600000D03*
X87725000Y47950000D03*
X87725000Y47300000D03*
X87725000Y46650000D03*
X82000000Y46650000D03*
X82000000Y47300000D03*
X82000000Y47950000D03*
X82000000Y48600000D03*
X82000000Y49250000D03*
X82000000Y49900000D03*
X82000000Y50550000D03*
X82000000Y51200000D03*
X82000000Y51850000D03*
X82000000Y52500000D03*
%TD*%
%TO.C,U522*%
X71500000Y32500000D03*
X71500000Y31850000D03*
X71500000Y31200000D03*
X71500000Y30550000D03*
X71500000Y29900000D03*
X71500000Y29250000D03*
X71500000Y28600000D03*
X71500000Y27950000D03*
X71500000Y27300000D03*
X71500000Y26650000D03*
X65775000Y26650000D03*
X65775000Y27300000D03*
X65775000Y27950000D03*
X65775000Y28600000D03*
X65775000Y29250000D03*
X65775000Y29900000D03*
X65775000Y30550000D03*
X65775000Y31200000D03*
X65775000Y31850000D03*
X65775000Y32500000D03*
%TD*%
D13*
%TO.C,R514*%
X62575000Y54500000D03*
X60925000Y54500000D03*
%TD*%
D22*
%TO.C,D1104*%
X29150000Y46450000D03*
X25850000Y46450000D03*
%TD*%
D12*
%TO.C,R1002*%
X124000000Y46675000D03*
X124000000Y48325000D03*
%TD*%
D21*
%TO.C,U602*%
X99550000Y81137500D03*
X101450000Y81137500D03*
X100500000Y78862500D03*
%TD*%
D13*
%TO.C,R602*%
X108325000Y93500000D03*
X106675000Y93500000D03*
%TD*%
D12*
%TO.C,R612*%
X146500000Y80175000D03*
X146500000Y81825000D03*
%TD*%
D23*
%TO.C,U900*%
X21788189Y61807856D03*
X21788189Y63077856D03*
X21788189Y64347856D03*
X21788189Y65617856D03*
X26738189Y65617856D03*
X26738189Y64347856D03*
X26738189Y63077856D03*
X26738189Y61807856D03*
%TD*%
D12*
%TO.C,R605*%
X100500000Y83175000D03*
X100500000Y84825000D03*
%TD*%
D13*
%TO.C,R522*%
X70575000Y34750000D03*
X68925000Y34750000D03*
%TD*%
D17*
%TO.C,S2*%
X13500000Y69783333D03*
X21500000Y69783333D03*
X13500000Y74283333D03*
X21500000Y74283333D03*
%TD*%
D13*
%TO.C,R510*%
X95325000Y54500000D03*
X93675000Y54500000D03*
%TD*%
D24*
%TO.C,L1011*%
X114000000Y47528488D03*
X114000000Y53128488D03*
%TD*%
D25*
%TO.C,U1*%
X79775000Y80500000D03*
X80425000Y80500000D03*
X81075000Y80500000D03*
X81725000Y80500000D03*
X82375000Y80500000D03*
X83025000Y80500000D03*
X83675000Y80500000D03*
X84325000Y80500000D03*
X84975000Y80500000D03*
X85625000Y80500000D03*
X86275000Y80500000D03*
X86925000Y80500000D03*
X87575000Y80500000D03*
X88225000Y80500000D03*
X88225000Y73500000D03*
X87575000Y73500000D03*
X86925000Y73500000D03*
X86275000Y73500000D03*
X85625000Y73500000D03*
X84975000Y73500000D03*
X84325000Y73500000D03*
X83675000Y73500000D03*
X83025000Y73500000D03*
X82375000Y73500000D03*
X81725000Y73500000D03*
X81075000Y73500000D03*
X80425000Y73500000D03*
X79775000Y73500000D03*
%TD*%
D14*
%TO.C,R101*%
X205350000Y57000000D03*
X207000000Y57000000D03*
%TD*%
D19*
%TO.C,C1014*%
X114000000Y56550000D03*
X114000000Y58450000D03*
%TD*%
D16*
%TO.C,R12*%
X93750000Y79650000D03*
X93750000Y78000000D03*
%TD*%
D11*
%TO.C,U512*%
X79500000Y52500000D03*
X79500000Y51850000D03*
X79500000Y51200000D03*
X79500000Y50550000D03*
X79500000Y49900000D03*
X79500000Y49250000D03*
X79500000Y48600000D03*
X79500000Y47950000D03*
X79500000Y47300000D03*
X79500000Y46650000D03*
X73775000Y46650000D03*
X73775000Y47300000D03*
X73775000Y47950000D03*
X73775000Y48600000D03*
X73775000Y49250000D03*
X73775000Y49900000D03*
X73775000Y50550000D03*
X73775000Y51200000D03*
X73775000Y51850000D03*
X73775000Y52500000D03*
%TD*%
D21*
%TO.C,U1001*%
X133050000Y41637500D03*
X134000000Y41637500D03*
X134950000Y41637500D03*
X134950000Y39362500D03*
X134000000Y39362500D03*
X133050000Y39362500D03*
%TD*%
D26*
%TO.C,C903*%
X29750000Y92025000D03*
X29750000Y90475000D03*
%TD*%
D27*
%TO.C,U902*%
X32350000Y86670000D03*
X32350000Y87940000D03*
X32350000Y89210000D03*
X32350000Y90480000D03*
X32350000Y91750000D03*
X32350000Y93020000D03*
X32350000Y94290000D03*
X32350000Y95560000D03*
X32350000Y96830000D03*
X41650000Y96830000D03*
X41650000Y95560000D03*
X41650000Y94290000D03*
X41650000Y93020000D03*
X41650000Y91750000D03*
X41650000Y90480000D03*
X41650000Y89210000D03*
X41650000Y87940000D03*
X41650000Y86670000D03*
%TD*%
D15*
%TO.C,C900*%
X26750000Y67225000D03*
X26750000Y68775000D03*
%TD*%
D16*
%TO.C,R11*%
X92250000Y79650000D03*
X92250000Y78000000D03*
%TD*%
%TO.C,R14*%
X92250000Y76075000D03*
X92250000Y74425000D03*
%TD*%
D14*
%TO.C,R515*%
X56425000Y54500000D03*
X58075000Y54500000D03*
%TD*%
D11*
%TO.C,U102*%
X191995850Y55150000D03*
X191995850Y54500000D03*
X191995850Y53850000D03*
X191995850Y53200000D03*
X191995850Y52550000D03*
X191995850Y51900000D03*
X191995850Y51250000D03*
X191995850Y50600000D03*
X191995850Y49950000D03*
X191995850Y49300000D03*
X186270850Y49300000D03*
X186270850Y49950000D03*
X186270850Y50600000D03*
X186270850Y51250000D03*
X186270850Y51900000D03*
X186270850Y52550000D03*
X186270850Y53200000D03*
X186270850Y53850000D03*
X186270850Y54500000D03*
X186270850Y55150000D03*
%TD*%
D28*
%TO.C,U601*%
X132890000Y96100000D03*
X132890000Y94830000D03*
X132890000Y93560000D03*
X132890000Y92290000D03*
X132890000Y91020000D03*
X132890000Y89750000D03*
X132890000Y88480000D03*
X132890000Y87210000D03*
X132890000Y85940000D03*
X132890000Y84670000D03*
X132890000Y83400000D03*
X132890000Y82130000D03*
X132890000Y80860000D03*
X132890000Y79590000D03*
D29*
X131125000Y78340000D03*
X129855000Y78340000D03*
X128585000Y78340000D03*
X127315000Y78340000D03*
X126045000Y78340000D03*
X124775000Y78340000D03*
X123505000Y78340000D03*
X122235000Y78340000D03*
X120965000Y78340000D03*
X119695000Y78340000D03*
X118425000Y78340000D03*
X117155000Y78340000D03*
D28*
X115390000Y79590000D03*
X115390000Y80860000D03*
X115390000Y82130000D03*
X115390000Y83400000D03*
X115390000Y84670000D03*
X115390000Y85940000D03*
X115390000Y87210000D03*
X115390000Y88480000D03*
X115390000Y89750000D03*
X115390000Y91020000D03*
X115390000Y92290000D03*
X115390000Y93560000D03*
X115390000Y94830000D03*
X115390000Y96100000D03*
D30*
X127000000Y89250000D03*
X127000000Y90750000D03*
X127000000Y92250000D03*
X125500000Y89250000D03*
X125500000Y90750000D03*
X125500000Y92250000D03*
X124000000Y89250000D03*
X124000000Y90750000D03*
X124000000Y92250000D03*
%TD*%
D12*
%TO.C,R606*%
X104500000Y83175000D03*
X104500000Y84825000D03*
%TD*%
D16*
%TO.C,R13*%
X95250000Y79650000D03*
X95250000Y78000000D03*
%TD*%
D12*
%TO.C,R609*%
X136000000Y68175000D03*
X136000000Y69825000D03*
%TD*%
D11*
%TO.C,U520*%
X87725000Y32500000D03*
X87725000Y31850000D03*
X87725000Y31200000D03*
X87725000Y30550000D03*
X87725000Y29900000D03*
X87725000Y29250000D03*
X87725000Y28600000D03*
X87725000Y27950000D03*
X87725000Y27300000D03*
X87725000Y26650000D03*
X82000000Y26650000D03*
X82000000Y27300000D03*
X82000000Y27950000D03*
X82000000Y28600000D03*
X82000000Y29250000D03*
X82000000Y29900000D03*
X82000000Y30550000D03*
X82000000Y31200000D03*
X82000000Y31850000D03*
X82000000Y32500000D03*
%TD*%
D12*
%TO.C,R1012*%
X104000000Y46675000D03*
X104000000Y48325000D03*
%TD*%
D31*
%TO.C,X900*%
X27926777Y93621142D03*
X26371142Y95176777D03*
X27573223Y96378858D03*
X29128858Y94823223D03*
%TD*%
D16*
%TO.C,R15*%
X93750000Y76075000D03*
X93750000Y74425000D03*
%TD*%
D11*
%TO.C,U100*%
X225995850Y55150000D03*
X225995850Y54500000D03*
X225995850Y53850000D03*
X225995850Y53200000D03*
X225995850Y52550000D03*
X225995850Y51900000D03*
X225995850Y51250000D03*
X225995850Y50600000D03*
X225995850Y49950000D03*
X225995850Y49300000D03*
X220270850Y49300000D03*
X220270850Y49950000D03*
X220270850Y50600000D03*
X220270850Y51250000D03*
X220270850Y51900000D03*
X220270850Y52550000D03*
X220270850Y53200000D03*
X220270850Y53850000D03*
X220270850Y54500000D03*
X220270850Y55150000D03*
%TD*%
%TO.C,U514*%
X63500000Y52500000D03*
X63500000Y51850000D03*
X63500000Y51200000D03*
X63500000Y50550000D03*
X63500000Y49900000D03*
X63500000Y49250000D03*
X63500000Y48600000D03*
X63500000Y47950000D03*
X63500000Y47300000D03*
X63500000Y46650000D03*
X57775000Y46650000D03*
X57775000Y47300000D03*
X57775000Y47950000D03*
X57775000Y48600000D03*
X57775000Y49250000D03*
X57775000Y49900000D03*
X57775000Y50550000D03*
X57775000Y51200000D03*
X57775000Y51850000D03*
X57775000Y52500000D03*
%TD*%
D32*
%TO.C,C604*%
X93275000Y83000000D03*
X91725000Y83000000D03*
%TD*%
D14*
%TO.C,R513*%
X72675000Y54500000D03*
X74325000Y54500000D03*
%TD*%
D19*
%TO.C,C1015*%
X111000000Y56550000D03*
X111000000Y58450000D03*
%TD*%
D21*
%TO.C,U604*%
X103550000Y81137500D03*
X105450000Y81137500D03*
X104500000Y78862500D03*
%TD*%
D12*
%TO.C,R003*%
X35000000Y79675000D03*
X35000000Y81325000D03*
%TD*%
D18*
%TO.C,C1001*%
X137050000Y42000000D03*
X138950000Y42000000D03*
%TD*%
D14*
%TO.C,R100*%
X222350000Y57000000D03*
X224000000Y57000000D03*
%TD*%
D19*
%TO.C,C1006*%
X137000000Y57100000D03*
X137000000Y59000000D03*
%TD*%
D16*
%TO.C,R9*%
X25250000Y35575000D03*
X25250000Y33925000D03*
%TD*%
D11*
%TO.C,U110*%
X157462520Y79650000D03*
X157462520Y79000000D03*
X157462520Y78350000D03*
X157462520Y77700000D03*
X157462520Y77050000D03*
X157462520Y76400000D03*
X157462520Y75750000D03*
X157462520Y75100000D03*
X157462520Y74450000D03*
X157462520Y73800000D03*
X151737520Y73800000D03*
X151737520Y74450000D03*
X151737520Y75100000D03*
X151737520Y75750000D03*
X151737520Y76400000D03*
X151737520Y77050000D03*
X151737520Y77700000D03*
X151737520Y78350000D03*
X151737520Y79000000D03*
X151737520Y79650000D03*
%TD*%
D22*
%TO.C,D1103*%
X29150000Y49800000D03*
X25850000Y49800000D03*
%TD*%
D11*
%TO.C,U510*%
X96000000Y52500000D03*
X96000000Y51850000D03*
X96000000Y51200000D03*
X96000000Y50550000D03*
X96000000Y49900000D03*
X96000000Y49250000D03*
X96000000Y48600000D03*
X96000000Y47950000D03*
X96000000Y47300000D03*
X96000000Y46650000D03*
X90275000Y46650000D03*
X90275000Y47300000D03*
X90275000Y47950000D03*
X90275000Y48600000D03*
X90275000Y49250000D03*
X90275000Y49900000D03*
X90275000Y50550000D03*
X90275000Y51200000D03*
X90275000Y51850000D03*
X90275000Y52500000D03*
%TD*%
D19*
%TO.C,C1004*%
X134000000Y57050000D03*
X134000000Y58950000D03*
%TD*%
D22*
%TO.C,D1101*%
X29150000Y57000000D03*
X25850000Y57000000D03*
%TD*%
D19*
%TO.C,C602*%
X136500000Y94600000D03*
X136500000Y96500000D03*
%TD*%
D13*
%TO.C,C605*%
X90825000Y85050000D03*
X89175000Y85050000D03*
%TD*%
%TO.C,R512*%
X78825000Y54500000D03*
X77175000Y54500000D03*
%TD*%
D10*
%TO.C,C1003*%
X129500000Y43950000D03*
X129500000Y42050000D03*
%TD*%
D14*
%TO.C,R511*%
X89175000Y54500000D03*
X90825000Y54500000D03*
%TD*%
D26*
%TO.C,C902*%
X44000000Y86775000D03*
X44000000Y85225000D03*
%TD*%
D13*
%TO.C,R520*%
X87075000Y34500000D03*
X85425000Y34500000D03*
%TD*%
D24*
%TO.C,L1001*%
X134000000Y47700000D03*
X134000000Y53300000D03*
%TD*%
D33*
%TO.C,C603*%
X135000000Y95155000D03*
X135000000Y95845000D03*
%TD*%
D16*
%TO.C,R111*%
X162750000Y73825000D03*
X162750000Y72175000D03*
%TD*%
D17*
%TO.C,S602*%
X13500000Y29416667D03*
X21500000Y29416667D03*
X13500000Y33916667D03*
X21500000Y33916667D03*
%TD*%
D34*
%TO.C,Q601*%
X135050000Y74437500D03*
X136950000Y74437500D03*
X136000000Y72562500D03*
%TD*%
%TO.C,Q602*%
X139550000Y74437500D03*
X141450000Y74437500D03*
X140500000Y72562500D03*
%TD*%
D35*
%TO.C,U603*%
X94190000Y86690000D03*
X95810000Y86690000D03*
X94190000Y88310000D03*
X95810000Y88310000D03*
D36*
X96500000Y85050000D03*
X96000000Y85050000D03*
X95500000Y85050000D03*
X95000000Y85050000D03*
X94500000Y85050000D03*
X94000000Y85050000D03*
X93500000Y85050000D03*
D37*
X92550000Y86000000D03*
X92550000Y86500000D03*
X92550000Y87000000D03*
X92550000Y87500000D03*
X92550000Y88000000D03*
X92550000Y88500000D03*
X92550000Y89000000D03*
D36*
X93500000Y89950000D03*
X94000000Y89950000D03*
X94500000Y89950000D03*
X95000000Y89950000D03*
X95500000Y89950000D03*
X96000000Y89950000D03*
X96500000Y89950000D03*
D37*
X97450000Y89000000D03*
X97450000Y88500000D03*
X97450000Y88000000D03*
X97450000Y87500000D03*
X97450000Y87000000D03*
X97450000Y86500000D03*
X97450000Y86000000D03*
%TD*%
D13*
%TO.C,R604*%
X10825000Y90116667D03*
X9175000Y90116667D03*
%TD*%
D14*
%TO.C,R102*%
X188175000Y57000000D03*
X189825000Y57000000D03*
%TD*%
D11*
%TO.C,U515*%
X55000000Y52500000D03*
X55000000Y51850000D03*
X55000000Y51200000D03*
X55000000Y50550000D03*
X55000000Y49900000D03*
X55000000Y49250000D03*
X55000000Y48600000D03*
X55000000Y47950000D03*
X55000000Y47300000D03*
X55000000Y46650000D03*
X49275000Y46650000D03*
X49275000Y47300000D03*
X49275000Y47950000D03*
X49275000Y48600000D03*
X49275000Y49250000D03*
X49275000Y49900000D03*
X49275000Y50550000D03*
X49275000Y51200000D03*
X49275000Y51850000D03*
X49275000Y52500000D03*
%TD*%
D17*
%TO.C,S601*%
X13500000Y13583333D03*
X21500000Y13583333D03*
X13500000Y18083333D03*
X21500000Y18083333D03*
%TD*%
D16*
%TO.C,R611*%
X145500000Y77000000D03*
X145500000Y75350000D03*
%TD*%
D18*
%TO.C,C1011*%
X117050000Y39000000D03*
X118950000Y39000000D03*
%TD*%
D15*
%TO.C,C901*%
X25250000Y67225000D03*
X25250000Y68775000D03*
%TD*%
D16*
%TO.C,R900*%
X29500000Y64575000D03*
X29500000Y62925000D03*
%TD*%
D12*
%TO.C,R000*%
X43000000Y79675000D03*
X43000000Y81325000D03*
%TD*%
%TO.C,R001*%
X41500000Y79675000D03*
X41500000Y81325000D03*
%TD*%
D11*
%TO.C,U101*%
X208995850Y55150000D03*
X208995850Y54500000D03*
X208995850Y53850000D03*
X208995850Y53200000D03*
X208995850Y52550000D03*
X208995850Y51900000D03*
X208995850Y51250000D03*
X208995850Y50600000D03*
X208995850Y49950000D03*
X208995850Y49300000D03*
X203270850Y49300000D03*
X203270850Y49950000D03*
X203270850Y50600000D03*
X203270850Y51250000D03*
X203270850Y51900000D03*
X203270850Y52550000D03*
X203270850Y53200000D03*
X203270850Y53850000D03*
X203270850Y54500000D03*
X203270850Y55150000D03*
%TD*%
D19*
%TO.C,C1005*%
X131000000Y57050000D03*
X131000000Y58950000D03*
%TD*%
D12*
%TO.C,R610*%
X140500000Y68175000D03*
X140500000Y69825000D03*
%TD*%
M02*
