%TF.GenerationSoftware,Altium Limited,Altium Designer,24.1.2 (44)*%
G04 Layer_Color=65535*
%FSLAX45Y45*%
%MOMM*%
%TF.SameCoordinates,D8B4AAC8-E2FB-42F1-BA15-8403934F33DF*%
%TF.FilePolarity,Positive*%
%TF.FileFunction,Legend,Top*%
%TF.Part,Single*%
G01*
G75*
%TA.AperFunction,NonConductor*%
%ADD11C,0.50000*%
%ADD75C,0.20000*%
%ADD76C,0.25000*%
%ADD77C,0.10000*%
%ADD78C,0.60000*%
%ADD79C,0.25400*%
%ADD80C,0.12700*%
D11*
X15446300Y10262200D02*
G03*
X15446300Y10262200I-25000J0D01*
G01*
D75*
X10562700Y10026300D02*
G03*
X10562700Y10026300I-10000J0D01*
G01*
X9524800Y11884100D02*
G03*
X9524800Y11884100I-10000J0D01*
G01*
X9678400Y9850550D02*
Y9970550D01*
X9803400Y9850550D02*
Y9970550D01*
X14900301Y11284200D02*
Y11347200D01*
X14792300Y11284200D02*
Y11347200D01*
X12500700Y11295200D02*
Y11470200D01*
X12671000Y11295733D02*
Y11470733D01*
X12727391Y11210100D02*
X12854639D01*
X12727391Y11345100D02*
X12854639D01*
X9363061Y11896000D02*
X9513061D01*
X9363061Y11726000D02*
X9513061D01*
X8865800Y11896000D02*
X9015800D01*
X8865800Y11726000D02*
X9015800D01*
X4414390Y10250990D02*
X4755010D01*
X4414390Y10551610D02*
X4755010D01*
X10420507Y9168493D02*
Y9449707D01*
X10204293Y9168493D02*
Y9449707D01*
X10077607Y9168493D02*
Y9449707D01*
X9861393Y9168493D02*
Y9449707D01*
X5509000Y9622200D02*
X5609000Y9522200D01*
X5059000D02*
X5159000Y9622200D01*
X5451500D02*
X5509000D01*
X5159000D02*
X5216500D01*
X5609000Y9072200D02*
Y9522200D01*
X5059000Y9072200D02*
Y9522200D01*
Y9072200D02*
X5216500D01*
X5451500D02*
X5609000D01*
X4839108Y9721969D02*
Y9893182D01*
X4990692Y9721969D02*
Y9893182D01*
X5356600Y10715300D02*
X5456600Y10615300D01*
X4906600D02*
X5006600Y10715300D01*
X5299100D02*
X5356600D01*
X5006600D02*
X5064100D01*
X5456600Y10165300D02*
Y10615300D01*
X4906600Y10165300D02*
Y10615300D01*
Y10165300D02*
X5064100D01*
X5299100D02*
X5456600D01*
X4600693Y9779408D02*
X4771907D01*
X4600693Y9930992D02*
X4771907D01*
X4359393Y9779408D02*
X4530607D01*
X4359393Y9930992D02*
X4530607D01*
X4118093Y9779408D02*
X4289307D01*
X4118093Y9930992D02*
X4289307D01*
X4111600Y9529950D02*
Y9592950D01*
X4219600Y9529950D02*
Y9592950D01*
X3778369Y9817508D02*
X3949582D01*
X3778369Y9969092D02*
X3949582D01*
X3759100Y9598100D02*
X4064100D01*
X3759100Y9528100D02*
Y9598100D01*
Y9528100D02*
X4064100D01*
Y9598100D01*
X3753000Y10426600D02*
X4058000D01*
X3753000Y10356600D02*
Y10426600D01*
Y10356600D02*
X4058000D01*
Y10426600D01*
X6812150Y11293500D02*
X6875150D01*
X6812150Y11185500D02*
X6875150D01*
X13985275Y8869291D02*
Y9036538D01*
X14132524Y8869291D02*
Y9036538D01*
X14328175Y8869291D02*
Y9036538D01*
X14475424Y8869291D02*
Y9036538D01*
X14671075Y8869291D02*
Y9036538D01*
X14818324Y8869291D02*
Y9036538D01*
X15013976Y8869291D02*
Y9036538D01*
X15161224Y8869291D02*
Y9036538D01*
X15170708Y9401708D02*
Y9521292D01*
X15004494Y9401708D02*
Y9521292D01*
X14827808Y9401708D02*
Y9521292D01*
X14661594Y9401708D02*
Y9521292D01*
X14484908Y9401708D02*
Y9521292D01*
X14318694Y9401708D02*
Y9521292D01*
X14142007Y9401708D02*
Y9521292D01*
X13975793Y9401708D02*
Y9521292D01*
X10659667Y10575500D02*
X10834667D01*
X10660200Y10405200D02*
X10835200D01*
X10737700Y10253000D02*
Y10363000D01*
X10877700Y10253000D02*
Y10363000D01*
X6892300Y7834000D02*
X6914500D01*
X7030100D02*
X7052300D01*
X6892300Y7834000D02*
Y7875260D01*
X7052300Y7834000D02*
Y7875260D01*
X11209500Y7832750D02*
X11231700D01*
X11347300D02*
X11369500D01*
X11209500Y7832750D02*
Y7874010D01*
X11369500Y7832750D02*
Y7874010D01*
X6266399Y3784799D02*
X11576400D01*
X6266399Y2544800D02*
Y3784799D01*
Y2544800D02*
X11576400D01*
Y3784799D01*
X15174300Y11367500D02*
X15534300D01*
X15174300Y10857500D02*
X15534300D01*
X15174300D02*
Y11367500D01*
X15534300Y10857500D02*
Y11367500D01*
X16522501Y5775900D02*
Y11085900D01*
Y5775900D02*
X17762500D01*
Y11085900D01*
X16522501D02*
X17762500D01*
X4098900Y10371450D02*
Y10434450D01*
X4206900Y10371450D02*
Y10434450D01*
X4422893Y10744608D02*
X4594107D01*
X4422893Y10896192D02*
X4594107D01*
X4114918Y10744608D02*
X4286131D01*
X4114918Y10896192D02*
X4286131D01*
X6383300Y11625600D02*
X7053300D01*
X6383300Y11945600D02*
X7053300D01*
X6383300Y11625600D02*
Y11945600D01*
X7053300Y11625600D02*
Y11945600D01*
X3775193Y10668408D02*
X3946407D01*
X3775193Y10819992D02*
X3946407D01*
X4022100Y7834000D02*
X4044300D01*
X4159900D02*
X4182100D01*
X4022100Y7834000D02*
Y7875260D01*
X4182100Y7834000D02*
Y7875260D01*
X14080499Y7834000D02*
X14102699D01*
X14218300D02*
X14240500D01*
X14080499Y7834000D02*
Y7875260D01*
X14240500Y7834000D02*
Y7875260D01*
X5457200Y7834000D02*
X5479400D01*
X5595000D02*
X5617200D01*
X5457200Y7834000D02*
Y7875260D01*
X5617200Y7834000D02*
Y7875260D01*
X8327400Y7834000D02*
X8349600D01*
X8465200D02*
X8487400D01*
X8327400Y7834000D02*
Y7875260D01*
X8487400Y7834000D02*
Y7875260D01*
X9775200Y7834000D02*
X9797400D01*
X9913000D02*
X9935200D01*
X9775200Y7834000D02*
Y7875260D01*
X9935200Y7834000D02*
Y7875260D01*
X12632700Y7834000D02*
X12654900D01*
X12770500D02*
X12792700D01*
X12632700Y7834000D02*
Y7875260D01*
X12792700Y7834000D02*
Y7875260D01*
X3276600Y7482500D02*
X4546600D01*
X3276600Y4582500D02*
Y7482500D01*
X4424100Y4582500D02*
X4546600D01*
X3674100D02*
X4149100D01*
X3276600D02*
X3399100D01*
X4546600D02*
Y7482500D01*
X4711700D02*
X5981700D01*
X4711700Y4582500D02*
Y7482500D01*
X5859200Y4582500D02*
X5981700D01*
X5109200D02*
X5584200D01*
X4711700D02*
X4834200D01*
X5981700D02*
Y7482500D01*
X6146800D02*
X7416800D01*
X6146800Y4582500D02*
Y7482500D01*
X7294300Y4582500D02*
X7416800D01*
X6544300D02*
X7019300D01*
X6146800D02*
X6269300D01*
X7416800D02*
Y7482500D01*
X7581900D02*
X8851900D01*
X7581900Y4582500D02*
Y7482500D01*
X8729400Y4582500D02*
X8851900D01*
X7979400D02*
X8454400D01*
X7581900D02*
X7704400D01*
X8851900D02*
Y7482500D01*
X9029700D02*
X10299700D01*
X9029700Y4582500D02*
Y7482500D01*
X10177200Y4582500D02*
X10299700D01*
X9427200D02*
X9902200D01*
X9029700D02*
X9152200D01*
X10299700D02*
Y7482500D01*
X10464800D02*
X11734800D01*
X10464800Y4582500D02*
Y7482500D01*
X11612300Y4582500D02*
X11734800D01*
X10862300D02*
X11337300D01*
X10464800D02*
X10587300D01*
X11734800D02*
Y7482500D01*
X11899900D02*
X13169901D01*
X11899900Y4582500D02*
Y7482500D01*
X13047400Y4582500D02*
X13169901D01*
X12297400D02*
X12772400D01*
X11899900D02*
X12022400D01*
X13169901D02*
Y7482500D01*
X13335001D02*
X14605000D01*
X13335001Y4582500D02*
Y7482500D01*
X14482500Y4582500D02*
X14605000D01*
X13732500D02*
X14207500D01*
X13335001D02*
X13457500D01*
X14605000D02*
Y7482500D01*
X3856390Y7530000D02*
X4017610D01*
X3856390Y7710000D02*
X4017610D01*
X5291490Y7530000D02*
X5452710D01*
X5291490Y7710000D02*
X5452710D01*
X6726590Y7542700D02*
X6887810D01*
X6726590Y7722700D02*
X6887810D01*
X8161690Y7542700D02*
X8322910D01*
X8161690Y7722700D02*
X8322910D01*
X9609490Y7542700D02*
X9770710D01*
X9609490Y7722700D02*
X9770710D01*
X11044590Y7542700D02*
X11205810D01*
X11044590Y7722700D02*
X11205810D01*
X12466990Y7542700D02*
X12628210D01*
X12466990Y7722700D02*
X12628210D01*
X13914790Y7542700D02*
X14076010D01*
X13914790Y7722700D02*
X14076010D01*
X15488800Y10194700D02*
Y10504700D01*
X15278799D02*
X15488800D01*
X15278799Y10194700D02*
Y10504700D01*
Y10194700D02*
X15488800D01*
X11193200Y11409400D02*
X11438200D01*
X11615700Y11426900D02*
Y11991900D01*
X11193200Y12009400D02*
X11438200D01*
X11015700Y11426900D02*
Y11991900D01*
X10291500Y11396700D02*
X10536500D01*
X10714000Y11414200D02*
Y11979200D01*
X10291500Y11996700D02*
X10536500D01*
X10114000Y11414200D02*
Y11979200D01*
X10351367Y10550100D02*
X10526367D01*
X10351900Y10379800D02*
X10526900D01*
X10527120Y10331880D02*
X10637120D01*
X10527120Y10206880D02*
X10637120D01*
X9285800Y10064400D02*
Y10179400D01*
X9929700Y9798200D02*
X10034700D01*
X9929700Y9658200D02*
X10034700D01*
X10157694Y9880963D02*
X10283968D01*
X10157694Y10007237D02*
X10283968D01*
X10105000Y10051900D02*
X10215000D01*
X10105000Y10191900D02*
X10215000D01*
X9830800Y9852900D02*
Y9962900D01*
X9955800Y9852900D02*
Y9962900D01*
X9982200Y9854100D02*
Y9954100D01*
X10109200Y9854100D02*
Y9954100D01*
X10371333Y9842133D02*
Y9947134D01*
X10506900Y9841600D02*
Y9946600D01*
X10283000Y10096132D02*
Y10223380D01*
X10418000Y10096132D02*
Y10223380D01*
X9902000Y10096376D02*
Y10223624D01*
X10037000Y10096376D02*
Y10223624D01*
X11253000Y10223500D02*
X11353000D01*
X11253000Y10350500D02*
X11353000D01*
X10917433Y9155533D02*
Y9260533D01*
X11053000Y9155000D02*
Y9260000D01*
X10096500Y9640100D02*
Y9740100D01*
X10223500Y9640100D02*
Y9740100D01*
X10773000Y10600700D02*
X11033000D01*
X10773000Y10885700D02*
X11033000D01*
X10949333Y10214400D02*
X11124333D01*
X10948800Y10384700D02*
X11123800D01*
X7589700Y11655900D02*
Y12143900D01*
X8310700Y11655900D02*
Y12143900D01*
X4427400Y11554300D02*
Y12042300D01*
X5148400Y11554300D02*
Y12042300D01*
X5430700Y11541600D02*
Y12029600D01*
X6151700Y11541600D02*
Y12029600D01*
X13775500Y11328276D02*
Y11455524D01*
X13910500Y11328276D02*
Y11455524D01*
X13129800Y10788100D02*
X13449800D01*
X13129800Y11448100D02*
X13449800D01*
Y10788100D02*
Y11448100D01*
X13129800Y10788100D02*
Y11448100D01*
X11974900Y10535000D02*
X12074900D01*
X12359900D02*
X12459900D01*
Y11690000D01*
X11974900D02*
X12074900D01*
X12359900D02*
X12459900D01*
X11974900Y10535000D02*
Y11690000D01*
X12500400Y10741567D02*
Y10916567D01*
X12670700Y10742100D02*
Y10917100D01*
X13182500Y11756500D02*
Y12246500D01*
X13487500Y11756500D02*
Y12246500D01*
X13182500D02*
X13487500D01*
X13182500Y11756500D02*
X13487500D01*
X13731532Y12181233D02*
Y12356233D01*
X13902600Y12180700D02*
Y12355700D01*
X12855600Y11958950D02*
Y12021950D01*
X12747600Y11958950D02*
Y12021950D01*
D76*
X5346500Y8937200D02*
G03*
X5346500Y8937200I-12500J0D01*
G01*
X5194100Y10030300D02*
G03*
X5194100Y10030300I-12500J0D01*
G01*
X4019100Y9803100D02*
G03*
X4019100Y9803100I-12500J0D01*
G01*
X4013000Y10631600D02*
G03*
X4013000Y10631600I-12500J0D01*
G01*
X15649300Y10812500D02*
G03*
X15649300Y10812500I-12500J0D01*
G01*
X6395800Y11485600D02*
G03*
X6395800Y11485600I-12500J0D01*
G01*
X3524100Y7552500D02*
G03*
X3524100Y7552500I-12500J0D01*
G01*
X4959200D02*
G03*
X4959200Y7552500I-12500J0D01*
G01*
X6394300D02*
G03*
X6394300Y7552500I-12500J0D01*
G01*
X7829400D02*
G03*
X7829400Y7552500I-12500J0D01*
G01*
X9277200D02*
G03*
X9277200Y7552500I-12500J0D01*
G01*
X10712300D02*
G03*
X10712300Y7552500I-12500J0D01*
G01*
X12147400D02*
G03*
X12147400Y7552500I-12500J0D01*
G01*
X13582500D02*
G03*
X13582500Y7552500I-12500J0D01*
G01*
X3682000Y7620000D02*
G03*
X3682000Y7620000I-12500J0D01*
G01*
X5117100D02*
G03*
X5117100Y7620000I-12500J0D01*
G01*
X6552200Y7632700D02*
G03*
X6552200Y7632700I-12500J0D01*
G01*
X7987300D02*
G03*
X7987300Y7632700I-12500J0D01*
G01*
X9435100D02*
G03*
X9435100Y7632700I-12500J0D01*
G01*
X10870200D02*
G03*
X10870200Y7632700I-12500J0D01*
G01*
X12292600D02*
G03*
X12292600Y7632700I-12500J0D01*
G01*
X13740401D02*
G03*
X13740401Y7632700I-12500J0D01*
G01*
X15743800Y10249700D02*
G03*
X15743800Y10249700I-12500J0D01*
G01*
X11103200Y11169400D02*
G03*
X11103200Y11169400I-12500J0D01*
G01*
X10201500Y11156700D02*
G03*
X10201500Y11156700I-12500J0D01*
G01*
X10358331Y9944100D02*
G03*
X10358331Y9944100I-12500J0D01*
G01*
X10730500Y10678200D02*
G03*
X10730500Y10678200I-12500J0D01*
G01*
X7708700Y11406400D02*
G03*
X7708700Y11406400I-12500J0D01*
G01*
X4546400Y11304800D02*
G03*
X4546400Y11304800I-12500J0D01*
G01*
X5549700Y11292100D02*
G03*
X5549700Y11292100I-12500J0D01*
G01*
X13017300Y11483100D02*
G03*
X13017300Y11483100I-12500J0D01*
G01*
X13077499Y12277000D02*
G03*
X13077499Y12277000I-12500J0D01*
G01*
D77*
X7085100Y7938700D02*
G03*
X7085100Y7938700I-5000J0D01*
G01*
X11402300Y7937450D02*
G03*
X11402300Y7937450I-5000J0D01*
G01*
X4214900Y7938700D02*
G03*
X4214900Y7938700I-5000J0D01*
G01*
X14273300D02*
G03*
X14273300Y7938700I-5000J0D01*
G01*
X5650000D02*
G03*
X5650000Y7938700I-5000J0D01*
G01*
X8520200D02*
G03*
X8520200Y7938700I-5000J0D01*
G01*
X9968000D02*
G03*
X9968000Y7938700I-5000J0D01*
G01*
X12825500D02*
G03*
X12825500Y7938700I-5000J0D01*
G01*
D78*
X15464301Y10957500D02*
G03*
X15464301Y10957500I-30000J0D01*
G01*
X13259801Y11348100D02*
G03*
X13259801Y11348100I-30000J0D01*
G01*
X13312500Y12146500D02*
G03*
X13312500Y12146500I-30000J0D01*
G01*
D79*
X4341800Y3657600D02*
G03*
X4341800Y3657600I-100000J0D01*
G01*
X15403500Y12115800D02*
G03*
X15403500Y12115800I-100000J0D01*
G01*
X3224200Y9537700D02*
G03*
X3224200Y9537700I-100000J0D01*
G01*
X14782808Y11582383D02*
X14757417Y11607775D01*
X14706633D01*
X14681241Y11582383D01*
Y11480817D01*
X14706633Y11455425D01*
X14757417D01*
X14782808Y11480817D01*
X14833592Y11582383D02*
X14858984Y11607775D01*
X14909767D01*
X14935159Y11582383D01*
Y11556992D01*
X14909767Y11531600D01*
X14935159Y11506208D01*
Y11480817D01*
X14909767Y11455425D01*
X14858984D01*
X14833592Y11480817D01*
Y11506208D01*
X14858984Y11531600D01*
X14833592Y11556992D01*
Y11582383D01*
X14858984Y11531600D02*
X14909767D01*
X11137958Y10579075D02*
Y10452117D01*
X11163350Y10426725D01*
X11214133D01*
X11239525Y10452117D01*
Y10579075D01*
X11391876D02*
X11290308D01*
Y10502900D01*
X11341092Y10528292D01*
X11366484D01*
X11391876Y10502900D01*
Y10452117D01*
X11366484Y10426725D01*
X11315700D01*
X11290308Y10452117D01*
X11442659Y10426725D02*
X11493443D01*
X11468051D01*
Y10579075D01*
X11442659Y10553683D01*
X12611108Y11823683D02*
X12585717Y11849075D01*
X12534933D01*
X12509541Y11823683D01*
Y11722117D01*
X12534933Y11696725D01*
X12585717D01*
X12611108Y11722117D01*
X12763459Y11696725D02*
X12661892D01*
X12763459Y11798292D01*
Y11823683D01*
X12738067Y11849075D01*
X12687284D01*
X12661892Y11823683D01*
X12865076Y11379241D02*
X12712725D01*
Y11455417D01*
X12738117Y11480808D01*
X12788900D01*
X12814291Y11455417D01*
Y11379241D01*
Y11430025D02*
X12865076Y11480808D01*
Y11633159D02*
Y11531592D01*
X12763508Y11633159D01*
X12738117D01*
X12712725Y11607767D01*
Y11556984D01*
X12738117Y11531592D01*
X8420108Y12522175D02*
X8369325D01*
X8394717D01*
Y12395217D01*
X8369325Y12369825D01*
X8343933D01*
X8318541Y12395217D01*
X8470892Y12496783D02*
X8496284Y12522175D01*
X8547067D01*
X8572459Y12496783D01*
Y12471392D01*
X8547067Y12446000D01*
X8521675D01*
X8547067D01*
X8572459Y12420608D01*
Y12395217D01*
X8547067Y12369825D01*
X8496284D01*
X8470892Y12395217D01*
X9385366Y11518925D02*
Y11671275D01*
X9461541D01*
X9486933Y11645883D01*
Y11595100D01*
X9461541Y11569708D01*
X9385366D01*
X9436149D02*
X9486933Y11518925D01*
X9639284D02*
X9537717D01*
X9639284Y11620492D01*
Y11645883D01*
X9613892Y11671275D01*
X9563108D01*
X9537717Y11645883D01*
X9690067D02*
X9715459Y11671275D01*
X9766243D01*
X9791634Y11645883D01*
Y11620492D01*
X9766243Y11595100D01*
X9740851D01*
X9766243D01*
X9791634Y11569708D01*
Y11544317D01*
X9766243Y11518925D01*
X9715459D01*
X9690067Y11544317D01*
X8623366Y11531625D02*
Y11683975D01*
X8699541D01*
X8724933Y11658583D01*
Y11607800D01*
X8699541Y11582408D01*
X8623366D01*
X8674149D02*
X8724933Y11531625D01*
X8877284D02*
X8775717D01*
X8877284Y11633192D01*
Y11658583D01*
X8851892Y11683975D01*
X8801108D01*
X8775717Y11658583D01*
X9004243Y11531625D02*
Y11683975D01*
X8928067Y11607800D01*
X9029634D01*
X4251960Y10383520D02*
X4302743D01*
X4277352D01*
Y10535871D01*
X4251960Y10510479D01*
X10591734Y9067775D02*
Y8915424D01*
X10515559D01*
X10490167Y8940816D01*
Y8991599D01*
X10515559Y9016991D01*
X10591734D01*
X10540951D02*
X10490167Y9067775D01*
X10337816D02*
X10439383D01*
X10337816Y8966208D01*
Y8940816D01*
X10363208Y8915424D01*
X10413992D01*
X10439383Y8940816D01*
X10185466Y9067775D02*
X10287033D01*
X10185466Y8966208D01*
Y8940816D01*
X10210857Y8915424D01*
X10261641D01*
X10287033Y8940816D01*
X9878060Y9560560D02*
Y9712911D01*
X9954235D01*
X9979627Y9687519D01*
Y9636735D01*
X9954235Y9611343D01*
X9878060D01*
X9928843D02*
X9979627Y9560560D01*
X10131978D02*
X10030411D01*
X10131978Y9662127D01*
Y9687519D01*
X10106586Y9712911D01*
X10055803D01*
X10030411Y9687519D01*
X10182761Y9560560D02*
X10233545D01*
X10208153D01*
Y9712911D01*
X10182761Y9687519D01*
X15021561Y11607751D02*
Y11480792D01*
X15046951Y11455400D01*
X15097736D01*
X15123128Y11480792D01*
Y11607751D01*
X15275478D02*
X15224693Y11582359D01*
X15173911Y11531575D01*
Y11480792D01*
X15199303Y11455400D01*
X15250085D01*
X15275478Y11480792D01*
Y11506183D01*
X15250085Y11531575D01*
X15173911D01*
X11981180Y12115751D02*
Y12090359D01*
X12031963Y12039575D01*
X12082747Y12090359D01*
Y12115751D01*
X12031963Y12039575D02*
Y11963400D01*
X12133531D02*
X12184314D01*
X12158923D01*
Y12115751D01*
X12133531Y12090359D01*
X6380480Y12451031D02*
Y12324072D01*
X6405872Y12298680D01*
X6456655D01*
X6482047Y12324072D01*
Y12451031D01*
X6532831D02*
X6634398D01*
Y12425639D01*
X6532831Y12324072D01*
Y12298680D01*
X15097760Y10767011D02*
Y10640052D01*
X15123152Y10614660D01*
X15173935D01*
X15199327Y10640052D01*
Y10767011D01*
X15351678D02*
X15250111D01*
Y10690835D01*
X15300894Y10716227D01*
X15326286D01*
X15351678Y10690835D01*
Y10640052D01*
X15326286Y10614660D01*
X15275504D01*
X15250111Y10640052D01*
X3441741Y9613875D02*
Y9486917D01*
X3467133Y9461525D01*
X3517917D01*
X3543308Y9486917D01*
Y9613875D01*
X3670267Y9461525D02*
Y9613875D01*
X3594092Y9537700D01*
X3695659D01*
X3416341Y10477475D02*
Y10350517D01*
X3441733Y10325125D01*
X3492517D01*
X3517908Y10350517D01*
Y10477475D01*
X3568692Y10452083D02*
X3594084Y10477475D01*
X3644867D01*
X3670259Y10452083D01*
Y10426692D01*
X3644867Y10401300D01*
X3619475D01*
X3644867D01*
X3670259Y10375908D01*
Y10350517D01*
X3644867Y10325125D01*
X3594084D01*
X3568692Y10350517D01*
X12999719Y12529771D02*
Y12402812D01*
X13025111Y12377420D01*
X13075896D01*
X13101286Y12402812D01*
Y12529771D01*
X13253638Y12377420D02*
X13152071D01*
X13253638Y12478987D01*
Y12504379D01*
X13228246Y12529771D01*
X13177463D01*
X13152071Y12504379D01*
X12918440Y11737291D02*
Y11610332D01*
X12943832Y11584940D01*
X12994615D01*
X13020007Y11610332D01*
Y11737291D01*
X13070792Y11584940D02*
X13121574D01*
X13096182D01*
Y11737291D01*
X13070792Y11711899D01*
X11122627Y12407859D02*
X11097235Y12433251D01*
X11046452D01*
X11021060Y12407859D01*
Y12382467D01*
X11046452Y12357075D01*
X11097235D01*
X11122627Y12331683D01*
Y12306292D01*
X11097235Y12280900D01*
X11046452D01*
X11021060Y12306292D01*
X11274978Y12280900D02*
X11173411D01*
X11274978Y12382467D01*
Y12407859D01*
X11249586Y12433251D01*
X11198803D01*
X11173411Y12407859D01*
X10220927Y12395159D02*
X10195535Y12420551D01*
X10144752D01*
X10119360Y12395159D01*
Y12369767D01*
X10144752Y12344375D01*
X10195535D01*
X10220927Y12318983D01*
Y12293592D01*
X10195535Y12268200D01*
X10144752D01*
X10119360Y12293592D01*
X10271711Y12268200D02*
X10322494D01*
X10297103D01*
Y12420551D01*
X10271711Y12395159D01*
X15011424Y8799864D02*
X15163776D01*
Y8723688D01*
X15138383Y8698297D01*
X15087601D01*
X15062209Y8723688D01*
Y8799864D01*
Y8749080D02*
X15011424Y8698297D01*
Y8545946D02*
Y8647513D01*
X15112991Y8545946D01*
X15138383D01*
X15163776Y8571338D01*
Y8622121D01*
X15138383Y8647513D01*
Y8495162D02*
X15163776Y8469770D01*
Y8418987D01*
X15138383Y8393595D01*
X15036816D01*
X15011424Y8418987D01*
Y8469770D01*
X15036816Y8495162D01*
X15138383D01*
X14668526Y8813153D02*
X14820876D01*
Y8736977D01*
X14795483Y8711586D01*
X14744701D01*
X14719308Y8736977D01*
Y8813153D01*
Y8762369D02*
X14668526Y8711586D01*
Y8660802D02*
Y8610019D01*
Y8635410D01*
X14820876D01*
X14795483Y8660802D01*
X14693916Y8533843D02*
X14668526Y8508451D01*
Y8457668D01*
X14693916Y8432276D01*
X14795483D01*
X14820876Y8457668D01*
Y8508451D01*
X14795483Y8533843D01*
X14770091D01*
X14744701Y8508451D01*
Y8432276D01*
X14325626Y8813153D02*
X14477975D01*
Y8736977D01*
X14452583Y8711586D01*
X14401801D01*
X14376408Y8736977D01*
Y8813153D01*
Y8762369D02*
X14325626Y8711586D01*
Y8660802D02*
Y8610019D01*
Y8635410D01*
X14477975D01*
X14452583Y8660802D01*
Y8533843D02*
X14477975Y8508451D01*
Y8457668D01*
X14452583Y8432276D01*
X14427193D01*
X14401801Y8457668D01*
X14376408Y8432276D01*
X14351018D01*
X14325626Y8457668D01*
Y8508451D01*
X14351018Y8533843D01*
X14376408D01*
X14401801Y8508451D01*
X14427193Y8533843D01*
X14452583D01*
X14401801Y8508451D02*
Y8457668D01*
X13970026Y8813153D02*
X14122375D01*
Y8736977D01*
X14096983Y8711586D01*
X14046201D01*
X14020808Y8736977D01*
Y8813153D01*
Y8762369D02*
X13970026Y8711586D01*
Y8660802D02*
Y8610019D01*
Y8635410D01*
X14122375D01*
X14096983Y8660802D01*
X14122375Y8533843D02*
Y8432276D01*
X14096983D01*
X13995416Y8533843D01*
X13970026D01*
X15011424Y10159938D02*
X15163776D01*
Y10083763D01*
X15138383Y10058371D01*
X15087601D01*
X15062209Y10083763D01*
Y10159938D01*
Y10109155D02*
X15011424Y10058371D01*
Y10007588D02*
Y9956804D01*
Y9982196D01*
X15163776D01*
X15138383Y10007588D01*
X15163776Y9779061D02*
X15138383Y9829845D01*
X15087601Y9880629D01*
X15036816D01*
X15011424Y9855237D01*
Y9804453D01*
X15036816Y9779061D01*
X15062209D01*
X15087601Y9804453D01*
Y9880629D01*
X14668526Y10172638D02*
X14820876D01*
Y10096463D01*
X14795483Y10071071D01*
X14744701D01*
X14719308Y10096463D01*
Y10172638D01*
Y10121855D02*
X14668526Y10071071D01*
Y10020288D02*
Y9969504D01*
Y9994896D01*
X14820876D01*
X14795483Y10020288D01*
X14820876Y9791761D02*
Y9893329D01*
X14744701D01*
X14770091Y9842545D01*
Y9817153D01*
X14744701Y9791761D01*
X14693916D01*
X14668526Y9817153D01*
Y9867937D01*
X14693916Y9893329D01*
X14325626Y10172638D02*
X14477975D01*
Y10096463D01*
X14452583Y10071071D01*
X14401801D01*
X14376408Y10096463D01*
Y10172638D01*
Y10121855D02*
X14325626Y10071071D01*
Y10020288D02*
Y9969504D01*
Y9994896D01*
X14477975D01*
X14452583Y10020288D01*
X14325626Y9817153D02*
X14477975D01*
X14401801Y9893329D01*
Y9791761D01*
X13970026Y10172638D02*
X14122375D01*
Y10096463D01*
X14096983Y10071071D01*
X14046201D01*
X14020808Y10096463D01*
Y10172638D01*
Y10121855D02*
X13970026Y10071071D01*
Y10020288D02*
Y9969504D01*
Y9994896D01*
X14122375D01*
X14096983Y10020288D01*
Y9893329D02*
X14122375Y9867937D01*
Y9817153D01*
X14096983Y9791761D01*
X14071593D01*
X14046201Y9817153D01*
Y9842545D01*
Y9817153D01*
X14020808Y9791761D01*
X13995416D01*
X13970026Y9817153D01*
Y9867937D01*
X13995416Y9893329D01*
X3670362Y10007625D02*
Y10159975D01*
X3746537D01*
X3771929Y10134583D01*
Y10083800D01*
X3746537Y10058408D01*
X3670362D01*
X3721145D02*
X3771929Y10007625D01*
X3822712D02*
X3873496D01*
X3848104D01*
Y10159975D01*
X3822712Y10134583D01*
X4051239Y10007625D02*
X3949671D01*
X4051239Y10109192D01*
Y10134583D01*
X4025847Y10159975D01*
X3975063D01*
X3949671Y10134583D01*
X5092754Y9791725D02*
Y9944075D01*
X5168929D01*
X5194321Y9918683D01*
Y9867900D01*
X5168929Y9842508D01*
X5092754D01*
X5143537D02*
X5194321Y9791725D01*
X5245104D02*
X5295888D01*
X5270496D01*
Y9944075D01*
X5245104Y9918683D01*
X5372063Y9791725D02*
X5422847D01*
X5397455D01*
Y9944075D01*
X5372063Y9918683D01*
X4572062Y9982225D02*
Y10134575D01*
X4648237D01*
X4673629Y10109183D01*
Y10058400D01*
X4648237Y10033008D01*
X4572062D01*
X4622845D02*
X4673629Y9982225D01*
X4724412D02*
X4775196D01*
X4749804D01*
Y10134575D01*
X4724412Y10109183D01*
X4851371D02*
X4876763Y10134575D01*
X4927547D01*
X4952939Y10109183D01*
Y10007617D01*
X4927547Y9982225D01*
X4876763D01*
X4851371Y10007617D01*
Y10109183D01*
X4521175Y9956841D02*
X4368825D01*
Y10033017D01*
X4394217Y10058408D01*
X4445000D01*
X4470392Y10033017D01*
Y9956841D01*
Y10007625D02*
X4521175Y10058408D01*
X4495783Y10109192D02*
X4521175Y10134584D01*
Y10185367D01*
X4495783Y10210759D01*
X4394217D01*
X4368825Y10185367D01*
Y10134584D01*
X4394217Y10109192D01*
X4419608D01*
X4445000Y10134584D01*
Y10210759D01*
X4292575Y9956841D02*
X4140225D01*
Y10033017D01*
X4165617Y10058408D01*
X4216400D01*
X4241792Y10033017D01*
Y9956841D01*
Y10007625D02*
X4292575Y10058408D01*
X4165617Y10109192D02*
X4140225Y10134584D01*
Y10185367D01*
X4165617Y10210759D01*
X4191008D01*
X4216400Y10185367D01*
X4241792Y10210759D01*
X4267183D01*
X4292575Y10185367D01*
Y10134584D01*
X4267183Y10109192D01*
X4241792D01*
X4216400Y10134584D01*
X4191008Y10109192D01*
X4165617D01*
X4216400Y10134584D02*
Y10185367D01*
X3769360Y10906760D02*
Y11059111D01*
X3845535D01*
X3870927Y11033719D01*
Y10982935D01*
X3845535Y10957543D01*
X3769360D01*
X3820143D02*
X3870927Y10906760D01*
X3921711Y11059111D02*
X4023278D01*
Y11033719D01*
X3921711Y10932152D01*
Y10906760D01*
X4737141Y10974025D02*
Y11126375D01*
X4813317D01*
X4838708Y11100983D01*
Y11050200D01*
X4813317Y11024808D01*
X4737141D01*
X4787925D02*
X4838708Y10974025D01*
X4991059Y11126375D02*
X4940275Y11100983D01*
X4889492Y11050200D01*
Y10999416D01*
X4914884Y10974025D01*
X4965667D01*
X4991059Y10999416D01*
Y11024808D01*
X4965667Y11050200D01*
X4889492D01*
X4417060Y10982960D02*
Y11135311D01*
X4493235D01*
X4518627Y11109919D01*
Y11059135D01*
X4493235Y11033743D01*
X4417060D01*
X4467843D02*
X4518627Y10982960D01*
X4670978Y11135311D02*
X4569411D01*
Y11059135D01*
X4620194Y11084527D01*
X4645586D01*
X4670978Y11059135D01*
Y11008352D01*
X4645586Y10982960D01*
X4594803D01*
X4569411Y11008352D01*
X4109720Y10982960D02*
Y11135311D01*
X4185895D01*
X4211287Y11109919D01*
Y11059135D01*
X4185895Y11033743D01*
X4109720D01*
X4160503D02*
X4211287Y10982960D01*
X4338246D02*
Y11135311D01*
X4262071Y11059135D01*
X4363638D01*
X13746480Y12468860D02*
Y12621211D01*
X13822655D01*
X13848047Y12595819D01*
Y12545035D01*
X13822655Y12519643D01*
X13746480D01*
X13797263D02*
X13848047Y12468860D01*
X13898831Y12595819D02*
X13924223Y12621211D01*
X13975006D01*
X14000398Y12595819D01*
Y12570427D01*
X13975006Y12545035D01*
X13949614D01*
X13975006D01*
X14000398Y12519643D01*
Y12494252D01*
X13975006Y12468860D01*
X13924223D01*
X13898831Y12494252D01*
X13789661Y11551920D02*
Y11704271D01*
X13865836D01*
X13891228Y11678879D01*
Y11628095D01*
X13865836Y11602703D01*
X13789661D01*
X13840443D02*
X13891228Y11551920D01*
X13942010D02*
X13992793D01*
X13967403D01*
Y11704271D01*
X13942010Y11678879D01*
X5572727Y8077192D02*
Y8178759D01*
X5547335Y8204151D01*
X5496552D01*
X5471160Y8178759D01*
Y8077192D01*
X5496552Y8051800D01*
X5547335D01*
X5521943Y8102583D02*
X5572727Y8051800D01*
X5547335D02*
X5572727Y8077192D01*
X5623511Y8178759D02*
X5648903Y8204151D01*
X5699686D01*
X5725078Y8178759D01*
Y8153367D01*
X5699686Y8127975D01*
X5725078Y8102583D01*
Y8077192D01*
X5699686Y8051800D01*
X5648903D01*
X5623511Y8077192D01*
Y8102583D01*
X5648903Y8127975D01*
X5623511Y8153367D01*
Y8178759D01*
X5648903Y8127975D02*
X5699686D01*
X8442927Y8077192D02*
Y8178759D01*
X8417535Y8204151D01*
X8366752D01*
X8341360Y8178759D01*
Y8077192D01*
X8366752Y8051800D01*
X8417535D01*
X8392143Y8102583D02*
X8442927Y8051800D01*
X8417535D02*
X8442927Y8077192D01*
X8493711Y8204151D02*
X8595278D01*
Y8178759D01*
X8493711Y8077192D01*
Y8051800D01*
X9890727Y8077192D02*
Y8178759D01*
X9865335Y8204151D01*
X9814552D01*
X9789160Y8178759D01*
Y8077192D01*
X9814552Y8051800D01*
X9865335D01*
X9839943Y8102583D02*
X9890727Y8051800D01*
X9865335D02*
X9890727Y8077192D01*
X10043078Y8204151D02*
X9992294Y8178759D01*
X9941511Y8127975D01*
Y8077192D01*
X9966903Y8051800D01*
X10017686D01*
X10043078Y8077192D01*
Y8102583D01*
X10017686Y8127975D01*
X9941511D01*
X12748227Y8077192D02*
Y8178759D01*
X12722835Y8204151D01*
X12672052D01*
X12646660Y8178759D01*
Y8077192D01*
X12672052Y8051800D01*
X12722835D01*
X12697443Y8102583D02*
X12748227Y8051800D01*
X12722835D02*
X12748227Y8077192D01*
X12900578Y8204151D02*
X12799011D01*
Y8127975D01*
X12849794Y8153367D01*
X12875186D01*
X12900578Y8127975D01*
Y8077192D01*
X12875186Y8051800D01*
X12824403D01*
X12799011Y8077192D01*
X4137627D02*
Y8178759D01*
X4112235Y8204151D01*
X4061452D01*
X4036060Y8178759D01*
Y8077192D01*
X4061452Y8051800D01*
X4112235D01*
X4086843Y8102583D02*
X4137627Y8051800D01*
X4112235D02*
X4137627Y8077192D01*
X4264586Y8051800D02*
Y8204151D01*
X4188411Y8127975D01*
X4289978D01*
X7007827Y8077192D02*
Y8178759D01*
X6982435Y8204151D01*
X6931652D01*
X6906260Y8178759D01*
Y8077192D01*
X6931652Y8051800D01*
X6982435D01*
X6957043Y8102583D02*
X7007827Y8051800D01*
X6982435D02*
X7007827Y8077192D01*
X7058611Y8178759D02*
X7084003Y8204151D01*
X7134786D01*
X7160178Y8178759D01*
Y8153367D01*
X7134786Y8127975D01*
X7109394D01*
X7134786D01*
X7160178Y8102583D01*
Y8077192D01*
X7134786Y8051800D01*
X7084003D01*
X7058611Y8077192D01*
X11323287D02*
Y8178759D01*
X11297895Y8204151D01*
X11247112D01*
X11221720Y8178759D01*
Y8077192D01*
X11247112Y8051800D01*
X11297895D01*
X11272503Y8102583D02*
X11323287Y8051800D01*
X11297895D02*
X11323287Y8077192D01*
X11475638Y8051800D02*
X11374071D01*
X11475638Y8153367D01*
Y8178759D01*
X11450246Y8204151D01*
X11399463D01*
X11374071Y8178759D01*
X14196027Y8077192D02*
Y8178759D01*
X14170634Y8204151D01*
X14119852D01*
X14094460Y8178759D01*
Y8077192D01*
X14119852Y8051800D01*
X14170634D01*
X14145242Y8102583D02*
X14196027Y8051800D01*
X14170634D02*
X14196027Y8077192D01*
X14246811Y8051800D02*
X14297594D01*
X14272203D01*
Y8204151D01*
X14246811Y8178759D01*
X5443220Y12313920D02*
Y12466271D01*
X5519395D01*
X5544787Y12440879D01*
Y12390095D01*
X5519395Y12364703D01*
X5443220D01*
X5595571Y12440879D02*
X5620963Y12466271D01*
X5671746D01*
X5697138Y12440879D01*
Y12415487D01*
X5671746Y12390095D01*
X5646354D01*
X5671746D01*
X5697138Y12364703D01*
Y12339312D01*
X5671746Y12313920D01*
X5620963D01*
X5595571Y12339312D01*
X4441190Y12325350D02*
Y12477701D01*
X4517365D01*
X4542757Y12452309D01*
Y12401525D01*
X4517365Y12376133D01*
X4441190D01*
X4695108Y12325350D02*
X4593541D01*
X4695108Y12426917D01*
Y12452309D01*
X4669716Y12477701D01*
X4618933D01*
X4593541Y12452309D01*
X7602220Y12428220D02*
Y12580571D01*
X7678395D01*
X7703787Y12555179D01*
Y12504395D01*
X7678395Y12479003D01*
X7602220D01*
X7754571Y12428220D02*
X7805354D01*
X7779963D01*
Y12580571D01*
X7754571Y12555179D01*
X4155440Y3845560D02*
Y3997911D01*
X4206223Y3947127D01*
X4257007Y3997911D01*
Y3845560D01*
X4307791Y3972519D02*
X4409358Y3870952D01*
X4307791D02*
X4409358Y3972519D01*
X4307791Y3921735D02*
X4409358D01*
X4358574Y3870952D02*
Y3972519D01*
X3037840Y9725660D02*
Y9878011D01*
X3088623Y9827227D01*
X3139407Y9878011D01*
Y9725660D01*
X3190191Y9852619D02*
X3291758Y9751052D01*
X3190191D02*
X3291758Y9852619D01*
X3190191Y9801835D02*
X3291758D01*
X3240974Y9751052D02*
Y9852619D01*
X15217140Y12303760D02*
Y12456111D01*
X15267923Y12405327D01*
X15318707Y12456111D01*
Y12303760D01*
X15369492Y12430719D02*
X15471059Y12329152D01*
X15369492D02*
X15471059Y12430719D01*
X15369492Y12379935D02*
X15471059D01*
X15420274Y12329152D02*
Y12430719D01*
X4377233Y9296375D02*
Y9144025D01*
X4478800D01*
X4529584D02*
X4580367D01*
X4554976D01*
Y9296375D01*
X4529584Y9270983D01*
X3281680Y7805371D02*
Y7653020D01*
Y7703803D01*
X3383247Y7805371D01*
X3307072Y7729195D01*
X3383247Y7653020D01*
X3434031Y7779979D02*
X3459423Y7805371D01*
X3510206D01*
X3535598Y7779979D01*
Y7754587D01*
X3510206Y7729195D01*
X3535598Y7703803D01*
Y7678412D01*
X3510206Y7653020D01*
X3459423D01*
X3434031Y7678412D01*
Y7703803D01*
X3459423Y7729195D01*
X3434031Y7754587D01*
Y7779979D01*
X3459423Y7729195D02*
X3510206D01*
X4716780Y7805371D02*
Y7653020D01*
Y7703803D01*
X4818347Y7805371D01*
X4742172Y7729195D01*
X4818347Y7653020D01*
X4869131Y7805371D02*
X4970698D01*
Y7779979D01*
X4869131Y7678412D01*
Y7653020D01*
X6151880Y7805371D02*
Y7653020D01*
Y7703803D01*
X6253447Y7805371D01*
X6177272Y7729195D01*
X6253447Y7653020D01*
X6405798Y7805371D02*
X6355014Y7779979D01*
X6304231Y7729195D01*
Y7678412D01*
X6329623Y7653020D01*
X6380406D01*
X6405798Y7678412D01*
Y7703803D01*
X6380406Y7729195D01*
X6304231D01*
X7586980Y7805371D02*
Y7653020D01*
Y7703803D01*
X7688547Y7805371D01*
X7612372Y7729195D01*
X7688547Y7653020D01*
X7840898Y7805371D02*
X7739331D01*
Y7729195D01*
X7790114Y7754587D01*
X7815506D01*
X7840898Y7729195D01*
Y7678412D01*
X7815506Y7653020D01*
X7764723D01*
X7739331Y7678412D01*
X9034780Y7805371D02*
Y7653020D01*
Y7703803D01*
X9136347Y7805371D01*
X9060172Y7729195D01*
X9136347Y7653020D01*
X9263306D02*
Y7805371D01*
X9187131Y7729195D01*
X9288698D01*
X10469880Y7805371D02*
Y7653020D01*
Y7703803D01*
X10571447Y7805371D01*
X10495272Y7729195D01*
X10571447Y7653020D01*
X10622231Y7779979D02*
X10647623Y7805371D01*
X10698406D01*
X10723798Y7779979D01*
Y7754587D01*
X10698406Y7729195D01*
X10673014D01*
X10698406D01*
X10723798Y7703803D01*
Y7678412D01*
X10698406Y7653020D01*
X10647623D01*
X10622231Y7678412D01*
X11904980Y7805371D02*
Y7653020D01*
Y7703803D01*
X12006547Y7805371D01*
X11930372Y7729195D01*
X12006547Y7653020D01*
X12158898D02*
X12057331D01*
X12158898Y7754587D01*
Y7779979D01*
X12133506Y7805371D01*
X12082723D01*
X12057331Y7779979D01*
X13340080Y7805371D02*
Y7653020D01*
Y7703803D01*
X13441647Y7805371D01*
X13365472Y7729195D01*
X13441647Y7653020D01*
X13492432D02*
X13543214D01*
X13517822D01*
Y7805371D01*
X13492432Y7779979D01*
X16626807Y11335971D02*
X16576022D01*
X16601414D01*
Y11209012D01*
X16576022Y11183620D01*
X16550632D01*
X16525240Y11209012D01*
X16779158Y11183620D02*
X16677591D01*
X16779158Y11285187D01*
Y11310579D01*
X16753766Y11335971D01*
X16702983D01*
X16677591Y11310579D01*
X6370287Y4036011D02*
X6319503D01*
X6344895D01*
Y3909052D01*
X6319503Y3883660D01*
X6294112D01*
X6268720Y3909052D01*
X6421071Y3883660D02*
X6471854D01*
X6446463D01*
Y4036011D01*
X6421071Y4010619D01*
X3670300Y7957771D02*
Y7805420D01*
X3746475D01*
X3771867Y7830812D01*
Y7932379D01*
X3746475Y7957771D01*
X3670300D01*
X3822651Y7932379D02*
X3848043Y7957771D01*
X3898826D01*
X3924218Y7932379D01*
Y7906987D01*
X3898826Y7881595D01*
X3924218Y7856203D01*
Y7830812D01*
X3898826Y7805420D01*
X3848043D01*
X3822651Y7830812D01*
Y7856203D01*
X3848043Y7881595D01*
X3822651Y7906987D01*
Y7932379D01*
X3848043Y7881595D02*
X3898826D01*
X5105400Y7957771D02*
Y7805420D01*
X5181575D01*
X5206967Y7830812D01*
Y7932379D01*
X5181575Y7957771D01*
X5105400D01*
X5257751D02*
X5359318D01*
Y7932379D01*
X5257751Y7830812D01*
Y7805420D01*
X6540500Y7970471D02*
Y7818120D01*
X6616675D01*
X6642067Y7843512D01*
Y7945079D01*
X6616675Y7970471D01*
X6540500D01*
X6794418D02*
X6743634Y7945079D01*
X6692851Y7894295D01*
Y7843512D01*
X6718243Y7818120D01*
X6769026D01*
X6794418Y7843512D01*
Y7868903D01*
X6769026Y7894295D01*
X6692851D01*
X7975600Y7970471D02*
Y7818120D01*
X8051775D01*
X8077167Y7843512D01*
Y7945079D01*
X8051775Y7970471D01*
X7975600D01*
X8229518D02*
X8127951D01*
Y7894295D01*
X8178734Y7919687D01*
X8204126D01*
X8229518Y7894295D01*
Y7843512D01*
X8204126Y7818120D01*
X8153343D01*
X8127951Y7843512D01*
X9423400Y7970471D02*
Y7818120D01*
X9499575D01*
X9524967Y7843512D01*
Y7945079D01*
X9499575Y7970471D01*
X9423400D01*
X9651926Y7818120D02*
Y7970471D01*
X9575751Y7894295D01*
X9677318D01*
X10858500Y7970471D02*
Y7818120D01*
X10934675D01*
X10960067Y7843512D01*
Y7945079D01*
X10934675Y7970471D01*
X10858500D01*
X11010851Y7945079D02*
X11036243Y7970471D01*
X11087026D01*
X11112418Y7945079D01*
Y7919687D01*
X11087026Y7894295D01*
X11061634D01*
X11087026D01*
X11112418Y7868903D01*
Y7843512D01*
X11087026Y7818120D01*
X11036243D01*
X11010851Y7843512D01*
X12280900Y7970471D02*
Y7818120D01*
X12357075D01*
X12382467Y7843512D01*
Y7945079D01*
X12357075Y7970471D01*
X12280900D01*
X12534818Y7818120D02*
X12433251D01*
X12534818Y7919687D01*
Y7945079D01*
X12509426Y7970471D01*
X12458643D01*
X12433251Y7945079D01*
X13728700Y7970471D02*
Y7818120D01*
X13804875D01*
X13830267Y7843512D01*
Y7945079D01*
X13804875Y7970471D01*
X13728700D01*
X13881052Y7818120D02*
X13931834D01*
X13906442D01*
Y7970471D01*
X13881052Y7945079D01*
X6830958Y11112483D02*
X6805567Y11137875D01*
X6754783D01*
X6729391Y11112483D01*
Y11010917D01*
X6754783Y10985525D01*
X6805567D01*
X6830958Y11010917D01*
X6881742D02*
X6907134Y10985525D01*
X6957917D01*
X6983309Y11010917D01*
Y11112483D01*
X6957917Y11137875D01*
X6907134D01*
X6881742Y11112483D01*
Y11087092D01*
X6907134Y11061700D01*
X6983309D01*
X5600708Y9893283D02*
X5575317Y9918675D01*
X5524533D01*
X5499141Y9893283D01*
Y9791717D01*
X5524533Y9766325D01*
X5575317D01*
X5600708Y9791717D01*
X5651492Y9918675D02*
X5753059D01*
Y9893283D01*
X5651492Y9791717D01*
Y9766325D01*
X4140217Y9321808D02*
X4114825Y9296417D01*
Y9245633D01*
X4140217Y9220241D01*
X4241783D01*
X4267175Y9245633D01*
Y9296417D01*
X4241783Y9321808D01*
X4114825Y9474159D02*
X4140217Y9423375D01*
X4191000Y9372592D01*
X4241783D01*
X4267175Y9397984D01*
Y9448767D01*
X4241783Y9474159D01*
X4216392D01*
X4191000Y9448767D01*
Y9372592D01*
X5207008Y11010883D02*
X5181617Y11036275D01*
X5130833D01*
X5105441Y11010883D01*
Y10909317D01*
X5130833Y10883925D01*
X5181617D01*
X5207008Y10909317D01*
X5359359Y11036275D02*
X5257792D01*
Y10960100D01*
X5308575Y10985492D01*
X5333967D01*
X5359359Y10960100D01*
Y10909317D01*
X5333967Y10883925D01*
X5283184D01*
X5257792Y10909317D01*
X4216367Y10662879D02*
X4190975Y10688271D01*
X4140192D01*
X4114800Y10662879D01*
Y10561312D01*
X4140192Y10535920D01*
X4190975D01*
X4216367Y10561312D01*
X4343326Y10535920D02*
Y10688271D01*
X4267151Y10612095D01*
X4368718D01*
X12865067Y12250379D02*
X12839674Y12275771D01*
X12788892D01*
X12763500Y12250379D01*
Y12148812D01*
X12788892Y12123420D01*
X12839674D01*
X12865067Y12148812D01*
X12915851Y12250379D02*
X12941243Y12275771D01*
X12992026D01*
X13017418Y12250379D01*
Y12224987D01*
X12992026Y12199595D01*
X12966634D01*
X12992026D01*
X13017418Y12174203D01*
Y12148812D01*
X12992026Y12123420D01*
X12941243D01*
X12915851Y12148812D01*
X12616147Y11163259D02*
X12590755Y11188651D01*
X12539972D01*
X12514580Y11163259D01*
Y11061692D01*
X12539972Y11036300D01*
X12590755D01*
X12616147Y11061692D01*
X12666931Y11036300D02*
X12717714D01*
X12692323D01*
Y11188651D01*
X12666931Y11163259D01*
D80*
X10648200Y10069300D02*
Y10116300D01*
Y9416300D02*
Y9463300D01*
X11348200Y10069300D02*
Y10116300D01*
Y9416300D02*
Y9463300D01*
X10648200Y10116300D02*
X10695200D01*
X10648200Y9416300D02*
X10695200D01*
X11301200Y10116300D02*
X11348200D01*
X11301200Y9416300D02*
X11348200D01*
X8747800Y12199100D02*
Y12367100D01*
Y12601100D02*
Y12744100D01*
X9641800Y12199100D02*
Y12367100D01*
Y12601100D02*
Y12744100D01*
X8747800D02*
X9641800D01*
%TF.MD5,b37919cddef1795bb9a338860c47cf6d*%
M02*
