%TF.GenerationSoftware,Altium Limited,Altium Designer,24.1.2 (44)*%
G04 Layer_Color=8421504*
%FSLAX45Y45*%
%MOMM*%
%TF.SameCoordinates,D8B4AAC8-E2FB-42F1-BA15-8403934F33DF*%
%TF.FilePolarity,Positive*%
%TF.FileFunction,Paste,Top*%
%TF.Part,Single*%
G01*
G75*
%TA.AperFunction,SMDPad,CuDef*%
%ADD12R,0.67500X0.45000*%
%ADD13R,0.30000X0.25000*%
G04:AMPARAMS|DCode=15|XSize=0.81mm|YSize=0.22mm|CornerRadius=0.0275mm|HoleSize=0mm|Usage=FLASHONLY|Rotation=0.000|XOffset=0mm|YOffset=0mm|HoleType=Round|Shape=RoundedRectangle|*
%AMROUNDEDRECTD15*
21,1,0.81000,0.16500,0,0,0.0*
21,1,0.75500,0.22000,0,0,0.0*
1,1,0.05500,0.37750,-0.08250*
1,1,0.05500,-0.37750,-0.08250*
1,1,0.05500,-0.37750,0.08250*
1,1,0.05500,0.37750,0.08250*
%
%ADD15ROUNDEDRECTD15*%
G04:AMPARAMS|DCode=16|XSize=0.22mm|YSize=0.81mm|CornerRadius=0.0275mm|HoleSize=0mm|Usage=FLASHONLY|Rotation=0.000|XOffset=0mm|YOffset=0mm|HoleType=Round|Shape=RoundedRectangle|*
%AMROUNDEDRECTD16*
21,1,0.22000,0.75500,0,0,0.0*
21,1,0.16500,0.81000,0,0,0.0*
1,1,0.05500,0.08250,-0.37750*
1,1,0.05500,-0.08250,-0.37750*
1,1,0.05500,-0.08250,0.37750*
1,1,0.05500,0.08250,0.37750*
%
%ADD16ROUNDEDRECTD16*%
%ADD17R,0.90000X0.75000*%
%ADD18R,0.46818X0.47247*%
%TA.AperFunction,ConnectorPad*%
%ADD19R,0.60000X1.14000*%
%ADD20R,0.30000X1.14000*%
%TA.AperFunction,SMDPad,CuDef*%
%ADD21R,0.73504X0.86213*%
%ADD22R,1.35490X2.20620*%
%ADD23R,1.36213X1.05814*%
%ADD24R,1.60000X2.80000*%
%ADD25R,0.71583X0.75964*%
%ADD26R,0.75964X0.71583*%
%ADD27R,1.00000X2.20000*%
G04:AMPARAMS|DCode=28|XSize=1.1mm|YSize=0.6mm|CornerRadius=0.051mm|HoleSize=0mm|Usage=FLASHONLY|Rotation=270.000|XOffset=0mm|YOffset=0mm|HoleType=Round|Shape=RoundedRectangle|*
%AMROUNDEDRECTD28*
21,1,1.10000,0.49800,0,0,270.0*
21,1,0.99800,0.60000,0,0,270.0*
1,1,0.10200,-0.24900,-0.49900*
1,1,0.10200,-0.24900,0.49900*
1,1,0.10200,0.24900,0.49900*
1,1,0.10200,0.24900,-0.49900*
%
%ADD28ROUNDEDRECTD28*%
%ADD29R,1.00000X0.80000*%
%ADD30R,0.25000X0.30000*%
%ADD31R,0.67248X0.66817*%
%ADD32R,1.66213X1.05814*%
%ADD33R,0.75000X0.90000*%
%ADD34R,0.65000X0.35000*%
%ADD35R,0.35600X0.50800*%
%ADD36O,1.25000X0.35000*%
%ADD37R,3.30000X2.20000*%
%ADD38R,0.91440X1.21920*%
G04:AMPARAMS|DCode=39|XSize=1.45mm|YSize=0.3mm|CornerRadius=0.0495mm|HoleSize=0mm|Usage=FLASHONLY|Rotation=180.000|XOffset=0mm|YOffset=0mm|HoleType=Round|Shape=RoundedRectangle|*
%AMROUNDEDRECTD39*
21,1,1.45000,0.20100,0,0,180.0*
21,1,1.35100,0.30000,0,0,180.0*
1,1,0.09900,-0.67550,0.10050*
1,1,0.09900,0.67550,0.10050*
1,1,0.09900,0.67550,-0.10050*
1,1,0.09900,-0.67550,-0.10050*
%
%ADD39ROUNDEDRECTD39*%
%ADD40R,1.30000X1.55000*%
%ADD41R,0.40000X0.50000*%
%ADD44R,0.60000X0.60000*%
%ADD45R,0.55411X0.46273*%
%ADD46R,0.35000X0.65000*%
%ADD47R,0.50000X0.40000*%
%ADD48R,0.52000X0.52000*%
%ADD49R,0.50000X0.50000*%
%ADD50R,0.47247X0.51535*%
%ADD51R,0.52000X0.52000*%
%ADD52R,0.90000X0.80000*%
%ADD53R,1.27000X3.56000*%
%ADD54R,0.47247X0.46818*%
%ADD55O,1.70000X0.35000*%
%ADD56R,2.10000X5.60000*%
%ADD57R,1.55000X0.60000*%
%ADD58R,0.90000X0.65000*%
%TA.AperFunction,NonConductor*%
%ADD105R,0.85000X0.80000*%
%ADD106R,2.00000X0.90000*%
G36*
X10973700Y9614800D02*
X10846700D01*
Y9741800D01*
X10973700D01*
Y9614800D01*
D02*
G37*
G36*
Y9790800D02*
X10846700D01*
Y9917800D01*
X10973700D01*
Y9790800D01*
D02*
G37*
G36*
X11149700Y9614800D02*
X11022700D01*
Y9741800D01*
X11149700D01*
Y9614800D01*
D02*
G37*
G36*
Y9790800D02*
X11022700D01*
Y9917800D01*
X11149700D01*
Y9790800D01*
D02*
G37*
D12*
X9740900Y9956800D02*
D03*
Y9864300D02*
D03*
D13*
X14846300Y11339450D02*
D03*
Y11291950D02*
D03*
X4165600Y9537700D02*
D03*
Y9585200D02*
D03*
X4152900Y10379200D02*
D03*
Y10426700D02*
D03*
X12801601Y12014200D02*
D03*
Y11966700D02*
D03*
D15*
X11342700Y10026300D02*
D03*
Y9986300D02*
D03*
Y9946300D02*
D03*
Y9906300D02*
D03*
Y9866300D02*
D03*
Y9826300D02*
D03*
Y9786300D02*
D03*
Y9746300D02*
D03*
Y9706300D02*
D03*
Y9666300D02*
D03*
Y9626300D02*
D03*
Y9586300D02*
D03*
Y9546300D02*
D03*
Y9506300D02*
D03*
X10653700D02*
D03*
Y9546300D02*
D03*
Y9586300D02*
D03*
Y9626300D02*
D03*
Y9666300D02*
D03*
Y9706300D02*
D03*
Y9746300D02*
D03*
Y9786300D02*
D03*
Y9826300D02*
D03*
Y9866300D02*
D03*
Y9906300D02*
D03*
Y9946300D02*
D03*
Y9986300D02*
D03*
Y10026300D02*
D03*
D16*
X10738200Y10110800D02*
D03*
X10778200D02*
D03*
X10818200D02*
D03*
X10858200D02*
D03*
X10898200D02*
D03*
X10938200D02*
D03*
X10978200D02*
D03*
X11018200D02*
D03*
X11058200D02*
D03*
X11098200D02*
D03*
X11138200D02*
D03*
X11178200D02*
D03*
X11218200D02*
D03*
X11258200D02*
D03*
Y9421800D02*
D03*
X11218200D02*
D03*
X11178200D02*
D03*
X11138200D02*
D03*
X11098200D02*
D03*
X11058200D02*
D03*
X11018200D02*
D03*
X10978200D02*
D03*
X10938200D02*
D03*
X10898200D02*
D03*
X10858200D02*
D03*
X10818200D02*
D03*
X10778200D02*
D03*
X10738200D02*
D03*
D17*
X12585700Y11322700D02*
D03*
Y11442700D02*
D03*
Y10769600D02*
D03*
Y10889600D02*
D03*
D18*
X12750800Y11277600D02*
D03*
X12831230D02*
D03*
D19*
X9514800Y12009100D02*
D03*
X9434800D02*
D03*
X8954800D02*
D03*
X8874800D02*
D03*
D20*
X9219800D02*
D03*
X9269800D02*
D03*
X9319800D02*
D03*
X9369800D02*
D03*
X9169800D02*
D03*
X9119800D02*
D03*
X9069800D02*
D03*
X9019800D02*
D03*
D21*
X9376521Y11811000D02*
D03*
X9499600D02*
D03*
X8879261D02*
D03*
X9002339D02*
D03*
D22*
X4482135Y10401300D02*
D03*
X4687265D02*
D03*
D23*
X10312400Y9221401D02*
D03*
Y9396799D02*
D03*
X9969500Y9221401D02*
D03*
Y9396799D02*
D03*
D24*
X5334000Y9562200D02*
D03*
Y9132200D02*
D03*
X5181600Y10655300D02*
D03*
Y10225300D02*
D03*
D25*
X4914900Y9855200D02*
D03*
Y9759951D02*
D03*
D26*
X4638675Y9855200D02*
D03*
X4733925D02*
D03*
X4397375D02*
D03*
X4492625D02*
D03*
X4156075D02*
D03*
X4251325D02*
D03*
X3816351Y9893300D02*
D03*
X3911600D02*
D03*
X4460875Y10820400D02*
D03*
X4556125D02*
D03*
X4152900D02*
D03*
X4248149D02*
D03*
X3813175Y10744200D02*
D03*
X3908425D02*
D03*
D27*
X4368800Y9474200D02*
D03*
X4588800D02*
D03*
X6488300Y11485600D02*
D03*
X6718300D02*
D03*
X6948300D02*
D03*
D28*
X4006600Y9433100D02*
D03*
X3911600D02*
D03*
X3816600D02*
D03*
Y9693100D02*
D03*
X3911600D02*
D03*
X4006600D02*
D03*
X4000500Y10261600D02*
D03*
X3905500D02*
D03*
X3810500D02*
D03*
Y10521600D02*
D03*
X3905500D02*
D03*
X4000500D02*
D03*
D29*
X4737100Y10657700D02*
D03*
Y10807700D02*
D03*
D30*
X6819900Y11239500D02*
D03*
X6867400D02*
D03*
D31*
X14058900Y9003130D02*
D03*
Y8902700D02*
D03*
X14401801Y9003130D02*
D03*
Y8902700D02*
D03*
X14744701Y9003130D02*
D03*
Y8902700D02*
D03*
X15087601Y9003130D02*
D03*
Y8902700D02*
D03*
D32*
Y9318801D02*
D03*
Y9604199D02*
D03*
X14744701Y9318801D02*
D03*
Y9604199D02*
D03*
X14401801Y9318801D02*
D03*
Y9604199D02*
D03*
X14058900Y9318801D02*
D03*
Y9604199D02*
D03*
D33*
X10687700Y10490200D02*
D03*
X10807700D02*
D03*
X10379400Y10464800D02*
D03*
X10499400D02*
D03*
X11096300Y10299700D02*
D03*
X10976300D02*
D03*
D34*
X10807700Y10265500D02*
D03*
Y10350500D02*
D03*
D35*
X6972300Y7809250D02*
D03*
X6922300Y7938750D02*
D03*
X7022300D02*
D03*
X11289500Y7808000D02*
D03*
X11239500Y7937500D02*
D03*
X11339500D02*
D03*
X4102100Y7809250D02*
D03*
X4052100Y7938750D02*
D03*
X4152100D02*
D03*
X14160500Y7809250D02*
D03*
X14110500Y7938750D02*
D03*
X14210500D02*
D03*
X5537200Y7809250D02*
D03*
X5487200Y7938750D02*
D03*
X5587200D02*
D03*
X8407400Y7809250D02*
D03*
X8357400Y7938750D02*
D03*
X8457400D02*
D03*
X9855200Y7809250D02*
D03*
X9805200Y7938750D02*
D03*
X9905200D02*
D03*
X12712700Y7809250D02*
D03*
X12662700Y7938750D02*
D03*
X12762700D02*
D03*
D36*
X15071800Y11340000D02*
D03*
Y11275000D02*
D03*
Y11210000D02*
D03*
Y11145000D02*
D03*
Y11080000D02*
D03*
Y11015000D02*
D03*
Y10950000D02*
D03*
Y10885000D02*
D03*
X15636800Y11340000D02*
D03*
Y11275000D02*
D03*
Y11210000D02*
D03*
Y11145000D02*
D03*
Y11080000D02*
D03*
Y11015000D02*
D03*
Y10950000D02*
D03*
Y10885000D02*
D03*
D37*
X6718300Y12085600D02*
D03*
D38*
X4100830Y7620000D02*
D03*
X3773170D02*
D03*
X5535930D02*
D03*
X5208270D02*
D03*
X6971030Y7632700D02*
D03*
X6643370D02*
D03*
X8406130D02*
D03*
X8078470D02*
D03*
X9853930D02*
D03*
X9526270D02*
D03*
X11289030D02*
D03*
X10961370D02*
D03*
X12711430D02*
D03*
X12383770D02*
D03*
X14159230D02*
D03*
X13831570D02*
D03*
D39*
X15163800Y10249700D02*
D03*
Y10299700D02*
D03*
Y10349700D02*
D03*
Y10399700D02*
D03*
Y10449700D02*
D03*
X15603799D02*
D03*
Y10399700D02*
D03*
Y10349700D02*
D03*
Y10299700D02*
D03*
Y10249700D02*
D03*
D40*
X11540700Y12106900D02*
D03*
Y11311900D02*
D03*
X11090700Y12106900D02*
D03*
Y11311900D02*
D03*
X10639000Y12094200D02*
D03*
Y11299200D02*
D03*
X10189000Y12094200D02*
D03*
Y11299200D02*
D03*
D41*
X10542120Y10269380D02*
D03*
X10622120D02*
D03*
D44*
X9929700Y9728200D02*
D03*
X10034700D02*
D03*
D45*
X10185400Y9944100D02*
D03*
X10256262D02*
D03*
D46*
X10202500Y10121900D02*
D03*
X10117500D02*
D03*
D47*
X9893300Y9867900D02*
D03*
Y9947900D02*
D03*
D48*
X10045700Y9864100D02*
D03*
Y9944100D02*
D03*
X10160000Y9650100D02*
D03*
Y9730100D02*
D03*
D49*
X10439400Y9844100D02*
D03*
Y9944100D02*
D03*
X10985500Y9157500D02*
D03*
Y9257500D02*
D03*
D50*
X10350500Y10197613D02*
D03*
Y10121900D02*
D03*
X9969500Y10197856D02*
D03*
Y10122144D02*
D03*
D51*
X11343000Y10287000D02*
D03*
X11263000D02*
D03*
D52*
X10820500Y10805700D02*
D03*
X10985500D02*
D03*
Y10680700D02*
D03*
X10820500D02*
D03*
D53*
X8204200Y12160400D02*
D03*
Y11639400D02*
D03*
X7950200Y12160400D02*
D03*
Y11639400D02*
D03*
X7696200Y12160400D02*
D03*
Y11639400D02*
D03*
X5041900Y12058800D02*
D03*
Y11537800D02*
D03*
X4787900Y12058800D02*
D03*
Y11537800D02*
D03*
X4533900Y12058800D02*
D03*
Y11537800D02*
D03*
X6045200Y12046100D02*
D03*
Y11525100D02*
D03*
X5791200Y12046100D02*
D03*
Y11525100D02*
D03*
X5537200Y12046100D02*
D03*
Y11525100D02*
D03*
D54*
X13842999Y11432115D02*
D03*
Y11351685D02*
D03*
D55*
X13574800Y10825600D02*
D03*
Y10890600D02*
D03*
Y10955600D02*
D03*
Y11020600D02*
D03*
Y11085600D02*
D03*
Y11150600D02*
D03*
Y11215600D02*
D03*
Y11280600D02*
D03*
Y11345600D02*
D03*
Y11410600D02*
D03*
X13004800Y10825600D02*
D03*
Y10890600D02*
D03*
Y10955600D02*
D03*
Y11020600D02*
D03*
Y11085600D02*
D03*
Y11150600D02*
D03*
Y11215600D02*
D03*
Y11280600D02*
D03*
Y11345600D02*
D03*
Y11410600D02*
D03*
D56*
X12217400Y11587500D02*
D03*
Y10637500D02*
D03*
D57*
X13064999Y12192000D02*
D03*
Y12065000D02*
D03*
Y11938000D02*
D03*
Y11811000D02*
D03*
X13605000Y12192000D02*
D03*
Y12065000D02*
D03*
Y11938000D02*
D03*
Y11811000D02*
D03*
D58*
X13817599Y12195700D02*
D03*
Y12340700D02*
D03*
D105*
X9575802Y10121919D02*
D03*
D106*
X9423299Y9971900D02*
D03*
X9423300Y10271900D02*
D03*
%TF.MD5,c271653d8aa0ea89c0226234ed7190f3*%
M02*
