%TF.GenerationSoftware,Altium Limited,Altium Designer,24.1.2 (44)*%
G04 Layer_Color=8388736*
%FSLAX45Y45*%
%MOMM*%
%TF.SameCoordinates,D8B4AAC8-E2FB-42F1-BA15-8403934F33DF*%
%TF.FilePolarity,Negative*%
%TF.FileFunction,Soldermask,Top*%
%TF.Part,Single*%
G01*
G75*
%TA.AperFunction,SMDPad,CuDef*%
%ADD12R,0.67500X0.45000*%
%ADD13R,0.30000X0.25000*%
%ADD17R,0.90000X0.75000*%
%ADD18R,0.46818X0.47247*%
%ADD21R,0.73504X0.86213*%
%ADD22R,1.35490X2.20620*%
%ADD23R,1.36213X1.05814*%
%ADD24R,1.60000X2.80000*%
%ADD25R,0.71583X0.75964*%
%ADD26R,0.75964X0.71583*%
G04:AMPARAMS|DCode=28|XSize=1.1mm|YSize=0.6mm|CornerRadius=0.051mm|HoleSize=0mm|Usage=FLASHONLY|Rotation=270.000|XOffset=0mm|YOffset=0mm|HoleType=Round|Shape=RoundedRectangle|*
%AMROUNDEDRECTD28*
21,1,1.10000,0.49800,0,0,270.0*
21,1,0.99800,0.60000,0,0,270.0*
1,1,0.10200,-0.24900,-0.49900*
1,1,0.10200,-0.24900,0.49900*
1,1,0.10200,0.24900,0.49900*
1,1,0.10200,0.24900,-0.49900*
%
%ADD28ROUNDEDRECTD28*%
%ADD30R,0.25000X0.30000*%
%ADD31R,0.67248X0.66817*%
%ADD32R,1.66213X1.05814*%
%ADD33R,0.75000X0.90000*%
%ADD34R,0.65000X0.35000*%
%ADD38R,0.91440X1.21920*%
G04:AMPARAMS|DCode=39|XSize=1.45mm|YSize=0.3mm|CornerRadius=0.0495mm|HoleSize=0mm|Usage=FLASHONLY|Rotation=180.000|XOffset=0mm|YOffset=0mm|HoleType=Round|Shape=RoundedRectangle|*
%AMROUNDEDRECTD39*
21,1,1.45000,0.20100,0,0,180.0*
21,1,1.35100,0.30000,0,0,180.0*
1,1,0.09900,-0.67550,0.10050*
1,1,0.09900,0.67550,0.10050*
1,1,0.09900,0.67550,-0.10050*
1,1,0.09900,-0.67550,-0.10050*
%
%ADD39ROUNDEDRECTD39*%
%ADD40R,1.30000X1.55000*%
%ADD41R,0.40000X0.50000*%
%ADD42R,1.05000X1.00000*%
%ADD43R,2.20000X1.05000*%
%ADD44R,0.60000X0.60000*%
%ADD45R,0.55411X0.46273*%
%ADD46R,0.35000X0.65000*%
%ADD47R,0.50000X0.40000*%
%ADD48R,0.52000X0.52000*%
%ADD49R,0.50000X0.50000*%
%ADD50R,0.47247X0.51535*%
%ADD51R,0.52000X0.52000*%
%ADD52R,0.90000X0.80000*%
%ADD54R,0.47247X0.46818*%
%ADD56R,2.10000X5.60000*%
%ADD58R,0.90000X0.65000*%
%TA.AperFunction,ComponentPad*%
%ADD70C,2.00000*%
%ADD71R,2.00000X2.00000*%
%TA.AperFunction,NonConductor*%
%ADD81C,2.50000*%
%TA.AperFunction,SMDPad,CuDef*%
%ADD82R,4.20320X4.20320*%
G04:AMPARAMS|DCode=83|XSize=1.0132mm|YSize=0.4232mm|CornerRadius=0.1291mm|HoleSize=0mm|Usage=FLASHONLY|Rotation=0.000|XOffset=0mm|YOffset=0mm|HoleType=Round|Shape=RoundedRectangle|*
%AMROUNDEDRECTD83*
21,1,1.01320,0.16500,0,0,0.0*
21,1,0.75500,0.42320,0,0,0.0*
1,1,0.25820,0.37750,-0.08250*
1,1,0.25820,-0.37750,-0.08250*
1,1,0.25820,-0.37750,0.08250*
1,1,0.25820,0.37750,0.08250*
%
%ADD83ROUNDEDRECTD83*%
G04:AMPARAMS|DCode=84|XSize=0.4232mm|YSize=1.0132mm|CornerRadius=0.1291mm|HoleSize=0mm|Usage=FLASHONLY|Rotation=0.000|XOffset=0mm|YOffset=0mm|HoleType=Round|Shape=RoundedRectangle|*
%AMROUNDEDRECTD84*
21,1,0.42320,0.75500,0,0,0.0*
21,1,0.16500,1.01320,0,0,0.0*
1,1,0.25820,0.08250,-0.37750*
1,1,0.25820,-0.08250,-0.37750*
1,1,0.25820,-0.08250,0.37750*
1,1,0.25820,0.08250,0.37750*
%
%ADD84ROUNDEDRECTD84*%
%TA.AperFunction,ConnectorPad*%
%ADD85R,0.70000X1.24000*%
%ADD86R,0.40000X1.24000*%
%TA.AperFunction,SMDPad,CuDef*%
%ADD87R,1.20320X2.40320*%
%ADD88R,1.20320X1.00320*%
%ADD89R,0.55920X0.71120*%
%ADD90O,1.45320X0.55320*%
%ADD91R,3.50320X2.40320*%
%ADD92R,1.47320X3.76320*%
%ADD93O,1.90320X0.55320*%
%ADD94R,1.75320X0.80320*%
%TA.AperFunction,ComponentPad*%
%ADD95C,0.80320*%
%ADD96O,1.10320X2.20320*%
%ADD97O,1.10320X1.90320*%
%ADD98C,1.85320*%
%ADD99C,5.00320*%
G04:AMPARAMS|DCode=100|XSize=1.8532mm|YSize=1.8532mm|CornerRadius=0.5141mm|HoleSize=0mm|Usage=FLASHONLY|Rotation=0.000|XOffset=0mm|YOffset=0mm|HoleType=Round|Shape=RoundedRectangle|*
%AMROUNDEDRECTD100*
21,1,1.85320,0.82500,0,0,0.0*
21,1,0.82500,1.85320,0,0,0.0*
1,1,1.02820,0.41250,-0.41250*
1,1,1.02820,-0.41250,-0.41250*
1,1,1.02820,-0.41250,0.41250*
1,1,1.02820,0.41250,0.41250*
%
%ADD100ROUNDEDRECTD100*%
G04:AMPARAMS|DCode=101|XSize=1.8532mm|YSize=1.8532mm|CornerRadius=0.5141mm|HoleSize=0mm|Usage=FLASHONLY|Rotation=90.000|XOffset=0mm|YOffset=0mm|HoleType=Round|Shape=RoundedRectangle|*
%AMROUNDEDRECTD101*
21,1,1.85320,0.82500,0,0,90.0*
21,1,0.82500,1.85320,0,0,90.0*
1,1,1.02820,0.41250,0.41250*
1,1,1.02820,0.41250,-0.41250*
1,1,1.02820,-0.41250,-0.41250*
1,1,1.02820,-0.41250,0.41250*
%
%ADD101ROUNDEDRECTD101*%
%TA.AperFunction,ViaPad*%
%ADD102C,0.70320*%
%ADD103C,6.20320*%
%ADD104C,1.47320*%
D12*
X9740900Y9956800D02*
D03*
Y9864300D02*
D03*
D13*
X14846300Y11339450D02*
D03*
Y11291950D02*
D03*
X4165600Y9537700D02*
D03*
Y9585200D02*
D03*
X4152900Y10379200D02*
D03*
Y10426700D02*
D03*
X12801601Y12014200D02*
D03*
Y11966700D02*
D03*
D17*
X12585700Y11322700D02*
D03*
Y11442700D02*
D03*
Y10769600D02*
D03*
Y10889600D02*
D03*
D18*
X12750800Y11277600D02*
D03*
X12831230D02*
D03*
D21*
X9376521Y11811000D02*
D03*
X9499600D02*
D03*
X8879261D02*
D03*
X9002339D02*
D03*
D22*
X4482135Y10401300D02*
D03*
X4687265D02*
D03*
D23*
X10312400Y9221401D02*
D03*
Y9396799D02*
D03*
X9969500Y9221401D02*
D03*
Y9396799D02*
D03*
D24*
X5334000Y9562200D02*
D03*
Y9132200D02*
D03*
X5181600Y10655300D02*
D03*
Y10225300D02*
D03*
D25*
X4914900Y9855200D02*
D03*
Y9759951D02*
D03*
D26*
X4638675Y9855200D02*
D03*
X4733925D02*
D03*
X4397375D02*
D03*
X4492625D02*
D03*
X4156075D02*
D03*
X4251325D02*
D03*
X3816351Y9893300D02*
D03*
X3911600D02*
D03*
X4460875Y10820400D02*
D03*
X4556125D02*
D03*
X4152900D02*
D03*
X4248149D02*
D03*
X3813175Y10744200D02*
D03*
X3908425D02*
D03*
D28*
X4006600Y9433100D02*
D03*
X3911600D02*
D03*
X3816600D02*
D03*
Y9693100D02*
D03*
X3911600D02*
D03*
X4006600D02*
D03*
X4000500Y10261600D02*
D03*
X3905500D02*
D03*
X3810500D02*
D03*
Y10521600D02*
D03*
X3905500D02*
D03*
X4000500D02*
D03*
D30*
X6819900Y11239500D02*
D03*
X6867400D02*
D03*
D31*
X14058900Y9003130D02*
D03*
Y8902700D02*
D03*
X14401801Y9003130D02*
D03*
Y8902700D02*
D03*
X14744701Y9003130D02*
D03*
Y8902700D02*
D03*
X15087601Y9003130D02*
D03*
Y8902700D02*
D03*
D32*
Y9318801D02*
D03*
Y9604199D02*
D03*
X14744701Y9318801D02*
D03*
Y9604199D02*
D03*
X14401801Y9318801D02*
D03*
Y9604199D02*
D03*
X14058900Y9318801D02*
D03*
Y9604199D02*
D03*
D33*
X10687700Y10490200D02*
D03*
X10807700D02*
D03*
X10379400Y10464800D02*
D03*
X10499400D02*
D03*
X11096300Y10299700D02*
D03*
X10976300D02*
D03*
D34*
X10807700Y10265500D02*
D03*
Y10350500D02*
D03*
D38*
X4100830Y7620000D02*
D03*
X3773170D02*
D03*
X5535930D02*
D03*
X5208270D02*
D03*
X6971030Y7632700D02*
D03*
X6643370D02*
D03*
X8406130D02*
D03*
X8078470D02*
D03*
X9853930D02*
D03*
X9526270D02*
D03*
X11289030D02*
D03*
X10961370D02*
D03*
X12711430D02*
D03*
X12383770D02*
D03*
X14159230D02*
D03*
X13831570D02*
D03*
D39*
X15163800Y10249700D02*
D03*
Y10299700D02*
D03*
Y10349700D02*
D03*
Y10399700D02*
D03*
Y10449700D02*
D03*
X15603799D02*
D03*
Y10399700D02*
D03*
Y10349700D02*
D03*
Y10299700D02*
D03*
Y10249700D02*
D03*
D40*
X11540700Y12106900D02*
D03*
Y11311900D02*
D03*
X11090700Y12106900D02*
D03*
Y11311900D02*
D03*
X10639000Y12094200D02*
D03*
Y11299200D02*
D03*
X10189000Y12094200D02*
D03*
Y11299200D02*
D03*
D41*
X10542120Y10269380D02*
D03*
X10622120D02*
D03*
D42*
X9575800Y10121900D02*
D03*
D43*
X9423300Y9974400D02*
D03*
Y10269400D02*
D03*
D44*
X9929700Y9728200D02*
D03*
X10034700D02*
D03*
D45*
X10185400Y9944100D02*
D03*
X10256262D02*
D03*
D46*
X10202500Y10121900D02*
D03*
X10117500D02*
D03*
D47*
X9893300Y9867900D02*
D03*
Y9947900D02*
D03*
D48*
X10045700Y9864100D02*
D03*
Y9944100D02*
D03*
X10160000Y9650100D02*
D03*
Y9730100D02*
D03*
D49*
X10439400Y9844100D02*
D03*
Y9944100D02*
D03*
X10985500Y9157500D02*
D03*
Y9257500D02*
D03*
D50*
X10350500Y10197613D02*
D03*
Y10121900D02*
D03*
X9969500Y10197856D02*
D03*
Y10122144D02*
D03*
D51*
X11343000Y10287000D02*
D03*
X11263000D02*
D03*
D52*
X10820500Y10805700D02*
D03*
X10985500D02*
D03*
Y10680700D02*
D03*
X10820500D02*
D03*
D54*
X13842999Y11432115D02*
D03*
Y11351685D02*
D03*
D56*
X12217400Y11587500D02*
D03*
Y10637500D02*
D03*
D58*
X13817599Y12195700D02*
D03*
Y12340700D02*
D03*
D70*
X4286600Y4704500D02*
D03*
X3536600D02*
D03*
X4286600Y5212500D02*
D03*
X3536600D02*
D03*
X4286600Y5716500D02*
D03*
X3536600D02*
D03*
X4286600Y7228500D02*
D03*
X5721700Y4704500D02*
D03*
X4971700D02*
D03*
X5721700Y5212500D02*
D03*
X4971700D02*
D03*
X5721700Y5716500D02*
D03*
X4971700D02*
D03*
X5721700Y7228500D02*
D03*
X7156800Y4704500D02*
D03*
X6406800D02*
D03*
X7156800Y5212500D02*
D03*
X6406800D02*
D03*
X7156800Y5716500D02*
D03*
X6406800D02*
D03*
X7156800Y7228500D02*
D03*
X8591900Y4704500D02*
D03*
X7841900D02*
D03*
X8591900Y5212500D02*
D03*
X7841900D02*
D03*
X8591900Y5716500D02*
D03*
X7841900D02*
D03*
X8591900Y7228500D02*
D03*
X10039700Y4704500D02*
D03*
X9289700D02*
D03*
X10039700Y5212500D02*
D03*
X9289700D02*
D03*
X10039700Y5716500D02*
D03*
X9289700D02*
D03*
X10039700Y7228500D02*
D03*
X11474800Y4704500D02*
D03*
X10724800D02*
D03*
X11474800Y5212500D02*
D03*
X10724800D02*
D03*
X11474800Y5716500D02*
D03*
X10724800D02*
D03*
X11474800Y7228500D02*
D03*
X12909900Y4704500D02*
D03*
X12159900D02*
D03*
X12909900Y5212500D02*
D03*
X12159900D02*
D03*
X12909900Y5716500D02*
D03*
X12159900D02*
D03*
X12909900Y7228500D02*
D03*
X14345000Y4704500D02*
D03*
X13595000D02*
D03*
X14345000Y5212500D02*
D03*
X13595000D02*
D03*
X14345000Y5716500D02*
D03*
X13595000D02*
D03*
X14345000Y7228500D02*
D03*
D71*
X3536600D02*
D03*
X4971700D02*
D03*
X6406800D02*
D03*
X7841900D02*
D03*
X9289700D02*
D03*
X10724800D02*
D03*
X12159900D02*
D03*
X13595000D02*
D03*
D81*
X4266800Y3657600D02*
G03*
X4266800Y3657600I-25000J0D01*
G01*
X15328499Y12115800D02*
G03*
X15328499Y12115800I-25000J0D01*
G01*
X3149200Y9537700D02*
G03*
X3149200Y9537700I-25000J0D01*
G01*
D82*
X10998200Y9766300D02*
D03*
D83*
X11342700Y10026300D02*
D03*
Y9986300D02*
D03*
Y9946300D02*
D03*
Y9906300D02*
D03*
Y9866300D02*
D03*
Y9826300D02*
D03*
Y9786300D02*
D03*
Y9746300D02*
D03*
Y9706300D02*
D03*
Y9666300D02*
D03*
Y9626300D02*
D03*
Y9586300D02*
D03*
Y9546300D02*
D03*
Y9506300D02*
D03*
X10653700D02*
D03*
Y9546300D02*
D03*
Y9586300D02*
D03*
Y9626300D02*
D03*
Y9666300D02*
D03*
Y9706300D02*
D03*
Y9746300D02*
D03*
Y9786300D02*
D03*
Y9826300D02*
D03*
Y9866300D02*
D03*
Y9906300D02*
D03*
Y9946300D02*
D03*
Y9986300D02*
D03*
Y10026300D02*
D03*
D84*
X10738200Y10110800D02*
D03*
X10778200D02*
D03*
X10818200D02*
D03*
X10858200D02*
D03*
X10898200D02*
D03*
X10938200D02*
D03*
X10978200D02*
D03*
X11018200D02*
D03*
X11058200D02*
D03*
X11098200D02*
D03*
X11138200D02*
D03*
X11178200D02*
D03*
X11218200D02*
D03*
X11258200D02*
D03*
Y9421800D02*
D03*
X11218200D02*
D03*
X11178200D02*
D03*
X11138200D02*
D03*
X11098200D02*
D03*
X11058200D02*
D03*
X11018200D02*
D03*
X10978200D02*
D03*
X10938200D02*
D03*
X10898200D02*
D03*
X10858200D02*
D03*
X10818200D02*
D03*
X10778200D02*
D03*
X10738200D02*
D03*
D85*
X9514800Y12009100D02*
D03*
X9434800D02*
D03*
X8954800D02*
D03*
X8874800D02*
D03*
D86*
X9219800D02*
D03*
X9269800D02*
D03*
X9319800D02*
D03*
X9369800D02*
D03*
X9169800D02*
D03*
X9119800D02*
D03*
X9069800D02*
D03*
X9019800D02*
D03*
D87*
X4368800Y9474200D02*
D03*
X4588800D02*
D03*
X6488300Y11485600D02*
D03*
X6718300D02*
D03*
X6948300D02*
D03*
D88*
X4737100Y10657700D02*
D03*
Y10807700D02*
D03*
D89*
X6972300Y7809250D02*
D03*
X6922300Y7938750D02*
D03*
X7022300D02*
D03*
X11289500Y7808000D02*
D03*
X11239500Y7937500D02*
D03*
X11339500D02*
D03*
X4102100Y7809250D02*
D03*
X4052100Y7938750D02*
D03*
X4152100D02*
D03*
X14160500Y7809250D02*
D03*
X14110500Y7938750D02*
D03*
X14210500D02*
D03*
X5537200Y7809250D02*
D03*
X5487200Y7938750D02*
D03*
X5587200D02*
D03*
X8407400Y7809250D02*
D03*
X8357400Y7938750D02*
D03*
X8457400D02*
D03*
X9855200Y7809250D02*
D03*
X9805200Y7938750D02*
D03*
X9905200D02*
D03*
X12712700Y7809250D02*
D03*
X12662700Y7938750D02*
D03*
X12762700D02*
D03*
D90*
X15071800Y11340000D02*
D03*
Y11275000D02*
D03*
Y11210000D02*
D03*
Y11145000D02*
D03*
Y11080000D02*
D03*
Y11015000D02*
D03*
Y10950000D02*
D03*
Y10885000D02*
D03*
X15636800Y11340000D02*
D03*
Y11275000D02*
D03*
Y11210000D02*
D03*
Y11145000D02*
D03*
Y11080000D02*
D03*
Y11015000D02*
D03*
Y10950000D02*
D03*
Y10885000D02*
D03*
D91*
X6718300Y12085600D02*
D03*
D92*
X8204200Y12160400D02*
D03*
Y11639400D02*
D03*
X7950200Y12160400D02*
D03*
Y11639400D02*
D03*
X7696200Y12160400D02*
D03*
Y11639400D02*
D03*
X5041900Y12058800D02*
D03*
Y11537800D02*
D03*
X4787900Y12058800D02*
D03*
Y11537800D02*
D03*
X4533900Y12058800D02*
D03*
Y11537800D02*
D03*
X6045200Y12046100D02*
D03*
Y11525100D02*
D03*
X5791200Y12046100D02*
D03*
Y11525100D02*
D03*
X5537200Y12046100D02*
D03*
Y11525100D02*
D03*
D93*
X13574800Y10825600D02*
D03*
Y10890600D02*
D03*
Y10955600D02*
D03*
Y11020600D02*
D03*
Y11085600D02*
D03*
Y11150600D02*
D03*
Y11215600D02*
D03*
Y11280600D02*
D03*
Y11345600D02*
D03*
Y11410600D02*
D03*
X13004800Y10825600D02*
D03*
Y10890600D02*
D03*
Y10955600D02*
D03*
Y11020600D02*
D03*
Y11085600D02*
D03*
Y11150600D02*
D03*
Y11215600D02*
D03*
Y11280600D02*
D03*
Y11345600D02*
D03*
Y11410600D02*
D03*
D94*
X13064999Y12192000D02*
D03*
Y12065000D02*
D03*
Y11938000D02*
D03*
Y11811000D02*
D03*
X13605000Y12192000D02*
D03*
Y12065000D02*
D03*
Y11938000D02*
D03*
Y11811000D02*
D03*
D95*
X9483800Y12116100D02*
D03*
X8905800D02*
D03*
D96*
X9627300Y12067100D02*
D03*
X8762300D02*
D03*
D97*
X9627300Y12484100D02*
D03*
X8762300D02*
D03*
D98*
X7397900Y3352799D02*
D03*
X7674900D02*
D03*
X7951900D02*
D03*
X8228900D02*
D03*
X8505900D02*
D03*
X8782900D02*
D03*
X9059900D02*
D03*
X9336900D02*
D03*
X9613899D02*
D03*
X9890900D02*
D03*
X10167900D02*
D03*
X10444900D02*
D03*
X7259400Y3636799D02*
D03*
X7536400D02*
D03*
X7813399D02*
D03*
X8090400D02*
D03*
X8367400D02*
D03*
X8644400D02*
D03*
X10306400D02*
D03*
X9752400D02*
D03*
X10029400D02*
D03*
X9475400D02*
D03*
X9198400D02*
D03*
X8921400D02*
D03*
X16954500Y6907400D02*
D03*
Y7184400D02*
D03*
Y7461400D02*
D03*
Y7738400D02*
D03*
Y8015400D02*
D03*
Y8292400D02*
D03*
Y8569400D02*
D03*
Y8846400D02*
D03*
Y9123400D02*
D03*
Y9400400D02*
D03*
Y9677400D02*
D03*
Y9954400D02*
D03*
X16670500Y6768900D02*
D03*
Y7045900D02*
D03*
Y7322900D02*
D03*
Y7599900D02*
D03*
Y7876900D02*
D03*
Y8153900D02*
D03*
Y9815900D02*
D03*
Y9261900D02*
D03*
Y9538900D02*
D03*
Y8984900D02*
D03*
Y8707900D02*
D03*
Y8430900D02*
D03*
D99*
X11276400Y3494799D02*
D03*
X6566399D02*
D03*
X16812500Y10785900D02*
D03*
Y6075900D02*
D03*
D100*
X10583399Y3636799D02*
D03*
D101*
X16670500Y10092900D02*
D03*
D102*
X6629400Y12293600D02*
D03*
X14958975Y11339650D02*
D03*
X11099800Y10668000D02*
D03*
X11430000Y9499600D02*
D03*
X9702800Y10045700D02*
D03*
X9639300Y9779000D02*
D03*
X9779000Y9740900D02*
D03*
X5918200Y12046100D02*
D03*
X4533900Y11239500D02*
D03*
X11087100Y11684000D02*
D03*
X10189000Y11696700D02*
D03*
X10439400Y10591800D02*
D03*
X11455400Y10287000D02*
D03*
X3860800Y8801100D02*
D03*
Y8699500D02*
D03*
X3251200Y10147300D02*
D03*
X14846300Y11214100D02*
D03*
X14888499Y11015000D02*
D03*
X15760699Y10909300D02*
D03*
X15440100Y10347400D02*
D03*
X3911600Y9575800D02*
D03*
Y10401300D02*
D03*
X3351900Y10147300D02*
D03*
X3440800D02*
D03*
X3517000D02*
D03*
X3860800Y8912321D02*
D03*
Y8988521D02*
D03*
X5830200Y9132200D02*
D03*
X5741300D02*
D03*
X5665100D02*
D03*
X5906400D02*
D03*
X5677800Y10225300D02*
D03*
X5588900D02*
D03*
X5512700D02*
D03*
X5754000D02*
D03*
X5677800Y10655300D02*
D03*
X5588900D02*
D03*
X5512700D02*
D03*
X5754000D02*
D03*
X5918200Y9550400D02*
D03*
X5676900D02*
D03*
X5753100D02*
D03*
X5842000D02*
D03*
X11074400Y8851900D02*
D03*
X11009859Y8939274D02*
D03*
X10918760Y8851900D02*
D03*
X9829800Y9296400D02*
D03*
X10185400D02*
D03*
X11188700Y9029700D02*
D03*
X14058900Y9106300D02*
D03*
X14401801Y9144400D02*
D03*
X11315700Y9068200D02*
D03*
X10961850Y9319250D02*
D03*
X10820400Y8674100D02*
D03*
X11099800Y10414000D02*
D03*
X11290300Y10375900D02*
D03*
X10401300Y10312400D02*
D03*
X10668000Y10629900D02*
D03*
X13716000Y11417300D02*
D03*
X12750800Y11379200D02*
D03*
X8077200Y12153900D02*
D03*
X7696200Y12407900D02*
D03*
X6867400Y11344700D02*
D03*
X5537200Y11226800D02*
D03*
Y12293600D02*
D03*
X5041900Y11798300D02*
D03*
X6553200Y10634375D02*
D03*
X6705768Y10566568D02*
D03*
X5791200Y11264900D02*
D03*
X6045200D02*
D03*
X10350500Y8966200D02*
D03*
Y8890000D02*
D03*
X6794500Y12293600D02*
D03*
X6756400Y11303000D02*
D03*
X11087100Y9918700D02*
D03*
Y9855200D02*
D03*
X11150600D02*
D03*
Y9918700D02*
D03*
X10934700Y9855200D02*
D03*
X10858500D02*
D03*
X10934700Y9918700D02*
D03*
X10858500D02*
D03*
X10401300Y9788760D02*
D03*
X10274300Y9728200D02*
D03*
X9872900Y9650100D02*
D03*
X9136200Y10269400D02*
D03*
Y9974400D02*
D03*
X14071600Y11722100D02*
D03*
X14135100Y11912600D02*
D03*
X15011400Y10464800D02*
D03*
X15024100Y10336600D02*
D03*
X14960600Y10401300D02*
D03*
X13957300Y12340700D02*
D03*
X15087601Y9169400D02*
D03*
Y8763000D02*
D03*
X14744701D02*
D03*
X14401801D02*
D03*
X14058900D02*
D03*
X10845800Y8585200D02*
D03*
X10350500Y8801100D02*
D03*
X11112500Y8686800D02*
D03*
X11277600Y8610600D02*
D03*
X11315700Y8788400D02*
D03*
X9169400Y11026652D02*
D03*
X9245600Y11023600D02*
D03*
X10712618Y9341018D02*
D03*
X11099800Y9512700D02*
D03*
X11201400Y9512300D02*
D03*
X14744701Y9156700D02*
D03*
X10642600Y9385300D02*
D03*
X10555241Y9386841D02*
D03*
X10464800Y9385300D02*
D03*
X11595100Y9906000D02*
D03*
X11849100Y10058400D02*
D03*
X11925300Y9969500D02*
D03*
X10744600Y9779000D02*
D03*
X10744200Y9664700D02*
D03*
Y9563100D02*
D03*
X10160000Y10579100D02*
D03*
Y10782300D02*
D03*
Y10680700D02*
D03*
X10350500Y10617200D02*
D03*
X10947400Y10016700D02*
D03*
X11087100D02*
D03*
X10337800Y9652000D02*
D03*
X12585700Y11582400D02*
D03*
Y10642600D02*
D03*
X12903200Y11938000D02*
D03*
Y12065000D02*
D03*
X3987800Y8002525D02*
D03*
X5422900D02*
D03*
X6858000D02*
D03*
X8293100D02*
D03*
X9740900D02*
D03*
X11176000D02*
D03*
X14046201D02*
D03*
X12598400Y8013700D02*
D03*
X11099800Y8991600D02*
D03*
X10353436Y8724900D02*
D03*
X10350500Y8648700D02*
D03*
X11341100Y8204200D02*
D03*
X12763500Y8143561D02*
D03*
X12153900Y8521700D02*
D03*
D103*
X17056100Y3187700D02*
D03*
X3073400Y3200400D02*
D03*
X3048000Y12187300D02*
D03*
X17043401Y12192000D02*
D03*
D104*
X5537200Y3289300D02*
D03*
X5765800Y3441700D02*
D03*
X6007100Y3848100D02*
D03*
%TF.MD5,e1203bc393f2458b331dc2995cc8ea00*%
M02*
