%TF.GenerationSoftware,Altium Limited,Altium Designer,24.1.2 (44)*%
G04 Layer_Physical_Order=2*
G04 Layer_Color=36540*
%FSLAX45Y45*%
%MOMM*%
%TF.SameCoordinates,D8B4AAC8-E2FB-42F1-BA15-8403934F33DF*%
%TF.FilePolarity,Positive*%
%TF.FileFunction,Copper,L2,Inr,Signal*%
%TF.Part,Single*%
G01*
G75*
%TA.AperFunction,ComponentPad*%
%ADD63C,0.60000*%
%ADD64O,0.90000X2.00000*%
%ADD65O,0.90000X1.70000*%
%ADD66C,1.65000*%
%ADD67C,4.80000*%
G04:AMPARAMS|DCode=68|XSize=1.65mm|YSize=1.65mm|CornerRadius=0.4125mm|HoleSize=0mm|Usage=FLASHONLY|Rotation=0.000|XOffset=0mm|YOffset=0mm|HoleType=Round|Shape=RoundedRectangle|*
%AMROUNDEDRECTD68*
21,1,1.65000,0.82500,0,0,0.0*
21,1,0.82500,1.65000,0,0,0.0*
1,1,0.82500,0.41250,-0.41250*
1,1,0.82500,-0.41250,-0.41250*
1,1,0.82500,-0.41250,0.41250*
1,1,0.82500,0.41250,0.41250*
%
%ADD68ROUNDEDRECTD68*%
G04:AMPARAMS|DCode=69|XSize=1.65mm|YSize=1.65mm|CornerRadius=0.4125mm|HoleSize=0mm|Usage=FLASHONLY|Rotation=90.000|XOffset=0mm|YOffset=0mm|HoleType=Round|Shape=RoundedRectangle|*
%AMROUNDEDRECTD69*
21,1,1.65000,0.82500,0,0,90.0*
21,1,0.82500,1.65000,0,0,90.0*
1,1,0.82500,0.41250,0.41250*
1,1,0.82500,0.41250,-0.41250*
1,1,0.82500,-0.41250,-0.41250*
1,1,0.82500,-0.41250,0.41250*
%
%ADD69ROUNDEDRECTD69*%
%ADD70C,2.00000*%
%ADD71R,2.00000X2.00000*%
%TA.AperFunction,ViaPad*%
%ADD72C,0.50000*%
%ADD73C,6.00000*%
%ADD74C,1.27000*%
G36*
X2514600Y12700000D02*
X17792700D01*
Y2527300D01*
X2527300D01*
X2489262Y12708732D01*
X2500987Y12713613D01*
X2514600Y12700000D01*
D02*
G37*
%LPC*%
G36*
X9640000Y12593435D02*
Y12496800D01*
X9698308D01*
Y12524100D01*
X9695888Y12542478D01*
X9688794Y12559604D01*
X9677510Y12574310D01*
X9662804Y12585594D01*
X9645678Y12592688D01*
X9640000Y12593435D01*
D02*
G37*
G36*
X8775000D02*
Y12496800D01*
X8833307D01*
Y12524100D01*
X8830888Y12542478D01*
X8823794Y12559604D01*
X8812510Y12574310D01*
X8797804Y12585594D01*
X8780678Y12592688D01*
X8775000Y12593435D01*
D02*
G37*
G36*
X9614600D02*
X9608922Y12592688D01*
X9591796Y12585594D01*
X9577090Y12574310D01*
X9565806Y12559604D01*
X9558712Y12542478D01*
X9556293Y12524100D01*
Y12496800D01*
X9614600D01*
Y12593435D01*
D02*
G37*
G36*
X8749600D02*
X8743922Y12592688D01*
X8726796Y12585594D01*
X8712090Y12574310D01*
X8700806Y12559604D01*
X8693712Y12542478D01*
X8691292Y12524100D01*
Y12496800D01*
X8749600D01*
Y12593435D01*
D02*
G37*
G36*
X9698308Y12471400D02*
X9640000D01*
Y12374765D01*
X9645678Y12375512D01*
X9662804Y12382606D01*
X9677510Y12393890D01*
X9688794Y12408596D01*
X9695888Y12425722D01*
X9698308Y12444100D01*
Y12471400D01*
D02*
G37*
G36*
X8833307D02*
X8775000D01*
Y12374765D01*
X8780678Y12375512D01*
X8797804Y12382606D01*
X8812510Y12393890D01*
X8823794Y12408596D01*
X8830888Y12425722D01*
X8833307Y12444100D01*
Y12471400D01*
D02*
G37*
G36*
X9614600D02*
X9556293D01*
Y12444100D01*
X9558712Y12425722D01*
X9565806Y12408596D01*
X9577090Y12393890D01*
X9591796Y12382606D01*
X9608922Y12375512D01*
X9614600Y12374765D01*
Y12471400D01*
D02*
G37*
G36*
X8749600D02*
X8691292D01*
Y12444100D01*
X8693712Y12425722D01*
X8700806Y12408596D01*
X8712090Y12393890D01*
X8726796Y12382606D01*
X8743922Y12375512D01*
X8749600Y12374765D01*
Y12471400D01*
D02*
G37*
G36*
X7706225Y12458300D02*
X7686175D01*
X7667651Y12450627D01*
X7653473Y12436449D01*
X7645800Y12417925D01*
Y12397875D01*
X7653473Y12379351D01*
X7667651Y12365173D01*
X7686175Y12357500D01*
X7706225D01*
X7724749Y12365173D01*
X7738927Y12379351D01*
X7746600Y12397875D01*
Y12417925D01*
X7738927Y12436449D01*
X7724749Y12450627D01*
X7706225Y12458300D01*
D02*
G37*
G36*
X13970000Y12389992D02*
Y12353400D01*
X14006592D01*
X14000027Y12369249D01*
X13985849Y12383427D01*
X13970000Y12389992D01*
D02*
G37*
G36*
X13944600D02*
X13928751Y12383427D01*
X13914574Y12369249D01*
X13908008Y12353400D01*
X13944600D01*
Y12389992D01*
D02*
G37*
G36*
X6807200Y12342892D02*
Y12306300D01*
X6843792D01*
X6837227Y12322149D01*
X6823049Y12336327D01*
X6807200Y12342892D01*
D02*
G37*
G36*
X6781800D02*
X6765951Y12336327D01*
X6751773Y12322149D01*
X6745208Y12306300D01*
X6781800D01*
Y12342892D01*
D02*
G37*
G36*
X6642100D02*
Y12306300D01*
X6678692D01*
X6672127Y12322149D01*
X6657949Y12336327D01*
X6642100Y12342892D01*
D02*
G37*
G36*
X6616700D02*
X6600851Y12336327D01*
X6586673Y12322149D01*
X6580108Y12306300D01*
X6616700D01*
Y12342892D01*
D02*
G37*
G36*
X14006592Y12328000D02*
X13970000D01*
Y12291408D01*
X13985849Y12297973D01*
X14000027Y12312151D01*
X14006592Y12328000D01*
D02*
G37*
G36*
X13944600D02*
X13908008D01*
X13914574Y12312151D01*
X13928751Y12297973D01*
X13944600Y12291408D01*
Y12328000D01*
D02*
G37*
G36*
X6843792Y12280900D02*
X6807200D01*
Y12244308D01*
X6823049Y12250873D01*
X6837227Y12265051D01*
X6843792Y12280900D01*
D02*
G37*
G36*
X6781800D02*
X6745208D01*
X6751773Y12265051D01*
X6765951Y12250873D01*
X6781800Y12244308D01*
Y12280900D01*
D02*
G37*
G36*
X6678692D02*
X6642100D01*
Y12244308D01*
X6657949Y12250873D01*
X6672127Y12265051D01*
X6678692Y12280900D01*
D02*
G37*
G36*
X6616700D02*
X6580108D01*
X6586673Y12265051D01*
X6600851Y12250873D01*
X6616700Y12244308D01*
Y12280900D01*
D02*
G37*
G36*
X5547225Y12344000D02*
X5527175D01*
X5508651Y12336327D01*
X5494473Y12322149D01*
X5486800Y12303625D01*
Y12283575D01*
X5494473Y12265051D01*
X5508651Y12250873D01*
X5527175Y12243200D01*
X5547225D01*
X5565749Y12250873D01*
X5579927Y12265051D01*
X5587600Y12283575D01*
Y12303625D01*
X5579927Y12322149D01*
X5565749Y12336327D01*
X5547225Y12344000D01*
D02*
G37*
G36*
X17069009Y12517400D02*
X17056100D01*
Y12204700D01*
X17368800D01*
Y12217610D01*
X17360786Y12268198D01*
X17344960Y12316910D01*
X17321707Y12362547D01*
X17291602Y12403984D01*
X17255383Y12440201D01*
X17213947Y12470307D01*
X17168311Y12493560D01*
X17119598Y12509387D01*
X17069009Y12517400D01*
D02*
G37*
G36*
X17030701D02*
X17017790D01*
X16967203Y12509387D01*
X16918491Y12493560D01*
X16872853Y12470307D01*
X16831416Y12440201D01*
X16795200Y12403984D01*
X16765092Y12362547D01*
X16741840Y12316910D01*
X16726013Y12268198D01*
X16717999Y12217610D01*
Y12204700D01*
X17030701D01*
Y12517400D01*
D02*
G37*
G36*
X3073610Y12512700D02*
X3060700D01*
Y12200000D01*
X3373400D01*
Y12212910D01*
X3365387Y12263498D01*
X3349560Y12312210D01*
X3326307Y12357847D01*
X3296201Y12399284D01*
X3259984Y12435501D01*
X3218547Y12465607D01*
X3172910Y12488860D01*
X3124198Y12504687D01*
X3073610Y12512700D01*
D02*
G37*
G36*
X3035300D02*
X3022390D01*
X2971802Y12504687D01*
X2923090Y12488860D01*
X2877453Y12465607D01*
X2836016Y12435501D01*
X2799799Y12399284D01*
X2769693Y12357847D01*
X2746440Y12312210D01*
X2730613Y12263498D01*
X2722600Y12212910D01*
Y12200000D01*
X3035300D01*
Y12512700D01*
D02*
G37*
G36*
X8089900Y12203192D02*
Y12166600D01*
X8126492D01*
X8119927Y12182449D01*
X8105749Y12196627D01*
X8089900Y12203192D01*
D02*
G37*
G36*
X8064500D02*
X8048651Y12196627D01*
X8034473Y12182449D01*
X8027908Y12166600D01*
X8064500D01*
Y12203192D01*
D02*
G37*
G36*
X8126492Y12141200D02*
X8089900D01*
Y12104608D01*
X8105749Y12111173D01*
X8119927Y12125351D01*
X8126492Y12141200D01*
D02*
G37*
G36*
X8064500D02*
X8027908D01*
X8034473Y12125351D01*
X8048651Y12111173D01*
X8064500Y12104608D01*
Y12141200D01*
D02*
G37*
G36*
X9640000Y12191436D02*
Y12079800D01*
X9698308D01*
Y12122100D01*
X9695888Y12140478D01*
X9688794Y12157604D01*
X9677510Y12172310D01*
X9662804Y12183594D01*
X9645678Y12190688D01*
X9640000Y12191436D01*
D02*
G37*
G36*
X8775000D02*
Y12079800D01*
X8833307D01*
Y12122100D01*
X8830888Y12140478D01*
X8823794Y12157604D01*
X8812510Y12172310D01*
X8797804Y12183594D01*
X8780678Y12190688D01*
X8775000Y12191436D01*
D02*
G37*
G36*
X9614600D02*
X9608922Y12190688D01*
X9591796Y12183594D01*
X9577090Y12172310D01*
X9565806Y12157604D01*
X9558712Y12140478D01*
X9556293Y12122100D01*
Y12079800D01*
X9614600D01*
Y12191436D01*
D02*
G37*
G36*
X8749600D02*
X8743922Y12190688D01*
X8726796Y12183594D01*
X8712090Y12172310D01*
X8700806Y12157604D01*
X8693712Y12140478D01*
X8691292Y12122100D01*
Y12079800D01*
X8749600D01*
Y12191436D01*
D02*
G37*
G36*
X12915900Y12114292D02*
Y12077700D01*
X12952492D01*
X12945927Y12093549D01*
X12931749Y12107727D01*
X12915900Y12114292D01*
D02*
G37*
G36*
X12890500D02*
X12874651Y12107727D01*
X12860474Y12093549D01*
X12853908Y12077700D01*
X12890500D01*
Y12114292D01*
D02*
G37*
G36*
X8762300Y12067100D02*
D01*
D01*
D01*
D02*
G37*
G36*
X9494820Y12171500D02*
X9472780D01*
X9452418Y12163066D01*
X9436834Y12147481D01*
X9428400Y12127120D01*
Y12105080D01*
X9436834Y12084719D01*
X9452418Y12069134D01*
X9472780Y12060700D01*
X9494820D01*
X9515181Y12069134D01*
X9530766Y12084719D01*
X9539200Y12105080D01*
Y12127120D01*
X9530766Y12147481D01*
X9515181Y12163066D01*
X9494820Y12171500D01*
D02*
G37*
G36*
X8916820D02*
X8894780D01*
X8874419Y12163066D01*
X8858834Y12147481D01*
X8850400Y12127120D01*
Y12105080D01*
X8858834Y12084719D01*
X8874419Y12069134D01*
X8894780Y12060700D01*
X8916820D01*
X8937182Y12069134D01*
X8952766Y12084719D01*
X8961200Y12105080D01*
Y12127120D01*
X8952766Y12147481D01*
X8937182Y12163066D01*
X8916820Y12171500D01*
D02*
G37*
G36*
X5930900Y12095392D02*
Y12058800D01*
X5967492D01*
X5960927Y12074649D01*
X5946749Y12088827D01*
X5930900Y12095392D01*
D02*
G37*
G36*
X5905500D02*
X5889651Y12088827D01*
X5875473Y12074649D01*
X5868908Y12058800D01*
X5905500D01*
Y12095392D01*
D02*
G37*
G36*
X12952492Y12052300D02*
X12915900D01*
Y12015708D01*
X12931749Y12022273D01*
X12945927Y12036451D01*
X12952492Y12052300D01*
D02*
G37*
G36*
X12890500D02*
X12853908D01*
X12860474Y12036451D01*
X12874651Y12022273D01*
X12890500Y12015708D01*
Y12052300D01*
D02*
G37*
G36*
X5967492Y12033400D02*
X5930900D01*
Y11996808D01*
X5946749Y12003373D01*
X5960927Y12017551D01*
X5967492Y12033400D01*
D02*
G37*
G36*
X5905500D02*
X5868908D01*
X5875473Y12017551D01*
X5889651Y12003373D01*
X5905500Y11996808D01*
Y12033400D01*
D02*
G37*
G36*
X9698308Y12054400D02*
X9640000D01*
Y11942765D01*
X9645678Y11943512D01*
X9662804Y11950606D01*
X9677510Y11961890D01*
X9688794Y11976596D01*
X9695888Y11993722D01*
X9698308Y12012100D01*
Y12054400D01*
D02*
G37*
G36*
X8833307D02*
X8775000D01*
Y11942765D01*
X8780678Y11943512D01*
X8797804Y11950606D01*
X8812510Y11961890D01*
X8823794Y11976596D01*
X8830888Y11993722D01*
X8833307Y12012100D01*
Y12054400D01*
D02*
G37*
G36*
X9614600D02*
X9556293D01*
Y12012100D01*
X9558712Y11993722D01*
X9565806Y11976596D01*
X9577090Y11961890D01*
X9591796Y11950606D01*
X9608922Y11943512D01*
X9614600Y11942765D01*
Y12054400D01*
D02*
G37*
G36*
X8749600D02*
X8691292D01*
Y12012100D01*
X8693712Y11993722D01*
X8700806Y11976596D01*
X8712090Y11961890D01*
X8726796Y11950606D01*
X8743922Y11943512D01*
X8749600Y11942765D01*
Y12054400D01*
D02*
G37*
G36*
X12913225Y11988400D02*
X12893175D01*
X12874651Y11980727D01*
X12860474Y11966549D01*
X12852800Y11948025D01*
Y11927975D01*
X12860474Y11909451D01*
X12874651Y11895273D01*
X12893175Y11887600D01*
X12913225D01*
X12931749Y11895273D01*
X12945927Y11909451D01*
X12953600Y11927975D01*
Y11948025D01*
X12945927Y11966549D01*
X12931749Y11980727D01*
X12913225Y11988400D01*
D02*
G37*
G36*
X17368800Y12179300D02*
X17056100D01*
Y11866600D01*
X17069009D01*
X17119598Y11874613D01*
X17168311Y11890440D01*
X17213947Y11913693D01*
X17255383Y11943799D01*
X17291602Y11980016D01*
X17321707Y12021453D01*
X17344960Y12067090D01*
X17360786Y12115802D01*
X17368800Y12166390D01*
Y12179300D01*
D02*
G37*
G36*
X17030701D02*
X16717999D01*
Y12166390D01*
X16726013Y12115802D01*
X16741840Y12067090D01*
X16765092Y12021453D01*
X16795200Y11980016D01*
X16831416Y11943799D01*
X16872853Y11913693D01*
X16918491Y11890440D01*
X16967203Y11874613D01*
X17017790Y11866600D01*
X17030701D01*
Y12179300D01*
D02*
G37*
G36*
X14145125Y11963000D02*
X14125075D01*
X14106551Y11955327D01*
X14092374Y11941149D01*
X14084700Y11922625D01*
Y11902575D01*
X14092374Y11884051D01*
X14106551Y11869873D01*
X14125075Y11862200D01*
X14145125D01*
X14163649Y11869873D01*
X14177827Y11884051D01*
X14185500Y11902575D01*
Y11922625D01*
X14177827Y11941149D01*
X14163649Y11955327D01*
X14145125Y11963000D01*
D02*
G37*
G36*
X3373400Y12174600D02*
X3060700D01*
Y11861900D01*
X3073610D01*
X3124198Y11869913D01*
X3172910Y11885740D01*
X3218547Y11908993D01*
X3259984Y11939099D01*
X3296201Y11975316D01*
X3326307Y12016753D01*
X3349560Y12062390D01*
X3365387Y12111102D01*
X3373400Y12161690D01*
Y12174600D01*
D02*
G37*
G36*
X3035300D02*
X2722600D01*
Y12161690D01*
X2730613Y12111102D01*
X2746440Y12062390D01*
X2769693Y12016753D01*
X2799799Y11975316D01*
X2836016Y11939099D01*
X2877453Y11908993D01*
X2923090Y11885740D01*
X2971802Y11869913D01*
X3022390Y11861900D01*
X3035300D01*
Y12174600D01*
D02*
G37*
G36*
X5054600Y11847592D02*
Y11811000D01*
X5091192D01*
X5084627Y11826850D01*
X5070449Y11841027D01*
X5054600Y11847592D01*
D02*
G37*
G36*
X5029200D02*
X5013351Y11841027D01*
X4999173Y11826850D01*
X4992608Y11811000D01*
X5029200D01*
Y11847592D01*
D02*
G37*
G36*
X5091192Y11785600D02*
X5054600D01*
Y11749008D01*
X5070449Y11755573D01*
X5084627Y11769751D01*
X5091192Y11785600D01*
D02*
G37*
G36*
X5029200D02*
X4992608D01*
X4999173Y11769751D01*
X5013351Y11755573D01*
X5029200Y11749008D01*
Y11785600D01*
D02*
G37*
G36*
X10201700Y11745992D02*
Y11709400D01*
X10238292D01*
X10231727Y11725249D01*
X10217549Y11739427D01*
X10201700Y11745992D01*
D02*
G37*
G36*
X10176300D02*
X10160451Y11739427D01*
X10146273Y11725249D01*
X10139708Y11709400D01*
X10176300D01*
Y11745992D01*
D02*
G37*
G36*
X11099800Y11733292D02*
Y11696700D01*
X11136392D01*
X11129827Y11712549D01*
X11115649Y11726727D01*
X11099800Y11733292D01*
D02*
G37*
G36*
X11074400D02*
X11058551Y11726727D01*
X11044373Y11712549D01*
X11037808Y11696700D01*
X11074400D01*
Y11733292D01*
D02*
G37*
G36*
X14081625Y11772500D02*
X14061575D01*
X14043051Y11764827D01*
X14028873Y11750649D01*
X14021201Y11732125D01*
Y11712075D01*
X14028873Y11693551D01*
X14043051Y11679373D01*
X14061575Y11671700D01*
X14081625D01*
X14100150Y11679373D01*
X14114326Y11693551D01*
X14122000Y11712075D01*
Y11732125D01*
X14114326Y11750649D01*
X14100150Y11764827D01*
X14081625Y11772500D01*
D02*
G37*
G36*
X10238292Y11684000D02*
X10201700D01*
Y11647408D01*
X10217549Y11653973D01*
X10231727Y11668151D01*
X10238292Y11684000D01*
D02*
G37*
G36*
X10176300D02*
X10139708D01*
X10146273Y11668151D01*
X10160451Y11653973D01*
X10176300Y11647408D01*
Y11684000D01*
D02*
G37*
G36*
X11136392Y11671300D02*
X11099800D01*
Y11634708D01*
X11115649Y11641273D01*
X11129827Y11655451D01*
X11136392Y11671300D01*
D02*
G37*
G36*
X11074400D02*
X11037808D01*
X11044373Y11655451D01*
X11058551Y11641273D01*
X11074400Y11634708D01*
Y11671300D01*
D02*
G37*
G36*
X12598400Y11631692D02*
Y11595100D01*
X12634992D01*
X12628427Y11610949D01*
X12614249Y11625127D01*
X12598400Y11631692D01*
D02*
G37*
G36*
X12573000D02*
X12557151Y11625127D01*
X12542973Y11610949D01*
X12536408Y11595100D01*
X12573000D01*
Y11631692D01*
D02*
G37*
G36*
X12634992Y11569700D02*
X12598400D01*
Y11533108D01*
X12614249Y11539673D01*
X12628427Y11553851D01*
X12634992Y11569700D01*
D02*
G37*
G36*
X12573000D02*
X12536408D01*
X12542973Y11553851D01*
X12557151Y11539673D01*
X12573000Y11533108D01*
Y11569700D01*
D02*
G37*
G36*
X13726025Y11467700D02*
X13705975D01*
X13687451Y11460027D01*
X13673273Y11445849D01*
X13665601Y11427325D01*
Y11407275D01*
X13673273Y11388751D01*
X13687451Y11374573D01*
X13705975Y11366900D01*
X13726025D01*
X13744550Y11374573D01*
X13758727Y11388751D01*
X13766400Y11407275D01*
Y11427325D01*
X13758727Y11445849D01*
X13744550Y11460027D01*
X13726025Y11467700D01*
D02*
G37*
G36*
X12760825Y11429600D02*
X12740775D01*
X12722251Y11421927D01*
X12708073Y11407749D01*
X12700400Y11389225D01*
Y11369175D01*
X12708073Y11350651D01*
X12722251Y11336473D01*
X12740775Y11328800D01*
X12760825D01*
X12779349Y11336473D01*
X12793527Y11350651D01*
X12801199Y11369175D01*
Y11389225D01*
X12793527Y11407749D01*
X12779349Y11421927D01*
X12760825Y11429600D01*
D02*
G37*
G36*
X6769100Y11352292D02*
Y11315700D01*
X6805692D01*
X6799127Y11331549D01*
X6784949Y11345727D01*
X6769100Y11352292D01*
D02*
G37*
G36*
X6743700D02*
X6727851Y11345727D01*
X6713673Y11331549D01*
X6707108Y11315700D01*
X6743700D01*
Y11352292D01*
D02*
G37*
G36*
X6877425Y11395100D02*
X6857375D01*
X6838851Y11387427D01*
X6824673Y11373250D01*
X6817000Y11354725D01*
Y11334675D01*
X6824673Y11316151D01*
X6838851Y11301973D01*
X6857375Y11294300D01*
X6877425D01*
X6895949Y11301973D01*
X6910127Y11316151D01*
X6917800Y11334675D01*
Y11354725D01*
X6910127Y11373250D01*
X6895949Y11387427D01*
X6877425Y11395100D01*
D02*
G37*
G36*
X14969000Y11390050D02*
X14948950D01*
X14930426Y11382377D01*
X14916248Y11368199D01*
X14908575Y11349675D01*
Y11329625D01*
X14916248Y11311101D01*
X14930426Y11296923D01*
X14948950Y11289250D01*
X14969000D01*
X14987524Y11296923D01*
X15001701Y11311101D01*
X15009375Y11329625D01*
Y11349675D01*
X15001701Y11368199D01*
X14987524Y11382377D01*
X14969000Y11390050D01*
D02*
G37*
G36*
X6805692Y11290300D02*
X6769100D01*
Y11253708D01*
X6784949Y11260273D01*
X6799127Y11274451D01*
X6805692Y11290300D01*
D02*
G37*
G36*
X6743700D02*
X6707108D01*
X6713673Y11274451D01*
X6727851Y11260273D01*
X6743700Y11253708D01*
Y11290300D01*
D02*
G37*
G36*
X14859000Y11263392D02*
Y11226800D01*
X14895592D01*
X14889027Y11242649D01*
X14874849Y11256827D01*
X14859000Y11263392D01*
D02*
G37*
G36*
X14833600D02*
X14817751Y11256827D01*
X14803574Y11242649D01*
X14797008Y11226800D01*
X14833600D01*
Y11263392D01*
D02*
G37*
G36*
X6055225Y11315300D02*
X6035175D01*
X6016651Y11307627D01*
X6002473Y11293449D01*
X5994800Y11274925D01*
Y11254875D01*
X6002473Y11236351D01*
X6016651Y11222173D01*
X6035175Y11214500D01*
X6055225D01*
X6073749Y11222173D01*
X6087927Y11236351D01*
X6095600Y11254875D01*
Y11274925D01*
X6087927Y11293449D01*
X6073749Y11307627D01*
X6055225Y11315300D01*
D02*
G37*
G36*
X5801225D02*
X5781175D01*
X5762651Y11307627D01*
X5748473Y11293449D01*
X5740800Y11274925D01*
Y11254875D01*
X5748473Y11236351D01*
X5762651Y11222173D01*
X5781175Y11214500D01*
X5801225D01*
X5819749Y11222173D01*
X5833927Y11236351D01*
X5841600Y11254875D01*
Y11274925D01*
X5833927Y11293449D01*
X5819749Y11307627D01*
X5801225Y11315300D01*
D02*
G37*
G36*
X4543925Y11289900D02*
X4523875D01*
X4505351Y11282227D01*
X4491173Y11268049D01*
X4483500Y11249525D01*
Y11229475D01*
X4491173Y11210951D01*
X4505351Y11196773D01*
X4523875Y11189100D01*
X4543925D01*
X4562449Y11196773D01*
X4576627Y11210951D01*
X4584300Y11229475D01*
Y11249525D01*
X4576627Y11268049D01*
X4562449Y11282227D01*
X4543925Y11289900D01*
D02*
G37*
G36*
X5547225Y11277200D02*
X5527175D01*
X5508651Y11269527D01*
X5494473Y11255349D01*
X5486800Y11236825D01*
Y11216775D01*
X5494473Y11198251D01*
X5508651Y11184073D01*
X5527175Y11176400D01*
X5547225D01*
X5565749Y11184073D01*
X5579927Y11198251D01*
X5587600Y11216775D01*
Y11236825D01*
X5579927Y11255349D01*
X5565749Y11269527D01*
X5547225Y11277200D01*
D02*
G37*
G36*
X14895592Y11201400D02*
X14859000D01*
Y11164808D01*
X14874849Y11171373D01*
X14889027Y11185551D01*
X14895592Y11201400D01*
D02*
G37*
G36*
X14833600D02*
X14797008D01*
X14803574Y11185551D01*
X14817751Y11171373D01*
X14833600Y11164808D01*
Y11201400D01*
D02*
G37*
G36*
X14901199Y11064292D02*
Y11027700D01*
X14937791D01*
X14931227Y11043549D01*
X14917049Y11057727D01*
X14901199Y11064292D01*
D02*
G37*
G36*
X14875800D02*
X14859950Y11057727D01*
X14845773Y11043549D01*
X14839207Y11027700D01*
X14875800D01*
Y11064292D01*
D02*
G37*
G36*
X9179425Y11077052D02*
X9159375D01*
X9140851Y11069379D01*
X9126673Y11055201D01*
X9119000Y11036677D01*
Y11016627D01*
X9126673Y10998103D01*
X9140851Y10983925D01*
X9159375Y10976252D01*
X9179425D01*
X9197949Y10983925D01*
X9205974Y10991950D01*
X9217051Y10980873D01*
X9235575Y10973200D01*
X9255625D01*
X9274149Y10980873D01*
X9288327Y10995051D01*
X9296000Y11013575D01*
Y11033625D01*
X9288327Y11052149D01*
X9274149Y11066327D01*
X9255625Y11074000D01*
X9235575D01*
X9217051Y11066327D01*
X9209026Y11058302D01*
X9197949Y11069379D01*
X9179425Y11077052D01*
D02*
G37*
G36*
X14937791Y11002300D02*
X14901199D01*
Y10965708D01*
X14917049Y10972273D01*
X14931227Y10986451D01*
X14937791Y11002300D01*
D02*
G37*
G36*
X14875800D02*
X14839207D01*
X14845773Y10986451D01*
X14859950Y10972273D01*
X14875800Y10965708D01*
Y11002300D01*
D02*
G37*
G36*
X15770724Y10959700D02*
X15750674D01*
X15732150Y10952027D01*
X15717973Y10937849D01*
X15710300Y10919325D01*
Y10899275D01*
X15717973Y10880751D01*
X15732150Y10866573D01*
X15750674Y10858900D01*
X15770724D01*
X15789249Y10866573D01*
X15803427Y10880751D01*
X15811099Y10899275D01*
Y10919325D01*
X15803427Y10937849D01*
X15789249Y10952027D01*
X15770724Y10959700D01*
D02*
G37*
G36*
X16833388Y11051300D02*
X16825200D01*
Y10798600D01*
X17077901D01*
Y10806787D01*
X17071365Y10848048D01*
X17058456Y10887778D01*
X17039490Y10925000D01*
X17014935Y10958796D01*
X16985397Y10988336D01*
X16951601Y11012890D01*
X16914378Y11031856D01*
X16874648Y11044765D01*
X16833388Y11051300D01*
D02*
G37*
G36*
X16799800D02*
X16791612D01*
X16750352Y11044765D01*
X16710622Y11031856D01*
X16673399Y11012890D01*
X16639603Y10988336D01*
X16610065Y10958796D01*
X16585510Y10925000D01*
X16566544Y10887778D01*
X16553635Y10848048D01*
X16547099Y10806787D01*
Y10798600D01*
X16799800D01*
Y11051300D01*
D02*
G37*
G36*
X5764025Y10705700D02*
X5743975D01*
X5725451Y10698027D01*
X5715900Y10688476D01*
X5706349Y10698027D01*
X5687825Y10705700D01*
X5667775D01*
X5649251Y10698027D01*
X5641647Y10690423D01*
X5633350Y10684980D01*
X5625053Y10690423D01*
X5617449Y10698027D01*
X5598925Y10705700D01*
X5578875D01*
X5560351Y10698027D01*
X5550800Y10688476D01*
X5541249Y10698027D01*
X5522725Y10705700D01*
X5502675D01*
X5484151Y10698027D01*
X5469973Y10683849D01*
X5462300Y10665325D01*
Y10645275D01*
X5469973Y10626751D01*
X5484151Y10612573D01*
X5502675Y10604900D01*
X5522725D01*
X5541249Y10612573D01*
X5550800Y10622124D01*
X5560351Y10612573D01*
X5578875Y10604900D01*
X5598925D01*
X5617449Y10612573D01*
X5625053Y10620177D01*
X5633350Y10625620D01*
X5641647Y10620177D01*
X5649251Y10612573D01*
X5667775Y10604900D01*
X5687825D01*
X5706349Y10612573D01*
X5715900Y10622124D01*
X5725451Y10612573D01*
X5743975Y10604900D01*
X5764025D01*
X5782549Y10612573D01*
X5796727Y10626751D01*
X5804400Y10645275D01*
Y10665325D01*
X5796727Y10683849D01*
X5782549Y10698027D01*
X5764025Y10705700D01*
D02*
G37*
G36*
X11112500Y10717292D02*
Y10680700D01*
X11149092D01*
X11142527Y10696549D01*
X11128349Y10710727D01*
X11112500Y10717292D01*
D02*
G37*
G36*
X11087100D02*
X11071251Y10710727D01*
X11057073Y10696549D01*
X11050508Y10680700D01*
X11087100D01*
Y10717292D01*
D02*
G37*
G36*
X12598400Y10691892D02*
Y10655300D01*
X12634992D01*
X12628427Y10671149D01*
X12614249Y10685327D01*
X12598400Y10691892D01*
D02*
G37*
G36*
X12573000D02*
X12557151Y10685327D01*
X12542973Y10671149D01*
X12536408Y10655300D01*
X12573000D01*
Y10691892D01*
D02*
G37*
G36*
X10680700Y10679192D02*
Y10642600D01*
X10717292D01*
X10710727Y10658449D01*
X10696549Y10672627D01*
X10680700Y10679192D01*
D02*
G37*
G36*
X10655300D02*
X10639451Y10672627D01*
X10625273Y10658449D01*
X10618708Y10642600D01*
X10655300D01*
Y10679192D01*
D02*
G37*
G36*
X11149092Y10655300D02*
X11112500D01*
Y10618708D01*
X11128349Y10625273D01*
X11142527Y10639451D01*
X11149092Y10655300D01*
D02*
G37*
G36*
X11087100D02*
X11050508D01*
X11057073Y10639451D01*
X11071251Y10625273D01*
X11087100Y10618708D01*
Y10655300D01*
D02*
G37*
G36*
X12634992Y10629900D02*
X12598400D01*
Y10593308D01*
X12614249Y10599873D01*
X12628427Y10614051D01*
X12634992Y10629900D01*
D02*
G37*
G36*
X12573000D02*
X12536408D01*
X12542973Y10614051D01*
X12557151Y10599873D01*
X12573000Y10593308D01*
Y10629900D01*
D02*
G37*
G36*
X6563225Y10684775D02*
X6543175D01*
X6524651Y10677102D01*
X6510473Y10662925D01*
X6502800Y10644400D01*
Y10624350D01*
X6510473Y10605826D01*
X6524651Y10591648D01*
X6543175Y10583975D01*
X6563225D01*
X6581749Y10591648D01*
X6595927Y10605826D01*
X6603600Y10624350D01*
Y10644400D01*
X6595927Y10662925D01*
X6581749Y10677102D01*
X6563225Y10684775D01*
D02*
G37*
G36*
X10717292Y10617200D02*
X10680700D01*
Y10580608D01*
X10696549Y10587173D01*
X10710727Y10601351D01*
X10717292Y10617200D01*
D02*
G37*
G36*
X10655300D02*
X10618708D01*
X10625273Y10601351D01*
X10639451Y10587173D01*
X10655300Y10580608D01*
Y10617200D01*
D02*
G37*
G36*
X10360525Y10667600D02*
X10340475D01*
X10321951Y10659927D01*
X10307773Y10645749D01*
X10300100Y10627225D01*
Y10607175D01*
X10307773Y10588651D01*
X10321951Y10574473D01*
X10340475Y10566800D01*
X10360525D01*
X10379049Y10574473D01*
X10393485Y10570948D01*
X10396673Y10563251D01*
X10410851Y10549073D01*
X10429375Y10541400D01*
X10449425D01*
X10467949Y10549073D01*
X10482127Y10563251D01*
X10489800Y10581775D01*
Y10601825D01*
X10482127Y10620349D01*
X10467949Y10634527D01*
X10449425Y10642200D01*
X10429375D01*
X10410851Y10634527D01*
X10396415Y10638052D01*
X10393227Y10645749D01*
X10379049Y10659927D01*
X10360525Y10667600D01*
D02*
G37*
G36*
X10170025Y10832700D02*
X10149975D01*
X10131451Y10825027D01*
X10117273Y10810849D01*
X10109600Y10792325D01*
Y10772275D01*
X10117273Y10753751D01*
X10131451Y10739573D01*
X10134347Y10738373D01*
Y10724627D01*
X10131451Y10723427D01*
X10117273Y10709249D01*
X10109600Y10690725D01*
Y10670675D01*
X10117273Y10652151D01*
X10131451Y10637973D01*
X10134347Y10636773D01*
Y10623027D01*
X10131451Y10621827D01*
X10117273Y10607649D01*
X10109600Y10589125D01*
Y10569075D01*
X10117273Y10550551D01*
X10131451Y10536373D01*
X10149975Y10528700D01*
X10170025D01*
X10188549Y10536373D01*
X10202727Y10550551D01*
X10210400Y10569075D01*
Y10589125D01*
X10202727Y10607649D01*
X10188549Y10621827D01*
X10185653Y10623027D01*
Y10636773D01*
X10188549Y10637973D01*
X10202727Y10652151D01*
X10210400Y10670675D01*
Y10690725D01*
X10202727Y10709249D01*
X10188549Y10723427D01*
X10185653Y10724627D01*
Y10738373D01*
X10188549Y10739573D01*
X10202727Y10753751D01*
X10210400Y10772275D01*
Y10792325D01*
X10202727Y10810849D01*
X10188549Y10825027D01*
X10170025Y10832700D01*
D02*
G37*
G36*
X17077901Y10773200D02*
X16825200D01*
Y10520500D01*
X16833388D01*
X16874648Y10527035D01*
X16914378Y10539944D01*
X16951601Y10558910D01*
X16985397Y10583464D01*
X17014935Y10613003D01*
X17039490Y10646800D01*
X17058456Y10684022D01*
X17071365Y10723752D01*
X17077901Y10765013D01*
Y10773200D01*
D02*
G37*
G36*
X16799800D02*
X16547099D01*
Y10765013D01*
X16553635Y10723752D01*
X16566544Y10684022D01*
X16585510Y10646800D01*
X16610065Y10613003D01*
X16639603Y10583464D01*
X16673399Y10558910D01*
X16710622Y10539944D01*
X16750352Y10527035D01*
X16791612Y10520500D01*
X16799800D01*
Y10773200D01*
D02*
G37*
G36*
X6715794Y10616968D02*
X6695743D01*
X6677219Y10609295D01*
X6663042Y10595118D01*
X6655368Y10576594D01*
Y10556543D01*
X6663042Y10538019D01*
X6677219Y10523842D01*
X6695743Y10516168D01*
X6715794D01*
X6734318Y10523842D01*
X6748495Y10538019D01*
X6756168Y10556543D01*
Y10576594D01*
X6748495Y10595118D01*
X6734318Y10609295D01*
X6715794Y10616968D01*
D02*
G37*
G36*
X11112500Y10463292D02*
Y10426700D01*
X11149092D01*
X11142527Y10442549D01*
X11128349Y10456727D01*
X11112500Y10463292D01*
D02*
G37*
G36*
X11087100D02*
X11071251Y10456727D01*
X11057073Y10442549D01*
X11050508Y10426700D01*
X11087100D01*
Y10463292D01*
D02*
G37*
G36*
X3924300Y10450592D02*
Y10414000D01*
X3960892D01*
X3954327Y10429849D01*
X3940149Y10444027D01*
X3924300Y10450592D01*
D02*
G37*
G36*
X3898900D02*
X3883051Y10444027D01*
X3868873Y10429849D01*
X3862308Y10414000D01*
X3898900D01*
Y10450592D01*
D02*
G37*
G36*
X11149092Y10401300D02*
X11112500D01*
Y10364708D01*
X11128349Y10371273D01*
X11142527Y10385451D01*
X11149092Y10401300D01*
D02*
G37*
G36*
X11087100D02*
X11050508D01*
X11057073Y10385451D01*
X11071251Y10371273D01*
X11087100Y10364708D01*
Y10401300D01*
D02*
G37*
G36*
X15452800Y10396692D02*
Y10360100D01*
X15489392D01*
X15482828Y10375949D01*
X15468649Y10390127D01*
X15452800Y10396692D01*
D02*
G37*
G36*
X15427400D02*
X15411551Y10390127D01*
X15397372Y10375949D01*
X15390808Y10360100D01*
X15427400D01*
Y10396692D01*
D02*
G37*
G36*
X3960892Y10388600D02*
X3924300D01*
Y10352008D01*
X3940149Y10358573D01*
X3954327Y10372751D01*
X3960892Y10388600D01*
D02*
G37*
G36*
X3898900D02*
X3862308D01*
X3868873Y10372751D01*
X3883051Y10358573D01*
X3898900Y10352008D01*
Y10388600D01*
D02*
G37*
G36*
X11300325Y10426300D02*
X11280275D01*
X11261751Y10418627D01*
X11247573Y10404449D01*
X11239900Y10385925D01*
Y10365875D01*
X11247573Y10347351D01*
X11261751Y10333173D01*
X11280275Y10325500D01*
X11300325D01*
X11318849Y10333173D01*
X11333027Y10347351D01*
X11340700Y10365875D01*
Y10385925D01*
X11333027Y10404449D01*
X11318849Y10418627D01*
X11300325Y10426300D01*
D02*
G37*
G36*
X10414000Y10361692D02*
Y10325100D01*
X10450592D01*
X10444027Y10340949D01*
X10429849Y10355127D01*
X10414000Y10361692D01*
D02*
G37*
G36*
X10388600D02*
X10372751Y10355127D01*
X10358573Y10340949D01*
X10352008Y10325100D01*
X10388600D01*
Y10361692D01*
D02*
G37*
G36*
X11468100Y10336292D02*
Y10299700D01*
X11504692D01*
X11498127Y10315549D01*
X11483949Y10329727D01*
X11468100Y10336292D01*
D02*
G37*
G36*
X11442700D02*
X11426851Y10329727D01*
X11412673Y10315549D01*
X11406108Y10299700D01*
X11442700D01*
Y10336292D01*
D02*
G37*
G36*
X15489392Y10334700D02*
X15452800D01*
Y10298108D01*
X15468649Y10304673D01*
X15482828Y10318851D01*
X15489392Y10334700D01*
D02*
G37*
G36*
X15427400D02*
X15390808D01*
X15397372Y10318851D01*
X15411551Y10304673D01*
X15427400Y10298108D01*
Y10334700D01*
D02*
G37*
G36*
X15021425Y10515200D02*
X15001375D01*
X14982851Y10507527D01*
X14968674Y10493349D01*
X14961000Y10474825D01*
Y10454775D01*
X14951024Y10451700D01*
X14950575D01*
X14932051Y10444027D01*
X14917873Y10429849D01*
X14910201Y10411325D01*
Y10391275D01*
X14917873Y10372751D01*
X14932051Y10358573D01*
X14950575Y10350900D01*
X14961967D01*
X14971539Y10347412D01*
X14973700Y10339167D01*
Y10326575D01*
X14981374Y10308051D01*
X14995551Y10293873D01*
X15014075Y10286200D01*
X15034125D01*
X15052649Y10293873D01*
X15066827Y10308051D01*
X15074500Y10326575D01*
Y10346625D01*
X15066827Y10365149D01*
X15052649Y10379327D01*
X15034125Y10387000D01*
X15022733D01*
X15013161Y10390488D01*
X15011000Y10398733D01*
Y10411325D01*
X15020976Y10414400D01*
X15021425D01*
X15039949Y10422073D01*
X15054128Y10436251D01*
X15061800Y10454775D01*
Y10474825D01*
X15054128Y10493349D01*
X15039949Y10507527D01*
X15021425Y10515200D01*
D02*
G37*
G36*
X9148900Y10318692D02*
Y10282100D01*
X9185492D01*
X9178927Y10297949D01*
X9164749Y10312127D01*
X9148900Y10318692D01*
D02*
G37*
G36*
X9123500D02*
X9107651Y10312127D01*
X9093473Y10297949D01*
X9086908Y10282100D01*
X9123500D01*
Y10318692D01*
D02*
G37*
G36*
X10450592Y10299700D02*
X10414000D01*
Y10263108D01*
X10429849Y10269673D01*
X10444027Y10283851D01*
X10450592Y10299700D01*
D02*
G37*
G36*
X10388600D02*
X10352008D01*
X10358573Y10283851D01*
X10372751Y10269673D01*
X10388600Y10263108D01*
Y10299700D01*
D02*
G37*
G36*
X5741300Y10274592D02*
X5725451Y10268027D01*
X5715900Y10258476D01*
X5706349Y10268027D01*
X5690500Y10274592D01*
Y10225300D01*
Y10176008D01*
X5706349Y10182573D01*
X5715900Y10192124D01*
X5725451Y10182573D01*
X5741300Y10176008D01*
Y10225300D01*
Y10274592D01*
D02*
G37*
G36*
X5576200D02*
X5560351Y10268027D01*
X5550800Y10258476D01*
X5541249Y10268027D01*
X5525400Y10274592D01*
Y10225300D01*
Y10176008D01*
X5541249Y10182573D01*
X5550800Y10192124D01*
X5560351Y10182573D01*
X5576200Y10176008D01*
Y10225300D01*
Y10274592D01*
D02*
G37*
G36*
X5665100D02*
X5649251Y10268027D01*
X5641647Y10260423D01*
X5633350Y10254980D01*
X5625053Y10260423D01*
X5617449Y10268027D01*
X5601600Y10274592D01*
Y10225300D01*
Y10176008D01*
X5617449Y10182573D01*
X5625053Y10190177D01*
X5633350Y10195620D01*
X5641647Y10190177D01*
X5649251Y10182573D01*
X5665100Y10176008D01*
Y10225300D01*
Y10274592D01*
D02*
G37*
G36*
X5766700D02*
Y10238000D01*
X5803292D01*
X5796727Y10253849D01*
X5782549Y10268027D01*
X5766700Y10274592D01*
D02*
G37*
G36*
X5500000D02*
X5484151Y10268027D01*
X5469973Y10253849D01*
X5463408Y10238000D01*
X5500000D01*
Y10274592D01*
D02*
G37*
G36*
X11504692Y10274300D02*
X11468100D01*
Y10237708D01*
X11483949Y10244273D01*
X11498127Y10258451D01*
X11504692Y10274300D01*
D02*
G37*
G36*
X11442700D02*
X11406108D01*
X11412673Y10258451D01*
X11426851Y10244273D01*
X11442700Y10237708D01*
Y10274300D01*
D02*
G37*
G36*
X9185492Y10256700D02*
X9148900D01*
Y10220108D01*
X9164749Y10226673D01*
X9178927Y10240851D01*
X9185492Y10256700D01*
D02*
G37*
G36*
X9123500D02*
X9086908D01*
X9093473Y10240851D01*
X9107651Y10226673D01*
X9123500Y10220108D01*
Y10256700D01*
D02*
G37*
G36*
X3527025Y10197700D02*
X3506975D01*
X3488451Y10190027D01*
X3478900Y10180476D01*
X3469349Y10190027D01*
X3450825Y10197700D01*
X3430775D01*
X3412251Y10190027D01*
X3404647Y10182423D01*
X3396350Y10176980D01*
X3388053Y10182423D01*
X3380449Y10190027D01*
X3361925Y10197700D01*
X3341875D01*
X3323351Y10190027D01*
X3309173Y10175849D01*
X3307900Y10172776D01*
X3295200D01*
X3293927Y10175849D01*
X3279749Y10190027D01*
X3261225Y10197700D01*
X3241175D01*
X3222651Y10190027D01*
X3208473Y10175849D01*
X3200800Y10157325D01*
Y10137275D01*
X3208473Y10118751D01*
X3222651Y10104573D01*
X3241175Y10096900D01*
X3261225D01*
X3279749Y10104573D01*
X3293927Y10118751D01*
X3295200Y10121824D01*
X3307900D01*
X3309173Y10118751D01*
X3323351Y10104573D01*
X3341875Y10096900D01*
X3361925D01*
X3380449Y10104573D01*
X3388053Y10112177D01*
X3396350Y10117620D01*
X3404647Y10112177D01*
X3412251Y10104573D01*
X3430775Y10096900D01*
X3450825D01*
X3469349Y10104573D01*
X3478900Y10114124D01*
X3488451Y10104573D01*
X3506975Y10096900D01*
X3527025D01*
X3545549Y10104573D01*
X3559727Y10118751D01*
X3567400Y10137275D01*
Y10157325D01*
X3559727Y10175849D01*
X3545549Y10190027D01*
X3527025Y10197700D01*
D02*
G37*
G36*
X5803292Y10212600D02*
X5766700D01*
Y10176008D01*
X5782549Y10182573D01*
X5796727Y10196750D01*
X5803292Y10212600D01*
D02*
G37*
G36*
X5500000D02*
X5463408D01*
X5469973Y10196750D01*
X5484151Y10182573D01*
X5500000Y10176008D01*
Y10212600D01*
D02*
G37*
G36*
X11859125Y10108800D02*
X11839075D01*
X11820551Y10101127D01*
X11806373Y10086949D01*
X11798700Y10068425D01*
Y10048375D01*
X11806373Y10029851D01*
X11820551Y10015673D01*
X11839075Y10008000D01*
X11859125D01*
X11877649Y10015673D01*
X11891827Y10029851D01*
X11899500Y10048375D01*
Y10068425D01*
X11891827Y10086949D01*
X11877649Y10101127D01*
X11859125Y10108800D01*
D02*
G37*
G36*
X9712825Y10096100D02*
X9692775D01*
X9674251Y10088427D01*
X9660073Y10074249D01*
X9652400Y10055725D01*
Y10035675D01*
X9660073Y10017151D01*
X9674251Y10002973D01*
X9692775Y9995300D01*
X9712825D01*
X9731349Y10002973D01*
X9745527Y10017151D01*
X9753200Y10035675D01*
Y10055725D01*
X9745527Y10074249D01*
X9731349Y10088427D01*
X9712825Y10096100D01*
D02*
G37*
G36*
X9148900Y10023692D02*
Y9987100D01*
X9185492D01*
X9178927Y10002949D01*
X9164749Y10017127D01*
X9148900Y10023692D01*
D02*
G37*
G36*
X9123500D02*
X9107651Y10017127D01*
X9093473Y10002949D01*
X9086908Y9987100D01*
X9123500D01*
Y10023692D01*
D02*
G37*
G36*
X16711749Y10201375D02*
X16629250D01*
X16611852Y10199084D01*
X16595638Y10192368D01*
X16581715Y10181685D01*
X16571033Y10167762D01*
X16564316Y10151549D01*
X16562025Y10134150D01*
Y10051650D01*
X16564316Y10034251D01*
X16571033Y10018037D01*
X16581715Y10004115D01*
X16595638Y9993431D01*
X16611852Y9986715D01*
X16629250Y9984425D01*
X16711749D01*
X16729149Y9986715D01*
X16745361Y9993431D01*
X16759285Y10004115D01*
X16769968Y10018037D01*
X16776685Y10034251D01*
X16778975Y10051650D01*
Y10134150D01*
X16776685Y10151549D01*
X16769968Y10167762D01*
X16759285Y10181685D01*
X16745361Y10192368D01*
X16729149Y10199084D01*
X16711749Y10201375D01*
D02*
G37*
G36*
X10957425Y10067100D02*
X10937375D01*
X10918851Y10059427D01*
X10904673Y10045249D01*
X10897000Y10026725D01*
Y10006675D01*
X10904673Y9988151D01*
X10914282Y9978542D01*
X10912324Y9964044D01*
X10912269Y9963961D01*
X10906151Y9961427D01*
X10896600Y9951876D01*
X10887049Y9961427D01*
X10871200Y9967992D01*
Y9918700D01*
X10858500D01*
Y9906000D01*
X10809208D01*
X10815773Y9890151D01*
X10818974Y9886950D01*
X10815773Y9883749D01*
X10809208Y9867900D01*
X10858500D01*
Y9855200D01*
X10871200D01*
Y9805908D01*
X10887049Y9812473D01*
X10896600Y9822024D01*
X10906151Y9812473D01*
X10922000Y9805908D01*
Y9855200D01*
X10934700D01*
Y9867900D01*
X10983992D01*
X10977427Y9883749D01*
X10974226Y9886950D01*
X10977427Y9890151D01*
X10983992Y9906000D01*
X10934700D01*
Y9931400D01*
X10983992D01*
X10977427Y9947249D01*
X10967818Y9956858D01*
X10969776Y9971356D01*
X10969831Y9971439D01*
X10975949Y9973973D01*
X10990127Y9988151D01*
X10997800Y10006675D01*
Y10026725D01*
X10990127Y10045249D01*
X10975949Y10059427D01*
X10957425Y10067100D01*
D02*
G37*
G36*
X11163300Y9967992D02*
Y9931400D01*
X11199892D01*
X11193327Y9947249D01*
X11179149Y9961427D01*
X11163300Y9967992D01*
D02*
G37*
G36*
X10845800D02*
X10829951Y9961427D01*
X10815773Y9947249D01*
X10809208Y9931400D01*
X10845800D01*
Y9967992D01*
D02*
G37*
G36*
X9185492Y9961700D02*
X9148900D01*
Y9925108D01*
X9164749Y9931673D01*
X9178927Y9945851D01*
X9185492Y9961700D01*
D02*
G37*
G36*
X9123500D02*
X9086908D01*
X9093473Y9945851D01*
X9107651Y9931673D01*
X9123500Y9925108D01*
Y9961700D01*
D02*
G37*
G36*
X11935325Y10019900D02*
X11915275D01*
X11896751Y10012227D01*
X11882573Y9998049D01*
X11874900Y9979525D01*
Y9959475D01*
X11882573Y9940951D01*
X11896751Y9926773D01*
X11915275Y9919100D01*
X11935325D01*
X11953849Y9926773D01*
X11968027Y9940951D01*
X11975700Y9959475D01*
Y9979525D01*
X11968027Y9998049D01*
X11953849Y10012227D01*
X11935325Y10019900D01*
D02*
G37*
G36*
X11605125Y9956400D02*
X11585075D01*
X11566551Y9948727D01*
X11552373Y9934549D01*
X11544700Y9916025D01*
Y9895975D01*
X11552373Y9877451D01*
X11566551Y9863273D01*
X11585075Y9855600D01*
X11605125D01*
X11623649Y9863273D01*
X11637827Y9877451D01*
X11645500Y9895975D01*
Y9916025D01*
X11637827Y9934549D01*
X11623649Y9948727D01*
X11605125Y9956400D01*
D02*
G37*
G36*
X16968706Y10062300D02*
X16940295D01*
X16912852Y10054947D01*
X16888248Y10040741D01*
X16868159Y10020652D01*
X16853954Y9996048D01*
X16846600Y9968605D01*
Y9940195D01*
X16853954Y9912752D01*
X16868159Y9888148D01*
X16888248Y9868058D01*
X16912852Y9853853D01*
X16940295Y9846500D01*
X16968706D01*
X16996149Y9853853D01*
X17020752Y9868058D01*
X17040842Y9888148D01*
X17055048Y9912752D01*
X17062399Y9940195D01*
Y9968605D01*
X17055048Y9996048D01*
X17040842Y10020652D01*
X17020752Y10040741D01*
X16996149Y10054947D01*
X16968706Y10062300D01*
D02*
G37*
G36*
X16684705Y9923800D02*
X16683200D01*
Y9828601D01*
X16778400D01*
Y9830105D01*
X16771046Y9857548D01*
X16756842Y9882152D01*
X16736752Y9902241D01*
X16712148Y9916447D01*
X16684705Y9923800D01*
D02*
G37*
G36*
X16657800D02*
X16656294D01*
X16628851Y9916447D01*
X16604248Y9902241D01*
X16584158Y9882152D01*
X16569952Y9857548D01*
X16562601Y9830105D01*
Y9828601D01*
X16657800D01*
Y9923800D01*
D02*
G37*
G36*
X11199892Y9842500D02*
X11163300D01*
Y9805908D01*
X11179149Y9812473D01*
X11193327Y9826651D01*
X11199892Y9842500D01*
D02*
G37*
G36*
X11097125Y10067100D02*
X11077075D01*
X11058551Y10059427D01*
X11044373Y10045249D01*
X11036700Y10026725D01*
Y10006675D01*
X11044373Y9988151D01*
X11057702Y9974822D01*
X11058153Y9967700D01*
X11057702Y9960578D01*
X11044373Y9947249D01*
X11037808Y9931400D01*
X11087100D01*
Y9906000D01*
X11037808D01*
X11044373Y9890151D01*
X11047574Y9886950D01*
X11044373Y9883749D01*
X11037808Y9867900D01*
X11087100D01*
Y9855200D01*
X11099800D01*
Y9805908D01*
X11115649Y9812473D01*
X11118850Y9815674D01*
X11122051Y9812473D01*
X11137900Y9805908D01*
Y9855200D01*
X11150600D01*
Y9867900D01*
X11199892D01*
X11193327Y9883749D01*
X11190126Y9886950D01*
X11193327Y9890151D01*
X11199892Y9906000D01*
X11150600D01*
Y9918700D01*
X11137900D01*
Y9967992D01*
X11128988Y9964300D01*
X11124716Y9965423D01*
X11124633Y9965491D01*
X11123938Y9982261D01*
X11129827Y9988151D01*
X11137500Y10006675D01*
Y10026725D01*
X11129827Y10045249D01*
X11115649Y10059427D01*
X11097125Y10067100D01*
D02*
G37*
G36*
X11074400Y9842500D02*
X11037808D01*
X11044373Y9826651D01*
X11058551Y9812473D01*
X11074400Y9805908D01*
Y9842500D01*
D02*
G37*
G36*
X10983992D02*
X10947400D01*
Y9805908D01*
X10963249Y9812473D01*
X10977427Y9826651D01*
X10983992Y9842500D01*
D02*
G37*
G36*
X10845800D02*
X10809208D01*
X10815773Y9826651D01*
X10829951Y9812473D01*
X10845800Y9805908D01*
Y9842500D01*
D02*
G37*
G36*
X10414000Y9838052D02*
Y9801460D01*
X10450592D01*
X10444027Y9817309D01*
X10429849Y9831487D01*
X10414000Y9838052D01*
D02*
G37*
G36*
X10388600D02*
X10372751Y9831487D01*
X10358573Y9817309D01*
X10352008Y9801460D01*
X10388600D01*
Y9838052D01*
D02*
G37*
G36*
X9652000Y9828292D02*
Y9791700D01*
X9688592D01*
X9682027Y9807549D01*
X9667849Y9821727D01*
X9652000Y9828292D01*
D02*
G37*
G36*
X9626600D02*
X9610751Y9821727D01*
X9596573Y9807549D01*
X9590008Y9791700D01*
X9626600D01*
Y9828292D01*
D02*
G37*
G36*
X10450592Y9776060D02*
X10414000D01*
Y9739468D01*
X10429849Y9746033D01*
X10444027Y9760211D01*
X10450592Y9776060D01*
D02*
G37*
G36*
X10388600D02*
X10352008D01*
X10358573Y9760211D01*
X10372751Y9746033D01*
X10388600Y9739468D01*
Y9776060D01*
D02*
G37*
G36*
X9688592Y9766300D02*
X9652000D01*
Y9729708D01*
X9667849Y9736273D01*
X9682027Y9750451D01*
X9688592Y9766300D01*
D02*
G37*
G36*
X9626600D02*
X9590008D01*
X9596573Y9750451D01*
X9610751Y9736273D01*
X9626600Y9729708D01*
Y9766300D01*
D02*
G37*
G36*
X10754625Y9829400D02*
X10734575D01*
X10716051Y9821727D01*
X10701873Y9807549D01*
X10694200Y9789025D01*
Y9768975D01*
X10701873Y9750451D01*
X10716051Y9736273D01*
X10734575Y9728600D01*
X10754625D01*
X10773149Y9736273D01*
X10787327Y9750451D01*
X10795000Y9768975D01*
Y9789025D01*
X10787327Y9807549D01*
X10773149Y9821727D01*
X10754625Y9829400D01*
D02*
G37*
G36*
X16778400Y9803201D02*
X16683200D01*
Y9708000D01*
X16684705D01*
X16712148Y9715353D01*
X16736752Y9729558D01*
X16756842Y9749648D01*
X16771046Y9774252D01*
X16778400Y9801695D01*
Y9803201D01*
D02*
G37*
G36*
X16657800D02*
X16562601D01*
Y9801695D01*
X16569952Y9774252D01*
X16584158Y9749648D01*
X16604248Y9729558D01*
X16628851Y9715353D01*
X16656294Y9708000D01*
X16657800D01*
Y9803201D01*
D02*
G37*
G36*
X9789025Y9791300D02*
X9768975D01*
X9750451Y9783627D01*
X9736273Y9769449D01*
X9728600Y9750925D01*
Y9730875D01*
X9736273Y9712351D01*
X9750451Y9698173D01*
X9768975Y9690500D01*
X9789025D01*
X9807549Y9698173D01*
X9821727Y9712351D01*
X9829400Y9730875D01*
Y9750925D01*
X9821727Y9769449D01*
X9807549Y9783627D01*
X9789025Y9791300D01*
D02*
G37*
G36*
X9885600Y9699392D02*
Y9662800D01*
X9922192D01*
X9915627Y9678649D01*
X9901449Y9692827D01*
X9885600Y9699392D01*
D02*
G37*
G36*
X9860200D02*
X9844351Y9692827D01*
X9830173Y9678649D01*
X9823608Y9662800D01*
X9860200D01*
Y9699392D01*
D02*
G37*
G36*
X10284325Y9778600D02*
X10264275D01*
X10245751Y9770927D01*
X10231573Y9756749D01*
X10223900Y9738225D01*
Y9718175D01*
X10231573Y9699651D01*
X10245751Y9685473D01*
X10264275Y9677800D01*
X10280188D01*
X10287764Y9669305D01*
X10289074Y9666067D01*
X10287400Y9662025D01*
Y9641975D01*
X10295073Y9623451D01*
X10309251Y9609273D01*
X10327775Y9601600D01*
X10347825D01*
X10366349Y9609273D01*
X10380527Y9623451D01*
X10388200Y9641975D01*
Y9662025D01*
X10380527Y9680549D01*
X10366349Y9694727D01*
X10347825Y9702400D01*
X10331912D01*
X10324336Y9710895D01*
X10323026Y9714133D01*
X10324700Y9718175D01*
Y9738225D01*
X10317027Y9756749D01*
X10302849Y9770927D01*
X10284325Y9778600D01*
D02*
G37*
G36*
X9922192Y9637400D02*
X9885600D01*
Y9600808D01*
X9901449Y9607373D01*
X9915627Y9621551D01*
X9922192Y9637400D01*
D02*
G37*
G36*
X9860200D02*
X9823608D01*
X9830173Y9621551D01*
X9844351Y9607373D01*
X9860200Y9600808D01*
Y9637400D01*
D02*
G37*
G36*
X3924300Y9625092D02*
Y9588500D01*
X3960892D01*
X3954327Y9604349D01*
X3940149Y9618527D01*
X3924300Y9625092D01*
D02*
G37*
G36*
X3898900D02*
X3883051Y9618527D01*
X3868873Y9604349D01*
X3862308Y9588500D01*
X3898900D01*
Y9625092D01*
D02*
G37*
G36*
X5928225Y9600800D02*
X5908175D01*
X5889651Y9593127D01*
X5880100Y9583576D01*
X5870549Y9593127D01*
X5852025Y9600800D01*
X5831975D01*
X5813451Y9593127D01*
X5805847Y9585523D01*
X5797550Y9580080D01*
X5789253Y9585523D01*
X5781649Y9593127D01*
X5763125Y9600800D01*
X5743075D01*
X5724551Y9593127D01*
X5715000Y9583576D01*
X5705449Y9593127D01*
X5686925Y9600800D01*
X5666875D01*
X5648351Y9593127D01*
X5634173Y9578949D01*
X5626500Y9560425D01*
Y9540375D01*
X5634173Y9521851D01*
X5648351Y9507673D01*
X5666875Y9500000D01*
X5686925D01*
X5705449Y9507673D01*
X5715000Y9517224D01*
X5724551Y9507673D01*
X5743075Y9500000D01*
X5763125D01*
X5781649Y9507673D01*
X5789253Y9515277D01*
X5797550Y9520720D01*
X5805847Y9515277D01*
X5813451Y9507673D01*
X5831975Y9500000D01*
X5852025D01*
X5870549Y9507673D01*
X5880100Y9517224D01*
X5889651Y9507673D01*
X5908175Y9500000D01*
X5928225D01*
X5946749Y9507673D01*
X5960927Y9521851D01*
X5968600Y9540375D01*
Y9560425D01*
X5960927Y9578949D01*
X5946749Y9593127D01*
X5928225Y9600800D01*
D02*
G37*
G36*
X16968706Y9785300D02*
X16940295D01*
X16912852Y9777947D01*
X16888248Y9763741D01*
X16868159Y9743652D01*
X16853954Y9719048D01*
X16846600Y9691605D01*
Y9663195D01*
X16853954Y9635752D01*
X16868159Y9611148D01*
X16888248Y9591059D01*
X16912852Y9576853D01*
X16940295Y9569500D01*
X16968706D01*
X16996149Y9576853D01*
X17020752Y9591059D01*
X17040842Y9611148D01*
X17055048Y9635752D01*
X17062399Y9663195D01*
Y9691605D01*
X17055048Y9719048D01*
X17040842Y9743652D01*
X17020752Y9763741D01*
X16996149Y9777947D01*
X16968706Y9785300D01*
D02*
G37*
G36*
X3960892Y9563100D02*
X3924300D01*
Y9526508D01*
X3940149Y9533073D01*
X3954327Y9547251D01*
X3960892Y9563100D01*
D02*
G37*
G36*
X3898900D02*
X3862308D01*
X3868873Y9547251D01*
X3883051Y9533073D01*
X3898900Y9526508D01*
Y9563100D01*
D02*
G37*
G36*
X10754225Y9715100D02*
X10734175D01*
X10715651Y9707427D01*
X10701473Y9693249D01*
X10693800Y9674725D01*
Y9654675D01*
X10701473Y9636151D01*
X10715651Y9621973D01*
X10718547Y9620773D01*
Y9607027D01*
X10715651Y9605827D01*
X10701473Y9591649D01*
X10693800Y9573125D01*
Y9553075D01*
X10701473Y9534551D01*
X10715651Y9520373D01*
X10734175Y9512700D01*
X10754225D01*
X10772749Y9520373D01*
X10786927Y9534551D01*
X10794600Y9553075D01*
Y9573125D01*
X10786927Y9591649D01*
X10772749Y9605827D01*
X10769853Y9607027D01*
Y9620773D01*
X10772749Y9621973D01*
X10786927Y9636151D01*
X10794600Y9654675D01*
Y9674725D01*
X10786927Y9693249D01*
X10772749Y9707427D01*
X10754225Y9715100D01*
D02*
G37*
G36*
X11109825Y9563100D02*
X11089775D01*
X11071251Y9555427D01*
X11057073Y9541249D01*
X11049400Y9522725D01*
Y9502675D01*
X11057073Y9484151D01*
X11071251Y9469973D01*
X11089775Y9462300D01*
X11109825D01*
X11128349Y9469973D01*
X11142527Y9484151D01*
X11143644Y9486847D01*
X11157390D01*
X11158673Y9483751D01*
X11172851Y9469573D01*
X11191375Y9461900D01*
X11211425D01*
X11229949Y9469573D01*
X11244127Y9483751D01*
X11251800Y9502275D01*
Y9522325D01*
X11244127Y9540849D01*
X11229949Y9555027D01*
X11211425Y9562700D01*
X11191375D01*
X11172851Y9555027D01*
X11158673Y9540849D01*
X11157556Y9538153D01*
X11143810D01*
X11142527Y9541249D01*
X11128349Y9555427D01*
X11109825Y9563100D01*
D02*
G37*
G36*
X11440025Y9550000D02*
X11419975D01*
X11401451Y9542327D01*
X11387273Y9528149D01*
X11379600Y9509625D01*
Y9489575D01*
X11387273Y9471051D01*
X11401451Y9456873D01*
X11419975Y9449200D01*
X11440025D01*
X11458549Y9456873D01*
X11472727Y9471051D01*
X11480400Y9489575D01*
Y9509625D01*
X11472727Y9528149D01*
X11458549Y9542327D01*
X11440025Y9550000D01*
D02*
G37*
G36*
X16684705Y9646800D02*
X16656294D01*
X16628851Y9639447D01*
X16604248Y9625241D01*
X16584158Y9605152D01*
X16569952Y9580548D01*
X16562601Y9553105D01*
Y9524695D01*
X16569952Y9497252D01*
X16584158Y9472648D01*
X16604248Y9452558D01*
X16628851Y9438353D01*
X16656294Y9431000D01*
X16684705D01*
X16712148Y9438353D01*
X16736752Y9452558D01*
X16756842Y9472648D01*
X16771046Y9497252D01*
X16778400Y9524695D01*
Y9553105D01*
X16771046Y9580548D01*
X16756842Y9605152D01*
X16736752Y9625241D01*
X16712148Y9639447D01*
X16684705Y9646800D01*
D02*
G37*
G36*
X10565266Y9437241D02*
X10545216D01*
X10526691Y9429568D01*
X10517547Y9420423D01*
X10510928Y9416081D01*
X10500953Y9420423D01*
X10493349Y9428027D01*
X10474825Y9435700D01*
X10454775D01*
X10436251Y9428027D01*
X10422073Y9413849D01*
X10414400Y9395325D01*
Y9375275D01*
X10422073Y9356751D01*
X10436251Y9342573D01*
X10454775Y9334900D01*
X10474825D01*
X10493349Y9342573D01*
X10502494Y9351718D01*
X10509113Y9356060D01*
X10519087Y9351718D01*
X10526691Y9344114D01*
X10545216Y9336441D01*
X10565266D01*
X10583790Y9344114D01*
X10589853Y9350177D01*
X10599698Y9356635D01*
X10606447Y9350177D01*
X10614051Y9342573D01*
X10632575Y9334900D01*
X10652625D01*
X10664292Y9325986D01*
X10669892Y9312469D01*
X10684069Y9298292D01*
X10702593Y9290618D01*
X10722644D01*
X10741168Y9298292D01*
X10755345Y9312469D01*
X10763018Y9330993D01*
Y9351044D01*
X10755345Y9369568D01*
X10741168Y9383745D01*
X10722644Y9391418D01*
X10702594D01*
X10690926Y9400332D01*
X10685327Y9413849D01*
X10671149Y9428027D01*
X10652625Y9435700D01*
X10632575D01*
X10614051Y9428027D01*
X10607987Y9421964D01*
X10598143Y9415505D01*
X10591394Y9421964D01*
X10583790Y9429568D01*
X10565266Y9437241D01*
D02*
G37*
G36*
X16968706Y9508300D02*
X16940295D01*
X16912852Y9500947D01*
X16888248Y9486742D01*
X16868159Y9466652D01*
X16853954Y9442048D01*
X16846600Y9414605D01*
Y9386195D01*
X16853954Y9358752D01*
X16868159Y9334148D01*
X16888248Y9314059D01*
X16912852Y9299853D01*
X16940295Y9292500D01*
X16968706D01*
X16996149Y9299853D01*
X17020752Y9314059D01*
X17040842Y9334148D01*
X17055048Y9358752D01*
X17062399Y9386195D01*
Y9414605D01*
X17055048Y9442048D01*
X17040842Y9466652D01*
X17020752Y9486742D01*
X16996149Y9500947D01*
X16968706Y9508300D01*
D02*
G37*
G36*
X10971875Y9369650D02*
X10951825D01*
X10933301Y9361977D01*
X10919123Y9347799D01*
X10911450Y9329275D01*
Y9309225D01*
X10919123Y9290700D01*
X10933301Y9276523D01*
X10951825Y9268850D01*
X10971875D01*
X10990399Y9276523D01*
X11004577Y9290700D01*
X11012250Y9309225D01*
Y9329275D01*
X11004577Y9347799D01*
X10990399Y9361977D01*
X10971875Y9369650D01*
D02*
G37*
G36*
X10195425Y9346800D02*
X10175375D01*
X10156851Y9339127D01*
X10142673Y9324949D01*
X10135000Y9306425D01*
Y9286375D01*
X10142673Y9267851D01*
X10156851Y9253673D01*
X10175375Y9246000D01*
X10195425D01*
X10213949Y9253673D01*
X10228127Y9267851D01*
X10235800Y9286375D01*
Y9306425D01*
X10228127Y9324949D01*
X10213949Y9339127D01*
X10195425Y9346800D01*
D02*
G37*
G36*
X9839825D02*
X9819775D01*
X9801251Y9339127D01*
X9787073Y9324949D01*
X9779400Y9306425D01*
Y9286375D01*
X9787073Y9267851D01*
X9801251Y9253673D01*
X9819775Y9246000D01*
X9839825D01*
X9858349Y9253673D01*
X9872527Y9267851D01*
X9880200Y9286375D01*
Y9306425D01*
X9872527Y9324949D01*
X9858349Y9339127D01*
X9839825Y9346800D01*
D02*
G37*
G36*
X5893700Y9181492D02*
X5877851Y9174927D01*
X5868300Y9165376D01*
X5858749Y9174927D01*
X5842900Y9181492D01*
Y9132200D01*
Y9082908D01*
X5858749Y9089473D01*
X5868300Y9099024D01*
X5877851Y9089473D01*
X5893700Y9082908D01*
Y9132200D01*
Y9181492D01*
D02*
G37*
G36*
X5728600D02*
X5712751Y9174927D01*
X5703200Y9165376D01*
X5693649Y9174927D01*
X5677800Y9181492D01*
Y9132200D01*
Y9082908D01*
X5693649Y9089473D01*
X5703200Y9099024D01*
X5712751Y9089473D01*
X5728600Y9082908D01*
Y9132200D01*
Y9181492D01*
D02*
G37*
G36*
X5817500D02*
X5801651Y9174927D01*
X5794047Y9167323D01*
X5785750Y9161880D01*
X5777453Y9167323D01*
X5769849Y9174927D01*
X5754000Y9181492D01*
Y9132200D01*
Y9082908D01*
X5769849Y9089473D01*
X5777453Y9097077D01*
X5785750Y9102520D01*
X5794047Y9097077D01*
X5801651Y9089473D01*
X5817500Y9082908D01*
Y9132200D01*
Y9181492D01*
D02*
G37*
G36*
X16684705Y9369800D02*
X16656294D01*
X16628851Y9362447D01*
X16604248Y9348241D01*
X16584158Y9328152D01*
X16569952Y9303548D01*
X16562601Y9276105D01*
Y9247695D01*
X16569952Y9220252D01*
X16584158Y9195648D01*
X16604248Y9175558D01*
X16628851Y9161353D01*
X16656294Y9154000D01*
X16684705D01*
X16712148Y9161353D01*
X16736752Y9175558D01*
X16756842Y9195648D01*
X16771046Y9220252D01*
X16778400Y9247695D01*
Y9276105D01*
X16771046Y9303548D01*
X16756842Y9328152D01*
X16736752Y9348241D01*
X16712148Y9362447D01*
X16684705Y9369800D01*
D02*
G37*
G36*
X5919100Y9181492D02*
Y9144900D01*
X5955692D01*
X5949127Y9160749D01*
X5934949Y9174927D01*
X5919100Y9181492D01*
D02*
G37*
G36*
X5652400D02*
X5636551Y9174927D01*
X5622373Y9160749D01*
X5615808Y9144900D01*
X5652400D01*
Y9181492D01*
D02*
G37*
G36*
X15097626Y9219800D02*
X15077576D01*
X15059052Y9212127D01*
X15044873Y9197949D01*
X15037199Y9179425D01*
Y9159375D01*
X15044873Y9140851D01*
X15059052Y9126673D01*
X15077576Y9119000D01*
X15097626D01*
X15116148Y9126673D01*
X15130327Y9140851D01*
X15138000Y9159375D01*
Y9179425D01*
X15130327Y9197949D01*
X15116148Y9212127D01*
X15097626Y9219800D01*
D02*
G37*
G36*
X14754726Y9207100D02*
X14734676D01*
X14716151Y9199427D01*
X14701973Y9185249D01*
X14694299Y9166725D01*
Y9146675D01*
X14701973Y9128151D01*
X14716151Y9113973D01*
X14734676Y9106300D01*
X14754726D01*
X14773248Y9113973D01*
X14787427Y9128151D01*
X14795100Y9146675D01*
Y9166725D01*
X14787427Y9185249D01*
X14773248Y9199427D01*
X14754726Y9207100D01*
D02*
G37*
G36*
X14411826Y9194800D02*
X14391776D01*
X14373251Y9187127D01*
X14359073Y9172949D01*
X14351401Y9154425D01*
Y9134375D01*
X14359073Y9115851D01*
X14373251Y9101673D01*
X14391776Y9094000D01*
X14411826D01*
X14430350Y9101673D01*
X14444527Y9115851D01*
X14452200Y9134375D01*
Y9154425D01*
X14444527Y9172949D01*
X14430350Y9187127D01*
X14411826Y9194800D01*
D02*
G37*
G36*
X5955692Y9119500D02*
X5919100D01*
Y9082908D01*
X5934949Y9089473D01*
X5949127Y9103651D01*
X5955692Y9119500D01*
D02*
G37*
G36*
X5652400D02*
X5615808D01*
X5622373Y9103651D01*
X5636551Y9089473D01*
X5652400Y9082908D01*
Y9119500D01*
D02*
G37*
G36*
X14068925Y9156700D02*
X14048875D01*
X14030351Y9149027D01*
X14016173Y9134849D01*
X14008501Y9116325D01*
Y9096275D01*
X14016173Y9077751D01*
X14030351Y9063573D01*
X14048875Y9055900D01*
X14068925D01*
X14087450Y9063573D01*
X14101627Y9077751D01*
X14109300Y9096275D01*
Y9116325D01*
X14101627Y9134849D01*
X14087450Y9149027D01*
X14068925Y9156700D01*
D02*
G37*
G36*
X11198725Y9080100D02*
X11178675D01*
X11160151Y9072427D01*
X11145973Y9058249D01*
X11139065Y9041572D01*
X11134398Y9038417D01*
X11125600Y9035466D01*
X11109825Y9042000D01*
X11089775D01*
X11071251Y9034327D01*
X11057073Y9020149D01*
X11049400Y9001625D01*
Y8988970D01*
X11043902Y8985484D01*
X11036700Y8982709D01*
X11019884Y8989674D01*
X10999834D01*
X10981310Y8982001D01*
X10967132Y8967824D01*
X10959459Y8949299D01*
Y8929249D01*
X10967132Y8910725D01*
X10981310Y8896547D01*
X10999834Y8888874D01*
X11019884D01*
X11023731Y8890467D01*
X11030533Y8881887D01*
X11031454Y8879920D01*
X11025108Y8864600D01*
X11061700D01*
Y8901192D01*
X11060529Y8900707D01*
X11053726Y8909287D01*
X11052805Y8911254D01*
X11060259Y8929249D01*
Y8941904D01*
X11065757Y8945390D01*
X11072959Y8948165D01*
X11089775Y8941200D01*
X11109825D01*
X11128349Y8948873D01*
X11142527Y8963051D01*
X11149435Y8979728D01*
X11154102Y8982883D01*
X11162900Y8985834D01*
X11178675Y8979300D01*
X11198725D01*
X11217249Y8986973D01*
X11231427Y9001151D01*
X11239100Y9019675D01*
Y9039725D01*
X11231427Y9058249D01*
X11217249Y9072427D01*
X11198725Y9080100D01*
D02*
G37*
G36*
X11325725Y9118600D02*
X11305675D01*
X11287151Y9110927D01*
X11272973Y9096749D01*
X11265300Y9078225D01*
Y9058175D01*
X11272973Y9039651D01*
X11287151Y9025473D01*
X11305675Y9017800D01*
X11325725D01*
X11344249Y9025473D01*
X11358427Y9039651D01*
X11366100Y9058175D01*
Y9078225D01*
X11358427Y9096749D01*
X11344249Y9110927D01*
X11325725Y9118600D01*
D02*
G37*
G36*
X16968706Y9231300D02*
X16940295D01*
X16912852Y9223947D01*
X16888248Y9209741D01*
X16868159Y9189652D01*
X16853954Y9165048D01*
X16846600Y9137605D01*
Y9109195D01*
X16853954Y9081752D01*
X16868159Y9057148D01*
X16888248Y9037058D01*
X16912852Y9022853D01*
X16940295Y9015500D01*
X16968706D01*
X16996149Y9022853D01*
X17020752Y9037058D01*
X17040842Y9057148D01*
X17055048Y9081752D01*
X17062399Y9109195D01*
Y9137605D01*
X17055048Y9165048D01*
X17040842Y9189652D01*
X17020752Y9209741D01*
X16996149Y9223947D01*
X16968706Y9231300D01*
D02*
G37*
G36*
X16684705Y9092800D02*
X16656294D01*
X16628851Y9085447D01*
X16604248Y9071241D01*
X16584158Y9051152D01*
X16569952Y9026548D01*
X16562601Y8999105D01*
Y8970695D01*
X16569952Y8943252D01*
X16584158Y8918648D01*
X16604248Y8898559D01*
X16628851Y8884353D01*
X16656294Y8877000D01*
X16684705D01*
X16712148Y8884353D01*
X16736752Y8898559D01*
X16756842Y8918648D01*
X16771046Y8943252D01*
X16778400Y8970695D01*
Y8999105D01*
X16771046Y9026548D01*
X16756842Y9051152D01*
X16736752Y9071241D01*
X16712148Y9085447D01*
X16684705Y9092800D01*
D02*
G37*
G36*
X11087100Y8901192D02*
Y8864600D01*
X11123692D01*
X11117127Y8880449D01*
X11102949Y8894627D01*
X11087100Y8901192D01*
D02*
G37*
G36*
X11123692Y8839200D02*
X11087100D01*
Y8802608D01*
X11102949Y8809173D01*
X11117127Y8823351D01*
X11123692Y8839200D01*
D02*
G37*
G36*
X11061700D02*
X11025108D01*
X11031673Y8823351D01*
X11045851Y8809173D01*
X11061700Y8802608D01*
Y8839200D01*
D02*
G37*
G36*
X10928785Y8902300D02*
X10908735D01*
X10890211Y8894627D01*
X10876033Y8880449D01*
X10868360Y8861925D01*
Y8841875D01*
X10876033Y8823351D01*
X10890211Y8809173D01*
X10908735Y8801500D01*
X10928785D01*
X10947309Y8809173D01*
X10961487Y8823351D01*
X10969160Y8841875D01*
Y8861925D01*
X10961487Y8880449D01*
X10947309Y8894627D01*
X10928785Y8902300D01*
D02*
G37*
G36*
X15100301Y8812292D02*
Y8775700D01*
X15136893D01*
X15130327Y8791549D01*
X15116148Y8805727D01*
X15100301Y8812292D01*
D02*
G37*
G36*
X15074899D02*
X15059052Y8805727D01*
X15044873Y8791549D01*
X15038309Y8775700D01*
X15074899D01*
Y8812292D01*
D02*
G37*
G36*
X14757401D02*
Y8775700D01*
X14793993D01*
X14787427Y8791549D01*
X14773248Y8805727D01*
X14757401Y8812292D01*
D02*
G37*
G36*
X14732001D02*
X14716151Y8805727D01*
X14701973Y8791549D01*
X14695409Y8775700D01*
X14732001D01*
Y8812292D01*
D02*
G37*
G36*
X14414500D02*
Y8775700D01*
X14451093D01*
X14444527Y8791549D01*
X14430350Y8805727D01*
X14414500Y8812292D01*
D02*
G37*
G36*
X14389101D02*
X14373251Y8805727D01*
X14359073Y8791549D01*
X14352509Y8775700D01*
X14389101D01*
Y8812292D01*
D02*
G37*
G36*
X14071600D02*
Y8775700D01*
X14108192D01*
X14101627Y8791549D01*
X14087450Y8805727D01*
X14071600Y8812292D01*
D02*
G37*
G36*
X14046201D02*
X14030351Y8805727D01*
X14016173Y8791549D01*
X14009608Y8775700D01*
X14046201D01*
Y8812292D01*
D02*
G37*
G36*
X16968706Y8954300D02*
X16940295D01*
X16912852Y8946947D01*
X16888248Y8932742D01*
X16868159Y8912652D01*
X16853954Y8888048D01*
X16846600Y8860605D01*
Y8832195D01*
X16853954Y8804752D01*
X16868159Y8780148D01*
X16888248Y8760059D01*
X16912852Y8745853D01*
X16940295Y8738500D01*
X16968706D01*
X16996149Y8745853D01*
X17020752Y8760059D01*
X17040842Y8780148D01*
X17055048Y8804752D01*
X17062399Y8832195D01*
Y8860605D01*
X17055048Y8888048D01*
X17040842Y8912652D01*
X17020752Y8932742D01*
X16996149Y8946947D01*
X16968706Y8954300D01*
D02*
G37*
G36*
X11325725Y8838800D02*
X11305675D01*
X11287151Y8831127D01*
X11272973Y8816949D01*
X11265300Y8798425D01*
Y8778375D01*
X11272973Y8759851D01*
X11287151Y8745673D01*
X11305675Y8738000D01*
X11325725D01*
X11344249Y8745673D01*
X11358427Y8759851D01*
X11366100Y8778375D01*
Y8798425D01*
X11358427Y8816949D01*
X11344249Y8831127D01*
X11325725Y8838800D01*
D02*
G37*
G36*
X15136893Y8750300D02*
X15100301D01*
Y8713708D01*
X15116148Y8720273D01*
X15130327Y8734451D01*
X15136893Y8750300D01*
D02*
G37*
G36*
X15074899D02*
X15038309D01*
X15044873Y8734451D01*
X15059052Y8720273D01*
X15074899Y8713708D01*
Y8750300D01*
D02*
G37*
G36*
X14793993D02*
X14757401D01*
Y8713708D01*
X14773248Y8720273D01*
X14787427Y8734451D01*
X14793993Y8750300D01*
D02*
G37*
G36*
X14732001D02*
X14695409D01*
X14701973Y8734451D01*
X14716151Y8720273D01*
X14732001Y8713708D01*
Y8750300D01*
D02*
G37*
G36*
X14451093D02*
X14414500D01*
Y8713708D01*
X14430350Y8720273D01*
X14444527Y8734451D01*
X14451093Y8750300D01*
D02*
G37*
G36*
X14389101D02*
X14352509D01*
X14359073Y8734451D01*
X14373251Y8720273D01*
X14389101Y8713708D01*
Y8750300D01*
D02*
G37*
G36*
X14108192D02*
X14071600D01*
Y8713708D01*
X14087450Y8720273D01*
X14101627Y8734451D01*
X14108192Y8750300D01*
D02*
G37*
G36*
X14046201D02*
X14009608D01*
X14016173Y8734451D01*
X14030351Y8720273D01*
X14046201Y8713708D01*
Y8750300D01*
D02*
G37*
G36*
X3870825Y9038921D02*
X3850775D01*
X3832251Y9031248D01*
X3818073Y9017070D01*
X3810400Y8998546D01*
Y8978496D01*
X3818073Y8959972D01*
X3827624Y8950421D01*
X3818073Y8940870D01*
X3810400Y8922346D01*
Y8902296D01*
X3818073Y8883772D01*
X3832251Y8869594D01*
X3847607Y8863233D01*
Y8850188D01*
X3832251Y8843827D01*
X3818073Y8829649D01*
X3810400Y8811125D01*
Y8791075D01*
X3818073Y8772551D01*
X3832251Y8758373D01*
X3835147Y8757173D01*
Y8743427D01*
X3832251Y8742227D01*
X3818073Y8728049D01*
X3810400Y8709525D01*
Y8689475D01*
X3818073Y8670951D01*
X3832251Y8656773D01*
X3850775Y8649100D01*
X3870825D01*
X3889349Y8656773D01*
X3903527Y8670951D01*
X3911200Y8689475D01*
Y8709525D01*
X3903527Y8728049D01*
X3889349Y8742227D01*
X3886453Y8743427D01*
Y8757173D01*
X3889349Y8758373D01*
X3903527Y8772551D01*
X3911200Y8791075D01*
Y8811125D01*
X3903527Y8829649D01*
X3889349Y8843827D01*
X3873993Y8850188D01*
Y8863233D01*
X3889349Y8869594D01*
X3903527Y8883772D01*
X3911200Y8902296D01*
Y8922346D01*
X3903527Y8940870D01*
X3893976Y8950421D01*
X3903527Y8959972D01*
X3911200Y8978496D01*
Y8998546D01*
X3903527Y9017070D01*
X3889349Y9031248D01*
X3870825Y9038921D01*
D02*
G37*
G36*
X11122525Y8737200D02*
X11102475D01*
X11083951Y8729527D01*
X11069773Y8715349D01*
X11062100Y8696825D01*
Y8676775D01*
X11069773Y8658251D01*
X11083951Y8644073D01*
X11102475Y8636400D01*
X11122525D01*
X11141049Y8644073D01*
X11155227Y8658251D01*
X11162900Y8676775D01*
Y8696825D01*
X11155227Y8715349D01*
X11141049Y8729527D01*
X11122525Y8737200D01*
D02*
G37*
G36*
X16684705Y8815800D02*
X16656294D01*
X16628851Y8808447D01*
X16604248Y8794241D01*
X16584158Y8774152D01*
X16569952Y8749548D01*
X16562601Y8722105D01*
Y8693695D01*
X16569952Y8666252D01*
X16584158Y8641648D01*
X16604248Y8621559D01*
X16628851Y8607353D01*
X16656294Y8600000D01*
X16684705D01*
X16712148Y8607353D01*
X16736752Y8621559D01*
X16756842Y8641648D01*
X16771046Y8666252D01*
X16778400Y8693695D01*
Y8722105D01*
X16771046Y8749548D01*
X16756842Y8774152D01*
X16736752Y8794241D01*
X16712148Y8808447D01*
X16684705Y8815800D01*
D02*
G37*
G36*
X10360525Y9016600D02*
X10340475D01*
X10321951Y9008927D01*
X10307773Y8994749D01*
X10300100Y8976225D01*
Y8956175D01*
X10307773Y8937651D01*
X10317324Y8928100D01*
X10307773Y8918549D01*
X10300100Y8900025D01*
Y8879975D01*
X10307773Y8861451D01*
X10315377Y8853847D01*
X10320820Y8845550D01*
X10315377Y8837253D01*
X10307773Y8829649D01*
X10300100Y8811125D01*
Y8791075D01*
X10307773Y8772551D01*
X10318792Y8761532D01*
X10310709Y8753449D01*
X10303036Y8734925D01*
Y8714875D01*
X10310709Y8696351D01*
X10318792Y8688268D01*
X10307773Y8677249D01*
X10300100Y8658725D01*
Y8638675D01*
X10307773Y8620151D01*
X10321951Y8605973D01*
X10340475Y8598300D01*
X10360525D01*
X10379049Y8605973D01*
X10393227Y8620151D01*
X10400900Y8638675D01*
Y8658725D01*
X10393227Y8677249D01*
X10385144Y8685332D01*
X10396163Y8696351D01*
X10403836Y8714875D01*
Y8734925D01*
X10396163Y8753449D01*
X10385144Y8764468D01*
X10393227Y8772551D01*
X10400900Y8791075D01*
Y8811125D01*
X10393227Y8829649D01*
X10385623Y8837253D01*
X10380180Y8845550D01*
X10385623Y8853847D01*
X10393227Y8861451D01*
X10400900Y8879975D01*
Y8900025D01*
X10393227Y8918549D01*
X10383676Y8928100D01*
X10393227Y8937651D01*
X10400900Y8956175D01*
Y8976225D01*
X10393227Y8994749D01*
X10379049Y9008927D01*
X10360525Y9016600D01*
D02*
G37*
G36*
X11287625Y8661000D02*
X11267575D01*
X11249051Y8653327D01*
X11234873Y8639149D01*
X11227200Y8620625D01*
Y8600575D01*
X11234873Y8582051D01*
X11249051Y8567873D01*
X11267575Y8560200D01*
X11287625D01*
X11306149Y8567873D01*
X11320327Y8582051D01*
X11328000Y8600575D01*
Y8620625D01*
X11320327Y8639149D01*
X11306149Y8653327D01*
X11287625Y8661000D01*
D02*
G37*
G36*
X10830425Y8724500D02*
X10810375D01*
X10791851Y8716827D01*
X10777673Y8702649D01*
X10770000Y8684125D01*
Y8664075D01*
X10777673Y8645551D01*
X10791851Y8631373D01*
X10799548Y8628185D01*
X10803073Y8613749D01*
X10795400Y8595225D01*
Y8575175D01*
X10803073Y8556651D01*
X10817251Y8542473D01*
X10835775Y8534800D01*
X10855825D01*
X10874349Y8542473D01*
X10888527Y8556651D01*
X10896200Y8575175D01*
Y8595225D01*
X10888527Y8613749D01*
X10874349Y8627927D01*
X10866652Y8631115D01*
X10863127Y8645551D01*
X10870800Y8664075D01*
Y8684125D01*
X10863127Y8702649D01*
X10848949Y8716827D01*
X10830425Y8724500D01*
D02*
G37*
G36*
X12163925Y8572100D02*
X12143875D01*
X12125351Y8564427D01*
X12111173Y8550249D01*
X12103500Y8531725D01*
Y8511675D01*
X12111173Y8493151D01*
X12125351Y8478973D01*
X12143875Y8471300D01*
X12163925D01*
X12182449Y8478973D01*
X12196627Y8493151D01*
X12204300Y8511675D01*
Y8531725D01*
X12196627Y8550249D01*
X12182449Y8564427D01*
X12163925Y8572100D01*
D02*
G37*
G36*
X16968706Y8677300D02*
X16940295D01*
X16912852Y8669947D01*
X16888248Y8655741D01*
X16868159Y8635652D01*
X16853954Y8611048D01*
X16846600Y8583605D01*
Y8555195D01*
X16853954Y8527752D01*
X16868159Y8503148D01*
X16888248Y8483058D01*
X16912852Y8468853D01*
X16940295Y8461500D01*
X16968706D01*
X16996149Y8468853D01*
X17020752Y8483058D01*
X17040842Y8503148D01*
X17055048Y8527752D01*
X17062399Y8555195D01*
Y8583605D01*
X17055048Y8611048D01*
X17040842Y8635652D01*
X17020752Y8655741D01*
X16996149Y8669947D01*
X16968706Y8677300D01*
D02*
G37*
G36*
X16684705Y8538800D02*
X16656294D01*
X16628851Y8531447D01*
X16604248Y8517242D01*
X16584158Y8497152D01*
X16569952Y8472548D01*
X16562601Y8445105D01*
Y8416695D01*
X16569952Y8389252D01*
X16584158Y8364648D01*
X16604248Y8344559D01*
X16628851Y8330353D01*
X16656294Y8323000D01*
X16684705D01*
X16712148Y8330353D01*
X16736752Y8344559D01*
X16756842Y8364648D01*
X16771046Y8389252D01*
X16778400Y8416695D01*
Y8445105D01*
X16771046Y8472548D01*
X16756842Y8497152D01*
X16736752Y8517242D01*
X16712148Y8531447D01*
X16684705Y8538800D01*
D02*
G37*
G36*
X16968706Y8400300D02*
X16940295D01*
X16912852Y8392947D01*
X16888248Y8378741D01*
X16868159Y8358652D01*
X16853954Y8334048D01*
X16846600Y8306605D01*
Y8278195D01*
X16853954Y8250752D01*
X16868159Y8226148D01*
X16888248Y8206059D01*
X16912852Y8191853D01*
X16940295Y8184500D01*
X16968706D01*
X16996149Y8191853D01*
X17020752Y8206059D01*
X17040842Y8226148D01*
X17055048Y8250752D01*
X17062399Y8278195D01*
Y8306605D01*
X17055048Y8334048D01*
X17040842Y8358652D01*
X17020752Y8378741D01*
X16996149Y8392947D01*
X16968706Y8400300D01*
D02*
G37*
G36*
X11351125Y8254600D02*
X11331075D01*
X11312551Y8246927D01*
X11298373Y8232749D01*
X11290700Y8214225D01*
Y8194175D01*
X11298373Y8175651D01*
X11312551Y8161473D01*
X11331075Y8153800D01*
X11351125D01*
X11369649Y8161473D01*
X11383827Y8175651D01*
X11391500Y8194175D01*
Y8214225D01*
X11383827Y8232749D01*
X11369649Y8246927D01*
X11351125Y8254600D01*
D02*
G37*
G36*
X12773525Y8193960D02*
X12753475D01*
X12734951Y8186287D01*
X12720773Y8172110D01*
X12713100Y8153586D01*
Y8133535D01*
X12720773Y8115011D01*
X12734951Y8100834D01*
X12753475Y8093161D01*
X12773525D01*
X12792049Y8100834D01*
X12806227Y8115011D01*
X12813901Y8133535D01*
Y8153586D01*
X12806227Y8172110D01*
X12792049Y8186287D01*
X12773525Y8193960D01*
D02*
G37*
G36*
X16684705Y8261800D02*
X16656294D01*
X16628851Y8254447D01*
X16604248Y8240241D01*
X16584158Y8220152D01*
X16569952Y8195548D01*
X16562601Y8168105D01*
Y8139695D01*
X16569952Y8112252D01*
X16584158Y8087648D01*
X16604248Y8067558D01*
X16628851Y8053353D01*
X16656294Y8046000D01*
X16684705D01*
X16712148Y8053353D01*
X16736752Y8067558D01*
X16756842Y8087648D01*
X16771046Y8112252D01*
X16778400Y8139695D01*
Y8168105D01*
X16771046Y8195548D01*
X16756842Y8220152D01*
X16736752Y8240241D01*
X16712148Y8254447D01*
X16684705Y8261800D01*
D02*
G37*
G36*
X12611100Y8062992D02*
Y8026400D01*
X12647692D01*
X12641127Y8042249D01*
X12626949Y8056427D01*
X12611100Y8062992D01*
D02*
G37*
G36*
X12585700D02*
X12569851Y8056427D01*
X12555673Y8042249D01*
X12549108Y8026400D01*
X12585700D01*
Y8062992D01*
D02*
G37*
G36*
X14058900Y8051817D02*
Y8015225D01*
X14095493D01*
X14088927Y8031074D01*
X14074750Y8045252D01*
X14058900Y8051817D01*
D02*
G37*
G36*
X14033501D02*
X14017651Y8045252D01*
X14003473Y8031074D01*
X13996909Y8015225D01*
X14033501D01*
Y8051817D01*
D02*
G37*
G36*
X11188700D02*
Y8015225D01*
X11225292D01*
X11218727Y8031074D01*
X11204549Y8045252D01*
X11188700Y8051817D01*
D02*
G37*
G36*
X11163300D02*
X11147451Y8045252D01*
X11133273Y8031074D01*
X11126708Y8015225D01*
X11163300D01*
Y8051817D01*
D02*
G37*
G36*
X9753600D02*
Y8015225D01*
X9790192D01*
X9783627Y8031074D01*
X9769449Y8045252D01*
X9753600Y8051817D01*
D02*
G37*
G36*
X9728200D02*
X9712351Y8045252D01*
X9698173Y8031074D01*
X9691608Y8015225D01*
X9728200D01*
Y8051817D01*
D02*
G37*
G36*
X8305800D02*
Y8015225D01*
X8342392D01*
X8335827Y8031074D01*
X8321649Y8045252D01*
X8305800Y8051817D01*
D02*
G37*
G36*
X8280400D02*
X8264551Y8045252D01*
X8250373Y8031074D01*
X8243808Y8015225D01*
X8280400D01*
Y8051817D01*
D02*
G37*
G36*
X6870700D02*
Y8015225D01*
X6907292D01*
X6900727Y8031074D01*
X6886549Y8045252D01*
X6870700Y8051817D01*
D02*
G37*
G36*
X6845300D02*
X6829451Y8045252D01*
X6815273Y8031074D01*
X6808708Y8015225D01*
X6845300D01*
Y8051817D01*
D02*
G37*
G36*
X5435600D02*
Y8015225D01*
X5472192D01*
X5465627Y8031074D01*
X5451449Y8045252D01*
X5435600Y8051817D01*
D02*
G37*
G36*
X5410200D02*
X5394351Y8045252D01*
X5380173Y8031074D01*
X5373608Y8015225D01*
X5410200D01*
Y8051817D01*
D02*
G37*
G36*
X4000500D02*
Y8015225D01*
X4037092D01*
X4030527Y8031074D01*
X4016349Y8045252D01*
X4000500Y8051817D01*
D02*
G37*
G36*
X3975100D02*
X3959251Y8045252D01*
X3945073Y8031074D01*
X3938508Y8015225D01*
X3975100D01*
Y8051817D01*
D02*
G37*
G36*
X12647692Y8001000D02*
X12611100D01*
Y7964408D01*
X12626949Y7970973D01*
X12641127Y7985151D01*
X12647692Y8001000D01*
D02*
G37*
G36*
X12585700D02*
X12549108D01*
X12555673Y7985151D01*
X12569851Y7970973D01*
X12585700Y7964408D01*
Y8001000D01*
D02*
G37*
G36*
X14095493Y7989825D02*
X14058900D01*
Y7953233D01*
X14074750Y7959798D01*
X14088927Y7973976D01*
X14095493Y7989825D01*
D02*
G37*
G36*
X14033501D02*
X13996909D01*
X14003473Y7973976D01*
X14017651Y7959798D01*
X14033501Y7953233D01*
Y7989825D01*
D02*
G37*
G36*
X11225292D02*
X11188700D01*
Y7953233D01*
X11204549Y7959798D01*
X11218727Y7973976D01*
X11225292Y7989825D01*
D02*
G37*
G36*
X11163300D02*
X11126708D01*
X11133273Y7973976D01*
X11147451Y7959798D01*
X11163300Y7953233D01*
Y7989825D01*
D02*
G37*
G36*
X9790192D02*
X9753600D01*
Y7953233D01*
X9769449Y7959798D01*
X9783627Y7973976D01*
X9790192Y7989825D01*
D02*
G37*
G36*
X9728200D02*
X9691608D01*
X9698173Y7973976D01*
X9712351Y7959798D01*
X9728200Y7953233D01*
Y7989825D01*
D02*
G37*
G36*
X8342392D02*
X8305800D01*
Y7953233D01*
X8321649Y7959798D01*
X8335827Y7973976D01*
X8342392Y7989825D01*
D02*
G37*
G36*
X8280400D02*
X8243808D01*
X8250373Y7973976D01*
X8264551Y7959798D01*
X8280400Y7953233D01*
Y7989825D01*
D02*
G37*
G36*
X6907292D02*
X6870700D01*
Y7953233D01*
X6886549Y7959798D01*
X6900727Y7973976D01*
X6907292Y7989825D01*
D02*
G37*
G36*
X6845300D02*
X6808708D01*
X6815273Y7973976D01*
X6829451Y7959798D01*
X6845300Y7953233D01*
Y7989825D01*
D02*
G37*
G36*
X5472192D02*
X5435600D01*
Y7953233D01*
X5451449Y7959798D01*
X5465627Y7973976D01*
X5472192Y7989825D01*
D02*
G37*
G36*
X5410200D02*
X5373608D01*
X5380173Y7973976D01*
X5394351Y7959798D01*
X5410200Y7953233D01*
Y7989825D01*
D02*
G37*
G36*
X4037092D02*
X4000500D01*
Y7953233D01*
X4016349Y7959798D01*
X4030527Y7973976D01*
X4037092Y7989825D01*
D02*
G37*
G36*
X3975100D02*
X3938508D01*
X3945073Y7973976D01*
X3959251Y7959798D01*
X3975100Y7953233D01*
Y7989825D01*
D02*
G37*
G36*
X16968706Y8123300D02*
X16940295D01*
X16912852Y8115947D01*
X16888248Y8101741D01*
X16868159Y8081652D01*
X16853954Y8057048D01*
X16846600Y8029605D01*
Y8001195D01*
X16853954Y7973752D01*
X16868159Y7949148D01*
X16888248Y7929059D01*
X16912852Y7914853D01*
X16940295Y7907500D01*
X16968706D01*
X16996149Y7914853D01*
X17020752Y7929059D01*
X17040842Y7949148D01*
X17055048Y7973752D01*
X17062399Y8001195D01*
Y8029605D01*
X17055048Y8057048D01*
X17040842Y8081652D01*
X17020752Y8101741D01*
X16996149Y8115947D01*
X16968706Y8123300D01*
D02*
G37*
G36*
X16684705Y7984800D02*
X16656294D01*
X16628851Y7977447D01*
X16604248Y7963241D01*
X16584158Y7943152D01*
X16569952Y7918548D01*
X16562601Y7891105D01*
Y7862695D01*
X16569952Y7835252D01*
X16584158Y7810648D01*
X16604248Y7790558D01*
X16628851Y7776353D01*
X16656294Y7769000D01*
X16684705D01*
X16712148Y7776353D01*
X16736752Y7790558D01*
X16756842Y7810648D01*
X16771046Y7835252D01*
X16778400Y7862695D01*
Y7891105D01*
X16771046Y7918548D01*
X16756842Y7943152D01*
X16736752Y7963241D01*
X16712148Y7977447D01*
X16684705Y7984800D01*
D02*
G37*
G36*
X16968706Y7846300D02*
X16940295D01*
X16912852Y7838947D01*
X16888248Y7824742D01*
X16868159Y7804652D01*
X16853954Y7780048D01*
X16846600Y7752605D01*
Y7724195D01*
X16853954Y7696752D01*
X16868159Y7672148D01*
X16888248Y7652059D01*
X16912852Y7637853D01*
X16940295Y7630500D01*
X16968706D01*
X16996149Y7637853D01*
X17020752Y7652059D01*
X17040842Y7672148D01*
X17055048Y7696752D01*
X17062399Y7724195D01*
Y7752605D01*
X17055048Y7780048D01*
X17040842Y7804652D01*
X17020752Y7824742D01*
X16996149Y7838947D01*
X16968706Y7846300D01*
D02*
G37*
G36*
X16684705Y7707800D02*
X16656294D01*
X16628851Y7700447D01*
X16604248Y7686241D01*
X16584158Y7666152D01*
X16569952Y7641548D01*
X16562601Y7614105D01*
Y7585695D01*
X16569952Y7558252D01*
X16584158Y7533648D01*
X16604248Y7513559D01*
X16628851Y7499353D01*
X16656294Y7492000D01*
X16684705D01*
X16712148Y7499353D01*
X16736752Y7513559D01*
X16756842Y7533648D01*
X16771046Y7558252D01*
X16778400Y7585695D01*
Y7614105D01*
X16771046Y7641548D01*
X16756842Y7666152D01*
X16736752Y7686241D01*
X16712148Y7700447D01*
X16684705Y7707800D01*
D02*
G37*
G36*
X16968706Y7569300D02*
X16940295D01*
X16912852Y7561947D01*
X16888248Y7547741D01*
X16868159Y7527652D01*
X16853954Y7503048D01*
X16846600Y7475605D01*
Y7447195D01*
X16853954Y7419752D01*
X16868159Y7395148D01*
X16888248Y7375058D01*
X16912852Y7360853D01*
X16940295Y7353500D01*
X16968706D01*
X16996149Y7360853D01*
X17020752Y7375058D01*
X17040842Y7395148D01*
X17055048Y7419752D01*
X17062399Y7447195D01*
Y7475605D01*
X17055048Y7503048D01*
X17040842Y7527652D01*
X17020752Y7547741D01*
X16996149Y7561947D01*
X16968706Y7569300D01*
D02*
G37*
G36*
X16684705Y7430800D02*
X16683200D01*
Y7335600D01*
X16778400D01*
Y7337105D01*
X16771046Y7364548D01*
X16756842Y7389152D01*
X16736752Y7409241D01*
X16712148Y7423447D01*
X16684705Y7430800D01*
D02*
G37*
G36*
X16657800D02*
X16656294D01*
X16628851Y7423447D01*
X16604248Y7409241D01*
X16584158Y7389152D01*
X16569952Y7364548D01*
X16562601Y7337105D01*
Y7335600D01*
X16657800D01*
Y7430800D01*
D02*
G37*
G36*
X16778400Y7310200D02*
X16683200D01*
Y7215000D01*
X16684705D01*
X16712148Y7222353D01*
X16736752Y7236558D01*
X16756842Y7256648D01*
X16771046Y7281252D01*
X16778400Y7308695D01*
Y7310200D01*
D02*
G37*
G36*
X16657800D02*
X16562601D01*
Y7308695D01*
X16569952Y7281252D01*
X16584158Y7256648D01*
X16604248Y7236558D01*
X16628851Y7222353D01*
X16656294Y7215000D01*
X16657800D01*
Y7310200D01*
D02*
G37*
G36*
X16968706Y7292300D02*
X16967200D01*
Y7197100D01*
X17062399D01*
Y7198605D01*
X17055048Y7226048D01*
X17040842Y7250652D01*
X17020752Y7270741D01*
X16996149Y7284947D01*
X16968706Y7292300D01*
D02*
G37*
G36*
X16941800D02*
X16940295D01*
X16912852Y7284947D01*
X16888248Y7270741D01*
X16868159Y7250652D01*
X16853954Y7226048D01*
X16846600Y7198605D01*
Y7197100D01*
X16941800D01*
Y7292300D01*
D02*
G37*
G36*
X14361510Y7353900D02*
X14328491D01*
X14296597Y7345354D01*
X14268002Y7328845D01*
X14244655Y7305497D01*
X14228146Y7276902D01*
X14219600Y7245009D01*
Y7211991D01*
X14228146Y7180097D01*
X14244655Y7151503D01*
X14268002Y7128155D01*
X14296597Y7111646D01*
X14328491Y7103100D01*
X14361510D01*
X14393404Y7111646D01*
X14421997Y7128155D01*
X14445345Y7151503D01*
X14461855Y7180097D01*
X14470399Y7211991D01*
Y7245009D01*
X14461855Y7276902D01*
X14445345Y7305497D01*
X14421997Y7328845D01*
X14393404Y7345354D01*
X14361510Y7353900D01*
D02*
G37*
G36*
X13720399D02*
X13469600D01*
Y7103100D01*
X13720399D01*
Y7353900D01*
D02*
G37*
G36*
X12926408D02*
X12893391D01*
X12861497Y7345354D01*
X12832903Y7328845D01*
X12809555Y7305497D01*
X12793046Y7276902D01*
X12784500Y7245009D01*
Y7211991D01*
X12793046Y7180097D01*
X12809555Y7151503D01*
X12832903Y7128155D01*
X12861497Y7111646D01*
X12893391Y7103100D01*
X12926408D01*
X12958302Y7111646D01*
X12986897Y7128155D01*
X13010245Y7151503D01*
X13026755Y7180097D01*
X13035300Y7211991D01*
Y7245009D01*
X13026755Y7276902D01*
X13010245Y7305497D01*
X12986897Y7328845D01*
X12958302Y7345354D01*
X12926408Y7353900D01*
D02*
G37*
G36*
X12285300D02*
X12034500D01*
Y7103100D01*
X12285300D01*
Y7353900D01*
D02*
G37*
G36*
X11491309D02*
X11458291D01*
X11426398Y7345354D01*
X11397803Y7328845D01*
X11374455Y7305497D01*
X11357946Y7276902D01*
X11349400Y7245009D01*
Y7211991D01*
X11357946Y7180097D01*
X11374455Y7151503D01*
X11397803Y7128155D01*
X11426398Y7111646D01*
X11458291Y7103100D01*
X11491309D01*
X11523203Y7111646D01*
X11551797Y7128155D01*
X11575145Y7151503D01*
X11591654Y7180097D01*
X11600200Y7211991D01*
Y7245009D01*
X11591654Y7276902D01*
X11575145Y7305497D01*
X11551797Y7328845D01*
X11523203Y7345354D01*
X11491309Y7353900D01*
D02*
G37*
G36*
X10850200D02*
X10599400D01*
Y7103100D01*
X10850200D01*
Y7353900D01*
D02*
G37*
G36*
X10056209D02*
X10023191D01*
X9991298Y7345354D01*
X9962703Y7328845D01*
X9939355Y7305497D01*
X9922846Y7276902D01*
X9914300Y7245009D01*
Y7211991D01*
X9922846Y7180097D01*
X9939355Y7151503D01*
X9962703Y7128155D01*
X9991298Y7111646D01*
X10023191Y7103100D01*
X10056209D01*
X10088103Y7111646D01*
X10116697Y7128155D01*
X10140045Y7151503D01*
X10156554Y7180097D01*
X10165100Y7211991D01*
Y7245009D01*
X10156554Y7276902D01*
X10140045Y7305497D01*
X10116697Y7328845D01*
X10088103Y7345354D01*
X10056209Y7353900D01*
D02*
G37*
G36*
X9415100D02*
X9164300D01*
Y7103100D01*
X9415100D01*
Y7353900D01*
D02*
G37*
G36*
X8608409D02*
X8575391D01*
X8543498Y7345354D01*
X8514903Y7328845D01*
X8491555Y7305497D01*
X8475046Y7276902D01*
X8466500Y7245009D01*
Y7211991D01*
X8475046Y7180097D01*
X8491555Y7151503D01*
X8514903Y7128155D01*
X8543498Y7111646D01*
X8575391Y7103100D01*
X8608409D01*
X8640303Y7111646D01*
X8668897Y7128155D01*
X8692245Y7151503D01*
X8708754Y7180097D01*
X8717300Y7211991D01*
Y7245009D01*
X8708754Y7276902D01*
X8692245Y7305497D01*
X8668897Y7328845D01*
X8640303Y7345354D01*
X8608409Y7353900D01*
D02*
G37*
G36*
X7967300D02*
X7716500D01*
Y7103100D01*
X7967300D01*
Y7353900D01*
D02*
G37*
G36*
X7173309D02*
X7140291D01*
X7108398Y7345354D01*
X7079803Y7328845D01*
X7056455Y7305497D01*
X7039946Y7276902D01*
X7031400Y7245009D01*
Y7211991D01*
X7039946Y7180097D01*
X7056455Y7151503D01*
X7079803Y7128155D01*
X7108398Y7111646D01*
X7140291Y7103100D01*
X7173309D01*
X7205203Y7111646D01*
X7233797Y7128155D01*
X7257145Y7151503D01*
X7273654Y7180097D01*
X7282200Y7211991D01*
Y7245009D01*
X7273654Y7276902D01*
X7257145Y7305497D01*
X7233797Y7328845D01*
X7205203Y7345354D01*
X7173309Y7353900D01*
D02*
G37*
G36*
X6532200D02*
X6281400D01*
Y7103100D01*
X6532200D01*
Y7353900D01*
D02*
G37*
G36*
X5738209D02*
X5705191D01*
X5673298Y7345354D01*
X5644703Y7328845D01*
X5621355Y7305497D01*
X5604846Y7276902D01*
X5596300Y7245009D01*
Y7211991D01*
X5604846Y7180097D01*
X5621355Y7151503D01*
X5644703Y7128155D01*
X5673298Y7111646D01*
X5705191Y7103100D01*
X5738209D01*
X5770103Y7111646D01*
X5798697Y7128155D01*
X5822045Y7151503D01*
X5838554Y7180097D01*
X5847100Y7211991D01*
Y7245009D01*
X5838554Y7276902D01*
X5822045Y7305497D01*
X5798697Y7328845D01*
X5770103Y7345354D01*
X5738209Y7353900D01*
D02*
G37*
G36*
X5097100D02*
X4846300D01*
Y7103100D01*
X5097100D01*
Y7353900D01*
D02*
G37*
G36*
X4303109D02*
X4270091D01*
X4238198Y7345354D01*
X4209603Y7328845D01*
X4186255Y7305497D01*
X4169746Y7276902D01*
X4161200Y7245009D01*
Y7211991D01*
X4169746Y7180097D01*
X4186255Y7151503D01*
X4209603Y7128155D01*
X4238198Y7111646D01*
X4270091Y7103100D01*
X4303109D01*
X4335003Y7111646D01*
X4363597Y7128155D01*
X4386945Y7151503D01*
X4403454Y7180097D01*
X4412000Y7211991D01*
Y7245009D01*
X4403454Y7276902D01*
X4386945Y7305497D01*
X4363597Y7328845D01*
X4335003Y7345354D01*
X4303109Y7353900D01*
D02*
G37*
G36*
X3662000D02*
X3411200D01*
Y7103100D01*
X3662000D01*
Y7353900D01*
D02*
G37*
G36*
X17062399Y7171700D02*
X16967200D01*
Y7076500D01*
X16968706D01*
X16996149Y7083853D01*
X17020752Y7098058D01*
X17040842Y7118148D01*
X17055048Y7142752D01*
X17062399Y7170195D01*
Y7171700D01*
D02*
G37*
G36*
X16941800D02*
X16846600D01*
Y7170195D01*
X16853954Y7142752D01*
X16868159Y7118148D01*
X16888248Y7098058D01*
X16912852Y7083853D01*
X16940295Y7076500D01*
X16941800D01*
Y7171700D01*
D02*
G37*
G36*
X16684705Y7153800D02*
X16683200D01*
Y7058601D01*
X16778400D01*
Y7060105D01*
X16771046Y7087548D01*
X16756842Y7112152D01*
X16736752Y7132242D01*
X16712148Y7146447D01*
X16684705Y7153800D01*
D02*
G37*
G36*
X16657800D02*
X16656294D01*
X16628851Y7146447D01*
X16604248Y7132242D01*
X16584158Y7112152D01*
X16569952Y7087548D01*
X16562601Y7060105D01*
Y7058601D01*
X16657800D01*
Y7153800D01*
D02*
G37*
G36*
X16778400Y7033201D02*
X16683200D01*
Y6938000D01*
X16684705D01*
X16712148Y6945353D01*
X16736752Y6959559D01*
X16756842Y6979648D01*
X16771046Y7004252D01*
X16778400Y7031695D01*
Y7033201D01*
D02*
G37*
G36*
X16657800D02*
X16562601D01*
Y7031695D01*
X16569952Y7004252D01*
X16584158Y6979648D01*
X16604248Y6959559D01*
X16628851Y6945353D01*
X16656294Y6938000D01*
X16657800D01*
Y7033201D01*
D02*
G37*
G36*
X16968706Y7015300D02*
X16940295D01*
X16912852Y7007947D01*
X16888248Y6993741D01*
X16868159Y6973652D01*
X16853954Y6949048D01*
X16846600Y6921605D01*
Y6893195D01*
X16853954Y6865752D01*
X16868159Y6841148D01*
X16888248Y6821058D01*
X16912852Y6806853D01*
X16940295Y6799500D01*
X16968706D01*
X16996149Y6806853D01*
X17020752Y6821058D01*
X17040842Y6841148D01*
X17055048Y6865752D01*
X17062399Y6893195D01*
Y6921605D01*
X17055048Y6949048D01*
X17040842Y6973652D01*
X17020752Y6993741D01*
X16996149Y7007947D01*
X16968706Y7015300D01*
D02*
G37*
G36*
X16684705Y6876800D02*
X16656294D01*
X16628851Y6869447D01*
X16604248Y6855241D01*
X16584158Y6835152D01*
X16569952Y6810548D01*
X16562601Y6783105D01*
Y6754695D01*
X16569952Y6727252D01*
X16584158Y6702648D01*
X16604248Y6682558D01*
X16628851Y6668353D01*
X16656294Y6661000D01*
X16684705D01*
X16712148Y6668353D01*
X16736752Y6682558D01*
X16756842Y6702648D01*
X16771046Y6727252D01*
X16778400Y6754695D01*
Y6783105D01*
X16771046Y6810548D01*
X16756842Y6835152D01*
X16736752Y6855241D01*
X16712148Y6869447D01*
X16684705Y6876800D01*
D02*
G37*
G36*
X16833388Y6341300D02*
X16825200D01*
Y6088600D01*
X17077901D01*
Y6096787D01*
X17071365Y6138048D01*
X17058456Y6177778D01*
X17039490Y6215000D01*
X17014935Y6248796D01*
X16985397Y6278335D01*
X16951601Y6302890D01*
X16914378Y6321856D01*
X16874648Y6334765D01*
X16833388Y6341300D01*
D02*
G37*
G36*
X16799800D02*
X16791612D01*
X16750352Y6334765D01*
X16710622Y6321856D01*
X16673399Y6302890D01*
X16639603Y6278335D01*
X16610065Y6248796D01*
X16585510Y6215000D01*
X16566544Y6177778D01*
X16553635Y6138048D01*
X16547099Y6096787D01*
Y6088600D01*
X16799800D01*
Y6341300D01*
D02*
G37*
G36*
X17077901Y6063200D02*
X16825200D01*
Y5810500D01*
X16833388D01*
X16874648Y5817035D01*
X16914378Y5829944D01*
X16951601Y5848909D01*
X16985397Y5873464D01*
X17014935Y5903003D01*
X17039490Y5936800D01*
X17058456Y5974022D01*
X17071365Y6013752D01*
X17077901Y6055012D01*
Y6063200D01*
D02*
G37*
G36*
X16799800D02*
X16547099D01*
Y6055012D01*
X16553635Y6013752D01*
X16566544Y5974022D01*
X16585510Y5936800D01*
X16610065Y5903003D01*
X16639603Y5873464D01*
X16673399Y5848909D01*
X16710622Y5829944D01*
X16750352Y5817035D01*
X16791612Y5810500D01*
X16799800D01*
Y6063200D01*
D02*
G37*
G36*
X14361510Y5841900D02*
X14328491D01*
X14296597Y5833354D01*
X14268002Y5816845D01*
X14244655Y5793497D01*
X14228146Y5764903D01*
X14219600Y5733009D01*
Y5699991D01*
X14228146Y5668098D01*
X14244655Y5639503D01*
X14268002Y5616155D01*
X14296597Y5599646D01*
X14328491Y5591100D01*
X14361510D01*
X14393404Y5599646D01*
X14421997Y5616155D01*
X14445345Y5639503D01*
X14461855Y5668098D01*
X14470399Y5699991D01*
Y5733009D01*
X14461855Y5764903D01*
X14445345Y5793497D01*
X14421997Y5816845D01*
X14393404Y5833354D01*
X14361510Y5841900D01*
D02*
G37*
G36*
X13611510D02*
X13578491D01*
X13546597Y5833354D01*
X13518002Y5816845D01*
X13494655Y5793497D01*
X13478146Y5764903D01*
X13469600Y5733009D01*
Y5699991D01*
X13478146Y5668098D01*
X13494655Y5639503D01*
X13518002Y5616155D01*
X13546597Y5599646D01*
X13578491Y5591100D01*
X13611510D01*
X13643402Y5599646D01*
X13671997Y5616155D01*
X13695345Y5639503D01*
X13711855Y5668098D01*
X13720399Y5699991D01*
Y5733009D01*
X13711855Y5764903D01*
X13695345Y5793497D01*
X13671997Y5816845D01*
X13643402Y5833354D01*
X13611510Y5841900D01*
D02*
G37*
G36*
X12926408D02*
X12893391D01*
X12861497Y5833354D01*
X12832903Y5816845D01*
X12809555Y5793497D01*
X12793046Y5764903D01*
X12784500Y5733009D01*
Y5699991D01*
X12793046Y5668098D01*
X12809555Y5639503D01*
X12832903Y5616155D01*
X12861497Y5599646D01*
X12893391Y5591100D01*
X12926408D01*
X12958302Y5599646D01*
X12986897Y5616155D01*
X13010245Y5639503D01*
X13026755Y5668098D01*
X13035300Y5699991D01*
Y5733009D01*
X13026755Y5764903D01*
X13010245Y5793497D01*
X12986897Y5816845D01*
X12958302Y5833354D01*
X12926408Y5841900D01*
D02*
G37*
G36*
X12176409D02*
X12143391D01*
X12111497Y5833354D01*
X12082903Y5816845D01*
X12059555Y5793497D01*
X12043046Y5764903D01*
X12034500Y5733009D01*
Y5699991D01*
X12043046Y5668098D01*
X12059555Y5639503D01*
X12082903Y5616155D01*
X12111497Y5599646D01*
X12143391Y5591100D01*
X12176409D01*
X12208302Y5599646D01*
X12236897Y5616155D01*
X12260245Y5639503D01*
X12276754Y5668098D01*
X12285300Y5699991D01*
Y5733009D01*
X12276754Y5764903D01*
X12260245Y5793497D01*
X12236897Y5816845D01*
X12208302Y5833354D01*
X12176409Y5841900D01*
D02*
G37*
G36*
X11491309D02*
X11458291D01*
X11426398Y5833354D01*
X11397803Y5816845D01*
X11374455Y5793497D01*
X11357946Y5764903D01*
X11349400Y5733009D01*
Y5699991D01*
X11357946Y5668098D01*
X11374455Y5639503D01*
X11397803Y5616155D01*
X11426398Y5599646D01*
X11458291Y5591100D01*
X11491309D01*
X11523203Y5599646D01*
X11551797Y5616155D01*
X11575145Y5639503D01*
X11591654Y5668098D01*
X11600200Y5699991D01*
Y5733009D01*
X11591654Y5764903D01*
X11575145Y5793497D01*
X11551797Y5816845D01*
X11523203Y5833354D01*
X11491309Y5841900D01*
D02*
G37*
G36*
X10741309D02*
X10708291D01*
X10676397Y5833354D01*
X10647803Y5816845D01*
X10624455Y5793497D01*
X10607946Y5764903D01*
X10599400Y5733009D01*
Y5699991D01*
X10607946Y5668098D01*
X10624455Y5639503D01*
X10647803Y5616155D01*
X10676397Y5599646D01*
X10708291Y5591100D01*
X10741309D01*
X10773202Y5599646D01*
X10801797Y5616155D01*
X10825145Y5639503D01*
X10841654Y5668098D01*
X10850200Y5699991D01*
Y5733009D01*
X10841654Y5764903D01*
X10825145Y5793497D01*
X10801797Y5816845D01*
X10773202Y5833354D01*
X10741309Y5841900D01*
D02*
G37*
G36*
X10056209D02*
X10023191D01*
X9991298Y5833354D01*
X9962703Y5816845D01*
X9939355Y5793497D01*
X9922846Y5764903D01*
X9914300Y5733009D01*
Y5699991D01*
X9922846Y5668098D01*
X9939355Y5639503D01*
X9962703Y5616155D01*
X9991298Y5599646D01*
X10023191Y5591100D01*
X10056209D01*
X10088103Y5599646D01*
X10116697Y5616155D01*
X10140045Y5639503D01*
X10156554Y5668098D01*
X10165100Y5699991D01*
Y5733009D01*
X10156554Y5764903D01*
X10140045Y5793497D01*
X10116697Y5816845D01*
X10088103Y5833354D01*
X10056209Y5841900D01*
D02*
G37*
G36*
X9306209D02*
X9273191D01*
X9241297Y5833354D01*
X9212703Y5816845D01*
X9189355Y5793497D01*
X9172846Y5764903D01*
X9164300Y5733009D01*
Y5699991D01*
X9172846Y5668098D01*
X9189355Y5639503D01*
X9212703Y5616155D01*
X9241297Y5599646D01*
X9273191Y5591100D01*
X9306209D01*
X9338102Y5599646D01*
X9366697Y5616155D01*
X9390045Y5639503D01*
X9406554Y5668098D01*
X9415100Y5699991D01*
Y5733009D01*
X9406554Y5764903D01*
X9390045Y5793497D01*
X9366697Y5816845D01*
X9338102Y5833354D01*
X9306209Y5841900D01*
D02*
G37*
G36*
X8608409D02*
X8575391D01*
X8543498Y5833354D01*
X8514903Y5816845D01*
X8491555Y5793497D01*
X8475046Y5764903D01*
X8466500Y5733009D01*
Y5699991D01*
X8475046Y5668098D01*
X8491555Y5639503D01*
X8514903Y5616155D01*
X8543498Y5599646D01*
X8575391Y5591100D01*
X8608409D01*
X8640303Y5599646D01*
X8668897Y5616155D01*
X8692245Y5639503D01*
X8708754Y5668098D01*
X8717300Y5699991D01*
Y5733009D01*
X8708754Y5764903D01*
X8692245Y5793497D01*
X8668897Y5816845D01*
X8640303Y5833354D01*
X8608409Y5841900D01*
D02*
G37*
G36*
X7858409D02*
X7825391D01*
X7793497Y5833354D01*
X7764903Y5816845D01*
X7741555Y5793497D01*
X7725046Y5764903D01*
X7716500Y5733009D01*
Y5699991D01*
X7725046Y5668098D01*
X7741555Y5639503D01*
X7764903Y5616155D01*
X7793497Y5599646D01*
X7825391Y5591100D01*
X7858409D01*
X7890302Y5599646D01*
X7918897Y5616155D01*
X7942245Y5639503D01*
X7958754Y5668098D01*
X7967300Y5699991D01*
Y5733009D01*
X7958754Y5764903D01*
X7942245Y5793497D01*
X7918897Y5816845D01*
X7890302Y5833354D01*
X7858409Y5841900D01*
D02*
G37*
G36*
X7173309D02*
X7140291D01*
X7108398Y5833354D01*
X7079803Y5816845D01*
X7056455Y5793497D01*
X7039946Y5764903D01*
X7031400Y5733009D01*
Y5699991D01*
X7039946Y5668098D01*
X7056455Y5639503D01*
X7079803Y5616155D01*
X7108398Y5599646D01*
X7140291Y5591100D01*
X7173309D01*
X7205203Y5599646D01*
X7233797Y5616155D01*
X7257145Y5639503D01*
X7273654Y5668098D01*
X7282200Y5699991D01*
Y5733009D01*
X7273654Y5764903D01*
X7257145Y5793497D01*
X7233797Y5816845D01*
X7205203Y5833354D01*
X7173309Y5841900D01*
D02*
G37*
G36*
X6423309D02*
X6390291D01*
X6358397Y5833354D01*
X6329803Y5816845D01*
X6306455Y5793497D01*
X6289946Y5764903D01*
X6281400Y5733009D01*
Y5699991D01*
X6289946Y5668098D01*
X6306455Y5639503D01*
X6329803Y5616155D01*
X6358397Y5599646D01*
X6390291Y5591100D01*
X6423309D01*
X6455202Y5599646D01*
X6483797Y5616155D01*
X6507145Y5639503D01*
X6523654Y5668098D01*
X6532200Y5699991D01*
Y5733009D01*
X6523654Y5764903D01*
X6507145Y5793497D01*
X6483797Y5816845D01*
X6455202Y5833354D01*
X6423309Y5841900D01*
D02*
G37*
G36*
X5738209D02*
X5705191D01*
X5673298Y5833354D01*
X5644703Y5816845D01*
X5621355Y5793497D01*
X5604846Y5764903D01*
X5596300Y5733009D01*
Y5699991D01*
X5604846Y5668098D01*
X5621355Y5639503D01*
X5644703Y5616155D01*
X5673298Y5599646D01*
X5705191Y5591100D01*
X5738209D01*
X5770103Y5599646D01*
X5798697Y5616155D01*
X5822045Y5639503D01*
X5838554Y5668098D01*
X5847100Y5699991D01*
Y5733009D01*
X5838554Y5764903D01*
X5822045Y5793497D01*
X5798697Y5816845D01*
X5770103Y5833354D01*
X5738209Y5841900D01*
D02*
G37*
G36*
X4988209D02*
X4955191D01*
X4923297Y5833354D01*
X4894703Y5816845D01*
X4871355Y5793497D01*
X4854846Y5764903D01*
X4846300Y5733009D01*
Y5699991D01*
X4854846Y5668098D01*
X4871355Y5639503D01*
X4894703Y5616155D01*
X4923297Y5599646D01*
X4955191Y5591100D01*
X4988209D01*
X5020102Y5599646D01*
X5048697Y5616155D01*
X5072045Y5639503D01*
X5088554Y5668098D01*
X5097100Y5699991D01*
Y5733009D01*
X5088554Y5764903D01*
X5072045Y5793497D01*
X5048697Y5816845D01*
X5020102Y5833354D01*
X4988209Y5841900D01*
D02*
G37*
G36*
X4303109D02*
X4270091D01*
X4238198Y5833354D01*
X4209603Y5816845D01*
X4186255Y5793497D01*
X4169746Y5764903D01*
X4161200Y5733009D01*
Y5699991D01*
X4169746Y5668098D01*
X4186255Y5639503D01*
X4209603Y5616155D01*
X4238198Y5599646D01*
X4270091Y5591100D01*
X4303109D01*
X4335003Y5599646D01*
X4363597Y5616155D01*
X4386945Y5639503D01*
X4403454Y5668098D01*
X4412000Y5699991D01*
Y5733009D01*
X4403454Y5764903D01*
X4386945Y5793497D01*
X4363597Y5816845D01*
X4335003Y5833354D01*
X4303109Y5841900D01*
D02*
G37*
G36*
X3553109D02*
X3520091D01*
X3488197Y5833354D01*
X3459603Y5816845D01*
X3436255Y5793497D01*
X3419746Y5764903D01*
X3411200Y5733009D01*
Y5699991D01*
X3419746Y5668098D01*
X3436255Y5639503D01*
X3459603Y5616155D01*
X3488197Y5599646D01*
X3520091Y5591100D01*
X3553109D01*
X3585002Y5599646D01*
X3613597Y5616155D01*
X3636945Y5639503D01*
X3653454Y5668098D01*
X3662000Y5699991D01*
Y5733009D01*
X3653454Y5764903D01*
X3636945Y5793497D01*
X3613597Y5816845D01*
X3585002Y5833354D01*
X3553109Y5841900D01*
D02*
G37*
G36*
X14361510Y5337900D02*
X14328491D01*
X14296597Y5329354D01*
X14268002Y5312845D01*
X14244655Y5289497D01*
X14228146Y5260903D01*
X14219600Y5229009D01*
Y5195991D01*
X14228146Y5164098D01*
X14244655Y5135503D01*
X14268002Y5112155D01*
X14296597Y5095646D01*
X14328491Y5087100D01*
X14361510D01*
X14393404Y5095646D01*
X14421997Y5112155D01*
X14445345Y5135503D01*
X14461855Y5164098D01*
X14470399Y5195991D01*
Y5229009D01*
X14461855Y5260903D01*
X14445345Y5289497D01*
X14421997Y5312845D01*
X14393404Y5329354D01*
X14361510Y5337900D01*
D02*
G37*
G36*
X13611510D02*
X13578491D01*
X13546597Y5329354D01*
X13518002Y5312845D01*
X13494655Y5289497D01*
X13478146Y5260903D01*
X13469600Y5229009D01*
Y5195991D01*
X13478146Y5164098D01*
X13494655Y5135503D01*
X13518002Y5112155D01*
X13546597Y5095646D01*
X13578491Y5087100D01*
X13611510D01*
X13643402Y5095646D01*
X13671997Y5112155D01*
X13695345Y5135503D01*
X13711855Y5164098D01*
X13720399Y5195991D01*
Y5229009D01*
X13711855Y5260903D01*
X13695345Y5289497D01*
X13671997Y5312845D01*
X13643402Y5329354D01*
X13611510Y5337900D01*
D02*
G37*
G36*
X12926408D02*
X12893391D01*
X12861497Y5329354D01*
X12832903Y5312845D01*
X12809555Y5289497D01*
X12793046Y5260903D01*
X12784500Y5229009D01*
Y5195991D01*
X12793046Y5164098D01*
X12809555Y5135503D01*
X12832903Y5112155D01*
X12861497Y5095646D01*
X12893391Y5087100D01*
X12926408D01*
X12958302Y5095646D01*
X12986897Y5112155D01*
X13010245Y5135503D01*
X13026755Y5164098D01*
X13035300Y5195991D01*
Y5229009D01*
X13026755Y5260903D01*
X13010245Y5289497D01*
X12986897Y5312845D01*
X12958302Y5329354D01*
X12926408Y5337900D01*
D02*
G37*
G36*
X12176409D02*
X12143391D01*
X12111497Y5329354D01*
X12082903Y5312845D01*
X12059555Y5289497D01*
X12043046Y5260903D01*
X12034500Y5229009D01*
Y5195991D01*
X12043046Y5164098D01*
X12059555Y5135503D01*
X12082903Y5112155D01*
X12111497Y5095646D01*
X12143391Y5087100D01*
X12176409D01*
X12208302Y5095646D01*
X12236897Y5112155D01*
X12260245Y5135503D01*
X12276754Y5164098D01*
X12285300Y5195991D01*
Y5229009D01*
X12276754Y5260903D01*
X12260245Y5289497D01*
X12236897Y5312845D01*
X12208302Y5329354D01*
X12176409Y5337900D01*
D02*
G37*
G36*
X11491309D02*
X11458291D01*
X11426398Y5329354D01*
X11397803Y5312845D01*
X11374455Y5289497D01*
X11357946Y5260903D01*
X11349400Y5229009D01*
Y5195991D01*
X11357946Y5164098D01*
X11374455Y5135503D01*
X11397803Y5112155D01*
X11426398Y5095646D01*
X11458291Y5087100D01*
X11491309D01*
X11523203Y5095646D01*
X11551797Y5112155D01*
X11575145Y5135503D01*
X11591654Y5164098D01*
X11600200Y5195991D01*
Y5229009D01*
X11591654Y5260903D01*
X11575145Y5289497D01*
X11551797Y5312845D01*
X11523203Y5329354D01*
X11491309Y5337900D01*
D02*
G37*
G36*
X10741309D02*
X10708291D01*
X10676397Y5329354D01*
X10647803Y5312845D01*
X10624455Y5289497D01*
X10607946Y5260903D01*
X10599400Y5229009D01*
Y5195991D01*
X10607946Y5164098D01*
X10624455Y5135503D01*
X10647803Y5112155D01*
X10676397Y5095646D01*
X10708291Y5087100D01*
X10741309D01*
X10773202Y5095646D01*
X10801797Y5112155D01*
X10825145Y5135503D01*
X10841654Y5164098D01*
X10850200Y5195991D01*
Y5229009D01*
X10841654Y5260903D01*
X10825145Y5289497D01*
X10801797Y5312845D01*
X10773202Y5329354D01*
X10741309Y5337900D01*
D02*
G37*
G36*
X10056209D02*
X10023191D01*
X9991298Y5329354D01*
X9962703Y5312845D01*
X9939355Y5289497D01*
X9922846Y5260903D01*
X9914300Y5229009D01*
Y5195991D01*
X9922846Y5164098D01*
X9939355Y5135503D01*
X9962703Y5112155D01*
X9991298Y5095646D01*
X10023191Y5087100D01*
X10056209D01*
X10088103Y5095646D01*
X10116697Y5112155D01*
X10140045Y5135503D01*
X10156554Y5164098D01*
X10165100Y5195991D01*
Y5229009D01*
X10156554Y5260903D01*
X10140045Y5289497D01*
X10116697Y5312845D01*
X10088103Y5329354D01*
X10056209Y5337900D01*
D02*
G37*
G36*
X9306209D02*
X9273191D01*
X9241297Y5329354D01*
X9212703Y5312845D01*
X9189355Y5289497D01*
X9172846Y5260903D01*
X9164300Y5229009D01*
Y5195991D01*
X9172846Y5164098D01*
X9189355Y5135503D01*
X9212703Y5112155D01*
X9241297Y5095646D01*
X9273191Y5087100D01*
X9306209D01*
X9338102Y5095646D01*
X9366697Y5112155D01*
X9390045Y5135503D01*
X9406554Y5164098D01*
X9415100Y5195991D01*
Y5229009D01*
X9406554Y5260903D01*
X9390045Y5289497D01*
X9366697Y5312845D01*
X9338102Y5329354D01*
X9306209Y5337900D01*
D02*
G37*
G36*
X8608409D02*
X8575391D01*
X8543498Y5329354D01*
X8514903Y5312845D01*
X8491555Y5289497D01*
X8475046Y5260903D01*
X8466500Y5229009D01*
Y5195991D01*
X8475046Y5164098D01*
X8491555Y5135503D01*
X8514903Y5112155D01*
X8543498Y5095646D01*
X8575391Y5087100D01*
X8608409D01*
X8640303Y5095646D01*
X8668897Y5112155D01*
X8692245Y5135503D01*
X8708754Y5164098D01*
X8717300Y5195991D01*
Y5229009D01*
X8708754Y5260903D01*
X8692245Y5289497D01*
X8668897Y5312845D01*
X8640303Y5329354D01*
X8608409Y5337900D01*
D02*
G37*
G36*
X7858409D02*
X7825391D01*
X7793497Y5329354D01*
X7764903Y5312845D01*
X7741555Y5289497D01*
X7725046Y5260903D01*
X7716500Y5229009D01*
Y5195991D01*
X7725046Y5164098D01*
X7741555Y5135503D01*
X7764903Y5112155D01*
X7793497Y5095646D01*
X7825391Y5087100D01*
X7858409D01*
X7890302Y5095646D01*
X7918897Y5112155D01*
X7942245Y5135503D01*
X7958754Y5164098D01*
X7967300Y5195991D01*
Y5229009D01*
X7958754Y5260903D01*
X7942245Y5289497D01*
X7918897Y5312845D01*
X7890302Y5329354D01*
X7858409Y5337900D01*
D02*
G37*
G36*
X7173309D02*
X7140291D01*
X7108398Y5329354D01*
X7079803Y5312845D01*
X7056455Y5289497D01*
X7039946Y5260903D01*
X7031400Y5229009D01*
Y5195991D01*
X7039946Y5164098D01*
X7056455Y5135503D01*
X7079803Y5112155D01*
X7108398Y5095646D01*
X7140291Y5087100D01*
X7173309D01*
X7205203Y5095646D01*
X7233797Y5112155D01*
X7257145Y5135503D01*
X7273654Y5164098D01*
X7282200Y5195991D01*
Y5229009D01*
X7273654Y5260903D01*
X7257145Y5289497D01*
X7233797Y5312845D01*
X7205203Y5329354D01*
X7173309Y5337900D01*
D02*
G37*
G36*
X6423309D02*
X6390291D01*
X6358397Y5329354D01*
X6329803Y5312845D01*
X6306455Y5289497D01*
X6289946Y5260903D01*
X6281400Y5229009D01*
Y5195991D01*
X6289946Y5164098D01*
X6306455Y5135503D01*
X6329803Y5112155D01*
X6358397Y5095646D01*
X6390291Y5087100D01*
X6423309D01*
X6455202Y5095646D01*
X6483797Y5112155D01*
X6507145Y5135503D01*
X6523654Y5164098D01*
X6532200Y5195991D01*
Y5229009D01*
X6523654Y5260903D01*
X6507145Y5289497D01*
X6483797Y5312845D01*
X6455202Y5329354D01*
X6423309Y5337900D01*
D02*
G37*
G36*
X5738209D02*
X5705191D01*
X5673298Y5329354D01*
X5644703Y5312845D01*
X5621355Y5289497D01*
X5604846Y5260903D01*
X5596300Y5229009D01*
Y5195991D01*
X5604846Y5164098D01*
X5621355Y5135503D01*
X5644703Y5112155D01*
X5673298Y5095646D01*
X5705191Y5087100D01*
X5738209D01*
X5770103Y5095646D01*
X5798697Y5112155D01*
X5822045Y5135503D01*
X5838554Y5164098D01*
X5847100Y5195991D01*
Y5229009D01*
X5838554Y5260903D01*
X5822045Y5289497D01*
X5798697Y5312845D01*
X5770103Y5329354D01*
X5738209Y5337900D01*
D02*
G37*
G36*
X4988209D02*
X4955191D01*
X4923297Y5329354D01*
X4894703Y5312845D01*
X4871355Y5289497D01*
X4854846Y5260903D01*
X4846300Y5229009D01*
Y5195991D01*
X4854846Y5164098D01*
X4871355Y5135503D01*
X4894703Y5112155D01*
X4923297Y5095646D01*
X4955191Y5087100D01*
X4988209D01*
X5020102Y5095646D01*
X5048697Y5112155D01*
X5072045Y5135503D01*
X5088554Y5164098D01*
X5097100Y5195991D01*
Y5229009D01*
X5088554Y5260903D01*
X5072045Y5289497D01*
X5048697Y5312845D01*
X5020102Y5329354D01*
X4988209Y5337900D01*
D02*
G37*
G36*
X4303109D02*
X4270091D01*
X4238198Y5329354D01*
X4209603Y5312845D01*
X4186255Y5289497D01*
X4169746Y5260903D01*
X4161200Y5229009D01*
Y5195991D01*
X4169746Y5164098D01*
X4186255Y5135503D01*
X4209603Y5112155D01*
X4238198Y5095646D01*
X4270091Y5087100D01*
X4303109D01*
X4335003Y5095646D01*
X4363597Y5112155D01*
X4386945Y5135503D01*
X4403454Y5164098D01*
X4412000Y5195991D01*
Y5229009D01*
X4403454Y5260903D01*
X4386945Y5289497D01*
X4363597Y5312845D01*
X4335003Y5329354D01*
X4303109Y5337900D01*
D02*
G37*
G36*
X3553109D02*
X3520091D01*
X3488197Y5329354D01*
X3459603Y5312845D01*
X3436255Y5289497D01*
X3419746Y5260903D01*
X3411200Y5229009D01*
Y5195991D01*
X3419746Y5164098D01*
X3436255Y5135503D01*
X3459603Y5112155D01*
X3488197Y5095646D01*
X3520091Y5087100D01*
X3553109D01*
X3585002Y5095646D01*
X3613597Y5112155D01*
X3636945Y5135503D01*
X3653454Y5164098D01*
X3662000Y5195991D01*
Y5229009D01*
X3653454Y5260903D01*
X3636945Y5289497D01*
X3613597Y5312845D01*
X3585002Y5329354D01*
X3553109Y5337900D01*
D02*
G37*
G36*
X14361510Y4829900D02*
X14328491D01*
X14296597Y4821354D01*
X14268002Y4804845D01*
X14244655Y4781497D01*
X14228146Y4752903D01*
X14219600Y4721009D01*
Y4687991D01*
X14228146Y4656098D01*
X14244655Y4627503D01*
X14268002Y4604155D01*
X14296597Y4587646D01*
X14328491Y4579100D01*
X14361510D01*
X14393404Y4587646D01*
X14421997Y4604155D01*
X14445345Y4627503D01*
X14461855Y4656098D01*
X14470399Y4687991D01*
Y4721009D01*
X14461855Y4752903D01*
X14445345Y4781497D01*
X14421997Y4804845D01*
X14393404Y4821354D01*
X14361510Y4829900D01*
D02*
G37*
G36*
X13611510D02*
X13578491D01*
X13546597Y4821354D01*
X13518002Y4804845D01*
X13494655Y4781497D01*
X13478146Y4752903D01*
X13469600Y4721009D01*
Y4687991D01*
X13478146Y4656098D01*
X13494655Y4627503D01*
X13518002Y4604155D01*
X13546597Y4587646D01*
X13578491Y4579100D01*
X13611510D01*
X13643402Y4587646D01*
X13671997Y4604155D01*
X13695345Y4627503D01*
X13711855Y4656098D01*
X13720399Y4687991D01*
Y4721009D01*
X13711855Y4752903D01*
X13695345Y4781497D01*
X13671997Y4804845D01*
X13643402Y4821354D01*
X13611510Y4829900D01*
D02*
G37*
G36*
X12926408D02*
X12893391D01*
X12861497Y4821354D01*
X12832903Y4804845D01*
X12809555Y4781497D01*
X12793046Y4752903D01*
X12784500Y4721009D01*
Y4687991D01*
X12793046Y4656098D01*
X12809555Y4627503D01*
X12832903Y4604155D01*
X12861497Y4587646D01*
X12893391Y4579100D01*
X12926408D01*
X12958302Y4587646D01*
X12986897Y4604155D01*
X13010245Y4627503D01*
X13026755Y4656098D01*
X13035300Y4687991D01*
Y4721009D01*
X13026755Y4752903D01*
X13010245Y4781497D01*
X12986897Y4804845D01*
X12958302Y4821354D01*
X12926408Y4829900D01*
D02*
G37*
G36*
X12176409D02*
X12143391D01*
X12111497Y4821354D01*
X12082903Y4804845D01*
X12059555Y4781497D01*
X12043046Y4752903D01*
X12034500Y4721009D01*
Y4687991D01*
X12043046Y4656098D01*
X12059555Y4627503D01*
X12082903Y4604155D01*
X12111497Y4587646D01*
X12143391Y4579100D01*
X12176409D01*
X12208302Y4587646D01*
X12236897Y4604155D01*
X12260245Y4627503D01*
X12276754Y4656098D01*
X12285300Y4687991D01*
Y4721009D01*
X12276754Y4752903D01*
X12260245Y4781497D01*
X12236897Y4804845D01*
X12208302Y4821354D01*
X12176409Y4829900D01*
D02*
G37*
G36*
X11491309D02*
X11458291D01*
X11426398Y4821354D01*
X11397803Y4804845D01*
X11374455Y4781497D01*
X11357946Y4752903D01*
X11349400Y4721009D01*
Y4687991D01*
X11357946Y4656098D01*
X11374455Y4627503D01*
X11397803Y4604155D01*
X11426398Y4587646D01*
X11458291Y4579100D01*
X11491309D01*
X11523203Y4587646D01*
X11551797Y4604155D01*
X11575145Y4627503D01*
X11591654Y4656098D01*
X11600200Y4687991D01*
Y4721009D01*
X11591654Y4752903D01*
X11575145Y4781497D01*
X11551797Y4804845D01*
X11523203Y4821354D01*
X11491309Y4829900D01*
D02*
G37*
G36*
X10741309D02*
X10708291D01*
X10676397Y4821354D01*
X10647803Y4804845D01*
X10624455Y4781497D01*
X10607946Y4752903D01*
X10599400Y4721009D01*
Y4687991D01*
X10607946Y4656098D01*
X10624455Y4627503D01*
X10647803Y4604155D01*
X10676397Y4587646D01*
X10708291Y4579100D01*
X10741309D01*
X10773202Y4587646D01*
X10801797Y4604155D01*
X10825145Y4627503D01*
X10841654Y4656098D01*
X10850200Y4687991D01*
Y4721009D01*
X10841654Y4752903D01*
X10825145Y4781497D01*
X10801797Y4804845D01*
X10773202Y4821354D01*
X10741309Y4829900D01*
D02*
G37*
G36*
X10056209D02*
X10023191D01*
X9991298Y4821354D01*
X9962703Y4804845D01*
X9939355Y4781497D01*
X9922846Y4752903D01*
X9914300Y4721009D01*
Y4687991D01*
X9922846Y4656098D01*
X9939355Y4627503D01*
X9962703Y4604155D01*
X9991298Y4587646D01*
X10023191Y4579100D01*
X10056209D01*
X10088103Y4587646D01*
X10116697Y4604155D01*
X10140045Y4627503D01*
X10156554Y4656098D01*
X10165100Y4687991D01*
Y4721009D01*
X10156554Y4752903D01*
X10140045Y4781497D01*
X10116697Y4804845D01*
X10088103Y4821354D01*
X10056209Y4829900D01*
D02*
G37*
G36*
X9306209D02*
X9273191D01*
X9241297Y4821354D01*
X9212703Y4804845D01*
X9189355Y4781497D01*
X9172846Y4752903D01*
X9164300Y4721009D01*
Y4687991D01*
X9172846Y4656098D01*
X9189355Y4627503D01*
X9212703Y4604155D01*
X9241297Y4587646D01*
X9273191Y4579100D01*
X9306209D01*
X9338102Y4587646D01*
X9366697Y4604155D01*
X9390045Y4627503D01*
X9406554Y4656098D01*
X9415100Y4687991D01*
Y4721009D01*
X9406554Y4752903D01*
X9390045Y4781497D01*
X9366697Y4804845D01*
X9338102Y4821354D01*
X9306209Y4829900D01*
D02*
G37*
G36*
X8608409D02*
X8575391D01*
X8543498Y4821354D01*
X8514903Y4804845D01*
X8491555Y4781497D01*
X8475046Y4752903D01*
X8466500Y4721009D01*
Y4687991D01*
X8475046Y4656098D01*
X8491555Y4627503D01*
X8514903Y4604155D01*
X8543498Y4587646D01*
X8575391Y4579100D01*
X8608409D01*
X8640303Y4587646D01*
X8668897Y4604155D01*
X8692245Y4627503D01*
X8708754Y4656098D01*
X8717300Y4687991D01*
Y4721009D01*
X8708754Y4752903D01*
X8692245Y4781497D01*
X8668897Y4804845D01*
X8640303Y4821354D01*
X8608409Y4829900D01*
D02*
G37*
G36*
X7858409D02*
X7825391D01*
X7793497Y4821354D01*
X7764903Y4804845D01*
X7741555Y4781497D01*
X7725046Y4752903D01*
X7716500Y4721009D01*
Y4687991D01*
X7725046Y4656098D01*
X7741555Y4627503D01*
X7764903Y4604155D01*
X7793497Y4587646D01*
X7825391Y4579100D01*
X7858409D01*
X7890302Y4587646D01*
X7918897Y4604155D01*
X7942245Y4627503D01*
X7958754Y4656098D01*
X7967300Y4687991D01*
Y4721009D01*
X7958754Y4752903D01*
X7942245Y4781497D01*
X7918897Y4804845D01*
X7890302Y4821354D01*
X7858409Y4829900D01*
D02*
G37*
G36*
X7173309D02*
X7140291D01*
X7108398Y4821354D01*
X7079803Y4804845D01*
X7056455Y4781497D01*
X7039946Y4752903D01*
X7031400Y4721009D01*
Y4687991D01*
X7039946Y4656098D01*
X7056455Y4627503D01*
X7079803Y4604155D01*
X7108398Y4587646D01*
X7140291Y4579100D01*
X7173309D01*
X7205203Y4587646D01*
X7233797Y4604155D01*
X7257145Y4627503D01*
X7273654Y4656098D01*
X7282200Y4687991D01*
Y4721009D01*
X7273654Y4752903D01*
X7257145Y4781497D01*
X7233797Y4804845D01*
X7205203Y4821354D01*
X7173309Y4829900D01*
D02*
G37*
G36*
X6423309D02*
X6390291D01*
X6358397Y4821354D01*
X6329803Y4804845D01*
X6306455Y4781497D01*
X6289946Y4752903D01*
X6281400Y4721009D01*
Y4687991D01*
X6289946Y4656098D01*
X6306455Y4627503D01*
X6329803Y4604155D01*
X6358397Y4587646D01*
X6390291Y4579100D01*
X6423309D01*
X6455202Y4587646D01*
X6483797Y4604155D01*
X6507145Y4627503D01*
X6523654Y4656098D01*
X6532200Y4687991D01*
Y4721009D01*
X6523654Y4752903D01*
X6507145Y4781497D01*
X6483797Y4804845D01*
X6455202Y4821354D01*
X6423309Y4829900D01*
D02*
G37*
G36*
X5738209D02*
X5705191D01*
X5673298Y4821354D01*
X5644703Y4804845D01*
X5621355Y4781497D01*
X5604846Y4752903D01*
X5596300Y4721009D01*
Y4687991D01*
X5604846Y4656098D01*
X5621355Y4627503D01*
X5644703Y4604155D01*
X5673298Y4587646D01*
X5705191Y4579100D01*
X5738209D01*
X5770103Y4587646D01*
X5798697Y4604155D01*
X5822045Y4627503D01*
X5838554Y4656098D01*
X5847100Y4687991D01*
Y4721009D01*
X5838554Y4752903D01*
X5822045Y4781497D01*
X5798697Y4804845D01*
X5770103Y4821354D01*
X5738209Y4829900D01*
D02*
G37*
G36*
X4988209D02*
X4955191D01*
X4923297Y4821354D01*
X4894703Y4804845D01*
X4871355Y4781497D01*
X4854846Y4752903D01*
X4846300Y4721009D01*
Y4687991D01*
X4854846Y4656098D01*
X4871355Y4627503D01*
X4894703Y4604155D01*
X4923297Y4587646D01*
X4955191Y4579100D01*
X4988209D01*
X5020102Y4587646D01*
X5048697Y4604155D01*
X5072045Y4627503D01*
X5088554Y4656098D01*
X5097100Y4687991D01*
Y4721009D01*
X5088554Y4752903D01*
X5072045Y4781497D01*
X5048697Y4804845D01*
X5020102Y4821354D01*
X4988209Y4829900D01*
D02*
G37*
G36*
X4303109D02*
X4270091D01*
X4238198Y4821354D01*
X4209603Y4804845D01*
X4186255Y4781497D01*
X4169746Y4752903D01*
X4161200Y4721009D01*
Y4687991D01*
X4169746Y4656098D01*
X4186255Y4627503D01*
X4209603Y4604155D01*
X4238198Y4587646D01*
X4270091Y4579100D01*
X4303109D01*
X4335003Y4587646D01*
X4363597Y4604155D01*
X4386945Y4627503D01*
X4403454Y4656098D01*
X4412000Y4687991D01*
Y4721009D01*
X4403454Y4752903D01*
X4386945Y4781497D01*
X4363597Y4804845D01*
X4335003Y4821354D01*
X4303109Y4829900D01*
D02*
G37*
G36*
X3553109D02*
X3520091D01*
X3488197Y4821354D01*
X3459603Y4804845D01*
X3436255Y4781497D01*
X3419746Y4752903D01*
X3411200Y4721009D01*
Y4687991D01*
X3419746Y4656098D01*
X3436255Y4627503D01*
X3459603Y4604155D01*
X3488197Y4587646D01*
X3520091Y4579100D01*
X3553109D01*
X3585002Y4587646D01*
X3613597Y4604155D01*
X3636945Y4627503D01*
X3653454Y4656098D01*
X3662000Y4687991D01*
Y4721009D01*
X3653454Y4752903D01*
X3636945Y4781497D01*
X3613597Y4804845D01*
X3585002Y4821354D01*
X3553109Y4829900D01*
D02*
G37*
G36*
X6018804Y3937000D02*
X5995396D01*
X5972786Y3930942D01*
X5952514Y3919238D01*
X5935962Y3902686D01*
X5924258Y3882414D01*
X5918200Y3859804D01*
Y3836396D01*
X5924258Y3813786D01*
X5935962Y3793514D01*
X5952514Y3776962D01*
X5972786Y3765258D01*
X5995396Y3759200D01*
X6018804D01*
X6041414Y3765258D01*
X6061686Y3776962D01*
X6078238Y3793514D01*
X6089942Y3813786D01*
X6096000Y3836396D01*
Y3859804D01*
X6089942Y3882414D01*
X6078238Y3902686D01*
X6061686Y3919238D01*
X6041414Y3930942D01*
X6018804Y3937000D01*
D02*
G37*
G36*
X7273605Y3744699D02*
X7272100D01*
Y3649499D01*
X7367299D01*
Y3651005D01*
X7359946Y3678447D01*
X7345741Y3703052D01*
X7325652Y3723141D01*
X7301047Y3737346D01*
X7273605Y3744699D01*
D02*
G37*
G36*
X7246700D02*
X7245194D01*
X7217752Y3737346D01*
X7193147Y3723141D01*
X7173058Y3703052D01*
X7158853Y3678447D01*
X7151500Y3651005D01*
Y3649499D01*
X7246700D01*
Y3744699D01*
D02*
G37*
G36*
X10320605D02*
X10292194D01*
X10264752Y3737346D01*
X10240147Y3723141D01*
X10220058Y3703052D01*
X10205853Y3678447D01*
X10198500Y3651005D01*
Y3622594D01*
X10205853Y3595152D01*
X10220058Y3570547D01*
X10240147Y3550458D01*
X10264752Y3536253D01*
X10292194Y3528899D01*
X10320605D01*
X10348047Y3536253D01*
X10372652Y3550458D01*
X10392741Y3570547D01*
X10406946Y3595152D01*
X10414299Y3622594D01*
Y3651005D01*
X10406946Y3678447D01*
X10392741Y3703052D01*
X10372652Y3723141D01*
X10348047Y3737346D01*
X10320605Y3744699D01*
D02*
G37*
G36*
X10043605D02*
X10015194D01*
X9987752Y3737346D01*
X9963147Y3723141D01*
X9943058Y3703052D01*
X9928853Y3678447D01*
X9921500Y3651005D01*
Y3622594D01*
X9928853Y3595152D01*
X9943058Y3570547D01*
X9963147Y3550458D01*
X9987752Y3536253D01*
X10015194Y3528899D01*
X10043605D01*
X10071047Y3536253D01*
X10095652Y3550458D01*
X10115741Y3570547D01*
X10129946Y3595152D01*
X10137300Y3622594D01*
Y3651005D01*
X10129946Y3678447D01*
X10115741Y3703052D01*
X10095652Y3723141D01*
X10071047Y3737346D01*
X10043605Y3744699D01*
D02*
G37*
G36*
X9766605D02*
X9738194D01*
X9710752Y3737346D01*
X9686148Y3723141D01*
X9666058Y3703052D01*
X9651853Y3678447D01*
X9644500Y3651005D01*
Y3622594D01*
X9651853Y3595152D01*
X9666058Y3570547D01*
X9686148Y3550458D01*
X9710752Y3536253D01*
X9738194Y3528899D01*
X9766605D01*
X9794047Y3536253D01*
X9818652Y3550458D01*
X9838741Y3570547D01*
X9852947Y3595152D01*
X9860300Y3622594D01*
Y3651005D01*
X9852947Y3678447D01*
X9838741Y3703052D01*
X9818652Y3723141D01*
X9794047Y3737346D01*
X9766605Y3744699D01*
D02*
G37*
G36*
X9489605D02*
X9461194D01*
X9433752Y3737346D01*
X9409148Y3723141D01*
X9389058Y3703052D01*
X9374853Y3678447D01*
X9367500Y3651005D01*
Y3622594D01*
X9374853Y3595152D01*
X9389058Y3570547D01*
X9409148Y3550458D01*
X9433752Y3536253D01*
X9461194Y3528899D01*
X9489605D01*
X9517048Y3536253D01*
X9541652Y3550458D01*
X9561741Y3570547D01*
X9575947Y3595152D01*
X9583300Y3622594D01*
Y3651005D01*
X9575947Y3678447D01*
X9561741Y3703052D01*
X9541652Y3723141D01*
X9517048Y3737346D01*
X9489605Y3744699D01*
D02*
G37*
G36*
X9212605D02*
X9184194D01*
X9156752Y3737346D01*
X9132148Y3723141D01*
X9112058Y3703052D01*
X9097853Y3678447D01*
X9090500Y3651005D01*
Y3622594D01*
X9097853Y3595152D01*
X9112058Y3570547D01*
X9132148Y3550458D01*
X9156752Y3536253D01*
X9184194Y3528899D01*
X9212605D01*
X9240048Y3536253D01*
X9264652Y3550458D01*
X9284741Y3570547D01*
X9298947Y3595152D01*
X9306300Y3622594D01*
Y3651005D01*
X9298947Y3678447D01*
X9284741Y3703052D01*
X9264652Y3723141D01*
X9240048Y3737346D01*
X9212605Y3744699D01*
D02*
G37*
G36*
X8935605D02*
X8907195D01*
X8879752Y3737346D01*
X8855148Y3723141D01*
X8835058Y3703052D01*
X8820853Y3678447D01*
X8813500Y3651005D01*
Y3622594D01*
X8820853Y3595152D01*
X8835058Y3570547D01*
X8855148Y3550458D01*
X8879752Y3536253D01*
X8907195Y3528899D01*
X8935605D01*
X8963048Y3536253D01*
X8987652Y3550458D01*
X9007741Y3570547D01*
X9021947Y3595152D01*
X9029300Y3622594D01*
Y3651005D01*
X9021947Y3678447D01*
X9007741Y3703052D01*
X8987652Y3723141D01*
X8963048Y3737346D01*
X8935605Y3744699D01*
D02*
G37*
G36*
X8658605D02*
X8630194D01*
X8602752Y3737346D01*
X8578147Y3723141D01*
X8558058Y3703052D01*
X8543853Y3678447D01*
X8536500Y3651005D01*
Y3622594D01*
X8543853Y3595152D01*
X8558058Y3570547D01*
X8578147Y3550458D01*
X8602752Y3536253D01*
X8630194Y3528899D01*
X8658605D01*
X8686047Y3536253D01*
X8710652Y3550458D01*
X8730741Y3570547D01*
X8744946Y3595152D01*
X8752299Y3622594D01*
Y3651005D01*
X8744946Y3678447D01*
X8730741Y3703052D01*
X8710652Y3723141D01*
X8686047Y3737346D01*
X8658605Y3744699D01*
D02*
G37*
G36*
X8381605D02*
X8353194D01*
X8325752Y3737346D01*
X8301147Y3723141D01*
X8281058Y3703052D01*
X8266853Y3678447D01*
X8259500Y3651005D01*
Y3622594D01*
X8266853Y3595152D01*
X8281058Y3570547D01*
X8301147Y3550458D01*
X8325752Y3536253D01*
X8353194Y3528899D01*
X8381605D01*
X8409047Y3536253D01*
X8433652Y3550458D01*
X8453741Y3570547D01*
X8467946Y3595152D01*
X8475300Y3622594D01*
Y3651005D01*
X8467946Y3678447D01*
X8453741Y3703052D01*
X8433652Y3723141D01*
X8409047Y3737346D01*
X8381605Y3744699D01*
D02*
G37*
G36*
X8104605D02*
X8076194D01*
X8048752Y3737346D01*
X8024148Y3723141D01*
X8004058Y3703052D01*
X7989853Y3678447D01*
X7982500Y3651005D01*
Y3622594D01*
X7989853Y3595152D01*
X8004058Y3570547D01*
X8024148Y3550458D01*
X8048752Y3536253D01*
X8076194Y3528899D01*
X8104605D01*
X8132047Y3536253D01*
X8156652Y3550458D01*
X8176741Y3570547D01*
X8190947Y3595152D01*
X8198300Y3622594D01*
Y3651005D01*
X8190947Y3678447D01*
X8176741Y3703052D01*
X8156652Y3723141D01*
X8132047Y3737346D01*
X8104605Y3744699D01*
D02*
G37*
G36*
X7827605D02*
X7799194D01*
X7771752Y3737346D01*
X7747147Y3723141D01*
X7727058Y3703052D01*
X7712852Y3678447D01*
X7705499Y3651005D01*
Y3622594D01*
X7712852Y3595152D01*
X7727058Y3570547D01*
X7747147Y3550458D01*
X7771752Y3536253D01*
X7799194Y3528899D01*
X7827605D01*
X7855047Y3536253D01*
X7879651Y3550458D01*
X7899741Y3570547D01*
X7913946Y3595152D01*
X7921299Y3622594D01*
Y3651005D01*
X7913946Y3678447D01*
X7899741Y3703052D01*
X7879651Y3723141D01*
X7855047Y3737346D01*
X7827605Y3744699D01*
D02*
G37*
G36*
X7550605D02*
X7522195D01*
X7494752Y3737346D01*
X7470148Y3723141D01*
X7450058Y3703052D01*
X7435853Y3678447D01*
X7428500Y3651005D01*
Y3622594D01*
X7435853Y3595152D01*
X7450058Y3570547D01*
X7470148Y3550458D01*
X7494752Y3536253D01*
X7522195Y3528899D01*
X7550605D01*
X7578048Y3536253D01*
X7602652Y3550458D01*
X7622741Y3570547D01*
X7636947Y3595152D01*
X7644300Y3622594D01*
Y3651005D01*
X7636947Y3678447D01*
X7622741Y3703052D01*
X7602652Y3723141D01*
X7578048Y3737346D01*
X7550605Y3744699D01*
D02*
G37*
G36*
X7367299Y3624099D02*
X7272100D01*
Y3528899D01*
X7273605D01*
X7301047Y3536253D01*
X7325652Y3550458D01*
X7345741Y3570547D01*
X7359946Y3595152D01*
X7367299Y3622594D01*
Y3624099D01*
D02*
G37*
G36*
X7246700D02*
X7151500D01*
Y3622594D01*
X7158853Y3595152D01*
X7173058Y3570547D01*
X7193147Y3550458D01*
X7217752Y3536253D01*
X7245194Y3528899D01*
X7246700D01*
Y3624099D01*
D02*
G37*
G36*
X10624649Y3745274D02*
X10542150D01*
X10524750Y3742984D01*
X10508537Y3736268D01*
X10494614Y3725585D01*
X10483931Y3711662D01*
X10477215Y3695449D01*
X10474924Y3678049D01*
Y3595550D01*
X10477215Y3578150D01*
X10483931Y3561937D01*
X10494614Y3548014D01*
X10508537Y3537331D01*
X10524750Y3530615D01*
X10542150Y3528324D01*
X10624649D01*
X10642049Y3530615D01*
X10658262Y3537331D01*
X10672185Y3548014D01*
X10682868Y3561937D01*
X10689584Y3578150D01*
X10691874Y3595550D01*
Y3678049D01*
X10689584Y3695449D01*
X10682868Y3711662D01*
X10672185Y3725585D01*
X10658262Y3736268D01*
X10642049Y3742984D01*
X10624649Y3745274D01*
D02*
G37*
G36*
X11297287Y3760199D02*
X11289100D01*
Y3507499D01*
X11541800D01*
Y3515687D01*
X11535265Y3556947D01*
X11522355Y3596678D01*
X11503390Y3633900D01*
X11478835Y3667696D01*
X11449296Y3697235D01*
X11415500Y3721790D01*
X11378278Y3740755D01*
X11338548Y3753665D01*
X11297287Y3760199D01*
D02*
G37*
G36*
X11263700D02*
X11255512D01*
X11214252Y3753665D01*
X11174521Y3740755D01*
X11137300Y3721790D01*
X11103503Y3697235D01*
X11073964Y3667696D01*
X11049409Y3633900D01*
X11030444Y3596678D01*
X11017534Y3556947D01*
X11011000Y3515687D01*
Y3507499D01*
X11263700D01*
Y3760199D01*
D02*
G37*
G36*
X6587287D02*
X6579099D01*
Y3507499D01*
X6831799D01*
Y3515687D01*
X6825264Y3556947D01*
X6812355Y3596678D01*
X6793390Y3633900D01*
X6768835Y3667696D01*
X6739296Y3697235D01*
X6705499Y3721790D01*
X6668277Y3740755D01*
X6628547Y3753665D01*
X6587287Y3760199D01*
D02*
G37*
G36*
X6553699D02*
X6545512D01*
X6504251Y3753665D01*
X6464521Y3740755D01*
X6427299Y3721790D01*
X6393503Y3697235D01*
X6363964Y3667696D01*
X6339409Y3633900D01*
X6320444Y3596678D01*
X6307534Y3556947D01*
X6300999Y3515687D01*
Y3507499D01*
X6553699D01*
Y3760199D01*
D02*
G37*
G36*
X5777504Y3530600D02*
X5754096D01*
X5731486Y3524542D01*
X5711214Y3512838D01*
X5694662Y3496286D01*
X5682958Y3476014D01*
X5676900Y3453404D01*
Y3429996D01*
X5682958Y3407386D01*
X5694662Y3387114D01*
X5711214Y3370562D01*
X5731486Y3358858D01*
X5754096Y3352800D01*
X5777504D01*
X5800114Y3358858D01*
X5820386Y3370562D01*
X5836938Y3387114D01*
X5848642Y3407386D01*
X5854700Y3429996D01*
Y3453404D01*
X5848642Y3476014D01*
X5836938Y3496286D01*
X5820386Y3512838D01*
X5800114Y3524542D01*
X5777504Y3530600D01*
D02*
G37*
G36*
X10459105Y3460699D02*
X10430694D01*
X10403252Y3453346D01*
X10378648Y3439141D01*
X10358558Y3419052D01*
X10344353Y3394447D01*
X10337000Y3367005D01*
Y3338594D01*
X10344353Y3311152D01*
X10358558Y3286547D01*
X10378648Y3266458D01*
X10403252Y3252253D01*
X10430694Y3244900D01*
X10459105D01*
X10486547Y3252253D01*
X10511152Y3266458D01*
X10531241Y3286547D01*
X10545447Y3311152D01*
X10552800Y3338594D01*
Y3367005D01*
X10545447Y3394447D01*
X10531241Y3419052D01*
X10511152Y3439141D01*
X10486547Y3453346D01*
X10459105Y3460699D01*
D02*
G37*
G36*
X10182105D02*
X10153694D01*
X10126252Y3453346D01*
X10101648Y3439141D01*
X10081558Y3419052D01*
X10067353Y3394447D01*
X10060000Y3367005D01*
Y3338594D01*
X10067353Y3311152D01*
X10081558Y3286547D01*
X10101648Y3266458D01*
X10126252Y3252253D01*
X10153694Y3244900D01*
X10182105D01*
X10209548Y3252253D01*
X10234152Y3266458D01*
X10254241Y3286547D01*
X10268447Y3311152D01*
X10275800Y3338594D01*
Y3367005D01*
X10268447Y3394447D01*
X10254241Y3419052D01*
X10234152Y3439141D01*
X10209548Y3453346D01*
X10182105Y3460699D01*
D02*
G37*
G36*
X9905105D02*
X9876694D01*
X9849252Y3453346D01*
X9824648Y3439141D01*
X9804558Y3419052D01*
X9790353Y3394447D01*
X9783000Y3367005D01*
Y3338594D01*
X9790353Y3311152D01*
X9804558Y3286547D01*
X9824648Y3266458D01*
X9849252Y3252253D01*
X9876694Y3244900D01*
X9905105D01*
X9932548Y3252253D01*
X9957152Y3266458D01*
X9977241Y3286547D01*
X9991447Y3311152D01*
X9998800Y3338594D01*
Y3367005D01*
X9991447Y3394447D01*
X9977241Y3419052D01*
X9957152Y3439141D01*
X9932548Y3453346D01*
X9905105Y3460699D01*
D02*
G37*
G36*
X9628105D02*
X9599694D01*
X9572252Y3453346D01*
X9547647Y3439141D01*
X9527558Y3419052D01*
X9513353Y3394447D01*
X9506000Y3367005D01*
Y3338594D01*
X9513353Y3311152D01*
X9527558Y3286547D01*
X9547647Y3266458D01*
X9572252Y3252253D01*
X9599694Y3244900D01*
X9628105D01*
X9655547Y3252253D01*
X9680152Y3266458D01*
X9700241Y3286547D01*
X9714446Y3311152D01*
X9721799Y3338594D01*
Y3367005D01*
X9714446Y3394447D01*
X9700241Y3419052D01*
X9680152Y3439141D01*
X9655547Y3453346D01*
X9628105Y3460699D01*
D02*
G37*
G36*
X9351105D02*
X9322695D01*
X9295252Y3453346D01*
X9270648Y3439141D01*
X9250558Y3419052D01*
X9236353Y3394447D01*
X9229000Y3367005D01*
Y3338594D01*
X9236353Y3311152D01*
X9250558Y3286547D01*
X9270648Y3266458D01*
X9295252Y3252253D01*
X9322695Y3244900D01*
X9351105D01*
X9378548Y3252253D01*
X9403152Y3266458D01*
X9423241Y3286547D01*
X9437447Y3311152D01*
X9444800Y3338594D01*
Y3367005D01*
X9437447Y3394447D01*
X9423241Y3419052D01*
X9403152Y3439141D01*
X9378548Y3453346D01*
X9351105Y3460699D01*
D02*
G37*
G36*
X9074105D02*
X9045694D01*
X9018252Y3453346D01*
X8993647Y3439141D01*
X8973558Y3419052D01*
X8959353Y3394447D01*
X8952000Y3367005D01*
Y3338594D01*
X8959353Y3311152D01*
X8973558Y3286547D01*
X8993647Y3266458D01*
X9018252Y3252253D01*
X9045694Y3244900D01*
X9074105D01*
X9101547Y3252253D01*
X9126152Y3266458D01*
X9146241Y3286547D01*
X9160446Y3311152D01*
X9167800Y3338594D01*
Y3367005D01*
X9160446Y3394447D01*
X9146241Y3419052D01*
X9126152Y3439141D01*
X9101547Y3453346D01*
X9074105Y3460699D01*
D02*
G37*
G36*
X8797105D02*
X8768694D01*
X8741252Y3453346D01*
X8716648Y3439141D01*
X8696558Y3419052D01*
X8682353Y3394447D01*
X8675000Y3367005D01*
Y3338594D01*
X8682353Y3311152D01*
X8696558Y3286547D01*
X8716648Y3266458D01*
X8741252Y3252253D01*
X8768694Y3244900D01*
X8797105D01*
X8824548Y3252253D01*
X8849152Y3266458D01*
X8869241Y3286547D01*
X8883447Y3311152D01*
X8890800Y3338594D01*
Y3367005D01*
X8883447Y3394447D01*
X8869241Y3419052D01*
X8849152Y3439141D01*
X8824548Y3453346D01*
X8797105Y3460699D01*
D02*
G37*
G36*
X8520105D02*
X8491694D01*
X8464252Y3453346D01*
X8439648Y3439141D01*
X8419558Y3419052D01*
X8405353Y3394447D01*
X8398000Y3367005D01*
Y3338594D01*
X8405353Y3311152D01*
X8419558Y3286547D01*
X8439648Y3266458D01*
X8464252Y3252253D01*
X8491694Y3244900D01*
X8520105D01*
X8547548Y3252253D01*
X8572152Y3266458D01*
X8592241Y3286547D01*
X8606447Y3311152D01*
X8613800Y3338594D01*
Y3367005D01*
X8606447Y3394447D01*
X8592241Y3419052D01*
X8572152Y3439141D01*
X8547548Y3453346D01*
X8520105Y3460699D01*
D02*
G37*
G36*
X8243105D02*
X8214695D01*
X8187252Y3453346D01*
X8162648Y3439141D01*
X8142558Y3419052D01*
X8128353Y3394447D01*
X8121000Y3367005D01*
Y3338594D01*
X8128353Y3311152D01*
X8142558Y3286547D01*
X8162648Y3266458D01*
X8187252Y3252253D01*
X8214695Y3244900D01*
X8243105D01*
X8270548Y3252253D01*
X8295152Y3266458D01*
X8315241Y3286547D01*
X8329447Y3311152D01*
X8336800Y3338594D01*
Y3367005D01*
X8329447Y3394447D01*
X8315241Y3419052D01*
X8295152Y3439141D01*
X8270548Y3453346D01*
X8243105Y3460699D01*
D02*
G37*
G36*
X7966105D02*
X7937694D01*
X7910252Y3453346D01*
X7885647Y3439141D01*
X7865558Y3419052D01*
X7851353Y3394447D01*
X7844000Y3367005D01*
Y3338594D01*
X7851353Y3311152D01*
X7865558Y3286547D01*
X7885647Y3266458D01*
X7910252Y3252253D01*
X7937694Y3244900D01*
X7966105D01*
X7993547Y3252253D01*
X8018152Y3266458D01*
X8038241Y3286547D01*
X8052446Y3311152D01*
X8059799Y3338594D01*
Y3367005D01*
X8052446Y3394447D01*
X8038241Y3419052D01*
X8018152Y3439141D01*
X7993547Y3453346D01*
X7966105Y3460699D01*
D02*
G37*
G36*
X7689105D02*
X7660694D01*
X7633252Y3453346D01*
X7608647Y3439141D01*
X7588558Y3419052D01*
X7574353Y3394447D01*
X7567000Y3367005D01*
Y3338594D01*
X7574353Y3311152D01*
X7588558Y3286547D01*
X7608647Y3266458D01*
X7633252Y3252253D01*
X7660694Y3244900D01*
X7689105D01*
X7716547Y3252253D01*
X7741152Y3266458D01*
X7761241Y3286547D01*
X7775446Y3311152D01*
X7782800Y3338594D01*
Y3367005D01*
X7775446Y3394447D01*
X7761241Y3419052D01*
X7741152Y3439141D01*
X7716547Y3453346D01*
X7689105Y3460699D01*
D02*
G37*
G36*
X7412105D02*
X7383694D01*
X7356252Y3453346D01*
X7331648Y3439141D01*
X7311558Y3419052D01*
X7297353Y3394447D01*
X7290000Y3367005D01*
Y3338594D01*
X7297353Y3311152D01*
X7311558Y3286547D01*
X7331648Y3266458D01*
X7356252Y3252253D01*
X7383694Y3244900D01*
X7412105D01*
X7439547Y3252253D01*
X7464152Y3266458D01*
X7484241Y3286547D01*
X7498447Y3311152D01*
X7505800Y3338594D01*
Y3367005D01*
X7498447Y3394447D01*
X7484241Y3419052D01*
X7464152Y3439141D01*
X7439547Y3453346D01*
X7412105Y3460699D01*
D02*
G37*
G36*
X11541800Y3482099D02*
X11289100D01*
Y3229399D01*
X11297287D01*
X11338548Y3235934D01*
X11378278Y3248844D01*
X11415500Y3267809D01*
X11449296Y3292364D01*
X11478835Y3321903D01*
X11503390Y3355699D01*
X11522355Y3392921D01*
X11535265Y3432652D01*
X11541800Y3473912D01*
Y3482099D01*
D02*
G37*
G36*
X11263700D02*
X11011000D01*
Y3473912D01*
X11017534Y3432652D01*
X11030444Y3392921D01*
X11049409Y3355699D01*
X11073964Y3321903D01*
X11103503Y3292364D01*
X11137300Y3267809D01*
X11174521Y3248844D01*
X11214252Y3235934D01*
X11255512Y3229399D01*
X11263700D01*
Y3482099D01*
D02*
G37*
G36*
X6831799D02*
X6579099D01*
Y3229399D01*
X6587287D01*
X6628547Y3235934D01*
X6668277Y3248844D01*
X6705499Y3267809D01*
X6739296Y3292364D01*
X6768835Y3321903D01*
X6793390Y3355699D01*
X6812355Y3392921D01*
X6825264Y3432652D01*
X6831799Y3473912D01*
Y3482099D01*
D02*
G37*
G36*
X6553699D02*
X6300999D01*
Y3473912D01*
X6307534Y3432652D01*
X6320444Y3392921D01*
X6339409Y3355699D01*
X6363964Y3321903D01*
X6393503Y3292364D01*
X6427299Y3267809D01*
X6464521Y3248844D01*
X6504251Y3235934D01*
X6545512Y3229399D01*
X6553699D01*
Y3482099D01*
D02*
G37*
G36*
X3099010Y3525800D02*
X3086100D01*
Y3213100D01*
X3398800D01*
Y3226010D01*
X3390787Y3276598D01*
X3374960Y3325310D01*
X3351707Y3370947D01*
X3321601Y3412384D01*
X3285384Y3448601D01*
X3243947Y3478707D01*
X3198310Y3501960D01*
X3149598Y3517787D01*
X3099010Y3525800D01*
D02*
G37*
G36*
X3060700D02*
X3047790D01*
X2997202Y3517787D01*
X2948490Y3501960D01*
X2902853Y3478707D01*
X2861416Y3448601D01*
X2825199Y3412384D01*
X2795093Y3370947D01*
X2771840Y3325310D01*
X2756013Y3276598D01*
X2748000Y3226010D01*
Y3213100D01*
X3060700D01*
Y3525800D01*
D02*
G37*
G36*
X17081709Y3513100D02*
X17068800D01*
Y3200400D01*
X17381500D01*
Y3213310D01*
X17373486Y3263898D01*
X17357660Y3312610D01*
X17334407Y3358247D01*
X17304301Y3399684D01*
X17268085Y3435901D01*
X17226646Y3466007D01*
X17181010Y3489260D01*
X17132298Y3505087D01*
X17081709Y3513100D01*
D02*
G37*
G36*
X17043401D02*
X17030490D01*
X16979903Y3505087D01*
X16931190Y3489260D01*
X16885553Y3466007D01*
X16844116Y3435901D01*
X16807899Y3399684D01*
X16777792Y3358247D01*
X16754539Y3312610D01*
X16738713Y3263898D01*
X16730701Y3213310D01*
Y3200400D01*
X17043401D01*
Y3513100D01*
D02*
G37*
G36*
X5548904Y3378200D02*
X5525496D01*
X5502886Y3372142D01*
X5482614Y3360438D01*
X5466062Y3343886D01*
X5454358Y3323614D01*
X5448300Y3301004D01*
Y3277596D01*
X5454358Y3254986D01*
X5466062Y3234714D01*
X5482614Y3218162D01*
X5502886Y3206458D01*
X5525496Y3200400D01*
X5548904D01*
X5571514Y3206458D01*
X5591786Y3218162D01*
X5608338Y3234714D01*
X5620042Y3254986D01*
X5626100Y3277596D01*
Y3301004D01*
X5620042Y3323614D01*
X5608338Y3343886D01*
X5591786Y3360438D01*
X5571514Y3372142D01*
X5548904Y3378200D01*
D02*
G37*
G36*
X3398800Y3187700D02*
X3086100D01*
Y2875000D01*
X3099010D01*
X3149598Y2883013D01*
X3198310Y2898840D01*
X3243947Y2922093D01*
X3285384Y2952199D01*
X3321601Y2988416D01*
X3351707Y3029853D01*
X3374960Y3075490D01*
X3390787Y3124202D01*
X3398800Y3174790D01*
Y3187700D01*
D02*
G37*
G36*
X3060700D02*
X2748000D01*
Y3174790D01*
X2756013Y3124202D01*
X2771840Y3075490D01*
X2795093Y3029853D01*
X2825199Y2988416D01*
X2861416Y2952199D01*
X2902853Y2922093D01*
X2948490Y2898840D01*
X2997202Y2883013D01*
X3047790Y2875000D01*
X3060700D01*
Y3187700D01*
D02*
G37*
G36*
X17381500Y3175000D02*
X17068800D01*
Y2862300D01*
X17081709D01*
X17132298Y2870313D01*
X17181010Y2886140D01*
X17226646Y2909393D01*
X17268085Y2939499D01*
X17304301Y2975716D01*
X17334407Y3017153D01*
X17357660Y3062790D01*
X17373486Y3111502D01*
X17381500Y3162090D01*
Y3175000D01*
D02*
G37*
G36*
X17043401D02*
X16730701D01*
Y3162090D01*
X16738713Y3111502D01*
X16754539Y3062790D01*
X16777792Y3017153D01*
X16807899Y2975716D01*
X16844116Y2939499D01*
X16885553Y2909393D01*
X16931190Y2886140D01*
X16979903Y2870313D01*
X17030490Y2862300D01*
X17043401D01*
Y3175000D01*
D02*
G37*
%LPD*%
D63*
X9483800Y12116100D02*
D03*
X8905800D02*
D03*
D64*
X9627300Y12067100D02*
D03*
X8762300D02*
D03*
D65*
X9627300Y12484100D02*
D03*
X8762300D02*
D03*
D66*
X7397900Y3352799D02*
D03*
X7674900D02*
D03*
X7951900D02*
D03*
X8228900D02*
D03*
X8505900D02*
D03*
X8782900D02*
D03*
X9059900D02*
D03*
X9336900D02*
D03*
X9613899D02*
D03*
X9890900D02*
D03*
X10167900D02*
D03*
X10444900D02*
D03*
X7259400Y3636799D02*
D03*
X7536400D02*
D03*
X7813399D02*
D03*
X8090400D02*
D03*
X8367400D02*
D03*
X8644400D02*
D03*
X10306400D02*
D03*
X9752400D02*
D03*
X10029400D02*
D03*
X9475400D02*
D03*
X9198400D02*
D03*
X8921400D02*
D03*
X16954500Y6907400D02*
D03*
Y7184400D02*
D03*
Y7461400D02*
D03*
Y7738400D02*
D03*
Y8015400D02*
D03*
Y8292400D02*
D03*
Y8569400D02*
D03*
Y8846400D02*
D03*
Y9123400D02*
D03*
Y9400400D02*
D03*
Y9677400D02*
D03*
Y9954400D02*
D03*
X16670500Y6768900D02*
D03*
Y7045900D02*
D03*
Y7322900D02*
D03*
Y7599900D02*
D03*
Y7876900D02*
D03*
Y8153900D02*
D03*
Y9815900D02*
D03*
Y9261900D02*
D03*
Y9538900D02*
D03*
Y8984900D02*
D03*
Y8707900D02*
D03*
Y8430900D02*
D03*
D67*
X11276400Y3494799D02*
D03*
X6566399D02*
D03*
X16812500Y10785900D02*
D03*
Y6075900D02*
D03*
D68*
X10583399Y3636799D02*
D03*
D69*
X16670500Y10092900D02*
D03*
D70*
X4286600Y4704500D02*
D03*
X3536600D02*
D03*
X4286600Y5212500D02*
D03*
X3536600D02*
D03*
X4286600Y5716500D02*
D03*
X3536600D02*
D03*
X4286600Y7228500D02*
D03*
X5721700Y4704500D02*
D03*
X4971700D02*
D03*
X5721700Y5212500D02*
D03*
X4971700D02*
D03*
X5721700Y5716500D02*
D03*
X4971700D02*
D03*
X5721700Y7228500D02*
D03*
X7156800Y4704500D02*
D03*
X6406800D02*
D03*
X7156800Y5212500D02*
D03*
X6406800D02*
D03*
X7156800Y5716500D02*
D03*
X6406800D02*
D03*
X7156800Y7228500D02*
D03*
X8591900Y4704500D02*
D03*
X7841900D02*
D03*
X8591900Y5212500D02*
D03*
X7841900D02*
D03*
X8591900Y5716500D02*
D03*
X7841900D02*
D03*
X8591900Y7228500D02*
D03*
X10039700Y4704500D02*
D03*
X9289700D02*
D03*
X10039700Y5212500D02*
D03*
X9289700D02*
D03*
X10039700Y5716500D02*
D03*
X9289700D02*
D03*
X10039700Y7228500D02*
D03*
X11474800Y4704500D02*
D03*
X10724800D02*
D03*
X11474800Y5212500D02*
D03*
X10724800D02*
D03*
X11474800Y5716500D02*
D03*
X10724800D02*
D03*
X11474800Y7228500D02*
D03*
X12909900Y4704500D02*
D03*
X12159900D02*
D03*
X12909900Y5212500D02*
D03*
X12159900D02*
D03*
X12909900Y5716500D02*
D03*
X12159900D02*
D03*
X12909900Y7228500D02*
D03*
X14345000Y4704500D02*
D03*
X13595000D02*
D03*
X14345000Y5212500D02*
D03*
X13595000D02*
D03*
X14345000Y5716500D02*
D03*
X13595000D02*
D03*
X14345000Y7228500D02*
D03*
D71*
X3536600D02*
D03*
X4971700D02*
D03*
X6406800D02*
D03*
X7841900D02*
D03*
X9289700D02*
D03*
X10724800D02*
D03*
X12159900D02*
D03*
X13595000D02*
D03*
D72*
X6629400Y12293600D02*
D03*
X14958975Y11339650D02*
D03*
X11099800Y10668000D02*
D03*
X11430000Y9499600D02*
D03*
X9702800Y10045700D02*
D03*
X9639300Y9779000D02*
D03*
X9779000Y9740900D02*
D03*
X5918200Y12046100D02*
D03*
X4533900Y11239500D02*
D03*
X11087100Y11684000D02*
D03*
X10189000Y11696700D02*
D03*
X10439400Y10591800D02*
D03*
X11455400Y10287000D02*
D03*
X3860800Y8801100D02*
D03*
Y8699500D02*
D03*
X3251200Y10147300D02*
D03*
X14846300Y11214100D02*
D03*
X14888499Y11015000D02*
D03*
X15760699Y10909300D02*
D03*
X15440100Y10347400D02*
D03*
X3911600Y9575800D02*
D03*
Y10401300D02*
D03*
X3351900Y10147300D02*
D03*
X3440800D02*
D03*
X3517000D02*
D03*
X3860800Y8912321D02*
D03*
Y8988521D02*
D03*
X5830200Y9132200D02*
D03*
X5741300D02*
D03*
X5665100D02*
D03*
X5906400D02*
D03*
X5677800Y10225300D02*
D03*
X5588900D02*
D03*
X5512700D02*
D03*
X5754000D02*
D03*
X5677800Y10655300D02*
D03*
X5588900D02*
D03*
X5512700D02*
D03*
X5754000D02*
D03*
X5918200Y9550400D02*
D03*
X5676900D02*
D03*
X5753100D02*
D03*
X5842000D02*
D03*
X11074400Y8851900D02*
D03*
X11009859Y8939274D02*
D03*
X10918760Y8851900D02*
D03*
X9829800Y9296400D02*
D03*
X10185400D02*
D03*
X11188700Y9029700D02*
D03*
X14058900Y9106300D02*
D03*
X14401801Y9144400D02*
D03*
X11315700Y9068200D02*
D03*
X10961850Y9319250D02*
D03*
X10820400Y8674100D02*
D03*
X11099800Y10414000D02*
D03*
X11290300Y10375900D02*
D03*
X10401300Y10312400D02*
D03*
X10668000Y10629900D02*
D03*
X13716000Y11417300D02*
D03*
X12750800Y11379200D02*
D03*
X8077200Y12153900D02*
D03*
X7696200Y12407900D02*
D03*
X6867400Y11344700D02*
D03*
X5537200Y11226800D02*
D03*
Y12293600D02*
D03*
X5041900Y11798300D02*
D03*
X6553200Y10634375D02*
D03*
X6705768Y10566568D02*
D03*
X5791200Y11264900D02*
D03*
X6045200D02*
D03*
X10350500Y8966200D02*
D03*
Y8890000D02*
D03*
X6794500Y12293600D02*
D03*
X6756400Y11303000D02*
D03*
X11087100Y9918700D02*
D03*
Y9855200D02*
D03*
X11150600D02*
D03*
Y9918700D02*
D03*
X10934700Y9855200D02*
D03*
X10858500D02*
D03*
X10934700Y9918700D02*
D03*
X10858500D02*
D03*
X10401300Y9788760D02*
D03*
X10274300Y9728200D02*
D03*
X9872900Y9650100D02*
D03*
X9136200Y10269400D02*
D03*
Y9974400D02*
D03*
X14071600Y11722100D02*
D03*
X14135100Y11912600D02*
D03*
X15011400Y10464800D02*
D03*
X15024100Y10336600D02*
D03*
X14960600Y10401300D02*
D03*
X13957300Y12340700D02*
D03*
X15087601Y9169400D02*
D03*
Y8763000D02*
D03*
X14744701D02*
D03*
X14401801D02*
D03*
X14058900D02*
D03*
X10845800Y8585200D02*
D03*
X10350500Y8801100D02*
D03*
X11112500Y8686800D02*
D03*
X11277600Y8610600D02*
D03*
X11315700Y8788400D02*
D03*
X9169400Y11026652D02*
D03*
X9245600Y11023600D02*
D03*
X10712618Y9341018D02*
D03*
X11099800Y9512700D02*
D03*
X11201400Y9512300D02*
D03*
X14744701Y9156700D02*
D03*
X10642600Y9385300D02*
D03*
X10555241Y9386841D02*
D03*
X10464800Y9385300D02*
D03*
X11595100Y9906000D02*
D03*
X11849100Y10058400D02*
D03*
X11925300Y9969500D02*
D03*
X10744600Y9779000D02*
D03*
X10744200Y9664700D02*
D03*
Y9563100D02*
D03*
X10160000Y10579100D02*
D03*
Y10782300D02*
D03*
Y10680700D02*
D03*
X10350500Y10617200D02*
D03*
X10947400Y10016700D02*
D03*
X11087100D02*
D03*
X10337800Y9652000D02*
D03*
X12585700Y11582400D02*
D03*
Y10642600D02*
D03*
X12903200Y11938000D02*
D03*
Y12065000D02*
D03*
X3987800Y8002525D02*
D03*
X5422900D02*
D03*
X6858000D02*
D03*
X8293100D02*
D03*
X9740900D02*
D03*
X11176000D02*
D03*
X14046201D02*
D03*
X12598400Y8013700D02*
D03*
X11099800Y8991600D02*
D03*
X10353436Y8724900D02*
D03*
X10350500Y8648700D02*
D03*
X11341100Y8204200D02*
D03*
X12763500Y8143561D02*
D03*
X12153900Y8521700D02*
D03*
D73*
X17056100Y3187700D02*
D03*
X3073400Y3200400D02*
D03*
X3048000Y12187300D02*
D03*
X17043401Y12192000D02*
D03*
D74*
X5537200Y3289300D02*
D03*
X5765800Y3441700D02*
D03*
X6007100Y3848100D02*
D03*
%TF.MD5,91db2ee007649c98acc5574376e0a610*%
M02*
